<svg xmlns="http://www.w3.org/2000/svg" viewBox="0 0 181.5 87"><defs><style>.cls-1{opacity:0.4;}.cls-2{fill:#fff;}.cls-3{fill:#bf0a1c;}</style></defs><title>certificado</title><g id="Capa_2" data-name="Capa 2"><g id="Capa_6" data-name="Capa 6"><g class="cls-1"><polygon points="0 9 181.5 9 181.5 70 90.25 87 0 71 0 9"/></g><polygon class="cls-2" points="0 0 181.5 0 181.5 61 90.25 78 0 62 0 0"/><path class="cls-3" d="M85.1,9.12,79.37,22H76L70.49,9.12h4L78,18.5,81.4,9.12Z"/><path class="cls-3" d="M96,22H85.83V9.12h10v2.65H88.94v2.42h6v2.65h-6v2.52h7Z"/><path class="cls-3" d="M104.33,16.65h-3.41V22H97.81V9.12h6.55a6.45,6.45,0,0,1,3.51.83,2.76,2.76,0,0,1,1.3,2.49,2.62,2.62,0,0,1-.64,1.73,3.13,3.13,0,0,1-1.61,1v.1a3,3,0,0,1,1.61,1,2.53,2.53,0,0,1,.54,1.62V22h-3.28V18Q105.79,16.65,104.33,16.65Zm-3.41-5v2.61h3.14a2.1,2.1,0,0,0,1.3-.36,1.2,1.2,0,0,0,.48-1,1,1,0,0,0-.48-.92,2.28,2.28,0,0,0-1.3-.32Z"/><path class="cls-3" d="M37,36.82l2.82,1.12c0,.1-.1.23-.17.39a6.42,6.42,0,0,1-.58.86A6.18,6.18,0,0,1,38,40.29a5.91,5.91,0,0,1-1.65.87,6.59,6.59,0,0,1-2.3.39,6.93,6.93,0,0,1-5.15-1.84,6.52,6.52,0,0,1-1.82-4.79A6.43,6.43,0,0,1,29,30.09a6.92,6.92,0,0,1,5-1.8,8.18,8.18,0,0,1,1.91.21,5.48,5.48,0,0,1,1.47.55,7.06,7.06,0,0,1,1.07.75,4.22,4.22,0,0,1,.75.82,8,8,0,0,1,.46.75,4.66,4.66,0,0,1,.26.55l.06.21L36.91,33a1.46,1.46,0,0,0-.07-.19,2.54,2.54,0,0,0-.28-.42A3,3,0,0,0,36,31.9a2.82,2.82,0,0,0-.87-.43,4,4,0,0,0-1.26-.19,3.35,3.35,0,0,0-2.62,1,3.82,3.82,0,0,0-.89,2.66,3.68,3.68,0,0,0,1,2.69,3.49,3.49,0,0,0,2.61,1,3.79,3.79,0,0,0,1.18-.18A2.85,2.85,0,0,0,36,38a5.05,5.05,0,0,0,.56-.51,2.07,2.07,0,0,0,.33-.45Z"/><path class="cls-3" d="M51.52,41.38H41.38V28.46h10v2.65H44.49v2.42h6v2.65h-6v2.52h7Z"/><path class="cls-3" d="M59.88,36H56.46v5.39H53.36V28.46h6.55a6.45,6.45,0,0,1,3.51.83,2.76,2.76,0,0,1,1.3,2.49,2.62,2.62,0,0,1-.64,1.73,3.13,3.13,0,0,1-1.61,1v.1a3,3,0,0,1,1.61,1,2.53,2.53,0,0,1,.54,1.62v4.15H61.34v-4Q61.34,36,59.88,36Zm-3.41-5V33.6h3.14a2.1,2.1,0,0,0,1.3-.36,1.2,1.2,0,0,0,.48-1,1,1,0,0,0-.48-.92,2.28,2.28,0,0,0-1.3-.32Z"/><path class="cls-3" d="M77,31.11H72.84V41.38H69.73V31.11H65.46V28.46H77Z"/><path class="cls-3" d="M81.14,41.38H78.05V28.46h3.09Z"/><path class="cls-3" d="M86.61,41.38H83.51V28.46h9.43v2.65H86.61v2.33h5.2v2.65h-5.2Z"/><path class="cls-3" d="M97.29,41.38H94.2V28.46h3.09Z"/><path class="cls-3" d="M109,36.82l2.82,1.12c0,.1-.1.23-.17.39a6.42,6.42,0,0,1-.58.86,6.18,6.18,0,0,1-1.06,1.1,5.91,5.91,0,0,1-1.65.87,6.59,6.59,0,0,1-2.3.39,6.93,6.93,0,0,1-5.15-1.84,6.52,6.52,0,0,1-1.82-4.79,6.43,6.43,0,0,1,1.85-4.83,6.92,6.92,0,0,1,5-1.8,8.18,8.18,0,0,1,1.91.21,5.48,5.48,0,0,1,1.47.55,7.06,7.06,0,0,1,1.07.75,4.22,4.22,0,0,1,.75.82,8,8,0,0,1,.46.75,4.66,4.66,0,0,1,.26.55l.06.21-3.07.92a1.46,1.46,0,0,0-.07-.19,2.54,2.54,0,0,0-.28-.42,3,3,0,0,0-.52-.54,2.82,2.82,0,0,0-.87-.43,4,4,0,0,0-1.26-.19,3.35,3.35,0,0,0-2.62,1,3.82,3.82,0,0,0-.89,2.66,3.68,3.68,0,0,0,1,2.69,3.49,3.49,0,0,0,2.61,1,3.79,3.79,0,0,0,1.18-.18A2.85,2.85,0,0,0,108,38a5.05,5.05,0,0,0,.56-.51,2.07,2.07,0,0,0,.33-.45Z"/><path class="cls-3" d="M116.06,38.69l-1.14,2.69H111.6l6-12.92h2.82l5.81,12.92h-3.79l-1.1-2.69Zm2.69-6.25-1.6,3.72h3.13Z"/><path class="cls-3" d="M133,41.38h-6V28.46h6a6.61,6.61,0,0,1,4.73,1.71,6.12,6.12,0,0,1,1.81,4.68,6.33,6.33,0,0,1-1.83,4.75A6.46,6.46,0,0,1,133,41.38Zm-.25-10.21h-2.61v7.53h2.61a3.21,3.21,0,0,0,2.49-1,4,4,0,0,0,.94-2.8,3.7,3.7,0,0,0-1-2.69A3.28,3.28,0,0,0,132.75,31.16Z"/><path class="cls-3" d="M147.28,41.55a6.28,6.28,0,0,1-6.59-6.63,6.44,6.44,0,0,1,1.84-4.85,6.55,6.55,0,0,1,4.75-1.78A6.67,6.67,0,0,1,152,30a6.35,6.35,0,0,1,1.88,4.88,6.32,6.32,0,0,1-6.61,6.63Zm0-10.27a3.25,3.25,0,0,0-2.51,1,3.75,3.75,0,0,0-.92,2.65,3.68,3.68,0,0,0,.94,2.66,3.29,3.29,0,0,0,2.49,1,3.34,3.34,0,0,0,2.51-1,3.64,3.64,0,0,0,1-2.65,3.6,3.6,0,0,0-1-2.67A3.38,3.38,0,0,0,147.28,31.28Z"/><path d="M53.11,67H48.81V57.75h4.29A4.73,4.73,0,0,1,56.49,59a4.37,4.37,0,0,1,1.3,3.35,4.53,4.53,0,0,1-1.31,3.4A4.62,4.62,0,0,1,53.11,67Zm-.18-7.31H51.06v5.39h1.87a2.3,2.3,0,0,0,1.78-.74,2.85,2.85,0,0,0,.67-2,2.64,2.64,0,0,0-.7-1.92A2.34,2.34,0,0,0,52.93,59.68Z"/><path d="M66.53,67H59.27V57.75h7.19v1.9h-5v1.73h4.27v1.9H61.5v1.8h5Z"/><path d="M67.46,64.24,69.84,64a1.3,1.3,0,0,0,.63.89,2.39,2.39,0,0,0,1.28.32A2.6,2.6,0,0,0,73,64.94a.71.71,0,0,0,.45-.63.66.66,0,0,0-.31-.58,2.11,2.11,0,0,0-.81-.3q-.5-.09-1.1-.16A9.45,9.45,0,0,1,70,63a4.59,4.59,0,0,1-1.1-.44,2.1,2.1,0,0,1-.81-.85,2.89,2.89,0,0,1-.31-1.4,2.31,2.31,0,0,1,1.08-2,5.15,5.15,0,0,1,3-.76,4.76,4.76,0,0,1,2.84.72,2.67,2.67,0,0,1,1.11,1.94l-2.5.27q-.16-.93-1.6-.93t-1.51.79a.69.69,0,0,0,.32.6,2.09,2.09,0,0,0,.83.31q.51.09,1.13.15a10.49,10.49,0,0,1,1.23.2,5.22,5.22,0,0,1,1.13.38,2,2,0,0,1,.83.77A2.44,2.44,0,0,1,76,64.11a2.57,2.57,0,0,1-1.13,2.17,5,5,0,0,1-3,.83,5.42,5.42,0,0,1-3.05-.74A2.93,2.93,0,0,1,67.46,64.24Z"/><path d="M84,63.73l2,.8c0,.07-.07.17-.12.28a4.65,4.65,0,0,1-.42.61,4.4,4.4,0,0,1-.76.78,4.19,4.19,0,0,1-1.18.62,4.7,4.7,0,0,1-1.64.28,5,5,0,0,1-3.69-1.32A4.66,4.66,0,0,1,77,62.37a4.6,4.6,0,0,1,1.32-3.46,5,5,0,0,1,3.61-1.29,5.83,5.83,0,0,1,1.36.15,3.87,3.87,0,0,1,1,.4,5,5,0,0,1,.76.54,3,3,0,0,1,.54.59,6.09,6.09,0,0,1,.33.54,3.45,3.45,0,0,1,.18.4l0,.15L84,61a1,1,0,0,0,0-.14,1.84,1.84,0,0,0-.2-.3,2.21,2.21,0,0,0-.37-.39,2,2,0,0,0-.62-.31,2.83,2.83,0,0,0-.9-.14,2.4,2.4,0,0,0-1.87.7,2.73,2.73,0,0,0-.63,1.9A2.63,2.63,0,0,0,80,64.29a2.49,2.49,0,0,0,1.87.7,2.71,2.71,0,0,0,.84-.13,2.06,2.06,0,0,0,.63-.31,3.77,3.77,0,0,0,.4-.37,1.49,1.49,0,0,0,.24-.32Z"/><path d="M89.39,65.07,88.57,67H86.2l4.28-9.25h2L96.66,67H93.95l-.79-1.92Zm1.92-4.47-1.15,2.66h2.24Z"/><path d="M102.17,63.13H99.73V67H97.5V57.75h4.69a4.62,4.62,0,0,1,2.51.59,2,2,0,0,1,.93,1.78,1.88,1.88,0,0,1-.46,1.24,2.24,2.24,0,0,1-1.15.74v.07a2.11,2.11,0,0,1,1.15.7,1.81,1.81,0,0,1,.39,1.16v3h-2.34V64.1Q103.22,63.13,102.17,63.13Zm-2.44-3.57v1.87H102a1.5,1.5,0,0,0,.93-.26.86.86,0,0,0,.34-.72.75.75,0,0,0-.34-.66,1.63,1.63,0,0,0-.93-.23Z"/><path d="M116.27,61.78v1a4.08,4.08,0,0,1-1.28,3,4.51,4.51,0,0,1-3.29,1.25,4.78,4.78,0,0,1-3.57-1.32,4.67,4.67,0,0,1-1.3-3.42,4.61,4.61,0,0,1,1.32-3.46,5,5,0,0,1,3.63-1.28,4.61,4.61,0,0,1,2.84.8,4,4,0,0,1,1.45,2l-2.22.65a1,1,0,0,0,0-.14,1.84,1.84,0,0,0-.2-.3,2.08,2.08,0,0,0-.38-.39,2.12,2.12,0,0,0-.63-.31,2.88,2.88,0,0,0-.91-.14,2.36,2.36,0,0,0-1.85.7,2.73,2.73,0,0,0-.63,1.9,2.58,2.58,0,0,0,.7,1.92,2.47,2.47,0,0,0,1.82.7,2.63,2.63,0,0,0,1.47-.4,1.54,1.54,0,0,0,.73-1.07l-2.18.05V61.78Z"/><path d="M119.47,65.07,118.65,67h-2.37l4.28-9.25h2L126.74,67H124l-.79-1.92Zm1.92-4.47-1.15,2.66h2.24Z"/><path d="M132.25,63.13h-2.44V67h-2.22V57.75h4.69a4.62,4.62,0,0,1,2.51.59,2,2,0,0,1,.93,1.78,1.88,1.88,0,0,1-.46,1.24,2.24,2.24,0,0,1-1.15.74v.07a2.11,2.11,0,0,1,1.15.7,1.81,1.81,0,0,1,.39,1.16v3H133.3V64.1Q133.3,63.13,132.25,63.13Zm-2.44-3.57v1.87h2.25a1.5,1.5,0,0,0,.93-.26.86.86,0,0,0,.34-.72.75.75,0,0,0-.34-.66,1.63,1.63,0,0,0-.93-.23Z"/><rect x="12.5" y="47" width="153" height="1"/></g></g></svg>