<?xml version="1.0" encoding="utf-8"?>
<!-- Generator: Adobe Illustrator 21.1.0, SVG Export Plug-In . SVG Version: 6.00 Build 0)  -->
<svg version="1.1" id="Capa_1" xmlns="http://www.w3.org/2000/svg" xmlns:xlink="http://www.w3.org/1999/xlink" x="0px" y="0px"
	 viewBox="0 0 1004.1 644.8" style="enable-background:new 0 0 1004.1 644.8;" xml:space="preserve">
<style type="text/css">
	.st0{fill:none;}
	.st1{fill:#1D1D1B;}
	.st2{fill:url(#SVGID_1_);}
	.st3{fill:#FFD43C;}
	.st4{clip-path:url(#SVGID_3_);}
	.st5{fill:url(#SVGID_4_);}
	.st6{opacity:0.48;}
	.st7{clip-path:url(#SVGID_6_);}
	.st8{fill:#140D0B;}
	.st9{fill:#515151;}
	.st10{fill:#545454;}
	.st11{fill:#474747;}
	.st12{fill:#0B2B70;}
	.st13{fill:#DAA284;}
	.st14{fill:#6491F9;}
	.st15{fill:#777677;}
	.st16{fill:#E8AF95;}
	.st17{fill:#666566;}
	.st18{fill:#4E4C4F;}
	.st19{fill:#606060;}
	.st20{fill:#8C898C;}
	.st21{fill:#EFB49A;}
	.st22{fill:#383D46;}
	.st23{fill:#FFFFFF;}
	.st24{fill:#57453F;}
	.st25{fill:#FC8080;}
</style>
<pattern  y="644.8" width="28.8" height="28.8" patternUnits="userSpaceOnUse" id="_10_ppp_60_" viewBox="4.3 -33.1 28.8 28.8" style="overflow:visible;">
	<g>
		<rect x="4.3" y="-33.1" class="st0" width="28.8" height="28.8"/>
		<rect x="4.3" y="-33.1" class="st0" width="28.8" height="28.8"/>
		<circle class="st1" cx="33.1" cy="-33.1" r="4.3"/>
		<circle class="st1" cx="18.7" cy="-33.1" r="4.3"/>
		<circle class="st1" cx="33.1" cy="-18.7" r="4.3"/>
		<circle class="st1" cx="18.7" cy="-18.7" r="4.3"/>
		<circle class="st1" cx="11.5" cy="-25.9" r="4.3"/>
		<circle class="st1" cx="25.9" cy="-25.9" r="4.3"/>
		<circle class="st1" cx="11.5" cy="-11.5" r="4.3"/>
		<circle class="st1" cx="25.9" cy="-11.5" r="4.3"/>
		<circle class="st1" cx="4.3" cy="-33.1" r="4.3"/>
		<circle class="st1" cx="4.3" cy="-18.7" r="4.3"/>
		<circle class="st1" cx="33.1" cy="-4.3" r="4.3"/>
		<circle class="st1" cx="18.7" cy="-4.3" r="4.3"/>
		<circle class="st1" cx="4.3" cy="-4.3" r="4.3"/>
	</g>
</pattern>
<title>driver</title>
<g>
	<g id="Capa_2">
		<g id="cuadro">
			
				<linearGradient id="SVGID_1_" gradientUnits="userSpaceOnUse" x1="71.07" y1="373.195" x2="976.97" y2="373.195" gradientTransform="matrix(1 0 0 -1 0 646)">
				<stop  offset="0.14" style="stop-color:#2C35FF"/>
				<stop  offset="0.29" style="stop-color:#2932F9"/>
				<stop  offset="0.49" style="stop-color:#202BE9"/>
				<stop  offset="0.72" style="stop-color:#111FCD"/>
				<stop  offset="0.91" style="stop-color:#0012AF"/>
			</linearGradient>
			<path class="st2" d="M113.5,67.5H777c23.4,0,42.4,19,42.4,42.4v325.8c0,23.4-19,42.4-42.4,42.4H113.5c-23.4,0-42.4-19-42.4-42.4
				V109.9C71.1,86.5,90.1,67.5,113.5,67.5z"/>
			<path class="st3" d="M535.3,184.9h307.7c2.6,0,4.7,2.1,4.7,4.7v0.7c0,2.6-2.1,4.7-4.7,4.7H535.3c-2.6,0-4.7-2.1-4.7-4.7v-0.7
				C530.5,187.1,532.7,184.9,535.3,184.9z"/>
			<path class="st3" d="M315.9,184.1H70v11h245.9c2.8,0,5.1-2.3,5.1-5.1v-0.7C321,186.4,318.7,184.1,315.9,184.1
				C315.9,184.1,315.9,184.1,315.9,184.1z"/>
			<g>
				<defs>
					<path id="SVGID_2_" d="M113.5,67.3H777c23.4,0,42.4,19,42.4,42.4v325.8c0,23.4-19,42.4-42.4,42.4H113.5
						c-23.4,0-42.4-19-42.4-42.4V109.7C71.1,86.3,90.1,67.3,113.5,67.3z"/>
				</defs>
				<clipPath id="SVGID_3_">
					<use xlink:href="#SVGID_2_"  style="overflow:visible;"/>
				</clipPath>
				<g class="st4">
					<pattern  id="SVGID_4_" xlink:href="#_10_ppp_60_" patternTransform="matrix(0.61 0 0 -0.55 -3026.9971 -12496.2734)">
					</pattern>
					<rect y="67" class="st5" width="970.7" height="486.5"/>
				</g>
			</g>
		</g>
		<g id="personaje">
			<g class="st6">
				<g>
					<defs>
						<path id="SVGID_5_" d="M113.5,66.3H777c23.4,0,42.4,19,42.4,42.4v325.8c0,23.4-19,42.4-42.4,42.4H113.5
							c-23.4,0-42.4-19-42.4-42.4V108.7C71.1,85.3,90.1,66.3,113.5,66.3z"/>
					</defs>
					<clipPath id="SVGID_6_">
						<use xlink:href="#SVGID_5_"  style="overflow:visible;"/>
					</clipPath>
					<g class="st7">
						<path class="st8" d="M981.3,353c6.1-14.5,9.5-30,9.8-45.7c0.2-11.1-9.2-35.8-25.5-41c-4.6-1.5-9.5-1.7-14.2-0.7
							c-6.2-2.9-12.5-5.5-19-7.7c-17.2-5.6-48.4-14.8-56.1-17c-0.6-0.7-1.1-1.3-1.6-2c1.8-4.8,0.1-12,0.1-12c-2-1.1-4.2-1.8-6.5-2.2
							l-1.9-23.4c0-1.6,0.1-3.2,0.1-4.8c1.2-1.7,2.4-3.5,3.5-5.4c0,0,7.1-9.8,7.4-32c16.8,9.3,29.4-28.4,14.5-35.6
							c-1-0.5-2.1-0.6-3.1-0.5c0.3-1.4,0.7-3,1-4.7c0.4-0.6,0.7-1.3,1-2c9.2-21.8,9.2-47.8-1.9-68.8S855,11.9,831.3,12.3
							c-8,0.1-15.9,1.8-23.9,2.6c-5.4,0.5-11.2,0.5-16.1-1.8s-8.8-7.7-7.9-13c-5.7,9.4-13.9,18.7-15.1,29.1c-2.6,1.4-4.9,3.2-7,5.4
							c-5.1,5.3-8.4,12.2-11.2,19c-4.1,9.9-7.3,21.1-4.2,31.2c0,1.4,0.1,3,0.3,4.7c1,9.2,3.4,18.1,7.1,26.6l1.6,0.4
							c-0.8,18.7,0.1,37.9-1,51c-1.1,12.6,12.8,41.8,30.7,50.4l0.4,11c-5.1,2.9-5.5,13.5-5.5,13.5c0.4,0.4,0.8,0.7,1.2,1.1
							l-20.6,11.2c-0.8,0-1.2,0-1.2,0s-0.1,0.3-0.3,0.8l-10.6,5.9c-2.6,1.3-5.1,2.9-7.3,4.8c-8,1-15.9,2.8-23.5,5.3
							c-1.4,0.5-2.8,1-4.3,1.5c-5.3,1.9-10.3,4.3-15.2,7c-1.5,0.8-2.9,1.7-4.3,2.6c-0.7,0.5-1.4,0.9-2.2,1.4c-1.4,1-2.8,2-4.2,3
							c-1.4,1-2.8,2.2-4.1,3.4c-2.8,2.4-5.4,5-7.9,7.7c-0.6,0.7-1.2,1.4-1.9,2.1c-8.6,10.2-15.6,23.4-19.5,40.4l-0.2,0.4v0.1
							l-0.3,0.6l-0.1,0.1l-0.5,0.9l-0.1,0.2l-0.2,0.5l-0.1,0.2l-0.2,0.4l-0.2,0.4l-0.2,0.3l-0.2,0.5l-0.2,0.4l-0.3,0.5l-0.3,0.5
							l-0.2,0.4l-0.3,0.7l-0.2,0.4l-0.3,0.6l-0.3,0.5l-0.3,0.7l-0.2,0.5l-0.3,0.7l-0.3,0.5l-0.2,0.4l-0.1,0.2l-0.9,1.9l-0.1,0.2
							l-1,2l-0.1,0.2v0.1l-1.6,3.2l0,0l-0.1,0.3l-0.7,1.4l-0.1,0.2l-0.1,0.2l-1.5,3l-0.1,0.3l-1.6,3.2l-0.1,0.2l-0.2,0.5l-0.4,0.9
							l-0.1,0.3l-0.2,0.5l-0.4,0.9l-0.1,0.2l-0.2,0.4l-0.6,1.3l-0.1,0.2l-0.1,0.1l-2.3,4.8l0,0l-0.2,0.3l-0.7,1.5l-0.1,0.1l-0.2,0.5
							l-0.2,0.5l-0.5,1l-0.2,0.5l-0.1,0.2l-1.8,3.9l-0.1,0.1l-0.1,0.1l-0.6,1.3l-0.2,0.5l0,0c-1,2.2-2,4.4-3,6.6l0,0.1l-0.2,0.4
							l-0.5,1.2l-0.2,0.4l-0.1,0.2l-1.5,3.2l-0.1,0.2l-0.1,0.2c-0.6,1.3-1.2,2.7-1.7,4v0.1l0,0l-0.5,1.2l-0.2,0.5l0,0l-0.9,2.2
							l-0.1,0.1v0.1c-0.6,1.3-1.1,2.6-1.6,3.9v0.1v0.1l-0.7,1.8l0,0l0,0l-0.1,0.3l-0.4,1.1l0,0l-0.7,1.9v0.1l0,0.1
							c-0.6,1.6-1.2,3.1-1.6,4.6v0.1v0.1c-0.2,0.7-0.4,1.3-0.6,2l-0.1,0.2l-0.1,0.2l-0.3,0.9l-0.1,0.4c-0.1,0.4-0.2,0.9-0.3,1.2
							c-0.3,1.1-0.6,2.1-0.8,3.1l0,0c-0.3,1-0.5,2-0.7,2.9l0,0l0,0c-0.2,0.6-0.3,1.2-0.4,1.8v0.1l-0.1,0.5l-0.1,0.6
							c-0.1,0.3-0.1,0.6-0.2,0.9l-0.1,0.7c0,0.3-0.1,0.5-0.1,0.8s-0.1,0.4-0.1,0.5s-0.1,0.5-0.1,0.7s0,0.4-0.1,0.5s0,0.4-0.1,0.7
							s0,0.4-0.1,0.5s0,0.5-0.1,0.7s0,0.3,0,0.5c0,0.3,0,0.7,0,1c0,0.1,0,0.2,0,0.3c0,0.3,0,0.5,0,0.8s0,0.3,0,0.4s0,0.4,0,0.6
							s0,0.3,0,0.4s0,0.4,0.1,0.6s0,0.3,0.1,0.4s0.1,0.4,0.1,0.6s0,0.2,0.1,0.4c0.1,0.3,0.2,0.6,0.3,1l0.1,0.2
							c0.1,0.3,0.2,0.5,0.3,0.8l0.2,0.4c0.1,0.2,0.2,0.4,0.3,0.6l0.2,0.4c0.1,0.2,0.2,0.4,0.3,0.6l0.2,0.3
							c-0.3,5.7,0.9,10.8,3.8,14.6c12,15.4,33.5,14.5,48.8,11.7c6.4-1.2,23-7.1,41.5-13.9c1.7,25.2,2.6,47.4,0.7,59.1
							c-2,12.5-3.2,23.6-3.8,32.9h-0.3l-7.4,75.7l231,10.4l-10.7-65c0-7.8,0.3-18.7,1-33.7c1.1-23.5,4.6-42.2,10.3-60.4
							c3.9-3.3,7.3-7.1,10-11.5c0,0,11.6-32.5,20.8-62.2c3.7-8.1,7.5-16.8,11.6-26.2C974.5,375.1,978.3,364.2,981.3,353z"/>
					</g>
				</g>
			</g>
			<polyline class="st9" points="798.1,232.5 847.3,232.5 847.3,257.5 797.4,257.5 			"/>
			<path class="st10" d="M767.6,265.1c0,0-83.4-2.4-101.1,75.3c0,0-34.1,66.1-40,88.5c-4.6,17.3-7.5,27.9,13.6,35.4
				c13.1,4.7,34.1-9,48-19.5c42.9-32.4,48.2-72.7,54.4-90.2C754.4,320.2,776.4,273.8,767.6,265.1z"/>
			<path class="st11" d="M771.9,254.6c0,0,23.9,0.2,26.2-22.1s2.7-37.6,2.7-37.6s14.5-23,40.2-21.2s38.9,7.3,38.9,7.3
				s-0.6,19.2-0.6,31c0,17.6,8.5,37.2,34.1,41.9c7.3,1.3-20.7,88.7-107.7,77.4C743.6,323.2,771.9,254.6,771.9,254.6z"/>
			<path class="st11" d="M887.4,240.5c0,0,38.2,11.1,57.9,17.6s47.7,22.3,47.7,22.3s20.3,34.8-10.2,105.3S933,485.2,930.2,546
				c-2.2,47.7-0.2,53.2-0.2,53.2l-213.9-8.4c0,0-2.5-25.3,4-64.9c5.3-32.5-11.2-145.8-5.2-178.4c13.3-72.8,46.1-86.3,46.1-86.3
				l34.6-18.9c0,0,1.3-0.7,0,20.9c-1.4,22.7,0.1,65.1,27.7,67.5"/>
			<polygon class="st12" points="716,558.7 708.6,634.5 939.6,644.8 928,572.3 			"/>
			<path class="st13" d="M797,205.7l1.1,26.8c0,0,19.3,1.8,49.2,0l34-7l-4.2-52C877.2,173.5,796,189.1,797,205.7z"/>
			<path class="st14" d="M695.1,328.4l4.7-15.8c-4.7-3-9.9-5.2-15.3-6.5c-3.9,5.6-7.2,11.7-9.7,18
				C683.8,323.7,691.7,324.7,695.1,328.4z"/>
			<path class="st14" d="M698.3,354.7l4.7-15.8c0,0-11.7-8.3-30.5-8.5c-1,3.2-2,6.5-2.8,10c-1.2,5.2-2.3,4.4-5.8,11.3
				C677.7,349.8,693.1,349.1,698.3,354.7z"/>
			<path class="st15" d="M784.6,260.9l37.4,42.7l20.8,3.1l52-55.1l49,12.5c0,0-27.1,68.7-30.2,131.1l6.2,169.6l-190.4-10.4
				l-6.2-192.5c0,0,15.6-62.4,25-83.2C748.1,278.5,783.5,257.7,784.6,260.9z"/>
			<path class="st10" d="M678,480.6c-15.3,2.9-36.9,3.7-48.8-11.7s4.7-53.2,37.4-61.1c26.7-6.5,46.6,0.4,56,0.1
				c29.4-0.8,55.9-3.4,55.9-3.4s13.7-4.3,18.6,2.2c3.7,5-0.3,24.8-0.3,24.8s2.1,9.2-13.2,12.5S693.3,477.8,678,480.6z"/>
			<path class="st16" d="M795.7,421.5c0,0-4.6-21.1,20.3-36.1s35.3-26.4,35.3-26.4l9.3,6.4l-19.6,26.4c0,0,19.8,1.9,29.3-1.9
				s33.4,4,33.4,4l-5.2,11.3l6,2.3l-6.7,12.9l-9.3-1l-5.7,6.9l-13.5,2.4l-4.5,7.7c0,0-16.4,1.5-29.5,3.7S798.6,447.9,795.7,421.5z"
				/>
			<path class="st17" d="M898.7,494.1c15.5,1.6,37.1,0.7,47.8-15.5s-8.9-52.7-42.2-58c-27.1-4.3-46.4,4.1-55.8,4.6
				c-29.4,1.6-56,1.1-56,1.1s-14-3.2-18.3,3.7c-3.3,5.2,2.2,24.7,2.2,24.7s-1.4,9.4,14.1,11.4S883.2,492.4,898.7,494.1z"/>
			<path class="st16" d="M790.1,436.5c0,0-0.1-21.5-27.7-30.8s-40.2-18-40.2-18l-7.7,8.3l24.9,21.4c0,0-18.9,6.2-29,4.6
				s-31.7,11.2-31.7,11.2l7.6,9.9l-5.4,3.6l9.4,11.1l8.8-3l7.1,5.5l13.7-0.6l6.1,6.6c0,0,16.3-2.2,29.5-2.8S793.1,462.9,790.1,436.5
				z"/>
			<path class="st17" d="M950.5,474.1c0,0,24.5-68.5,30.2-97.5c0,0,22.5-26.9,23.3-69.3c0.2-11.1-9.2-35.8-25.5-41
				c-31.3-10-57.4,38.1-66.6,66s-26.3,60.3-19,111.8c3.1,21.9,4.8,40.2,15.8,45.8S937.7,494.5,950.5,474.1z"/>
			<path class="st14" d="M933.4,302.5l-1,16.6c0,0,51,3.1,57.2,16.6l9.4-13.5C999,322.2,978.1,294.2,933.4,302.5z"/>
			<path class="st14" d="M928.2,325.4l-1,16.6c0,0,51,3.1,57.2,16.6l9.4-13.5C993.8,345.1,972.9,317,928.2,325.4z"/>
			<path class="st18" d="M792.5,242.2c0,0,0.5-15.6,9.5-14.1c0,0,36.4,2.6,44.6,1.6c0,0,9.7-1.6,3.7,16.1
				C850.2,245.9,808.3,257.4,792.5,242.2z"/>
			<path class="st19" d="M887.7,227c0,0,3.6,15.2-5.4,16.1c0,0-35.8,7.1-43.4,10.3c0,0-8.9,4.1-7.8-14.6
				C831.1,238.8,868.5,216.6,887.7,227z"/>
			<path class="st15" d="M932.1,457.8c-1.2-0.4-2.3-0.8-3.3-1.1c-1-0.4-2.1-0.7-3.2-1.1c-1.1-0.4-2.3-0.8-3.6-1.2s-2.9-0.8-4.7-1.2
				c-0.9-0.1-1.6-0.8-1.5-1.7c0.1-1.1,0.4-2.1,1-3c0.5-0.7,1.2-1.1,1.9-1.4c0.8-0.3,1.6-0.3,2.5-0.2c0.9,0.1,1.8,0.3,2.7,0.6
				c0.6,0.2,1.1,0.5,1.6,0.9c0.5,0.4,1,0.9,1.3,1.4c0.3,0.5,0.5,1.1,0.6,1.8c0.1,0.7-0.1,1.3-0.5,1.9l6,2.1c0.2,0.1,0.3,0.3,0.3,0.5
				c0.1,0.3,0.1,0.5,0,0.8c0,0.3-0.2,0.5-0.3,0.7C932.6,457.7,932.4,457.8,932.1,457.8z M918.2,450.6c0,0.1,0.1,0.2,0.4,0.4
				c0.3,0.1,0.6,0.3,1.1,0.4c0.4,0.2,0.9,0.3,1.4,0.5l1.5,0.4l1.2,0.3l0.7,0.2c0.3-0.4,0.4-0.9,0.4-1.4c-0.1-0.4-0.3-0.7-0.6-1
				c-0.3-0.3-0.7-0.6-1.2-0.7c-0.4-0.2-0.9-0.3-1.4-0.5c-0.6-0.1-1.1-0.2-1.7-0.1c-0.4,0-0.8,0.1-1.1,0.3c-0.3,0.1-0.5,0.3-0.6,0.6
				C918.2,450.1,918.2,450.4,918.2,450.6z"/>
			<path class="st15" d="M933.8,449c-1.2-0.5-2.4-1-3.6-1.4c-1.2-0.4-2.3-0.7-3.5-1.1c-1.2-0.3-2.3-0.6-3.4-0.9s-2.3-0.6-3.4-1
				c-0.3,0-0.7-0.2-0.8-0.5c-0.2-0.3-0.2-0.7-0.2-1c0-0.5,0.1-0.9,0.2-1.4c0.1-0.5,0.3-1,0.5-1.6c0.2-0.5,0.4-1.1,0.6-1.6
				c0.2-0.6,0.4-1.1,0.6-1.6c0.1-0.2,0.3-0.4,0.5-0.4c0.2-0.1,0.4,0,0.6,0c0.2,0.1,0.4,0.3,0.5,0.5c0.1,0.3,0.2,0.6,0.1,0.9
				c-0.1,0.3-0.2,0.7-0.3,1c-0.2,0.4-0.3,0.9-0.5,1.4c-0.2,0.4-0.3,0.9-0.4,1.4c-0.1,0.3-0.1,0.7,0.1,1c0.5,0.2,1,0.4,1.4,0.5
				c0.5,0.2,0.9,0.3,1.3,0.4l1.1,0.3c0.2,0.1,0.5,0.1,0.8,0.1c0.2,0,0.4-0.2,0.5-0.5c0.2-0.4,0.3-0.8,0.4-1.2
				c0.1-0.4,0.2-0.9,0.3-1.3c0.1-0.3,0.1-0.6,0.2-0.9c0-0.1,0.1-0.2,0.2-0.3c0.1,0,0.3,0,0.5,0c0.2,0,0.4,0.1,0.5,0.1l0.5,0.2
				c0.2,0.2,0.2,0.5,0.2,0.8c-0.1,0.3-0.1,0.7-0.2,1c-0.1,0.4-0.2,0.8-0.3,1.3c-0.1,0.5-0.2,1.1-0.2,1.6c0.2,0,0.5,0.1,0.7,0.1
				l1.1,0.4l1.3,0.5c0.4,0.1,0.8,0.3,1.3,0.4c0.3,0.1,0.7,0.1,1,0.1c0.3,0,0.4-0.1,0.4-0.3c0.2-0.5,0.3-0.9,0.4-1.3
				c0.1-0.4,0.2-0.7,0.3-1c0.1-0.3,0.2-0.7,0.2-1s0.1-0.8,0.2-1.2c0-0.3,0.1-0.5,0.4-0.6c0.2-0.1,0.5-0.1,0.8,0
				c0.3,0.1,0.5,0.3,0.7,0.5c0.2,0.2,0.3,0.4,0.3,0.6c0,0.1,0,0.3-0.1,0.4c0,0.2-0.1,0.5-0.2,0.9l-0.3,1.1c-0.1,0.4-0.2,0.8-0.3,1.2
				s-0.2,0.7-0.3,1.1c-0.1,0.3-0.2,0.6-0.3,0.8c0,0.3-0.1,0.6-0.2,0.9c-0.1,0.2-0.3,0.4-0.5,0.5c-0.2,0.1-0.5,0.2-0.7,0.2
				C934.3,449.1,934.1,449.1,933.8,449z"/>
			<path class="st15" d="M937.7,439.9c-1.3-0.6-2.5-1.1-3.8-1.6c-1.4-0.5-2.8-0.9-4.1-1.3c-1.4-0.4-2.6-0.8-3.8-1.1l-3-0.8
				c-0.4-0.3-0.7-0.8-0.8-1.3c-0.2-0.5-0.2-1.1-0.2-1.7c0.1-0.6,0.2-1.2,0.4-1.7c0.2-0.5,0.6-1,1-1.5c0.4-0.4,0.9-0.7,1.4-0.9
				c0.6-0.1,1.2-0.1,1.8,0.1c0.6,0.2,1.2,0.6,1.7,1c0.5,0.5,1,1,1.4,1.5c0.3,0.4,0.7,0.9,1,1.4l0.4,0.6c2.5-0.3,4.5-0.5,5.8-0.8
				c0.9-0.1,1.8-0.3,2.6-0.6c0.2-0.1,0.5-0.1,0.7,0.1c0.2,0.2,0.4,0.4,0.5,0.6c0.1,0.3,0.1,0.5,0.1,0.8c-0.1,0.3-0.3,0.5-0.6,0.6
				l-8.7,1.1l0.1,0.8c0.4,0.2,1,0.4,1.7,0.6l2.1,0.7l2,0.6c0.6,0.2,1.1,0.4,1.4,0.5c0.2,0.1,0.4,0.3,0.4,0.5c0,0.3-0.1,0.5-0.2,0.8
				c-0.1,0.2-0.3,0.5-0.5,0.6C938.2,440,937.9,440.1,937.7,439.9z M929,434.9c0-0.4,0-0.8-0.1-1.2c-0.1-0.5-0.3-0.9-0.6-1.4
				c-0.3-0.5-0.7-0.9-1.1-1.3c-0.5-0.4-1-0.8-1.5-1c-0.2-0.1-0.5-0.1-0.7,0c-0.2,0.1-0.4,0.3-0.6,0.5c-0.2,0.2-0.3,0.5-0.4,0.8
				c-0.1,0.3-0.2,0.6-0.2,0.9c0,0.3,0,0.5,0.1,0.8c0.1,0.2,0.3,0.4,0.5,0.5L929,434.9z"/>
			<path class="st15" d="M924.9,426.2c-0.3-0.2-0.5-0.5-0.5-0.8c-0.1-0.3,0-0.5,0.1-0.8c0.2-0.3,0.4-0.5,0.7-0.6
				c0.3-0.2,0.7-0.2,1.1-0.2l1.4,0.1l2.3,0.3l2.7,0.3l2.7,0.3l2.1,0.2c0.4,0,0.7,0,1.1,0c-0.3-0.3-0.6-0.5-1-0.8
				c-0.5-0.3-1.1-0.7-1.8-1.1l-2.1-1.2l-2.1-1.1l-1.7-0.9c-0.5-0.3-0.7-0.4-0.8-0.5c-0.3-0.2-0.6-0.3-0.9-0.5
				c-0.3-0.1-0.6-0.3-0.9-0.5c-0.3-0.2-0.5-0.4-0.6-0.7c-0.1-0.3-0.1-0.6,0-0.9c0.1-0.4,0.4-0.7,0.7-0.9c0.3-0.2,0.8-0.2,1.1-0.1
				l4,2.6l3,1.9l2.3,1.4l1.8,1.1l1.6,1l1.7,1c0.2,0.2,0.4,0.4,0.5,0.7c0.1,0.2,0.1,0.5,0,0.7c-0.1,0.2-0.2,0.4-0.4,0.6
				c-0.2,0.2-0.4,0.3-0.6,0.3c-0.7,0-1.3,0-2,0c-0.8,0-1.7-0.1-2.7-0.2c-1-0.1-2.1-0.2-3.2-0.3l-3.4-0.3c-1.1-0.1-2.2-0.2-3.3-0.3
				C926.6,426.2,925.7,426.2,924.9,426.2z"/>
			<path class="st15" d="M943.6,419.1c-1.2-0.5-2.4-1-3.6-1.4s-2.3-0.7-3.5-1.1c-1.2-0.3-2.3-0.6-3.4-0.9s-2.3-0.6-3.4-1
				c-0.3,0-0.7-0.2-0.8-0.5c-0.2-0.3-0.2-0.7-0.2-1c0-0.5,0.1-0.9,0.2-1.4c0.1-0.5,0.3-1,0.5-1.6c0.2-0.5,0.4-1.1,0.6-1.6
				s0.4-1.1,0.6-1.6c0.1-0.2,0.3-0.4,0.5-0.4c0.2-0.1,0.4,0,0.6,0c0.2,0.1,0.4,0.3,0.5,0.5c0.1,0.3,0.2,0.6,0.1,0.9
				c-0.1,0.3-0.2,0.7-0.3,1c-0.2,0.4-0.3,0.9-0.5,1.4c-0.2,0.4-0.3,0.9-0.4,1.4c-0.1,0.3-0.1,0.7,0.1,1c0.5,0.2,1,0.4,1.4,0.5
				c0.5,0.2,0.9,0.3,1.3,0.4l1.1,0.3c0.2,0.1,0.5,0.1,0.8,0.1c0.2,0,0.4-0.2,0.5-0.5c0.2-0.4,0.3-0.8,0.4-1.2
				c0.1-0.4,0.2-0.9,0.3-1.3c0.1-0.3,0.1-0.6,0.2-0.9c0-0.1,0.1-0.2,0.2-0.3c0.1,0,0.3,0,0.5,0c0.2,0,0.4,0.1,0.5,0.1l0.5,0.2
				c0.2,0.2,0.2,0.5,0.2,0.8c-0.1,0.3-0.1,0.7-0.2,1c-0.1,0.4-0.2,0.8-0.3,1.3c-0.1,0.5-0.2,1.1-0.2,1.6c0.2,0,0.5,0.1,0.7,0.1
				l1.1,0.4l1.3,0.5c0.4,0.1,0.8,0.3,1.3,0.4c0.3,0.1,0.7,0.1,1,0.1c0.3,0,0.4-0.1,0.4-0.3c0.2-0.5,0.3-0.9,0.4-1.3s0.2-0.7,0.3-1
				c0.1-0.3,0.1-0.7,0.2-1c0.1-0.3,0.1-0.8,0.2-1.2c0-0.3,0.1-0.5,0.4-0.6c0.2-0.1,0.5-0.1,0.8,0c0.3,0.1,0.5,0.3,0.7,0.5
				c0.2,0.2,0.3,0.4,0.3,0.6c0,0.1,0,0.3-0.1,0.4c0,0.2-0.1,0.5-0.2,0.9l-0.3,1.1c-0.1,0.4-0.2,0.8-0.3,1.2s-0.2,0.7-0.3,1.1
				c-0.1,0.3-0.2,0.6-0.3,0.8c0,0.3-0.1,0.6-0.2,0.9c-0.1,0.2-0.3,0.4-0.5,0.5c-0.2,0.1-0.5,0.2-0.7,0.2
				C944.1,419.3,943.8,419.2,943.6,419.1z"/>
			<path class="st15" d="M947.7,410l-3.8-1.3l-2.9-1l-2.3-0.8c-0.7-0.2-1.4-0.4-2.1-0.6s-1.5-0.4-2.3-0.6l-2.8-0.6
				c-0.2-0.3-0.3-0.6-0.3-1c0-0.3,0.1-0.6,0.2-0.9c0.1-0.3,0.4-0.5,0.6-0.7c0.3-0.2,0.6-0.3,0.9-0.3l13.9-1.9
				c-0.7-0.3-1.6-0.6-2.6-1c-1-0.4-2.1-0.7-3.2-1.1c-1.1-0.4-2.3-0.7-3.5-1c-1.2-0.3-2.3-0.5-3.4-0.7c-0.3,0-0.5-0.2-0.5-0.5
				c0-0.3,0.1-0.6,0.2-0.9c0.2-0.3,0.4-0.5,0.7-0.8c0.2-0.2,0.5-0.3,0.7-0.3c2.3,0.6,4.2,1.2,5.9,1.7c1.7,0.5,3.1,1,4.3,1.4
				s2.2,0.8,3.1,1.2l2.3,1c0.3,0.1,0.4,0.4,0.5,0.7c0.1,0.3,0.1,0.6,0,0.9c-0.1,0.3-0.2,0.6-0.4,0.8c-0.2,0.2-0.5,0.4-0.9,0.4
				l-14.1,1.7c1.5,0.5,2.9,0.9,4.2,1.3l3.7,1.1l3,0.9l2,0.6c0.2,0.2,0.3,0.4,0.3,0.6c0.1,0.3,0.1,0.6,0,0.9
				c-0.1,0.3-0.2,0.5-0.5,0.7C948.4,410.1,948,410.1,947.7,410z"/>
			<path class="st15" d="M953.8,394c-0.4,0.8-1.1,1.5-2,1.9c-0.9,0.4-1.8,0.5-2.7,0.5c-1,0-2-0.2-2.9-0.4c-0.9-0.2-1.8-0.5-2.7-0.9
				c-1.1-0.5-2.1-1.1-3-1.8c-1-0.7-1.8-1.6-2.5-2.6c-0.6-0.9-1.1-1.9-1.2-3c-0.2-1.1,0.1-2.2,0.8-3.1c0.2-0.2,0.4-0.3,0.6-0.2
				c0.2,0,0.5,0.1,0.7,0.2c0.2,0.1,0.4,0.3,0.5,0.5c0.1,0.2,0.2,0.4,0.1,0.6c-0.2,0.7-0.3,1.5-0.1,2.3c0.2,0.8,0.5,1.5,1,2.1
				c0.5,0.6,1,1.2,1.7,1.7c0.6,0.5,1.3,0.8,2,1.1l0.8,0.3c0.4,0.1,0.8,0.2,1.3,0.4c0.5,0.1,1,0.2,1.6,0.3c0.5,0.1,1,0.1,1.6,0.1
				c0.5,0,0.9-0.1,1.3-0.3c0.4-0.2,0.7-0.4,0.8-0.8c0.2-0.4,0.2-0.8,0.2-1.2c-0.1-0.4-0.2-0.7-0.3-1.1c-0.2-0.4-0.4-0.7-0.6-1
				c-0.2-0.3-0.5-0.6-0.6-0.8c-0.1-0.2-0.1-0.4,0-0.6c0.1-0.2,0.2-0.3,0.3-0.4c0.2-0.1,0.4-0.2,0.6-0.2c0.3,0,0.5,0,0.8,0.1
				c0.5,0.3,0.9,0.7,1.2,1.1c0.4,0.5,0.7,1,0.9,1.6c0.2,0.6,0.4,1.2,0.3,1.8C954.3,392.8,954.1,393.4,953.8,394z"/>
			<path class="st15" d="M938.8,382.1c-0.3-0.1-0.5-0.4-0.5-0.6c0-0.3,0-0.6,0.1-0.8c0.1-0.3,0.3-0.5,0.5-0.6
				c0.2-0.2,0.5-0.2,0.7-0.1l16.1,4.9c0.2,0.1,0.4,0.4,0.4,0.7c0,0.3,0,0.5-0.2,0.8c-0.1,0.2-0.3,0.4-0.5,0.6
				c-0.1,0.1-0.4,0.2-0.6,0.1L938.8,382.1z"/>
			<path class="st15" d="M941.7,378.2c-0.1,0.2-0.2,0.4-0.4,0.4c-0.2,0.1-0.4,0.1-0.6,0c-0.3-0.1-0.6-0.3-0.8-0.6
				c-0.1-0.3-0.1-0.5-0.1-0.8c0.1-0.3,0.2-0.6,0.3-0.9c0.1-0.3,0.2-0.6,0.3-0.9c0.3-0.6,0.5-1.2,0.8-1.9s0.5-1.3,0.7-1.9
				c0.2-0.6,0.4-1.1,0.5-1.6c0.1-0.5,0.2-0.9,0.3-1.3c0.1-0.3,0.3-0.5,0.5-0.6c0.2-0.1,0.5-0.2,0.7-0.2c0.2,0,0.4,0.1,0.6,0.3
				c0.2,0.2,0.3,0.5,0.2,0.8c-0.1,0.6-0.3,1.2-0.5,1.8l-0.7,2.1c0.5,0.1,1.2,0.3,2,0.5l2.6,0.8l3,0.9l2.9,0.9l2.5,0.8
				c0.8,0.2,1.3,0.4,1.8,0.5c0.2,0.1,0.4,0.3,0.4,0.5c0.1,0.3,0.1,0.6,0,0.8c-0.1,0.3-0.2,0.5-0.5,0.7c-0.3,0.2-0.7,0.3-1,0.2
				c-0.3-0.1-0.5-0.1-0.8-0.2l-1.7-0.5l-2.3-0.7l-2.5-0.8l-2.5-0.8l-2.3-0.7l-1.7-0.5c-0.4-0.1-0.7-0.2-0.8-0.2L941.7,378.2z"/>
			<path class="st15" d="M946,367.2c-0.2,0-0.5-0.1-0.7-0.2c-0.2-0.1-0.4-0.3-0.5-0.4c-0.1-0.2-0.2-0.4-0.2-0.6
				c0-0.3,0.1-0.5,0.2-0.7c0.2-0.3,0.6-0.6,1-0.7c0.5-0.1,1-0.2,1.5-0.3l1.7-0.2c0.5,0,0.9-0.1,1.4-0.3c-0.6-0.8-1.3-1.6-2.1-2.2
				c-0.7-0.5-1.2-0.9-1.6-1.2c-0.3-0.2-0.6-0.5-0.9-0.8c-0.1-0.2-0.1-0.6,0.2-1c0.1-0.4,0.4-0.6,0.8-0.7c0.4,0,0.8,0.1,1.1,0.3
				c0.4,0.3,0.7,0.6,1,0.9c0.5,0.5,1,1,1.5,1.6c0.6,0.6,1.2,1.2,1.8,1.8c0.6,0.6,1.2,1.1,1.9,1.6c1.4,0.6,2.7,1,3.7,1.3
				c0.9,0.3,1.8,0.4,2.7,0.6c0.3,0,0.5,0.1,0.8,0.2c0.2,0.1,0.4,0.3,0.5,0.5c0.1,0.2,0.2,0.5,0.2,0.8c0,0.3-0.1,0.7-0.2,1
				c0,0.2-0.1,0.4-0.4,0.5c-0.5,0.1-1-0.1-1.4-0.3c-0.5-0.2-1-0.4-1.5-0.6c-0.5-0.2-1.1-0.5-1.6-0.7c-0.6-0.2-1.2-0.4-1.8-0.6
				c-0.7-0.2-1.4-0.4-2.1-0.5c-0.5-0.1-1-0.1-1.6,0c-0.6,0.1-1.3,0.1-1.9,0.3c-0.7,0.1-1.3,0.3-1.9,0.4L946,367.2z"/>
			<path class="st0" d="M661.3,356.6c0.3,0.3,0.7,0.6,1.1,0.8c0.4,0.2,0.9,0.4,1.3,0.5c0.5,0.1,1.1,0.2,1.6,0.2
				c0.4,0,0.7-0.1,1.1-0.2c0.3-0.1,0.5-0.3,0.6-0.5c0.1-0.2,0.2-0.5,0.2-0.7c0-0.1-0.1-0.2-0.4-0.4s-0.6-0.3-1-0.5
				c-0.4-0.2-0.9-0.3-1.4-0.5l-1.4-0.5l-1.2-0.4l-0.6-0.2c-0.3,0.4-0.5,0.8-0.5,1.3C660.9,356,661.1,356.3,661.3,356.6z"/>
			<path class="st0" d="M656.3,373.7c0.3,0.5,0.6,0.9,1,1.3c0.4,0.4,0.9,0.8,1.5,1c0.2,0.1,0.4,0.1,0.7,0c0.2-0.1,0.4-0.2,0.6-0.4
				c0.2-0.2,0.3-0.5,0.5-0.7c0.1-0.3,0.2-0.6,0.2-0.8c0-0.3,0-0.5-0.1-0.8c-0.1-0.2-0.2-0.4-0.5-0.5l-4.4-1.5
				c-0.1,0.4-0.1,0.8,0,1.1C655.9,372.8,656.1,373.2,656.3,373.7z"/>
			<path class="st0" d="M653.4,370.4c-0.4-0.2-0.9-0.4-1.5-0.6l-0.8,1.6l2.4-0.2L653.4,370.4z"/>
			<path class="st0" d="M643.2,399.1l-3.6-1.3l-0.8-0.3c-0.5,1.2-1.1,2.4-1.6,3.6l10.1-0.6C645.8,400.1,644.5,399.6,643.2,399.1z"/>
			<path class="st0" d="M767.6,265.1c0,0-83.4-2.4-101.1,75.3c0,0-2.3,4.4-5.7,11.3c1,0.4,2,0.8,3,1.1c1.3,0.5,2.8,1,4.5,1.5
				c0.4,0.1,0.8,0.3,1.1,0.6c0.2,0.3,0.3,0.7,0.3,1.1c-0.1,1-0.5,2-1.2,2.8c-0.5,0.6-1.2,1-2,1.2c-0.8,0.2-1.6,0.2-2.5,0.1
				c-0.9-0.1-1.7-0.4-2.6-0.7c-0.5-0.2-1-0.6-1.5-1c-0.5-0.4-0.9-0.9-1.2-1.5c-0.1-0.3-0.3-0.5-0.3-0.8l-1.6,3.2l1.8,0.6
				c1.1,0.4,2.2,0.7,3.3,1.1c1.1,0.3,2.2,0.7,3.3,1.1c0.3,0.1,0.6,0.3,0.8,0.5c0.1,0.3,0.2,0.7,0.2,1c0,0.4-0.1,0.9-0.3,1.3
				c-0.2,0.5-0.3,1-0.6,1.5c-0.2,0.5-0.5,1-0.7,1.5c-0.2,0.5-0.5,1-0.7,1.5c-0.1,0.2-0.3,0.3-0.5,0.4c-0.2,0-0.4,0-0.6-0.1
				c-0.2-0.1-0.4-0.3-0.5-0.5c-0.1-0.3-0.2-0.6-0.1-0.9c0.1-0.3,0.2-0.7,0.3-1c0.2-0.4,0.4-0.8,0.6-1.3c0.2-0.4,0.3-0.9,0.5-1.3
				c0.1-0.3,0.1-0.7,0-1c-0.5-0.2-0.9-0.4-1.4-0.6c-0.5-0.2-0.9-0.3-1.3-0.5l-1.1-0.3c-0.2-0.1-0.5-0.1-0.7-0.1
				c-0.2,0-0.4,0.2-0.5,0.5c-0.2,0.4-0.3,0.7-0.5,1.1c-0.1,0.4-0.3,0.8-0.4,1.2c-0.1,0.3-0.2,0.6-0.3,0.9c0,0.1-0.1,0.2-0.2,0.3
				c-0.1,0-0.3,0-0.5,0c-0.2,0-0.4-0.1-0.5-0.1l-0.5-0.2c-0.1-0.2-0.2-0.5-0.1-0.8c0.1-0.3,0.2-0.7,0.3-1c0.1-0.4,0.3-0.8,0.4-1.2
				c0.2-0.5,0.2-1,0.3-1.5c-0.2,0-0.5-0.1-0.7-0.2l-0.2-0.1c-1.1,2.2-2.2,4.5-3.3,6.8c0.9,0.3,1.7,0.7,2.6,1
				c1.3,0.5,2.6,0.9,3.7,1.3l2.9,0.9c0.4,0.3,0.6,0.8,0.7,1.3c0.1,0.5,0.1,1.1,0,1.6c-0.1,0.6-0.3,1.1-0.5,1.6c-0.2,0.5-0.6,1-1,1.3
				c-0.4,0.4-0.9,0.6-1.5,0.7c-0.6,0.1-1.2,0-1.8-0.2c-0.6-0.3-1.1-0.6-1.6-1.1c-0.5-0.5-0.9-1-1.3-1.5c-0.3-0.4-0.6-0.9-0.8-1.4
				l-0.3-0.6c-1.4,0.1-2.6,0.1-3.6,0.2l-2.4,4.9l2.3,0.3l3.3,0.5c1.1,0.2,2.2,0.3,3.2,0.5c1,0.1,2,0.2,2.8,0.3
				c0.2,0.2,0.4,0.5,0.5,0.8c0.1,0.3,0,0.5-0.1,0.8c-0.2,0.2-0.4,0.4-0.7,0.5c-0.3,0.1-0.7,0.2-1,0.2l-1.4-0.2l-2.3-0.4l-2.7-0.5
				l-2.6-0.4l-2.1-0.3h-0.2l-0.2,0.5l0.2,0.2c0.5,0.3,1,0.7,1.7,1.1l2,1.3l2,1.2l1.6,1c0.4,0.3,0.7,0.4,0.8,0.5
				c0.3,0.2,0.5,0.3,0.8,0.5c0.3,0.2,0.6,0.3,0.9,0.5c0.2,0.2,0.4,0.4,0.6,0.7c0.1,0.3,0.1,0.6-0.1,0.8c-0.2,0.3-0.4,0.6-0.7,0.8
				c-0.4,0.2-0.8,0.2-1.1,0l-3.8-2.7l-2.8-2l-2.2-1.5l-0.8-0.6l-2,4.2l0.3,0.1c1.1,0.4,2.3,0.8,3.4,1.2c1.1,0.4,2.2,0.7,3.3,1.1
				c1.1,0.3,2.2,0.7,3.3,1.1c0.3,0.1,0.6,0.3,0.8,0.5c0.1,0.3,0.2,0.7,0.2,1c0,0.4-0.1,0.9-0.3,1.3c-0.2,0.5-0.3,1-0.6,1.5
				c-0.2,0.5-0.5,1-0.7,1.5c-0.2,0.5-0.5,1-0.7,1.5c-0.1,0.2-0.3,0.3-0.5,0.4c-0.2,0-0.4,0-0.6-0.1c-0.2-0.1-0.4-0.3-0.5-0.5
				c-0.1-0.3-0.2-0.6-0.1-0.9c0.1-0.3,0.2-0.7,0.3-1c0.2-0.4,0.4-0.8,0.6-1.3c0.2-0.4,0.3-0.9,0.5-1.3c0.1-0.3,0.1-0.7,0-1
				c-0.5-0.2-0.9-0.4-1.4-0.6c-0.5-0.2-0.9-0.3-1.3-0.5l-1.1-0.3c-0.2-0.1-0.5-0.1-0.7-0.1c-0.2,0-0.4,0.2-0.5,0.5
				c-0.2,0.4-0.3,0.7-0.5,1.1c-0.1,0.4-0.3,0.8-0.4,1.2c-0.1,0.3-0.2,0.6-0.3,0.9c0,0.1-0.1,0.2-0.2,0.3c-0.1,0-0.3,0-0.5,0
				c-0.2,0-0.4-0.1-0.5-0.1l-0.5-0.2c-0.1-0.2-0.2-0.5-0.1-0.8c0.1-0.3,0.2-0.7,0.3-1c0.1-0.4,0.3-0.8,0.4-1.2
				c0.2-0.5,0.2-1,0.3-1.5c-0.2,0-0.5-0.1-0.7-0.2l-1.1-0.4l-1-0.4c-1,2.3-2.1,4.5-3.1,6.8l2.7,1.1l2.2,0.9c0.7,0.3,1.4,0.5,2.1,0.7
				s1.4,0.5,2.2,0.7l2.7,0.8c0.2,0.3,0.3,0.6,0.3,0.9c0,0.3-0.1,0.6-0.3,0.9c-0.3,0.5-0.9,0.9-1.5,0.9l-13.7,1
				c0.7,0.3,1.5,0.7,2.5,1.1c1,0.4,2,0.8,3.1,1.2c1.1,0.4,2.2,0.8,3.4,1.1c1.1,0.4,2.2,0.6,3.3,0.9c0.3,0,0.5,0.3,0.4,0.5
				c0,0.3-0.1,0.6-0.3,0.8c-0.2,0.3-0.4,0.5-0.7,0.7c-0.2,0.2-0.5,0.2-0.7,0.2c-2.2-0.7-4.1-1.4-5.7-2s-3-1.1-4.1-1.6
				c-0.8-0.3-1.6-0.7-2.2-1l-0.7,1.7c0.7,0.1,1.4,0.3,2.1,0.5c0.9,0.3,1.7,0.6,2.6,1c1,0.5,2,1.1,2.8,1.9c0.9,0.8,1.7,1.7,2.3,2.6
				c0.6,0.9,0.9,1.9,1,3c0.1,1.1-0.3,2.1-0.9,2.9c-0.2,0.2-0.4,0.2-0.6,0.2c-0.2,0-0.5-0.1-0.7-0.3c-0.2-0.1-0.4-0.3-0.5-0.5
				c-0.1-0.2-0.1-0.4-0.1-0.6c0.3-0.7,0.3-1.5,0.2-2.2c-0.1-0.7-0.4-1.4-0.9-2.1c-0.4-0.6-1-1.2-1.5-1.7c-0.6-0.5-1.2-0.9-1.9-1.1
				l-0.8-0.3c-0.4-0.1-0.8-0.3-1.3-0.4s-1-0.3-1.5-0.4c-0.4-0.1-0.9-0.1-1.4-0.2c-0.6,1.4-1.2,2.8-1.7,4.1c0.2,0.3,0.4,0.5,0.5,0.8
				c0.1,0.2,0.1,0.4,0,0.6c-0.1,0.2-0.2,0.3-0.4,0.4c-0.2,0.1-0.4,0.2-0.6,0.1c-0.1,0-0.2,0-0.3,0l-0.5,1.4l12.5,4.5
				c0.2,0.1,0.4,0.4,0.5,0.6c0,0.3,0,0.5-0.2,0.8c-0.1,0.2-0.3,0.4-0.6,0.6c-0.2,0.1-0.5,0.2-0.7,0.1l-12.2-4.3
				c-0.6,1.7-1.2,3.3-1.7,4.8l1.4,0.5l2.4,0.9l2.5,0.9l2.2,0.8l1.6,0.6c0.4,0.2,0.7,0.2,0.8,0.3l1.2-2.9c0.1-0.2,0.2-0.3,0.4-0.4
				c0.2-0.1,0.4-0.1,0.6,0c0.3,0.1,0.6,0.3,0.8,0.6c0.1,0.3,0.1,0.5,0,0.8c-0.1,0.3-0.2,0.6-0.3,0.9c-0.2,0.3-0.3,0.6-0.3,0.9
				c-0.3,0.6-0.6,1.2-0.9,1.8s-0.5,1.2-0.8,1.8s-0.4,1.1-0.6,1.6s-0.3,0.9-0.3,1.2c-0.1,0.2-0.3,0.4-0.5,0.6
				c-0.2,0.1-0.5,0.1-0.7,0.1c-0.2,0-0.4-0.1-0.6-0.3c-0.2-0.2-0.2-0.5-0.2-0.8c0.1-0.6,0.3-1.1,0.5-1.7l0.8-2
				c-0.5-0.1-1.1-0.3-1.9-0.6l-2.5-0.9l-2.8-1.1l-2.8-1l-0.5-0.2c-0.3,1-0.6,1.9-0.8,2.8c-0.6,2.1-1.1,4.2-1.6,6.1
				c0.4,0.2,0.9,0.4,1.3,0.5c0.7,0.2,1.3,0.4,2,0.6c0.5,0.1,1,0.1,1.5,0.1c0.6,0,1.2-0.1,1.8-0.1c0.7-0.1,1.3-0.2,1.9-0.3l1.7-0.3
				c0.2,0,0.5,0.1,0.7,0.2c0.2,0.1,0.3,0.3,0.5,0.5c0.1,0.2,0.2,0.4,0.2,0.6c0,0.3-0.1,0.5-0.2,0.7c-0.3,0.3-0.6,0.5-1,0.6
				c-0.5,0.1-1,0.2-1.5,0.2l-1.6,0.1c-0.5,0-0.9,0.1-1.4,0.2c0.6,0.8,1.2,1.6,2,2.2c0.6,0.5,1.1,1,1.5,1.3c0.3,0.2,0.6,0.5,0.8,0.8
				c0.1,0.2,0,0.6-0.3,0.9c-0.2,0.3-0.5,0.6-0.8,0.7c-0.4,0-0.8-0.1-1.1-0.3c-0.3-0.3-0.7-0.6-1-0.9c-0.4-0.5-0.9-1-1.4-1.6
				s-1.1-1.2-1.7-1.9c-0.5-0.6-1.1-1.1-1.7-1.6c-0.9-0.4-1.8-0.8-2.5-1c-2.9,12.7-2,21,15.6,27.4c13.1,4.7,34.1-9,48-19.5
				c42.9-32.4,48.2-72.7,54.4-90.2C754.4,320.2,776.4,273.8,767.6,265.1z"/>
			<path class="st20" d="M660.1,358.5c0.4,0.4,0.9,0.7,1.5,1c0.8,0.3,1.7,0.6,2.6,0.7c0.8,0.1,1.6,0.1,2.5-0.1
				c0.8-0.2,1.5-0.6,2-1.2c0.6-0.8,1-1.8,1.2-2.8c0-0.4-0.1-0.8-0.3-1.1c-0.3-0.4-0.7-0.6-1.1-0.6c-1.8-0.5-3.3-1-4.5-1.5
				c-1.1-0.4-2.1-0.8-3-1.1l-2.2,4.5c0.1,0.3,0.2,0.6,0.3,0.8C659.2,357.5,659.6,358,660.1,358.5z M661.3,354.2l0.6,0.2l1.2,0.4
				l1.4,0.5c0.5,0.2,1,0.3,1.4,0.5c0.4,0.2,0.8,0.3,1,0.5c0.3,0.1,0.4,0.3,0.4,0.4c0,0.3-0.1,0.5-0.2,0.7c-0.1,0.2-0.4,0.4-0.6,0.5
				c-0.3,0.1-0.7,0.2-1.1,0.2c-0.6,0-1.1-0.1-1.6-0.2c-0.5-0.1-0.9-0.3-1.3-0.5c-0.4-0.2-0.8-0.4-1.1-0.8c-0.3-0.3-0.5-0.6-0.5-1
				C660.8,355.1,660.9,354.6,661.3,354.2L661.3,354.2z"/>
			<path class="st20" d="M656.8,361.6c0,0.5-0.1,1-0.3,1.5c-0.1,0.5-0.3,0.9-0.4,1.2c-0.1,0.3-0.2,0.7-0.3,1c-0.1,0.3,0,0.6,0.1,0.8
				l0.5,0.2c0.2,0.1,0.3,0.1,0.5,0.1c0.1,0,0.3,0,0.5,0c0.1,0,0.2-0.1,0.2-0.3c0.1-0.3,0.2-0.6,0.3-0.9c0.1-0.4,0.2-0.8,0.4-1.2
				c0.1-0.4,0.3-0.8,0.5-1.1c0.2-0.3,0.4-0.5,0.5-0.5c0.3,0,0.5,0.1,0.7,0.1l1.1,0.3c0.4,0.1,0.8,0.3,1.3,0.5s0.9,0.4,1.4,0.6
				c0.1,0.3,0.1,0.7,0,1c-0.1,0.4-0.3,0.9-0.5,1.3c-0.2,0.4-0.4,0.9-0.6,1.3c-0.2,0.3-0.3,0.7-0.3,1c-0.1,0.3,0,0.6,0.1,0.9
				c0.1,0.2,0.3,0.4,0.5,0.5c0.2,0.1,0.4,0.1,0.6,0.1c0.2-0.1,0.4-0.2,0.5-0.4c0.2-0.5,0.4-1,0.7-1.5s0.5-1,0.7-1.5
				c0.2-0.5,0.4-1,0.6-1.5c0.1-0.4,0.2-0.9,0.3-1.3c0-0.3,0-0.7-0.2-1c-0.2-0.3-0.5-0.5-0.8-0.5c-1.1-0.4-2.2-0.8-3.3-1.1
				s-2.2-0.7-3.3-1.2l-1.8-0.6l-0.9,1.9l0.2,0.1C656.4,361.5,656.6,361.5,656.8,361.6z"/>
			<path class="st20" d="M654.1,373.7c0.3,0.5,0.5,0.9,0.8,1.4c0.4,0.5,0.8,1,1.3,1.5c0.4,0.5,1,0.8,1.6,1.1
				c0.6,0.3,1.2,0.3,1.8,0.2c0.5-0.1,1-0.4,1.5-0.7c0.4-0.4,0.8-0.8,1-1.3c0.3-0.5,0.4-1.1,0.5-1.6c0.1-0.5,0.1-1.1,0-1.6
				c-0.1-0.5-0.4-0.9-0.7-1.3l-2.9-0.9c-1.2-0.4-2.4-0.8-3.7-1.3c-0.8-0.3-1.7-0.6-2.6-1l-0.8,1.6c0.6,0.2,1.1,0.5,1.5,0.6l0.1,0.8
				l-2.4,0.2l-0.9,1.9c1-0.1,2.2-0.1,3.6-0.2L654.1,373.7z M655.8,371.2l4.4,1.5c0.2,0.1,0.4,0.3,0.5,0.5c0.1,0.2,0.1,0.5,0.1,0.8
				c0,0.3-0.1,0.6-0.2,0.8c-0.1,0.3-0.3,0.5-0.5,0.7c-0.2,0.2-0.4,0.3-0.6,0.4c-0.2,0.1-0.4,0.1-0.7,0c-0.5-0.2-1-0.6-1.5-1
				c-0.4-0.4-0.7-0.8-1-1.3c-0.2-0.4-0.4-0.9-0.5-1.3C655.7,372,655.7,371.6,655.8,371.2z"/>
			<path class="st20" d="M648.7,384.7l2.8,2l3.8,2.7c0.4,0.2,0.8,0.2,1.1,0c0.3-0.2,0.6-0.5,0.7-0.8c0.2-0.2,0.2-0.6,0.1-0.8
				c-0.1-0.3-0.3-0.5-0.6-0.7c-0.3-0.2-0.6-0.4-0.9-0.5c-0.3-0.1-0.6-0.3-0.8-0.5c-0.1-0.1-0.4-0.2-0.8-0.5l-1.6-1l-2-1.2l-2-1.3
				c-0.7-0.4-1.2-0.8-1.7-1.1l-0.2-0.2l-0.9,1.9l0.8,0.6L648.7,384.7z"/>
			<path class="st20" d="M649,380.5l2.6,0.4l2.7,0.5l2.3,0.4l1.4,0.2c0.4,0,0.7,0,1-0.2c0.3-0.1,0.5-0.3,0.7-0.5
				c0.1-0.2,0.2-0.5,0.1-0.8c-0.1-0.3-0.2-0.6-0.5-0.8c-0.8-0.1-1.8-0.2-2.8-0.3s-2.1-0.3-3.2-0.5l-3.3-0.5l-2.3-0.3l-1,2h0.2
				L649,380.5z"/>
			<path class="st20" d="M644.8,389.6c0.2,0.1,0.4,0.2,0.7,0.2c0,0.5-0.1,1-0.3,1.5c-0.1,0.5-0.3,0.9-0.4,1.2
				c-0.1,0.3-0.2,0.7-0.3,1c-0.1,0.3,0,0.6,0.1,0.8l0.5,0.2c0.2,0.1,0.3,0.1,0.5,0.1c0.1,0,0.3,0,0.5,0c0.1,0,0.2-0.1,0.2-0.3
				c0.1-0.3,0.2-0.6,0.3-0.9c0.1-0.4,0.2-0.8,0.4-1.2c0.1-0.4,0.3-0.8,0.5-1.1c0.2-0.3,0.4-0.5,0.5-0.5c0.3,0,0.5,0.1,0.7,0.1
				l1.1,0.3c0.4,0.1,0.8,0.3,1.3,0.5s0.9,0.4,1.4,0.6c0.1,0.3,0.1,0.7,0,1c-0.1,0.4-0.3,0.9-0.5,1.3c-0.2,0.4-0.4,0.9-0.6,1.3
				c-0.2,0.3-0.3,0.7-0.3,1c-0.1,0.3,0,0.6,0.1,0.9c0.1,0.2,0.3,0.4,0.5,0.5c0.2,0.1,0.4,0.1,0.6,0.1c0.2-0.1,0.4-0.2,0.5-0.4
				c0.2-0.5,0.4-1,0.7-1.5c0.2-0.5,0.5-1,0.7-1.5c0.2-0.5,0.4-1,0.6-1.5c0.1-0.4,0.2-0.9,0.2-1.4c0-0.3,0-0.7-0.2-1
				c-0.2-0.3-0.5-0.5-0.8-0.5c-1.1-0.4-2.2-0.8-3.3-1.1c-1.1-0.3-2.2-0.7-3.3-1.1c-1.1-0.4-2.2-0.8-3.4-1.2l-0.3-0.1l-0.9,1.9l1,0.4
				L644.8,389.6z"/>
			<path class="st20" d="M641.7,408c1.6,0.6,3.5,1.3,5.7,2c0.3,0,0.5,0,0.7-0.2c0.3-0.2,0.5-0.4,0.7-0.7c0.2-0.2,0.3-0.5,0.3-0.8
				c0-0.3-0.2-0.5-0.4-0.5c-1-0.2-2.1-0.5-3.3-0.9s-2.3-0.7-3.4-1.1c-1.1-0.4-2.1-0.8-3.1-1.2c-1-0.4-1.8-0.8-2.5-1.1l13.7-1
				c0.6,0,1.2-0.4,1.5-0.9c0.2-0.3,0.2-0.6,0.3-0.9c0-0.3-0.1-0.7-0.3-0.9L649,399c-0.8-0.2-1.5-0.5-2.2-0.7s-1.4-0.5-2.1-0.7
				l-2.2-0.9l-2.7-1.1l-0.9,2l0.8,0.3l3.6,1.3c1.3,0.5,2.7,1,4.1,1.5l-10.1,0.6c-0.6,1.4-1.2,2.8-1.8,4.2c0.7,0.3,1.4,0.6,2.2,1
				C638.8,406.9,640.1,407.4,641.7,408z"/>
			<path class="st20" d="M636.5,410.1c0.5,0.1,0.9,0.3,1.3,0.4l0.8,0.3c0.7,0.3,1.3,0.7,1.9,1.1c0.6,0.5,1.1,1.1,1.5,1.7
				c0.4,0.6,0.7,1.3,0.9,2.1c0.1,0.7,0.1,1.5-0.2,2.2c-0.1,0.2,0,0.4,0.1,0.6c0.1,0.2,0.3,0.4,0.5,0.5c0.2,0.1,0.4,0.2,0.7,0.3
				c0.2,0,0.4,0,0.6-0.2c0.7-0.8,1-1.9,0.9-2.9c-0.1-1.1-0.4-2.1-1-3c-0.6-1-1.4-1.9-2.3-2.6c-0.9-0.8-1.8-1.4-2.8-1.9
				c-0.8-0.4-1.7-0.7-2.6-1c-0.7-0.2-1.4-0.4-2.1-0.5l-1,2.4c0.5,0,0.9,0.1,1.4,0.2C635.5,409.8,636,409.9,636.5,410.1z"/>
			<path class="st20" d="M632.1,415.5c0.2-0.1,0.3-0.2,0.4-0.4c0.1-0.2,0.1-0.4,0-0.6c-0.2-0.2-0.3-0.5-0.5-0.8l-0.8,1.9
				c0.1,0,0.2,0,0.3,0C631.7,415.6,631.9,415.5,632.1,415.5z"/>
			<path class="st20" d="M642.9,423.4c0.2-0.1,0.4-0.3,0.6-0.6c0.1-0.2,0.2-0.5,0.2-0.8c0-0.3-0.2-0.5-0.5-0.6l-12.5-4.5
				c-0.3,0.7-0.5,1.4-0.8,2.1l12.4,4.5C642.4,423.6,642.7,423.5,642.9,423.4z"/>
			<path class="st20" d="M630.7,427.3l2.8,1.1l2.5,0.9c0.8,0.3,1.4,0.5,1.9,0.6l-0.8,2c-0.2,0.6-0.4,1.1-0.5,1.7
				c0,0.3,0,0.5,0.2,0.8c0.1,0.2,0.3,0.3,0.6,0.3c0.2,0,0.5,0,0.7-0.1c0.2-0.1,0.4-0.3,0.5-0.6c0.1-0.3,0.2-0.7,0.3-1.2
				c0.2-0.5,0.3-1,0.6-1.6c0.2-0.6,0.5-1.1,0.8-1.8c0.3-0.6,0.6-1.2,0.9-1.8c0.1-0.3,0.2-0.6,0.3-0.9c0.2-0.3,0.3-0.6,0.3-0.9
				c0.1-0.3,0.1-0.5,0-0.8c-0.2-0.3-0.4-0.5-0.8-0.6c-0.2-0.1-0.4-0.1-0.6,0c-0.2,0.1-0.4,0.2-0.4,0.4l-1.2,2.9
				c-0.1,0-0.4-0.1-0.8-0.3l-1.7-0.6l-2.2-0.8l-2.5-0.9l-2.4-0.9l-1.4-0.5c-0.3,0.8-0.5,1.5-0.7,2.2l0.5,0.2L630.7,427.3z"/>
			<path class="st20" d="M628.7,439.6c0.6,0.7,1.1,1.3,1.7,1.9c0.5,0.6,1,1.1,1.4,1.6c0.3,0.3,0.6,0.7,1,0.9
				c0.3,0.2,0.7,0.3,1.1,0.3c0.4-0.1,0.7-0.3,0.8-0.7c0.3-0.4,0.4-0.7,0.3-0.9c-0.2-0.3-0.5-0.6-0.8-0.8c-0.4-0.3-0.9-0.7-1.5-1.3
				c-0.7-0.7-1.4-1.4-2-2.2c0.4-0.1,0.9-0.2,1.4-0.2l1.6-0.1c0.5,0,1-0.1,1.5-0.2c0.4-0.1,0.8-0.3,1-0.6c0.1-0.2,0.2-0.4,0.2-0.7
				c0-0.2-0.1-0.4-0.2-0.6c-0.1-0.2-0.3-0.3-0.5-0.5c-0.2-0.1-0.4-0.2-0.7-0.2l-1.7,0.3c-0.7,0.1-1.3,0.2-1.9,0.3
				c-0.6,0.1-1.2,0.1-1.8,0.1c-0.5,0-1,0-1.5-0.1c-0.7-0.1-1.3-0.3-2-0.6c-0.5-0.2-0.9-0.3-1.3-0.5c-0.2,0.7-0.3,1.3-0.5,2
				c0.8,0.3,1.6,0.6,2.5,1C627.6,438.5,628.2,439.1,628.7,439.6z"/>
			<path class="st8" d="M899.3,132.5c3.4-11,5.3-22.4,5.7-33.9c0.4-17.6-4.7-29.9-4.7-29.9s-87.8-15.2-138.4,0.1
				c0,0-4.2,5.3-2.7,20.5c1,9.2,3.4,18.2,7.1,26.6l125.6,28.9L899.3,132.5z"/>
			<path class="st21" d="M783.4,48.7c-16.6,14.8-12.8,39.6-14,49.6c-3,23.6-0.9,51.6-2.5,69s25.3,65.9,51.8,49.4
				c0,0,37.4,19.2,64.4-25.7c0,0,9.1-12.4,7.1-41.4c2.9-20.2,1.7-40.7-3.5-60.4c0,0,3.5-42.3-37.2-51.1
				C849.4,38.3,804.8,29.5,783.4,48.7z"/>
			<path class="st13" d="M890.1,133.1c0,0,8-12.8,14.8-9.5c15.4,7.5,1.2,48-16.6,34.2L890.1,133.1z"/>
			<path class="st22" d="M842.2,126.3c2.3,3.4,6.8,4.5,10.4,2.5c3.3-1.8,4.6-5.9,2.8-9.3c-0.1-0.2-0.2-0.3-0.3-0.5
				c-2.3-3.4-6.8-4.5-10.4-2.5c-3.3,1.8-4.6,5.9-2.8,9.3C842,126,842.1,126.1,842.2,126.3z"/>
			<path class="st23" d="M846.1,124.1c1.2-0.6,1.6-2.1,1-3.3c0-0.1-0.1-0.1-0.1-0.2c-0.8-1.2-2.4-1.6-3.7-0.9
				c-1.2,0.6-1.6,2.1-1,3.3c0,0.1,0.1,0.1,0.1,0.2C843.2,124.4,844.8,124.8,846.1,124.1z"/>
			<path class="st22" d="M784,126.3c2.3,3.4,6.8,4.5,10.4,2.5c3.4-1.8,4.6-5.9,2.9-9.3c-0.1-0.2-0.2-0.3-0.3-0.5
				c-2.3-3.4-6.8-4.5-10.4-2.5c-3.4,1.8-4.6,5.9-2.9,9.3C783.8,126,783.9,126.2,784,126.3z"/>
			<path class="st23" d="M788,124.1c1.2-0.6,1.6-2.1,1-3.3c0-0.1-0.1-0.1-0.1-0.2c-0.8-1.2-2.4-1.6-3.7-0.9c-1.2,0.6-1.6,2.1-1,3.3
				c0,0.1,0.1,0.1,0.1,0.2C785.1,124.4,786.7,124.8,788,124.1z"/>
			<path class="st24" d="M832.4,102.7c13.9-4.7,27.7-1.8,33,3.5s0.6-4.1-3.8-6.3C851,94.5,842,94.8,834.4,97
				C821.9,100.5,828.6,104,832.4,102.7z"/>
			<path class="st24" d="M796.4,104.3c-10.6-5.4-22.2-4-27.2,0.4s0.1-3.7,4-5.4c9.3-4,16.6-3,22.5-0.4
				C805.1,103.1,799.2,105.7,796.4,104.3z"/>
			<path class="st25" d="M815,153.3c-0.1-0.1-0.3-0.1-0.4-0.2l-9.5-7.7c-0.7-0.6-0.9-1.7-0.3-2.4c0.4-0.4,0.9-0.7,1.5-0.6l18.7,1.2
				c1,0.1,1.7,0.9,1.6,1.8c0,0.6-0.3,1.1-0.8,1.4l-10.3,6.5C815.3,153.2,815.2,153.2,815,153.3z"/>
			<path class="st23" d="M796.2,164c0,0,6.8,0.5,19.5,0.9c17.7,0.5,26.4-1,26.4-1s-12.6,7.3-27.4,6.5S796.2,164,796.2,164z"/>
			<path class="st8" d="M883.2,94.3c-0.5-8.6-1.2-17.8-6.9-24.2c-5.4-6.1-14.1-8.2-22.2-8.2s-16.2,1.8-24.3,1.9
				c-11.6,0.2-23.1-2.9-33-9c-7.3-4.5-13.9-11.1-15.3-19.6c-2.2-12.9,8.2-24.1,15-35.3c-0.9,5.4,3,10.7,7.9,13s10.6,2.3,16.1,1.8
				c8-0.8,15.9-2.5,23.9-2.6c23.7-0.3,46.5,14.5,57.6,35.4s11.1,46.9,1.9,68.8c-1.8,4.2-5.8,9.1-10,7.2c-1.9-0.9-3-2.8-3.8-4.7
				c-5.3-11.7-8.2-24.3-8.5-37.1"/>
			<path class="st8" d="M763,104.2c5-11.2,2.6-24.8,8.5-35.6c6-11,18.7-16,28.7-23.4c1.9-1.2,3.5-2.9,4.6-4.9c1.3-3.3,0.7-7-1.7-9.6
				c-2.4-2.6-5.6-4.1-9.1-4.4c-7.4-0.8-14.7,2.9-19.8,8.2s-8.4,12.2-11.2,19c-4.3,10.6-7.7,22.6-3.5,33.2"/>
		</g>
	</g>
</g>
</svg>
