<svg xmlns="http://www.w3.org/2000/svg" xmlns:xlink="http://www.w3.org/1999/xlink" viewBox="0 0 1004.08 644.85"><defs><style>.cls-1{fill:none;}.cls-2{fill:#1d1d1b;}.cls-3{isolation:isolate;}.cls-4{fill:url(#Degradado_sin_nombre_132);}.cls-5{fill:#ffd43c;}.cls-6{clip-path:url(#clip-path);}.cls-7{mix-blend-mode:screen;fill:url(#_10_ppp_60_);}.cls-8{opacity:0.48;}.cls-9{clip-path:url(#clip-path-2);}.cls-10{fill:#140d0b;}.cls-11{fill:#515151;}.cls-12{fill:#545454;}.cls-13{fill:#474747;}.cls-14{fill:#0b2b70;}.cls-15{fill:#daa284;}.cls-16{fill:#6491f9;}.cls-17{fill:#777677;}.cls-18{fill:#e8af95;}.cls-19{fill:#666566;}.cls-20{fill:#4e4c4f;}.cls-21{fill:#606060;}.cls-22{fill:#8c898c;}.cls-23{fill:#efb49a;}.cls-24{fill:#383d46;}.cls-25{fill:#fff;}.cls-26{fill:#57453f;}.cls-27{fill:#fc8080;}.cls-28{fill:url(#Degradado_sin_nombre_2);}.cls-29{fill:url(#Degradado_sin_nombre_2-2);}</style><linearGradient id="Degradado_sin_nombre_132" x1="71.07" y1="272.8" x2="976.97" y2="272.8" gradientUnits="userSpaceOnUse"><stop offset="0.14" stop-color="#2c35ff"/><stop offset="0.29" stop-color="#2932f9"/><stop offset="0.49" stop-color="#202be9"/><stop offset="0.72" stop-color="#111fcd"/><stop offset="0.91" stop-color="#0012af"/></linearGradient><clipPath id="clip-path"><rect class="cls-1" x="71.07" y="67.26" width="748.4" height="410.65" rx="42.44" ry="42.44"/></clipPath><pattern id="_10_ppp_60_" data-name="10 ppp 60%" width="28.8" height="28.8" patternTransform="translate(-43.86 -40.37) scale(0.61 0.55)" patternUnits="userSpaceOnUse" viewBox="0 0 28.8 28.8"><rect class="cls-1" width="28.8" height="28.8"/><circle class="cls-2" cx="28.8" cy="28.8" r="4.32"/><circle class="cls-2" cx="14.4" cy="28.8" r="4.32"/><circle class="cls-2" cx="28.8" cy="14.4" r="4.32"/><circle class="cls-2" cx="14.4" cy="14.4" r="4.32"/><circle class="cls-2" cx="7.2" cy="21.6" r="4.32"/><circle class="cls-2" cx="21.6" cy="21.6" r="4.32"/><circle class="cls-2" cx="7.2" cy="7.2" r="4.32"/><circle class="cls-2" cx="21.6" cy="7.2" r="4.32"/><circle class="cls-2" cy="28.8" r="4.32"/><circle class="cls-2" cy="14.4" r="4.32"/><circle class="cls-2" cx="28.8" r="4.32"/><circle class="cls-2" cx="14.4" r="4.32"/><circle class="cls-2" r="4.32"/></pattern><clipPath id="clip-path-2"><rect class="cls-1" x="71.07" y="66.26" width="748.4" height="410.65" rx="42.44" ry="42.44"/></clipPath><linearGradient id="Degradado_sin_nombre_2" x1="470.11" y1="420.28" x2="471.32" y2="501.2" gradientUnits="userSpaceOnUse"><stop offset="0.4" stop-color="#b3b3b3"/><stop offset="0.93" stop-color="#333"/></linearGradient><linearGradient id="Degradado_sin_nombre_2-2" x1="333.74" y1="420.47" x2="334.91" y2="499.43" xlink:href="#Degradado_sin_nombre_2"/></defs><title>driver</title><g class="cls-3"><g id="Capa_2" data-name="Capa 2"><g id="cuadro"><rect class="cls-4" x="71.07" y="67.48" width="748.4" height="410.65" rx="42.44" ry="42.44"/><rect class="cls-5" x="530.55" y="184.95" width="317.09" height="10.14" rx="4.72" ry="4.72"/><path class="cls-5" d="M315.86,184.11H70v11H315.86A5.14,5.14,0,0,0,321,190v-.73A5.14,5.14,0,0,0,315.86,184.11Z"/><text></text><g class="cls-6"><rect class="cls-7" y="67.04" width="970.73" height="486.55"/></g></g><g id="personaje"><g class="cls-8"><g class="cls-9"><path class="cls-10" d="M981.28,353a123.18,123.18,0,0,0,9.79-45.67c.22-11.14-9.25-35.77-25.52-40.95a27.36,27.36,0,0,0-14.24-.71,185.33,185.33,0,0,0-19-7.66c-17.18-5.61-48.37-14.78-56.11-17q-.85-1-1.62-2c1.85-4.78.14-12,.14-12a22.32,22.32,0,0,0-6.45-2.22l-1.87-23.4c0-1.62.06-3.24.1-4.82,1.19-1.7,2.37-3.5,3.53-5.43,0,0,7.09-9.75,7.39-32,16.76,9.31,29.36-28.36,14.54-35.58a5.46,5.46,0,0,0-3.14-.5c.33-1.44.66-3,1-4.67a18.8,18.8,0,0,0,1-2c9.24-21.83,9.25-47.84-1.9-68.75S855,11.94,831.33,12.27c-8,.11-15.91,1.84-23.89,2.6-5.44.52-11.15.54-16.08-1.81s-8.82-7.66-7.94-13c-5.71,9.36-13.87,18.7-15.12,29.07a29.45,29.45,0,0,0-7,5.36c-5.14,5.33-8.42,12.16-11.23,19-4.06,9.92-7.29,21.12-4.17,31.24,0,1.45.13,3,.3,4.68A91.67,91.67,0,0,0,753.29,116l1.61.37c-.78,18.74.12,37.89-1,51-1.1,12.64,12.82,41.8,30.67,50.38l.44,11c-5.14,2.85-5.51,13.5-5.51,13.5.38.37.79.71,1.2,1.05L760.1,254.55c-.76,0-1.21,0-1.21,0s-.11.27-.31.79L748,261.2a33.38,33.38,0,0,0-7.33,4.8,127.62,127.62,0,0,0-23.51,5.27q-2.11.69-4.26,1.49a106.4,106.4,0,0,0-15.23,7q-2.18,1.23-4.34,2.6-1.08.68-2.15,1.41-2.14,1.44-4.24,3t-4.14,3.35a86.43,86.43,0,0,0-7.88,7.68q-.94,1-1.87,2.14c-8.6,10.19-15.61,23.35-19.48,40.35l-.19.37,0,.07-.32.62-.07.14-.45.89-.1.19-.24.46-.09.17-.22.44-.19.38-.17.34-.25.49-.18.36-.27.53-.27.53-.18.36-.33.66-.22.44-.29.57-.27.53-.34.68-.24.47-.35.7-.27.53-.2.39-.12.23-.93,1.87-.12.24-1,2-.09.18,0,.06L644,359.38l0,0-.14.28-.7,1.42-.1.21-.1.2-1.48,3-.14.28L639.75,368l-.09.18-.23.48-.42.86-.14.29-.24.49-.44.92-.1.2-.2.41-.61,1.26-.12.24-.06.12-2.29,4.77v0l-.16.34-.74,1.55-.06.12-.24.51-.22.47-.46,1-.23.48-.1.2-1.84,3.92-.06.13-.06.13-.6,1.28-.22.48,0,0c-1,2.21-2,4.42-3,6.61l-.05.12-.19.41-.54,1.2-.19.42-.09.19L624.28,401l-.1.22-.07.16q-.89,2-1.74,4l0,.06,0,0-.5,1.16-.22.52,0,0-.94,2.22-.06.15,0,.11q-.84,2-1.62,3.94l0,.09,0,.08-.7,1.76v0h0l-.12.3-.42,1.06,0,0-.74,1.94,0,.11-.05.15c-.6,1.6-1.15,3.13-1.64,4.56l0,.13,0,.07q-.34,1-.64,2l-.06.18-.07.22-.28.94-.12.4c-.12.43-.24.85-.35,1.25q-.42,1.59-.82,3.1v0q-.39,1.5-.74,2.93v0h0c-.15.62-.29,1.22-.43,1.82l0,.14-.11.48-.14.63c-.07.31-.13.62-.19.93l-.14.71c0,.27-.1.54-.14.8s-.06.35-.09.53-.07.46-.1.69,0,.36-.07.54-.05.44-.08.66,0,.35-.06.52,0,.46-.06.69,0,.3,0,.46q0,.52,0,1c0,.11,0,.22,0,.32,0,.28,0,.55,0,.82s0,.28,0,.42,0,.43,0,.65,0,.29,0,.44,0,.41.08.62,0,.28.06.43.08.43.12.64,0,.25.08.37c.08.32.16.64.26,1l.06.17c.09.27.18.53.28.79l.15.35c.08.2.17.4.26.59l.19.37q.15.28.31.56l.16.27c-.32,5.69.87,10.8,3.8,14.56,11.95,15.35,33.5,14.55,48.85,11.68,6.38-1.19,23-7.13,41.45-13.89,1.68,25.16,2.6,47.38.68,59.12-2.05,12.5-3.21,23.58-3.82,32.89l-.27,0-7.43,75.72,231,10.41L916.2,579.72c.05-7.8.33-18.65,1-33.71,1.06-23.46,4.61-42.18,10.3-60.38a46.08,46.08,0,0,0,10-11.5s11.64-32.53,20.75-62.25c3.67-8.12,7.54-16.8,11.61-26.23A229.28,229.28,0,0,0,981.28,353Z"/></g></g><polyline class="cls-11" points="798.13 232.5 847.33 232.47 847.33 257.45 797.37 257.45"/><path class="cls-12" d="M767.59,265.07s-83.36-2.4-101.06,75.28c0,0-34.08,66.1-40,88.52-4.59,17.31-7.54,27.87,13.56,35.44,13.07,4.69,34.14-9,48-19.45,42.93-32.36,48.25-72.66,54.36-90.23C754.4,320.19,776.43,273.84,767.59,265.07Z"/><path class="cls-13" d="M771.89,254.6s23.91.21,26.25-22.1,2.69-37.64,2.69-37.64,14.48-23,40.19-21.19S879.94,181,879.94,181s-.62,19.2-.64,31c0,17.57,8.47,37.19,34.12,41.85,7.31,1.33-20.67,88.68-107.73,77.39C743.62,323.23,771.89,254.6,771.89,254.6Z"/><path class="cls-13" d="M887.44,240.47s38.19,11.13,57.9,17.57S993,280.37,993,280.37s20.31,34.76-10.16,105.29S933,485.18,930.21,546c-2.16,47.73-.21,53.19-.21,53.19l-213.87-8.43s-2.52-25.3,4-64.92c5.34-32.54-11.2-145.8-5.23-178.37C728.24,274.68,761,261.2,761,261.2l34.64-18.94s1.35-.71,0,20.85c-1.4,22.69.14,65.1,27.65,67.48"/><polygon class="cls-14" points="716.02 558.73 708.6 634.45 939.62 644.85 928.02 572.33 716.02 558.73"/><path class="cls-15" d="M797.05,205.7l1.08,26.8s19.35,1.77,49.2,0l34-7-4.16-52S796,189.05,797.05,205.7Z"/><path class="cls-16" d="M695.13,328.36l4.7-15.77a50.65,50.65,0,0,0-15.35-6.51,90.43,90.43,0,0,0-9.72,18C683.75,323.69,691.69,324.66,695.13,328.36Z"/><path class="cls-16" d="M698.26,354.71l4.7-15.77s-11.67-8.29-30.54-8.54q-1.56,4.75-2.76,10s-2.27,4.41-5.75,11.34C677.74,349.76,693.1,349.14,698.26,354.71Z"/><path class="cls-17" d="M784.56,260.86,822,303.52l20.81,3.12,52-55.15L943.78,264S916.72,332.66,913.6,395.1l6.24,169.62L729.41,554.32,723.16,361.8s15.61-62.44,25-83.25C748.14,278.55,783.52,257.73,784.56,260.86Z"/><path class="cls-12" d="M678,480.63c-15.34,2.87-36.9,3.67-48.85-11.68s4.74-53.23,37.43-61.14c26.69-6.46,46.58.38,56,.14,29.42-.76,55.93-3.38,55.93-3.38s13.72-4.3,18.57,2.25c3.68,5-.28,24.76-.28,24.76s2.09,9.2-13.19,12.54S693.34,477.76,678,480.63Z"/><path class="cls-18" d="M795.68,421.48S791.1,400.43,816,385.4,851.28,359,851.28,359l9.35,6.44-19.57,26.35s19.84,1.93,29.34-1.86,33.4,4,33.4,4l-5.23,11.33,6,2.34-6.73,12.86-9.28-1-5.71,6.94-13.45,2.4-4.54,7.74s-16.37,1.45-29.46,3.7S798.58,447.87,795.68,421.48Z"/><path class="cls-19" d="M898.71,494.06c15.52,1.65,37.08.74,47.77-15.51s-8.94-52.68-42.15-58c-27.12-4.33-46.4,4.07-55.77,4.57-29.39,1.58-56,1.07-56,1.07s-14-3.2-18.33,3.71c-3.27,5.24,2.25,24.66,2.25,24.66S775.1,463.91,790.6,466,883.19,492.41,898.71,494.06Z"/><path class="cls-18" d="M790.13,436.52S790,415,762.39,405.75s-40.16-18-40.16-18l-7.72,8.33,24.86,21.44s-18.94,6.22-29,4.6-31.7,11.25-31.7,11.25l7.58,9.91-5.36,3.6,9.38,11.07,8.85-3,7.08,5.52,13.65-.6,6.12,6.56s16.29-2.17,29.55-2.83S793.07,462.9,790.13,436.52Z"/><path class="cls-19" d="M950.5,474.14s24.51-68.5,30.25-97.52c0,0,22.49-26.86,23.33-69.27.22-11.14-9.25-35.77-25.52-40.95-31.27-9.95-57.43,38.15-66.57,66s-26.33,60.28-19.05,111.78c3.09,21.88,4.84,40.23,15.77,45.77S937.69,494.51,950.5,474.14Z"/><path class="cls-16" d="M933.37,302.48l-1,16.65s51,3.12,57.24,16.65l9.37-13.53S978.12,294.16,933.37,302.48Z"/><path class="cls-16" d="M928.17,325.38l-1,16.65s51,3.12,57.24,16.65l9.37-13.53S972.92,317.05,928.17,325.38Z"/><path class="cls-20" d="M792.47,242.25s.54-15.65,9.46-14.09c0,0,36.42,2.6,44.6,1.56,0,0,9.66-1.56,3.72,16.13C850.24,245.86,808.28,257.38,792.47,242.25Z"/><path class="cls-21" d="M887.74,227s3.62,15.24-5.39,16.09c0,0-35.81,7.13-43.42,10.3,0,0-8.91,4.06-7.85-14.58C831.07,238.84,868.49,216.63,887.74,227Z"/><path class="cls-17" d="M932.14,457.77q-1.81-.57-3.35-1.12t-3.2-1.11q-1.67-.56-3.64-1.16t-4.69-1.25a1.63,1.63,0,0,1-1.51-1.72,5.89,5.89,0,0,1,1-3,4,4,0,0,1,1.94-1.4,5.83,5.83,0,0,1,2.48-.23,12.17,12.17,0,0,1,2.66.6,5.75,5.75,0,0,1,1.56.9,5.59,5.59,0,0,1,1.31,1.44,4.08,4.08,0,0,1,.61,1.78,3,3,0,0,1-.51,1.91l6,2.1a.67.67,0,0,1,.31.49,1.81,1.81,0,0,1,0,.79,1.59,1.59,0,0,1-.32.71A.72.72,0,0,1,932.14,457.77ZM918.2,450.6q0,.15.41.35t1.09.42q.66.23,1.43.46l1.47.42,1.21.33.66.19a2,2,0,0,0,.39-1.4,1.81,1.81,0,0,0-.58-1,3.83,3.83,0,0,0-1.18-.72,10.28,10.28,0,0,0-1.37-.45,6.82,6.82,0,0,0-1.68-.15,2.73,2.73,0,0,0-1.1.27,1.37,1.37,0,0,0-.6.58A1.43,1.43,0,0,0,918.2,450.6Z"/><path class="cls-17" d="M933.83,449q-1.84-.79-3.61-1.37t-3.5-1.06q-1.73-.49-3.44-.92t-3.42-1a1.16,1.16,0,0,1-.84-.53,2,2,0,0,1-.24-1,5.38,5.38,0,0,1,.19-1.35q.19-.75.48-1.56t.61-1.64q.32-.83.6-1.59a.83.83,0,0,1,.5-.42.86.86,0,0,1,.61.05,1.13,1.13,0,0,1,.5.5,1.4,1.4,0,0,1,.14.87,4.37,4.37,0,0,1-.29,1q-.26.66-.52,1.38a9.85,9.85,0,0,0-.4,1.37,1.48,1.48,0,0,0,.07,1q.73.29,1.44.52t1.33.4l1.12.27a4.34,4.34,0,0,0,.76.12q.3,0,.52-.55a9.06,9.06,0,0,0,.41-1.21q.18-.67.31-1.31a5.1,5.1,0,0,1,.24-.89.37.37,0,0,1,.24-.29,1,1,0,0,1,.45,0,2.78,2.78,0,0,1,.53.12l.51.19a1.23,1.23,0,0,1,.18.84,7.1,7.1,0,0,1-.24,1q-.17.57-.35,1.28a6.73,6.73,0,0,0-.18,1.62,2.07,2.07,0,0,1,.68.14l1.13.38,1.31.46a12.73,12.73,0,0,0,1.26.37,4.07,4.07,0,0,0,1,.13q.39,0,.43-.29.24-.72.38-1.26t.27-1q.12-.49.21-1t.16-1.23q0-.5.38-.59a1.23,1.23,0,0,1,.76,0,2.19,2.19,0,0,1,.74.46.88.88,0,0,1,.34.63,3.69,3.69,0,0,1-.07.44q-.07.36-.2.87l-.31,1.1q-.17.6-.35,1.18t-.34,1.07q-.16.49-.29.8a1.81,1.81,0,0,1-.24.91,1.53,1.53,0,0,1-.53.53,1.33,1.33,0,0,1-.7.17A2,2,0,0,1,933.83,449Z"/><path class="cls-17" d="M937.71,439.94a38.79,38.79,0,0,0-3.85-1.58q-2.1-.74-4.14-1.34t-3.85-1.09l-3-.79a2.54,2.54,0,0,1-.82-1.28,4.54,4.54,0,0,1-.15-1.69,5.74,5.74,0,0,1,.43-1.73,4.51,4.51,0,0,1,1-1.45,3.29,3.29,0,0,1,1.44-.85,3,3,0,0,1,1.82.12,4.8,4.8,0,0,1,1.67,1.05,12.6,12.6,0,0,1,1.37,1.5,13.84,13.84,0,0,1,.95,1.37l.38.64q3.78-.41,5.8-.75a13.54,13.54,0,0,0,2.64-.62.66.66,0,0,1,.69.09,1.48,1.48,0,0,1,.51.63,1.34,1.34,0,0,1,.08.81.82.82,0,0,1-.57.61l-8.7,1.12.13.82q.66.27,1.68.61l2.08.69,2,.64q.93.29,1.43.48a.47.47,0,0,1,.36.49,1.62,1.62,0,0,1-.21.76,1.89,1.89,0,0,1-.52.63A.53.53,0,0,1,937.71,439.94ZM929,434.87a3.28,3.28,0,0,0-.11-1.18,4.88,4.88,0,0,0-.58-1.35,6.17,6.17,0,0,0-1.08-1.3,5.19,5.19,0,0,0-1.55-1,.79.79,0,0,0-.66,0,1.62,1.62,0,0,0-.59.49,2.84,2.84,0,0,0-.42.78,3.44,3.44,0,0,0-.2.88,1.76,1.76,0,0,0,.11.8.87.87,0,0,0,.5.51Z"/><path class="cls-17" d="M924.86,426.16a1.44,1.44,0,0,1-.54-.79,1.09,1.09,0,0,1,.1-.79,1.52,1.52,0,0,1,.65-.6,2.14,2.14,0,0,1,1.06-.23l1.44.15,2.33.27,2.73.31,2.66.3,2.11.21a5.55,5.55,0,0,0,1.08,0,5.38,5.38,0,0,0-1-.75q-.75-.48-1.75-1.07l-2.14-1.2-2.11-1.14-1.67-.91q-.69-.38-.84-.49a7.57,7.57,0,0,0-.86-.46,6.58,6.58,0,0,1-.94-.52,1.85,1.85,0,0,1-.62-.66.93.93,0,0,1,0-.88,2,2,0,0,1,.7-.92,1.29,1.29,0,0,1,1.13-.11l4,2.57,3,1.93,2.28,1.44,1.81,1.13,1.59,1,1.65,1a1.45,1.45,0,0,1,.46.7,1.17,1.17,0,0,1,0,.71,1.67,1.67,0,0,1-.38.61,1.23,1.23,0,0,1-.58.34,14.05,14.05,0,0,1-2,0q-1.22-.05-2.73-.16t-3.2-.27l-3.37-.33q-1.68-.16-3.26-.28T924.86,426.16Z"/><path class="cls-17" d="M943.6,419.14q-1.84-.79-3.61-1.37t-3.5-1.06q-1.73-.49-3.44-.92t-3.42-1a1.16,1.16,0,0,1-.84-.53,2,2,0,0,1-.24-1,5.38,5.38,0,0,1,.19-1.35q.19-.75.48-1.56t.61-1.64q.32-.83.6-1.59a.83.83,0,0,1,.5-.42.86.86,0,0,1,.61.05,1.13,1.13,0,0,1,.5.5,1.4,1.4,0,0,1,.14.87,4.37,4.37,0,0,1-.29,1q-.26.66-.52,1.38a9.85,9.85,0,0,0-.4,1.37,1.48,1.48,0,0,0,.07,1q.73.29,1.44.52t1.33.4l1.12.27a4.34,4.34,0,0,0,.76.12q.3,0,.52-.55a9.06,9.06,0,0,0,.41-1.21q.18-.67.31-1.31a5.1,5.1,0,0,1,.24-.89.37.37,0,0,1,.24-.29,1,1,0,0,1,.45,0,2.78,2.78,0,0,1,.53.12l.51.19a1.23,1.23,0,0,1,.18.84,7.1,7.1,0,0,1-.24,1q-.17.57-.35,1.28a6.73,6.73,0,0,0-.18,1.62,2.07,2.07,0,0,1,.68.14l1.13.38,1.31.46a12.73,12.73,0,0,0,1.26.37,4.07,4.07,0,0,0,1,.13q.39,0,.43-.29.24-.72.38-1.26t.27-1q.12-.49.21-1t.16-1.23q0-.5.38-.59a1.23,1.23,0,0,1,.76,0,2.19,2.19,0,0,1,.74.46.88.88,0,0,1,.34.63,3.69,3.69,0,0,1-.07.44q-.07.36-.2.87l-.31,1.1q-.17.6-.35,1.18t-.34,1.07q-.16.49-.29.8a1.81,1.81,0,0,1-.24.91,1.53,1.53,0,0,1-.53.53,1.33,1.33,0,0,1-.7.17A2,2,0,0,1,943.6,419.14Z"/><path class="cls-17" d="M947.66,410l-3.76-1.29-2.86-1-2.32-.76q-1.06-.33-2.14-.63t-2.3-.58l-2.82-.62a1.65,1.65,0,0,1-.34-1,1.88,1.88,0,0,1,.21-.92,2,2,0,0,1,.62-.7,1.89,1.89,0,0,1,.87-.34l13.87-1.88q-1.08-.43-2.61-1t-3.24-1.09q-1.72-.53-3.49-1t-3.36-.7a.52.52,0,0,1-.48-.52,1.56,1.56,0,0,1,.25-.85,2.74,2.74,0,0,1,.67-.75,1,1,0,0,1,.74-.26q3.42.93,5.9,1.7t4.29,1.42q1.81.65,3.1,1.19l2.31,1a1,1,0,0,1,.5.66,1.82,1.82,0,0,1,0,.9,1.71,1.71,0,0,1-.43.79,1.16,1.16,0,0,1-.86.36l-14.1,1.67q2.21.72,4.22,1.33l3.7,1.09,3,.85,2,.57a.91.91,0,0,1,.33.61,2,2,0,0,1,0,.9,1.33,1.33,0,0,1-.46.71A1,1,0,0,1,947.66,410Z"/><path class="cls-17" d="M953.77,394a4.2,4.2,0,0,1-2,1.88,6.58,6.58,0,0,1-2.69.52,11.49,11.49,0,0,1-2.91-.42,19.2,19.2,0,0,1-2.67-.92,12.85,12.85,0,0,1-3-1.79,11.87,11.87,0,0,1-2.48-2.61,7.18,7.18,0,0,1-1.23-3,4.33,4.33,0,0,1,.76-3.1.69.69,0,0,1,.61-.23,1.5,1.5,0,0,1,.68.25,1.75,1.75,0,0,1,.52.53.7.7,0,0,1,.11.61,4.16,4.16,0,0,0-.06,2.3,6,6,0,0,0,1,2.08,7.89,7.89,0,0,0,1.68,1.67,7.64,7.64,0,0,0,2,1.07l.85.28q.59.19,1.35.36t1.58.29a7.36,7.36,0,0,0,1.57.08,3.91,3.91,0,0,0,1.32-.3,1.5,1.5,0,0,0,.81-.81,2.31,2.31,0,0,0,.18-1.21,3.11,3.11,0,0,0-.35-1.07,6.66,6.66,0,0,0-.63-1q-.36-.45-.63-.83a.79.79,0,0,1-.05-.58.82.82,0,0,1,.34-.43,1.27,1.27,0,0,1,.62-.2,1.76,1.76,0,0,1,.77.13,6.25,6.25,0,0,1,1.21,1.15,6,6,0,0,1,.93,1.57,4.9,4.9,0,0,1,.35,1.82A3.87,3.87,0,0,1,953.77,394Z"/><path class="cls-17" d="M938.83,382.06a.84.84,0,0,1-.5-.64,1.31,1.31,0,0,1,.13-.8A1.6,1.6,0,0,1,939,380a.77.77,0,0,1,.7-.12l16.09,4.86a.84.84,0,0,1,.4.66,1.59,1.59,0,0,1-.15.79,1.63,1.63,0,0,1-.48.61.54.54,0,0,1-.56.12Z"/><path class="cls-17" d="M941.72,378.19a.68.68,0,0,1-.41.44.81.81,0,0,1-.57,0,1.22,1.22,0,0,1-.81-.58,1.41,1.41,0,0,1-.08-.81,3.69,3.69,0,0,1,.3-.91,4,4,0,0,0,.31-.9q.4-.91.77-1.88t.66-1.86q.29-.89.49-1.65t.28-1.27a1.13,1.13,0,0,1,.52-.62,1.22,1.22,0,0,1,.7-.16.91.91,0,0,1,.59.3,1.08,1.08,0,0,1,.24.77,11.14,11.14,0,0,1-.45,1.79l-.69,2.12q.75.16,1.95.52l2.63.79,3,.93,2.92.92,2.52.76q1.13.33,1.77.49a.69.69,0,0,1,.43.51,1.54,1.54,0,0,1,0,.83,1.39,1.39,0,0,1-.46.71,1.19,1.19,0,0,1-1,.19,7.67,7.67,0,0,1-.79-.22l-1.68-.52-2.26-.71-2.53-.8-2.54-.81-2.26-.71-1.67-.52q-.67-.2-.82-.23Z"/><path class="cls-17" d="M946,367.17a1.51,1.51,0,0,1-.67-.18,1.31,1.31,0,0,1-.48-.44,1.23,1.23,0,0,1-.2-.62,1.41,1.41,0,0,1,.19-.74,1.7,1.7,0,0,1,1-.67,9.84,9.84,0,0,1,1.55-.28l1.66-.16a4.53,4.53,0,0,0,1.38-.32,13.23,13.23,0,0,0-2.11-2.21q-1-.77-1.63-1.24a3.09,3.09,0,0,1-.86-.83q-.21-.36.23-1a1.26,1.26,0,0,1,.82-.74A1.88,1.88,0,0,1,948,358a7.27,7.27,0,0,1,1,.92q.69.7,1.54,1.61t1.81,1.84a17.94,17.94,0,0,0,1.86,1.61q2.15.84,3.71,1.27a21.08,21.08,0,0,0,2.68.58,1.77,1.77,0,0,1,.75.22,1.36,1.36,0,0,1,.52.52,1.54,1.54,0,0,1,.19.77,2.15,2.15,0,0,1-.24.95q.07.34-.41.48a2,2,0,0,1-1.37-.34,15,15,0,0,1-1.49-.58q-.77-.34-1.64-.68t-1.83-.63a16.13,16.13,0,0,0-2.07-.46,7.57,7.57,0,0,0-1.57,0,17.63,17.63,0,0,0-1.87.27q-1,.19-1.92.42Z"/><path class="cls-1" d="M661.33,356.61a3.77,3.77,0,0,0,1.11.76,10.23,10.23,0,0,0,1.32.51,6.83,6.83,0,0,0,1.64.24,2.73,2.73,0,0,0,1.09-.19,1.34,1.34,0,0,0,.62-.52,1.36,1.36,0,0,0,.2-.72q0-.15-.38-.36t-1-.47q-.63-.26-1.38-.52l-1.42-.48-1.17-.38-.63-.22a1.93,1.93,0,0,0-.47,1.33A1.73,1.73,0,0,0,661.33,356.61Z"/><path class="cls-1" d="M656.31,373.67a6,6,0,0,0,1,1.31,5.1,5.1,0,0,0,1.47,1,.79.79,0,0,0,.65,0,1.6,1.6,0,0,0,.6-.44,2.73,2.73,0,0,0,.45-.73,3.26,3.26,0,0,0,.24-.84,1.66,1.66,0,0,0-.06-.77.84.84,0,0,0-.46-.52l-4.41-1.54a3.1,3.1,0,0,0,0,1.14A4.65,4.65,0,0,0,656.31,373.67Z"/><path class="cls-1" d="M653.39,370.41q-.6-.28-1.52-.65l-.78,1.61,2.38-.16Z"/><path class="cls-1" d="M643.19,399.12l-3.57-1.26-.81-.28q-.82,1.84-1.62,3.64l10.08-.59Q645.13,399.81,643.19,399.12Z"/><path class="cls-1" d="M767.59,265.07s-83.36-2.4-101.06,75.28c0,0-2.27,4.41-5.74,11.33.95.37,2,.75,3.05,1.15q1.9.69,4.53,1.47a1.6,1.6,0,0,1,1.1.65,1.54,1.54,0,0,1,.28,1.09,5.62,5.62,0,0,1-1.18,2.78,4,4,0,0,1-2,1.24,5.84,5.84,0,0,1-2.45.08,12.15,12.15,0,0,1-2.58-.73,5.67,5.67,0,0,1-1.48-.95,5.41,5.41,0,0,1-1.21-1.46,3.94,3.94,0,0,1-.34-.81l-1.6,3.23,1.78.63q1.67.57,3.32,1.08t3.3,1.13a1.14,1.14,0,0,1,.79.55,1.9,1.9,0,0,1,.18,1,5.1,5.1,0,0,1-.26,1.29q-.23.71-.56,1.47t-.7,1.54q-.37.78-.68,1.49a.81.81,0,0,1-.51.38.86.86,0,0,1-.59-.08,1.1,1.1,0,0,1-.47-.51,1.33,1.33,0,0,1-.09-.85,4.16,4.16,0,0,1,.35-1q.29-.62.59-1.29a9.37,9.37,0,0,0,.47-1.3,1.4,1.4,0,0,0,0-1q-.7-.32-1.38-.58t-1.29-.46l-1.09-.33a4.33,4.33,0,0,0-.74-.15q-.29,0-.55.5a8.63,8.63,0,0,0-.47,1.14q-.22.64-.38,1.24a4.85,4.85,0,0,1-.29.85.36.36,0,0,1-.25.27,1,1,0,0,1-.45,0,2.77,2.77,0,0,1-.52-.15l-.49-.21a1.17,1.17,0,0,1-.13-.82,6.74,6.74,0,0,1,.29-1q.2-.54.42-1.21a6.37,6.37,0,0,0,.27-1.55,2.07,2.07,0,0,1-.66-.18l-.17-.06c-1.07,2.17-2.19,4.45-3.34,6.8q1.3.51,2.57,1,2,.69,3.72,1.26l2.89.93a2.43,2.43,0,0,1,.73,1.28,4.29,4.29,0,0,1,.05,1.63,5.46,5.46,0,0,1-.53,1.64,4.35,4.35,0,0,1-1,1.34,3.26,3.26,0,0,1-1.46.74,3,3,0,0,1-1.78-.22,4.72,4.72,0,0,1-1.58-1.1,12.19,12.19,0,0,1-1.26-1.52,13.29,13.29,0,0,1-.85-1.38l-.33-.64q-2.09.1-3.63.22l-2.36,4.93,2.29.33,3.29.51q1.64.25,3.19.45t2.81.32a1.38,1.38,0,0,1,.49.79,1,1,0,0,1-.14.76,1.49,1.49,0,0,1-.67.54,2.14,2.14,0,0,1-1.05.16l-1.41-.23-2.28-.39-2.67-.45-2.59-.44-2.06-.32-.15,0-.24.51.25.19q.7.51,1.66,1.12l2,1.28,2,1.22,1.59,1q.65.41.8.52a7.47,7.47,0,0,0,.82.49,6.49,6.49,0,0,1,.89.55,1.79,1.79,0,0,1,.57.67.88.88,0,0,1-.1.84,2,2,0,0,1-.74.84,1.29,1.29,0,0,1-1.11,0l-3.77-2.7-2.84-2-2.16-1.51-.81-.56-2,4.25.34.14q1.7.66,3.37,1.22t3.32,1.08q1.65.52,3.3,1.13a1.14,1.14,0,0,1,.79.55,1.9,1.9,0,0,1,.18,1,5.1,5.1,0,0,1-.26,1.29q-.23.71-.56,1.47t-.7,1.54q-.37.78-.68,1.49a.81.81,0,0,1-.51.38.86.86,0,0,1-.59-.08,1.1,1.1,0,0,1-.47-.51,1.33,1.33,0,0,1-.09-.85,4.15,4.15,0,0,1,.35-1q.29-.62.59-1.29a9.37,9.37,0,0,0,.47-1.3,1.4,1.4,0,0,0,0-1q-.7-.32-1.38-.58t-1.29-.46l-1.09-.33a4.34,4.34,0,0,0-.74-.15q-.29,0-.55.5a8.63,8.63,0,0,0-.47,1.14q-.22.64-.38,1.24a4.85,4.85,0,0,1-.29.85.36.36,0,0,1-.25.27,1,1,0,0,1-.45,0,2.77,2.77,0,0,1-.52-.15l-.49-.21a1.17,1.17,0,0,1-.13-.82,6.74,6.74,0,0,1,.29-1q.2-.54.42-1.21a6.37,6.37,0,0,0,.27-1.55,2.07,2.07,0,0,1-.66-.18l-1.08-.43-.95-.39c-1,2.26-2.09,4.52-3.1,6.76l2.71,1.1,2.23.86q1,.38,2.06.73t2.22.69l2.73.75a1.57,1.57,0,0,1,.28.93,1.78,1.78,0,0,1-.26.87,1.95,1.95,0,0,1-1.52.92l-13.72,1q1,.48,2.5,1.09t3.12,1.23q1.65.61,3.37,1.14t3.26.86a.5.5,0,0,1,.44.52,1.49,1.49,0,0,1-.3.8,2.67,2.67,0,0,1-.7.69,1,1,0,0,1-.74.21q-3.31-1.09-5.69-2t-4.13-1.6q-1.26-.52-2.25-1l-.74,1.72a11.79,11.79,0,0,1,2.13.5,19.09,19.09,0,0,1,2.56,1,12.65,12.65,0,0,1,2.82,1.89,11.49,11.49,0,0,1,2.28,2.65,6.83,6.83,0,0,1,1,3,4.12,4.12,0,0,1-.93,2.94.69.69,0,0,1-.61.18,1.49,1.49,0,0,1-.65-.28,1.7,1.7,0,0,1-.48-.54.66.66,0,0,1-.07-.59,3.94,3.94,0,0,0,.19-2.21,5.73,5.73,0,0,0-.86-2.06,7.66,7.66,0,0,0-1.55-1.7,7.54,7.54,0,0,0-1.88-1.14l-.82-.32q-.57-.22-1.3-.42t-1.54-.37a7.49,7.49,0,0,0-1.36-.16q-.89,2.12-1.71,4.14c.21.29.39.55.55.8a.74.74,0,0,1,0,.56.8.8,0,0,1-.36.4,1.27,1.27,0,0,1-.62.15,1.57,1.57,0,0,1-.33,0l-.54,1.37,12.54,4.51a.81.81,0,0,1,.45.64,1.24,1.24,0,0,1-.17.76,1.56,1.56,0,0,1-.56.56.77.77,0,0,1-.7.07L629.79,419c-.64,1.71-1.23,3.33-1.74,4.84l1.39.52,2.44.91,2.45.92,2.17.81,1.61.59q.64.23.79.26l1.18-2.87a.67.67,0,0,1,.43-.4.81.81,0,0,1,.56,0,1.19,1.19,0,0,1,.76.61,1.33,1.33,0,0,1,0,.79,3.51,3.51,0,0,1-.35.86,3.79,3.79,0,0,0-.35.85q-.45.85-.87,1.76t-.76,1.75q-.34.84-.57,1.56t-.35,1.2a1.1,1.1,0,0,1-.55.56,1.22,1.22,0,0,1-.7.11.89.89,0,0,1-.57-.32,1,1,0,0,1-.19-.76,10.58,10.58,0,0,1,.55-1.7l.8-2q-.72-.2-1.88-.61l-2.53-.91-2.85-1.06-2.81-1-.55-.2c-.31,1-.59,1.94-.82,2.81-.57,2.13-1.1,4.16-1.58,6.1q.64.27,1.33.52a16.1,16.1,0,0,0,2,.56,7.59,7.59,0,0,0,1.54.09,17.68,17.68,0,0,0,1.85-.15q1-.13,1.91-.3l1.71-.32a1.51,1.51,0,0,1,.65.21,1.28,1.28,0,0,1,.45.45,1.17,1.17,0,0,1,.16.61,1.34,1.34,0,0,1-.23.7,1.68,1.68,0,0,1-1.05.59,9.86,9.86,0,0,1-1.54.18l-1.64.06a4.53,4.53,0,0,0-1.38.23,12.83,12.83,0,0,0,1.95,2.24q.92.8,1.53,1.28a3,3,0,0,1,.8.84q.19.36-.28.94a1.23,1.23,0,0,1-.84.67,1.87,1.87,0,0,1-1.1-.29,7.08,7.08,0,0,1-.95-.94q-.63-.72-1.42-1.63t-1.67-1.87A17.48,17.48,0,0,0,627,438q-1.38-.62-2.52-1.05c-2.86,12.66-2,21.05,15.61,27.37,13.07,4.69,34.14-9,48-19.45,42.93-32.36,48.25-72.66,54.36-90.23C754.4,320.19,776.43,273.84,767.59,265.07Z"/><path class="cls-22" d="M660.09,358.46a5.67,5.67,0,0,0,1.48.95,12.15,12.15,0,0,0,2.58.73,5.84,5.84,0,0,0,2.45-.08,4,4,0,0,0,2-1.24,5.62,5.62,0,0,0,1.18-2.78,1.54,1.54,0,0,0-.28-1.09,1.6,1.6,0,0,0-1.1-.65q-2.63-.78-4.53-1.47c-1.09-.4-2.11-.78-3.05-1.15l-2.25,4.5a3.94,3.94,0,0,0,.34.81A5.41,5.41,0,0,0,660.09,358.46Zm1.2-4.22.63.22,1.17.38,1.42.48q.75.26,1.38.52t1,.47q.41.21.38.36a1.36,1.36,0,0,1-.2.72,1.34,1.34,0,0,1-.62.52,2.73,2.73,0,0,1-1.09.19,6.83,6.83,0,0,1-1.64-.24,10.23,10.23,0,0,1-1.32-.51,3.77,3.77,0,0,1-1.11-.76,1.73,1.73,0,0,1-.51-1A1.93,1.93,0,0,1,661.28,354.25Z"/><path class="cls-22" d="M656.83,361.57a6.37,6.37,0,0,1-.27,1.55q-.22.68-.42,1.21a6.74,6.74,0,0,0-.29,1,1.17,1.17,0,0,0,.13.82l.49.21a2.77,2.77,0,0,0,.52.15,1,1,0,0,0,.45,0,.36.36,0,0,0,.25-.27,4.85,4.85,0,0,0,.29-.85q.16-.61.38-1.24a8.63,8.63,0,0,1,.47-1.14q.26-.5.55-.5a4.33,4.33,0,0,1,.74.15l1.09.33q.6.19,1.29.46t1.38.58a1.4,1.4,0,0,1,0,1,9.37,9.37,0,0,1-.47,1.3q-.3.67-.59,1.29a4.16,4.16,0,0,0-.35,1,1.33,1.33,0,0,0,.09.85,1.1,1.1,0,0,0,.47.51.86.86,0,0,0,.59.08.81.81,0,0,0,.51-.38q.31-.72.68-1.49t.7-1.54q.33-.76.56-1.47a5.1,5.1,0,0,0,.26-1.29,1.9,1.9,0,0,0-.18-1,1.14,1.14,0,0,0-.79-.55q-1.65-.61-3.3-1.13T658.72,360l-1.78-.63-.94,1.91.17.06A2.07,2.07,0,0,0,656.83,361.57Z"/><path class="cls-22" d="M654.13,373.69a13.29,13.29,0,0,0,.85,1.38,12.19,12.19,0,0,0,1.26,1.52,4.72,4.72,0,0,0,1.58,1.1,3,3,0,0,0,1.78.22,3.26,3.26,0,0,0,1.46-.74,4.35,4.35,0,0,0,1-1.34,5.46,5.46,0,0,0,.53-1.64,4.29,4.29,0,0,0-.05-1.63,2.43,2.43,0,0,0-.73-1.28l-2.89-.93q-1.75-.57-3.72-1.26-1.27-.45-2.57-1l-.79,1.63q.92.37,1.52.65l.08.79-2.38.16-.92,1.91q1.54-.11,3.63-.22Zm1.64-2.5,4.41,1.54a.84.84,0,0,1,.46.52,1.66,1.66,0,0,1,.06.77,3.26,3.26,0,0,1-.24.84,2.73,2.73,0,0,1-.45.73,1.6,1.6,0,0,1-.6.44.79.79,0,0,1-.65,0,5.1,5.1,0,0,1-1.47-1,6,6,0,0,1-1-1.31,4.65,4.65,0,0,1-.5-1.33A3.1,3.1,0,0,1,655.77,371.19Z"/><path class="cls-22" d="M648.66,384.73l2.84,2,3.77,2.7a1.29,1.29,0,0,0,1.11,0,2,2,0,0,0,.74-.84.88.88,0,0,0,.1-.84,1.79,1.79,0,0,0-.57-.67,6.49,6.49,0,0,0-.89-.55,7.47,7.47,0,0,1-.82-.49q-.14-.11-.8-.52l-1.59-1-2-1.22-2-1.28q-1-.62-1.66-1.12l-.25-.19-.91,1.92.81.56Z"/><path class="cls-22" d="M649.05,380.55l2.59.44,2.67.45,2.28.39,1.41.23a2.14,2.14,0,0,0,1.05-.16,1.49,1.49,0,0,0,.67-.54,1,1,0,0,0,.14-.76,1.38,1.38,0,0,0-.49-.79q-1.26-.12-2.81-.32t-3.19-.45l-3.29-.51-2.29-.33-1,2,.15,0Z"/><path class="cls-22" d="M644.85,389.6a2.07,2.07,0,0,0,.66.18,6.37,6.37,0,0,1-.27,1.55q-.22.68-.42,1.21a6.74,6.74,0,0,0-.29,1,1.17,1.17,0,0,0,.13.82l.49.21a2.77,2.77,0,0,0,.52.15,1,1,0,0,0,.45,0,.36.36,0,0,0,.25-.27,4.85,4.85,0,0,0,.29-.85q.16-.61.38-1.24a8.63,8.63,0,0,1,.47-1.14q.26-.5.55-.5a4.34,4.34,0,0,1,.74.15l1.09.33q.6.19,1.29.46t1.38.58a1.4,1.4,0,0,1,0,1,9.37,9.37,0,0,1-.47,1.3q-.3.67-.59,1.29a4.15,4.15,0,0,0-.35,1,1.33,1.33,0,0,0,.09.85,1.1,1.1,0,0,0,.47.51.86.86,0,0,0,.59.08.81.81,0,0,0,.51-.38q.31-.72.68-1.49t.7-1.54q.33-.76.56-1.47A5.1,5.1,0,0,0,655,392a1.9,1.9,0,0,0-.18-1,1.14,1.14,0,0,0-.79-.55q-1.65-.61-3.3-1.13t-3.32-1.08q-1.67-.57-3.37-1.22l-.34-.14-.88,1.89.95.39Z"/><path class="cls-22" d="M641.73,408q2.39.88,5.69,2a1,1,0,0,0,.74-.21,2.67,2.67,0,0,0,.7-.69,1.49,1.49,0,0,0,.3-.8.5.5,0,0,0-.44-.52q-1.55-.34-3.26-.86t-3.37-1.14q-1.65-.61-3.12-1.23t-2.5-1.09l13.72-1a1.95,1.95,0,0,0,1.52-.92,1.78,1.78,0,0,0,.26-.87,1.57,1.57,0,0,0-.28-.93l-2.73-.75q-1.19-.34-2.22-.69t-2.06-.73l-2.23-.86-2.71-1.1-.92,2,.81.28,3.57,1.26q1.94.69,4.07,1.52l-10.08.59q-.94,2.12-1.83,4.19,1,.45,2.25,1Q639.34,407.12,641.73,408Z"/><path class="cls-22" d="M636.48,410.08q.73.2,1.3.42l.82.32a7.54,7.54,0,0,1,1.88,1.14,7.66,7.66,0,0,1,1.55,1.7,5.73,5.73,0,0,1,.86,2.06,3.94,3.94,0,0,1-.19,2.21.66.66,0,0,0,.07.59,1.7,1.7,0,0,0,.48.54,1.49,1.49,0,0,0,.65.28.69.69,0,0,0,.61-.18,4.12,4.12,0,0,0,.93-2.94,6.83,6.83,0,0,0-1-3,11.49,11.49,0,0,0-2.28-2.65,12.65,12.65,0,0,0-2.82-1.89,19.09,19.09,0,0,0-2.56-1,11.79,11.79,0,0,0-2.13-.5l-1,2.41a7.49,7.49,0,0,1,1.36.16Q635.75,409.88,636.48,410.08Z"/><path class="cls-22" d="M632.08,415.45a.8.8,0,0,0,.36-.4.74.74,0,0,0,0-.56c-.16-.25-.34-.51-.55-.8l-.75,1.87a1.57,1.57,0,0,0,.33,0A1.27,1.27,0,0,0,632.08,415.45Z"/><path class="cls-22" d="M642.86,423.41a1.56,1.56,0,0,0,.56-.56,1.24,1.24,0,0,0,.17-.76.81.81,0,0,0-.45-.64l-12.54-4.51q-.42,1.07-.8,2.1l12.37,4.45A.77.77,0,0,0,642.86,423.41Z"/><path class="cls-22" d="M630.7,427.31l2.85,1.06,2.53.91q1.16.41,1.88.61l-.8,2a10.58,10.58,0,0,0-.55,1.7,1,1,0,0,0,.19.76.89.89,0,0,0,.57.32,1.22,1.22,0,0,0,.7-.11,1.1,1.1,0,0,0,.55-.56q.11-.48.35-1.2t.57-1.56q.34-.84.76-1.75t.87-1.76a3.79,3.79,0,0,1,.35-.85,3.51,3.51,0,0,0,.35-.86,1.33,1.33,0,0,0,0-.79,1.19,1.19,0,0,0-.76-.61.81.81,0,0,0-.56,0,.67.67,0,0,0-.43.4l-1.18,2.87q-.15,0-.79-.26L636.5,427l-2.17-.81-2.45-.92-2.44-.91-1.39-.52c-.26.76-.5,1.49-.72,2.19l.55.2Z"/><path class="cls-22" d="M628.72,439.64q.89,1,1.67,1.87t1.42,1.63a7.08,7.08,0,0,0,.95.94,1.87,1.87,0,0,0,1.1.29,1.23,1.23,0,0,0,.84-.67q.47-.58.28-.94a3,3,0,0,0-.8-.84q-.61-.48-1.53-1.28a12.83,12.83,0,0,1-1.95-2.24,4.53,4.53,0,0,1,1.38-.23l1.64-.06a9.86,9.86,0,0,0,1.54-.18,1.68,1.68,0,0,0,1.05-.59,1.34,1.34,0,0,0,.23-.7,1.17,1.17,0,0,0-.16-.61,1.28,1.28,0,0,0-.45-.45,1.51,1.51,0,0,0-.65-.21l-1.71.32q-1,.17-1.91.3a17.68,17.68,0,0,1-1.85.15,7.59,7.59,0,0,1-1.54-.09,16.1,16.1,0,0,1-2-.56q-.69-.25-1.33-.52-.25,1-.46,2,1.13.43,2.52,1.05A17.48,17.48,0,0,1,628.72,439.64Z"/><path class="cls-10" d="M899.31,132.53A131.55,131.55,0,0,0,905,98.63c.37-17.61-4.74-29.87-4.74-29.87s-87.8-15.24-138.43.12c0,0-4.17,5.28-2.67,20.49A91.67,91.67,0,0,0,766.29,116L891.9,144.91Z"/><path class="cls-23" d="M783.37,48.73C766.8,63.57,770.6,88.35,769.32,98.38c-3,23.59-.94,51.64-2.45,69s25.33,65.93,51.75,49.45c0,0,37.44,19.23,64.42-25.67,0,0,9.07-12.45,7.13-41.35a152.8,152.8,0,0,0-3.55-60.45s3.54-42.28-37.2-51.07C849.43,38.3,804.84,29.51,783.37,48.73Z"/><path class="cls-15" d="M890.14,133.07s8-12.79,14.84-9.46c15.42,7.52,1.15,48-16.61,34.21Z"/><path class="cls-24" d="M842.2,126.3a7.87,7.87,0,0,0,10.4,2.48,6.87,6.87,0,0,0,2.54-9.78,7.87,7.87,0,0,0-10.39-2.48A6.87,6.87,0,0,0,842.2,126.3Z"/><path class="cls-25" d="M846.11,124.09a2.44,2.44,0,0,0,.9-3.47,2.8,2.8,0,0,0-3.69-.88,2.44,2.44,0,0,0-.9,3.47A2.8,2.8,0,0,0,846.11,124.09Z"/><path class="cls-24" d="M784.05,126.32a7.87,7.87,0,0,0,10.4,2.48A6.87,6.87,0,0,0,797,119a7.87,7.87,0,0,0-10.39-2.48A6.87,6.87,0,0,0,784.05,126.32Z"/><path class="cls-25" d="M788,124.11a2.44,2.44,0,0,0,.9-3.47,2.8,2.8,0,0,0-3.69-.88,2.44,2.44,0,0,0-.9,3.47A2.8,2.8,0,0,0,788,124.11Z"/><path class="cls-26" d="M832.39,102.73c13.87-4.72,27.72-1.81,33,3.51s.61-4.06-3.82-6.32C851,94.54,842,94.84,834.36,97,821.93,100.47,828.63,104,832.39,102.73Z"/><path class="cls-26" d="M796.37,104.27c-10.59-5.42-22.2-4-27.24.4s.06-3.71,3.95-5.37c9.31-4,16.58-3,22.47-.38C805.14,103.11,799.24,105.74,796.37,104.27Z"/><path class="cls-27" d="M815,153.29a1.67,1.67,0,0,1-.41-.25l-9.46-7.74a1.73,1.73,0,0,1,1.2-3.07L825,143.38a1.73,1.73,0,0,1,.81,3.2l-10.35,6.51A1.7,1.7,0,0,1,815,153.29Z"/><path class="cls-25" d="M796.2,164s6.83.48,19.49.87c17.69.54,26.44-1,26.44-1s-12.59,7.28-27.4,6.46S796.2,164,796.2,164Z"/><path class="cls-10" d="M883.19,94.31c-.49-8.55-1.25-17.81-6.93-24.22-5.38-6.09-14.07-8.18-22.2-8.16s-16.17,1.79-24.3,1.93a61.28,61.28,0,0,1-33-9c-7.28-4.48-13.93-11.13-15.34-19.56-2.17-12.93,8.17-24.08,15-35.27-.87,5.39,3,10.7,7.94,13s10.64,2.33,16.08,1.81c8-.76,15.88-2.49,23.89-2.6,23.7-.33,46.45,14.47,57.6,35.38s11.14,46.92,1.9,68.75c-1.8,4.25-5.82,9.11-10,7.21-1.89-.86-3-2.85-3.82-4.74a94.7,94.7,0,0,1-8.52-37.09"/><path class="cls-10" d="M763,104.2c5-11.19,2.63-24.83,8.48-35.6,6-11,18.66-16,28.73-23.37a13.81,13.81,0,0,0,4.64-4.93,9.22,9.22,0,0,0-1.65-9.65,14,14,0,0,0-9.09-4.41c-7.36-.82-14.69,2.86-19.83,8.19s-8.42,12.16-11.23,19C758.77,64,755.38,76,759.57,86.58"/></g><g id="titulo"><path class="cls-25" d="M333.64,132.55a15,15,0,0,1,3.3.36,13.12,13.12,0,0,1,3.24,1.22,7.35,7.35,0,0,1,2.73,2.57,8.88,8.88,0,0,1,1.33,4.08h-6.2q-.55-3.13-4-3.13a4.5,4.5,0,0,0-2.57.66,2.08,2.08,0,0,0-1,1.82,1.74,1.74,0,0,0,.69,1.49,5.88,5.88,0,0,0,2.15.84l3.46.8a12.67,12.67,0,0,1,5.58,2.42,5.78,5.78,0,0,1,1.9,4.65,7,7,0,0,1-2.81,5.89,11.9,11.9,0,0,1-7.47,2.17,13,13,0,0,1-7.65-2.21,8.5,8.5,0,0,1-3.54-6.54H329a3.79,3.79,0,0,0,1.66,2.57,6.2,6.2,0,0,0,3.55.93,4.79,4.79,0,0,0,2.61-.58,1.82,1.82,0,0,0,.89-1.6q0-1.6-2.62-2.11l-4.08-.91a10.7,10.7,0,0,1-5.43-2.57,6.42,6.42,0,0,1-1.75-4.72,7.2,7.2,0,0,1,2.72-5.89A11,11,0,0,1,333.64,132.55Z"/><path class="cls-25" d="M354.16,138.45V143h11v5.25h-11v4.3h12.57v5.36H348V133.09h18.73v5.36Z"/><path class="cls-25" d="M394.8,144v13.92h-4.59l-.25-3a9.55,9.55,0,0,1-7.84,3.5,13,13,0,0,1-9.48-3.63,12.09,12.09,0,0,1-3.72-9,12.68,12.68,0,0,1,3.77-9.46,13,13,0,0,1,9.49-3.7,13.53,13.53,0,0,1,8.13,2.5,10.31,10.31,0,0,1,4.23,6.83H388.1q-1.39-3.68-5.8-3.68a6.88,6.88,0,0,0-5.16,2,7.31,7.31,0,0,0-2,5.32,6.89,6.89,0,0,0,7.22,7.07,6.54,6.54,0,0,0,6.27-3.79l-7.11-.07V144Z"/><path class="cls-25" d="M421.7,133.09v13.23q0,5.72-3.1,8.91a12.78,12.78,0,0,1-16.89,0q-3.08-3.19-3.08-8.91V133.09h6.2v13.34a6.78,6.78,0,0,0,1.44,4.54,4.83,4.83,0,0,0,3.88,1.69A4.89,4.89,0,0,0,414,151a6.72,6.72,0,0,0,1.46-4.54V133.09Z"/><path class="cls-25" d="M435.7,150.7h-3.83v7.18h-6.16V133.09h10.86a11.2,11.2,0,0,1,7.44,2.35,7.87,7.87,0,0,1,2.81,6.36,8.31,8.31,0,0,1-4.74,7.69l6.38,8.38H441Zm-3.83-5.54h4.56a4.88,4.88,0,0,0,3-.93,2.91,2.91,0,0,0,1.22-2.42,2.83,2.83,0,0,0-1.22-2.37,5,5,0,0,0-3-.91h-4.56Z"/><path class="cls-25" d="M456.91,133.09v24.78h-6.16V133.09Z"/><path class="cls-25" d="M461.28,133.09h10a13.7,13.7,0,0,1,9.6,3.44,11.47,11.47,0,0,1,3.77,8.88,11.67,11.67,0,0,1-3.77,9,13.61,13.61,0,0,1-9.6,3.48h-10Zm6.16,19.24h3.83a7,7,0,0,0,5.07-2,6.61,6.61,0,0,0,2-4.94,6.41,6.41,0,0,0-2-4.83,7,7,0,0,0-5.07-2h-3.83Z"/><path class="cls-25" d="M503.09,153.61h-10.5l-1.64,4.26h-6.56l10.53-24.93h5.87l10.5,24.93h-6.53Zm-2-5.25-3.21-8.24-3.21,8.24Z"/><path class="cls-25" d="M513.95,133.09h10a13.7,13.7,0,0,1,9.6,3.44,11.47,11.47,0,0,1,3.77,8.88,11.67,11.67,0,0,1-3.77,9,13.61,13.61,0,0,1-9.6,3.48h-10Zm6.16,19.24h3.83a7,7,0,0,0,5.07-2,6.61,6.61,0,0,0,2-4.94,6.41,6.41,0,0,0-2-4.83,7.05,7.05,0,0,0-5.07-2h-3.83Z"/><path class="cls-25" d="M397.45,166.36l-18.88,43.78H367.69l-18.88-43.78h11.9l12.42,29.5,12.42-29.5Z"/><path class="cls-25" d="M415.43,166.36v43.52H404.62V166.36Z"/><path class="cls-25" d="M456,202.39H437.58l-2.88,7.49H423.18l18.5-43.78H452l18.43,43.78H459Zm-3.58-9.22-5.63-14.46-5.63,14.46Z"/><path class="cls-25" d="M510.54,200.34v9.54H478.22V166.36H489v34Z"/></g><g id="boton"><rect class="cls-28" x="386.76" y="445.32" width="168.21" height="50.42" rx="22.22" ry="22.22"/><circle class="cls-29" cx="334.47" cy="469.5" r="25.5"/><path class="cls-25" d="M345.56,468.09Q343.1,462,332.28,462h-3.4v-3.89a1,1,0,0,0-1.65-.68l-7.77,7.77a1,1,0,0,0,0,1.37l7.77,7.77a1,1,0,0,0,1.65-.68v-3.89h3.4q1.49,0,2.66.09a19.2,19.2,0,0,1,2.34.33,8.68,8.68,0,0,1,2,.65,7.15,7.15,0,0,1,1.6,1.05,5.29,5.29,0,0,1,1.21,1.53,8.26,8.26,0,0,1,.74,2.1,12.93,12.93,0,0,1,.27,2.75q0,.83-.08,1.87a3.11,3.11,0,0,1,0,.36,3.12,3.12,0,0,0,0,.4.57.57,0,0,0,.13.38.44.44,0,0,0,.36.15.52.52,0,0,0,.42-.26,1.74,1.74,0,0,0,.2-.33l.2-.46.16-.36a18.22,18.22,0,0,0,1.93-6.85A13.82,13.82,0,0,0,345.56,468.09Z"/></g></g></g></svg>