<svg xmlns="http://www.w3.org/2000/svg" xmlns:xlink="http://www.w3.org/1999/xlink" viewBox="0 0 925 641.14"><defs><style>.cls-1{isolation:isolate;}.cls-2{fill:url(#Degradado_sin_nombre_37);}.cls-3{fill:red;}.cls-4{opacity:0.38;mix-blend-mode:multiply;}.cls-5{fill:#8c0000;}.cls-6{fill:#a6b3ba;}.cls-7{fill:#daa284;}.cls-8{fill:#c3ccd1;}.cls-9{fill:#dae1e5;}.cls-10{fill:#47342b;}.cls-11{fill:#c61212;}.cls-12{fill:#140d0b;}.cls-13{fill:#efb49a;}.cls-14{fill:#383d46;}.cls-15{fill:#fff;}.cls-16{fill:#57453f;}.cls-17{fill:#fc8080;}.cls-18{fill:#b21010;}.cls-19{fill:#e24b44;}.cls-20{fill:#e51c1c;}.cls-21{fill:#ffc33e;}.cls-22{fill:#e8af95;}.cls-23{fill:url(#Degradado_sin_nombre_2);}.cls-24{fill:url(#Degradado_sin_nombre_2-2);}</style><linearGradient id="Degradado_sin_nombre_37" x1="0.11" y1="257.94" x2="906" y2="257.94" gradientUnits="userSpaceOnUse"><stop offset="0.14" stop-color="#aa1c00"/><stop offset="0.26" stop-color="#a41b00"/><stop offset="0.41" stop-color="#941700"/><stop offset="0.59" stop-color="#781200"/><stop offset="0.78" stop-color="#520a00"/><stop offset="0.91" stop-color="#330300"/></linearGradient><linearGradient id="Degradado_sin_nombre_2" x1="399.15" y1="405.42" x2="400.35" y2="486.34" gradientUnits="userSpaceOnUse"><stop offset="0.4" stop-color="#b3b3b3"/><stop offset="0.93" stop-color="#333"/></linearGradient><linearGradient id="Degradado_sin_nombre_2-2" x1="262.77" y1="405.61" x2="263.95" y2="484.57" xlink:href="#Degradado_sin_nombre_2"/></defs><title>emergencia</title><g class="cls-1"><g id="Capa_2" data-name="Capa 2"><g id="cuadro"><rect class="cls-2" x="0.11" y="52.62" width="748.4" height="410.65" rx="42.44" ry="42.44"/><rect class="cls-3" x="602.58" y="170.09" width="172.09" height="10.14" rx="4.72" ry="4.72"/><path class="cls-3" d="M123.89,169.25H0v11H123.89a5.14,5.14,0,0,0,5.13-5.13v-.73A5.14,5.14,0,0,0,123.89,169.25Z"/><text></text></g><g id="Capa_6" data-name="Capa 6"><path class="cls-4" d="M627.08,450.2c-3.12-7.07-4.14-24.37-17.43-42.69A43.37,43.37,0,0,0,599,397.17c2.77-2.17,5.4-4.37,7.76-6.43a116,116,0,0,0,33.52-48.35c5,39.95,15.94,95.73,14,116.08-.12,1.21-.22,2.4-.32,3.58h52.12a42.56,42.56,0,0,0,42.44-42.44V93.84A42.56,42.56,0,0,0,706.07,51.4h-47c-.19,1.21-.36,2.4-.5,3.55-27.89,13.71-30.84,33-30.13,43.29a21,21,0,0,0,.51,6.88c3.32,13.88,18.53,21.76,37.67,26-.2,8.36-.35,15.94-.44,21.66C666,165.9,680.73,177.61,705,186.84c0,5-.07,11-.29,17.72a23.31,23.31,0,0,1-1.28,7.05L693.08,218c.85-1.28,1.34-1.91,1.34-1.91l-28.24,9.29s-74.47,3.17-85.3,73.56c0,0-26.17,61.1-30,81.47-1.6,8.42-2.9,15.08-.8,20.29-5.78,13.3,1.12,28.19,7.69,38.33,2.56,3.95,10.42,12.83,19.71,23h55C630.7,458.26,628.88,454.28,627.08,450.2ZM660.22,68.1A87.26,87.26,0,0,0,641.4,78.58a73.19,73.19,0,0,1,18.84-10.8C660.23,67.89,660.22,68,660.22,68.1Zm43.23,143.54a19,19,0,0,1-3.68,6.27C701.75,214.25,703.27,211.91,703.45,211.64Z"/></g><g id="Capa_7" data-name="Capa 7"><polygon class="cls-5" points="797.47 632.68 889.62 612.93 870.82 503.85 662.06 518.89 655.48 641.14 797.47 632.68"/><path class="cls-6" d="M680.68,228.89s-74.47,3.17-85.3,73.56c0,0-26.17,61.1-30,81.47-3,15.73-4.94,25.32,14.35,30.73,12,3.35,29.86-10.21,41.55-20.4,36.21-31.59,38.39-67.85,42.71-83.91C672.43,278.87,689.12,236.14,680.68,228.89Z"/><path class="cls-7" d="M595.39,302.44s-26.17,61.1-30,81.47c-3,15.73-4.94,25.32,14.35,30.73,12,3.35,29.86-10.21,41.55-20.4,36.21-31.59,38.39-67.85,42.71-83.91C652.41,303.85,614.54,288,595.39,302.44Z"/><path class="cls-7" d="M697.25,229.43s21.33-1.34,22-21.37,0-33.73,0-33.73,11.44-21.45,34.48-21.45S788.89,157,788.89,157s.67,17.16,1.4,27.67c1.1,15.66,9.92,32.61,33.09,35.14,6.6.72-12.77,80.38-91.11,75.86C676.42,292.42,697.25,229.43,697.25,229.43Z"/><path class="cls-8" d="M894.07,326.17c-22.67,62.11-38.14,88.06-36.72,140.19,1.11,40.9,3.2,45.45,3.2,45.45l-191.21,5.86s-3.85-21.46-.58-55.7c2.69-28.12-19.27-123.87-16-152.05,7.26-63,35.57-76.53,35.57-76.53L718,215.1s-13.89,20.9-13.7,39.41c.2,19.47,19.32,34,44,34.36,45.6.64,63.6-36.89,64.88-57.12,1.08-17.07-14.58-24.6-14.58-24.6s35.93,8,53.92,12.29,43.94,16.17,43.94,16.17S916.74,264.06,894.07,326.17Z"/><path class="cls-9" d="M924.26,409.59s.09-65-3.78-91.18c0,0,10.88-29.36-1.13-65.32-3.16-9.45-18.52-27.34-33.77-26.82-29.31,1-36.91,49.35-36.26,75.52s-4.09,58.65,17.48,99.83c9.16,17.49,16.14,32.42,27,33.81S919.59,430.58,924.26,409.59Z"/><path class="cls-7" d="M924.26,409.59s.09-65-3.78-91.18c0,0-32.42-27.23-71.16-16.63.65,26.17-4.09,58.65,17.48,99.83,9.16,17.49,16.14,32.42,27,33.81S919.59,430.58,924.26,409.59Z"/><path class="cls-7" d="M572.23,442.53c-7-10.8-14.36-27-6.41-40.89s42.05-13.06,58.33,9.37c13.29,18.32,14.3,35.62,17.43,42.69,9.8,22.19,20.1,41.57,20.1,41.57s7.57,9.11,4.1,14.86c-2.63,4.36-19,7.54-19,7.54s-6.36,4.48-13.69-6.12S579.23,453.32,572.23,442.53Z"/><path class="cls-10" d="M775.81,135.29c21.67-4.1,83.63-32.84,52.37-64.48S631.63,59.2,643.45,108.63C652.7,147.28,754.14,139.38,775.81,135.29Z"/><polygon class="cls-5" points="856.63 553.47 870.92 503.43 652.41 508.99 670.8 553.47 856.63 553.47"/><path class="cls-11" d="M811.47,510S796.61,363.11,816,283.18c15.4-63.5,23.69-67,23.69-67l23.89,6.43s-16.27,28-25.12,73.18c-13.21,67.47-2.3,214.2-2.3,214.2Z"/><path class="cls-11" d="M705.22,513.85S679.7,363,684.29,304s24.63-84.42,24.63-84.42l-28.24,9.29s-17.91,30.81-20.85,90.23c-2.3,46.45,19,193.89,19,193.89Z"/><path class="cls-12" d="M803.07,112.48a117.58,117.58,0,0,0,3-30.59c-.79-15.72-6.13-26.33-6.13-26.33s-79.25-8-123.4,8.93c0,0-3.39,5-1.08,18.44a81.94,81.94,0,0,0,8,23.33L797.25,124Z"/><path class="cls-13" d="M797.89,131.63s-1.57-28.83-11.34-57.13c-.71-2-15.06-4.38-21.57-24.26,0,0-55.62,5.19-72.11,8.42C673.37,62.48,683.25,81,682.75,90c-1.17,21.22-1.82,50.67-2.07,66.25s20.51,29.14,53.25,38.94c0,0,44.27-15.89,55.89-29.71C789.83,165.48,801.44,157.27,797.89,131.63Z"/><path class="cls-7" d="M796.61,109.49s6.33-11.91,12.63-9.38c14.22,5.72,4.08,42.74-12.63,31.56Z"/><path class="cls-14" d="M751.76,110.57a7,7,0,0,0,9.43,1.55,6.14,6.14,0,0,0,1.64-8.88,7,7,0,0,0-9.42-1.55A6.14,6.14,0,0,0,751.76,110.57Z"/><path class="cls-15" d="M755.1,108.35a2.18,2.18,0,0,0,.58-3.15,2.5,2.5,0,0,0-3.35-.55,2.18,2.18,0,0,0-.58,3.15A2.5,2.5,0,0,0,755.1,108.35Z"/><path class="cls-14" d="M699.92,114.29a7,7,0,0,0,9.43,1.55A6.14,6.14,0,0,0,711,107a7,7,0,0,0-9.42-1.55A6.14,6.14,0,0,0,699.92,114.29Z"/><path class="cls-15" d="M703.27,112.07a2.18,2.18,0,0,0,.58-3.15,2.5,2.5,0,0,0-3.35-.55,2.18,2.18,0,0,0-.58,3.15A2.5,2.5,0,0,0,703.27,112.07Z"/><path class="cls-16" d="M741.51,90.18c12.07-5.1,24.6-3.38,29.69,1s.29-3.66-3.8-5.39c-9.79-4.13-17.82-3.29-24.49-.9C732,88.83,738.23,91.57,741.51,90.18Z"/><path class="cls-16" d="M709.49,93.85c-9.79-4.16-20-2.11-24.26,2.09s-.19-3.31,3.18-5c8-4.13,14.59-3.69,20-1.77C717.24,92.25,712.14,95,709.49,93.85Z"/><path class="cls-17" d="M729.21,136.36a1.5,1.5,0,0,1-.38-.2l-8.93-6.3a1.55,1.55,0,0,1,.88-2.82l16.69-.15a1.55,1.55,0,0,1,.93,2.8l-8.81,6.46A1.52,1.52,0,0,1,729.21,136.36Z"/><path class="cls-15" d="M708.47,151.45s7.89,0,22.47-.91c20.38-1.27,30.31-5.06,30.31-5.06s-13.87,14.39-31,14.8S708.47,151.45,708.47,151.45Z"/><path class="cls-11" d="M813.12,59.63S798,29.92,775.95,20.23s-58.51-7.46-62.57-6.73a50.43,50.43,0,0,0-33.73,22c-7,10.84-7.57,35.33-7.57,35.33s52.65-14.64,77.14-15.1S813.12,59.63,813.12,59.63Z"/><path class="cls-18" d="M730.5,5.28C727,4.06,714.71.16,711,0a4.49,4.49,0,0,0-3.68,1.17c-1.17,1.38-.57,3.63.77,4.85A12.1,12.1,0,0,0,713,8.23c16.74,5,29,20.29,36,36.3.88,2,3.74,1.43,5.3,3s4.16,2.3,6,1.08c2.56-1.71,1.87-5.6.88-8.51q-2.85-8.39-5.79-16.74S750.65,12.39,730.5,5.28Z"/><path class="cls-19" d="M751.35,47.42s-4-25.79-17.78-36.17c-5.72-4.31-20.11-9.18-25.79-9.18-2.59,0-12.2,7.79-17.36,14.43-5.35,6.88-2.72,39.06-2.72,39.06Z"/><path class="cls-20" d="M835.22,82.05s-10-34-106.87-23-84.17,49.71-84.17,49.71-18-51.51,78.11-63.44C830.65,31.86,835.22,82.05,835.22,82.05Z"/><ellipse class="cls-21" cx="707.55" cy="28.04" rx="13.34" ry="13.99"/><path class="cls-7" d="M910,403.82c-34.94-30.42-72.77-9.62-94.12,14.6-5.42,6.15-61.42,37-61.42,37s-10.37,2.42-7.3,10,10.17,12.87,10.17,12.87,1,11.85,12.65,8.32,114.79-34.94,130.07-40.66S923,415.08,910,403.82Z"/><path class="cls-7" d="M769.3,470.88s-1.35-12.74-10.06-17.2-18-5.29-26-8.8-9.12-5.53-9.12-5.53l-4.72,5.39s2.39,5.42,10.67,11.17c7,4.9,6.93,3.51,6.93,3.51s-19.58.78-32.85,4.91c-9.57,3-22.8,9.54-22.8,9.54l3.52,10.62-6.61,3.41,5.33,9.11,7.76-1.28,3.44,6.5,6.44-.6,2,3.37s17.75-4.49,27.45-3.38S773.89,492.65,769.3,470.88Z"/><path class="cls-22" d="M662.39,500.76s17.6,2.33,22.28,25.87,10.57,34.69,10.57,34.69l-7.61,5.45-15-22.54s-7,14.84-6.77,23.26-12.48,24.75-12.48,24.75L646.12,585l-3.5,4-8.08-8.82,3.34-6.93-3.78-6.36,1.9-11.1-4.73-5.68s3.46-13.1,5.37-23.87S641.13,495.62,662.39,500.76Z"/></g><g id="titulo"><path class="cls-15" d="M339.46,138.95v5.75H318.84v-5.75H326V123.62l-6.72,1.89v-6.13l9.32-3.23h4.2v22.81Z"/><path class="cls-15" d="M340.81,149.45l2.18-4.66a3.16,3.16,0,0,1-2.18-3.07,3.34,3.34,0,0,1,1.11-2.52,4,4,0,0,1,5.35,0,3.4,3.4,0,0,1,1.09,2.58,7.45,7.45,0,0,1-1.26,3.49l-2.52,4.2Z"/><path class="cls-15" d="M371.76,138.95v5.75H351.43v-3.36l8.69-10.54q.38-.42,1-1.18l.9-1.09.73-.88a7.26,7.26,0,0,0,.65-.86q.19-.31.4-.73a3.64,3.64,0,0,0,.29-.78,3.22,3.22,0,0,0,.08-.74,2.81,2.81,0,0,0-.78-2,3,3,0,0,0-2.33-.84,3.26,3.26,0,0,0-2.42.9,4,4,0,0,0-1.07,2.54h-6.76a9.71,9.71,0,0,1,2.75-7q2.67-2.65,7.45-2.65a11,11,0,0,1,7.62,2.54,8.05,8.05,0,0,1,2.83,6.24,7.48,7.48,0,0,1-1.24,4,61.68,61.68,0,0,1-4.64,6.07l-3.86,4.62Z"/><path class="cls-15" d="M374.66,149.45l2.18-4.66a3.16,3.16,0,0,1-2.18-3.07,3.34,3.34,0,0,1,1.11-2.52,4,4,0,0,1,5.35,0,3.4,3.4,0,0,1,1.09,2.58,7.45,7.45,0,0,1-1.26,3.49l-2.52,4.2Z"/><path class="cls-15" d="M402.67,130.34a6.55,6.55,0,0,1,3.61,6.09,8,8,0,0,1-3,6.43,11.82,11.82,0,0,1-7.81,2.48q-4.87,0-7.56-2.39a10.07,10.07,0,0,1-3.19-6.59h6.59a4.36,4.36,0,0,0,1.39,2.44,4.71,4.71,0,0,0,3.07.84,4.27,4.27,0,0,0,2.81-.9,2.95,2.95,0,0,0-.11-4.66,4.92,4.92,0,0,0-3-.9H393v-5.21h2.48a4,4,0,0,0,2.73-.92,3,3,0,0,0,1-2.35,3.07,3.07,0,0,0-.95-2.35,3.58,3.58,0,0,0-2.54-.88,3.83,3.83,0,0,0-2.62.9,3.61,3.61,0,0,0-1.2,2.42h-6.59a9.1,9.1,0,0,1,3-6.55,10.47,10.47,0,0,1,7.2-2.44,10.64,10.64,0,0,1,7.25,2.39,7.9,7.9,0,0,1,2.75,6.26A6.85,6.85,0,0,1,402.67,130.34Z"/><path class="cls-15" d="M152.17,163.52v7.07h17.16v8.21H152.17v6.73h19.66v8.38h-29.3V155.15h29.3v8.38Z"/><path class="cls-15" d="M221.65,155.15v38.76H212V174.47l-8.61,13.28v.06h-5.36v-.06l-8.66-13.4.06,19.55h-9.63V155.15h7.13l13.79,20.69,13.74-20.69Z"/><path class="cls-15" d="M240.64,163.52v7.07h17.16v8.21H240.64v6.73H260.3v8.38H231V155.15h29.3v8.38Z"/><path class="cls-15" d="M283.9,182.68h-6v11.23h-9.63V155.15h17q7.24,0,11.63,3.68a12.3,12.3,0,0,1,4.39,9.95,13,13,0,0,1-7.41,12l10,13.11H292.22Zm-6-8.66H285a7.63,7.63,0,0,0,4.76-1.45,4.55,4.55,0,0,0,1.91-3.79,4.42,4.42,0,0,0-1.91-3.7,7.74,7.74,0,0,0-4.76-1.43h-7.12Z"/><path class="cls-15" d="M348.42,172.13v21.77h-7.18l-.4-4.67q-4.45,5.47-12.25,5.47-9,0-14.82-5.67A18.91,18.91,0,0,1,308,174.92a19.83,19.83,0,0,1,5.9-14.79,20.34,20.34,0,0,1,14.85-5.79,21.16,21.16,0,0,1,12.71,3.9A16.12,16.12,0,0,1,348,168.94H337.93q-2.17-5.76-9.06-5.76a10.76,10.76,0,0,0-8.07,3.19,11.43,11.43,0,0,0-3.11,8.32A10.78,10.78,0,0,0,329,185.75a10.23,10.23,0,0,0,9.8-5.93l-11.12-.11v-7.58Z"/><path class="cls-15" d="M368.2,163.52v7.07h17.16v8.21H368.2v6.73h19.67v8.38h-29.3V155.15h29.3v8.38Z"/><path class="cls-15" d="M431.53,155.15v38.76h-7.47l-18.58-21.26v21.26h-9.63V155.15h7.35L421.89,177V155.15Z"/><path class="cls-15" d="M460.37,185.7a9.58,9.58,0,0,0,6.33-2.08,10,10,0,0,0,3.31-5.79h9.86a18.58,18.58,0,0,1-6.21,12.23,19.34,19.34,0,0,1-13.22,4.65A20.14,20.14,0,0,1,445.78,189a20.72,20.72,0,0,1,0-28.9,20.14,20.14,0,0,1,14.65-5.73A19.34,19.34,0,0,1,473.65,159a18.59,18.59,0,0,1,6.21,12.23H470a10,10,0,0,0-3.31-5.79,9.58,9.58,0,0,0-6.33-2.08,10.15,10.15,0,0,0-7.72,3.16,12.21,12.21,0,0,0,0,16A10.16,10.16,0,0,0,460.37,185.7Z"/><path class="cls-15" d="M497.93,155.15v38.76H488.3V155.15Z"/><path class="cls-15" d="M533.78,187.24H517.37l-2.56,6.67H504.54l16.47-39h9.18l16.42,39h-10.2ZM530.59,179l-5-12.88-5,12.88Z"/><path class="cls-15" d="M566.56,154.29a23.5,23.5,0,0,1,5.16.57,20.54,20.54,0,0,1,5.07,1.91,11.51,11.51,0,0,1,4.28,4,13.89,13.89,0,0,1,2.08,6.38h-9.69q-.86-4.9-6.27-4.9a7,7,0,0,0-4,1,3.26,3.26,0,0,0-1.51,2.85,2.72,2.72,0,0,0,1.08,2.34,9.21,9.21,0,0,0,3.36,1.31l5.42,1.25q5.76,1.25,8.72,3.79a9,9,0,0,1,3,7.27,11,11,0,0,1-4.39,9.21q-4.39,3.39-11.68,3.39a20.28,20.28,0,0,1-12-3.45q-4.9-3.45-5.53-10.23h9.63a5.92,5.92,0,0,0,2.59,4,9.7,9.7,0,0,0,5.56,1.45,7.49,7.49,0,0,0,4.08-.91,2.85,2.85,0,0,0,1.4-2.51q0-2.51-4.1-3.31l-6.38-1.42q-5.76-1.25-8.49-4a10,10,0,0,1-2.74-7.38,11.26,11.26,0,0,1,4.25-9.21Q559.66,154.29,566.56,154.29Z"/></g><g id="boton"><rect class="cls-23" x="315.79" y="430.46" width="168.21" height="50.42" rx="22.22" ry="22.22"/><circle class="cls-24" cx="263.5" cy="454.64" r="25.5"/><path class="cls-15" d="M274.6,453.23q-2.46-6.12-13.28-6.12h-3.4v-3.89a1,1,0,0,0-1.65-.68l-7.77,7.77a1,1,0,0,0,0,1.37l7.77,7.77a1,1,0,0,0,1.65-.68v-3.89h3.4q1.49,0,2.66.09a19.2,19.2,0,0,1,2.34.33,8.68,8.68,0,0,1,2,.65,7.15,7.15,0,0,1,1.6,1.05,5.29,5.29,0,0,1,1.21,1.53,8.26,8.26,0,0,1,.74,2.1,12.93,12.93,0,0,1,.27,2.75q0,.83-.08,1.87a3.11,3.11,0,0,1,0,.36,3.12,3.12,0,0,0,0,.4.57.57,0,0,0,.13.38.44.44,0,0,0,.36.15.52.52,0,0,0,.42-.26,1.74,1.74,0,0,0,.2-.33l.2-.46.16-.36a18.22,18.22,0,0,0,1.93-6.85A13.82,13.82,0,0,0,274.6,453.23Z"/></g></g></g></svg>