<?xml version="1.0" encoding="utf-8"?>
<!-- Generator: Adobe Illustrator 21.1.0, SVG Export Plug-In . SVG Version: 6.00 Build 0)  -->
<svg version="1.1" id="Capa_1" xmlns="http://www.w3.org/2000/svg" xmlns:xlink="http://www.w3.org/1999/xlink" x="0px" y="0px"
	 viewBox="0 0 925 641.1" style="enable-background:new 0 0 925 641.1;" xml:space="preserve">
<style type="text/css">
	.st0{fill:url(#SVGID_1_);}
	.st1{fill:#FF0000;}
	.st2{opacity:0.38;enable-background:new    ;}
	.st3{fill:#8C0000;}
	.st4{fill:#A6B3BA;}
	.st5{fill:#DAA284;}
	.st6{fill:#C3CCD1;}
	.st7{fill:#DAE1E5;}
	.st8{fill:#47342B;}
	.st9{fill:#C61212;}
	.st10{fill:#140D0B;}
	.st11{fill:#EFB49A;}
	.st12{fill:#383D46;}
	.st13{fill:#FFFFFF;}
	.st14{fill:#57453F;}
	.st15{fill:#FC8080;}
	.st16{fill:#B21010;}
	.st17{fill:#E24B44;}
	.st18{fill:#E51C1C;}
	.st19{fill:#FFC33E;}
	.st20{fill:#E8AF95;}
</style>
<title>emergencia</title>
<g>
	<g id="Capa_2">
		<g id="cuadro">
			
				<linearGradient id="SVGID_1_" gradientUnits="userSpaceOnUse" x1="0.11" y1="386.055" x2="906" y2="386.055" gradientTransform="matrix(1 0 0 -1 0 644)">
				<stop  offset="0.14" style="stop-color:#AA1C00"/>
				<stop  offset="0.26" style="stop-color:#A41B00"/>
				<stop  offset="0.41" style="stop-color:#941700"/>
				<stop  offset="0.59" style="stop-color:#781200"/>
				<stop  offset="0.78" style="stop-color:#520A00"/>
				<stop  offset="0.91" style="stop-color:#330300"/>
			</linearGradient>
			<path class="st0" d="M42.5,52.6h663.5c23.4,0,42.4,19,42.4,42.4v325.8c0,23.4-19,42.4-42.4,42.4H42.5c-23.4,0-42.4-19-42.4-42.4
				V95.1C0.1,71.6,19.1,52.6,42.5,52.6z"/>
			<path class="st1" d="M607.3,170.1H770c2.6,0,4.7,2.1,4.7,4.7v0.7c0,2.6-2.1,4.7-4.7,4.7H607.3c-2.6,0-4.7-2.1-4.7-4.7v-0.7
				C602.6,172.2,604.7,170.1,607.3,170.1z"/>
			<path class="st1" d="M123.9,169.2H0v11h123.9c2.8,0,5.1-2.3,5.1-5.1v-0.7C129,171.6,126.7,169.3,123.9,169.2z"/>
		</g>
		<g id="Capa_6">
			<path class="st2" d="M627.1,450.2c-3.1-7.1-4.1-24.4-17.4-42.7c-2.9-4-6.5-7.5-10.7-10.3c2.8-2.2,5.4-4.4,7.8-6.4
				c15.1-13,26.7-29.6,33.5-48.4c5,40,15.9,95.7,14,116.1c-0.1,1.2-0.2,2.4-0.3,3.6h52.1c23.4-0.1,42.4-19,42.4-42.4V93.8
				c-0.1-23.4-19-42.4-42.5-42.4h-47c-0.2,1.2-0.4,2.4-0.5,3.5c-27.9,13.7-30.8,33-30.1,43.3c-0.2,2.3,0,4.6,0.5,6.9
				c3.3,13.9,18.5,21.8,37.7,26c-0.2,8.4-0.3,15.9-0.4,21.7c-0.2,13.1,14.5,24.8,38.8,34.1c0,5-0.1,11-0.3,17.7
				c-0.1,2.4-0.5,4.8-1.3,7.1l-10.3,6.4c0.8-1.3,1.3-1.9,1.3-1.9l-28.2,9.3c0,0-74.5,3.2-85.3,73.6c0,0-26.2,61.1-30,81.5
				c-1.6,8.4-2.9,15.1-0.8,20.3c-5.8,13.3,1.1,28.2,7.7,38.3c2.6,4,10.4,12.8,19.7,23h55C630.7,458.3,628.9,454.3,627.1,450.2z
				 M660.2,68.1c-6.7,2.7-13,6.2-18.8,10.5c5.7-4.5,12.1-8.2,18.8-10.8C660.2,67.9,660.2,68,660.2,68.1z M703.4,211.6
				c-0.8,2.3-2.1,4.4-3.7,6.3C701.8,214.2,703.3,211.9,703.4,211.6L703.4,211.6z"/>
		</g>
		<g id="Capa_7">
			<polygon class="st3" points="797.5,632.7 889.6,612.9 870.8,503.9 662.1,518.9 655.5,641.1 			"/>
			<path class="st4" d="M680.7,228.9c0,0-74.5,3.2-85.3,73.6c0,0-26.2,61.1-30,81.5c-3,15.7-4.9,25.3,14.3,30.7
				c12,3.4,29.9-10.2,41.5-20.4c36.2-31.6,38.4-67.9,42.7-83.9C672.4,278.9,689.1,236.1,680.7,228.9z"/>
			<path class="st5" d="M595.4,302.4c0,0-26.2,61.1-30,81.5c-3,15.7-4.9,25.3,14.3,30.7c12,3.4,29.9-10.2,41.5-20.4
				c36.2-31.6,38.4-67.9,42.7-83.9C652.4,303.9,614.5,288,595.4,302.4z"/>
			<path class="st5" d="M697.2,229.4c0,0,21.3-1.3,22-21.4s0-33.7,0-33.7s11.4-21.4,34.5-21.4s35.2,4.1,35.2,4.1s0.7,17.2,1.4,27.7
				c1.1,15.7,9.9,32.6,33.1,35.1c6.6,0.7-12.8,80.4-91.1,75.9C676.4,292.4,697.2,229.4,697.2,229.4z"/>
			<path class="st6" d="M894.1,326.2c-22.7,62.1-38.1,88.1-36.7,140.2c1.1,40.9,3.2,45.5,3.2,45.5l-191.2,5.9c0,0-3.8-21.5-0.6-55.7
				c2.7-28.1-19.3-123.9-16-152c7.3-63,35.6-76.5,35.6-76.5l29.7-18.3c0,0-13.9,20.9-13.7,39.4c0.2,19.5,19.3,34,44,34.4
				c45.6,0.6,63.6-36.9,64.9-57.1c1.1-17.1-14.6-24.6-14.6-24.6s35.9,8,53.9,12.3s43.9,16.2,43.9,16.2S916.7,264.1,894.1,326.2z"/>
			<path class="st7" d="M924.3,409.6c0,0,0.1-65-3.8-91.2c0,0,10.9-29.4-1.1-65.3c-3.2-9.4-18.5-27.3-33.8-26.8
				c-29.3,1-36.9,49.4-36.3,75.5s-4.1,58.6,17.5,99.8c9.2,17.5,16.1,32.4,27,33.8S919.6,430.6,924.3,409.6z"/>
			<path class="st5" d="M924.3,409.6c0,0,0.1-65-3.8-91.2c0,0-32.4-27.2-71.2-16.6c0.7,26.2-4.1,58.6,17.5,99.8
				c9.2,17.5,16.1,32.4,27,33.8S919.6,430.6,924.3,409.6z"/>
			<path class="st5" d="M572.2,442.5c-7-10.8-14.4-27-6.4-40.9s42-13.1,58.3,9.4c13.3,18.3,14.3,35.6,17.4,42.7
				c9.8,22.2,20.1,41.6,20.1,41.6s7.6,9.1,4.1,14.9c-2.6,4.4-19,7.5-19,7.5s-6.4,4.5-13.7-6.1S579.2,453.3,572.2,442.5z"/>
			<path class="st8" d="M775.8,135.3c21.7-4.1,83.6-32.8,52.4-64.5s-196.5-11.6-184.7,37.8C652.7,147.3,754.1,139.4,775.8,135.3z"/>
			<polygon class="st3" points="856.6,553.5 870.9,503.4 652.4,509 670.8,553.5 			"/>
			<path class="st9" d="M811.5,510c0,0-14.9-146.9,4.5-226.8c15.4-63.5,23.7-67,23.7-67l23.9,6.4c0,0-16.3,28-25.1,73.2
				c-13.2,67.5-2.3,214.2-2.3,214.2L811.5,510z"/>
			<path class="st9" d="M705.2,513.8c0,0-25.5-150.8-20.9-209.8s24.6-84.4,24.6-84.4l-28.2,9.3c0,0-17.9,30.8-20.8,90.2
				c-2.3,46.5,19,193.9,19,193.9L705.2,513.8z"/>
			<path class="st10" d="M803.1,112.5c2.3-10,3.3-20.3,3-30.6c-0.8-15.7-6.1-26.3-6.1-26.3s-79.2-8-123.4,8.9c0,0-3.4,5-1.1,18.4
				c1.5,8.1,4.2,16,8,23.3L797.2,124L803.1,112.5z"/>
			<path class="st11" d="M797.9,131.6c0,0-1.6-28.8-11.3-57.1c-0.7-2-15.1-4.4-21.6-24.3c0,0-55.6,5.2-72.1,8.4
				c-19.5,3.8-9.6,22.3-10.1,31.3c-1.2,21.2-1.8,50.7-2.1,66.2s20.5,29.1,53.2,38.9c0,0,44.3-15.9,55.9-29.7
				C789.8,165.5,801.4,157.3,797.9,131.6z"/>
			<path class="st5" d="M796.6,109.5c0,0,6.3-11.9,12.6-9.4c14.2,5.7,4.1,42.7-12.6,31.6V109.5z"/>
			<path class="st12" d="M751.8,110.6c2.2,2.9,6.4,3.6,9.4,1.6c2.9-1.8,3.7-5.6,1.9-8.5c-0.1-0.1-0.2-0.3-0.3-0.4
				c-2.2-2.9-6.4-3.6-9.4-1.6c-2.9,1.8-3.7,5.6-1.9,8.5C751.6,110.3,751.7,110.4,751.8,110.6z"/>
			<path class="st13" d="M755.1,108.3c1-0.6,1.3-2,0.7-3c0,0-0.1-0.1-0.1-0.1c-0.8-1-2.3-1.3-3.3-0.6c-1,0.6-1.3,2-0.7,3
				c0,0,0.1,0.1,0.1,0.1C752.6,108.8,754,109.1,755.1,108.3z"/>
			<path class="st12" d="M699.9,114.3c2.2,2.9,6.4,3.6,9.4,1.6c2.9-1.8,3.7-5.6,1.9-8.5c-0.1-0.1-0.2-0.2-0.3-0.4
				c-2.2-2.9-6.4-3.6-9.4-1.6c-2.9,1.8-3.7,5.6-1.9,8.5C699.7,114,699.8,114.2,699.9,114.3z"/>
			<path class="st13" d="M703.3,112.1c1-0.6,1.3-2,0.7-3c0,0-0.1-0.1-0.1-0.1c-0.8-1-2.3-1.3-3.3-0.6c-1,0.6-1.3,2-0.7,3
				c0,0,0.1,0.1,0.1,0.1C700.7,112.5,702.2,112.8,703.3,112.1z"/>
			<path class="st14" d="M741.5,90.2c12.1-5.1,24.6-3.4,29.7,1s0.3-3.7-3.8-5.4c-9.8-4.1-17.8-3.3-24.5-0.9
				C732,88.8,738.2,91.6,741.5,90.2z"/>
			<path class="st14" d="M709.5,93.8c-9.8-4.2-20-2.1-24.3,2.1s-0.2-3.3,3.2-5c8-4.1,14.6-3.7,20-1.8
				C717.2,92.2,712.1,95,709.5,93.8z"/>
			<path class="st15" d="M729.2,136.4c-0.1,0-0.3-0.1-0.4-0.2l-8.9-6.3c-0.7-0.5-0.9-1.5-0.4-2.2c0.3-0.4,0.8-0.7,1.3-0.7l16.7-0.2
				c0.9,0,1.6,0.7,1.6,1.5c0,0.5-0.2,1-0.6,1.3l-8.8,6.5C729.5,136.2,729.3,136.3,729.2,136.4z"/>
			<path class="st13" d="M708.5,151.4c0,0,7.9,0,22.5-0.9c20.4-1.3,30.3-5.1,30.3-5.1s-13.9,14.4-31,14.8S708.5,151.4,708.5,151.4z"
				/>
			<path class="st9" d="M813.1,59.6c0,0-15.1-29.7-37.2-39.4s-58.5-7.5-62.6-6.7c-13.8,2.3-26,10.3-33.7,22
				c-7,10.8-7.6,35.3-7.6,35.3s52.7-14.6,77.1-15.1S813.1,59.6,813.1,59.6z"/>
			<path class="st16" d="M730.5,5.3C727,4.1,714.7,0.2,711,0c-1.3-0.2-2.7,0.2-3.7,1.2c-1.2,1.4-0.6,3.6,0.8,4.8
				c1.4,1.1,3.1,1.9,4.9,2.2c16.7,5,29,20.3,36,36.3c0.9,2,3.7,1.4,5.3,3s4.2,2.3,6,1.1c2.6-1.7,1.9-5.6,0.9-8.5
				c-1.9-5.6-3.8-11.2-5.8-16.7C752.5,15,750.7,12.4,730.5,5.3z"/>
			<path class="st17" d="M751.3,47.4c0,0-4-25.8-17.8-36.2c-5.7-4.3-20.1-9.2-25.8-9.2c-2.6,0-12.2,7.8-17.4,14.4
				c-5.3,6.9-2.7,39.1-2.7,39.1L751.3,47.4z"/>
			<path class="st18" d="M835.2,82.1c0,0-10-34-106.9-23s-84.2,49.7-84.2,49.7s-18-51.5,78.1-63.4C830.7,31.9,835.2,82.1,835.2,82.1
				z"/>
			<ellipse class="st19" cx="707.5" cy="28" rx="13.3" ry="14"/>
			<path class="st5" d="M910,403.8c-34.9-30.4-72.8-9.6-94.1,14.6c-5.4,6.1-61.4,37-61.4,37s-10.4,2.4-7.3,10s10.2,12.9,10.2,12.9
				s1,11.9,12.7,8.3s114.8-34.9,130.1-40.7S923,415.1,910,403.8z"/>
			<path class="st5" d="M769.3,470.9c0,0-1.3-12.7-10.1-17.2s-18-5.3-26-8.8s-9.1-5.5-9.1-5.5l-4.7,5.4c0,0,2.4,5.4,10.7,11.2
				c7,4.9,6.9,3.5,6.9,3.5s-19.6,0.8-32.8,4.9c-9.6,3-22.8,9.5-22.8,9.5l3.5,10.6l-6.6,3.4l5.3,9.1l7.8-1.3l3.4,6.5l6.4-0.6l2,3.4
				c0,0,17.8-4.5,27.5-3.4S773.9,492.6,769.3,470.9z"/>
			<path class="st20" d="M662.4,500.8c0,0,17.6,2.3,22.3,25.9c4.7,23.5,10.6,34.7,10.6,34.7l-7.6,5.5l-15-22.5c0,0-7,14.8-6.8,23.3
				s-12.5,24.8-12.5,24.8l-7.3-7.2l-3.5,4l-8.1-8.8l3.3-6.9l-3.8-6.4l1.9-11.1l-4.7-5.7c0,0,3.5-13.1,5.4-23.9
				S641.1,495.6,662.4,500.8z"/>
		</g>
	</g>
</g>
</svg>
