<?xml version="1.0" encoding="utf-8"?>
<!-- Generator: Adobe Illustrator 21.1.0, SVG Export Plug-In . SVG Version: 6.00 Build 0)  -->
<svg version="1.1" id="Capa_1" xmlns="http://www.w3.org/2000/svg" xmlns:xlink="http://www.w3.org/1999/xlink" x="0px" y="0px"
	 viewBox="0 0 970.7 608" style="enable-background:new 0 0 970.7 608;" xml:space="preserve">
<style type="text/css">
	.st0{fill:none;}
	.st1{fill:#1D1D1B;}
	.st2{fill:url(#SVGID_1_);}
	.st3{clip-path:url(#SVGID_3_);}
	.st4{fill:url(#SVGID_4_);}
	.st5{fill:#BFBFBF;}
	.st6{opacity:0.48;}
	.st7{clip-path:url(#SVGID_6_);}
	.st8{fill:#DAA284;}
	.st9{fill:#728CFC;}
	.st10{fill:#70706F;}
	.st11{fill:#EFB49A;}
	.st12{fill:#383D46;}
	.st13{fill:#FFFFFF;}
	.st14{fill:#57453F;}
	.st15{fill:#FC8080;}
	.st16{fill:#0A0A0A;}
	.st17{fill:#C6C6C6;}
	.st18{fill:#898989;}
	.st19{fill:#7813E2;}
</style>
<pattern  y="608" width="28.8" height="28.8" patternUnits="userSpaceOnUse" id="_10_ppp_60_" viewBox="4.3 -33.1 28.8 28.8" style="overflow:visible;">
	<g>
		<rect x="4.3" y="-33.1" class="st0" width="28.8" height="28.8"/>
		<rect x="4.3" y="-33.1" class="st0" width="28.8" height="28.8"/>
		<circle class="st1" cx="33.1" cy="-33.1" r="4.3"/>
		<circle class="st1" cx="18.7" cy="-33.1" r="4.3"/>
		<circle class="st1" cx="33.1" cy="-18.7" r="4.3"/>
		<circle class="st1" cx="18.7" cy="-18.7" r="4.3"/>
		<circle class="st1" cx="11.5" cy="-25.9" r="4.3"/>
		<circle class="st1" cx="25.9" cy="-25.9" r="4.3"/>
		<circle class="st1" cx="11.5" cy="-11.5" r="4.3"/>
		<circle class="st1" cx="25.9" cy="-11.5" r="4.3"/>
		<circle class="st1" cx="4.3" cy="-33.1" r="4.3"/>
		<circle class="st1" cx="4.3" cy="-18.7" r="4.3"/>
		<circle class="st1" cx="33.1" cy="-4.3" r="4.3"/>
		<circle class="st1" cx="18.7" cy="-4.3" r="4.3"/>
		<circle class="st1" cx="4.3" cy="-4.3" r="4.3"/>
	</g>
</pattern>
<title>museo</title>
<g>
	<g id="Capa_2">
		<g id="cuadro">
			
				<linearGradient id="SVGID_1_" gradientUnits="userSpaceOnUse" x1="71.07" y1="333.195" x2="976.97" y2="333.195" gradientTransform="matrix(1 0 0 -1 0 610)">
				<stop  offset="0.39" style="stop-color:#6649B9"/>
				<stop  offset="0.5" style="stop-color:#6443B8"/>
				<stop  offset="0.64" style="stop-color:#5E33B3"/>
				<stop  offset="0.8" style="stop-color:#5417AD"/>
				<stop  offset="0.92" style="stop-color:#4B00A7"/>
			</linearGradient>
			<path class="st2" d="M113.5,71.5H777c23.4,0,42.4,19,42.4,42.4v325.8c0,23.4-19,42.4-42.4,42.4H113.5c-23.4,0-42.4-19-42.4-42.4
				V113.9C71.1,90.5,90.1,71.5,113.5,71.5z"/>
			<g>
				<defs>
					<path id="SVGID_2_" d="M113.5,71.3H777c23.4,0,42.4,19,42.4,42.4v325.8c0,23.4-19,42.4-42.4,42.4H113.5
						c-23.4,0-42.4-19-42.4-42.4V113.7C71.1,90.3,90.1,71.3,113.5,71.3z"/>
				</defs>
				<clipPath id="SVGID_3_">
					<use xlink:href="#SVGID_2_"  style="overflow:visible;"/>
				</clipPath>
				<g class="st3">
					<pattern  id="SVGID_4_" xlink:href="#_10_ppp_60_" patternTransform="matrix(0.61 0 0 -0.55 -3034.1951 -12464.8965)">
					</pattern>
					<rect y="71" class="st4" width="970.7" height="486.5"/>
				</g>
			</g>
			<path class="st5" d="M571.3,188.9h307.7c2.6,0,4.7,2.1,4.7,4.7v0.7c0,2.6-2.1,4.7-4.7,4.7H571.3c-2.6,0-4.7-2.1-4.7-4.7v-0.7
				C566.5,191.1,568.7,188.9,571.3,188.9z"/>
			<path class="st5" d="M282.9,188.1H71v11h211.9c2.8,0,5.1-2.3,5.1-5.1v-0.7C288,190.4,285.7,188.1,282.9,188.1
				C282.9,188.1,282.9,188.1,282.9,188.1z"/>
		</g>
		<g id="personaje">
			<g class="st6">
				<g>
					<defs>
						<path id="SVGID_5_" d="M113.5,70.3H777c23.4,0,42.4,19,42.4,42.4v325.8c0,23.4-19,42.4-42.4,42.4H113.5
							c-23.4,0-42.4-19-42.4-42.4V112.7C71.1,89.3,90.1,70.3,113.5,70.3z"/>
					</defs>
					<clipPath id="SVGID_6_">
						<use xlink:href="#SVGID_5_"  style="overflow:visible;"/>
					</clipPath>
					<g class="st7">
						<path d="M944.6,432.2c-0.3-0.4-0.6-0.7-0.9-1l-9.7-99.4c0.4-25.9-21.8-24.5-21.8-24.5c-1.2,0.2-2.3,0.7-3.3,1.3l-51.2-17.6
							l-9.1-13.3l-1.8-14.5c10.1-4.3,19.7-9.4,28.9-15.4c0,0,21.7-16.1,21.4-47.1c17.6,13.2,30.5-22.8,19.3-35.5
							c20.7-27.8-1.4-81.5-1.4-81.5c-26.5-50.6-68.1-37.4-79.2-32.7c-6.6-2.9-37.1-14.2-65,6.8c0,0-34.5,29.4-13.7,76.5
							c0,0,0.3-1.7,1.1-4.4c-0.1,1.2-0.1,2.1-0.2,2.8c-4,26.4-2.8,60.3-5,79.7s29.5,50.9,48.4,56.4c0,0,5.3,2.7,16.5,1.9l1.1,8.9
							l-0.4-1.2L806,290.2l-57.4,11.4l-0.2,3c-4.7,0.7-8.4,4.2-9.4,8.8l-35.6,68.1L681.2,286c-3-10.2-7.5-12.9-10.7-13.4l-0.5-2.8
							c0-0.2-0.1-0.3-0.1-0.5c3.1-2.6,7-7,7.9-12.9c1.5-10.1-0.3-19.5,0.5-28.5s2.3-10.9,2.3-10.9l-5.9-2.8c0,0-3,3.1-5.5,10.4V4.9
							c0-2.1-1.7-3.9-3.8-4V0.5L563,0l23,16.4l-24.5,19.1h99.6v180.5l-0.4-0.1l-0.3-1.1l-2.1,0.3c-5.5-1.8-13-4.3-14.9-5l-5.1,35.1
							l6.6,10.3l3.4,0.1c0.5,4.9,1.3,10.3,3.1,14.1c-0.3,1.5-0.3,3,0,4.5l0.5,2.9c-11.7,6.4-5.3,17-5.3,17l32.7,134.7
							c0.1,0.6,0.2,1.2,0.3,1.8c-0.2,2.2,0.3,4.3,1.5,6.1c6.4,20.4,20.4,13,20.4,13c3.1-1,6-2.5,8.6-4.5c2-0.9,3.6-2.3,4.7-4.1
							l28.1-55.9l-5.8,89.1l-14.4,95.4c-5.3,7.1-10.2,14.8-10.2,14.8l7,5.8l-1,6.8l-0.8,1.4l0.6,0.3l-0.8,4.9l54,2.8L814,608h84.4
							l2.3-122.6l29.1-21.2C956.4,449.3,944.6,432.2,944.6,432.2z M905.5,430.1l0.9,8.5l-1.8,1.2L905.5,430.1z"/>
					</g>
				</g>
			</g>
		</g>
		<g id="Capa_7">
			<path class="st8" d="M675.2,241.3c0,0-1.1,0.6,1.1-7.7c2.6-9.8,6.5-13.8,6.5-13.8l5.7,2.7c0,0-1.4,1.8-2.2,10.5
				s0.9,17.8-0.5,27.5s-11.6,15.3-11.6,15.3c-16.8,11.6-16.1-15-17.7-24.6l2.3-14.5l4.2-15.4l6.1-0.9L675.2,241.3z"/>
			<path class="st8" d="M675.5,309.5L675.5,309.5c-4.9,1.2-9.8-2.5-10.8-8.1l-4.3-23.6c-1-5.7,2.1-11.3,7-12.5l0,0
				c4.9-1.2,9.8,2.5,10.8,8.1l4.4,23.6C683.6,302.6,680.5,308.2,675.5,309.5z"/>
			<path class="st9" d="M765.5,308.9c0,0,19.1,9.8,6,31.1l-49.7,98.8c0,0-6.6,12.8-29-1.5c0,0-9.2-2.3-3-16.2l55.2-105.6
				C744.9,315.5,747.3,301.7,765.5,308.9z"/>
			<path class="st9" d="M708.8,447.1c0,0-16.8,8.9-21.5-20.1l-31.6-130.1c0,0-10-16.7,19-20.4c0,0,9.3-4.7,14.4,12.4L721,425.9
				C721,425.9,729.1,440.1,708.8,447.1z"/>
			<polygon class="st10" points="844.5,288.9 917.2,313.8 901.2,473.6 898.8,600 817.3,600 776.6,598.5 724.4,595.8 743.2,470.8 
				754.2,304.1 822.1,290.6 			"/>
			<path class="st9" d="M912.2,309.7c0,0,21.5-1.4,21.1,23.6L944,442.9c0,0,0.9,14.4-25.7,13.6c0,0-9.1,2.7-10.9-12.3l-6.5-62
				C900.9,382.2,892.9,312.9,912.2,309.7z"/>
			<path class="st8" d="M833.1,305.1l7.8-5.1c6.6-0.8,11.2-6.8,10.4-13.3l-5.1-41.7c-0.8-6.5-6.7-11.2-13.3-10.4l-4.7,0.6
				c-6.6,0.8-11.2,6.8-10.4,13.3l5.1,41.7C823.7,296.6,826.5,305.9,833.1,305.1z"/>
			<path class="st11" d="M897.5,204.7c0,0,6.3-30.1-2.3-65.4c-0.6-2.6,6.6-34.3-10.5-51.4c0,0-18.4-12.2-38.3-16.7
				c-89.2-20.2-81.4,59.2-83.1,70c-3.9,25.5-2.8,58.2-4.8,77s28.5,49.2,46.7,54.5c0,0,22.4,11.3,71.7-20.2
				C876.8,252.4,898.8,236,897.5,204.7z"/>
			<path class="st12" d="M844.2,173.9c2.4,3.8,7.3,5.1,11.2,3c3.7-1.9,5.1-6.3,3.3-10c-0.1-0.2-0.2-0.4-0.3-0.5
				c-2.4-3.8-7.3-5.1-11.2-3c-3.7,1.9-5.1,6.3-3.3,10C844,173.6,844.1,173.8,844.2,173.9z"/>
			<path class="st13" d="M848.5,171.6c1.3-0.7,1.8-2.3,1.2-3.6c0-0.1-0.1-0.1-0.1-0.2c-0.9-1.3-2.6-1.8-4-1
				c-1.3,0.7-1.8,2.3-1.2,3.6c0,0.1,0.1,0.1,0.1,0.2C845.3,172,847.1,172.4,848.5,171.6z"/>
			<path class="st12" d="M776.9,172.4c2.4,3.8,7.3,5.1,11.2,3c3.7-1.9,5.1-6.3,3.3-10c-0.1-0.2-0.2-0.4-0.3-0.5
				c-2.4-3.8-7.3-5.1-11.2-3c-3.7,1.9-5.1,6.3-3.3,10C776.7,172.1,776.8,172.3,776.9,172.4z"/>
			<path class="st13" d="M781.2,170.2c1.3-0.7,1.8-2.3,1.2-3.6c0-0.1-0.1-0.1-0.1-0.2c-0.9-1.3-2.6-1.8-4-1
				c-1.3,0.7-1.8,2.3-1.2,3.6c0,0.1,0.1,0.1,0.1,0.2C778,170.5,779.8,170.9,781.2,170.2z"/>
			<path class="st14" d="M848.3,150.8c10.2-1.9,19.3,2.8,22.2,8.2s1-3.4-1.8-6.1c-6.6-6.3-12.8-7.5-18.3-6.9
				C841.4,147.2,845.5,151.4,848.3,150.8z"/>
			<path class="st14" d="M790.6,145.2c-10.3-1-19,4.5-21.4,10.2s-1.3-3.3,1.2-6.2c6-6.9,12.1-8.6,17.6-8.5
				C797.2,141,793.4,145.4,790.6,145.2z"/>
			<path class="st15" d="M812.7,213c-0.2-0.1-0.3-0.2-0.4-0.3l-10.1-8.6c-0.8-0.7-0.9-1.9-0.2-2.7c0.4-0.5,1-0.7,1.6-0.6l20.2,1.7
				c1,0.1,1.8,1,1.7,2c-0.1,0.6-0.4,1.1-0.9,1.5l-11.4,6.8C813,212.9,812.8,213,812.7,213z"/>
			<path class="st16" d="M801.5,226h20c0,0,0,6.7-11.8,6.7C801.4,232.7,801.5,226,801.5,226z"/>
			<path class="st9" d="M850.2,280.5c-0.4,1.3-19.8,26-19.8,26l4,18l31.2-21.5L850.2,280.5z"/>
			<path class="st9" d="M821.6,281.8c0.4,1.3,8.8,24.6,8.8,24.6l-13.6,15.8l-10.1-26.4L821.6,281.8z"/>
			<path class="st16" d="M839.6,62.8c0,0-33.7-16.9-64,5.9c0,0-33.3,28.4-13.2,73.9c0,0,11.9-60.7,58.1-35L839.6,62.8z"/>
			<path class="st16" d="M895,186.2l-7.3,0.7l4-29c0,0,2.6-21.8-2-30.3c-6.3-11.7-29.7-40.9-69.3-18.5l15.2-45.5
				c0,0,49.5-26.4,79.2,30.4C914.8,93.8,947.1,172.4,895,186.2z"/>
			<path class="st13" d="M796,368.3h-25.7c-4.4,0-7.9-3.5-7.9-7.9v0c0-4.4,3.5-7.9,7.9-7.9H796c4.4,0,7.9,3.5,7.9,7.9v0
				C803.9,364.8,800.4,368.3,796,368.3z"/>
			<path class="st8" d="M896.4,179.8c0,0,9-13.7,16.3-9.9c16.5,8.6,2.9,51.8-16,36.4L896.4,179.8z"/>
			<path class="st8" d="M792.8,529.7c0,0-8.1-10.1-18-9.5s-18.3,4.8-26.9,5.8s-10.8,0-10.8,0l-1.1,7c0,0,5,3.4,15.2,4
				c8.7,0.5,7.8-0.6,7.8-0.6s-16.3,10.7-25.3,21c-6.5,7.4-14.2,19.8-14.2,19.8l8.8,7.2l-3.8,6.3l9.5,5l5.9-5.1l6.5,3.8l5.2-3.8
				l3.5,1.9c0,0,12.7-12.9,21.6-17S808.6,545.8,792.8,529.7z"/>
			<path class="st8" d="M784.4,539.6L784.4,539.6c-2.5-5.3-0.3-11.5,5-14l21.8-10.3c5.3-2.5,11.5-0.3,14,5h0c2.5,5.3,0.3,11.5-5,14
				l-21.8,10.3C793.2,547.1,786.9,544.9,784.4,539.6z"/>
			<path class="st17" d="M734.8,563"/>
			<path class="st9" d="M943.5,430.3c0,0,11.4,16.5-14.3,30.8L819.6,541c0,0-14.2,9.3-27.5-16.6c0,0-7.6-7.1,6.8-17.7l117.7-76.7
				C916.6,429.9,930,413.6,943.5,430.3z"/>
			<path class="st18" d="M673.6,264.8L673.6,264.8c-2.1,0-3.9-1.7-3.9-3.9V17.6c0-2.1,1.7-3.9,3.9-3.9l0,0c2.1,0,3.9,1.7,3.9,3.9
				v243.3C677.5,263,675.7,264.8,673.6,264.8z"/>
			<polygon class="st19" points="673.8,13.4 673,47.2 573.5,47.2 597.1,28.7 575,12.9 			"/>
			<path class="st8" d="M652.7,215.8c3,1.1,20.4,6.8,20.4,6.8l1.8,9.3l-2.4,6.6l0.8,8.6l0.5,7.7l-1.9,5.5l-17.7-0.7l-6.4-9.9
				L652.7,215.8z"/>
		</g>
	</g>
</g>
</svg>
