<svg xmlns="http://www.w3.org/2000/svg" xmlns:xlink="http://www.w3.org/1999/xlink" viewBox="0 0 970.73 608"><defs><style>.cls-1{fill:none;}.cls-2{fill:#1d1d1b;}.cls-3{isolation:isolate;}.cls-4{fill:url(#Degradado_sin_nombre_35);}.cls-5{clip-path:url(#clip-path);}.cls-6{mix-blend-mode:screen;fill:url(#_10_ppp_60_);}.cls-7{fill:#bfbfbf;}.cls-8{opacity:0.48;}.cls-9{clip-path:url(#clip-path-2);}.cls-10{fill:#daa284;}.cls-11{fill:#728cfc;}.cls-12{fill:#70706f;}.cls-13{fill:#efb49a;}.cls-14{fill:#383d46;}.cls-15{fill:#fff;}.cls-16{fill:#57453f;}.cls-17{fill:#fc8080;}.cls-18{fill:#0a0a0a;}.cls-19{fill:#c6c6c6;}.cls-20{fill:#898989;}.cls-21{fill:#7813e2;}.cls-22{fill:url(#Degradado_sin_nombre_2);}.cls-23{fill:url(#Degradado_sin_nombre_2-2);}</style><linearGradient id="Degradado_sin_nombre_35" x1="71.07" y1="276.8" x2="976.97" y2="276.8" gradientUnits="userSpaceOnUse"><stop offset="0.39" stop-color="#6649b9"/><stop offset="0.5" stop-color="#6443b8"/><stop offset="0.64" stop-color="#5e33b3"/><stop offset="0.8" stop-color="#5417ad"/><stop offset="0.92" stop-color="#4b00a7"/></linearGradient><clipPath id="clip-path"><rect class="cls-1" x="71.07" y="71.26" width="748.4" height="410.65" rx="42.44" ry="42.44"/></clipPath><pattern id="_10_ppp_60_" data-name="10 ppp 60%" width="28.8" height="28.8" patternTransform="translate(-43.86 -40.37) scale(0.61 0.55)" patternUnits="userSpaceOnUse" viewBox="0 0 28.8 28.8"><rect class="cls-1" width="28.8" height="28.8"/><circle class="cls-2" cx="28.8" cy="28.8" r="4.32"/><circle class="cls-2" cx="14.4" cy="28.8" r="4.32"/><circle class="cls-2" cx="28.8" cy="14.4" r="4.32"/><circle class="cls-2" cx="14.4" cy="14.4" r="4.32"/><circle class="cls-2" cx="7.2" cy="21.6" r="4.32"/><circle class="cls-2" cx="21.6" cy="21.6" r="4.32"/><circle class="cls-2" cx="7.2" cy="7.2" r="4.32"/><circle class="cls-2" cx="21.6" cy="7.2" r="4.32"/><circle class="cls-2" cy="28.8" r="4.32"/><circle class="cls-2" cy="14.4" r="4.32"/><circle class="cls-2" cx="28.8" r="4.32"/><circle class="cls-2" cx="14.4" r="4.32"/><circle class="cls-2" r="4.32"/></pattern><clipPath id="clip-path-2"><rect class="cls-1" x="71.07" y="70.26" width="748.4" height="410.65" rx="42.44" ry="42.44"/></clipPath><linearGradient id="Degradado_sin_nombre_2" x1="470.11" y1="424.28" x2="471.32" y2="505.2" gradientUnits="userSpaceOnUse"><stop offset="0.4" stop-color="#b3b3b3"/><stop offset="0.93" stop-color="#333"/></linearGradient><linearGradient id="Degradado_sin_nombre_2-2" x1="333.74" y1="424.47" x2="334.91" y2="503.43" xlink:href="#Degradado_sin_nombre_2"/></defs><title>museo</title><g class="cls-3"><g id="Capa_2" data-name="Capa 2"><g id="cuadro"><rect class="cls-4" x="71.07" y="71.48" width="748.4" height="410.65" rx="42.44" ry="42.44"/><text></text><g class="cls-5"><rect class="cls-6" y="71.04" width="970.73" height="486.55"/></g><rect class="cls-7" x="566.55" y="188.95" width="317.09" height="10.14" rx="4.72" ry="4.72"/><path class="cls-7" d="M282.86,188.11H71v11H282.86A5.14,5.14,0,0,0,288,194v-.73A5.14,5.14,0,0,0,282.86,188.11Z"/></g><g id="personaje"><g class="cls-8"><g class="cls-9"><path d="M944.6,432.24c-.29-.36-.58-.68-.88-1L934,331.87c.39-25.85-21.83-24.46-21.83-24.46a8.4,8.4,0,0,0-3.34,1.33l-51.22-17.6-9.11-13.28-1.76-14.5A185.7,185.7,0,0,0,875.6,248s21.67-16.12,21.4-47.12c17.63,13.16,30.49-22.82,19.33-35.51,20.68-27.82-1.43-81.5-1.43-81.5C888.44,33.3,846.79,46.51,835.7,51.17c-6.61-2.87-37.12-14.23-65,6.75,0,0-34.49,29.42-13.66,76.52,0,0,.34-1.71,1.1-4.43-.06,1.18-.12,2.14-.23,2.83-4,26.4-2.85,60.27-5,79.72s29.52,50.92,48.38,56.42c0,0,5.32,2.68,16.47,1.9l1.08,8.89-.43-1.23L806,290.19,748.58,301.6l-.19,3a11.27,11.27,0,0,0-9.37,8.81l-35.58,68.1L681.17,286c-3-10.16-7.45-12.91-10.69-13.4l-.52-2.81c0-.17-.08-.33-.11-.49,3.13-2.65,7-7,7.89-12.89,1.47-10.09-.35-19.54.51-28.53S680.52,217,680.52,217l-5.89-2.78s-2.95,3.13-5.48,10.43V4.92a4,4,0,0,0-3.83-4V.53L563,0,586,16.44,561.45,35.52h99.64V216.06l-.36-.12-.32-1.08-2.06.3c-5.53-1.81-13-4.27-14.87-5l-5.13,35.06L645,255.51l3.42.13c.54,4.89,1.33,10.25,3.07,14.12a12.43,12.43,0,0,0,0,4.51l.53,2.86c-11.68,6.43-5.31,17-5.31,17l32.71,134.68c.1.6.2,1.19.31,1.76a9.2,9.2,0,0,0,1.51,6.14c6.39,20.41,20.43,13,20.43,13a29,29,0,0,0,8.64-4.49,10.55,10.55,0,0,0,4.71-4.14l28.11-55.86-5.84,89.06-14.4,95.38c-5.33,7.07-10.16,14.83-10.16,14.83l7,5.8-1,6.83-.82,1.37.57.3-.75,4.94,54.05,2.78L814,608h84.4l2.34-122.63,29.09-21.21C956.38,449.28,944.6,432.24,944.6,432.24Zm-39.05-2.1.89,8.47-1.85,1.21Z"/></g></g></g><g id="Capa_7" data-name="Capa 7"><path class="cls-10" d="M675.21,241.28s-1.11.57,1.1-7.74c2.6-9.76,6.45-13.84,6.45-13.84l5.69,2.68s-1.36,1.8-2.19,10.48.93,17.81-.49,27.55-11.59,15.26-11.59,15.26c-16.8,11.59-16.11-15-17.72-24.56l2.29-14.51,4.19-15.39,6.1-.88Z"/><path class="cls-10" d="M675.54,309.46h0c-4.91,1.2-9.79-2.45-10.83-8.12l-4.34-23.62c-1-5.67,2.13-11.29,7-12.49h0c4.91-1.2,9.79,2.45,10.83,8.12L682.58,297C683.62,302.63,680.45,308.25,675.54,309.46Z"/><path class="cls-11" d="M765.45,308.89s19.12,9.84,6,31.09l-49.71,98.81s-6.6,12.79-29-1.51c0,0-9.16-2.32-3-16.18l55.18-105.6S747.32,301.72,765.45,308.89Z"/><path class="cls-11" d="M708.83,447.12S692.07,456,687.34,427L655.75,296.93s-10-16.68,19-20.36c0,0,9.27-4.71,14.36,12.43l31.88,136.85S729.06,440.14,708.83,447.12Z"/><polygon class="cls-12" points="844.49 288.87 917.15 313.83 901.22 473.64 898.81 600 817.31 600 776.56 598.54 724.36 595.85 743.23 470.84 754.16 304.11 822.06 290.63 844.49 288.87"/><path class="cls-11" d="M912.17,309.73s21.46-1.35,21.08,23.62l10.7,109.58s.89,14.36-25.65,13.57c0,0-9.06,2.71-10.88-12.34l-6.49-62S892.93,312.87,912.17,309.73Z"/><path class="cls-10" d="M833.06,305.14,840.9,300a12,12,0,0,0,10.44-13.33L846.28,245A12,12,0,0,0,833,234.56l-4.67.57a12,12,0,0,0-10.44,13.33l5.06,41.66C823.69,296.65,826.52,305.93,833.06,305.14Z"/><path class="cls-13" d="M897.45,204.66s6.27-30.1-2.27-65.4c-.62-2.55,6.6-34.3-10.55-51.45,0,0-18.44-12.21-38.33-16.72-89.18-20.25-81.43,59.2-83.07,70-3.86,25.49-2.76,58.21-4.84,77s28.51,49.17,46.72,54.48c0,0,22.43,11.31,71.73-20.24C876.82,252.36,898.79,236,897.45,204.66Z"/><path class="cls-14" d="M844.17,173.92a8.53,8.53,0,0,0,11.2,3,7.45,7.45,0,0,0,3-10.53,8.53,8.53,0,0,0-11.2-3A7.45,7.45,0,0,0,844.17,173.92Z"/><path class="cls-15" d="M848.47,171.62a2.65,2.65,0,0,0,1.07-3.74,3,3,0,0,0-4-1,2.65,2.65,0,0,0-1.07,3.74A3,3,0,0,0,848.47,171.62Z"/><path class="cls-14" d="M776.89,172.45a8.53,8.53,0,0,0,11.2,3,7.45,7.45,0,0,0,3-10.53,8.53,8.53,0,0,0-11.2-3A7.45,7.45,0,0,0,776.89,172.45Z"/><path class="cls-15" d="M781.19,170.16a2.65,2.65,0,0,0,1.07-3.74,3,3,0,0,0-4-1,2.65,2.65,0,0,0-1.07,3.74A3,3,0,0,0,781.19,170.16Z"/><path class="cls-16" d="M848.26,150.84c10.15-1.9,19.28,2.8,22.24,8.24s1-3.42-1.79-6.06c-6.57-6.33-12.81-7.5-18.33-6.85C841.38,147.24,845.51,151.36,848.26,150.84Z"/><path class="cls-16" d="M790.64,145.18c-10.28-1-18.95,4.53-21.4,10.22s-1.26-3.32,1.24-6.2c6-6.9,12.08-8.62,17.64-8.47C797.17,141,793.43,145.45,790.64,145.18Z"/><path class="cls-17" d="M812.65,213a1.81,1.81,0,0,1-.44-.28l-10.06-8.64a1.88,1.88,0,0,1,1.38-3.3l20.17,1.74a1.88,1.88,0,0,1,.8,3.49l-11.39,6.79A1.85,1.85,0,0,1,812.65,213Z"/><path class="cls-18" d="M801.53,226h20s0,6.66-11.81,6.67C801.41,232.71,801.53,226,801.53,226Z"/><path class="cls-11" d="M850.21,280.51c-.44,1.32-19.79,25.95-19.79,25.95l4,18,31.23-21.55Z"/><path class="cls-11" d="M821.62,281.83c.44,1.32,8.8,24.63,8.8,24.63l-13.63,15.83L806.67,295.9Z"/><path class="cls-18" d="M839.56,62.85s-33.65-16.93-64,5.94c0,0-33.3,28.41-13.2,73.89,0,0,11.88-60.7,58.06-35Z"/><path class="cls-18" d="M895,186.22l-7.26.66,4-29s2.64-21.77-2-30.35C883.45,115.88,860,86.6,820.43,109L835.6,63.51s49.48-26.39,79.17,30.35C914.77,93.85,947.1,172.37,895,186.22Z"/><rect class="cls-15" x="762.37" y="352.48" width="41.56" height="15.83" rx="7.92" ry="7.92" transform="translate(1566.31 720.79) rotate(180)"/><path class="cls-10" d="M896.44,179.78s9-13.66,16.33-9.88c16.52,8.55,2.92,51.84-16,36.42Z"/><path class="cls-10" d="M792.83,529.65s-8.09-10.14-17.95-9.48-18.26,4.75-26.94,5.83-10.78,0-10.78,0l-1.09,7s5,3.38,15.18,4c8.67.55,7.82-.56,7.82-.56s-16.26,10.7-25.32,21c-6.53,7.44-14.23,19.81-14.23,19.81l8.79,7.23-3.77,6.29,9.5,5,5.92-5.07,6.47,3.76,5.16-3.81,3.52,1.86s12.68-12.92,21.56-17S808.59,545.83,792.83,529.65Z"/><rect class="cls-10" x="794.34" y="507.35" width="21.08" height="45.22" rx="10.54" ry="10.54" transform="translate(670.84 1484.28) rotate(-115.37)"/><path class="cls-19" d="M734.84,562.95"/><path class="cls-11" d="M943.46,430.27s11.37,16.46-14.3,30.82L819.62,541s-14.18,9.33-27.53-16.64c0,0-7.59-7.1,6.79-17.74L916.62,429.9S930,413.64,943.46,430.27Z"/><rect class="cls-20" x="669.67" y="13.71" width="7.78" height="251.05" rx="3.89" ry="3.89" transform="translate(1347.13 278.48) rotate(-180)"/><polygon class="cls-21" points="673.76 13.37 673 47.16 573.45 47.16 597.14 28.73 574.98 12.86 673.76 13.37"/><path class="cls-10" d="M652.66,215.84c3,1.1,20.4,6.77,20.4,6.77l1.85,9.28-2.44,6.61.78,8.61.51,7.71-1.9,5.47-17.73-.68-6.42-9.9Z"/></g><g id="titulo"><path class="cls-15" d="M305.43,149.12a5.39,5.39,0,0,1,3.37,2.11A6.25,6.25,0,0,1,310,155a6.05,6.05,0,0,1-2.39,5,10.26,10.26,0,0,1-6.51,1.88h-13V137.09h12.25a10,10,0,0,1,6.27,1.77,5.8,5.8,0,0,1,2.26,4.83A6.37,6.37,0,0,1,308,147,4.64,4.64,0,0,1,305.43,149.12Zm-11.15-7v5.07h5.14a4.27,4.27,0,0,0,2.64-.71,2.32,2.32,0,0,0,.93-1.95q0-2.41-3.57-2.41Zm0,14.65h6a4.4,4.4,0,0,0,2.73-.71,2.26,2.26,0,0,0,.91-1.88q0-2.3-3.54-2.3h-6.12Z"/><path class="cls-15" d="M319.57,137.09v24.78h-6.16V137.09Z"/><path class="cls-15" d="M330.11,142.45V147h11v5.25h-11v4.3h12.57v5.36H323.95V137.09h18.73v5.36Z"/><path class="cls-15" d="M369,137.09v24.78h-4.77l-11.88-13.6v13.6h-6.16V137.09h4.7l12,14v-14Z"/><path class="cls-15" d="M399.21,137.09,388.46,162h-6.2l-10.75-24.93h6.78l7.07,16.8,7.07-16.8Z"/><path class="cls-15" d="M407.67,142.45V147h11v5.25h-11v4.3h12.57v5.36H401.51V137.09h18.73v5.36Z"/><path class="cls-15" d="M446.56,137.09v24.78h-4.77l-11.88-13.6v13.6h-6.16V137.09h4.7l12,14v-14Z"/><path class="cls-15" d="M457.05,137.09v24.78h-6.16V137.09Z"/><path class="cls-15" d="M461.43,137.09h10a13.7,13.7,0,0,1,9.6,3.44,11.47,11.47,0,0,1,3.77,8.88,11.67,11.67,0,0,1-3.77,9,13.61,13.61,0,0,1-9.6,3.48h-10Zm6.16,19.24h3.83a7,7,0,0,0,5.07-2,6.61,6.61,0,0,0,2-4.94,6.41,6.41,0,0,0-2-4.83,7,7,0,0,0-5.07-2h-3.83Z"/><path class="cls-15" d="M500.83,136.58a12.81,12.81,0,0,1,9.39,3.74,13,13,0,0,1,0,18.33,13.61,13.61,0,0,1-18.73,0,13,13,0,0,1,0-18.33A12.76,12.76,0,0,1,500.83,136.58Zm-4.92,18a6.82,6.82,0,0,0,9.84,0,7.55,7.55,0,0,0,0-10.17,6.82,6.82,0,0,0-9.84,0,7.55,7.55,0,0,0,0,10.17Z"/><path class="cls-15" d="M544.05,157.61h-10.5l-1.64,4.26h-6.56l10.53-24.93h5.87l10.5,24.93h-6.52Zm-2-5.25-3.21-8.24-3.21,8.24Z"/><path class="cls-15" d="M573.32,156.45v5.43H554.91V137.09h6.16v19.35Z"/><path class="cls-15" d="M357.86,170.36v43.52H347V192.05L337.38,207V207h-6V207l-9.73-15,.06,22H310.89V170.36h8l15.49,23.23,15.42-23.23Z"/><path class="cls-15" d="M408.55,170.36v23.23q0,10-5.44,15.65t-14.85,5.6q-9.41,0-14.82-5.6T368,193.59V170.36h10.88v23.42a11.89,11.89,0,0,0,2.53,8,8.48,8.48,0,0,0,6.82,3,8.58,8.58,0,0,0,6.85-3,11.8,11.8,0,0,0,2.56-8V170.36Z"/><path class="cls-15" d="M435.81,169.4a26.37,26.37,0,0,1,5.79.64,23,23,0,0,1,5.7,2.14,12.91,12.91,0,0,1,4.8,4.51,15.59,15.59,0,0,1,2.34,7.17H443.56q-1-5.5-7-5.5a7.9,7.9,0,0,0-4.51,1.15,3.66,3.66,0,0,0-1.7,3.2,3.06,3.06,0,0,0,1.22,2.62,10.33,10.33,0,0,0,3.78,1.47l6.08,1.41q6.46,1.41,9.79,4.26t3.33,8.16A12.37,12.37,0,0,1,449.57,211q-4.93,3.81-13.12,3.81A22.76,22.76,0,0,1,423,210.9q-5.5-3.87-6.21-11.49h10.82a6.65,6.65,0,0,0,2.91,4.51,10.88,10.88,0,0,0,6.24,1.63,8.4,8.4,0,0,0,4.58-1,3.2,3.2,0,0,0,1.57-2.82q0-2.82-4.61-3.71l-7.17-1.6q-6.47-1.41-9.54-4.51a11.27,11.27,0,0,1-3.07-8.29,12.64,12.64,0,0,1,4.77-10.34Q428.07,169.4,435.81,169.4Z"/><path class="cls-15" d="M475,179.77v7.94h19.26v9.22H475v7.55h22.08v9.41h-32.9V170.36h32.9v9.41Z"/><path class="cls-15" d="M527.08,169.46A22.49,22.49,0,0,1,543.56,176a22.87,22.87,0,0,1,0,32.19,23.9,23.9,0,0,1-32.9,0,22.87,22.87,0,0,1,0-32.19A22.41,22.41,0,0,1,527.08,169.46ZM518.44,201a12,12,0,0,0,17.28,0,13.26,13.26,0,0,0,0-17.86,12,12,0,0,0-17.28,0,13.26,13.26,0,0,0,0,17.86Z"/></g><g id="boton"><rect class="cls-22" x="386.76" y="449.32" width="168.21" height="50.42" rx="22.22" ry="22.22"/><circle class="cls-23" cx="334.47" cy="473.5" r="25.5"/><path class="cls-15" d="M345.56,472.09Q343.1,466,332.28,466h-3.4v-3.89a1,1,0,0,0-1.65-.68l-7.77,7.77a1,1,0,0,0,0,1.37l7.77,7.77a1,1,0,0,0,1.65-.68v-3.89h3.4q1.49,0,2.66.09a19.2,19.2,0,0,1,2.34.33,8.68,8.68,0,0,1,2,.65,7.15,7.15,0,0,1,1.6,1.05,5.29,5.29,0,0,1,1.21,1.53,8.26,8.26,0,0,1,.74,2.1,12.93,12.93,0,0,1,.27,2.75q0,.83-.08,1.87a3.11,3.11,0,0,1,0,.36,3.12,3.12,0,0,0,0,.4.57.57,0,0,0,.13.38.44.44,0,0,0,.36.15.52.52,0,0,0,.42-.26,1.74,1.74,0,0,0,.2-.33l.2-.46.16-.36a18.22,18.22,0,0,0,1.93-6.85A13.82,13.82,0,0,0,345.56,472.09Z"/></g></g></g></svg>