<svg xmlns="http://www.w3.org/2000/svg" xmlns:xlink="http://www.w3.org/1999/xlink" viewBox="0 0 1061.2 596.59"><defs><style>.cls-1{fill:none;}.cls-2{fill:#1d1d1b;}.cls-3{isolation:isolate;}.cls-4{fill:url(#Degradado_sin_nombre_25);}.cls-5{clip-path:url(#clip-path);}.cls-6{mix-blend-mode:screen;fill:url(#_10_ppp_60_);}.cls-7{fill:#00bcd4;}.cls-8{opacity:0.48;}.cls-9{clip-path:url(#clip-path-2);}.cls-10{fill:#020202;}.cls-11{fill:#3a251e;}.cls-12{fill:#3f2a24;}.cls-13{fill:#efb49a;}.cls-14{fill:#daa284;}.cls-15{fill:#3fb539;}.cls-16{fill:#383d46;}.cls-17{fill:#fff;}.cls-18{fill:#57453f;}.cls-19{fill:#fc8080;}.cls-20{fill:#d6957c;}.cls-21{fill:#40338c;}.cls-22{fill:#48cfe5;}.cls-23{fill:#43bcc9;}.cls-24{fill:#c18063;}.cls-25{fill:#71e230;}.cls-26{fill:#cfd8dc;}.cls-27{fill:#607d8b;}.cls-28{fill:#455a64;}.cls-29{fill:#4dd0e1;}.cls-30{fill:url(#Degradado_sin_nombre_2);}.cls-31{fill:url(#Degradado_sin_nombre_2-2);}</style><linearGradient id="Degradado_sin_nombre_25" x1="71.07" y1="224.92" x2="976.97" y2="224.92" gradientUnits="userSpaceOnUse"><stop offset="0.18" stop-color="#009427"/><stop offset="0.33" stop-color="#008e26"/><stop offset="0.54" stop-color="#007b22"/><stop offset="0.79" stop-color="#005e1d"/><stop offset="1" stop-color="#003e17"/></linearGradient><clipPath id="clip-path"><rect class="cls-1" x="71.07" y="19.39" width="748.4" height="410.65" rx="42.44" ry="42.44"/></clipPath><pattern id="_10_ppp_60_" data-name="10 ppp 60%" width="28.8" height="28.8" patternTransform="translate(-43.86 -41.37) scale(0.61 0.55)" patternUnits="userSpaceOnUse" viewBox="0 0 28.8 28.8"><rect class="cls-1" width="28.8" height="28.8"/><circle class="cls-2" cx="28.8" cy="28.8" r="4.32"/><circle class="cls-2" cx="14.4" cy="28.8" r="4.32"/><circle class="cls-2" cx="28.8" cy="14.4" r="4.32"/><circle class="cls-2" cx="14.4" cy="14.4" r="4.32"/><circle class="cls-2" cx="7.2" cy="21.6" r="4.32"/><circle class="cls-2" cx="21.6" cy="21.6" r="4.32"/><circle class="cls-2" cx="7.2" cy="7.2" r="4.32"/><circle class="cls-2" cx="21.6" cy="7.2" r="4.32"/><circle class="cls-2" cy="28.8" r="4.32"/><circle class="cls-2" cy="14.4" r="4.32"/><circle class="cls-2" cx="28.8" r="4.32"/><circle class="cls-2" cx="14.4" r="4.32"/><circle class="cls-2" r="4.32"/></pattern><clipPath id="clip-path-2"><rect class="cls-1" x="71.07" y="18.39" width="748.4" height="410.65" rx="42.44" ry="42.44"/></clipPath><linearGradient id="Degradado_sin_nombre_2" x1="470.11" y1="372.4" x2="471.32" y2="453.32" gradientUnits="userSpaceOnUse"><stop offset="0.4" stop-color="#b3b3b3"/><stop offset="0.93" stop-color="#333"/></linearGradient><linearGradient id="Degradado_sin_nombre_2-2" x1="333.74" y1="372.59" x2="334.91" y2="451.55" xlink:href="#Degradado_sin_nombre_2"/></defs><title>pausas</title><g class="cls-3"><g id="Capa_2" data-name="Capa 2"><g id="cuadro"><rect class="cls-4" x="71.07" y="19.6" width="748.4" height="410.65" rx="42.44" ry="42.44"/><text></text><g class="cls-5"><rect class="cls-6" y="18.16" width="970.73" height="486.55"/></g><rect class="cls-7" x="607.55" y="137.07" width="251.09" height="10.14" rx="4.72" ry="4.72"/><path class="cls-7" d="M251.86,136.23H70v11H251.86a5.14,5.14,0,0,0,5.13-5.13v-.73A5.14,5.14,0,0,0,251.86,136.23Z"/></g><g id="personaje"><g class="cls-8"><g class="cls-9"><path class="cls-10" d="M897.07,553.89l-.47,0C893.89,564,897.07,553.89,897.07,553.89Z"/><path class="cls-10" d="M1059.65,388.14l-2.76-14.32,1.5-.54,2.82-10.2-13.36-27.64-1.43,1.07c-.34-3.77-.27-6.85.44-8l.77-1.26a2.28,2.28,0,0,0,.28-1.59L1045.59,313c-1.36-7.44-7.4-12.68-14-12.54l0-.17,3.77-.69c4.17-.76,6.85-5.16,6-9.82s-4.92-7.82-9.08-7.06l-7.87,1.44a5.83,5.83,0,0,0-6.1-3.25c-3.12.57-5.14,3.87-4.5,7.36l.39,2.11-1.89.34a2,2,0,0,0-1.5,2.45l2,10.72c-6.21,2.19-10,9.23-8.65,16.67l2.31,12.66a2.28,2.28,0,0,0,.82,1.39l1.17.91c1.44,1.12,3,5.81,4.23,11.19l-4.75,4.61-5.54,15.43-4.95,9.11,0,.05-68,36.85c1.19-14.91,2.74-31.46,4.46-42,2.61-16,6.58-35.54,8.37-49a28,28,0,0,0,13.34-13.53c-10.07-3.48-16.78-13.44-19.29-23.79s-1.52-21.19-.51-31.79l10.22-107.34c2.33-24.49,4.65-49.39,0-73.55s-17.32-47.92-38.61-60.26c-18.64-10.8-44.34-10.29-60.69,3A38.76,38.76,0,0,0,842,11.47c-15.48-8-34.15-8.38-51-3.78-13.24,3.62-26,10.43-34.53,21.16-7.93,10-11.77,22.53-14.35,35a221.17,221.17,0,0,0-4.53,39.54c-.15,6.4,0,12.91,1.83,19,1.76,5.85,5.25,11.38,10.43,14.56.14-.25.28-.5.41-.75l-.07,1-.34-.2c-.12.22-.23.44-.36.66l.67-.12c-.42,6-.86,12-1.56,18.42-2.19,20.26,9.56,63.13,49.79,79.79,0,0,5.33-.87,12.92-2.76-.37,3.61-.82,7.62-1.34,12-1.37,11.28-12.32,18-21.69,21.79l.19-.36-8.22.81.15-.42-3.28.73-13.95,1.38c-7-.7-15.05,1.39-22.62,10.31-16,18.88-43.36,67.51-56.4,89.36l-9.58-47.77.41-.11a4.4,4.4,0,0,0,1.88-.9,4.2,4.2,0,0,0,1-2.6,29,29,0,0,0-3.52-17.56,3.38,3.38,0,0,0-.44.27,4.55,4.55,0,0,0,0-.88,3.29,3.29,0,0,0-2-2.88,2.4,2.4,0,0,0-2.18.4l-1.38-6.89a17.93,17.93,0,0,0-.63-4.23,18,18,0,0,0,4.75-9.64l3.59-12.8-6.12-14.23s-3.59-12.66-2.08-21.08c.2-1.13-.8-22.25-1-23.66-1.11-9.14-9.75-4.73-9.75-4.73l2.14,38.42-13-38.34-7.91,3.27,4.5,13.16,8.43,25.63-10.5-3.53-4.5,7.22s-5.54,5.33-5.19,16.43c.26,8.25.17,21.61,9.18,27.08a35.18,35.18,0,0,0,.76,7.89c.2,1,.44,2.37.73,4.11a1.86,1.86,0,0,0-.35.25l.27-.4a13.49,13.49,0,0,0-2.9,4.4,6.62,6.62,0,0,0-.35,2.87c0,.46,0,.91,0,1.37a2.57,2.57,0,0,0,.22,2,42,42,0,0,0,3.79,10.62,5.7,5.7,0,0,0,1.38,2.08,3.55,3.55,0,0,0,1.53.7c5,34.62,12,87.21,12,87.21s6.63,15.22,19.54,11.69a16,16,0,0,0,6.35-3.41c10.07-2.67,27-17.38,35.83-24.37,1-.8,2.26-1.9,3.69-3.24.68,5.11,1.68,9.94,2.7,14.7l-.16-.38,3.78,24,1.53,3c1.5,7.93,3.15,16.64,4.74,25.74l-.41.66,2.3,12.27.21-.37c1.42,9,2.68,18.07,3.61,27l-.12,46.47c-3.71,5.06,0,4.16,0,4.16,42.7,13.11,148,4.94,155.76,4.32v-.05h.45l-.19-1,.43-1.58c3.92-14.26-2.54-9.7-2.54-9.7l-.1,0-8.09-41.25-1-.05c-1.73-34.48-.75-53.54-.75-53.54q2.86-8.11,5.47-16.21c1.11,4.59,1.9,8.34,2.66,11.41-1.33,8.4,4.56,14.75,4.56,14.75,10.56,13.8,36.24-4.43,36.24-4.43l74.76-56a25.43,25.43,0,0,0,6.13-3.64l2.85-.44.66,3.41c1.49,8.16,8.61,13.69,15.9,12.36l15.08-2.76C1056.44,404,1061.14,396.3,1059.65,388.14ZM855.49,212.9a25.53,25.53,0,0,0,12.73-1.05c8-2.84,13.8-9.33,18.23-16.79-2.05,15.91-4.18,31.83-5.36,47.78-.76,10.25-1.1,20.68.09,30.85l-.44-.14-.11.23-.65-.19a.67.67,0,0,0-.38-.24l-1.38-.27-3.1-.91-.08.24c-27.63-6.3-26.46-18.23-25.32-28.3,1.2-10.6,2.56-28.06,2.56-28.06s0-.14,0-.39A39.84,39.84,0,0,0,855.49,212.9Zm177.54,74a4.32,4.32,0,0,1,1.54,8.44l-3.77.69-1.16-6.33a2,2,0,0,0-2.27-1.77Z"/></g></g></g><g id="Capa_6" data-name="Capa 6"><path class="cls-11" d="M850.9,17c15.26-19.3,45.74-21.73,67-9.42s34,36.07,38.66,60.23,2.37,49.05.06,73.55L946.52,248.68c-1,10.6-2,21.44.53,31.79s9.24,20.3,19.31,23.78C960,318.72,941,324.86,926,319.86S900.25,301,895.34,286s-4.72-31.23-3.56-47c3.24-44.16,13.71-88.14,9.85-132.25-1.91-21.84-8.74-45.42-27.07-57.44-6.73-4.41-14.7-7-20.48-12.62s-8.27-16-2.22-21.32"/><path class="cls-12" d="M857.57,206a25.7,25.7,0,0,0,21.31,2c11.59-4.12,18.51-15.85,23.4-27.13a200.66,200.66,0,0,0,16.2-69c.74-14.08-.79-30-11.51-39.12a42.08,42.08,0,0,0-9.57-5.82,107.79,107.79,0,0,0-35.6-9.77c-6.47-.62-13.37-.55-19,2.74-6.86,4-10.3,12-12.36,19.68-7.29,27.14-2.64,55.91,2.6,83.51,1.66,8.75,3.42,17.6,7.26,25.63s10.06,15.29,18.35,18.55"/><path class="cls-13" d="M792.32,273.47s-22.15-20.42-41.08,1.92-53.62,86.25-61.88,98.34-11,33.89-1.53,41.88c7.07,6,30.82-15,41.95-23.78s49.86-53.29,57.63-66.36C802.65,299.86,798,281.94,792.32,273.47Z"/><path class="cls-14" d="M785.2,267s33-5.72,35.44-25.87S823.71,208,823.71,208s1.81-13.42,21.46-11.6S863,212.2,863,212.2s-1.34,17.46-2.54,28.06-2.43,23.27,29.9,29.22c5.6,1-15.1,77.79-81.46,67C761.55,328.86,785.2,267,785.2,267Z"/><path class="cls-15" d="M899.33,536.66c-5.38-59.58-3.65-93.72-3.65-93.72,28-79.41,37.37-160.8,37.37-160.8l-47.2-13.85s-23.48,68.4-70.52,64c-52.2-4.84-16.17-69.78-16.17-69.78l-28.38,2.82s-24.91,56.86-31.69,76c-12,34-4.35,52.41-.67,72.84,6,33.46,20,95.26,13.26,130.52Z"/><path class="cls-14" d="M938,442.33s2.95-52.25,6.72-75.51,10.42-54,9.09-62.75-8-18.74-21.12-22.15-22.76,18.57-25.55,41.67S896.84,409.12,901,426.17s3.9,22.61,13.13,25.68C922.34,454.59,930.35,460.27,938,442.33Z"/><path class="cls-14" d="M701.77,399.36l-.44-2.68L679,285.88s.06-13.44-12.61-14.53-17.55,7.29-14.69,21.4S668.08,408,668.08,408s6.64,15.22,19.55,11.67S701.77,399.36,701.77,399.36Z"/><path class="cls-14" d="M683.12,272c-2.91,16-19.2,15.15-19.2,15.15-22.11,2.07-21.82-18.28-22.18-29.38s5.18-16.43,5.18-16.43l4.49-7.23,10.5,3.52L653.46,212,649,198.87l7.91-3.27,13,38.33-2.17-38.42s8.63-4.42,9.75,4.73c.17,1.41,1.19,22.53,1,23.66-1.5,8.43,2.09,21.08,2.09,21.08l6.13,14.22Z"/><path class="cls-13" d="M888.27,137.29s-7-15.09-7.46-47.75c-.35-24-31-32.88-40.46-33.3,0,0-10.63-8.24-31.88-6-25.11,2.67-41.63,26.87-43.34,38.56-4,27.5-3.75,43.09-5.93,63.35s9.6,63.12,49.85,79.75c0,0,41.26-6.78,57.63-23.4C866.69,208.53,888.08,193.92,888.27,137.29Z"/><path class="cls-16" d="M839.58,137A8.94,8.94,0,0,0,851.33,140a7.8,7.8,0,0,0,3.12-11,8.94,8.94,0,0,0-11.74-3.06A7.8,7.8,0,0,0,839.58,137Z"/><path class="cls-17" d="M844.08,134.57a2.77,2.77,0,0,0,1.11-3.92,3.17,3.17,0,0,0-4.17-1.09,2.77,2.77,0,0,0-1.11,3.92A3.18,3.18,0,0,0,844.08,134.57Z"/><path class="cls-16" d="M777.66,132.75a8.94,8.94,0,0,0,11.74,3.06,7.8,7.8,0,0,0,3.12-11,8.94,8.94,0,0,0-11.74-3.06A7.8,7.8,0,0,0,777.66,132.75Z"/><path class="cls-17" d="M782.16,130.34a2.77,2.77,0,0,0,1.11-3.92,3.17,3.17,0,0,0-4.17-1.09,2.77,2.77,0,0,0-1.11,3.92A3.18,3.18,0,0,0,782.16,130.34Z"/><path class="cls-18" d="M828.07,104.94c15.86-5,31.52-1.39,37.43,4.78s.79-4.6-4.18-7.26c-11.89-6.37-22.16-6.26-30.87-4C816.25,102.11,823.77,106.3,828.07,104.94Z"/><path class="cls-18" d="M794.54,101.28c-11.89-6.41-25.11-5-30.93-.2s.15-4.21,4.61-6c10.66-4.29,18.9-3,25.52.11C804.53,100.17,797.76,103,794.54,101.28Z"/><path class="cls-19" d="M806.95,172.23a1.9,1.9,0,0,1-.46-.29l-10.56-9a2,2,0,0,1,1.44-3.46l21.13,1.76a2,2,0,0,1,.85,3.65L807.45,172A1.94,1.94,0,0,1,806.95,172.23Z"/><path class="cls-17" d="M793,187.15s10.07,1.63,17.94,2.06,14.1.51,14.1.51a39.11,39.11,0,0,1-17.92,3.13C797.24,192.13,793,187.15,793,187.15Z"/><path class="cls-14" d="M1000.78,367.4,946.1,443.1s-19.07,25.05-33.27,15c0,0-21.38-12.22,2.06-35.81l71.8-73.83S998.83,336,1007.77,346C1007.77,346,1012.65,357.27,1000.78,367.4Z"/><path class="cls-12" d="M837.68,50.35c3,13.4,17.46,20.22,27.19,29.91,16.3,16.23,13.66,46.07,14.63,69.06.07,1.65.21,3.47,1.39,4.62.76.74,2.73,2.21,2.91,1.16,2.13-12.17,3.2-14.71,5.82-21,5.91-14.22,17.94,35.52,26.81-35.39,1.91-15.28,1.5-37-6.56-50.16-6.76-11-17.65-19-29.52-24.12-5.75-2.46-12.12-4.29-18.22-2.94-11.65,2.59-17.69,15.17-22.07,26.27-.69,1.76-1.4,3.68-.84,5.49"/><path class="cls-11" d="M760.08,133.88c4.74-8.07,4.36-18,5.59-27.28,1.47-11,5.51-21.87,12.5-30.54s17.06-15,28.08-16.64c11.74-1.7,24.38,1.83,35.2-3,4.32-1.94,8-5.09,11.56-8.19,7-6,14.6-13.53,13.93-22.74-.58-8-7.37-14.13-14.48-17.82-15.48-8-34.16-8.35-51-3.74-13.24,3.63-26,10.45-34.52,21.19-7.93,10-11.75,22.54-14.32,35a221.17,221.17,0,0,0-4.5,39.54c-.15,6.4,0,12.91,1.85,19s5.6,11.92,11.21,15"/><path class="cls-14" d="M887.7,132.64s9.41-14.33,17.07-10.39c17.32,8.91.15,54.54-19.68,38.44Z"/><polygon class="cls-20" points="751.86 489.05 751.75 545.84 907.99 550.01 897.46 496.54 751.86 489.05"/><path class="cls-21" d="M753.35,526.77s42.6,6.47,63.6,2.78c0,0,70.69-1.34,90.6-11.89,0,0,20.87,47,18.38,64.64-3.14,22.24-56.34,11.88-56.34,11.88s-80.39,4.95-124.47-11.54C745.13,582.64,749.06,534,753.35,526.77Z"/><path class="cls-22" d="M652.36,296.71a13.49,13.49,0,0,0-2.89,4.4,5.76,5.76,0,0,0,.42,5.09c1.05,1.55,3,2.26,4.79,2.69a30.85,30.85,0,0,0,21.41-3.27,18.36,18.36,0,0,0,7.58-6.83,6.36,6.36,0,0,0,.94-3.55,3.29,3.29,0,0,0-2-2.87,2.25,2.25,0,0,0-2.89,1.55,7.18,7.18,0,0,1-.14,1.31c-.25.7-1.06,1-1.77,1.23-6,1.89-12.09,3.79-18.38,4.06a7.25,7.25,0,0,1-3.76-.58,2.86,2.86,0,0,1-1.56-3.18,1.83,1.83,0,0,0-2.4,1"/><path class="cls-23" d="M649.22,302.55c-.69,5.34,1.65,10.55,3.92,15.43a5.7,5.7,0,0,0,1.38,2.08,5.59,5.59,0,0,0,3.65.86,99.5,99.5,0,0,0,27.52-4,4.4,4.4,0,0,0,1.88-.91,4.2,4.2,0,0,0,1-2.6A29,29,0,0,0,685,295.86c-1.31.66-2,2.12-2.76,3.37a15.45,15.45,0,0,1-4.43,4.66c-6.2,4.25-14.43,3.43-21.88,2.44-2.15-.29-4.47-.65-6-2.18a2.51,2.51,0,0,0-.29,3.62"/><path class="cls-24" d="M809.62,504.28a17.55,17.55,0,0,0,2,14.51,23.84,23.84,0,0,0-.48-17.08,18.11,18.11,0,0,0-.87,7.72"/><path class="cls-25" d="M782.88,264.77c-.67,1.09-29.29,77.07-33.57,83,0,0-7.77,18.24-8,31.1-.05.57,13.8,50.78,13.8,50.78l7.89-6.15s-17.05-46.63-9.47-60.27S791.09,263,791.09,263Z"/><path class="cls-25" d="M862.69,387.54c1.93-15.49,40.72-114.15,40.72-114.15l-12-3.71c-.67,1.09-41,104.81-45.32,110.73l-14,67.14,32.24,46.89L881.47,496l-35.37-50.2Z"/><polygon class="cls-25" points="756.69 407.41 773.64 452.02 751.86 489.05 749.9 478.05 762.35 453.12 744.11 389.88 756.69 407.41"/><path class="cls-25" d="M870.84,429.62l-14.28,24.07,38.93,35L895.13,474l-27.66-21.93,33.43-35.64-2-15.68S888.54,405.86,870.84,429.62Z"/><polygon class="cls-25" points="736.02 402.91 756.76 453.04 748 468.58 745.7 456.31 750.76 448.18 739.82 426.93 736.02 402.91"/><polygon class="cls-14" points="997.77 368.73 1018.92 365.47 1035.97 357.28 1035.04 353.29 1022.87 330 1014.99 330.57 994.34 349.51 997.77 368.73"/><path class="cls-26" d="M1024.93,274.55l-5.66,1a2.16,2.16,0,0,1-.77-4.22l5.66-1a4.32,4.32,0,0,0-1.55-8.44l-9.43,1.73a2.16,2.16,0,0,1-.77-4.22l9.43-1.73c4.16-.76,8.23,2.4,9.09,7.06S1029.09,273.78,1024.93,274.55Z"/><path class="cls-27" d="M1007.86,255.87c-3.12.57-5.14,3.87-4.49,7.37l.77,4.22a2,2,0,0,0,2.27,1.76l7.54-1.38a2,2,0,0,0,1.5-2.46l-.77-4.22C1014,257.67,1011,255.3,1007.86,255.87Z"/><path class="cls-28" d="M1001.86,265.69l15.08-2.77a2,2,0,0,1,2.27,1.76l2.32,12.66a2,2,0,0,1-1.5,2.46L1005,282.57a2,2,0,0,1-2.27-1.76l-2.32-12.66A2,2,0,0,1,1001.86,265.69Z"/><path class="cls-7" d="M1037.22,302.19a2.28,2.28,0,0,0,.28-1.59l-2.32-12.66c-1.5-8.16-8.62-13.69-15.91-12.35l-15.08,2.77c-7.29,1.34-12,9-10.49,17.19L996,308.21a2.28,2.28,0,0,0,.82,1.39l1.17.91c3.48,2.71,7.87,26.33,5.57,30.1l-.77,1.27a2.28,2.28,0,0,0-.28,1.59l5.27,27.23c1.5,8.16,8.62,13.69,15.91,12.35l15.08-2.77c7.29-1.34,12-9,10.49-17.19L1044,335.85a2.28,2.28,0,0,0-.82-1.39l-1.17-.91c-3.48-2.71-7.87-26.33-5.57-30.1Z"/><path class="cls-29" d="M1022.17,374.6c-3.12.57-6.18-1.8-6.82-5.29l-3.26-17.77a2.31,2.31,0,0,1,.17-1.4c3.22-6.92-3.2-40.09-8.66-45.42a2.31,2.31,0,0,1-.66-1.24l-1.71-9.32c-.64-3.5,1.37-6.79,4.49-7.37a2.16,2.16,0,0,1,.77,4.22,2,2,0,0,0-1.5,2.46l1.58,8.6c6.25,6.54,12.93,41.17,9.41,49.5l3.13,17a2,2,0,0,0,2.27,1.76,2.16,2.16,0,0,1,.77,4.22Z"/><polygon class="cls-14" points="992.42 337.18 997.28 324.13 1010.2 312.88 1014.63 318.48 1006.58 328.01 1006.35 343.35 996.86 354.13 987.88 344.92 992.42 337.18"/><path class="cls-14" d="M1037.45,310.4c-2.23,1.74-15.62,11.3-15.62,11.3l.92,8.43,3.87,5,1.66,7.57,1.64,6.73,3.1,4.16,15-5.37,2.81-10.2Z"/></g><g id="titulo"><path class="cls-17" d="M358.88,88.9h10a11.34,11.34,0,0,1,7.67,2.44A8.32,8.32,0,0,1,379.36,98a8.58,8.58,0,0,1-3,6.87q-3,2.53-8.05,2.53H365v6.31h-6.16ZM365,102h3.68a4.71,4.71,0,0,0,3.26-1.09A3.72,3.72,0,0,0,373.2,98,3.24,3.24,0,0,0,372,95.32a5,5,0,0,0-3.26-1H365Z"/><path class="cls-17" d="M395.91,109.42h-10.5l-1.64,4.26h-6.56l10.53-24.93h5.87l10.5,24.93h-6.52Zm-2-5.25-3.21-8.24-3.21,8.24Z"/><path class="cls-17" d="M427.87,88.9v13.23q0,5.72-3.1,8.91a12.78,12.78,0,0,1-16.89,0q-3.08-3.19-3.08-8.91V88.9H411v13.34a6.78,6.78,0,0,0,1.44,4.54,4.83,4.83,0,0,0,3.88,1.69,4.89,4.89,0,0,0,3.9-1.69,6.72,6.72,0,0,0,1.46-4.54V88.9Z"/><path class="cls-17" d="M441.61,88.36a15,15,0,0,1,3.3.36,13.12,13.12,0,0,1,3.24,1.22,7.35,7.35,0,0,1,2.73,2.57,8.88,8.88,0,0,1,1.33,4.08H446q-.55-3.13-4-3.13a4.5,4.5,0,0,0-2.57.66,2.08,2.08,0,0,0-1,1.82,1.74,1.74,0,0,0,.69,1.49,5.88,5.88,0,0,0,2.15.84l3.46.8a12.67,12.67,0,0,1,5.58,2.42,5.78,5.78,0,0,1,1.9,4.65,7,7,0,0,1-2.81,5.89A11.9,11.9,0,0,1,442,114.2a13,13,0,0,1-7.65-2.21,8.5,8.5,0,0,1-3.54-6.54h6.16a3.79,3.79,0,0,0,1.66,2.57,6.2,6.2,0,0,0,3.55.93,4.79,4.79,0,0,0,2.61-.58,1.82,1.82,0,0,0,.89-1.6q0-1.6-2.62-2.11l-4.08-.91a10.7,10.7,0,0,1-5.43-2.57,6.42,6.42,0,0,1-1.75-4.72,7.2,7.2,0,0,1,2.72-5.89A11,11,0,0,1,441.61,88.36Z"/><path class="cls-17" d="M472,109.42h-10.5l-1.64,4.26h-6.56l10.53-24.93h5.87l10.5,24.93h-6.52Zm-2-5.25-3.21-8.24-3.21,8.24Z"/><path class="cls-17" d="M491.37,88.36a15,15,0,0,1,3.3.36,13.11,13.11,0,0,1,3.24,1.22,7.35,7.35,0,0,1,2.73,2.57A8.89,8.89,0,0,1,502,96.59h-6.2q-.55-3.13-4-3.13a4.5,4.5,0,0,0-2.57.66,2.08,2.08,0,0,0-1,1.82,1.74,1.74,0,0,0,.69,1.49,5.87,5.87,0,0,0,2.15.84l3.46.8a12.67,12.67,0,0,1,5.58,2.42,5.78,5.78,0,0,1,1.9,4.65A7,7,0,0,1,499.2,112a11.9,11.9,0,0,1-7.47,2.17,13,13,0,0,1-7.65-2.21,8.5,8.5,0,0,1-3.54-6.54h6.16a3.79,3.79,0,0,0,1.66,2.57,6.2,6.2,0,0,0,3.55.93,4.79,4.79,0,0,0,2.61-.58,1.82,1.82,0,0,0,.89-1.6q0-1.6-2.62-2.11l-4.08-.91a10.69,10.69,0,0,1-5.43-2.57,6.42,6.42,0,0,1-1.75-4.72,7.2,7.2,0,0,1,2.72-5.89A11,11,0,0,1,491.37,88.36Z"/><path class="cls-17" d="M319.31,155.76H301.74L299,162.89H288l17.63-41.72h9.82L333,162.89H322.12ZM315.89,147l-5.37-13.79L305.16,147Z"/><path class="cls-17" d="M357.74,154.11a10.25,10.25,0,0,0,6.77-2.23,10.66,10.66,0,0,0,3.54-6.19H378.6A19.89,19.89,0,0,1,372,158.78a20.7,20.7,0,0,1-14.15,5,21.55,21.55,0,0,1-15.68-6.13,22.17,22.17,0,0,1,0-30.93,21.55,21.55,0,0,1,15.68-6.13,20.7,20.7,0,0,1,14.15,5,19.89,19.89,0,0,1,6.65,13.08H368a10.67,10.67,0,0,0-3.54-6.19,10.25,10.25,0,0,0-6.77-2.23,10.87,10.87,0,0,0-8.27,3.39,13.07,13.07,0,0,0,0,17.14A10.87,10.87,0,0,0,357.74,154.11Z"/><path class="cls-17" d="M419,130.62H405.87v32.27H395.56V130.62H382.32v-9.21H419Z"/><path class="cls-17" d="M436.67,121.41v41.48H426.36V121.41Z"/><path class="cls-17" d="M490,121.41l-18,41.72H461.62l-18-41.72H455l11.83,28.12,11.83-28.12Z"/><path class="cls-17" d="M517.38,155.76H499.81l-2.75,7.14h-11l17.63-41.72h9.82l17.57,41.72H520.18ZM514,147l-5.37-13.79L503.22,147Z"/><path class="cls-17" d="M552.45,120.5a25.16,25.16,0,0,1,5.52.61,22,22,0,0,1,5.43,2,12.3,12.3,0,0,1,4.57,4.3,14.85,14.85,0,0,1,2.23,6.83H559.83q-.92-5.25-6.71-5.25a7.53,7.53,0,0,0-4.3,1.1,3.49,3.49,0,0,0-1.62,3,2.91,2.91,0,0,0,1.16,2.5,9.84,9.84,0,0,0,3.6,1.4l5.79,1.34q6.16,1.34,9.33,4.06t3.17,7.78a11.79,11.79,0,0,1-4.7,9.85q-4.7,3.63-12.5,3.63a21.69,21.69,0,0,1-12.81-3.69q-5.25-3.69-5.92-10.95h10.31a6.34,6.34,0,0,0,2.78,4.3,10.38,10.38,0,0,0,5.95,1.56,8,8,0,0,0,4.36-1,3,3,0,0,0,1.49-2.68q0-2.68-4.39-3.54L548,146.24q-6.16-1.34-9.09-4.3A10.74,10.74,0,0,1,536,134a12,12,0,0,1,4.54-9.85Q545.07,120.5,552.45,120.5Z"/></g><g id="boton"><rect class="cls-30" x="386.76" y="397.44" width="168.21" height="50.42" rx="22.22" ry="22.22"/><circle class="cls-31" cx="334.47" cy="421.62" r="25.5"/><path class="cls-17" d="M345.56,420.21q-2.46-6.12-13.28-6.12h-3.4v-3.89a1,1,0,0,0-1.65-.68l-7.77,7.77a1,1,0,0,0,0,1.37l7.77,7.77a1,1,0,0,0,1.65-.68v-3.89h3.4q1.49,0,2.66.09a19.2,19.2,0,0,1,2.34.33,8.68,8.68,0,0,1,2,.65,7.15,7.15,0,0,1,1.6,1.05,5.29,5.29,0,0,1,1.21,1.53,8.26,8.26,0,0,1,.74,2.1,12.93,12.93,0,0,1,.27,2.75q0,.83-.08,1.87a3.11,3.11,0,0,1,0,.36,3.12,3.12,0,0,0,0,.4.57.57,0,0,0,.13.38.44.44,0,0,0,.36.15.52.52,0,0,0,.42-.26,1.74,1.74,0,0,0,.2-.33l.2-.46.16-.36a18.22,18.22,0,0,0,1.93-6.85A13.82,13.82,0,0,0,345.56,420.21Z"/></g></g></g></svg>