<?xml version="1.0" encoding="utf-8"?>
<!-- Generator: Adobe Illustrator 21.1.0, SVG Export Plug-In . SVG Version: 6.00 Build 0)  -->
<svg version="1.1" id="Capa_1" xmlns="http://www.w3.org/2000/svg" xmlns:xlink="http://www.w3.org/1999/xlink" x="0px" y="0px"
	 viewBox="0 0 1061.2 596.6" style="enable-background:new 0 0 1061.2 596.6;" xml:space="preserve">
<style type="text/css">
	.st0{fill:none;}
	.st1{fill:#1D1D1B;}
	.st2{fill:url(#SVGID_1_);}
	.st3{clip-path:url(#SVGID_3_);}
	.st4{fill:url(#SVGID_4_);}
	.st5{fill:#00BCD4;}
	.st6{opacity:0.48;}
	.st7{clip-path:url(#SVGID_6_);}
	.st8{fill:#020202;}
	.st9{fill:#3A251E;}
	.st10{fill:#3F2A24;}
	.st11{fill:#EFB49A;}
	.st12{fill:#DAA284;}
	.st13{fill:#3FB539;}
	.st14{fill:#383D46;}
	.st15{fill:#FFFFFF;}
	.st16{fill:#57453F;}
	.st17{fill:#FC8080;}
	.st18{fill:#D6957C;}
	.st19{fill:#40338C;}
	.st20{fill:#48CFE5;}
	.st21{fill:#43BCC9;}
	.st22{fill:#C18063;}
	.st23{fill:#71E230;}
	.st24{fill:#CFD8DC;}
	.st25{fill:#607D8B;}
	.st26{fill:#455A64;}
	.st27{fill:#4DD0E1;}
</style>
<pattern  y="596.6" width="28.8" height="28.8" patternUnits="userSpaceOnUse" id="_10_ppp_60_" viewBox="4.3 -33.1 28.8 28.8" style="overflow:visible;">
	<g>
		<rect x="4.3" y="-33.1" class="st0" width="28.8" height="28.8"/>
		<rect x="4.3" y="-33.1" class="st0" width="28.8" height="28.8"/>
		<circle class="st1" cx="33.1" cy="-33.1" r="4.3"/>
		<circle class="st1" cx="18.7" cy="-33.1" r="4.3"/>
		<circle class="st1" cx="33.1" cy="-18.7" r="4.3"/>
		<circle class="st1" cx="18.7" cy="-18.7" r="4.3"/>
		<circle class="st1" cx="11.5" cy="-25.9" r="4.3"/>
		<circle class="st1" cx="25.9" cy="-25.9" r="4.3"/>
		<circle class="st1" cx="11.5" cy="-11.5" r="4.3"/>
		<circle class="st1" cx="25.9" cy="-11.5" r="4.3"/>
		<circle class="st1" cx="4.3" cy="-33.1" r="4.3"/>
		<circle class="st1" cx="4.3" cy="-18.7" r="4.3"/>
		<circle class="st1" cx="33.1" cy="-4.3" r="4.3"/>
		<circle class="st1" cx="18.7" cy="-4.3" r="4.3"/>
		<circle class="st1" cx="4.3" cy="-4.3" r="4.3"/>
	</g>
</pattern>
<title>pausas</title>
<g>
	<g id="Capa_2">
		<g id="cuadro">
			
				<linearGradient id="SVGID_1_" gradientUnits="userSpaceOnUse" x1="71.07" y1="373.075" x2="976.97" y2="373.075" gradientTransform="matrix(1 0 0 -1 0 598)">
				<stop  offset="0.18" style="stop-color:#009427"/>
				<stop  offset="0.33" style="stop-color:#008E26"/>
				<stop  offset="0.54" style="stop-color:#007B22"/>
				<stop  offset="0.79" style="stop-color:#005E1D"/>
				<stop  offset="1" style="stop-color:#003E17"/>
			</linearGradient>
			<path class="st2" d="M113.5,19.6H777c23.4,0,42.4,19,42.4,42.4v325.8c0,23.4-19,42.4-42.4,42.4H113.5c-23.4,0-42.4-19-42.4-42.4
				V62C71.1,38.6,90.1,19.6,113.5,19.6z"/>
			<g>
				<defs>
					<path id="SVGID_2_" d="M113.5,19.4H777c23.4,0,42.4,19,42.4,42.4v325.8c0,23.4-19,42.4-42.4,42.4H113.5
						c-23.4,0-42.4-19-42.4-42.4V61.8C71.1,38.4,90.1,19.4,113.5,19.4z"/>
				</defs>
				<clipPath id="SVGID_3_">
					<use xlink:href="#SVGID_2_"  style="overflow:visible;"/>
				</clipPath>
				<g class="st3">
					<pattern  id="SVGID_4_" xlink:href="#_10_ppp_60_" patternTransform="matrix(0.61 0 0 -0.55 -3027.1191 -12465.3506)">
					</pattern>
					<rect y="18.2" class="st4" width="970.7" height="486.5"/>
				</g>
			</g>
			<path class="st5" d="M612.3,137.1h241.7c2.6,0,4.7,2.1,4.7,4.7v0.7c0,2.6-2.1,4.7-4.7,4.7H612.3c-2.6,0-4.7-2.1-4.7-4.7v-0.7
				C607.5,139.2,609.7,137.1,612.3,137.1z"/>
			<path class="st5" d="M251.9,136.2H70v11h181.9c2.8,0,5.1-2.3,5.1-5.1v-0.7C257,138.5,254.7,136.2,251.9,136.2z"/>
		</g>
		<g id="personaje">
			<g class="st6">
				<g>
					<defs>
						<path id="SVGID_5_" d="M113.5,18.4H777c23.4,0,42.4,19,42.4,42.4v325.8c0,23.4-19,42.4-42.4,42.4H113.5
							c-23.4,0-42.4-19-42.4-42.4V60.8C71.1,37.4,90.1,18.4,113.5,18.4z"/>
					</defs>
					<clipPath id="SVGID_6_">
						<use xlink:href="#SVGID_5_"  style="overflow:visible;"/>
					</clipPath>
					<g class="st7">
						<path class="st8" d="M897.1,553.9h-0.5C893.9,564,897.1,553.9,897.1,553.9z"/>
						<path class="st8" d="M1059.7,388.1l-2.8-14.3l1.5-0.5l2.8-10.2l-13.4-27.6l-1.4,1.1c-0.3-3.8-0.3-6.9,0.4-8l0.8-1.3
							c0.3-0.5,0.4-1,0.3-1.6l-2.3-12.7c-1.4-7.4-7.4-12.7-14-12.5v-0.2l3.8-0.7c4.2-0.8,6.8-5.2,6-9.8s-4.9-7.8-9.1-7.1l-7.9,1.4
							c-1.1-2.3-3.6-3.6-6.1-3.2c-3.1,0.6-5.1,3.9-4.5,7.4l0.4,2.1l-1.9,0.3c-1.1,0.2-1.8,1.3-1.5,2.4c0,0,0,0,0,0.1l2,10.7
							c-6.2,2.2-10,9.2-8.7,16.7l2.3,12.7c0.1,0.5,0.4,1,0.8,1.4l1.2,0.9c1.4,1.1,3,5.8,4.2,11.2l-4.8,4.6l-5.5,15.4l-5,9.1v0
							l-68,36.9c1.2-14.9,2.7-31.5,4.5-42c2.6-16,6.6-35.5,8.4-49c5.9-2.8,10.6-7.6,13.3-13.5c-10.1-3.5-16.8-13.4-19.3-23.8
							s-1.5-21.2-0.5-31.8L946,145.3c2.3-24.5,4.7-49.4,0-73.6s-17.3-47.9-38.6-60.3c-18.6-10.8-44.3-10.3-60.7,3
							c-1.5-1.1-3.1-2.1-4.7-3c-15.5-8-34.2-8.4-51-3.8c-13.2,3.6-26,10.4-34.5,21.2c-7.9,10-11.8,22.5-14.3,35
							c-2.7,13-4.2,26.3-4.5,39.5c-0.2,6.4,0,12.9,1.8,19c1.8,5.9,5.2,11.4,10.4,14.6c0.1-0.2,0.3-0.5,0.4-0.8l-0.1,1l-0.3-0.2
							c-0.1,0.2-0.2,0.4-0.4,0.7l0.7-0.1c-0.4,6-0.9,12-1.6,18.4c-2.2,20.3,9.6,63.1,49.8,79.8c0,0,5.3-0.9,12.9-2.8
							c-0.4,3.6-0.8,7.6-1.3,12c-1.4,11.3-12.3,18-21.7,21.8l0.2-0.4l-8.2,0.8l0.2-0.4l-3.3,0.7l-14,1.4c-7-0.7-15,1.4-22.6,10.3
							c-16,18.9-43.4,67.5-56.4,89.4l-9.6-47.8l0.4-0.1c0.7-0.1,1.3-0.5,1.9-0.9c0.6-0.7,1-1.6,1-2.6c0.7-6.1-0.5-12.2-3.5-17.6
							c-0.2,0.1-0.3,0.2-0.4,0.3c0-0.3,0-0.6,0-0.9c-0.1-1.3-0.8-2.4-2-2.9c-0.7-0.2-1.6-0.1-2.2,0.4l-1.4-6.9
							c0-1.4-0.3-2.9-0.6-4.2c2.5-2.7,4.2-6,4.8-9.6L676,263l-6.1-14.2c0,0-3.6-12.7-2.1-21.1c0.2-1.1-0.8-22.2-1-23.7
							c-1.1-9.1-9.8-4.7-9.8-4.7l2.1,38.4l-13-38.3l-7.9,3.3l4.5,13.2l8.4,25.6l-10.5-3.5l-4.5,7.2c0,0-5.5,5.3-5.2,16.4
							c0.3,8.2,0.2,21.6,9.2,27.1c0,2.7,0.2,5.3,0.8,7.9c0.2,1,0.4,2.4,0.7,4.1c-0.1,0.1-0.2,0.2-0.3,0.2l0.3-0.4
							c-1.2,1.3-2.2,2.8-2.9,4.4c-0.3,0.9-0.4,1.9-0.3,2.9c0,0.5,0,0.9,0,1.4c-0.2,0.7-0.1,1.4,0.2,2c0.8,3.7,2.1,7.3,3.8,10.6
							c0.3,0.8,0.8,1.5,1.4,2.1c0.4,0.4,1,0.6,1.5,0.7c5,34.6,12,87.2,12,87.2s6.6,15.2,19.5,11.7c2.3-0.6,4.5-1.8,6.3-3.4
							c10.1-2.7,27-17.4,35.8-24.4c1-0.8,2.3-1.9,3.7-3.2c0.7,5.1,1.7,9.9,2.7,14.7l-0.2-0.4l3.8,24l1.5,3
							c1.5,7.9,3.2,16.6,4.7,25.7l-0.4,0.7l2.3,12.3l0.2-0.4c1.4,9,2.7,18.1,3.6,27l-0.1,46.5c-3.7,5.1,0,4.2,0,4.2
							c42.7,13.1,148,4.9,155.8,4.3v0h0.5l-0.2-1l0.4-1.6c3.9-14.3-2.5-9.7-2.5-9.7h-0.1l-8.1-41.2l-1,0
							c-1.7-34.5-0.8-53.5-0.8-53.5c1.9-5.4,3.7-10.8,5.5-16.2c1.1,4.6,1.9,8.3,2.7,11.4c-1.3,8.4,4.6,14.8,4.6,14.8
							c10.6,13.8,36.2-4.4,36.2-4.4l74.8-56c2.2-0.9,4.3-2.1,6.1-3.6l2.8-0.4l0.7,3.4c1.5,8.2,8.6,13.7,15.9,12.4l15.1-2.8
							C1056.4,404,1061.1,396.3,1059.7,388.1z M855.5,212.9c4.3,0.7,8.6,0.4,12.7-1.1c8-2.8,13.8-9.3,18.2-16.8
							c-2,15.9-4.2,31.8-5.4,47.8c-0.8,10.2-1.1,20.7,0.1,30.9l-0.4-0.1l-0.1,0.2l-0.7-0.2c-0.1-0.1-0.2-0.2-0.4-0.2l-1.4-0.3
							l-3.1-0.9l-0.1,0.2c-27.6-6.3-26.5-18.2-25.3-28.3c1.2-10.6,2.6-28.1,2.6-28.1s0-0.1,0-0.4
							C853.4,214.8,854.5,213.9,855.5,212.9z M1033,286.9c2.4-0.1,4.4,1.7,4.6,4c0.1,2-1.1,3.8-3,4.4l-3.8,0.7l-1.2-6.3
							c-0.1-1.1-1.1-1.9-2.2-1.8c0,0,0,0-0.1,0L1033,286.9z"/>
					</g>
				</g>
			</g>
		</g>
		<g id="Capa_6">
			<path class="st9" d="M850.9,17c15.3-19.3,45.7-21.7,67-9.4s34,36.1,38.7,60.2s2.4,49.1,0.1,73.6l-10.1,107.3
				c-1,10.6-2,21.4,0.5,31.8s9.2,20.3,19.3,23.8c-6.4,14.5-25.4,20.6-40.4,15.6S900.2,301,895.3,286s-4.7-31.2-3.6-47
				c3.2-44.2,13.7-88.1,9.8-132.2c-1.9-21.8-8.7-45.4-27.1-57.4c-6.7-4.4-14.7-7-20.5-12.6s-8.3-16-2.2-21.3"/>
			<path class="st10" d="M857.6,206c6.5,3.7,14.3,4.5,21.3,2c11.6-4.1,18.5-15.9,23.4-27.1c9.5-21.9,14.9-45.2,16.2-69
				c0.7-14.1-0.8-30-11.5-39.1c-2.9-2.4-6.1-4.3-9.6-5.8c-11.2-5.3-23.3-8.6-35.6-9.8c-6.5-0.6-13.4-0.5-19,2.7
				c-6.9,4-10.3,12-12.4,19.7c-7.3,27.1-2.6,55.9,2.6,83.5c1.7,8.8,3.4,17.6,7.3,25.6s10.1,15.3,18.3,18.6"/>
			<path class="st11" d="M792.3,273.5c0,0-22.2-20.4-41.1,1.9s-53.6,86.2-61.9,98.3s-11,33.9-1.5,41.9c7.1,6,30.8-15,42-23.8
				s49.9-53.3,57.6-66.4C802.7,299.9,798,281.9,792.3,273.5z"/>
			<path class="st12" d="M785.2,267c0,0,33-5.7,35.4-25.9s3.1-33.1,3.1-33.1s1.8-13.4,21.5-11.6s17.8,15.8,17.8,15.8
				s-1.3,17.5-2.5,28.1s-2.4,23.3,29.9,29.2c5.6,1-15.1,77.8-81.5,67C761.5,328.9,785.2,267,785.2,267z"/>
			<path class="st13" d="M899.3,536.7c-5.4-59.6-3.7-93.7-3.7-93.7c28-79.4,37.4-160.8,37.4-160.8l-47.2-13.9c0,0-23.5,68.4-70.5,64
				c-52.2-4.8-16.2-69.8-16.2-69.8l-28.4,2.8c0,0-24.9,56.9-31.7,76c-12,34-4.3,52.4-0.7,72.8c6,33.5,20,95.3,13.3,130.5
				L899.3,536.7z"/>
			<path class="st12" d="M938,442.3c0,0,3-52.2,6.7-75.5s10.4-54,9.1-62.8s-8-18.7-21.1-22.1s-22.8,18.6-25.5,41.7
				s-10.3,85.5-6.1,102.6s3.9,22.6,13.1,25.7C922.3,454.6,930.3,460.3,938,442.3z"/>
			<path class="st12" d="M701.8,399.4l-0.4-2.7L679,285.9c0,0,0.1-13.4-12.6-14.5s-17.5,7.3-14.7,21.4S668.1,408,668.1,408
				s6.6,15.2,19.5,11.7S701.8,399.4,701.8,399.4z"/>
			<path class="st12" d="M683.1,272c-2.9,16-19.2,15.1-19.2,15.1c-22.1,2.1-21.8-18.3-22.2-29.4s5.2-16.4,5.2-16.4l4.5-7.2l10.5,3.5
				l-8.4-25.6l-4.5-13.1l7.9-3.3l13,38.3l-2.2-38.4c0,0,8.6-4.4,9.8,4.7c0.2,1.4,1.2,22.5,1,23.7c-1.5,8.4,2.1,21.1,2.1,21.1
				l6.1,14.2L683.1,272z"/>
			<path class="st11" d="M888.3,137.3c0,0-7-15.1-7.5-47.8c-0.3-24-31-32.9-40.5-33.3c0,0-10.6-8.2-31.9-6
				c-25.1,2.7-41.6,26.9-43.3,38.6c-4,27.5-3.8,43.1-5.9,63.3s9.6,63.1,49.8,79.8c0,0,41.3-6.8,57.6-23.4
				C866.7,208.5,888.1,193.9,888.3,137.3z"/>
			<path class="st14" d="M839.6,137c2.5,3.9,7.7,5.2,11.8,3c3.8-2,5.4-6.7,3.4-10.5c-0.1-0.2-0.2-0.3-0.3-0.5
				c-2.5-3.9-7.6-5.3-11.7-3.1c-3.8,1.9-5.4,6.6-3.5,10.5C839.4,136.6,839.5,136.8,839.6,137z"/>
			<path class="st15" d="M844.1,134.6c1.4-0.7,1.9-2.4,1.2-3.7c0-0.1-0.1-0.1-0.1-0.2c-0.9-1.4-2.7-1.9-4.2-1.1
				c-1.4,0.7-1.9,2.4-1.2,3.7c0,0.1,0.1,0.1,0.1,0.2C840.8,134.9,842.6,135.3,844.1,134.6z"/>
			<path class="st14" d="M777.7,132.8c2.5,3.9,7.6,5.3,11.7,3.1c3.8-2,5.4-6.7,3.4-10.5c-0.1-0.2-0.2-0.3-0.3-0.5
				c-2.5-3.9-7.6-5.3-11.7-3.1c-3.8,2-5.4,6.7-3.4,10.5C777.5,132.4,777.6,132.6,777.7,132.8z"/>
			<path class="st15" d="M782.2,130.3c1.4-0.7,1.9-2.4,1.2-3.7c0-0.1-0.1-0.1-0.1-0.2c-0.9-1.4-2.7-1.9-4.2-1.1
				c-1.4,0.7-1.9,2.4-1.2,3.7c0,0.1,0.1,0.1,0.1,0.2C778.9,130.6,780.7,131.1,782.2,130.3z"/>
			<path class="st16" d="M828.1,104.9c15.9-5,31.5-1.4,37.4,4.8s0.8-4.6-4.2-7.3c-11.9-6.4-22.2-6.3-30.9-4
				C816.2,102.1,823.8,106.3,828.1,104.9z"/>
			<path class="st16" d="M794.5,101.3c-11.9-6.4-25.1-5-30.9-0.2s0.2-4.2,4.6-6c10.7-4.3,18.9-3,25.5,0.1
				C804.5,100.2,797.8,103,794.5,101.3z"/>
			<path class="st17" d="M807,172.2c-0.2-0.1-0.3-0.2-0.5-0.3l-10.6-9c-0.8-0.8-0.9-2-0.1-2.8c0.4-0.4,1-0.7,1.5-0.6l21.1,1.8
				c1.1,0.1,1.9,1.1,1.7,2.2c-0.1,0.6-0.4,1.1-0.9,1.4l-11.9,7.1C807.3,172.1,807.1,172.2,807,172.2z"/>
			<path class="st15" d="M793,187.1c0,0,10.1,1.6,17.9,2.1s14.1,0.5,14.1,0.5c-5.6,2.4-11.8,3.5-17.9,3.1
				C797.2,192.1,793,187.1,793,187.1z"/>
			<path class="st12" d="M1000.8,367.4l-54.7,75.7c0,0-19.1,25-33.3,15c0,0-21.4-12.2,2.1-35.8l71.8-73.8c0,0,12.1-12.5,21.1-2.5
				C1007.8,346,1012.7,357.3,1000.8,367.4z"/>
			<path class="st10" d="M837.7,50.3c3,13.4,17.5,20.2,27.2,29.9c16.3,16.2,13.7,46.1,14.6,69.1c0.1,1.6,0.2,3.5,1.4,4.6
				c0.8,0.7,2.7,2.2,2.9,1.2c2.1-12.2,3.2-14.7,5.8-21c5.9-14.2,17.9,35.5,26.8-35.4c1.9-15.3,1.5-37-6.6-50.2
				c-6.8-11-17.7-19-29.5-24.1c-5.8-2.5-12.1-4.3-18.2-2.9c-11.7,2.6-17.7,15.2-22.1,26.3c-0.7,1.8-1.4,3.7-0.8,5.5"/>
			<path class="st9" d="M760.1,133.9c4.7-8.1,4.4-18,5.6-27.3c1.5-11,5.5-21.9,12.5-30.5s17.1-15,28.1-16.6
				c11.7-1.7,24.4,1.8,35.2-3c4.3-1.9,8-5.1,11.6-8.2c7-6,14.6-13.5,13.9-22.7c-0.6-8-7.4-14.1-14.5-17.8c-15.5-8-34.2-8.4-51-3.7
				c-13.2,3.6-26,10.4-34.5,21.2c-7.9,10-11.8,22.5-14.3,35c-2.7,13-4.2,26.3-4.5,39.5c-0.2,6.4,0,12.9,1.8,19s5.6,11.9,11.2,15"/>
			<path class="st12" d="M887.7,132.6c0,0,9.4-14.3,17.1-10.4c17.3,8.9,0.2,54.5-19.7,38.4L887.7,132.6z"/>
			<polygon class="st18" points="751.9,489 751.8,545.8 908,550 897.5,496.5 			"/>
			<path class="st19" d="M753.3,526.8c0,0,42.6,6.5,63.6,2.8c0,0,70.7-1.3,90.6-11.9c0,0,20.9,47,18.4,64.6
				c-3.1,22.2-56.3,11.9-56.3,11.9s-80.4,5-124.5-11.5C745.1,582.6,749.1,534,753.3,526.8z"/>
			<path class="st20" d="M652.4,296.7c-1.2,1.3-2.2,2.8-2.9,4.4c-0.7,1.7-0.5,3.6,0.4,5.1c1,1.5,3,2.3,4.8,2.7
				c7.3,1.5,14.9,0.4,21.4-3.3c3.1-1.5,5.7-3.9,7.6-6.8c0.7-1.1,1-2.3,0.9-3.5c-0.1-1.3-0.8-2.4-2-2.9c-1.2-0.4-2.5,0.2-2.8,1.4
				c0,0,0,0.1,0,0.1c0,0.4-0.1,0.9-0.1,1.3c-0.2,0.7-1.1,1-1.8,1.2c-6,1.9-12.1,3.8-18.4,4.1c-1.3,0.1-2.6-0.1-3.8-0.6
				c-1.2-0.6-1.8-1.9-1.6-3.2c-0.9-0.4-2,0.1-2.4,1c0,0,0,0,0,0"/>
			<path class="st21" d="M649.2,302.5c-0.7,5.3,1.7,10.5,3.9,15.4c0.3,0.8,0.8,1.5,1.4,2.1c1.1,0.7,2.4,1,3.7,0.9
				c9.3,0,18.6-1.4,27.5-4c0.7-0.1,1.3-0.5,1.9-0.9c0.6-0.7,1-1.6,1-2.6c0.7-6.1-0.6-12.2-3.6-17.5c-1.3,0.7-2,2.1-2.8,3.4
				c-1.1,1.8-2.6,3.4-4.4,4.7c-6.2,4.2-14.4,3.4-21.9,2.4c-2.2-0.3-4.5-0.6-6-2.2c-1.1,0.9-1.2,2.5-0.4,3.5c0,0,0,0.1,0.1,0.1"/>
			<path class="st22" d="M809.6,504.3c-1.5,4.9-0.7,10.2,2,14.5c2-5.6,1.8-11.6-0.5-17.1c-0.8,2.5-1.1,5.1-0.9,7.7"/>
			<path class="st23" d="M782.9,264.8c-0.7,1.1-29.3,77.1-33.6,83c0,0-7.8,18.2-8,31.1c0,0.6,13.8,50.8,13.8,50.8l7.9-6.1
				c0,0-17-46.6-9.5-60.3S791.1,263,791.1,263L782.9,264.8z"/>
			<path class="st23" d="M862.7,387.5c1.9-15.5,40.7-114.1,40.7-114.1l-12-3.7c-0.7,1.1-41,104.8-45.3,110.7l-14,67.1l32.2,46.9
				l17.1,1.6l-35.4-50.2L862.7,387.5z"/>
			<polygon class="st23" points="756.7,407.4 773.6,452 751.9,489 749.9,478 762.3,453.1 744.1,389.9 			"/>
			<path class="st23" d="M870.8,429.6l-14.3,24.1l38.9,35l-0.4-14.7l-27.7-21.9l33.4-35.6l-2-15.7
				C898.9,400.8,888.5,405.9,870.8,429.6z"/>
			<polygon class="st23" points="736,402.9 756.8,453 748,468.6 745.7,456.3 750.8,448.2 739.8,426.9 			"/>
			<polygon class="st12" points="997.8,368.7 1018.9,365.5 1036,357.3 1035,353.3 1022.9,330 1015,330.6 994.3,349.5 			"/>
			<path class="st24" d="M1024.9,274.5l-5.7,1c-1.2,0.1-2.2-0.8-2.3-2c-0.1-1,0.6-1.9,1.5-2.2l5.7-1c2.3-0.7,3.6-3.1,2.9-5.4
				c-0.6-1.9-2.4-3.2-4.4-3l-9.4,1.7c-1.2,0.1-2.2-0.8-2.3-2c-0.1-1,0.6-1.9,1.5-2.2l9.4-1.7c4.2-0.8,8.2,2.4,9.1,7.1
				S1029.1,273.8,1024.9,274.5z"/>
			<path class="st25" d="M1007.9,255.9c-3.1,0.6-5.1,3.9-4.5,7.4l0.8,4.2c0.1,1.1,1.1,1.9,2.2,1.8c0,0,0,0,0.1,0l7.5-1.4
				c1.1-0.2,1.8-1.3,1.5-2.4c0,0,0,0,0-0.1l-0.8-4.2C1014,257.7,1011,255.3,1007.9,255.9z"/>
			<path class="st26" d="M1001.9,265.7l15.1-2.8c1.1-0.2,2.1,0.6,2.3,1.7c0,0,0,0,0,0.1l2.3,12.7c0.3,1.1-0.4,2.2-1.4,2.4
				c0,0,0,0-0.1,0l-15,2.8c-1.1,0.2-2.1-0.6-2.3-1.7c0,0,0,0,0-0.1l-2.3-12.7C1000.1,267.1,1000.8,266,1001.9,265.7
				C1001.8,265.7,1001.8,265.7,1001.9,265.7z"/>
			<path class="st5" d="M1037.2,302.2c0.3-0.5,0.4-1,0.3-1.6l-2.3-12.7c-1.5-8.2-8.6-13.7-15.9-12.4l-15.1,2.8
				c-7.3,1.3-12,9-10.5,17.2l2.3,12.7c0.1,0.5,0.4,1,0.8,1.4l1.2,0.9c3.5,2.7,7.9,26.3,5.6,30.1l-0.8,1.3c-0.3,0.5-0.4,1-0.3,1.6
				l5.3,27.2c1.5,8.2,8.6,13.7,15.9,12.4l15.1-2.8c7.3-1.3,12-9,10.5-17.2l-5.3-27.2c-0.1-0.5-0.4-1-0.8-1.4l-1.2-0.9
				c-3.5-2.7-7.9-26.3-5.6-30.1L1037.2,302.2z"/>
			<path class="st27" d="M1022.2,374.6c-3.1,0.6-6.2-1.8-6.8-5.3l-3.3-17.8c-0.1-0.5,0-1,0.2-1.4c3.2-6.9-3.2-40.1-8.7-45.4
				c-0.3-0.3-0.6-0.8-0.7-1.2l-1.7-9.3c-0.6-3.5,1.4-6.8,4.5-7.4c1.2-0.1,2.2,0.8,2.3,2c0.1,1-0.6,1.9-1.5,2.2
				c-1.1,0.2-1.8,1.3-1.5,2.4c0,0,0,0,0,0.1l1.6,8.6c6.2,6.5,12.9,41.2,9.4,49.5l3.1,17c0.1,1.1,1.1,1.9,2.2,1.8c0,0,0,0,0.1,0
				c1.2-0.1,2.2,0.8,2.3,2C1023.7,373.3,1023.1,374.3,1022.2,374.6L1022.2,374.6z"/>
			<polygon class="st12" points="992.4,337.2 997.3,324.1 1010.2,312.9 1014.6,318.5 1006.6,328 1006.3,343.4 996.9,354.1 
				987.9,344.9 			"/>
			<path class="st12" d="M1037.4,310.4c-2.2,1.7-15.6,11.3-15.6,11.3l0.9,8.4l3.9,5l1.7,7.6l1.6,6.7l3.1,4.2l15-5.4l2.8-10.2
				L1037.4,310.4z"/>
		</g>
	</g>
</g>
</svg>
