<?xml version="1.0" encoding="utf-8"?>
<!-- Generator: Adobe Illustrator 21.1.0, SVG Export Plug-In . SVG Version: 6.00 Build 0)  -->
<svg version="1.1" id="Capa_1" xmlns="http://www.w3.org/2000/svg" xmlns:xlink="http://www.w3.org/1999/xlink" x="0px" y="0px"
	 viewBox="0 0 1011.4 697.9" style="enable-background:new 0 0 1011.4 697.9;" xml:space="preserve">
<style type="text/css">
	.st0{fill:none;}
	.st1{fill:#1D1D1B;}
	.st2{fill:url(#SVGID_1_);}
	.st3{clip-path:url(#SVGID_3_);}
	.st4{fill:url(#SVGID_4_);}
	.st5{fill:#3E63FF;}
	.st6{fill:#DAA284;}
	.st7{fill:#C6C6C6;}
	.st8{fill:#6B361F;}
	.st9{fill:#3A489B;}
	.st10{fill:#434DAA;}
	.st11{fill:#4E5DB7;}
	.st12{fill:#EFB49A;}
	.st13{fill:#383D46;}
	.st14{fill:#FFFFFF;}
	.st15{fill:#FC8080;}
	.st16{fill:#636363;stroke:#636363;stroke-width:1.4;stroke-miterlimit:10;}
	.st17{fill:#CDF8F9;}
	.st18{fill:#636363;}
</style>
<pattern  y="697.9" width="28.8" height="28.8" patternUnits="userSpaceOnUse" id="_10_ppp_60_" viewBox="4.3 -33.1 28.8 28.8" style="overflow:visible;">
	<g>
		<rect x="4.3" y="-33.1" class="st0" width="28.8" height="28.8"/>
		<rect x="4.3" y="-33.1" class="st0" width="28.8" height="28.8"/>
		<circle class="st1" cx="33.1" cy="-33.1" r="4.3"/>
		<circle class="st1" cx="18.7" cy="-33.1" r="4.3"/>
		<circle class="st1" cx="33.1" cy="-18.7" r="4.3"/>
		<circle class="st1" cx="18.7" cy="-18.7" r="4.3"/>
		<circle class="st1" cx="11.5" cy="-25.9" r="4.3"/>
		<circle class="st1" cx="25.9" cy="-25.9" r="4.3"/>
		<circle class="st1" cx="11.5" cy="-11.5" r="4.3"/>
		<circle class="st1" cx="25.9" cy="-11.5" r="4.3"/>
		<circle class="st1" cx="4.3" cy="-33.1" r="4.3"/>
		<circle class="st1" cx="4.3" cy="-18.7" r="4.3"/>
		<circle class="st1" cx="33.1" cy="-4.3" r="4.3"/>
		<circle class="st1" cx="18.7" cy="-4.3" r="4.3"/>
		<circle class="st1" cx="4.3" cy="-4.3" r="4.3"/>
	</g>
</pattern>
<title>prevencion_1</title>
<g>
	<g id="Capa_2">
		<g id="cuadro">
			
				<linearGradient id="SVGID_1_" gradientUnits="userSpaceOnUse" x1="72.17" y1="422.595" x2="978.06" y2="422.595" gradientTransform="matrix(1 0 0 -1 0 700)">
				<stop  offset="0.14" style="stop-color:#2CB3FF"/>
				<stop  offset="0.29" style="stop-color:#29ADF9"/>
				<stop  offset="0.49" style="stop-color:#209DE9"/>
				<stop  offset="0.71" style="stop-color:#1181CF"/>
				<stop  offset="0.92" style="stop-color:#0061AF"/>
			</linearGradient>
			<path class="st2" d="M114.6,72.1h663.5c23.4,0,42.4,19,42.4,42.4v325.8c0,23.4-19,42.4-42.4,42.4H114.6
				c-23.4,0-42.4-19-42.4-42.4V114.5C72.2,91.1,91.2,72.1,114.6,72.1z"/>
			<g>
				<defs>
					<path id="SVGID_2_" d="M114.6,71.9h663.5c23.4,0,42.4,19,42.4,42.4v325.8c0,23.4-19,42.4-42.4,42.4H114.6
						c-23.4,0-42.4-19-42.4-42.4V114.3C72.2,90.9,91.2,71.9,114.6,71.9z"/>
				</defs>
				<clipPath id="SVGID_3_">
					<use xlink:href="#SVGID_2_"  style="overflow:visible;"/>
				</clipPath>
				<g class="st3">
					<pattern  id="SVGID_4_" xlink:href="#_10_ppp_60_" patternTransform="matrix(0.61 0 0 -0.55 -3030.5271 -12544.6826)">
					</pattern>
					<rect y="68.5" class="st4" width="970.7" height="486.5"/>
					<path class="st5" d="M670.4,189.6H912c2.6,0,4.7,2.1,4.7,4.7v0.7c0,2.6-2.1,4.7-4.7,4.7H670.4c-2.6,0-4.7-2.1-4.7-4.7v-0.7
						C665.7,191.7,667.8,189.6,670.4,189.6z"/>
					<path class="st5" d="M217,188.7H72.1v11H217c2.8,0,5.1-2.3,5.1-5.1v-0.7C222.1,191,219.8,188.7,217,188.7z"/>
				</g>
			</g>
		</g>
		<g id="personaje">
			<path class="st6" d="M691.1,309.7c0,0,10.7-5,12.2-14s-0.4-17.3,0.5-25.2s2.3-9.6,2.3-9.6l-6-2.5c0,0-4.1,3.7-6.8,12.7
				c-2.3,7.6-1.2,7.1-1.2,7.1s-6.1-16.7-13.3-27c-5.2-7.4-14.6-16.9-14.6-16.9l-8.3,6.3l-4.8-4.7l-6.5,7.4l3.2,6.3l-4.7,5l2.3,5.4
				l-2.4,2.7c0,0,8.8,14,10.5,22.8S673.4,320.3,691.1,309.7z"/>
			<path class="st6" d="M684,300.1L684,300.1c5.2-1.1,10.3,2.2,11.4,7.4l4.6,21.6c1.1,5.2-2.2,10.3-7.4,11.4l0,0
				c-5.2,1.1-10.3-2.2-11.4-7.4l-4.6-21.6C675.5,306.3,678.8,301.2,684,300.1z"/>
			<path class="st7" d="M673.8,251"/>
			
				<ellipse transform="matrix(0.1326 -0.9912 0.9912 0.1326 519.6785 923.7484)" class="st8" cx="787.6" cy="165" rx="52.4" ry="48.8"/>
			
				<ellipse transform="matrix(0.1326 -0.9912 0.9912 0.1326 653.1519 1068.798)" class="st8" cx="937.2" cy="161.2" rx="52.4" ry="48.8"/>
			
				<ellipse transform="matrix(0.1326 -0.9912 0.9912 0.1326 485.0306 972.0712)" class="st8" cx="797.9" cy="208.9" rx="52.4" ry="48.8"/>
			
				<ellipse transform="matrix(0.1326 -0.9912 0.9912 0.1326 514.4599 1028.1412)" class="st8" cx="844.7" cy="220.1" rx="52.4" ry="48.8"/>
			
				<ellipse transform="matrix(0.1326 -0.9912 0.9912 0.1326 584.1108 1096.4875)" class="st8" cx="918.5" cy="214.5" rx="52.4" ry="48.8"/>
			<path class="st9" d="M824.7,298.5c0,0-25.9-19.8-44,6.2s-49.1,98.2-56.8,112s-8.4,37.6,2.5,45.2c8.2,5.7,31.7-19.2,42.8-29.8
				s48.3-62.3,55.4-77.2C838.5,325.9,831.6,307.1,824.7,298.5z"/>
			<path class="st6" d="M816.4,292.3c0,0,35-9.5,35.6-31.4s0-35.9,0-35.9s0.6-14.6,21.9-14.6s20.7,15.2,20.7,15.2s0.3,18.9,0.1,30.4
				c-0.2,11.5-0.3,25.3,35.1,28.5c6.1,0.5-8.5,85.2-81,80.3C797.1,361.2,816.4,292.3,816.4,292.3z"/>
			<path class="st10" d="M982.1,659.6c-11.7-63.6-18.3-195.2-18.3-195.2c22.2-88.3,13.3-170.6,13.3-170.6l-52.2-10.2
				c0,0-8.8,41.2-59.8,41.2c-56.7,0-34-38.8-34-38.8l-30.3,5.9c0,0-21.1,63.7-26.5,85c-9.5,37.8,0.5,56.8,6.5,78.5
				c9.8,35.4,15,164.6,11.3,203.2L982.1,659.6z"/>
			<path class="st11" d="M970.4,467.4c0,0-4-56.4-8.5-81.5s-11.7-60.3-10.4-69.8s7-24.4,22-22.2c14.5,2.2,26.5,16,29.9,40.9
				s10.8,96,6.6,114.5s-3.9,24.5-13.8,28C987.5,480.4,978.9,486.7,970.4,467.4z"/>
			<path class="st9" d="M739.8,443.1l-0.8-2.8l-35.1-117c0,0-0.7-10.8-13.7-6.2c-16.1,5.6-19.5,1.5-15,16.4s29.1,122.4,29.1,122.4
				s8.7,15.7,22.2,10.6S739.8,443.1,739.8,443.1z"/>
			<path class="st12" d="M914.4,142.4c0,0,1.4-18.1-2.4-53.2c-2.8-25.8-47-29.8-57.3-29.3c0,0-12.3-7.8-34.9-3.2
				c-26.8,5.4-42.1,33.1-42.8,45.8c-1.6,30,0.3,46.7,0,68.8s16.6,67,61.6,80.9c0,0,43.7-11.4,59.7-30.9
				C898.2,221.2,919.8,203.4,914.4,142.4z"/>
			<path class="st13" d="M861.9,146.9c3.1,4,8.7,4.9,12.9,2.1c3.9-2.5,5.1-7.7,2.6-11.6c-0.1-0.2-0.3-0.4-0.4-0.6
				c-3.1-4-8.7-4.9-12.9-2.1c-3.9,2.5-5.1,7.7-2.7,11.6C861.7,146.5,861.8,146.7,861.9,146.9z"/>
			<path class="st14" d="M866.5,143.9c1.4-0.9,1.8-2.7,0.9-4.1c0-0.1-0.1-0.1-0.1-0.2c-1.1-1.4-3.1-1.7-4.6-0.8
				c-1.4,0.9-1.8,2.7-0.9,4.1c0,0.1,0.1,0.1,0.1,0.2C863,144.5,865,144.9,866.5,143.9z"/>
			<path class="st13" d="M794.9,148.6c3.1,4,8.7,4.9,12.9,2.1c3.9-2.5,5.1-7.7,2.6-11.6c-0.1-0.2-0.3-0.4-0.4-0.6
				c-3.1-4-8.7-4.9-12.9-2.1c-3.9,2.5-5.1,7.7-2.6,11.6C794.6,148.2,794.7,148.4,794.9,148.6z"/>
			<path class="st14" d="M799.5,145.5c1.4-0.9,1.8-2.7,0.9-4.1c0-0.1-0.1-0.1-0.1-0.2c-1.1-1.4-3.1-1.7-4.6-0.8
				c-1.4,0.9-1.8,2.7-0.9,4.1c0,0.1,0.1,0.1,0.1,0.2C796,146.2,798,146.5,799.5,145.5z"/>
			<path class="st8" d="M846.3,113.6c16.6-7,33.8-4.7,40.8,1.4s0.4-5-5.2-7.4c-13.4-5.7-24.5-4.5-33.6-1.2
				C833.3,111.7,841.8,115.5,846.3,113.6z"/>
			<path class="st8" d="M809.9,113c-13.4-5.7-27.5-2.9-33.3,2.9s-0.2-4.6,4.4-6.9c11-5.7,20-5.1,27.5-2.4
				C820.5,110.8,813.5,114.5,809.9,113z"/>
			<path class="st15" d="M830.3,188.1c-0.2-0.1-0.4-0.2-0.5-0.3l-12.3-8.6c-1-0.7-1.2-2-0.5-3c0.4-0.6,1-0.9,1.7-0.9l22.9-0.2
				c1.2-0.1,2.2,0.8,2.3,2c0,0.8-0.3,1.5-0.9,1.9l-12.1,8.9C830.7,188,830.5,188.1,830.3,188.1z"/>
			<path class="st14" d="M814.2,202.3c0,0,13.5,2,24,1.1s18.7-2.3,18.7-2.3s-10.1,13-23.3,13.6S814.2,202.3,814.2,202.3z"/>
			<path class="st8" d="M776.7,156c4.3-9.2,2.3-24.3,2.7-34.4c0.5-12.1,4.1-23.8,10.4-34.1c5.9-9.4,6.5-11.4,27.5-21.4
				c11.6-5.4,14.8-4.9,26-11.2c4.5-2.5,6.3,0.2,9.8-3.5c6.9-7.2,14.4-16,12.7-25.9c-1.4-8.5-8.9-18.6-16.9-21.8
				c-17.5-7.1-23.6-2.8-41.2,3.8c-13.9,5.2-26.9,13.8-35,26.2c-7.5,11.5-10.4,25.4-11.9,39.1c-1.6,14.3-1.9,28.7-0.9,43
				c0.5,6.9,1.3,13.9,3.9,20.3s6.6,17.4,13,20.2"/>
			<path class="st8" d="M875.9,0.9c0,0-55.4-2.1-38.5,56.8c0,0,69.7,8.7,69.7,50.5c0,23.8,4.2,39.3,4.2,39.3s-3.2-34.3,20.3-23.1
				C958.3,136.9,976.5,7.9,875.9,0.9z"/>
			<polygon class="st7" points="850.3,269.7 864.3,323 829.9,350.4 813.8,292.1 834.1,284.4 			"/>
			<polygon class="st7" points="896.5,269 864.3,324.4 909.2,353.9 926.9,283.9 904.3,274.6 			"/>
			<path class="st16" d="M823.3,140.9c0,0,9.5-7.5,18.7-0.3v3.4c0,0-6.5-6.7-18.7-0.2V140.9z"/>
			<path class="st17" d="M787.6,126.1h21.2c9,0,16.2,7.3,16.2,16.2l0,0c0,8.9-7.3,16.2-16.2,16.2h-21.2c-9,0-16.2-7.3-16.2-16.2l0,0
				C771.4,133.4,778.6,126.1,787.6,126.1z"/>
			<path class="st17" d="M857.7,126.1h21.2c9,0,16.2,7.3,16.2,16.2l0,0c0,8.9-7.3,16.2-16.2,16.2h-21.2c-9,0-16.2-7.3-16.2-16.2l0,0
				C841.5,133.4,848.8,126.1,857.7,126.1z"/>
			<path class="st18" d="M809.7,124.1h-22.4c-9,0-16.3,7.3-16.4,16.4v4.1c0,9,7.3,16.3,16.4,16.4h22.4c9,0,16.3-7.3,16.4-16.4v-4.1
				C826,131.4,818.7,124.1,809.7,124.1z M822,144.2c0,7.7-6.3,14-14,14h-19.1c-7.7,0-14-6.3-14-14v-3.5c0-7.7,6.3-14,14-14h19.2
				c7.7,0,14,6.3,14,14L822,144.2z"/>
			<path class="st18" d="M879.5,124.1h-22.4c-9,0-16.3,7.3-16.4,16.4v4.1c0,9,7.3,16.3,16.4,16.4h22.4c9,0,16.3-7.3,16.4-16.4v-4.1
				C895.9,131.4,888.5,124.1,879.5,124.1z M891.8,144.2c0,7.7-6.3,14-14,14h-19.1c-7.7,0-14-6.3-14-14v-3.5c0-7.7,6.3-14,14-14h19.2
				c7.7,0,14,6.3,14,14L891.8,144.2z"/>
			<polygon class="st16" points="894.2,136.9 917.8,123.8 917.3,128.2 895.1,142.3 			"/>
			<path class="st6" d="M909.1,133.5c0,0,8.7-16.4,17.3-12.9c19.5,7.9,5.6,58.7-17.3,43.3V133.5z"/>
			<path class="st6" d="M971.7,614.1c0,0-11.8-1-17.6,6s-8.3,15.2-13,21.6s-6.8,7.2-6.8,7.2l4,5.1c0,0,5.4-1.2,12.2-7.6
				c5.8-5.4,4.5-5.6,4.5-5.6s-3.1,17.5-1.9,30c0.9,9,4.3,21.9,4.3,21.9l10.3-1.3l1.8,6.5l9.3-3.2l0.3-7.1l6.6-2l0.7-5.8l3.4-1.2
				c0,0-0.7-16.5,2.2-25S992.4,613.7,971.7,614.1z"/>
			<path class="st6" d="M973.1,626L973.1,626c-5.1-1.6-7.9-7.1-6.2-12.1l6.8-21c1.6-5.1,7.1-7.9,12.1-6.2l0,0
				c5.1,1.6,7.9,7.1,6.2,12.1l-6.8,21C983.6,624.8,978.1,627.6,973.1,626z"/>
			<path class="st7" d="M957.6,673.6"/>
			<path class="st11" d="M968.1,594.7l-1.7-104.7c0,0-0.8-34,18-35.1c0,0,26.3-4.1,22.4,31.6l-10.9,110.8c0,0-1.9,18.7-16.1,16.3
				C979.8,613.5,964.9,611.2,968.1,594.7z"/>
		</g>
	</g>
</g>
</svg>
