<svg xmlns="http://www.w3.org/2000/svg" xmlns:xlink="http://www.w3.org/1999/xlink" viewBox="0 0 1011.38 697.92"><defs><style>.cls-1{fill:none;}.cls-2{fill:#1d1d1b;}.cls-3{isolation:isolate;}.cls-4{fill:url(#Degradado_sin_nombre_12);}.cls-5{clip-path:url(#clip-path);}.cls-6{mix-blend-mode:screen;fill:url(#_10_ppp_60_);}.cls-7{fill:#3e63ff;}.cls-8{fill:#daa284;}.cls-9{fill:#c6c6c6;}.cls-10{fill:#6b361f;}.cls-11{fill:#3a489b;}.cls-12{fill:#434daa;}.cls-13{fill:#4e5db7;}.cls-14{fill:#efb49a;}.cls-15{fill:#383d46;}.cls-16{fill:#fff;}.cls-17{fill:#fc8080;}.cls-18,.cls-20{fill:#636363;}.cls-18{stroke:#636363;stroke-miterlimit:10;stroke-width:1.4px;}.cls-19{fill:#cdf8f9;mix-blend-mode:multiply;}.cls-21{fill:url(#Degradado_sin_nombre_2);}.cls-22{fill:url(#Degradado_sin_nombre_2-2);}</style><linearGradient id="Degradado_sin_nombre_12" x1="72.17" y1="277.4" x2="978.06" y2="277.4" gradientUnits="userSpaceOnUse"><stop offset="0.14" stop-color="#2cb3ff"/><stop offset="0.29" stop-color="#29adf9"/><stop offset="0.49" stop-color="#209de9"/><stop offset="0.71" stop-color="#1181cf"/><stop offset="0.92" stop-color="#0061af"/></linearGradient><clipPath id="clip-path"><rect class="cls-1" x="72.17" y="71.87" width="748.4" height="410.65" rx="42.44" ry="42.44"/></clipPath><pattern id="_10_ppp_60_" data-name="10 ppp 60%" width="28.8" height="28.8" patternTransform="translate(-44.95 -43.53) scale(0.61 0.55)" patternUnits="userSpaceOnUse" viewBox="0 0 28.8 28.8"><rect class="cls-1" width="28.8" height="28.8"/><circle class="cls-2" cx="28.8" cy="28.8" r="4.32"/><circle class="cls-2" cx="14.4" cy="28.8" r="4.32"/><circle class="cls-2" cx="28.8" cy="14.4" r="4.32"/><circle class="cls-2" cx="14.4" cy="14.4" r="4.32"/><circle class="cls-2" cx="7.2" cy="21.6" r="4.32"/><circle class="cls-2" cx="21.6" cy="21.6" r="4.32"/><circle class="cls-2" cx="7.2" cy="7.2" r="4.32"/><circle class="cls-2" cx="21.6" cy="7.2" r="4.32"/><circle class="cls-2" cy="28.8" r="4.32"/><circle class="cls-2" cy="14.4" r="4.32"/><circle class="cls-2" cx="28.8" r="4.32"/><circle class="cls-2" cx="14.4" r="4.32"/><circle class="cls-2" r="4.32"/></pattern><linearGradient id="Degradado_sin_nombre_2" x1="471.21" y1="424.88" x2="472.42" y2="505.8" gradientUnits="userSpaceOnUse"><stop offset="0.4" stop-color="#b3b3b3"/><stop offset="0.93" stop-color="#333"/></linearGradient><linearGradient id="Degradado_sin_nombre_2-2" x1="334.83" y1="425.07" x2="336.01" y2="504.03" xlink:href="#Degradado_sin_nombre_2"/></defs><title>prevencion_1</title><g class="cls-3"><g id="Capa_2" data-name="Capa 2"><g id="cuadro"><rect class="cls-4" x="72.17" y="72.08" width="748.4" height="410.65" rx="42.44" ry="42.44"/><text></text><g class="cls-5"><rect class="cls-6" y="68.48" width="970.73" height="486.55"/><rect class="cls-7" x="665.65" y="189.56" width="251.09" height="10.14" rx="4.72" ry="4.72"/><path class="cls-7" d="M217,188.71H72.06v11H217a5.14,5.14,0,0,0,5.13-5.13v-.73A5.14,5.14,0,0,0,217,188.71Z"/></g></g><g id="personaje"><path class="cls-8" d="M691.11,309.67s10.74-5.05,12.24-14-.36-17.26.52-25.21,2.32-9.59,2.32-9.59l-6-2.46s-4.07,3.73-6.81,12.66c-2.33,7.6-1.16,7.08-1.16,7.08s-6.07-16.74-13.34-27c-5.24-7.39-14.61-16.86-14.61-16.86l-8.3,6.29-4.8-4.69-6.48,7.39,3.25,6.34-4.72,5,2.3,5.4-2.4,2.74s8.81,14,10.52,22.78S673.37,320.27,691.11,309.67Z"/><rect class="cls-8" x="678.64" y="299.64" width="19.28" height="41.37" rx="9.64" ry="9.64" transform="translate(-51.47 149.74) rotate(-11.97)"/><path class="cls-9" d="M673.77,251"/><ellipse class="cls-10" cx="787.59" cy="164.95" rx="52.39" ry="48.82" transform="translate(519.69 923.72) rotate(-82.38)"/><ellipse class="cls-10" cx="937.19" cy="161.21" rx="52.39" ry="48.82" transform="translate(653.17 1068.76) rotate(-82.38)"/><ellipse class="cls-10" cx="797.87" cy="208.89" rx="52.39" ry="48.82" transform="translate(485.06 972.04) rotate(-82.38)"/><ellipse class="cls-10" cx="844.62" cy="220.11" rx="52.39" ry="48.82" transform="translate(514.49 1028.11) rotate(-82.38)"/><ellipse class="cls-10" cx="918.49" cy="214.5" rx="52.39" ry="48.82" transform="translate(584.13 1096.45) rotate(-82.38)"/><path class="cls-11" d="M824.69,298.53s-25.88-19.76-44,6.17-49.1,98.17-56.78,112-8.42,37.57,2.54,45.22c8.21,5.73,31.67-19.22,42.77-29.78s48.34-62.33,55.4-77.17C838.45,325.9,831.6,307.09,824.69,298.53Z"/><path class="cls-8" d="M816.38,292.26s35-9.45,35.56-31.38,0-35.95,0-35.95.61-14.62,21.94-14.62,20.72,15.23,20.72,15.23.3,18.92.07,30.45-.3,25.28,35.1,28.47c6.13.55-8.48,85.22-81,80.28C797.11,361.21,816.38,292.26,816.38,292.26Z"/><path class="cls-12" d="M982.06,659.61C970.33,596,963.72,464.42,963.72,464.42c22.2-88.26,13.3-170.6,13.3-170.6l-52.18-10.19s-8.77,41.24-59.84,41.24c-56.67,0-34-38.77-34-38.77L800.7,292s-21.14,63.68-26.52,85c-9.55,37.77.55,56.84,6.55,78.47,9.83,35.41,15,164.56,11.33,203.18Z"/><path class="cls-13" d="M970.41,467.41s-4-56.42-8.45-81.5-11.69-60.3-10.38-69.78,7-24.44,22.05-22.16c14.5,2.2,26.5,16,29.88,40.93s10.85,96,6.62,114.47-3.86,24.49-13.78,28C987.5,480.42,978.93,486.69,970.41,467.41Z"/><path class="cls-11" d="M739.81,443.06l-.75-2.83L704,323.19s-.68-10.77-13.66-6.25c-16.13,5.61-19.52,1.48-15,16.38s29.12,122.37,29.12,122.37,8.66,15.71,22.2,10.61S739.81,443.06,739.81,443.06Z"/><path class="cls-14" d="M914.37,142.39s1.38-18.06-2.39-53.16c-2.77-25.83-47-29.77-57.28-29.29,0,0-12.26-7.8-34.91-3.25C793,62.07,777.68,89.76,777,102.52c-1.59,30,.26,46.75-.05,68.77s16.64,67,61.62,80.86c0,0,43.73-11.42,59.68-30.93C898.25,221.21,919.82,203.35,914.37,142.39Z"/><path class="cls-15" d="M861.94,146.92A9.66,9.66,0,0,0,874.88,149a8.43,8.43,0,0,0,2.25-12.19,9.66,9.66,0,0,0-12.94-2.12A8.43,8.43,0,0,0,861.94,146.92Z"/><path class="cls-16" d="M866.54,143.87a3,3,0,0,0,.8-4.33,3.43,3.43,0,0,0-4.6-.75,3,3,0,0,0-.8,4.33A3.43,3.43,0,0,0,866.54,143.87Z"/><path class="cls-15" d="M794.87,148.55a9.66,9.66,0,0,0,12.94,2.12,8.43,8.43,0,0,0,2.25-12.19,9.66,9.66,0,0,0-12.94-2.12A8.43,8.43,0,0,0,794.87,148.55Z"/><path class="cls-16" d="M799.47,145.5a3,3,0,0,0,.8-4.33,3.43,3.43,0,0,0-4.6-.75,3,3,0,0,0-.8,4.33A3.43,3.43,0,0,0,799.47,145.5Z"/><path class="cls-10" d="M846.34,113.58c16.57-7,33.78-4.65,40.76,1.41s.39-5-5.22-7.4c-13.44-5.67-24.47-4.52-33.62-1.23C833.34,111.72,841.85,115.47,846.34,113.58Z"/><path class="cls-10" d="M809.89,113c-13.44-5.71-27.52-2.9-33.31,2.87s-.25-4.55,4.36-6.92c11-5.68,20-5.06,27.47-2.43C820.53,110.79,813.53,114.54,809.89,113Z"/><path class="cls-17" d="M830.33,188.11a2.05,2.05,0,0,1-.52-.27l-12.26-8.65a2.13,2.13,0,0,1,1.2-3.87l22.92-.21A2.13,2.13,0,0,1,843,179l-12.1,8.87A2.09,2.09,0,0,1,830.33,188.11Z"/><path class="cls-16" d="M814.2,202.3s13.53,2,24,1.13,18.71-2.26,18.71-2.26-10.13,13-23.32,13.57S814.2,202.3,814.2,202.3Z"/><path class="cls-10" d="M776.67,156c4.29-9.16,2.28-24.34,2.68-34.44a70,70,0,0,1,10.41-34.12C795.64,78,796.25,76,817.3,66.09c11.61-5.44,14.79-4.91,25.95-11.22,4.46-2.52,6.27.19,9.82-3.51,6.91-7.21,14.36-16,12.72-25.87C864.37,17,856.88,6.93,848.86,3.67,831.4-3.43,825.29.83,807.65,7.48c-13.89,5.23-26.9,13.84-35,26.25-7.54,11.51-10.39,25.43-11.92,39.11a239.05,239.05,0,0,0-.89,43c.48,6.9,1.29,13.89,3.89,20.31s6.64,17.44,13,20.21"/><path class="cls-10" d="M875.87.86s-55.43-2.1-38.47,56.81c0,0,69.67,8.69,69.67,50.49,0,23.84,4.21,39.27,4.21,39.27s-3.21-34.3,20.34-23.14C958.27,136.92,976.5,7.88,875.87.86Z"/><polygon class="cls-9" points="850.27 269.7 864.29 323 829.93 350.36 813.8 292.15 834.14 284.43 850.27 269.7"/><polygon class="cls-9" points="896.55 269 864.29 324.41 909.18 353.86 926.94 283.86 904.27 274.61 896.55 269"/><path class="cls-18" d="M823.26,140.92s9.51-7.48,18.7-.31V144s-6.54-6.7-18.7-.16Z"/><rect class="cls-19" x="771.37" y="126.12" width="53.61" height="32.41" rx="16.21" ry="16.21"/><rect class="cls-19" x="841.5" y="126.12" width="53.61" height="32.41" rx="16.21" ry="16.21"/><path class="cls-20" d="M809.71,124.09H787.27a16.41,16.41,0,0,0-16.36,16.36v4.05a16.41,16.41,0,0,0,16.36,16.36h22.44a16.41,16.41,0,0,0,16.36-16.36v-4.05A16.41,16.41,0,0,0,809.71,124.09ZM822,144.21a14,14,0,0,1-14,14H788.91a14,14,0,0,1-14-14v-3.46a14,14,0,0,1,14-14h19.15a14,14,0,0,1,14,14Z"/><path class="cls-20" d="M879.52,124.09H857.08a16.41,16.41,0,0,0-16.36,16.36v4.05a16.41,16.41,0,0,0,16.36,16.36h22.44a16.41,16.41,0,0,0,16.36-16.36v-4.05A16.41,16.41,0,0,0,879.52,124.09Zm12.31,20.12a14,14,0,0,1-14,14H858.73a14,14,0,0,1-14-14v-3.46a14,14,0,0,1,14-14h19.15a14,14,0,0,1,14,14Z"/><polygon class="cls-18" points="894.17 136.87 917.78 123.78 917.31 128.22 895.1 142.32 894.17 136.87"/><path class="cls-8" d="M909.08,133.47s8.7-16.36,17.34-12.88c19.53,7.86,5.61,58.69-17.34,43.34Z"/><path class="cls-8" d="M971.7,614.08s-11.83-1-17.57,6-8.28,15.15-13,21.61-6.78,7.17-6.78,7.17l4,5.12s5.38-1.21,12.2-7.59c5.8-5.43,4.53-5.56,4.53-5.56s-3.06,17.54-1.86,30.05c.86,9,4.29,21.9,4.29,21.9l10.32-1.33,1.83,6.46,9.3-3.19.33-7.12,6.57-2,.7-5.83,3.44-1.18s-.67-16.55,2.21-25S992.36,613.7,971.7,614.08Z"/><rect class="cls-8" x="969.82" y="585.55" width="19.28" height="41.37" rx="9.64" ry="9.64" transform="translate(1725.74 1483.7) rotate(-162.14)"/><path class="cls-9" d="M957.56,673.6"/><path class="cls-13" d="M968.09,594.67,966.4,489.92s-.78-34,18-35.13c0,0,26.3-4.09,22.41,31.63L995.9,597.21S994,615.9,979.77,613.5C979.77,613.5,964.89,611.24,968.09,594.67Z"/></g><g id="titulo"><path class="cls-16" d="M301.37,144.74v4.52h11v5.25h-11v4.3h12.57v5.36H295.21V139.38h18.73v5.36Z"/><path class="cls-16" d="M333.3,164.17,328,156.55l-5.36,7.62h-7.07L323.82,152l-8.16-12.57h7.4l4.88,7.65,4.88-7.65h7.4L332.06,152l8.31,12.21Z"/><path class="cls-16" d="M342.81,139.38h10a11.34,11.34,0,0,1,7.67,2.44,8.32,8.32,0,0,1,2.82,6.63,8.58,8.58,0,0,1-3,6.87q-3,2.53-8.05,2.53H349v6.31h-6.16ZM349,152.47h3.68a4.71,4.71,0,0,0,3.26-1.09,3.72,3.72,0,0,0,1.22-2.92,3.24,3.24,0,0,0-1.22-2.66,5,5,0,0,0-3.26-1H349Z"/><path class="cls-16" d="M372,144.74v4.52h11v5.25H372v4.3h12.57v5.36H365.85V139.38h18.73v5.36Z"/><path class="cls-16" d="M398.07,157h-3.83v7.18h-6.16V139.38h10.86a11.2,11.2,0,0,1,7.44,2.35,7.87,7.87,0,0,1,2.81,6.36,8.31,8.31,0,0,1-4.74,7.69l6.38,8.38h-7.44Zm-3.83-5.54h4.56a4.88,4.88,0,0,0,3-.93,2.91,2.91,0,0,0,1.22-2.42,2.83,2.83,0,0,0-1.22-2.37,5,5,0,0,0-3-.91h-4.56Z"/><path class="cls-16" d="M432.76,144.89h-7.87v19.28h-6.16V144.89h-7.91v-5.5h21.94Z"/><path class="cls-16" d="M446.51,138.87a12.81,12.81,0,0,1,9.39,3.74,13,13,0,0,1,0,18.33,13.61,13.61,0,0,1-18.73,0,13,13,0,0,1,0-18.33A12.76,12.76,0,0,1,446.51,138.87Zm-4.92,18a6.82,6.82,0,0,0,9.84,0,7.55,7.55,0,0,0,0-10.17,6.82,6.82,0,0,0-9.84,0,7.55,7.55,0,0,0,0,10.17Z"/><path class="cls-16" d="M472.78,138.84a15,15,0,0,1,3.3.36,13.11,13.11,0,0,1,3.24,1.22,7.36,7.36,0,0,1,2.73,2.57,8.89,8.89,0,0,1,1.33,4.08h-6.2q-.55-3.13-4-3.13a4.5,4.5,0,0,0-2.57.66,2.09,2.09,0,0,0-1,1.82,1.74,1.74,0,0,0,.69,1.49,5.88,5.88,0,0,0,2.15.84l3.46.8a12.67,12.67,0,0,1,5.58,2.42,5.78,5.78,0,0,1,1.9,4.65,7,7,0,0,1-2.81,5.89,11.9,11.9,0,0,1-7.47,2.17,13,13,0,0,1-7.65-2.21,8.5,8.5,0,0,1-3.54-6.54h6.16a3.79,3.79,0,0,0,1.66,2.57,6.2,6.2,0,0,0,3.55.93,4.79,4.79,0,0,0,2.61-.58,1.82,1.82,0,0,0,.89-1.6q0-1.6-2.62-2.11l-4.08-.91a10.7,10.7,0,0,1-5.43-2.57,6.42,6.42,0,0,1-1.75-4.72,7.2,7.2,0,0,1,2.71-5.89A11,11,0,0,1,472.78,138.84Z"/><path class="cls-16" d="M496.69,139.38h10a13.7,13.7,0,0,1,9.6,3.44,11.47,11.47,0,0,1,3.77,8.88,11.67,11.67,0,0,1-3.77,9,13.61,13.61,0,0,1-9.6,3.48h-10Zm6.16,19.24h3.83a7,7,0,0,0,5.07-2,6.61,6.61,0,0,0,2-4.94,6.41,6.41,0,0,0-2-4.83,7.05,7.05,0,0,0-5.07-2h-3.83Z"/><path class="cls-16" d="M529.72,144.74v4.52h11v5.25h-11v4.3h12.57v5.36H523.56V139.38h18.73v5.36Z"/><path class="cls-16" d="M573.56,158.74v5.43H555.15V139.38h6.16v19.35Z"/><path class="cls-16" d="M593.42,159.9h-10.5l-1.64,4.26h-6.56l10.53-24.93h5.87l10.5,24.93H595.1Zm-2-5.25-3.21-8.24L585,154.66Z"/><path class="cls-16" d="M247.64,174.69h16.71q8.11,0,12.84,4.09t4.73,11.1q0,7.26-4.94,11.5t-13.48,4.24h-5.55v10.55H247.64Zm10.31,21.9h6.16a7.88,7.88,0,0,0,5.46-1.83,6.23,6.23,0,0,0,2-4.88,5.42,5.42,0,0,0-2-4.45,8.45,8.45,0,0,0-5.46-1.65h-6.16Z"/><path class="cls-16" d="M302.9,204.15h-6.4v12H286.19V174.69h18.18q7.75,0,12.44,3.93a13.16,13.16,0,0,1,4.7,10.64,13.91,13.91,0,0,1-7.93,12.87l10.68,14H311.81Zm-6.4-9.27h7.63a8.17,8.17,0,0,0,5.09-1.56,4.86,4.86,0,0,0,2-4.06,4.73,4.73,0,0,0-2-4,8.29,8.29,0,0,0-5.09-1.52H296.5Z"/><path class="cls-16" d="M338.4,183.66v7.56h18.36V200H338.4v7.2h21v9H328.09V174.69h31.35v9Z"/><path class="cls-16" d="M407.82,174.69l-18,41.72H379.46l-18-41.72h11.35l11.83,28.12,11.83-28.12Z"/><path class="cls-16" d="M422,183.66v7.56h18.36V200H422v7.2h21v9H411.67V174.69H443v9Z"/><path class="cls-16" d="M487.06,174.69v41.48h-8l-19.89-22.75v22.75H448.87V174.69h7.87l20,23.36V174.69Z"/><path class="cls-16" d="M515.24,207.39a10.24,10.24,0,0,0,6.77-2.23,10.66,10.66,0,0,0,3.54-6.19H536.1a19.89,19.89,0,0,1-6.65,13.08,20.7,20.7,0,0,1-14.15,5,21.55,21.55,0,0,1-15.68-6.13,22.17,22.17,0,0,1,0-30.93,21.55,21.55,0,0,1,15.68-6.13,20.7,20.7,0,0,1,14.15,5,19.89,19.89,0,0,1,6.65,13.08H525.55A10.67,10.67,0,0,0,522,185.7a10.25,10.25,0,0,0-6.77-2.23,10.87,10.87,0,0,0-8.27,3.39A13.07,13.07,0,0,0,507,204,10.87,10.87,0,0,0,515.24,207.39Z"/><path class="cls-16" d="M552.76,174.69v41.48H542.45V174.69Z"/><path class="cls-16" d="M581.06,173.84a21.43,21.43,0,0,1,15.71,6.25,21.8,21.8,0,0,1,0,30.68,22.78,22.78,0,0,1-31.35,0,21.8,21.8,0,0,1,0-30.68A21.36,21.36,0,0,1,581.06,173.84Zm-8.23,30.1a11.42,11.42,0,0,0,16.47,0,12.64,12.64,0,0,0,0-17,11.42,11.42,0,0,0-16.47,0,12.64,12.64,0,0,0,0,17Zm9.7-38.64h9.76l-7.44,7.5H577.4Z"/><path class="cls-16" d="M647.55,174.69v41.48h-8l-19.89-22.75v22.75H609.36V174.69h7.87l20,23.36V174.69Z"/></g><g id="boton"><rect class="cls-21" x="387.85" y="449.92" width="168.21" height="50.42" rx="22.22" ry="22.22"/><circle class="cls-22" cx="335.56" cy="474.11" r="25.5"/><path class="cls-16" d="M346.66,472.69q-2.46-6.12-13.28-6.12H330v-3.89a1,1,0,0,0-1.65-.68l-7.77,7.77a1,1,0,0,0,0,1.37l7.77,7.77a1,1,0,0,0,1.65-.68v-3.89h3.4q1.49,0,2.66.09a19.2,19.2,0,0,1,2.34.33,8.68,8.68,0,0,1,2,.65,7.15,7.15,0,0,1,1.6,1.05,5.29,5.29,0,0,1,1.21,1.53,8.26,8.26,0,0,1,.74,2.1,12.93,12.93,0,0,1,.27,2.75q0,.83-.08,1.87a3.11,3.11,0,0,1,0,.36,3.12,3.12,0,0,0,0,.4.57.57,0,0,0,.13.38.44.44,0,0,0,.36.15.52.52,0,0,0,.42-.26,1.74,1.74,0,0,0,.2-.33l.2-.46.16-.36a18.22,18.22,0,0,0,1.93-6.85A13.82,13.82,0,0,0,346.66,472.69Z"/></g></g></g></svg>