<svg xmlns="http://www.w3.org/2000/svg" xmlns:xlink="http://www.w3.org/1999/xlink" viewBox="0 0 983.87 641.26"><defs><style>.cls-1{fill:none;}.cls-2{fill:#1d1d1b;}.cls-3{isolation:isolate;}.cls-4{fill:url(#Degradado_sin_nombre_132);}.cls-5{clip-path:url(#clip-path);}.cls-6{mix-blend-mode:screen;fill:url(#_10_ppp_60_);}.cls-7{fill:#bfbfbf;}.cls-8{opacity:0.48;}.cls-9{clip-path:url(#clip-path-2);}.cls-10{fill:#eaeaea;}.cls-11{fill:#e5e5e5;}.cls-12{fill:#fa0;}.cls-13{fill:#70706f;}.cls-14{fill:#939393;}.cls-15{fill:#d6d5d4;}.cls-16{fill:#ffce00;}.cls-17{fill:#ffb600;}.cls-18{fill:#daa284;}.cls-19{fill:#efb49a;}.cls-20{fill:#383d46;}.cls-21{fill:#fff;}.cls-22{fill:#fc8080;}.cls-23{fill:#e51c1c;}.cls-24{fill:#d0eaea;mix-blend-mode:multiply;}.cls-25{fill:#f9f9f9;opacity:0.47;}.cls-26{fill:#0a0a0a;}.cls-27{fill:#f6bb42;}.cls-28{fill:#f7d69c;}.cls-29{fill:#e25057;}.cls-30{fill:#ffce54;}.cls-31{fill:#e6e9ed;}.cls-32{fill:#ccd1d9;}.cls-33{fill:#0e1114;}.cls-34{fill:url(#Degradado_sin_nombre_2);}.cls-35{fill:url(#Degradado_sin_nombre_2-2);}</style><linearGradient id="Degradado_sin_nombre_132" x1="71.07" y1="266.8" x2="976.97" y2="266.8" gradientUnits="userSpaceOnUse"><stop offset="0.14" stop-color="#2c35ff"/><stop offset="0.29" stop-color="#2932f9"/><stop offset="0.49" stop-color="#202be9"/><stop offset="0.72" stop-color="#111fcd"/><stop offset="0.91" stop-color="#0012af"/></linearGradient><clipPath id="clip-path"><rect class="cls-1" x="71.07" y="61.26" width="748.4" height="410.65" rx="42.44" ry="42.44"/></clipPath><pattern id="_10_ppp_60_" data-name="10 ppp 60%" width="28.8" height="28.8" patternTransform="translate(-43.86 -40.37) scale(0.61 0.55)" patternUnits="userSpaceOnUse" viewBox="0 0 28.8 28.8"><rect class="cls-1" width="28.8" height="28.8"/><circle class="cls-2" cx="28.8" cy="28.8" r="4.32"/><circle class="cls-2" cx="14.4" cy="28.8" r="4.32"/><circle class="cls-2" cx="28.8" cy="14.4" r="4.32"/><circle class="cls-2" cx="14.4" cy="14.4" r="4.32"/><circle class="cls-2" cx="7.2" cy="21.6" r="4.32"/><circle class="cls-2" cx="21.6" cy="21.6" r="4.32"/><circle class="cls-2" cx="7.2" cy="7.2" r="4.32"/><circle class="cls-2" cx="21.6" cy="7.2" r="4.32"/><circle class="cls-2" cy="28.8" r="4.32"/><circle class="cls-2" cy="14.4" r="4.32"/><circle class="cls-2" cx="28.8" r="4.32"/><circle class="cls-2" cx="14.4" r="4.32"/><circle class="cls-2" r="4.32"/></pattern><clipPath id="clip-path-2"><rect class="cls-1" x="71.07" y="60.26" width="748.4" height="410.65" rx="42.44" ry="42.44"/></clipPath><linearGradient id="Degradado_sin_nombre_2" x1="470.11" y1="414.28" x2="471.32" y2="495.2" gradientUnits="userSpaceOnUse"><stop offset="0.4" stop-color="#b3b3b3"/><stop offset="0.93" stop-color="#333"/></linearGradient><linearGradient id="Degradado_sin_nombre_2-2" x1="333.74" y1="414.47" x2="334.91" y2="493.43" xlink:href="#Degradado_sin_nombre_2"/></defs><title>quimicos</title><g class="cls-3"><g id="Capa_2" data-name="Capa 2"><g id="cuadro"><rect class="cls-4" x="71.07" y="61.48" width="748.4" height="410.65" rx="42.44" ry="42.44"/><text></text><g class="cls-5"><rect class="cls-6" y="61.04" width="970.73" height="486.55"/></g><rect class="cls-7" x="615.55" y="178.95" width="317.09" height="10.14" rx="4.72" ry="4.72"/><path class="cls-7" d="M236.86,178.11H70v11H236.86A5.14,5.14,0,0,0,242,184v-.73A5.14,5.14,0,0,0,236.86,178.11Z"/></g><g id="personaje"><g class="cls-8"><g class="cls-9"><path d="M946.24,157.89c5.21-5.93,11-13.54,13-18.62,2.89-7.19,4.94-19.94-2.64-21.76-2.81-.68-5.79-.11-8.65-.58a12.23,12.23,0,0,1-9.85-12.73c.56-5.91,5.35-10.4,8.36-15.53s3.27-13.3-2.29-15.47c-5-1.94-11,2.61-15.71.09l-.8-.42c3.86-2.67,9-3.48,13.83-3.88a16.22,16.22,0,0,0,5.58-1.1,5.12,5.12,0,0,0,3.18-4.35c0-1.9-2-3.68-3.82-3,1,1.9-.81,4.25-2.89,4.8s-4.27-.07-6.39-.39a23.42,23.42,0,0,0-16.23,3.69,3.49,3.49,0,0,1-.76-4.17c2-4.2,5.39-7.83,6.31-12.38,1.09-5.42-2.54-10.75-7.43-13.19.59,0,1.18,0,1.74.07a24.86,24.86,0,0,0,14.5-3.6c1.41-.87,2.87-2.68,1.82-4-1.93,3.48-6.18,5.05-10.17,5.33s-8-.46-12-.27a16.86,16.86,0,0,0-9.66,3.19,11.07,11.07,0,0,0-1.89,1.91,7.24,7.24,0,0,1-4.8.7c-2.48-.6-4.15-2.84-5.67-4.89C889,32,884.58,26.8,878.63,23.86S864.93,20.74,859.85,25c-4.22,3.55-5.94,9.45-10.32,12.81a13.27,13.27,0,0,1-4.77,2.27c-2.47-2-3.8-5.48-2.48-8.39.88-1.94,2.64-3.31,4.11-4.85,3.14-3.28,5.06-8.63,2.32-12.24-1.91-2.51-5.33-3.22-8.14-4.68A15.33,15.33,0,0,1,832.83,0a11,11,0,0,0,2.55,7.85c1.87,2.2,4.54,3.59,6.58,5.63s3.39,5.35,1.83,7.78C842,24,838,23.85,835.16,25.55c-4.15,2.53-4.43,8.31-3.69,13.15-1.19-.48-2.35-1-3.49-1.61a11.32,11.32,0,0,1-1-5.33c.15-2.75,1.29-5.33,2.13-7.95s1.37-5.53.33-8.08-4.18-4.39-6.67-3.19a7.85,7.85,0,0,1,3.84,7,7.86,7.86,0,0,1-4.45,6.63,8,8,0,0,0-2.1,1.1c-1.33,1.2-1.07,3.23-.49,5-6.85-3.95-14.31-7.35-22.22-7.54-8.09-.2-16.73,3.7-20,11.05-4.07,9.13.09,22.24-8.14,28-5.63,3.92-13.27,1.36-19.82-.72s-15.13-2.91-18.95,2.77c-6.2,9.25,8.48,21.36,4.47,31.73-1.53,4-5.68,6.55-9.93,7a19.92,19.92,0,0,1-12.16-3.18c2.15,4.23,6.9,6.7,11.63,7.26s9.51-.51,14.1-1.77c5.14-1.42,12.54-1.94,13.93,3.19.86,3.17-1.7,6.36-4.67,7.8s-6.36,1.73-9.47,2.84a8.91,8.91,0,0,0-4.18,2.72c-3.61,4.69,1.49,11.11,6.47,14.33s11.13,7.65,9.76,13.39c-.83,3.49-4.27,5.7-7.64,7s-7,2.1-9.81,4.39-4.18,6.8-1.75,9.45,7.08,1.69,10.71.64,8.55-1.29,10.17,2.11c2.21,4.65-4.73,9.74-3,14.58a16.34,16.34,0,0,1,15.28,2.17l3.53,2c-.11,6.5-.29,12.42-.74,17.33-1.59,17.61,21,50.61,45,50,0,0,4.89,2.32,15,1.4l1.27,8.82-18.87-.71-.21.09,0-.31-53.92,16.1-.08.86a10.61,10.61,0,0,0-4.1,6.44l-30.3,60.77-16-62.11c1.44-1.54,2.51-3.6,2.12-4.94l-13.52-40.89,14.3-29.18a3.49,3.49,0,0,0-1.28-4.86l-2.73-1.49a3.53,3.53,0,0,0-4.89,1.27l-12.47,12.3-.66-1.82-3.51-37.06a3.47,3.47,0,0,0-3.71-3.49l-2.88.29a3.47,3.47,0,0,0-3.51,3.69l-.33,22.48-9-26.36a3.54,3.54,0,0,0-4.49-2.46l-3,.86a3.52,3.52,0,0,0-2.48,4.47l6.68,29.45-11.62-27a3.5,3.5,0,0,0-4.51-2.05l-2.91,1.11A3.47,3.47,0,0,0,638.5,191L646,215.5l-9.49-12.69a3.4,3.4,0,0,0-4.72-.92l-2.36,1.62a3.36,3.36,0,0,0-.93,4.69l20.68,38.15,12.3,54.77c.56,2.39,5.53,3.24,7.77,2.59l1.3-.38,28.71,91.29c.21,1.15.45,2.2.7,3.22-1.65,7.66,2.81,9.91,4.22,10.42,4.49,6.74,10.21,6.48,13.35,5.64,10.92,2.25,14.34-4.68,14.34-4.68l14.82-30.9L735,502.55,728.12,505a3.46,3.46,0,0,0-2.46,4.45l.86,2.29,0,.19a4,4,0,0,0,.4.89,3.43,3.43,0,0,0,4.21,1.78l2.76-.68-.8,8.44-3.37,2.21a3.51,3.51,0,0,0-1.26,4.94l1.59,2.65a3.62,3.62,0,0,0,2,1.59l-8.63,91.42h94.66l.08-6,11.44.73-.38,8.07h91.88L919.9,440.44l7.47-4.64c6.29-2.93,10.22-5.94,12.58-8.79,6.75-3.91,6.26-9.7,6.26-9.7l-9.72-103c-.11-17.91-12-21.09-17.52-21.6v-.46L860.71,270.8l-.13,1.08-.47-.29L860,273l-2-.82-2.17-.08-2.48-17.19c.89-.39,1.78-.79,2.7-1.21,2.06,1.49,4.1,2.76,5.26,3.45,2.94,1.74,44.5,13.41,43.63-9-.09-2.44-5.05-14.4-4.27-16.72s3.35-3.36,5.77-3.42a24.5,24.5,0,0,0,3.5,11.68c.86,1.41,2.67,2.88,4,1.85-3.48-2-5-6.2-5.25-10.16a31.27,31.27,0,0,1,0-3.21c2.86.37,7,1.23,9.12,1.54,4.78.7,9.66-.81,13.84-3.22a7.06,7.06,0,0,0,3.24-3.09c1.49-3.59-2.67-6.86-6.23-8.46s-7.9-4.37-7-8.14c.7-2.8.75-4.21,3.52-5.07,10.47-3.22,19.36-3,21.63-13.63.53-2.49.46-5.26-1-7.36-2.49-3.61-8.45-4.56-9.34-8.85-.61-2.94,1.66-5.64,3.84-7.71.66-.62,1.38-1.35,2.15-2.14.39,1.2.64,2.49,1,3.69a12.78,12.78,0,0,0,3.58,6.19,8.23,8.23,0,0,0,6.7,2.15,12.14,12.14,0,0,1-8-12.9C945.84,160.07,946.11,159,946.24,157.89Z"/></g></g></g><g id="Capa_6" data-name="Capa 6"><path class="cls-10" d="M792.43,286.91s18.18,8.82,6.26,28.95l-44.78,93.38s-6,12.09-27.29-.83c0,0-8.67-2-3.16-15.07l49.79-99.85S775.23,280.57,792.43,286.91Z"/><path class="cls-11" d="M741.91,413s-15.58,8.66-20.62-18.4l-38.05-121s-4-15.36,23.15-19.38c0,0,8.62-4.59,13.75,11.34l32.74,127.33S760.8,406.1,741.91,413Z"/><path class="cls-12" d="M651.46,203.51l2.36-1.62a3.4,3.4,0,0,1,4.72.92L668,215.5,660.5,191a3.47,3.47,0,0,1,2.07-4.48l2.91-1.11a3.5,3.5,0,0,1,4.51,2.05l11.62,27L674.92,185a3.52,3.52,0,0,1,2.48-4.47l3-.86a3.54,3.54,0,0,1,4.49,2.46l9,26.36.33-22.48a3.47,3.47,0,0,1,3.51-3.69l2.88-.29a3.47,3.47,0,0,1,3.71,3.49l3.51,37.06.66,1.82L721,212.07a3.53,3.53,0,0,1,4.89-1.27l2.73,1.49a3.49,3.49,0,0,1,1.28,4.86l-14.3,29.18,13.52,40.89c.65,2.23-2.72,6.41-5.12,7l-32.69,9.54c-2.24.64-7.21-.21-7.77-2.59l-12.3-54.77L650.54,208.2A3.36,3.36,0,0,1,651.46,203.51Z"/><polygon class="cls-13" points="880.05 272.53 940.68 298.97 929.82 455.14 937.03 641.26 828.31 633.37 815.71 578.87 766.5 577.04 798.3 433.36 775.88 294.43 831.57 270.32 880.05 272.53"/><path class="cls-14" d="M881.47,34.37c-1.52,4.42-6,8-10.69,7.46s-8.44-5.9-6.5-10.16c.88-1.94,2.64-3.31,4.11-4.85,3.14-3.28,5.06-8.63,2.32-12.24-1.91-2.51-5.33-3.22-8.14-4.68A15.33,15.33,0,0,1,854.83,0a11,11,0,0,0,2.55,7.85c1.87,2.2,4.54,3.59,6.58,5.63s3.39,5.35,1.83,7.78C864,24,860,23.85,857.16,25.55c-4.3,2.62-4.45,8.72-3.61,13.66a17.91,17.91,0,0,0,2.32,6.94c2.5,3.79,7.5,5.53,12,4.81a18,18,0,0,0,11.19-7.22"/><path class="cls-14" d="M855.07,41.54c-.26.55-1.1.3-1.58-.07a11.54,11.54,0,0,1-4.54-9.7c.15-2.75,1.29-5.33,2.13-7.95s1.37-5.53.33-8.08-4.18-4.39-6.67-3.19a7.85,7.85,0,0,1,3.84,7,7.86,7.86,0,0,1-4.45,6.63,8,8,0,0,0-2.1,1.1c-1.52,1.37-1,3.84-.22,5.74q1.48,3.8,3.31,7.46"/><polygon class="cls-15" points="858.54 472.37 851.21 628 943.09 628 940.97 292.25 882.71 270.8 858.54 472.37"/><polygon class="cls-10" points="882.12 271.59 860.03 472.86 907.27 377.3 901.16 330.13 931.87 302.4 882.12 271.59"/><polygon class="cls-15" points="842.05 472.82 840.07 625.23 745.41 625.23 777.43 286.2 831.34 270.1 842.05 472.82"/><polygon class="cls-10" points="831.89 270.93 840.53 473.21 799.75 374.75 809 328.09 780.2 298.4 831.89 270.93"/><path class="cls-10" d="M938.19,292.64s20.16-1.69,20.3,21.66l9.72,103s1.13,13.41-23.86,13.2c0,0-8.46,2.71-10.48-11.33l-8.76-111.1S920.15,296,938.19,292.64Z"/><path class="cls-11" d="M962.06,411.31s12.37,12.79-12.69,24.49L841.23,503s-13.93,7.76-24.72-17.35c0,0-6.65-7.13,7.55-16.1l115.63-63.72S950.53,394.9,962.06,411.31Z"/><path class="cls-12" d="M781,551.33l-2.17-1.86a3.36,3.36,0,0,1-.3-4.77l9.94-12.34-21.94,13.45a3.51,3.51,0,0,1-4.89-.85l-1.81-2.52a3.46,3.46,0,0,1,.86-4.86l23.29-18-27,13.88a3.55,3.55,0,0,1-5-1.25l-1.59-2.65a3.51,3.51,0,0,1,1.26-4.94l23.37-15.35-22,5.37a3.48,3.48,0,0,1-4.48-2.44l-1-2.7a3.46,3.46,0,0,1,2.46-4.45l35.18-12.76,1.6-1.1-15.13-8.88a3.5,3.5,0,0,1-2.48-4.38l.76-3a3.52,3.52,0,0,1,4.41-2.46l32,6.36,36.37-23.35c2-1.19,6.93,1,8.08,3.16l17.56,29c1.19,2,1.62,7-.56,8.13l-50.19,25.7L785.84,551A3.4,3.4,0,0,1,781,551.33Z"/><path class="cls-16" d="M778.87,549.47a3.36,3.36,0,0,1-.3-4.77l9.94-12.34-21.94,13.45a3.51,3.51,0,0,1-4.89-.85l-1.81-2.52a3.46,3.46,0,0,1,.86-4.86l23.29-18-27,13.88a3.55,3.55,0,0,1-5-1.25l-1.59-2.65a3.51,3.51,0,0,1,1.26-4.94l23.37-15.35-22,5.37a3.48,3.48,0,0,1-4.48-2.44l-1-2.7a3.46,3.46,0,0,1,2.46-4.45l35.18-12.76,1.6-1.1-15.13-8.88a3.5,3.5,0,0,1-2.48-4.38l.76-3a3.52,3.52,0,0,1,4.41-2.46l32,6.36.09-.35L788.87,548l-3.21,3a3.4,3.4,0,0,1-4.8.3Z"/><path class="cls-17" d="M779.67,549.3a3.36,3.36,0,0,1-.3-4.77l9-12.21L766.4,545.77a3.51,3.51,0,0,1-4.89-.85l-.84-1.9a3.46,3.46,0,0,1,.86-4.86L784,519.58l-27,13.88a3.55,3.55,0,0,1-5-1.25l-.79-2.08a3.51,3.51,0,0,1,1.26-4.94L775,509l-22,5.37a3.48,3.48,0,0,1-4.48-2.44l-.17-1.55a3.46,3.46,0,0,1,2.46-4.45l34.47-13.68,1.6-1.1-15.13-8.88a3.5,3.5,0,0,1-2.48-4.38l.27-1.06a3.52,3.52,0,0,1,4.41-2.46l32.51,4.42.09-.35L788.87,548l-3.21,3a3.4,3.4,0,0,1-4.8.3Z"/><path class="cls-18" d="M864,286.33l4.38-.62A11.24,11.24,0,0,0,878,273l-5.6-38.85a11.29,11.29,0,0,0-12.75-9.5l-4.38.62A11.24,11.24,0,0,0,845.68,238l5.6,38.85A11.29,11.29,0,0,0,864,286.33Z"/><path class="cls-14" d="M846.15,225.73c.7,3.33,24.75,17.49,25.23,20.86s9,8.78,11.92,10.53,44.5,13.41,43.63-9c-.09-2.44-5.05-14.4-4.27-16.72s3.75-3.54,6.32-3.43,8.23,1.32,10.78,1.7c4.78.7,9.66-.81,13.84-3.22a7.06,7.06,0,0,0,3.24-3.09c1.49-3.59-2.67-6.86-6.23-8.46s-7.9-4.37-7-8.14c.7-2.8.75-4.21,3.52-5.07,10.47-3.22,19.36-3,21.63-13.63.53-2.49.46-5.26-1-7.36-2.49-3.61-8.45-4.56-9.34-8.85-.61-2.94,1.66-5.64,3.84-7.71,5.63-5.35,16-17.65,18.93-24.84s4.94-19.94-2.64-21.76c-2.81-.68-5.79-.11-8.65-.58a12.23,12.23,0,0,1-9.85-12.73c.56-5.91,5.35-10.4,8.36-15.53s3.27-13.3-2.29-15.47c-5-1.94-11,2.61-15.71.09-4.12-2.2-10.32-4.65-8.31-8.85s5.39-7.83,6.31-12.38c1.76-8.74-8.75-17.24-17-13.75-3.63,1.54-7,4.86-10.85,3.93-2.48-.6-4.15-2.84-5.67-4.89C911,32,906.58,26.81,900.63,23.86S886.93,20.74,881.85,25c-4.22,3.55-5.94,9.45-10.32,12.81-4.22,3.23-10.17,3.4-15.28,1.89s-9.63-4.47-14.23-7.15c-7-4.06-14.6-7.62-22.69-7.81s-16.73,3.7-20,11.05c-4.07,9.13.09,22.24-8.14,28-5.63,3.92-13.27,1.36-19.82-.72s-15.13-2.91-18.95,2.77c-6.2,9.25,8.48,21.36,4.47,31.73-1.53,4-5.68,6.55-9.93,7a19.92,19.92,0,0,1-12.16-3.18c2.15,4.23,6.9,6.7,11.63,7.26s9.51-.51,14.1-1.77c5.14-1.42,12.54-1.94,13.93,3.19.86,3.17-1.7,6.36-4.67,7.8s-6.36,1.73-9.47,2.84a8.91,8.91,0,0,0-4.18,2.72c-3.61,4.69,1.49,11.11,6.47,14.33s11.13,7.65,9.76,13.39c-.83,3.49-4.27,5.7-7.64,7s-7,2.1-9.81,4.39-4.18,6.8-1.75,9.45,7.08,1.69,10.71.64,8.55-1.29,10.17,2.11c2.21,4.65-4.73,9.74-3,14.58a16.34,16.34,0,0,1,15.28,2.17"/><path class="cls-19" d="M919.68,195.45s.64-32.74-8.1-65.59c-.63-2.37-16.77-6.22-22.51-29.25,0,0-1.4-25.21-20.19-29-84.29-17.15-75.41,57-76.74,67.14-3.12,23.92-1.42,54.48-3,72.09s21,50.61,45,50c0,0,21.32,10.13,67.07-20.36C901.24,240.46,921.58,224.75,919.68,195.45Z"/><path class="cls-20" d="M869,167.76a8.06,8.06,0,0,0,10.6,2.54,6.94,6.94,0,0,0,2.61-9.91,8.06,8.06,0,0,0-10.6-2.54A6.94,6.94,0,0,0,869,167.76Z"/><path class="cls-21" d="M872.95,165.53a2.47,2.47,0,0,0,.93-3.52,2.86,2.86,0,0,0-3.76-.9,2.47,2.47,0,0,0-.93,3.52A2.86,2.86,0,0,0,872.95,165.53Z"/><path class="cls-20" d="M805.63,167.74a8.06,8.06,0,0,0,10.6,2.54,6.94,6.94,0,0,0,2.61-9.91,8.06,8.06,0,0,0-10.6-2.54A6.94,6.94,0,0,0,805.63,167.74Z"/><path class="cls-21" d="M809.63,165.51a2.47,2.47,0,0,0,.93-3.52,2.86,2.86,0,0,0-3.76-.9,2.47,2.47,0,0,0-.93,3.52A2.86,2.86,0,0,0,809.63,165.51Z"/><path class="cls-14" d="M885.78,127.64c9.4,2.42,15.3,10,15.64,15.82s2.18-2.51.9-5.85c-3.06-8-7.91-11.44-12.87-13.08C881.36,121.85,883.23,127,885.78,127.64Z"/><path class="cls-14" d="M807.14,123.81c-9.53,1.86-15.87,9.11-16.56,14.86s-2-2.64-.55-5.89c3.53-7.77,8.58-11,13.63-12.3C811.9,118.29,809.72,123.3,807.14,123.81Z"/><path class="cls-22" d="M841.12,195.06a1.71,1.71,0,0,1-.42-.25l-9.63-7.87a1.76,1.76,0,0,1,1.24-3.11l19,1.22a1.76,1.76,0,0,1,.82,3.24l-10.57,6.57A1.74,1.74,0,0,1,841.12,195.06Z"/><path class="cls-23" d="M963.92,148.77"/><path class="cls-14" d="M918.85,130.24c1.31,2.18-.65,5.16-3.13,5.76s-5.05-.47-7.26-1.74a36.52,36.52,0,0,1-15.53-17.91c-1.83-4.58-3-9.94-7.12-12.68-3.95-2.63-9.14-1.88-13.89-1.89s-14.89,5.33-16.06.75c-.9-3.51,1.33-7,2.91-10.22,1.45-3,2.43-6.37,1.6-9.57s-4-6-7.26-5.4c-5.18.87-7.9,8.83-13,7.74-3.66-.78-5.21-5.94-8.93-6.37a5.35,5.35,0,0,0-3.49,1c-4.53,3-4.77,9.33-6.4,14.49-1.55,4.88-.32,2.2-4.55,5.11a4.56,4.56,0,0,1-3.34,1.07c-2.4-.49-2.86-3.94-5-5.12-1.75-1-3.87-.07-5.85.22-5.6.83-11.12-3.9-12-9.47s2.36-11.27,7.11-14.33c3.14-2,6.94-3.1,9.61-5.72,2.51-2.47,3.71-6,6.16-8.53,4.66-4.8,12.3-4.67,19-4.2,8.16.57,16.32,1.14,24.47,1.84,5.54.47,11.15,1,16.39,2.89,5.64,2,10.61,5.48,15.51,8.9,9.5,6.64,19.75,14.41,21.92,25.75.65,3.44.55,7.15,2.38,10.14a21.28,21.28,0,0,0,3.74,4.09,54.38,54.38,0,0,1,7.06,8.19c2.74,3.91,5,8.6,4.15,13.29s-6.29,8.61-10.56,6.44a2.36,2.36,0,1,1-4.5.9"/><path class="cls-24" d="M847.73,168a25.77,25.77,0,1,0,21.84-29.11A25.81,25.81,0,0,0,847.73,168Z"/><path class="cls-21" d="M847.26,167.74a28.32,28.32,0,1,0,24-31.86A28.3,28.3,0,0,0,847.26,167.74Zm2.64-.38a24.25,24.25,0,1,1,27.44,20.45A24.13,24.13,0,0,1,849.9,167.37Z"/><path class="cls-25" d="M892.28,167.41l.05,0a1.44,1.44,0,0,0,.11-2l-8-8.89a1.46,1.46,0,0,0-2-.11l-.05,0a1.44,1.44,0,0,0-.11,2l8,8.89A1.46,1.46,0,0,0,892.28,167.41Z"/><path class="cls-25" d="M892,159l.05,0a1.44,1.44,0,0,0,.11-2l-8-8.89a1.46,1.46,0,0,0-2-.11l-.05,0a1.44,1.44,0,0,0-.11,2l8,8.89A1.46,1.46,0,0,0,892,159Z"/><path class="cls-24" d="M786.27,166.95a25.76,25.76,0,1,0,16.24-32.53A25.87,25.87,0,0,0,786.27,166.95Z"/><path class="cls-21" d="M783.86,162.66a28.32,28.32,0,1,0,24-31.86A28.3,28.3,0,0,0,783.86,162.66Zm2.64-.38a24.25,24.25,0,1,1,27.44,20.45A24.13,24.13,0,0,1,786.5,162.28Z"/><path class="cls-25" d="M807.79,168.62l.05,0a1.44,1.44,0,0,0,.11-2l-8-8.89a1.46,1.46,0,0,0-2-.11l-.05,0a1.44,1.44,0,0,0-.11,2l8,8.89A1.46,1.46,0,0,0,807.79,168.62Z"/><path class="cls-25" d="M807.54,160.22l.05,0a1.44,1.44,0,0,0,.11-2l-8-8.89a1.46,1.46,0,0,0-2-.11l-.05,0a1.44,1.44,0,0,0-.11,2l8,8.89A1.46,1.46,0,0,0,807.54,160.22Z"/><path class="cls-21" d="M849.26,159.08c.17.27-.19.61-.51.57a1.41,1.41,0,0,1-.76-.55,9.79,9.79,0,0,0-10.2-2.63,3.63,3.63,0,0,0-2.25,1.72,1.66,1.66,0,0,0,1,2.31,2.89,2.89,0,0,0,1.25-.2,10.3,10.3,0,0,1,8.86,1.59c.37.28.93.57,1.24.22a.85.85,0,0,0,.17-.41,7.61,7.61,0,0,0,0-3"/><path class="cls-21" d="M895.85,145.55c3.13,3.85,9.68,8.59,13.31,12,2.84,2.64,5,4.93,9,8.59a16.55,16.55,0,0,1,2.46,3.22c.57,1,.22,2.52-.89,2.69a2.58,2.58,0,0,1-1.73-.62L905.53,163a35.59,35.59,0,0,1-6-4.68,11.87,11.87,0,0,1-3.44-6.63A2.66,2.66,0,0,1,897,149c.85-.51-.39-3.34-1-2.55"/><path class="cls-26" d="M816.64,209.87s8.16,1.33,24.82,1.61c23.7.39,27.33-2.6,27.33-2.6s-6.74,13.67-31.5,13.67C816.41,222.54,816.64,209.87,816.64,209.87Z"/><path class="cls-27" d="M944.84,197.47a6.92,6.92,0,0,1-9.51-2.1h0L902.38,144l2.11-9.46,9.51,2.1L946.95,188A6.83,6.83,0,0,1,944.84,197.47Z"/><polygon class="cls-28" points="907.88 140.39 902.38 143.95 904.5 134.49 914.01 136.59 907.88 140.39"/><path class="cls-29" d="M945.72,186.09l1.23,1.93a6.83,6.83,0,0,1-2.11,9.46,6.92,6.92,0,0,1-9.51-2.1h0l-1.23-1.93Z"/><path class="cls-30" d="M938.94,190.37l-28.62-44.68h0a1.14,1.14,0,0,1,.35-1.58,1.16,1.16,0,0,1,1.59.35l28.62,44.68Z"/><polygon class="cls-31" points="940.79 178.38 929.16 185.74 934.1 193.44 945.72 186.08 940.79 178.38"/><path class="cls-32" d="M934.19,189.32l-1.94,1.23h0L931,188.63h0L933,187.4a1.15,1.15,0,0,1,1.59.35A1.14,1.14,0,0,1,934.19,189.32Z"/><path class="cls-32" d="M940.68,182.5l1.94-1.23h0l1.23,1.93h0l-1.94,1.23a1.15,1.15,0,0,1-1.59-.35A1.14,1.14,0,0,1,940.68,182.5Z"/><polygon class="cls-33" points="903.79 137.65 904.5 134.49 907.67 135.19 903.79 137.65"/><path class="cls-18" d="M918.24,172.2s8.21-12.95,15.16-9.56c15.71,7.66,3.79,48.42-14.29,34.37Z"/><path class="cls-14" d="M962,153.17c1.89-.35,4.13-.42,5.41,1,1.61,1.79.63,4.56.28,6.94a12.14,12.14,0,0,0,8,12.9,8.23,8.23,0,0,1-6.7-2.15,12.78,12.78,0,0,1-3.58-6.19c-.69-2.53-1-5.5-3.13-7-1.88-1.35-4.45-1-6.74-.66"/><path class="cls-14" d="M947.14,75.14c3.89-4.54,10.4-5.66,16.38-6.16a16.22,16.22,0,0,0,5.58-1.1,5.12,5.12,0,0,0,3.18-4.35c0-1.9-2-3.68-3.82-3,1,1.9-.81,4.25-2.89,4.8s-4.27-.07-6.39-.39a23.35,23.35,0,0,0-20.58,7.47"/><path class="cls-14" d="M918.95,205.76a10,10,0,0,1,9,4,16.63,16.63,0,0,1,3.11,9.63c.15,4-.64,7.94-.4,11.91s1.77,8.21,5.25,10.16c-1.3,1-3.11-.44-4-1.85a24.48,24.48,0,0,1-3.47-14.46c.13-1.75.33-3.84-1.05-4.94a6.27,6.27,0,0,0-2.47-.9A7.43,7.43,0,0,1,920.1,216a4.25,4.25,0,0,1,1-5.42"/><path class="cls-14" d="M923.38,48.62a9.9,9.9,0,0,1,3.94-9A16.86,16.86,0,0,1,937,36.43c4-.19,8,.55,12,.27s8.24-1.85,10.17-5.33c1.05,1.28-.41,3.09-1.82,4a24.86,24.86,0,0,1-14.5,3.6c-1.77-.11-3.87-.28-5,1.1A6.18,6.18,0,0,0,937,42.5a7.39,7.39,0,0,1-3.34,4.86,4.31,4.31,0,0,1-5.47-1"/></g><g id="titulo"><path class="cls-21" d="M310.53,127.09h10a11.34,11.34,0,0,1,7.67,2.44,8.32,8.32,0,0,1,2.82,6.63,8.58,8.58,0,0,1-3,6.87q-3,2.53-8.05,2.53h-3.32v6.31h-6.16Zm6.16,13.08h3.68a4.71,4.71,0,0,0,3.26-1.09,3.72,3.72,0,0,0,1.22-2.92,3.24,3.24,0,0,0-1.22-2.66,5,5,0,0,0-3.26-1h-3.68Z"/><path class="cls-21" d="M343.56,144.7h-3.83v7.18h-6.16V127.09h10.86a11.2,11.2,0,0,1,7.44,2.35,7.87,7.87,0,0,1,2.81,6.36,8.31,8.31,0,0,1-4.74,7.69l6.38,8.38h-7.44Zm-3.83-5.54h4.56a4.88,4.88,0,0,0,3-.93,2.91,2.91,0,0,0,1.22-2.42,2.83,2.83,0,0,0-1.22-2.37,5,5,0,0,0-3-.91h-4.56Z"/><path class="cls-21" d="M364.77,132.45V137h11v5.25h-11v4.3h12.57v5.36H358.61V127.09h18.73v5.36Z"/><path class="cls-21" d="M406.25,127.09,395.49,152h-6.2l-10.75-24.93h6.78l7.07,16.8,7.07-16.8Z"/><path class="cls-21" d="M414.7,132.45V137h11v5.25h-11v4.3h12.57v5.36H408.54V127.09h18.73v5.36Z"/><path class="cls-21" d="M453.59,127.09v24.78h-4.77l-11.88-13.6v13.6h-6.16V127.09h4.7l12,14v-14Z"/><path class="cls-21" d="M470.43,146.63a6.12,6.12,0,0,0,4-1.33,6.37,6.37,0,0,0,2.11-3.7h6.31a11.89,11.89,0,0,1-4,7.82,12.36,12.36,0,0,1-8.46,3,12.88,12.88,0,0,1-9.37-3.66,13.25,13.25,0,0,1,0-18.48,12.88,12.88,0,0,1,9.37-3.66,12.37,12.37,0,0,1,8.46,3,11.89,11.89,0,0,1,4,7.82h-6.31a6.37,6.37,0,0,0-2.11-3.7,6.13,6.13,0,0,0-4-1.33,6.49,6.49,0,0,0-4.94,2,7.81,7.81,0,0,0,0,10.24A6.49,6.49,0,0,0,470.43,146.63Z"/><path class="cls-21" d="M492.85,127.09v24.78h-6.16V127.09Z"/><path class="cls-21" d="M509.76,126.58a12.81,12.81,0,0,1,9.39,3.74,13,13,0,0,1,0,18.33,13.61,13.61,0,0,1-18.73,0,13,13,0,0,1,0-18.33A12.76,12.76,0,0,1,509.76,126.58Zm-4.92,18a6.82,6.82,0,0,0,9.84,0,7.55,7.55,0,0,0,0-10.17,6.82,6.82,0,0,0-9.84,0,7.55,7.55,0,0,0,0,10.17Zm5.79-23.09h5.83L512,126h-4.45Z"/><path class="cls-21" d="M549.49,127.09v24.78h-4.77l-11.88-13.6v13.6h-6.16V127.09h4.7l12,14v-14Z"/><path class="cls-21" d="M301,182.12a21.84,21.84,0,0,1-7.36,16.83l6.85,8.06-7.68,7-8.58-10a22.79,22.79,0,0,1-6.34.83,22.4,22.4,0,0,1-16.42-6.56,22.87,22.87,0,0,1,0-32.19,23.9,23.9,0,0,1,32.9,0A21.78,21.78,0,0,1,301,182.12Zm-31.74-8.93a13.26,13.26,0,0,0,0,17.86,12,12,0,0,0,17.28,0,13.26,13.26,0,0,0,0-17.86,12,12,0,0,0-17.28,0Z"/><path class="cls-21" d="M350.12,160.36v23.23q0,10-5.44,15.65t-14.85,5.6q-9.41,0-14.82-5.6t-5.41-15.65V160.36h10.88v23.42a11.89,11.89,0,0,0,2.53,8,8.48,8.48,0,0,0,6.82,3,8.58,8.58,0,0,0,6.85-3,11.8,11.8,0,0,0,2.56-8V160.36Z"/><path class="cls-21" d="M371.11,160.36v43.52H360.3V160.36ZM367,150.57h10.24l-7.87,7.87h-7.81Z"/><path class="cls-21" d="M428.9,160.36v43.52H418.09V182.05L408.42,197V197h-6V197l-9.73-15,.06,22H381.93V160.36h8l15.49,23.23,15.42-23.23Z"/><path class="cls-21" d="M450.53,160.36v43.52H439.72V160.36Z"/><path class="cls-21" d="M483.3,194.66a10.75,10.75,0,0,0,7.1-2.34,11.18,11.18,0,0,0,3.71-6.5h11.07a20.87,20.87,0,0,1-7,13.73,21.71,21.71,0,0,1-14.85,5.22,22.61,22.61,0,0,1-16.45-6.43,23.26,23.26,0,0,1,0-32.45,22.61,22.61,0,0,1,16.45-6.43,21.72,21.72,0,0,1,14.85,5.22,20.87,20.87,0,0,1,7,13.73H494.12a11.18,11.18,0,0,0-3.71-6.5,10.76,10.76,0,0,0-7.1-2.34,11.4,11.4,0,0,0-8.67,3.55,13.71,13.71,0,0,0,0,18A11.4,11.4,0,0,0,483.3,194.66Z"/><path class="cls-21" d="M537,159.46A22.49,22.49,0,0,1,553.48,166a22.87,22.87,0,0,1,0,32.19,23.9,23.9,0,0,1-32.9,0,22.87,22.87,0,0,1,0-32.19A22.41,22.41,0,0,1,537,159.46ZM528.36,191a12,12,0,0,0,17.28,0,13.26,13.26,0,0,0,0-17.86,12,12,0,0,0-17.28,0,13.26,13.26,0,0,0,0,17.86Z"/><path class="cls-21" d="M586.28,159.4a26.37,26.37,0,0,1,5.79.64,23,23,0,0,1,5.7,2.14,12.92,12.92,0,0,1,4.8,4.51,15.61,15.61,0,0,1,2.34,7.17H594q-1-5.5-7-5.5a7.9,7.9,0,0,0-4.51,1.15,3.66,3.66,0,0,0-1.7,3.2,3.05,3.05,0,0,0,1.22,2.62,10.32,10.32,0,0,0,3.78,1.47l6.08,1.41q6.46,1.41,9.79,4.26t3.33,8.16A12.37,12.37,0,0,1,600,201q-4.93,3.81-13.12,3.81a22.76,22.76,0,0,1-13.44-3.87q-5.5-3.87-6.21-11.49h10.82a6.65,6.65,0,0,0,2.91,4.51,10.88,10.88,0,0,0,6.24,1.63,8.4,8.4,0,0,0,4.58-1,3.19,3.19,0,0,0,1.57-2.82q0-2.82-4.61-3.71l-7.17-1.6q-6.47-1.41-9.54-4.51a11.26,11.26,0,0,1-3.07-8.29,12.64,12.64,0,0,1,4.77-10.34Q578.53,159.4,586.28,159.4Z"/></g><g id="boton"><rect class="cls-34" x="386.76" y="439.32" width="168.21" height="50.42" rx="22.22" ry="22.22"/><circle class="cls-35" cx="334.47" cy="463.5" r="25.5"/><path class="cls-21" d="M345.56,462.09Q343.1,456,332.28,456h-3.4v-3.89a1,1,0,0,0-1.65-.68l-7.77,7.77a1,1,0,0,0,0,1.37l7.77,7.77a1,1,0,0,0,1.65-.68v-3.89h3.4q1.49,0,2.66.09a19.2,19.2,0,0,1,2.34.33,8.68,8.68,0,0,1,2,.65,7.15,7.15,0,0,1,1.6,1.05,5.29,5.29,0,0,1,1.21,1.53,8.26,8.26,0,0,1,.74,2.1,12.93,12.93,0,0,1,.27,2.75q0,.83-.08,1.87a3.11,3.11,0,0,1,0,.36,3.12,3.12,0,0,0,0,.4.57.57,0,0,0,.13.38.44.44,0,0,0,.36.15.52.52,0,0,0,.42-.26,1.74,1.74,0,0,0,.2-.33l.2-.46.16-.36a18.22,18.22,0,0,0,1.93-6.85A13.82,13.82,0,0,0,345.56,462.09Z"/></g></g></g></svg>