<?xml version="1.0" encoding="utf-8"?>
<!-- Generator: Adobe Illustrator 21.1.0, SVG Export Plug-In . SVG Version: 6.00 Build 0)  -->
<svg version="1.1" id="Capa_1" xmlns="http://www.w3.org/2000/svg" xmlns:xlink="http://www.w3.org/1999/xlink" x="0px" y="0px"
	 viewBox="0 0 983.9 641.3" style="enable-background:new 0 0 983.9 641.3;" xml:space="preserve">
<style type="text/css">
	.st0{fill:none;}
	.st1{fill:#1D1D1B;}
	.st2{fill:url(#SVGID_1_);}
	.st3{clip-path:url(#SVGID_3_);}
	.st4{fill:url(#SVGID_5_);}
	.st5{fill:#BFBFBF;}
	.st6{opacity:0.48;}
	.st7{clip-path:url(#SVGID_7_);}
	.st8{fill:#EAEAEA;}
	.st9{fill:#E5E5E5;}
	.st10{fill:#FFAA00;}
	.st11{fill:#70706F;}
	.st12{fill:#939393;}
	.st13{fill:#D6D5D4;}
	.st14{fill:#FFCE00;}
	.st15{fill:#FFB600;}
	.st16{fill:#DAA284;}
	.st17{fill:#EFB49A;}
	.st18{fill:#383D46;}
	.st19{fill:#FFFFFF;}
	.st20{fill:#FC8080;}
	.st21{fill:#E51C1C;}
	.st22{fill:#D0EAEA;}
	.st23{opacity:0.47;fill:#F9F9F9;enable-background:new    ;}
	.st24{fill:#0A0A0A;}
	.st25{fill:#F6BB42;}
	.st26{fill:#F7D69C;}
	.st27{fill:#E25057;}
	.st28{fill:#FFCE54;}
	.st29{fill:#E6E9ED;}
	.st30{fill:#CCD1D9;}
	.st31{fill:#0E1114;}
</style>
<pattern  y="641.3" width="28.8" height="28.8" patternUnits="userSpaceOnUse" id="SVGID_4_" viewBox="4.3 -33.1 28.8 28.8" style="overflow:visible;">
	<g>
		<rect x="4.3" y="-33.1" class="st0" width="28.8" height="28.8"/>
		<g>
			<rect x="4.3" y="-33.1" class="st0" width="28.8" height="28.8"/>
			<rect x="4.3" y="-33.1" class="st0" width="28.8" height="28.8"/>
			<circle class="st1" cx="33.1" cy="-4.3" r="4.3"/>
			<circle class="st1" cx="18.7" cy="-4.3" r="4.3"/>
			<circle class="st1" cx="33.1" cy="-18.7" r="4.3"/>
			<circle class="st1" cx="18.7" cy="-18.7" r="4.3"/>
			<circle class="st1" cx="11.5" cy="-11.5" r="4.3"/>
			<circle class="st1" cx="25.9" cy="-11.5" r="4.3"/>
			<circle class="st1" cx="11.5" cy="-25.9" r="4.3"/>
			<circle class="st1" cx="25.9" cy="-25.9" r="4.3"/>
			<circle class="st1" cx="4.3" cy="-4.3" r="4.3"/>
			<circle class="st1" cx="4.3" cy="-18.7" r="4.3"/>
			<circle class="st1" cx="33.1" cy="-33.1" r="4.3"/>
			<circle class="st1" cx="18.7" cy="-33.1" r="4.3"/>
			<circle class="st1" cx="4.3" cy="-33.1" r="4.3"/>
		</g>
	</g>
</pattern>
<title>quimicos</title>
<g>
	<g id="Capa_2">
		<g id="cuadro">
			
				<linearGradient id="SVGID_1_" gradientUnits="userSpaceOnUse" x1="71.1" y1="322.8" x2="976.9999" y2="322.8" gradientTransform="matrix(1 0 0 1 0 -56)">
				<stop  offset="0.14" style="stop-color:#2C35FF"/>
				<stop  offset="0.29" style="stop-color:#2932F9"/>
				<stop  offset="0.49" style="stop-color:#202BE9"/>
				<stop  offset="0.72" style="stop-color:#111FCD"/>
				<stop  offset="0.91" style="stop-color:#0012AF"/>
			</linearGradient>
			<path class="st2" d="M113.5,61.5H777c23.4,0,42.4,19,42.4,42.4v325.8c0,23.4-19,42.4-42.4,42.4H113.5c-23.4,0-42.4-19-42.4-42.4
				V103.9C71.1,80.5,90.1,61.5,113.5,61.5z"/>
			<g>
				<g>
					<defs>
						<path id="SVGID_2_" d="M113.5,61.3H777c23.4,0,42.4,19,42.4,42.4v325.8c0,23.4-19,42.4-42.4,42.4H113.5
							c-23.4,0-42.4-19-42.4-42.4V103.7C71.1,80.3,90.1,61.3,113.5,61.3z"/>
					</defs>
					<clipPath id="SVGID_3_">
						<use xlink:href="#SVGID_2_"  style="overflow:visible;"/>
					</clipPath>
					<g class="st3">
						<pattern  id="SVGID_5_" xlink:href="#SVGID_4_" patternTransform="matrix(0.61 0 0 0.55 -6037.3779 8684.0381)">
						</pattern>
						<rect y="61" class="st4" width="970.7" height="486.5"/>
					</g>
				</g>
			</g>
			<path class="st5" d="M620.3,178.9H928c2.6,0,4.7,2.1,4.7,4.7v0.7c0,2.6-2.1,4.7-4.7,4.7H620.3c-2.6,0-4.7-2.1-4.7-4.7v-0.7
				C615.5,181.1,617.7,178.9,620.3,178.9z"/>
			<path class="st5" d="M236.9,178.1H70v11h166.9c2.8,0,5.1-2.3,5.1-5.1v-0.7C242,180.4,239.7,178.1,236.9,178.1L236.9,178.1z"/>
		</g>
		<g id="personaje">
			<g class="st6">
				<g>
					<g>
						<defs>
							<path id="SVGID_6_" d="M113.5,60.3H777c23.4,0,42.4,19,42.4,42.4v325.8c0,23.4-19,42.4-42.4,42.4H113.5
								c-23.4,0-42.4-19-42.4-42.4V102.7C71.1,79.3,90.1,60.3,113.5,60.3z"/>
						</defs>
						<clipPath id="SVGID_7_">
							<use xlink:href="#SVGID_6_"  style="overflow:visible;"/>
						</clipPath>
						<g class="st7">
							<path d="M946.2,157.9c5.2-5.9,11-13.5,13-18.6c2.9-7.2,4.9-19.9-2.6-21.8c-2.8-0.7-5.8-0.1-8.7-0.6c-6-1.2-10.2-6.6-9.8-12.7
								c0.6-5.9,5.3-10.4,8.4-15.5s3.3-13.3-2.3-15.5c-5-1.9-11,2.6-15.7,0.1l-0.8-0.4c3.9-2.7,9-3.5,13.8-3.9
								c1.9,0,3.8-0.4,5.6-1.1s3-2.4,3.2-4.3c0-1.9-2-3.7-3.8-3c1,1.9-0.8,4.2-2.9,4.8s-4.3-0.1-6.4-0.4c-5.7-0.8-11.5,0.5-16.2,3.7
								c-1.2-1.1-1.5-2.8-0.8-4.2c2-4.2,5.4-7.8,6.3-12.4c1.1-5.4-2.5-10.8-7.4-13.2c0.6,0,1.2,0,1.7,0.1c5.1,0.3,10.2-0.9,14.5-3.6
								c1.4-0.9,2.9-2.7,1.8-4c-1.9,3.5-6.2,5-10.2,5.3s-8-0.5-12-0.3c-3.5,0-6.8,1.2-9.7,3.2c-0.7,0.6-1.3,1.2-1.9,1.9
								c-1.5,0.8-3.2,1-4.8,0.7c-2.5-0.6-4.2-2.8-5.7-4.9c-3.9-5.3-8.3-10.5-14.3-13.5s-13.7-3.1-18.8,1.1
								c-4.2,3.5-5.9,9.5-10.3,12.8c-1.4,1.1-3,1.8-4.8,2.3c-2.5-2-3.8-5.5-2.5-8.4c0.9-1.9,2.6-3.3,4.1-4.9
								c3.1-3.3,5.1-8.6,2.3-12.2c-1.9-2.5-5.3-3.2-8.1-4.7c-3.9-2-6.7-5.7-7.7-9.9c-0.2,2.8,0.7,5.7,2.5,7.8
								c1.9,2.2,4.5,3.6,6.6,5.6s3.4,5.4,1.8,7.8c-1.8,2.7-5.8,2.6-8.6,4.3c-4.2,2.5-4.4,8.3-3.7,13.1c-1.2-0.5-2.3-1-3.5-1.6
								c-0.8-1.7-1.1-3.5-1-5.3c0.2-2.8,1.3-5.3,2.1-7.9s1.4-5.5,0.3-8.1s-4.2-4.4-6.7-3.2c2.5,1.5,3.9,4.1,3.8,7
								c-0.2,2.9-1.9,5.4-4.5,6.6c-0.8,0.3-1.5,0.6-2.1,1.1c-1.3,1.2-1.1,3.2-0.5,5c-6.8-4-14.3-7.4-22.2-7.5
								c-8.1-0.2-16.7,3.7-20,11c-4.1,9.1,0.1,22.2-8.1,28c-5.6,3.9-13.3,1.4-19.8-0.7s-15.1-2.9-19,2.8c-6.2,9.2,8.5,21.4,4.5,31.7
								c-1.5,4-5.7,6.6-9.9,7c-4.3,0.3-8.6-0.8-12.2-3.2c2.2,4.2,6.9,6.7,11.6,7.3s9.5-0.5,14.1-1.8c5.1-1.4,12.5-1.9,13.9,3.2
								c0.9,3.2-1.7,6.4-4.7,7.8s-6.4,1.7-9.5,2.8c-1.6,0.5-3.1,1.4-4.2,2.7c-3.6,4.7,1.5,11.1,6.5,14.3s11.1,7.6,9.8,13.4
								c-0.8,3.5-4.3,5.7-7.6,7s-7,2.1-9.8,4.4s-4.2,6.8-1.8,9.4s7.1,1.7,10.7,0.6s8.5-1.3,10.2,2.1c2.2,4.6-4.7,9.7-3,14.6
								c5.1-1.9,10.9-1.1,15.3,2.2l3.5,2c-0.1,6.5-0.3,12.4-0.7,17.3c-1.6,17.6,21,50.6,45,50c0,0,4.9,2.3,15,1.4l1.3,8.8l-18.9-0.7
								l-0.2,0.1v-0.3l-53.9,16.1l-0.1,0.9c-2.1,1.6-3.6,3.9-4.1,6.4L720.6,354l-16-62.1c1.4-1.5,2.5-3.6,2.1-4.9l-13.5-40.9
								l14.3-29.2c1-1.6,0.5-3.8-1.2-4.8c0,0-0.1,0-0.1-0.1l-2.7-1.5c-1.7-1-3.8-0.5-4.8,1.2c0,0,0,0,0,0.1l-12.5,12.3l-0.7-1.8
								l-3.5-37.1c0-1.9-1.5-3.5-3.4-3.5c-0.1,0-0.2,0-0.3,0l-2.9,0.3c-1.9,0-3.5,1.5-3.5,3.4c0,0.1,0,0.2,0,0.3l-0.3,22.5l-9-26.4
								c-0.5-1.9-2.4-3-4.3-2.5c-0.1,0-0.1,0-0.2,0l-3,0.9c-1.9,0.5-3,2.4-2.5,4.3c0,0.1,0,0.1,0.1,0.2l6.7,29.4l-11.6-27
								c-0.7-1.8-2.7-2.7-4.5-2.1l0,0l-2.9,1.1c-1.8,0.7-2.7,2.7-2.1,4.5c0,0,0,0,0,0.1l7.5,24.5l-9.5-12.7c-1-1.6-3.2-2-4.7-0.9
								l0,0l-2.4,1.6c-1.5,1-2,3.1-1,4.7l0,0l20.7,38.2l12.3,54.8c0.6,2.4,5.5,3.2,7.8,2.6l1.3-0.4l28.7,91.3
								c0.2,1.1,0.5,2.2,0.7,3.2c-1.7,7.7,2.8,9.9,4.2,10.4c4.5,6.7,10.2,6.5,13.3,5.6c10.9,2.2,14.3-4.7,14.3-4.7l14.8-30.9
								L735,502.5l-6.9,2.5c-1.9,0.5-3,2.3-2.5,4.2c0,0.1,0,0.2,0.1,0.3l0.9,2.3v0.2c0.1,0.3,0.2,0.6,0.4,0.9
								c0.7,1.6,2.6,2.3,4.2,1.8l2.8-0.7l-0.8,8.4l-3.4,2.2c-1.7,0.9-2.3,3.1-1.4,4.8c0,0.1,0.1,0.1,0.1,0.2l1.6,2.7
								c0.5,0.8,1.2,1.3,2,1.6l-8.6,91.4h94.7l0.1-6l11.4,0.7l-0.4,8.1h91.9L920,440.6l7.5-4.6c6.3-2.9,10.2-5.9,12.6-8.8
								c6.8-3.9,6.3-9.7,6.3-9.7l-9.7-103c-0.1-17.9-12-21.1-17.5-21.6v-0.5L860.9,271l-0.1,1.1l-0.5-0.3L860,273l-2-0.8l-2.2-0.1
								l-2.5-17.2c0.9-0.4,1.8-0.8,2.7-1.2c2.1,1.5,4.1,2.8,5.3,3.4c2.9,1.7,44.5,13.4,43.6-9c-0.1-2.4-5-14.4-4.3-16.7
								s3.3-3.4,5.8-3.4c0.2,4.1,1.4,8.1,3.5,11.7c0.9,1.4,2.7,2.9,4,1.9c-3.5-2-5-6.2-5.2-10.2c-0.1-1.1-0.1-2.1,0-3.2
								c2.9,0.4,7,1.2,9.1,1.5c4.8,0.7,9.7-0.8,13.8-3.2c1.4-0.7,2.5-1.7,3.2-3.1c1.5-3.6-2.7-6.9-6.2-8.5s-7.9-4.4-7-8.1
								c0.7-2.8,0.8-4.2,3.5-5.1c10.5-3.2,19.4-3,21.6-13.6c0.5-2.5,0.5-5.3-1-7.4c-2.5-3.6-8.5-4.6-9.3-8.9
								c-0.6-2.9,1.7-5.6,3.8-7.7c0.7-0.6,1.4-1.4,2.2-2.1c0.4,1.2,0.6,2.5,1,3.7c0.6,2.4,1.8,4.5,3.6,6.2s4.3,2.5,6.7,2.1
								c-5.4-1.9-8.7-7.3-8-12.9C945.8,160.1,946.1,159,946.2,157.9z"/>
						</g>
					</g>
				</g>
			</g>
		</g>
		<g id="Capa_6">
			<path class="st8" d="M792.4,286.9c0,0,18.2,8.8,6.3,29l-44.8,93.4c0,0-6,12.1-27.3-0.8c0,0-8.7-2-3.2-15.1l49.8-99.9
				C773.3,293.5,775.2,280.6,792.4,286.9z"/>
			<path class="st9" d="M741.9,413c0,0-15.6,8.7-20.6-18.4l-38-121c0,0-4-15.4,23.2-19.4c0,0,8.6-4.6,13.8,11.3L753,392.8
				C752.9,392.9,760.8,406.1,741.9,413z"/>
			<path class="st10" d="M651.5,203.5l2.4-1.6c1.6-1,3.7-0.6,4.7,0.9l0,0l9.5,12.7l-7.5-24.5c-0.7-1.8,0.2-3.8,2-4.5l0,0l2.9-1.1
				c1.8-0.7,3.8,0.2,4.5,2l0,0l11.6,27l-6.7-29.5c-0.6-1.9,0.4-3.8,2.3-4.4c0.1,0,0.1,0,0.2-0.1l3-0.9c1.9-0.6,3.9,0.4,4.4,2.3
				c0,0.1,0,0.1,0,0.2l9,26.4l0.3-22.5c-0.1-1.9,1.3-3.6,3.2-3.7c0.1,0,0.2,0,0.3,0l2.9-0.3c1.9-0.1,3.6,1.3,3.7,3.2
				c0,0.1,0,0.2,0,0.3l3.5,37.1l0.7,1.8l12.5-12.3c1-1.7,3.1-2.3,4.8-1.3c0,0,0,0,0.1,0l2.7,1.5c1.7,0.9,2.3,3.1,1.3,4.7
				c0,0,0,0.1-0.1,0.1l-14.3,29.2l13.5,40.9c0.7,2.2-2.7,6.4-5.1,7l-32.7,9.5c-2.2,0.6-7.2-0.2-7.8-2.6L671,246.2L650.3,208
				C649.5,206.7,649.9,204.6,651.5,203.5C651.4,203.5,651.4,203.5,651.5,203.5z"/>
			<polygon class="st11" points="880,272.5 940.7,299 929.8,455.1 937,641.3 828.3,633.4 815.7,578.9 766.5,577 798.3,433.4 
				775.9,294.4 831.6,270.3 			"/>
			<path class="st12" d="M881.5,34.4c-1.5,4.4-6,8-10.7,7.5s-8.4-5.9-6.5-10.2c0.9-1.9,2.6-3.3,4.1-4.9c3.1-3.3,5.1-8.6,2.3-12.2
				c-1.9-2.5-5.3-3.2-8.1-4.7c-3.9-2-6.7-5.6-7.7-9.9c-0.2,2.8,0.7,5.7,2.5,7.8c1.9,2.2,4.5,3.6,6.6,5.6s3.4,5.4,1.8,7.8
				c-1.8,2.7-5.8,2.6-8.6,4.3c-4.3,2.6-4.5,8.7-3.6,13.7c0.3,2.4,1.1,4.8,2.3,6.9c2.5,3.8,7.5,5.5,12,4.8c4.5-0.9,8.5-3.5,11.2-7.2"
				/>
			<path class="st12" d="M855.1,41.5c-0.3,0.5-1.1,0.3-1.6-0.1c-3-2.3-4.7-5.9-4.5-9.7c0.2-2.8,1.3-5.3,2.1-8s1.4-5.5,0.3-8.1
				s-4.2-4.4-6.7-3.2c2.5,1.5,3.9,4.1,3.8,7c-0.2,2.9-1.9,5.4-4.5,6.6c-0.8,0.3-1.5,0.6-2.1,1.1c-1.5,1.4-1,3.8-0.2,5.7
				c1,2.5,2.1,5,3.3,7.5"/>
			<polygon class="st13" points="858.5,472.4 851.2,628 943.1,628 941,292.2 882.7,270.8 			"/>
			<polygon class="st8" points="882.1,271.6 860,472.9 907.3,377.3 901.2,330.1 931.9,302.4 			"/>
			<polygon class="st13" points="842,472.8 840.1,625.2 745.4,625.2 777.4,286.2 831.3,270.1 			"/>
			<polygon class="st8" points="831.9,270.9 840.5,473.2 799.8,374.8 809,328.1 780.2,298.4 			"/>
			<path class="st8" d="M938.2,292.6c0,0,20.2-1.7,20.3,21.7l9.7,103c0,0,1.1,13.4-23.9,13.2c0,0-8.5,2.7-10.5-11.3L925,308.1
				C925.1,308.1,920.2,296,938.2,292.6z"/>
			<path class="st9" d="M962.1,411.3c0,0,12.4,12.8-12.7,24.5L841.2,503c0,0-13.9,7.8-24.7-17.4c0,0-6.7-7.1,7.5-16.1l115.6-63.7
				C939.7,405.8,950.5,394.9,962.1,411.3z"/>
			<path class="st10" d="M781,551.3l-2.2-1.9c-1.4-1.2-1.5-3.3-0.3-4.7l0,0l9.9-12.3l-21.9,13.5c-1.6,1.1-3.8,0.7-4.9-0.8l-1.8-2.5
				c-1.1-1.6-0.7-3.7,0.8-4.8l0,0l23.3-18l-27,13.9c-1.7,1.1-3.8,0.6-4.9-1.1c0-0.1-0.1-0.1-0.1-0.2l-1.6-2.7
				c-1-1.6-0.5-3.8,1.1-4.8c0.1,0,0.1-0.1,0.2-0.1l23.4-15.4l-22,5.4c-1.8,0.6-3.8-0.4-4.4-2.2c0-0.1-0.1-0.2-0.1-0.2l-1-2.7
				c-0.6-1.8,0.4-3.8,2.2-4.4c0.1,0,0.2-0.1,0.3-0.1l35.2-12.8l1.6-1.1l-15.1-8.9c-1.9-0.5-3-2.4-2.5-4.3V478l0.8-3
				c0.5-1.9,2.4-3,4.3-2.5h0.1l32,6.4l36.4-23.4c2-1.2,6.9,1,8.1,3.2l17.6,29c1.2,2,1.6,7-0.6,8.1l-50.2,25.7L785.8,551
				C784.6,552.4,782.5,552.6,781,551.3C781,551.4,781,551.3,781,551.3z"/>
			<path class="st14" d="M778.9,549.5c-1.4-1.2-1.5-3.3-0.3-4.7l0,0l9.9-12.3L766.6,546c-1.6,1.1-3.8,0.7-4.9-0.8l-1.8-2.5
				c-1.1-1.6-0.7-3.7,0.8-4.8l0,0l23.3-18l-27,13.9c-1.7,1.1-3.8,0.6-4.9-1.1c0-0.1-0.1-0.1-0.1-0.2l-1.6-2.7
				c-1-1.6-0.5-3.8,1.1-4.8c0.1,0,0.1-0.1,0.2-0.1l23.4-15.4l-22,5.4c-1.8,0.6-3.8-0.4-4.4-2.2c0-0.1-0.1-0.2-0.1-0.2l-1-2.7
				c-0.6-1.8,0.4-3.8,2.2-4.4c0.1,0,0.2-0.1,0.3-0.1l35.2-12.8l1.6-1.1l-15.1-8.9c-1.9-0.5-3-2.4-2.5-4.3v-0.1l0.8-3
				c0.5-1.9,2.4-3,4.3-2.5h0.1l32,6.4l0.1-0.4L788.9,548l-3.2,3c-1.2,1.4-3.4,1.5-4.8,0.3l0,0L778.9,549.5z"/>
			<path class="st15" d="M779.7,549.3c-1.4-1.2-1.5-3.3-0.3-4.7l0,0l9-12.2l-22,13.5c-1.6,1.1-3.8,0.7-4.9-0.8l-0.8-1.9
				c-1.1-1.6-0.7-3.7,0.8-4.8l0,0l22.5-18.6l-27,13.9c-1.7,1.1-3.8,0.6-4.9-1.1c0-0.1-0.1-0.1-0.1-0.2l-0.8-2.1
				c-1-1.6-0.5-3.8,1.1-4.8c0.1,0,0.1-0.1,0.2-0.1L775,509l-22,5.4c-1.8,0.6-3.8-0.4-4.4-2.2c0-0.1-0.1-0.2-0.1-0.2l-0.2-1.5
				c-0.6-1.8,0.4-3.8,2.2-4.4c0.1,0,0.2-0.1,0.3-0.1l34.5-13.7l1.6-1.1l-15.1-8.9c-1.9-0.5-3-2.4-2.5-4.3v-0.1l0.3-1.1
				c0.5-1.9,2.4-3,4.3-2.5h0.1l32.5,4.4l0.1-0.4L788.9,548l-3.2,3c-1.2,1.4-3.4,1.5-4.8,0.3l0,0L779.7,549.3z"/>
			<path class="st16" d="M864,286.3l4.4-0.6c6.2-0.8,10.5-6.5,9.6-12.6c0,0,0,0,0-0.1l-5.6-38.9c-0.9-6.1-6.6-10.4-12.8-9.5
				l-4.4,0.6c-6.1,0.8-10.4,6.5-9.6,12.7c0,0,0,0,0,0.1l5.6,38.9C852.2,283,857.9,287.2,864,286.3z"/>
			<path class="st12" d="M846.2,225.7c0.7,3.3,24.8,17.5,25.2,20.9s9,8.8,11.9,10.5s44.5,13.4,43.6-9c-0.1-2.4-5-14.4-4.3-16.7
				s3.8-3.5,6.3-3.4s8.2,1.3,10.8,1.7c4.8,0.7,9.7-0.8,13.8-3.2c1.4-0.7,2.5-1.7,3.2-3.1c1.5-3.6-2.7-6.9-6.2-8.5s-7.9-4.4-7-8.1
				c0.7-2.8,0.8-4.2,3.5-5.1c10.5-3.2,19.4-3,21.6-13.6c0.5-2.5,0.5-5.3-1-7.4c-2.5-3.6-8.5-4.6-9.3-8.9c-0.6-2.9,1.7-5.6,3.8-7.7
				c5.6-5.4,16-17.6,18.9-24.8s4.9-19.9-2.6-21.8c-2.8-0.7-5.8-0.1-8.7-0.6c-6-1.2-10.2-6.6-9.8-12.7c0.6-5.9,5.3-10.4,8.4-15.5
				s3.3-13.3-2.3-15.5c-5-1.9-11,2.6-15.7,0.1c-4.1-2.2-10.3-4.7-8.3-8.8s5.4-7.8,6.3-12.4c1.8-8.7-8.8-17.2-17-13.8
				c-3.6,1.5-7,4.9-10.8,3.9c-2.5-0.6-4.2-2.8-5.7-4.9c-3.9-5.4-8.3-10.6-14.3-13.5s-13.7-3.1-18.8,1.1c-4.2,3.5-5.9,9.5-10.3,12.8
				c-4.2,3.2-10.2,3.4-15.3,1.9s-9.6-4.5-14.2-7.2c-7-4.1-14.6-7.6-22.7-7.8s-16.7,3.7-20,11.1c-4.1,9.1,0.1,22.2-8.1,28
				c-5.6,3.9-13.3,1.4-19.8-0.7s-15.1-2.9-19,2.8c-6.2,9.2,8.5,21.4,4.5,31.7c-1.5,4-5.7,6.6-9.9,7c-4.3,0.3-8.6-0.8-12.2-3.2
				c2.2,4.2,6.9,6.7,11.6,7.3s9.5-0.5,14.1-1.8c5.1-1.4,12.5-1.9,13.9,3.2c0.9,3.2-1.7,6.4-4.7,7.8s-6.4,1.7-9.5,2.8
				c-1.6,0.5-3.1,1.4-4.2,2.7c-3.6,4.7,1.5,11.1,6.5,14.3s11.1,7.6,9.8,13.4c-0.8,3.5-4.3,5.7-7.6,7s-7,2.1-9.8,4.4
				s-4.2,6.8-1.8,9.4s7.1,1.7,10.7,0.6s8.5-1.3,10.2,2.1c2.2,4.6-4.7,9.7-3,14.6c5.1-1.9,10.9-1.1,15.3,2.2"/>
			<path class="st17" d="M919.7,195.4c0,0,0.6-32.7-8.1-65.6c-0.6-2.4-16.8-6.2-22.5-29.2c0,0-1.4-25.2-20.2-29
				c-84.3-17.2-75.4,57-76.7,67.1c-3.1,23.9-1.4,54.5-3,72.1s21,50.6,45,50c0,0,21.3,10.1,67.1-20.4
				C901.2,240.5,921.6,224.8,919.7,195.4z"/>
			<path class="st18" d="M869,167.8c2.3,3.5,6.9,4.6,10.6,2.5c3.4-1.8,4.7-6,2.9-9.4c-0.1-0.2-0.2-0.4-0.3-0.5
				c-2.3-3.5-6.9-4.6-10.6-2.5c-3.4,1.8-4.7,6-2.9,9.4C868.8,167.4,868.9,167.6,869,167.8z"/>
			<path class="st19" d="M873,165.5c1.2-0.6,1.7-2.1,1-3.3c0-0.1-0.1-0.1-0.1-0.2c-0.8-1.2-2.5-1.6-3.8-0.9c-1.2,0.6-1.7,2.1-1,3.3
				c0,0.1,0.1,0.1,0.1,0.2C870,165.9,871.7,166.3,873,165.5z"/>
			<path class="st18" d="M805.6,167.7c2.3,3.5,6.9,4.6,10.6,2.5c3.4-1.8,4.7-6,2.9-9.4c-0.1-0.2-0.2-0.4-0.3-0.5
				c-2.3-3.5-6.9-4.6-10.6-2.5c-3.4,1.8-4.7,6-2.9,9.4C805.4,167.4,805.5,167.6,805.6,167.7z"/>
			<path class="st19" d="M809.6,165.5c1.2-0.6,1.7-2.1,1-3.3c0-0.1-0.1-0.1-0.1-0.2c-0.8-1.2-2.5-1.6-3.8-0.9
				c-1.2,0.6-1.7,2.1-1,3.3c0,0.1,0.1,0.1,0.1,0.2C806.7,165.8,808.3,166.2,809.6,165.5z"/>
			<path class="st12" d="M885.8,127.6c9.4,2.4,15.3,10,15.6,15.8s2.2-2.5,0.9-5.9c-3.1-8-7.9-11.4-12.9-13.1
				C881.4,121.8,883.2,127,885.8,127.6z"/>
			<path class="st12" d="M807.1,123.8c-9.5,1.9-15.9,9.1-16.6,14.9s-2-2.6-0.5-5.9c3.5-7.8,8.6-11,13.6-12.3
				C811.9,118.3,809.7,123.3,807.1,123.8z"/>
			<path class="st20" d="M841.1,195.1c-0.2-0.1-0.3-0.1-0.4-0.2l-9.6-7.9c-0.7-0.6-0.9-1.7-0.2-2.5c0.4-0.4,0.9-0.7,1.5-0.6l19,1.2
				c1,0.1,1.7,0.9,1.6,1.9c0,0.6-0.3,1.1-0.8,1.4l-10.6,6.6C841.4,194.9,841.3,195,841.1,195.1z"/>
			<path class="st21" d="M963.9,148.8"/>
			<path class="st12" d="M918.8,130.2c1.3,2.2-0.7,5.2-3.1,5.8s-5-0.5-7.3-1.7c-7-4.1-12.5-10.4-15.5-17.9c-1.8-4.6-3-9.9-7.1-12.7
				c-4-2.6-9.1-1.9-13.9-1.9s-14.9,5.3-16.1,0.8c-0.9-3.5,1.3-7,2.9-10.2c1.5-3,2.4-6.4,1.6-9.6s-4-6-7.3-5.4
				c-5.2,0.9-7.9,8.8-13,7.7c-3.7-0.8-5.2-5.9-8.9-6.4c-1.2-0.1-2.5,0.3-3.5,1c-4.5,3-4.8,9.3-6.4,14.5c-1.5,4.9-0.3,2.2-4.5,5.1
				c-0.9,0.8-2.1,1.2-3.3,1.1c-2.4-0.5-2.9-3.9-5-5.1c-1.8-1-3.9-0.1-5.8,0.2c-5.6,0.8-11.1-3.9-12-9.5s2.4-11.3,7.1-14.3
				c3.1-2,6.9-3.1,9.6-5.7c2.5-2.5,3.7-6,6.2-8.5c4.7-4.8,12.3-4.7,19-4.2c8.2,0.6,16.3,1.1,24.5,1.8c5.5,0.5,11.2,1,16.4,2.9
				c5.6,2,10.6,5.5,15.5,8.9c9.5,6.6,19.8,14.4,21.9,25.8c0.7,3.4,0.5,7.2,2.4,10.1c1.1,1.5,2.3,2.9,3.7,4.1c2.6,2.5,5,5.2,7.1,8.2
				c2.7,3.9,5,8.6,4.2,13.3c-0.8,4.7-6.3,8.6-10.6,6.4c0.5,1.2,0,2.6-1.2,3.1s-2.6,0-3.1-1.2c-0.2-0.3-0.2-0.7-0.2-1.1"/>
			<path class="st22" d="M847.7,168c2,14.1,15,23.9,29.1,21.9s23.9-15,21.9-29.1s-15-23.9-29.1-21.9c0,0,0,0-0.1,0
				C855.5,140.9,845.8,153.9,847.7,168z"/>
			<path class="st19" d="M847.3,167.7c2.1,15.5,16.4,26.3,31.9,24.2s26.3-16.4,24.2-31.9s-16.4-26.3-31.9-24.2c-0.1,0-0.2,0-0.2,0
				C855.9,138.1,845.1,152.3,847.3,167.7z M849.9,167.4c-2-13.2,7.2-25.6,20.4-27.5c13.2-2,25.6,7.2,27.5,20.4
				c2,13.2-7.2,25.6-20.4,27.5h-0.1C864.1,189.8,851.8,180.7,849.9,167.4C849.9,167.5,849.9,167.4,849.9,167.4L849.9,167.4z"/>
			<path class="st23" d="M892.3,167.4L892.3,167.4c0.6-0.5,0.7-1.4,0.2-2l-8-8.9c-0.5-0.6-1.4-0.6-2-0.1l0,0c-0.6,0.5-0.6,1.4-0.1,2
				l8,8.9C890.8,167.9,891.7,167.9,892.3,167.4z"/>
			<path class="st23" d="M892,159L892,159c0.6-0.5,0.7-1.4,0.2-2l-8-8.9c-0.5-0.6-1.4-0.6-2-0.1l0,0c-0.6,0.5-0.6,1.4-0.1,2l8,8.9
				C890.5,159.5,891.4,159.5,892,159z"/>
			<path class="st22" d="M786.3,166.9c4.5,13.5,19.1,20.8,32.6,16.3s20.8-19.1,16.3-32.6s-19.1-20.8-32.6-16.3h-0.1
				C789.1,139,781.9,153.5,786.3,166.9z"/>
			<path class="st19" d="M783.9,162.7c2.1,15.5,16.4,26.3,31.9,24.2s26.3-16.4,24.2-31.9s-16.4-26.3-31.9-24.2c-0.1,0-0.2,0-0.2,0
				C792.5,133,781.7,147.2,783.9,162.7z M786.5,162.3c-2-13.2,7.2-25.6,20.4-27.5c13.2-2,25.6,7.2,27.5,20.4
				c2,13.2-7.2,25.6-20.4,27.5h-0.1C800.7,184.7,788.4,175.6,786.5,162.3L786.5,162.3z"/>
			<path class="st23" d="M807.8,168.6L807.8,168.6c0.6-0.5,0.7-1.4,0.2-2l-8-8.9c-0.5-0.6-1.4-0.6-2-0.1l0,0c-0.6,0.5-0.6,1.4-0.1,2
				l8,8.9C806.3,169.1,807.2,169.1,807.8,168.6z"/>
			<path class="st23" d="M807.5,160.2L807.5,160.2c0.6-0.5,0.7-1.4,0.2-2l-8-8.9c-0.5-0.6-1.4-0.6-2-0.1l0,0c-0.6,0.5-0.6,1.4-0.1,2
				l8,8.9C806.1,160.7,806.9,160.7,807.5,160.2z"/>
			<path class="st19" d="M849.3,159.1c0.2,0.3-0.2,0.6-0.5,0.6c-0.3-0.1-0.6-0.3-0.8-0.6c-2.6-2.8-6.6-3.8-10.2-2.6
				c-1,0.2-1.8,0.9-2.2,1.7s-0.1,1.8,0.8,2.2c0.1,0,0.2,0.1,0.2,0.1c0.4,0,0.9,0,1.2-0.2c3-0.9,6.3-0.3,8.9,1.6
				c0.4,0.3,0.9,0.6,1.2,0.2c0.1-0.1,0.2-0.3,0.2-0.4c0.2-1,0.2-2,0-3"/>
			<path class="st19" d="M895.8,145.6c3.1,3.9,9.7,8.6,13.3,12c2.8,2.6,5,4.9,9,8.6c0.9,1,1.8,2,2.5,3.2c0.6,1,0.2,2.5-0.9,2.7
				c-0.6,0-1.2-0.2-1.7-0.6l-12.5-8.4c-2.2-1.3-4.2-2.9-6-4.7s-3-4.1-3.4-6.6c-0.2-1,0.1-2,0.9-2.7c0.8-0.5-0.4-3.3-1-2.6"/>
			<path class="st24" d="M816.6,209.9c0,0,8.2,1.3,24.8,1.6c23.7,0.4,27.3-2.6,27.3-2.6s-6.7,13.7-31.5,13.7
				C816.4,222.5,816.6,209.9,816.6,209.9z"/>
			<path class="st25" d="M944.8,197.5c-3.2,2-7.5,1.1-9.5-2.1l0,0l-33-51.4l2.1-9.5l9.5,2.1l33,51.4
				C949,191.2,948.1,195.4,944.8,197.5C944.9,197.4,944.9,197.5,944.8,197.5z"/>
			<polygon class="st26" points="907.9,140.4 902.4,143.9 904.5,134.5 914,136.6 			"/>
			<path class="st27" d="M945.7,186.1l1.2,1.9c2,3.2,1.1,7.4-2.1,9.4l0,0c-3.2,2-7.5,1.1-9.5-2.1l0,0l-1.2-1.9L945.7,186.1z"/>
			<path class="st28" d="M938.9,190.4l-28.6-44.7l0,0c-0.3-0.5-0.2-1.2,0.3-1.6l0,0c0.5-0.3,1.2-0.2,1.6,0.4l28.6,44.7L938.9,190.4z
				"/>
			<polygon class="st29" points="940.8,178.4 929.2,185.7 934.1,193.4 945.7,186.1 			"/>
			<path class="st30" d="M934.2,189.3l-1.9,1.2l0,0l-1.2-1.9l0,0l2-1.2c0.5-0.3,1.2-0.2,1.6,0.3l0,0
				C934.9,188.3,934.7,189,934.2,189.3L934.2,189.3z"/>
			<path class="st30" d="M940.7,182.5l1.9-1.2l0,0l1.2,1.9l0,0l-1.9,1.2c-0.5,0.3-1.2,0.2-1.6-0.3l0,0
				C940,183.5,940.1,182.8,940.7,182.5L940.7,182.5z"/>
			<polygon class="st31" points="903.8,137.6 904.5,134.5 907.7,135.2 			"/>
			<path class="st16" d="M918.2,172.2c0,0,8.2-12.9,15.2-9.6c15.7,7.7,3.8,48.4-14.3,34.4L918.2,172.2z"/>
			<path class="st12" d="M962,153.2c1.9-0.4,4.1-0.4,5.4,1c1.6,1.8,0.6,4.6,0.3,6.9c-0.7,5.6,2.6,11,8,12.9
				c-2.4,0.3-4.9-0.5-6.7-2.1c-1.8-1.7-3-3.8-3.6-6.2c-0.7-2.5-1-5.5-3.1-7c-1.9-1.4-4.5-1-6.7-0.7"/>
			<path class="st12" d="M947.1,75.1c3.9-4.5,10.4-5.7,16.4-6.2c1.9,0,3.8-0.4,5.6-1.1s3-2.4,3.2-4.3c0-1.9-2-3.7-3.8-3
				c1,1.9-0.8,4.2-2.9,4.8s-4.3-0.1-6.4-0.4c-7.7-1.1-15.4,1.7-20.6,7.5"/>
			<path class="st12" d="M919,205.8c3.5-0.3,6.9,1.2,9,4c2,2.8,3.1,6.2,3.1,9.6c0.2,4-0.6,7.9-0.4,11.9s1.8,8.2,5.2,10.2
				c-1.3,1-3.1-0.4-4-1.9c-2.6-4.3-3.8-9.4-3.5-14.5c0.1-1.8,0.3-3.8-1-4.9c-0.8-0.5-1.6-0.8-2.5-0.9c-2-0.4-3.7-1.6-4.8-3.3
				c-1-1.8-0.6-4.1,1-5.4"/>
			<path class="st12" d="M923.4,48.6c-0.4-3.5,1.1-6.9,3.9-9c2.8-2,6.2-3.2,9.7-3.2c4-0.2,8,0.5,12,0.3s8.2-1.8,10.2-5.3
				c1,1.3-0.4,3.1-1.8,4c-4.3,2.7-9.4,3.9-14.5,3.6c-1.8-0.1-3.9-0.3-5,1.1c-0.5,0.7-0.7,1.6-0.8,2.4c-0.4,2-1.6,3.8-3.3,4.9
				c-1.8,1-4.1,0.6-5.5-1"/>
		</g>
	</g>
</g>
</svg>
