<svg xmlns="http://www.w3.org/2000/svg" xmlns:xlink="http://www.w3.org/1999/xlink" viewBox="0 0 970.73 521"><defs><style>.cls-1{fill:none;}.cls-2{fill:#1d1d1b;}.cls-3{isolation:isolate;}.cls-4{fill:url(#Degradado_sin_nombre_24);}.cls-5{fill:#fff;}.cls-6{clip-path:url(#clip-path);}.cls-7{mix-blend-mode:screen;fill:url(#_10_ppp_60_);}.cls-8{fill:#4a362e;}.cls-9{fill:#205dc9;}.cls-10{fill:#daa284;}.cls-11{fill:#2e60e8;}.cls-12{fill:#e8af95;}.cls-13{fill:#efb49a;}.cls-14{fill:#383d46;}.cls-15{fill:#57453f;}.cls-16{fill:#fc8080;}.cls-17{fill:url(#Degradado_sin_nombre_2);}</style><linearGradient id="Degradado_sin_nombre_24" x1="950.56" y1="479" x2="-283.78" y2="-113.67" gradientUnits="userSpaceOnUse"><stop offset="0.24" stop-color="#671d25"/><stop offset="0.59" stop-color="#b30e12"/><stop offset="0.86" stop-color="#ea0405"/><stop offset="1" stop-color="red"/></linearGradient><clipPath id="clip-path"><rect class="cls-1" x="71.07" y="30.84" width="748.4" height="410.65" rx="42.44" ry="42.44"/></clipPath><pattern id="_10_ppp_60_" data-name="10 ppp 60%" width="28.8" height="28.8" patternTransform="translate(-43.86 -41.37) scale(0.61 0.55)" patternUnits="userSpaceOnUse" viewBox="0 0 28.8 28.8"><rect class="cls-1" width="28.8" height="28.8"/><circle class="cls-2" cx="28.8" cy="28.8" r="4.32"/><circle class="cls-2" cx="14.4" cy="28.8" r="4.32"/><circle class="cls-2" cx="28.8" cy="14.4" r="4.32"/><circle class="cls-2" cx="14.4" cy="14.4" r="4.32"/><circle class="cls-2" cx="7.2" cy="21.6" r="4.32"/><circle class="cls-2" cx="21.6" cy="21.6" r="4.32"/><circle class="cls-2" cx="7.2" cy="7.2" r="4.32"/><circle class="cls-2" cx="21.6" cy="7.2" r="4.32"/><circle class="cls-2" cy="28.8" r="4.32"/><circle class="cls-2" cy="14.4" r="4.32"/><circle class="cls-2" cx="28.8" r="4.32"/><circle class="cls-2" cx="14.4" r="4.32"/><circle class="cls-2" r="4.32"/></pattern><linearGradient id="Degradado_sin_nombre_2" x1="450.98" y1="384.56" x2="452.2" y2="465.96" gradientUnits="userSpaceOnUse"><stop offset="0.4" stop-color="#b3b3b3"/><stop offset="0.93" stop-color="#333"/></linearGradient></defs><title>restringido</title><g class="cls-3"><g id="Capa_2" data-name="Capa 2"><g id="cuadro"><rect class="cls-4" x="71.07" y="31.06" width="748.4" height="410.65" rx="42.44" ry="42.44"/><rect class="cls-5" x="634.55" y="148.53" width="166.09" height="10.14" rx="4.72" ry="4.72"/><path class="cls-5" d="M233.86,147.69H70.47v11H233.86a5.14,5.14,0,0,0,5.13-5.13v-.73A5.14,5.14,0,0,0,233.86,147.69Z"/><text></text><g class="cls-6"><rect class="cls-7" y="29.62" width="970.73" height="486.55"/></g></g><g id="personaje"><path class="cls-8" d="M845.35,15.13c-15.28-10.95-22.92-16-53.14-15s-58.85,15.07-72.72,58.08c-16.14,50.07,7.28,167.14,14.4,184.18,14.58,34.94,47.25,14.56,87.59,14.4s54.41-3,63-24.6c7.07-17.77,7.83-98.24,4.8-121.19-3.54-26.82-7.68-63.5-17.34-78.34C860.26,14.71,845.35,15.13,845.35,15.13Z"/><path class="cls-9" d="M769.91,239.12s-21.32-16.28-36.26,5.08-40.45,80.87-46.77,92.27-6.94,31,2.09,37.25c6.76,4.72,26.39.75,35.53-8s39.52-67.92,45.34-80.15C781.24,261.66,775.6,246.16,769.91,239.12Z"/><path class="cls-10" d="M766.65,231.67s28.79-7.78,29.29-25.85,0-29.61,0-29.61.5-12,18.07-12S832.28,171,832.28,171s-1,21.31-1.14,30.81S829.81,224,859,226.58c5,.45-5.9,68.86-65.62,64.79C750.78,288.47,766.65,231.67,766.65,231.67Z"/><path class="cls-11" d="M899.47,456c-9.6-47.4-14.4-73.79-14.4-73.79,18.29-72.7,12-144,12-144l-46.8-15s5.47,28.2-36.6,28.2c-46.68,0-38.39-24.18-38.39-24.18l-21.1,6.49s-16.66,52-21.1,69.55c-7.86,31.11.46,46.82,5.4,64.64,8.09,29.17,11,23.73,10.4,55.69-.6,32.4-6,33.89-6,87,0,0,44.4,20.4,124.79,4.2l32.4-7.2S908.73,501.69,899.47,456Z"/><path class="cls-11" d="M959.67,361.18s-17.75-41-24.93-60.67-18.07-47.4-22.92-53.62-14.36-11.09-26-8-19,33.71-11.1,52.86,29.61,68.35,40.26,79.79,22.78,12.77,31.19,10.73S962.14,378,959.67,361.18Z"/><path class="cls-10" d="M907.74,407.34l-19.11,29.15c-2.94,4.49-9,15.92.36,21.9,7.39,4.73,16.43-1.8,19.66-6s22.27-30.51,22.27-30.51Z"/><path class="cls-11" d="M950.32,357.93c-7.71-2-23.33,4.25-30.05,15.63s-33.51,50.6-33.51,50.6-5,6.14.25,9.17,26.14,17.34,26.14,17.34,6,6.51,11.2-.87,32.92-52.34,39.28-62.65S962.62,361.19,950.32,357.93Z"/><path class="cls-10" d="M694.49,297l-.55-2.1L685,261s-.95-10.74-11.15-10.67-17.42,6.63-14.09,17.69,8.44,38.36,8.44,38.36,6.43,11.66,16.48,7.88S694.49,297,694.49,297Z"/><path class="cls-9" d="M716.92,344.19c2.78,10.07,4.58,24.42-4.73,33.37s-32.45,6.21-36.88-10.32C671.37,352.5,653.94,299,653.94,299s-3.62-8.89.37-12.55c3-2.77,30.44-14.48,30.44-14.48s7.92-6.63,11,3.36S714.14,334.12,716.92,344.19Z"/><path class="cls-12" d="M673.06,263.12s14.41-1.17,19.19-20.12,10-27.78,10-27.78l-6-4.74-13.09,17.71s-5.12-12.36-4.54-19.2-9.13-20.65-9.13-20.65l-6.25,5.57-2.68-3.41-6.94,6.84,2.43,5.77-3.34,5,1.09,9.1-4.08,4.43s2.27,10.79,3.38,19.63S655.56,266.41,673.06,263.12Z"/><path class="cls-10" d="M894.77,442.77s-9-4.58-15.76-.72-11.28,9.71-17,13.47-7.6,3.67-7.6,3.67l1.55,5.46s4.63.74,12-2.28c6.28-2.57,5.31-3.09,5.31-3.09s-7.91,13.33-10.87,23.93c-2.14,7.64-3.47,19.25-3.47,19.25l8.57,2.23-.58,5.86,8.34.38,2.49-5.7,5.8.51,2.37-4.54,3.09.14s4.65-13.72,9.57-19.69S911.2,449.09,894.77,442.77Z"/><path class="cls-13" d="M842.48,74.39C850,90.58,850,111.58,850,111.58c4,24.23-7,50-7,50-32.4,48-56.29,35.2-56.29,35.2-37-11.08-52.14-43.4-51.86-61s-1.24-31,.09-55c.56-10.21,13.23-32.38,35.28-36.7,18.66-3.66,28.49-.23,28.49-.23s6.6-15.6,22.2-24.6c0,0-17.4,16.8-19.2,25.2C801.68,44.4,831.47,50.61,842.48,74.39Z"/><path class="cls-14" d="M821.59,101.43a8.18,8.18,0,0,0-9,6.48,7.14,7.14,0,0,0,6,8.65,8.18,8.18,0,0,0,9-6.48A7.14,7.14,0,0,0,821.59,101.43Z"/><path class="cls-5" d="M820.66,106a2.54,2.54,0,0,0,2.12,3.07,2.91,2.91,0,0,0,3.21-2.3,2.54,2.54,0,0,0-2.11-3.07A2.91,2.91,0,0,0,820.66,106Z"/><path class="cls-14" d="M751.5,102.83a8,8,0,0,0-7.25,8,7,7,0,0,0,7.43,7,8,8,0,0,0,7.25-8A7,7,0,0,0,751.5,102.83Z"/><path class="cls-5" d="M751.56,107.38a2.47,2.47,0,0,0,2.64,2.49,2.83,2.83,0,0,0,2.58-2.84,2.47,2.47,0,0,0-2.64-2.49A2.83,2.83,0,0,0,751.56,107.38Z"/><path class="cls-15" d="M812.46,90.64c11-.69,20.45,4.44,23.2,9.64s1.29-3-1.45-5.63c-6.55-6.35-13.15-8-19.12-8C805.36,86.71,809.47,90.83,812.46,90.64Z"/><path class="cls-15" d="M758.48,91.61C748.62,90.49,740,95,737.34,99.92s-1-2.91,1.5-5.35c6.1-5.83,12.07-7.17,17.42-6.9C765,88.12,761.15,91.91,758.48,91.61Z"/><path class="cls-16" d="M785.94,147.32a1.69,1.69,0,0,1-.43-.22L775.41,140a1.75,1.75,0,0,1,1-3.19l18.88-.17a1.75,1.75,0,0,1,1.05,3.17l-10,7.31A1.72,1.72,0,0,1,785.94,147.32Z"/><path class="cls-10" d="M850,112.55s7.16-13.48,14.28-10.61c16.09,6.47,3.62,49.29-15.28,36.64Z"/></g><g id="texto"><circle class="cls-5" cx="788.97" cy="164.58" r="6"/></g><g id="titulo"><path class="cls-5" d="M370.54,120.88H360l-1.64,4.26h-6.56l10.53-24.93h5.87l10.5,24.93h-6.52Zm-2-5.25-3.21-8.24-3.21,8.24Z"/><path class="cls-5" d="M391.9,119.9a6.12,6.12,0,0,0,4-1.33,6.37,6.37,0,0,0,2.11-3.7h6.31a11.88,11.88,0,0,1-4,7.82,12.36,12.36,0,0,1-8.46,3,12.88,12.88,0,0,1-9.37-3.66,13.25,13.25,0,0,1,0-18.48,12.88,12.88,0,0,1,9.37-3.66,12.37,12.37,0,0,1,8.46,3,11.89,11.89,0,0,1,4,7.82h-6.31a6.37,6.37,0,0,0-2.11-3.7,6.13,6.13,0,0,0-4-1.33,6.49,6.49,0,0,0-4.94,2,7.81,7.81,0,0,0,0,10.24A6.49,6.49,0,0,0,391.9,119.9Z"/><path class="cls-5" d="M420.65,119.9a6.12,6.12,0,0,0,4-1.33,6.37,6.37,0,0,0,2.11-3.7h6.31a11.88,11.88,0,0,1-4,7.82,12.36,12.36,0,0,1-8.46,3,12.88,12.88,0,0,1-9.37-3.66,13.25,13.25,0,0,1,0-18.48,12.88,12.88,0,0,1,9.37-3.66,12.37,12.37,0,0,1,8.46,3,11.89,11.89,0,0,1,4,7.82h-6.31a6.37,6.37,0,0,0-2.11-3.7,6.13,6.13,0,0,0-4-1.33,6.49,6.49,0,0,0-4.94,2,7.81,7.81,0,0,0,0,10.24A6.49,6.49,0,0,0,420.65,119.9Z"/><path class="cls-5" d="M443.07,105.72v4.52h11v5.25h-11v4.3h12.57v5.36H436.91V100.36h18.73v5.36Z"/><path class="cls-5" d="M468.73,99.82a15,15,0,0,1,3.3.36,13.13,13.13,0,0,1,3.24,1.22A7.35,7.35,0,0,1,478,104a8.87,8.87,0,0,1,1.33,4.08h-6.2q-.55-3.13-4-3.13a4.5,4.5,0,0,0-2.57.66,2.08,2.08,0,0,0-1,1.82,1.74,1.74,0,0,0,.69,1.49,5.87,5.87,0,0,0,2.15.84l3.46.8a12.68,12.68,0,0,1,5.58,2.42,5.78,5.78,0,0,1,1.9,4.65,7,7,0,0,1-2.81,5.89,11.9,11.9,0,0,1-7.47,2.17,13,13,0,0,1-7.65-2.21,8.5,8.5,0,0,1-3.54-6.54h6.16a3.79,3.79,0,0,0,1.66,2.57,6.2,6.2,0,0,0,3.55.93,4.79,4.79,0,0,0,2.61-.58,1.82,1.82,0,0,0,.89-1.6q0-1.6-2.62-2.11l-4.08-.91a10.69,10.69,0,0,1-5.43-2.57,6.42,6.42,0,0,1-1.75-4.72A7.2,7.2,0,0,1,461.6,102,11,11,0,0,1,468.73,99.82Z"/><path class="cls-5" d="M495.33,99.85a12.81,12.81,0,0,1,9.39,3.74,13,13,0,0,1,0,18.33,13.61,13.61,0,0,1-18.73,0,13,13,0,0,1,0-18.33A12.76,12.76,0,0,1,495.33,99.85Zm-4.92,18a6.82,6.82,0,0,0,9.84,0,7.55,7.55,0,0,0,0-10.17,6.82,6.82,0,0,0-9.84,0,7.55,7.55,0,0,0,0,10.17Z"/><path class="cls-5" d="M286,164.9h-5v9.46h-8.11V141.71h14.3q6.1,0,9.79,3.1a10.36,10.36,0,0,1,3.7,8.38,10.94,10.94,0,0,1-6.24,10.13l8.4,11H293Zm-5-7.3h6a6.43,6.43,0,0,0,4-1.22,3.83,3.83,0,0,0,1.61-3.19,3.72,3.72,0,0,0-1.61-3.12,6.52,6.52,0,0,0-4-1.2h-6Z"/><path class="cls-5" d="M313.92,148.77v6h14.45v6.91H313.92v5.66h16.56v7.06H305.81V141.71h24.67v7.06Z"/><path class="cls-5" d="M347.71,141a19.77,19.77,0,0,1,4.34.48,17.29,17.29,0,0,1,4.27,1.61,9.69,9.69,0,0,1,3.6,3.38,11.7,11.7,0,0,1,1.75,5.38h-8.16q-.72-4.13-5.28-4.13a5.92,5.92,0,0,0-3.38.86,2.74,2.74,0,0,0-1.27,2.4,2.29,2.29,0,0,0,.91,2,7.73,7.73,0,0,0,2.83,1.1l4.56,1.06a16.69,16.69,0,0,1,7.34,3.19,7.62,7.62,0,0,1,2.5,6.12,9.27,9.27,0,0,1-3.7,7.75q-3.7,2.86-9.84,2.86a17.07,17.07,0,0,1-10.08-2.9,11.2,11.2,0,0,1-4.66-8.62h8.11a5,5,0,0,0,2.18,3.38,8.17,8.17,0,0,0,4.68,1.22,6.3,6.3,0,0,0,3.43-.77,2.4,2.4,0,0,0,1.18-2.11q0-2.11-3.46-2.78l-5.38-1.2q-4.85-1.06-7.15-3.38a8.45,8.45,0,0,1-2.3-6.22,9.48,9.48,0,0,1,3.58-7.75A14.42,14.42,0,0,1,347.71,141Z"/><path class="cls-5" d="M392.69,149H382.32v25.39h-8.11V149H363.79v-7.25h28.9Z"/><path class="cls-5" d="M409.49,164.9h-5v9.46h-8.11V141.71h14.3q6.1,0,9.79,3.1a10.36,10.36,0,0,1,3.7,8.38,10.94,10.94,0,0,1-6.24,10.13l8.4,11H416.5Zm-5-7.3h6a6.43,6.43,0,0,0,4-1.22,3.83,3.83,0,0,0,1.61-3.19,3.72,3.72,0,0,0-1.61-3.12,6.52,6.52,0,0,0-4-1.2h-6Z"/><path class="cls-5" d="M437.43,141.71v32.64h-8.11V141.71Z"/><path class="cls-5" d="M473.23,141.71v32.64h-6.29l-15.65-17.9v17.9h-8.11V141.71h6.19l15.74,18.38V141.71Z"/><path class="cls-5" d="M512.26,156v18.34h-6l-.34-3.94A12.57,12.57,0,0,1,495.55,175a17.13,17.13,0,0,1-12.48-4.78,15.92,15.92,0,0,1-4.9-11.88,16.7,16.7,0,0,1,5-12.46,17.13,17.13,0,0,1,12.5-4.87,17.83,17.83,0,0,1,10.71,3.29,13.58,13.58,0,0,1,5.57,9h-8.5q-1.83-4.85-7.63-4.85a9.06,9.06,0,0,0-6.79,2.69,9.62,9.62,0,0,0-2.62,7,9.08,9.08,0,0,0,9.5,9.31,8.61,8.61,0,0,0,8.26-5l-9.36-.1V156Z"/><path class="cls-5" d="M526.8,141.71v32.64h-8.11V141.71Z"/><path class="cls-5" d="M532.56,141.71h13.15a18,18,0,0,1,12.65,4.54,15.11,15.11,0,0,1,5,11.69,15.37,15.37,0,0,1-5,11.83,17.92,17.92,0,0,1-12.65,4.58H532.56Zm8.11,25.34h5a9.19,9.19,0,0,0,6.67-2.62,8.71,8.71,0,0,0,2.69-6.5,8.44,8.44,0,0,0-2.69-6.36,9.29,9.29,0,0,0-6.67-2.57h-5Z"/><path class="cls-5" d="M584.45,141A16.86,16.86,0,0,1,596.81,146a17.15,17.15,0,0,1,0,24.14,17.93,17.93,0,0,1-24.67,0,17.15,17.15,0,0,1,0-24.14A16.8,16.8,0,0,1,584.45,141ZM578,164.73a9,9,0,0,0,13,0,9.95,9.95,0,0,0,0-13.39,9,9,0,0,0-13,0,9.95,9.95,0,0,0,0,13.39Z"/></g><g id="boton"><rect class="cls-17" x="355.76" y="409.9" width="191.96" height="50.42" rx="23.73" ry="23.73"/></g></g></g></svg>