<?xml version="1.0" encoding="utf-8"?>
<!-- Generator: Adobe Illustrator 21.1.0, SVG Export Plug-In . SVG Version: 6.00 Build 0)  -->
<svg version="1.1" id="Capa_1" xmlns="http://www.w3.org/2000/svg" xmlns:xlink="http://www.w3.org/1999/xlink" x="0px" y="0px"
	 viewBox="0 0 970.7 521" style="enable-background:new 0 0 970.7 521;" xml:space="preserve">
<style type="text/css">
	.st0{fill:none;}
	.st1{fill:#1D1D1B;}
	.st2{fill:url(#SVGID_1_);}
	.st3{fill:#FFFFFF;}
	.st4{clip-path:url(#SVGID_3_);}
	.st5{fill:url(#SVGID_4_);}
	.st6{fill:#4A362E;}
	.st7{fill:#205DC9;}
	.st8{fill:#DAA284;}
	.st9{fill:#2E60E8;}
	.st10{fill:#E8AF95;}
	.st11{fill:#EFB49A;}
	.st12{fill:#383D46;}
	.st13{fill:#57453F;}
	.st14{fill:#FC8080;}
</style>
<pattern  y="521" width="28.8" height="28.8" patternUnits="userSpaceOnUse" id="_10_ppp_60_" viewBox="4.3 -33.1 28.8 28.8" style="overflow:visible;">
	<g>
		<rect x="4.3" y="-33.1" class="st0" width="28.8" height="28.8"/>
		<rect x="4.3" y="-33.1" class="st0" width="28.8" height="28.8"/>
		<circle class="st1" cx="33.1" cy="-33.1" r="4.3"/>
		<circle class="st1" cx="18.7" cy="-33.1" r="4.3"/>
		<circle class="st1" cx="33.1" cy="-18.7" r="4.3"/>
		<circle class="st1" cx="18.7" cy="-18.7" r="4.3"/>
		<circle class="st1" cx="11.5" cy="-25.9" r="4.3"/>
		<circle class="st1" cx="25.9" cy="-25.9" r="4.3"/>
		<circle class="st1" cx="11.5" cy="-11.5" r="4.3"/>
		<circle class="st1" cx="25.9" cy="-11.5" r="4.3"/>
		<circle class="st1" cx="4.3" cy="-33.1" r="4.3"/>
		<circle class="st1" cx="4.3" cy="-18.7" r="4.3"/>
		<circle class="st1" cx="33.1" cy="-4.3" r="4.3"/>
		<circle class="st1" cx="18.7" cy="-4.3" r="4.3"/>
		<circle class="st1" cx="4.3" cy="-4.3" r="4.3"/>
	</g>
</pattern>
<title>restringido</title>
<g>
	<g id="Capa_2">
		<g id="cuadro">
			
				<linearGradient id="SVGID_1_" gradientUnits="userSpaceOnUse" x1="950.5598" y1="42.9994" x2="-283.7802" y2="635.6695" gradientTransform="matrix(1 0 0 -1 0 522)">
				<stop  offset="0.24" style="stop-color:#671D25"/>
				<stop  offset="0.59" style="stop-color:#B30E12"/>
				<stop  offset="0.86" style="stop-color:#EA0405"/>
				<stop  offset="1" style="stop-color:#FF0000"/>
			</linearGradient>
			<path class="st2" d="M113.5,31.1H777c23.4,0,42.4,19,42.4,42.4v325.8c0,23.4-19,42.4-42.4,42.4H113.5c-23.4,0-42.4-19-42.4-42.4
				V73.5C71.1,50.1,90.1,31.1,113.5,31.1z"/>
			<path class="st3" d="M639.3,148.5h156.7c2.6,0,4.7,2.1,4.7,4.7v0.7c0,2.6-2.1,4.7-4.7,4.7H639.3c-2.6,0-4.7-2.1-4.7-4.7v-0.7
				C634.5,150.6,636.7,148.5,639.3,148.5z"/>
			<path class="st3" d="M233.9,147.7H70.5v11h163.4c2.8,0,5.1-2.3,5.1-5.1v-0.7C239,150,236.7,147.7,233.9,147.7z"/>
			<g>
				<defs>
					<path id="SVGID_2_" d="M113.5,30.8H777c23.4,0,42.4,19,42.4,42.4V399c0,23.4-19,42.4-42.4,42.4H113.5
						c-23.4,0-42.4-19-42.4-42.4V73.3C71.1,49.8,90.1,30.8,113.5,30.8z"/>
				</defs>
				<clipPath id="SVGID_3_">
					<use xlink:href="#SVGID_2_"  style="overflow:visible;"/>
				</clipPath>
				<g class="st4">
					<pattern  id="SVGID_4_" xlink:href="#_10_ppp_60_" patternTransform="matrix(0.61 0 0 -0.55 -3034.1951 -12400.7666)">
					</pattern>
					<rect y="29.6" class="st5" width="970.7" height="486.5"/>
				</g>
			</g>
		</g>
		<g id="personaje">
			<path class="st6" d="M845.3,15.1c-15.3-10.9-22.9-16-53.1-15s-58.8,15.1-72.7,58.1c-16.1,50.1,7.3,167.1,14.4,184.2
				c14.6,34.9,47.2,14.6,87.6,14.4s54.4-3,63-24.6c7.1-17.8,7.8-98.2,4.8-121.2c-3.5-26.8-7.7-63.5-17.3-78.3
				C860.3,14.7,845.3,15.1,845.3,15.1z"/>
			<path class="st7" d="M769.9,239.1c0,0-21.3-16.3-36.3,5.1s-40.5,80.9-46.8,92.3s-6.9,31,2.1,37.2c6.8,4.7,26.4,0.8,35.5-8
				s39.5-67.9,45.3-80.1C781.2,261.7,775.6,246.2,769.9,239.1z"/>
			<path class="st8" d="M766.7,231.7c0,0,28.8-7.8,29.3-25.9s0-29.6,0-29.6s0.5-12,18.1-12s18.3,6.8,18.3,6.8s-1,21.3-1.1,30.8
				s-1.3,22.2,27.9,24.8c5,0.4-5.9,68.9-65.6,64.8C750.8,288.5,766.7,231.7,766.7,231.7z"/>
			<path class="st9" d="M899.5,456c-9.6-47.4-14.4-73.8-14.4-73.8c18.3-72.7,12-144,12-144l-46.8-15c0,0,5.5,28.2-36.6,28.2
				c-46.7,0-38.4-24.2-38.4-24.2l-21.1,6.5c0,0-16.7,52-21.1,69.6c-7.9,31.1,0.5,46.8,5.4,64.6c8.1,29.2,11,23.7,10.4,55.7
				c-0.6,32.4-6,33.9-6,87c0,0,44.4,20.4,124.8,4.2l32.4-7.2C900.1,507.6,908.7,501.7,899.5,456z"/>
			<path class="st9" d="M959.7,361.2c0,0-17.8-41-24.9-60.7s-18.1-47.4-22.9-53.6s-14.4-11.1-26-8s-19,33.7-11.1,52.9
				s29.6,68.4,40.3,79.8s22.8,12.8,31.2,10.7S962.1,378,959.7,361.2z"/>
			<path class="st8" d="M907.7,407.3l-19.1,29.1c-2.9,4.5-9,15.9,0.4,21.9c7.4,4.7,16.4-1.8,19.7-6s22.3-30.5,22.3-30.5L907.7,407.3
				z"/>
			<path class="st9" d="M950.3,357.9c-7.7-2-23.3,4.2-30,15.6s-33.5,50.6-33.5,50.6s-5,6.1,0.2,9.2s26.1,17.3,26.1,17.3
				s6,6.5,11.2-0.9s32.9-52.3,39.3-62.6S962.6,361.2,950.3,357.9z"/>
			<path class="st8" d="M694.5,297l-0.5-2.1L685,261c0,0-1-10.7-11.2-10.7s-17.4,6.6-14.1,17.7s8.4,38.4,8.4,38.4s6.4,11.7,16.5,7.9
				S694.5,297,694.5,297z"/>
			<path class="st7" d="M716.9,344.2c2.8,10.1,4.6,24.4-4.7,33.4s-32.5,6.2-36.9-10.3c-3.9-14.7-21.4-68.2-21.4-68.2
				s-3.6-8.9,0.4-12.5c3-2.8,30.4-14.5,30.4-14.5s7.9-6.6,11,3.4S714.1,334.1,716.9,344.2z"/>
			<path class="st10" d="M673.1,263.1c0,0,14.4-1.2,19.2-20.1s10-27.8,10-27.8l-6-4.7l-13.1,17.7c0,0-5.1-12.4-4.5-19.2
				s-9.1-20.6-9.1-20.6l-6.2,5.6l-2.7-3.4l-6.9,6.8l2.4,5.8l-3.3,5l1.1,9.1l-4.1,4.4c0,0,2.3,10.8,3.4,19.6S655.6,266.4,673.1,263.1
				z"/>
			<path class="st8" d="M894.8,442.8c0,0-9-4.6-15.8-0.7s-11.3,9.7-17,13.5s-7.6,3.7-7.6,3.7l1.5,5.5c0,0,4.6,0.7,12-2.3
				c6.3-2.6,5.3-3.1,5.3-3.1s-7.9,13.3-10.9,23.9c-2.1,7.6-3.5,19.2-3.5,19.2l8.6,2.2l-0.6,5.9l8.3,0.4l2.5-5.7l5.8,0.5l2.4-4.5
				l3.1,0.1c0,0,4.7-13.7,9.6-19.7S911.2,449.1,894.8,442.8z"/>
			<path class="st11" d="M842.5,74.4c7.5,16.2,7.5,37.2,7.5,37.2c4,24.2-7,50-7,50c-32.4,48-56.3,35.2-56.3,35.2
				c-37-11.1-52.1-43.4-51.9-61s-1.2-31,0.1-55c0.6-10.2,13.2-32.4,35.3-36.7c18.7-3.7,28.5-0.2,28.5-0.2s6.6-15.6,22.2-24.6
				c0,0-17.4,16.8-19.2,25.2C801.7,44.4,831.5,50.6,842.5,74.4z"/>
			<path class="st12" d="M821.6,101.4c-4.2-0.5-8.1,2.3-9,6.5c-0.9,3.8,1.5,7.7,5.4,8.5c0.2,0,0.4,0.1,0.6,0.1
				c4.2,0.5,8.1-2.3,9-6.5c0.9-3.8-1.5-7.7-5.4-8.5C822,101.5,821.8,101.5,821.6,101.4z"/>
			<path class="st3" d="M820.7,106c-0.3,1.4,0.6,2.7,1.9,3c0.1,0,0.1,0,0.2,0c1.5,0.2,2.9-0.8,3.2-2.3c0.3-1.4-0.6-2.7-1.9-3
				c-0.1,0-0.1,0-0.2,0C822.4,103.5,821,104.5,820.7,106z"/>
			<path class="st12" d="M751.5,102.8c-4.1,0.4-7.3,3.9-7.2,8c0,3.9,3.1,7,7,7c0.1,0,0.3,0,0.4,0c4.1-0.4,7.3-3.9,7.2-8
				c0-3.9-3.1-7-7-7C751.8,102.8,751.6,102.8,751.5,102.8z"/>
			<path class="st3" d="M751.6,107.4c0,1.4,1.1,2.5,2.4,2.5c0.1,0,0.1,0,0.2,0c1.5-0.1,2.6-1.4,2.6-2.8c0-1.4-1.1-2.5-2.4-2.5
				c-0.1,0-0.1,0-0.2,0C752.7,104.7,751.5,105.9,751.6,107.4z"/>
			<path class="st13" d="M812.5,90.6c11-0.7,20.5,4.4,23.2,9.6s1.3-3-1.5-5.6c-6.5-6.3-13.2-8-19.1-8
				C805.4,86.7,809.5,90.8,812.5,90.6z"/>
			<path class="st13" d="M758.5,91.6c-9.9-1.1-18.5,3.4-21.1,8.3s-1-2.9,1.5-5.3c6.1-5.8,12.1-7.2,17.4-6.9
				C765,88.1,761.2,91.9,758.5,91.6z"/>
			<path class="st14" d="M785.9,147.3c-0.2-0.1-0.3-0.1-0.4-0.2l-10.1-7.1c-0.8-0.5-1-1.6-0.4-2.4c0.3-0.5,0.9-0.8,1.4-0.8l18.9-0.2
				c1,0,1.8,0.8,1.8,1.7c0,0.6-0.3,1.1-0.7,1.4l-10,7.3C786.2,147.2,786.1,147.3,785.9,147.3z"/>
			<path class="st8" d="M850,112.6c0,0,7.2-13.5,14.3-10.6c16.1,6.5,3.6,49.3-15.3,36.6L850,112.6z"/>
		</g>
		<g id="texto">
			<circle class="st3" cx="789" cy="164.6" r="6"/>
		</g>
	</g>
</g>
</svg>
