<svg xmlns="http://www.w3.org/2000/svg" viewBox="0 0 200.5 44.16"><defs><style>.cls-1{opacity:0.45;}.cls-2{fill:#ff3650;}.cls-3{fill:#fff;}</style></defs><title>btnVolver</title><g id="Capa_2" data-name="Capa 2"><g id="G-C_-ESCRITORIO" data-name="G-C -ESCRITORIO"><rect class="cls-1" width="200.5" height="44.16"/><rect class="cls-2" x="5.73" y="4.4" width="189.04" height="35.35"/><path class="cls-3" d="M24,24.61v3.25H22.53V24.68c0-1.65-1.21-2.11-3.1-2.11H16.18v5.29H14.81V15.93h5.1c2.57,0,4.19,1.07,4.19,3.08a3.09,3.09,0,0,1-2.46,2.9v0A2.73,2.73,0,0,1,24,24.61Zm-7.78-7.51v4.35h3.47c1.57,0,3-.72,3-2.25,0-1.37-1.09-2.09-2.76-2.09Z"/><path class="cls-3" d="M26.7,23.92a2.77,2.77,0,0,0,3.06,2.92A2.92,2.92,0,0,0,32.67,25l1.23.32A4.06,4.06,0,0,1,29.73,28a4.08,4.08,0,0,1-4.36-4.43,4.24,4.24,0,0,1,4.43-4.52c3,0,4.29,2,4.29,4.84Zm0-.88h6.07a2.77,2.77,0,0,0-3-2.76A2.89,2.89,0,0,0,26.7,23Z"/><path class="cls-3" d="M36.59,28.79a5.7,5.7,0,0,0,3.17,1.05c2,0,3.29-1,3.29-3v-1a3.7,3.7,0,0,1-3.31,2,4,4,0,0,1-4.17-4.28,4.13,4.13,0,0,1,4.33-4.43A3.46,3.46,0,0,1,43.06,21S43,19.84,43,19.28H44.3V27c0,2.5-1.65,4-4.42,4a6.65,6.65,0,0,1-3.76-1.18C36.26,29.5,36.47,29.15,36.59,28.79ZM37,23.48a2.88,2.88,0,0,0,2.92,3.13,3,3,0,0,0,3-3.1,3,3,0,1,0-6,0Z"/><path class="cls-3" d="M51.39,20.37c-2.55.05-3.08,2.06-3.08,4.08v3.41H47V19.28h1.34c0,.76,0,1.46-.07,2.16a3.36,3.36,0,0,1,3.17-2.36Z"/><path class="cls-3" d="M53.45,23.92a2.77,2.77,0,0,0,3.06,2.92A2.92,2.92,0,0,0,59.41,25l1.23.32A4.06,4.06,0,0,1,56.47,28a4.08,4.08,0,0,1-4.36-4.43,4.24,4.24,0,0,1,4.43-4.52c3,0,4.29,2,4.29,4.84Zm0-.88h6.07a2.77,2.77,0,0,0-3-2.76A2.89,2.89,0,0,0,53.45,23Z"/><path class="cls-3" d="M62.49,25.15l1.37-.05c0,1.18.9,1.87,2.52,1.87,1,0,2.25-.47,2.25-1.51,0-2.25-5.93-.32-5.93-3.87,0-1.57,1.67-2.52,3.45-2.52,2.43,0,3.59,1.09,3.73,2.85-.46,0-.92.07-1.37.09-.09-1.16-.88-1.79-2.39-1.79-1.09,0-2.11.54-2.11,1.44,0,2.13,6,.35,6,3.8C70,27.23,68.14,28,66.31,28,63.83,28,62.58,27,62.49,25.15Z"/><path class="cls-3" d="M79.16,27.86V26.08A3.45,3.45,0,0,1,75.87,28a4.11,4.11,0,0,1-4.24-4.43A4.19,4.19,0,0,1,76,19.06a3.72,3.72,0,0,1,3.24,1.88s0-1.09,0-1.67h1.32v8.58ZM73,23.58a3,3,0,0,0,3,3.26,3.06,3.06,0,0,0,3.13-3.26c0-2-1.07-3.31-3.13-3.31A3,3,0,0,0,73,23.58Z"/><path class="cls-3" d="M87.29,20.37c-2.55.05-3.08,2.06-3.08,4.08v3.41H82.85V19.28h1.34c0,.76,0,1.46-.07,2.16a3.36,3.36,0,0,1,3.17-2.36Z"/><path class="cls-3" d="M101.27,27.86V26.08A3.45,3.45,0,0,1,98,28a4.11,4.11,0,0,1-4.24-4.43,4.19,4.19,0,0,1,4.35-4.52,3.72,3.72,0,0,1,3.24,1.88s0-1.09,0-1.67h1.32v8.58ZM95.1,23.58a3,3,0,0,0,3,3.26,3.06,3.06,0,0,0,3.13-3.26c0-2-1.07-3.31-3.13-3.31A3,3,0,0,0,95.1,23.58Z"/><path class="cls-3" d="M110.67,27.86V15.93H112V27.86Z"/><path class="cls-3" d="M114,23.57a4.23,4.23,0,0,1,4.45-4.5,4.19,4.19,0,0,1,4.47,4.5,4.46,4.46,0,1,1-8.92,0Zm1.3,0a3,3,0,0,0,3.15,3.29,3.07,3.07,0,0,0,3.17-3.29,3.16,3.16,0,1,0-6.32,0Z"/><path class="cls-3" d="M124.61,25.15,126,25.1c0,1.18.9,1.87,2.52,1.87,1,0,2.25-.47,2.25-1.51,0-2.25-5.93-.32-5.93-3.87,0-1.57,1.67-2.52,3.45-2.52,2.43,0,3.59,1.09,3.73,2.85-.46,0-.92.07-1.37.09-.09-1.16-.88-1.79-2.39-1.79-1.09,0-2.11.54-2.11,1.44,0,2.13,6,.35,6,3.8,0,1.78-1.83,2.57-3.66,2.57C125.95,28,124.7,27,124.61,25.15Z"/><path class="cls-3" d="M142.19,20.4v5.72c0,.41.25.74,1,.74a2.46,2.46,0,0,0,1-.21v1a3.33,3.33,0,0,1-1.65.39,1.49,1.49,0,0,1-1.67-1.44V20.4h-1.65V19.28h1.65V17.06h1.35v2.22h2V20.4Z"/><path class="cls-3" d="M146.83,23.92a2.77,2.77,0,0,0,3.06,2.92A2.92,2.92,0,0,0,152.8,25l1.23.32a4.44,4.44,0,0,1-8.53-1.71,4.24,4.24,0,0,1,4.43-4.52c3,0,4.29,2,4.29,4.84Zm0-.88h6.07a2.77,2.77,0,0,0-3-2.76A2.89,2.89,0,0,0,146.83,23Z"/><path class="cls-3" d="M167.88,27.86V22.37a1.86,1.86,0,0,0-2.06-2.13,2.29,2.29,0,0,0-2.37,2.29v5.33h-1.35V22.37a2.06,2.06,0,0,0-3-1.92c-1.23.39-1.46,1.65-1.46,2.81v4.59H156.3V19.28h1.34c0,.51,0,1,0,1.55h0a2.65,2.65,0,0,1,2.76-1.71,2.71,2.71,0,0,1,2.78,1.76,3,3,0,0,1,3-1.81c2.11,0,3.08,1.13,3.08,3v5.82Z"/><path class="cls-3" d="M178.66,27.86V26.08A3.45,3.45,0,0,1,175.37,28a4.11,4.11,0,0,1-4.24-4.43,4.19,4.19,0,0,1,4.35-4.52,3.72,3.72,0,0,1,3.24,1.88s0-1.09,0-1.67H180v8.58Zm-6.18-4.28a3,3,0,0,0,3,3.26,3.06,3.06,0,0,0,3.13-3.26c0-2-1.07-3.31-3.13-3.31A3,3,0,0,0,172.49,23.58Z"/><path class="cls-3" d="M181.94,25.15l1.37-.05c0,1.18.9,1.87,2.52,1.87,1,0,2.25-.47,2.25-1.51,0-2.25-5.93-.32-5.93-3.87,0-1.57,1.67-2.52,3.45-2.52,2.43,0,3.59,1.09,3.73,2.85-.46,0-.91.07-1.37.09-.09-1.16-.88-1.79-2.39-1.79-1.09,0-2.11.54-2.11,1.44,0,2.13,6,.35,6,3.8,0,1.78-1.83,2.57-3.66,2.57C183.28,28,182,27,181.94,25.15Z"/></g></g></svg>