<svg xmlns="http://www.w3.org/2000/svg" viewBox="0 0 50.88 70.49"><defs><style>.cls-1{isolation:isolate;}.cls-2{fill:#1b1919;}.cls-3{fill:#0e0e0e;}.cls-4{fill:#2d365a;}.cls-5{fill:#e2826d;}.cls-18,.cls-6{fill:#c9c9c9;}.cls-7{fill:#363d66;}.cls-8{fill:#d8d9dd;}.cls-9{fill:#e6e6e8;}.cls-10{fill:#e5e5e5;}.cls-11{fill:#e9a28f;}.cls-12{fill:#1e120d;}.cls-13{fill:#d26d5a;}.cls-14{fill:#383d46;}.cls-15{fill:#fff;}.cls-16{fill:#1e1c1c;}.cls-17{fill:#b15e4f;}.cls-18,.cls-19{stroke:#c9c9c9;stroke-miterlimit:10;}.cls-18{stroke-width:0.23px;opacity:0.56;mix-blend-mode:multiply;}.cls-19{fill:none;stroke-width:0.7px;}.cls-20{fill:#736efd;}.cls-21{fill:#3e3e84;}.cls-22{fill:#80c3f3;}</style></defs><title>1</title><g class="cls-1"><g id="Capa_2" data-name="Capa 2"><g id="Capa_7" data-name="Capa 7"><path class="cls-2" d="M17.83,67.17l-.47,1a1.21,1.21,0,0,0-.16.53l0,.38A1,1,0,0,0,18,70.19l4.91.13c1.56,0,1.11-1.15.74-1.55s-1.12-.34-1.71-.37a2.74,2.74,0,0,1-1.72-.85l-.35-.72a.71.71,0,0,0-.28-.13C19.18,66.62,18.17,66.48,17.83,67.17Z"/><path class="cls-2" d="M17.19,69.1l0-.38a1.26,1.26,0,0,1,.06-.31c.6,1.26,2.26,1.37,4.45,1.43,1.45,0,1.93-.39,2.1-.75.26.49.3,1.21-.95,1.24L18,70.19A1,1,0,0,1,17.19,69.1Z"/><path class="cls-3" d="M8.24,65.91l-.77.81a1.21,1.21,0,0,0-.32.45L7,67.52a1,1,0,0,0,.38,1.29l4,1.41c1.54-.22,2.6-1,2.18-1.32s-1.35-.25-1.89-.47a2.74,2.74,0,0,1-1.35-1.37l-.09-.8A.71.71,0,0,0,10,66C9.69,65.83,8.79,65.37,8.24,65.91Z"/><path class="cls-3" d="M7,67.52l.15-.35a1.26,1.26,0,0,1,.16-.28c.15,1.39,1.68,2,3.74,2.81,1.35.51,2.29-.57,2.08-1,.65-.12,1.41.84-.78,1.61l-.5.13a1.44,1.44,0,0,1-.94-.05L7.38,68.81A1,1,0,0,1,7,67.52Z"/><path class="cls-4" d="M9.26,67.12h0c1.17.44,1.54.29,2-.85l3-5.82.6-6.4-4.53-.43.32,6.15L8.12,65.15C7.74,66.33,8.1,66.67,9.26,67.12Z"/><path class="cls-5" d="M26,42.2h0c-.08-.39-.51-.89-.9-.83l-3.61.88a.94.94,0,0,1-1.22-.42L17.9,37.91l-2.21,1.38,3.24,4.46a1.56,1.56,0,0,0,1.41.74l5.17-1.41A.75.75,0,0,0,26,42.2Z"/><path class="cls-6" d="M18.07,43.12s1.21,2.12,2.35,1.41.38-2.47.38-2.47L18,37.82a1.32,1.32,0,0,0-1.82-.42l-.15.1a1.32,1.32,0,0,0-.42,1.82Z"/><path class="cls-5" d="M25.33,42.61s-1.27-1.41-.7-2.17.59-.53,1-.51a1.67,1.67,0,0,0,1-.32c.34-.19,1-.65,1.34.11a10.46,10.46,0,0,0,.46,1.93,1.38,1.38,0,0,1-1.23,1.72C26,43.54,25.73,43.52,25.33,42.61Z"/><path class="cls-7" d="M10.12,53.27c0-1.1.51-4.24,1.13-4.24h6.6c.63,0,1.22,2.19,1.22,3.29h0c0,.06,0,.12,0,.18,0,1.61-2.09,3.85-4.51,3.85s-4.43-1.32-4.43-3h0s0-.08,0-.12Z"/><path class="cls-7" d="M19.15,67.79h0c1.22-.26,1.45-.59,1.25-1.82L19.14,54.75l-4.72-.56,2.7,12.57C17.44,68,17.93,68,19.15,67.79Z"/><path class="cls-8" d="M7.23,59.45l8.23,1.37,5.75-2.4L20,52.34l-.09-4.57-.08-3.7c0-3.3-1.54-6.34-3.67-6.44,0,0-.89,1.7-.61,0l-2.46-.32c-.05,0-1.59-1.06-1.64-1-1.35.62-1.9,2.6-1.9,5.93L9.29,47.4Z"/><polygon class="cls-5" points="12.66 37 16.66 38.37 16.66 34.62 12.57 34.62 12.66 37"/><path class="cls-5" d="M6.49,48l.86-.24c.39-.05.06-.2,0-.59l.07-3.78a1.6,1.6,0,0,1,.45-1.51l3.47-3.35L9.56,36.63,5.9,40.75a2.51,2.51,0,0,0-.52,1.2l.28,5.42A.75.75,0,0,0,6.49,48Z"/><path class="cls-9" d="M5.94,39.81c-1.48,2.25-2.06,9.35,1.37,6.86,1.09-.79.34-3.6.34-3.6l3.76-4.57a1.32,1.32,0,0,0,0-1.87l-.13-.13a1.32,1.32,0,0,0-1.87,0Z"/><path class="cls-5" d="M6.45,46.92s2.1-.56,2.57.41.24.88,0,1.23a1.9,1.9,0,0,0-.18,1.16c0,.45.14,1.35-.8,1.31a12,12,0,0,0-2.21-.53,1.58,1.58,0,0,1-1.12-2.14C5.17,47.1,5.32,46.86,6.45,46.92Z"/><polygon class="cls-10" points="10.33 36.41 17 42.94 18.23 41.59 10.99 34.78 10.33 36.41"/><path class="cls-11" d="M3.79,23.36C3.79,30,8.36,34.79,12,36c8.05,2.59,13.48-1.67,13.55-4.62.09-3.68,4-2,.57-5-1.79-1.6,6.46-11-11-12C9.24,14.19,3.79,16.72,3.79,23.36Z"/><path class="cls-12" d="M4.58,31.71c.9,1.76,4.6,2,5.84-2.42a6.18,6.18,0,0,0,.1-3.44s-.77-1.14,1.6-1.43,3.26-6.7,6.34-7.57c2.31-.65,4.19.37,6.08,0s1.66-4.59-1.07-5.3-13.12-6-18.19.46S1.82,18.69,2.13,24.6C2.26,27,3.9,30.38,4.58,31.71Z"/><path class="cls-11" d="M12.54,24.67s-1-3.09-2.81-2.78-1.91,7.38,2,8C14.51,30.27,12.54,24.67,12.54,24.67Z"/><path class="cls-5" d="M10.11,24.23s2.16,1.29,1.95,2.6-1.14.8-1.27.29.41-.61.43-.66A3.92,3.92,0,0,0,10.11,24.23Z"/><path class="cls-12" d="M1.7,18.63c0,5.77,5.69,1,12.41-.73,13.56-3.4,9.57,1.82,12.42,1.48A1.58,1.58,0,0,0,27.91,18c1.34-4.7-2.93-11.63-13-11.2C8,7.12,1.7,12.86,1.7,18.63Z"/><path class="cls-5" d="M25.05,28.2h2.41c-.15.39-.85.59-1.36,1.28l-1.19-.84A.24.24,0,0,1,25.05,28.2Z"/><path class="cls-13" d="M23,32.82h-.28c-2.63-.13-2.69-.93-2.73-1a.3.3,0,0,1,0-.42.31.31,0,0,1,.43,0s.24.86,2.31.86H23c.13,0,.51-.1.51.21S23,32.82,23,32.82Z"/><path d="M20.3,22.46a.26.26,0,0,1-.22-.14.33.33,0,0,1,.08-.41,5.33,5.33,0,0,1,2.58-1,3.39,3.39,0,0,1,2.14.83.33.33,0,0,1,0,.42.24.24,0,0,1-.37,0,2.94,2.94,0,0,0-1.81-.7,4.93,4.93,0,0,0-2.3.87A.24.24,0,0,1,20.3,22.46Z"/><ellipse class="cls-14" cx="22.99" cy="24.45" rx="1.03" ry="1.37"/><path class="cls-15" d="M23.66,23.61c.3.52-.14,1.11-.53.71S23.27,23.22,23.66,23.61Z"/><path class="cls-5" d="M3.85,23.42C3.85,30.07,8.41,34.85,12,36c8.05,2.59,13.48-1.67,13.55-4.62.09-3.68,4-2,.57-5-1.79-1.6,6.46-11-11-12C9.29,14.25,3.85,16.78,3.85,23.42Z"/><path class="cls-16" d="M4.63,31.77c.9,1.76,4.6,2,5.84-2.42a6.18,6.18,0,0,0,.1-3.44s-.77-1.14,1.6-1.43,3.26-6.7,6.34-7.57c2.31-.65,4.19.37,6.08,0s1.66-4.59-1.07-5.3-13.12-6-18.19.46-3.47,6.69-3.16,12.6C2.31,27.11,4,30.44,4.63,31.77Z"/><path class="cls-5" d="M12.59,24.73s-1-3.09-2.81-2.78-1.91,7.38,2,8C14.56,30.33,12.59,24.73,12.59,24.73Z"/><path class="cls-17" d="M10.16,24.3s2.16,1.29,1.95,2.6-1.14.8-1.27.29.41-.61.43-.66A3.92,3.92,0,0,0,10.16,24.3Z"/><path class="cls-16" d="M1.75,18.69c0,5.77,5.69,1,12.41-.73,13.56-3.4,9.57,1.82,12.42,1.48A1.58,1.58,0,0,0,28,18.1C29.29,13.39,25,6.47,15,6.89,8.08,7.18,1.75,12.92,1.75,18.69Z"/><path class="cls-17" d="M25.1,28.26h2.41c-.15.39-.85.59-1.36,1.28L25,28.69A.24.24,0,0,1,25.1,28.26Z"/><path class="cls-16" d="M10.47,29.35A6,6,0,0,1,8.8,23.13c1.22-3.79,3.79,1.6,3.79,1.6s4,.58,3.1-4.33c0,0,4.61.53,4.78-3.77,0,0,2.38,3.59,5.35.93,0,0,3.74,2.11,4.17-2.2s-3.17-4.89-3.17-4.89S25.28,6,22.19,7.5c0,0-3-4.52-6.5-1.6,0,0-5.68-2-6.19,2.13,0,0-5.3-2-5.65,3.52,0,0-5.07,2.41-2.75,6.44,0,0-2.82,6.29.6,9C1.7,27,6.91,33.33,10.47,29.35Z"/><path class="cls-13" d="M23.36,32.82h-.28c-2.63-.13-2.69-.93-2.73-1a.3.3,0,0,1,0-.42.31.31,0,0,1,.43,0s.24.86,2.31.86h.25c.13,0,.51-.1.51.21S23.36,32.82,23.36,32.82Z"/><path d="M20.64,22.46a.26.26,0,0,1-.22-.14.33.33,0,0,1,.08-.41,5.33,5.33,0,0,1,2.58-1,3.39,3.39,0,0,1,2.14.83.33.33,0,0,1,0,.42.24.24,0,0,1-.37,0,2.94,2.94,0,0,0-1.81-.7,4.93,4.93,0,0,0-2.3.87A.24.24,0,0,1,20.64,22.46Z"/><ellipse class="cls-14" cx="23.33" cy="24.45" rx="1.03" ry="1.37"/><path class="cls-15" d="M24,23.61c.3.52-.14,1.11-.53.71S23.61,23.22,24,23.61Z"/><path class="cls-6" d="M20.29,41.84l4.46-.71.75,2s-3,1.87-5.08,1.45S20.29,41.84,20.29,41.84Z"/><rect class="cls-18" x="18.98" y="20.6" width="7.97" height="6.69" rx="3.34" ry="3.34"/><rect class="cls-19" x="18.98" y="20.6" width="7.97" height="6.69" rx="3.34" ry="3.34"/><rect class="cls-6" x="11.55" y="22.56" width="8.21" height="1.74" rx="0.86" ry="0.86" transform="translate(-4.43 3.67) rotate(-11.71)"/><polygon class="cls-10" points="19.84 58.12 18.16 41.59 17 42.94 16.62 45.52 18.55 59.41 20.09 58.89 19.84 58.12"/><polygon class="cls-10" points="16.62 37.09 18.16 42.69 19.58 58.96 19.96 58.51 20.35 43.46 19.39 42.11 19.45 39.53 16.62 37.09"/><circle class="cls-20" cx="26.88" cy="40.87" r="3.4" transform="translate(-19.69 55.85) rotate(-74.5)"/><rect class="cls-20" x="25.45" y="36.1" width="5.3" height="2.34" rx="1.17" ry="1.17" transform="translate(-15.32 54.39) rotate(-74.5)"/><ellipse class="cls-21" cx="28.59" cy="35.46" rx="0.68" ry="1.05" transform="translate(-13.21 53.54) rotate(-74.5)"/><circle class="cls-22" cx="29.13" cy="34.79" r="0.6" transform="translate(-12.18 53.56) rotate(-74.5)"/><ellipse class="cls-22" cx="29.93" cy="32.82" rx="1.35" ry="1.33" transform="translate(-9.69 52.89) rotate(-74.5)"/><ellipse class="cls-22" cx="30.9" cy="29.55" rx="1.81" ry="1.85" transform="translate(-5.83 51.43) rotate(-74.5)"/><path class="cls-15" d="M31.77,28.73s.45,1.45-.45,1.92C31.32,30.65,33.15,30.34,31.77,28.73Z"/><ellipse class="cls-22" cx="35.53" cy="23.52" rx="3.11" ry="3.18" transform="translate(3.37 51.47) rotate(-74.5)"/><path class="cls-15" d="M37,22.1s.78,2.49-.77,3.31C36.25,25.41,39.4,24.89,37,22.1Z"/><ellipse class="cls-22" cx="42.74" cy="7.98" rx="7.96" ry="8.14" transform="matrix(0.27, -0.96, 0.96, 0.27, 23.64, 47.04)"/><path class="cls-15" d="M46.57,4.34s2,6.37-2,8.47C44.6,12.81,52.66,11.48,46.57,4.34Z"/><path class="cls-15" d="M30.08,31.66s1.27,1.17.73,1.91C30.81,33.57,31.83,32.42,30.08,31.66Z"/><path class="cls-15" d="M29.32,34.33s.22.71-.22.94C29.1,35.27,30,35.12,29.32,34.33Z"/><path class="cls-5" d="M30.33,39s-1.56-.19-1.65,1.07c0,0-.49,2.53.78,2.92C29.46,43,31.79,43,30.33,39Z"/></g></g></g></svg>