<svg xmlns="http://www.w3.org/2000/svg" viewBox="0 0 34.58 63.67"><defs><style>.cls-1{isolation:isolate;}.cls-2{fill:#1b1919;}.cls-3{fill:#0e0e0e;}.cls-4{fill:#2d365a;}.cls-5{fill:#e2826d;}.cls-20,.cls-6{fill:#c9c9c9;}.cls-7{fill:#f7ca9f;}.cls-8{fill:#363d66;}.cls-9{fill:#d8d9dd;}.cls-10{fill:#e5a977;}.cls-11{fill:#e5e5e5;}.cls-12{fill:#e6e6e8;}.cls-13{fill:#e9a28f;}.cls-14{fill:#1e120d;}.cls-15{fill:#d26d5a;}.cls-16{fill:#383d46;}.cls-17{fill:#fff;}.cls-18{fill:#1e1c1c;}.cls-19{fill:#bfac79;}.cls-20,.cls-21{stroke:#c9c9c9;stroke-miterlimit:10;}.cls-20{stroke-width:0.23px;opacity:0.56;mix-blend-mode:multiply;}.cls-21{fill:none;stroke-width:0.7px;}</style></defs><title>3</title><g class="cls-1"><g id="Capa_2" data-name="Capa 2"><g id="Capa_7" data-name="Capa 7"><path class="cls-2" d="M10.59,60.36l.47,1a1.21,1.21,0,0,1,.16.53l0,.38a1,1,0,0,1-.79,1.09l-4.91.13C4,63.47,4.43,62.36,4.8,62s1.12-.34,1.71-.37a2.74,2.74,0,0,0,1.72-.85L8.58,60a.71.71,0,0,1,.28-.13C9.24,59.81,10.25,59.67,10.59,60.36Z"/><path class="cls-2" d="M11.23,62.29l0-.38a1.26,1.26,0,0,0-.06-.31C10.55,62.86,8.89,63,6.69,63c-1.45,0-1.93-.39-2.1-.75-.26.49-.3,1.21.95,1.24l4.91-.13A1,1,0,0,0,11.23,62.29Z"/><path class="cls-3" d="M20.18,59.1l.77.81a1.21,1.21,0,0,1,.32.45l.15.35A1,1,0,0,1,21,62l-4,1.41c-1.54-.22-2.6-1-2.18-1.32s1.35-.25,1.89-.47a2.74,2.74,0,0,0,1.35-1.37l.09-.8a.71.71,0,0,1,.22-.21C18.73,59,19.63,58.56,20.18,59.1Z"/><path class="cls-3" d="M21.43,60.71l-.15-.35a1.26,1.26,0,0,0-.16-.28c-.15,1.39-1.68,2-3.74,2.81-1.35.51-2.29-.57-2.08-1-.65-.12-1.41.84.78,1.61l.5.13a1.44,1.44,0,0,0,.94-.05L21,62A1,1,0,0,0,21.43,60.71Z"/><path class="cls-4" d="M19.16,60.3h0c-1.17.44-1.54.29-2-.85l-3-5.82-.6-6.4L18,46.8,17.69,53l2.61,5.38C20.68,59.52,20.32,59.86,19.16,60.3Z"/><path class="cls-5" d="M2.39,35.39h0c.08-.39.51-.89.9-.83l3.61.88A.94.94,0,0,0,8.13,35l2.39-3.93,2.21,1.38L9.49,36.94a1.56,1.56,0,0,1-1.41.74L2.92,36.27A.75.75,0,0,1,2.39,35.39Z"/><path class="cls-6" d="M10.35,36.31S9.14,38.44,8,37.72s-.38-2.47-.38-2.47L10.4,31a1.32,1.32,0,0,1,1.82-.42l.15.1a1.32,1.32,0,0,1,.42,1.82Z"/><path class="cls-7" d="M3.09,35.8s1.27-1.41.7-2.17-.59-.53-1-.51a1.67,1.67,0,0,1-1-.32c-.34-.19-1-.65-1.34.11a10.46,10.46,0,0,1-.46,1.93A1.38,1.38,0,0,0,1.3,36.56C2.44,36.72,2.69,36.7,3.09,35.8Z"/><path class="cls-8" d="M18.3,46.46c0-1.1-.51-4.24-1.13-4.24h-6.6c-.63,0-1.22,2.19-1.22,3.29h0c0,.06,0,.12,0,.18,0,1.61,2.09,3.85,4.51,3.85s4.43-1.32,4.43-3h0s0-.08,0-.12Z"/><path class="cls-8" d="M9.27,61h0c-1.22-.26-1.45-.59-1.25-1.82L9.28,47.94,14,47.38,11.3,59.95C11,61.15,10.49,61.24,9.27,61Z"/><path class="cls-9" d="M21.19,52.64,13,54l-5.75-2.4,1.24-6.08L8.54,41l.08-3.7c0-3.3,1.54-6.34,3.67-6.44,0,0,.89,1.7.61,0l2.46-.32c.05,0,1.59-1.06,1.64-1,1.35.62,1.9,2.6,1.9,5.93l.22,5.16Z"/><polygon class="cls-10" points="15.76 30.19 11.76 31.56 11.76 27.81 15.85 27.81 15.76 30.19"/><polygon class="cls-11" points="18.09 29.6 11.41 36.13 10.19 34.78 17.43 27.97 18.09 29.6"/><path class="cls-5" d="M6,31.73,6.58,31c.2-.34.21,0,.56.19l3.54,1.34a1.6,1.6,0,0,0,1.57.14l4.4-2,1,2.39L12.51,35a2.51,2.51,0,0,1-1.31,0L6.28,32.73A.75.75,0,0,1,6,31.73Z"/><path class="cls-12" d="M13.39,35.28c-2.64.53-9.44-1.57-5.85-3.83,1.14-.72,3.47,1,3.47,1l5.64-1.79a1.32,1.32,0,0,1,1.74.68l.07.17a1.32,1.32,0,0,1-.68,1.74Z"/><path class="cls-7" d="M7,32.16s1.3-1.73.58-2.54-.72-.55-1.13-.48a1.9,1.9,0,0,1-1.14-.27c-.41-.18-1.2-.64-1.51.26a12,12,0,0,1-.33,2.24A1.58,1.58,0,0,0,5,33.21C6.34,33.28,6.62,33.23,7,32.16Z"/><path class="cls-13" d="M24.63,16.55c0,6.64-4.57,11.43-8.18,12.59C8.39,31.73,3,27.47,2.89,24.52c-.09-3.68-4-2-.57-5,1.79-1.6-6.46-11,11-12C19.18,7.38,24.63,9.9,24.63,16.55Z"/><path class="cls-14" d="M23.84,24.89c-.9,1.76-4.6,2-5.84-2.42A6.18,6.18,0,0,1,17.9,19s.77-1.14-1.6-1.43S13,10.9,10,10c-2.31-.65-4.19.37-6.08,0S2.22,5.43,4.95,4.72s13.12-6,18.19.46,3.47,6.69,3.16,12.6C26.16,20.24,24.52,23.56,23.84,24.89Z"/><path class="cls-13" d="M15.88,17.86s1-3.09,2.81-2.78,1.91,7.38-2,8C13.91,23.46,15.88,17.86,15.88,17.86Z"/><path class="cls-5" d="M18.31,17.42s-2.16,1.29-1.95,2.6,1.14.8,1.27.29-.41-.61-.43-.66A3.92,3.92,0,0,1,18.31,17.42Z"/><path class="cls-14" d="M26.72,11.82c0,5.77-5.69,1-12.41-.73C.76,7.69,4.74,12.9,1.89,12.57A1.58,1.58,0,0,1,.51,11.22C-.82,6.52,3.44-.4,13.48,0,20.4.31,26.72,6,26.72,11.82Z"/><path class="cls-5" d="M3.37,21.38H1c.15.39.85.59,1.36,1.28l1.19-.84A.24.24,0,0,0,3.37,21.38Z"/><path class="cls-15" d="M5.39,26h.28c2.63-.13,2.69-.93,2.73-1a.3.3,0,0,0,0-.42.31.31,0,0,0-.43,0s-.24.86-2.31.86H5.42c-.13,0-.51-.1-.51.21S5.39,26,5.39,26Z"/><path d="M8.12,15.65a.26.26,0,0,0,.22-.14.33.33,0,0,0-.08-.41,5.33,5.33,0,0,0-2.58-1A3.39,3.39,0,0,0,3.55,15a.33.33,0,0,0,0,.42.24.24,0,0,0,.37,0,2.94,2.94,0,0,1,1.81-.7A4.93,4.93,0,0,1,8,15.6.24.24,0,0,0,8.12,15.65Z"/><ellipse class="cls-16" cx="5.43" cy="17.64" rx="1.03" ry="1.37"/><path class="cls-17" d="M4.76,16.8c-.3.52.14,1.11.53.71S5.15,16.41,4.76,16.8Z"/><path class="cls-7" d="M24.57,16.61C24.57,23.26,20,28,16.39,29.2,8.34,31.79,2.91,27.53,2.84,24.59c-.09-3.68-4-2-.57-5,1.79-1.6-6.46-11,11-12C19.13,7.44,24.57,10,24.57,16.61Z"/><path class="cls-18" d="M23.79,25c-.9,1.76-4.6,2-5.84-2.42a6.18,6.18,0,0,1-.1-3.44s.77-1.14-1.6-1.43S13,11,9.91,10.1c-2.31-.65-4.19.37-6.08,0S2.16,5.49,4.89,4.79s13.12-6,18.19.46,3.47,6.69,3.16,12.6C26.11,20.3,24.47,23.63,23.79,25Z"/><path class="cls-7" d="M15.83,17.92s1-3.09,2.81-2.78,1.91,7.38-2,8C13.86,23.52,15.83,17.92,15.83,17.92Z"/><path class="cls-19" d="M18.26,17.48s-2.16,1.29-1.95,2.6,1.14.8,1.27.29-.41-.61-.43-.66A3.92,3.92,0,0,1,18.26,17.48Z"/><path class="cls-18" d="M26.67,11.88c0,5.77-5.69,1-12.41-.73C.7,7.75,4.69,13,1.84,12.63A1.58,1.58,0,0,1,.46,11.29C-.87,6.58,3.39-.34,13.42.08,20.34.37,26.67,6.11,26.67,11.88Z"/><path class="cls-19" d="M3.32,21.45H.91c.15.39.85.59,1.36,1.28l1.19-.84A.24.24,0,0,0,3.32,21.45Z"/><path class="cls-18" d="M21.08,7.84c.37-3.32,3.11-6.45,6.45-6.51,3.15-.06,5.89,2.62,6.71,5.66s.06,6.32-1.22,9.2c-.84,1.9-1.93,4-1.1,5.93a1.93,1.93,0,0,1-2.39-.61A5,5,0,0,1,28.69,19a29.31,29.31,0,0,1-.23-4.28,6.93,6.93,0,0,0-.34-3,2.06,2.06,0,0,0-2.49-1.24,8.64,8.64,0,0,0-.93.61,2.22,2.22,0,0,1-3.17-2.81"/><path class="cls-15" d="M5.06,26h.28C8,25.88,8,25.09,8.07,25a.3.3,0,0,0,0-.42.31.31,0,0,0-.43,0s-.24.86-2.31.86H5.09c-.13,0-.51-.1-.51.21S5.06,26,5.06,26Z"/><path d="M7.78,15.65A.26.26,0,0,0,8,15.5a.33.33,0,0,0-.08-.41,5.33,5.33,0,0,0-2.58-1A3.39,3.39,0,0,0,3.21,15a.33.33,0,0,0,0,.42.24.24,0,0,0,.37,0,2.94,2.94,0,0,1,1.81-.7,4.93,4.93,0,0,1,2.3.87A.24.24,0,0,0,7.78,15.65Z"/><ellipse class="cls-16" cx="5.09" cy="17.64" rx="1.03" ry="1.37"/><path class="cls-17" d="M4.42,16.8c-.3.52.14,1.11.53.71S4.81,16.41,4.42,16.8Z"/><path class="cls-6" d="M8.13,35l-4.46-.71-.75,2S6,38.14,8,37.72,8.13,35,8.13,35Z"/><rect class="cls-20" x="1.47" y="13.79" width="7.97" height="6.69" rx="3.34" ry="3.34" transform="translate(10.91 34.27) rotate(-180)"/><rect class="cls-21" x="1.47" y="13.79" width="7.97" height="6.69" rx="3.34" ry="3.34" transform="translate(10.91 34.27) rotate(-180)"/><rect class="cls-6" x="11.9" y="12.51" width="1.74" height="8.21" rx="0.86" ry="0.86" transform="translate(-6.1 25.75) rotate(-78.29)"/><polygon class="cls-11" points="8.59 51.31 10.26 34.78 11.41 36.13 11.8 38.7 9.87 52.6 8.33 52.08 8.59 51.31"/><polygon class="cls-11" points="11.8 30.28 10.26 35.87 8.84 52.15 8.46 51.7 8.07 36.65 9.04 35.29 8.97 32.72 11.8 30.28"/></g></g></g></svg>