<svg xmlns="http://www.w3.org/2000/svg" viewBox="0 0 30.03 65.57"><defs><style>.cls-1{fill:#1b1919;}.cls-2{fill:#0e0e0e;}.cls-3{fill:#2d365a;}.cls-4{fill:#e2826d;}.cls-5{fill:#c9c9c9;}.cls-6{fill:#363d66;}.cls-7{fill:#e6e6e8;}.cls-8{fill:#e5e5e5;}.cls-9{fill:#e9a28f;}.cls-10{fill:#1e120d;}.cls-11{fill:#d26d5a;}.cls-12{fill:#383d46;}.cls-13{fill:#fff;}.cls-14{fill:#1e1c1c;}.cls-15{fill:#b15e4f;}</style></defs><title>4</title><g id="Capa_2" data-name="Capa 2"><g id="Capa_7" data-name="Capa 7"><path class="cls-1" d="M17.83,62.25l-.47,1a1.21,1.21,0,0,0-.16.53l0,.38A1,1,0,0,0,18,65.28l4.91.13c1.56,0,1.11-1.15.74-1.55s-1.12-.34-1.71-.37a2.74,2.74,0,0,1-1.72-.85l-.35-.72a.71.71,0,0,0-.28-.13C19.18,61.7,18.17,61.56,17.83,62.25Z"/><path class="cls-1" d="M17.19,64.19l0-.38a1.26,1.26,0,0,1,.06-.31c.6,1.26,2.26,1.37,4.45,1.43,1.45,0,1.93-.39,2.1-.75.26.49.3,1.21-.95,1.24L18,65.28A1,1,0,0,1,17.19,64.19Z"/><path class="cls-2" d="M8.24,61l-.77.81a1.21,1.21,0,0,0-.32.45L7,62.61a1,1,0,0,0,.38,1.29l4,1.41c1.54-.22,2.6-1,2.18-1.32s-1.35-.25-1.89-.47a2.74,2.74,0,0,1-1.35-1.37l-.09-.8a.71.71,0,0,0-.22-.21C9.69,60.92,8.79,60.45,8.24,61Z"/><path class="cls-2" d="M7,62.61l.15-.35A1.26,1.26,0,0,1,7.3,62C7.45,63.37,9,64,11,64.79c1.35.51,2.29-.57,2.08-1,.65-.12,1.41.84-.78,1.61l-.5.13a1.44,1.44,0,0,1-.94-.05L7.38,63.89A1,1,0,0,1,7,62.61Z"/><path class="cls-3" d="M9.26,62.2h0c1.17.44,1.54.29,2-.85l3-5.82.6-6.4-4.53-.43.32,6.15L8.12,60.23C7.74,61.42,8.1,61.76,9.26,62.2Z"/><path class="cls-4" d="M26,37.29h0c-.08-.39-.51-.89-.9-.83l-3.61.88a.94.94,0,0,1-1.22-.42L17.9,33l-2.21,1.38,3.24,4.46a1.56,1.56,0,0,0,1.41.74l5.17-1.41A.75.75,0,0,0,26,37.29Z"/><path class="cls-5" d="M18.07,38.21s1.21,2.12,2.35,1.41.38-2.47.38-2.47L18,32.9a1.32,1.32,0,0,0-1.82-.42l-.15.1a1.32,1.32,0,0,0-.42,1.82Z"/><path class="cls-4" d="M25.33,37.69s-1.27-1.41-.7-2.17.59-.53,1-.51a1.67,1.67,0,0,0,1-.32c.34-.19,1-.65,1.34.11a10.46,10.46,0,0,0,.46,1.93,1.38,1.38,0,0,1-1.23,1.72C26,38.62,25.73,38.6,25.33,37.69Z"/><path class="cls-6" d="M10.12,48.35c0-1.1.51-4.24,1.13-4.24h6.6c.63,0,1.22,2.19,1.22,3.29h0c0,.06,0,.12,0,.18,0,1.61-2.09,3.85-4.51,3.85s-4.43-1.32-4.43-3h0s0-.08,0-.12Z"/><path class="cls-6" d="M19.15,62.87h0c1.22-.26,1.45-.59,1.25-1.82l-1-13.31-5,1.54,2.7,12.57C17.44,63,17.93,63.13,19.15,62.87Z"/><polygon class="cls-4" points="12.66 32.09 16.66 33.46 16.66 29.71 12.57 29.71 12.66 32.09"/><path class="cls-4" d="M6.49,43l.86-.24c.39-.05.06-.2,0-.59l.07-3.78a1.6,1.6,0,0,1,.45-1.51l3.47-3.35L9.56,31.71,5.9,35.83A2.51,2.51,0,0,0,5.38,37l.28,5.42A.75.75,0,0,0,6.49,43Z"/><path class="cls-7" d="M5.94,34.9c-1.48,2.25-2.06,9.35,1.37,6.86,1.09-.79.34-3.6.34-3.6l3.76-4.57a1.32,1.32,0,0,0,0-1.87l-.13-.13a1.32,1.32,0,0,0-1.87,0Z"/><path class="cls-4" d="M6.45,42s2.1-.56,2.57.41.24.88,0,1.23a1.9,1.9,0,0,0-.18,1.16c0,.45.14,1.35-.8,1.31a12,12,0,0,0-2.21-.53,1.58,1.58,0,0,1-1.12-2.14C5.17,42.19,5.32,41.94,6.45,42Z"/><polygon class="cls-8" points="10.33 31.5 17 38.03 18.23 36.68 10.99 29.86 10.33 31.5"/><path class="cls-9" d="M3.79,18.44C3.79,25.09,8.36,29.87,12,31c8.05,2.59,13.48-1.67,13.55-4.62.09-3.68,4-2,.57-5-1.79-1.6,6.46-11-11-12C9.24,9.27,3.79,11.8,3.79,18.44Z"/><path class="cls-10" d="M4.58,26.79c.9,1.76,4.6,2,5.84-2.42a6.18,6.18,0,0,0,.1-3.44s-.77-1.14,1.6-1.43,3.26-6.7,6.34-7.57c2.31-.65,4.19.37,6.08,0s1.66-4.59-1.07-5.3-13.12-6-18.19.46-3.47,6.69-3.16,12.6C2.26,22.13,3.9,25.46,4.58,26.79Z"/><path class="cls-9" d="M12.54,19.75s-1-3.09-2.81-2.78-1.91,7.38,2,8C14.51,25.35,12.54,19.75,12.54,19.75Z"/><path class="cls-4" d="M10.11,19.32s2.16,1.29,1.95,2.6-1.14.8-1.27.29.41-.61.43-.66A3.92,3.92,0,0,0,10.11,19.32Z"/><path class="cls-10" d="M1.7,13.71c0,5.77,5.69,1,12.41-.73,13.56-3.4,9.57,1.82,12.42,1.48a1.58,1.58,0,0,0,1.38-1.35c1.34-4.7-2.93-11.63-13-11.2C8,2.2,1.7,7.94,1.7,13.71Z"/><path class="cls-4" d="M25.05,23.28h2.41c-.15.39-.85.59-1.36,1.28l-1.19-.84A.24.24,0,0,1,25.05,23.28Z"/><path class="cls-11" d="M23,27.91h-.28c-2.63-.13-2.69-.93-2.73-1a.3.3,0,0,1,0-.42.31.31,0,0,1,.43,0s.24.86,2.31.86H23c.13,0,.51-.1.51.21S23,27.91,23,27.91Z"/><path d="M20.3,17.54a.26.26,0,0,1-.22-.14.33.33,0,0,1,.08-.41,5.33,5.33,0,0,1,2.58-1,3.39,3.39,0,0,1,2.14.83.33.33,0,0,1,0,.42.24.24,0,0,1-.37,0,2.94,2.94,0,0,0-1.81-.7,4.93,4.93,0,0,0-2.3.87A.24.24,0,0,1,20.3,17.54Z"/><ellipse class="cls-12" cx="22.99" cy="19.54" rx="1.03" ry="1.37"/><path class="cls-13" d="M23.66,18.7c.3.52-.14,1.11-.53.71S23.27,18.3,23.66,18.7Z"/><path class="cls-4" d="M3.85,18.51c0,6.64,4.57,11.43,8.18,12.59,8.05,2.59,13.48-1.67,13.55-4.62.09-3.68,4-2,.57-5-1.79-1.6,6.46-11-11-12C9.29,9.34,3.85,11.86,3.85,18.51Z"/><path class="cls-14" d="M4.63,26.85c.9,1.76,4.6,2,5.84-2.42a6.18,6.18,0,0,0,.1-3.44s-.77-1.14,1.6-1.43,3.26-6.7,6.34-7.57c2.31-.65,4.19.37,6.08,0s1.66-4.59-1.07-5.3-13.12-6-18.19.46-3.47,6.69-3.16,12.6C2.31,22.19,4,25.52,4.63,26.85Z"/><path class="cls-4" d="M12.59,19.81s-1-3.09-2.81-2.78-1.91,7.38,2,8C14.56,25.42,12.59,19.81,12.59,19.81Z"/><path class="cls-15" d="M10.16,19.38s2.16,1.29,1.95,2.6-1.14.8-1.27.29.41-.61.43-.66A3.92,3.92,0,0,0,10.16,19.38Z"/><path class="cls-14" d="M1.75,13.78c0,5.77,5.69,1,12.41-.73,13.56-3.4,9.57,1.82,12.42,1.48A1.58,1.58,0,0,0,28,13.18C29.29,8.48,25,1.56,15,2,8.08,2.27,1.75,8,1.75,13.78Z"/><path class="cls-15" d="M25.1,23.34h2.41c-.15.39-.85.59-1.36,1.28L25,23.77A.24.24,0,0,1,25.1,23.34Z"/><path class="cls-14" d="M10.47,24.43A6,6,0,0,1,8.8,18.21c1.22-3.79,3.79,1.6,3.79,1.6s4,.58,3.1-4.33c0,0,4.61.53,4.78-3.77,0,0,2.38,3.59,5.35.93,0,0,3.74,2.11,4.17-2.2s-3.17-4.89-3.17-4.89-1.54-4.45-4.63-3c0,0-3-4.52-6.5-1.6,0,0-5.68-2-6.19,2.13,0,0-5.3-2-5.65,3.52,0,0-5.07,2.41-2.75,6.44,0,0-2.82,6.29.6,9C1.7,22,6.91,28.41,10.47,24.43Z"/><path class="cls-11" d="M23.36,27.91h-.28c-2.63-.13-2.69-.93-2.73-1a.3.3,0,0,1,0-.42.31.31,0,0,1,.43,0s.24.86,2.31.86h.25c.13,0,.51-.1.51.21S23.36,27.91,23.36,27.91Z"/><path d="M20.64,17.54a.26.26,0,0,1-.22-.14A.33.33,0,0,1,20.5,17a5.33,5.33,0,0,1,2.58-1,3.39,3.39,0,0,1,2.14.83.33.33,0,0,1,0,.42.24.24,0,0,1-.37,0,2.94,2.94,0,0,0-1.81-.7,4.93,4.93,0,0,0-2.3.87A.24.24,0,0,1,20.64,17.54Z"/><ellipse class="cls-12" cx="23.33" cy="19.54" rx="1.03" ry="1.37"/><path class="cls-13" d="M24,18.7c.3.52-.14,1.11-.53.71S23.61,18.3,24,18.7Z"/><path class="cls-5" d="M20.29,36.92l4.46-.71.75,2s-3,1.87-5.08,1.45S20.29,36.92,20.29,36.92Z"/><polygon class="cls-8" points="16.62 32.17 11.1 31.64 9.99 46.63 19.98 48.85 20.35 38.54 19.39 37.19 19.45 34.62 16.62 32.17"/></g></g></svg>