<svg xmlns="http://www.w3.org/2000/svg" xmlns:xlink="http://www.w3.org/1999/xlink" viewBox="0 0 34.41 65.99"><defs><style>.cls-1{fill:none;}.cls-2{fill:#e2826d;}.cls-3{fill:#a00d1b;}.cls-4{fill:#f8cba8;}.cls-5{fill:#2d3556;}.cls-6{fill:#363d66;}.cls-7{fill:#d8d9dd;}.cls-8{clip-path:url(#clip-path);}.cls-9{fill:#323232;opacity:0.76;}.cls-10{fill:#c6464d;}.cls-11{fill:#d99876;}.cls-12,.cls-15{fill:#fff;}.cls-13{fill:#303030;}.cls-14{fill:#ff2463;opacity:0.15;}.cls-15{opacity:0.2;}.cls-16,.cls-18{fill:#b67e5e;}.cls-16,.cls-17{opacity:0.43;}.cls-19{fill:#2a2724;}</style><clipPath id="clip-path"><path class="cls-1" d="M9.76,45.65c1.68-1.75,5.94-12,5.94-12-.44-2.06.53-1.93-.37-1.92l-2.09,2.76c-1.6.05-1.78-.2-1.78-.2l-1.12,2.19A57.12,57.12,0,0,0,9.76,45.65Z"/></clipPath></defs><title>6</title><g id="Capa_2" data-name="Capa 2"><g id="Capa_7" data-name="Capa 7"><path class="cls-2" d="M11,45.78l-.71-.65c-.35-.24,0-.22.26-.59l1.78-3.68a1.73,1.73,0,0,0,.3-1.67l-1.7-4.91,2.66-.91,1.51,5.74A2.71,2.71,0,0,1,15,40.53l-2.91,5.08A.81.81,0,0,1,11,45.78Z"/><path class="cls-3" d="M15.47,38.2c.32,2.89-2.59,10-4.67,5.94-.66-1.29,1.43-3.64,1.43-3.64l-1.38-6.22a1.43,1.43,0,0,1,.89-1.81l.18-.06a1.42,1.42,0,0,1,1.8.89Z"/><path class="cls-4" d="M11.52,44.8S9.78,43.24,8.85,44s-.66.73-.62,1.17a2.06,2.06,0,0,1-.4,1.2C7.6,46.75,7,47.56,8,48a12.83,12.83,0,0,1,2.37.56A1.71,1.71,0,0,0,12.45,47C12.66,45.6,12.63,45.29,11.52,44.8Z"/><polygon class="cls-5" points="18.75 50.6 17.36 63.41 15.71 64 13.18 50.17 18.75 50.6"/><polygon class="cls-6" points="17.2 51.19 13.29 63.46 11.55 63.71 11.83 49.66 17.2 51.19"/><path class="cls-6" d="M21.22,48.75c0-1.16-.69-4.48-1.49-4.47l-8.4.08c-.8,0-1.53,2.33-1.51,3.49h0c0,.07,0,.13,0,.19.08,1.7,2.71,4,5.78,4s5.62-1.46,5.6-3.18h0a1.07,1.07,0,0,0,0-.13Z"/><path class="cls-7" d="M9.76,45.65c1.68-1.75,5.94-12,5.94-12-.44-2.06.53-1.93-.37-1.92l-2.09,2.76c-1.6.05-1.78-.2-1.78-.2l-1.12,2.19A57.12,57.12,0,0,0,9.76,45.65Z"/><g class="cls-8"><circle class="cls-9" cx="10.35" cy="36.04" r="0.45" transform="translate(-0.36 0.11) rotate(-0.58)"/><circle class="cls-9" cx="10.37" cy="37.46" r="0.45" transform="translate(-0.38 0.11) rotate(-0.58)"/></g><path class="cls-3" d="M22.23,49.16,16.45,51H11.39l-2-2.63.35-2.7L11,38.49a5.76,5.76,0,0,1,2.36-5s1,1.79.65,0l2.6-.36c.06,0,1.67-1.13,1.73-1.11,1.44.64,2,2.73,2.07,6.25L21,44.19Z"/><path class="cls-10" d="M12.37,34.07A22.85,22.85,0,0,1,14,36.45l-1.2.18.79,1.63-2.48,2.6-1.42,5,1.75-11.93Z"/><polygon class="cls-11" points="17.56 32.68 13.36 34.22 13.28 30.25 17.61 30.17 17.56 32.68"/><polygon class="cls-12" points="19.28 32.2 11.54 35.8 11.46 33.71 18.32 30.65 19.28 32.2"/><path class="cls-13" d="M28.84,13.16c.07,7.35-6.49-5.09-14-5S3.6,6.34.42,13.36C.35,6,7.49.08,15,0A13.49,13.49,0,0,1,28.84,13.16Z"/><path class="cls-4" d="M26.32,17.25a14.08,14.08,0,0,1-8.51,13.39c-3.4,1.32-6.27,2.19-8.64,1.71-3.49-.69-5.66-4.61-5.72-6.45C3.31,22-.76,23.83,2.78,20.6,4.65,18.89-4.16,9.09,14.25,7.85,20.47,7.61,26.25,10.23,26.32,17.25Z"/><ellipse class="cls-14" cx="9.12" cy="21.26" rx="2.42" ry="0.98" transform="translate(-0.21 0.09) rotate(-0.58)"/><path class="cls-15" d="M7.79,21.68h0a.08.08,0,0,1,0-.12l.74-.76a.08.08,0,0,1,.12,0h0a.08.08,0,0,1,0,.12l-.75.76A.08.08,0,0,1,7.79,21.68Z"/><path class="cls-15" d="M8.67,21.67h0a.08.08,0,0,1,0-.12l.74-.76a.08.08,0,0,1,.12,0h0a.08.08,0,0,1,0,.12l-.74.76A.08.08,0,0,1,8.67,21.67Z"/><path class="cls-15" d="M9.55,21.66h0a.08.08,0,0,1,0-.12l.74-.76a.08.08,0,0,1,.12,0h0a.08.08,0,0,1,0,.12l-.75.76A.08.08,0,0,1,9.55,21.66Z"/><path class="cls-13" d="M25.58,26.07c-.93,1.87-4.84,2.18-6.2-2.5a6.53,6.53,0,0,1-.14-3.63s.8-1.21-1.71-1.49-3.52-7-6.78-7.93c-2.45-.66-4.43.44-6.42,0S2.53,5.74,5.4,5,16.32-.11,23,5.4s6.34,8.6,5.54,13.13A33.52,33.52,0,0,1,25.58,26.07Z"/><path class="cls-4" d="M17.09,18.72s1-3.28,2.94-3,2.09,7.78-2,8.44C15.08,24.66,17.09,18.72,17.09,18.72Z"/><path class="cls-16" d="M19.66,18.23s-2.27,1.39-2,2.77,1.21.83,1.34.29-.44-.64-.46-.69A4.14,4.14,0,0,1,19.66,18.23Z"/><path class="cls-16" d="M3.91,22.58l-2.55,0c.16.41.9.61,1.45,1.33L4.07,23A.25.25,0,0,0,3.91,22.58Z"/><g class="cls-17"><path class="cls-18" d="M6.1,27.45h.3c2.77-.16,2.83-1,2.88-1.05a.31.31,0,0,0,0-.45.32.32,0,0,0-.45,0s-.25.91-2.43.93H6.13c-.14,0-.54-.1-.54.23S6.1,27.45,6.1,27.45Z"/></g><path class="cls-13" d="M9.06,18.61a.4.4,0,0,0,.36,0,.29.29,0,0,0,.06-.45,9.54,9.54,0,0,0-3-2.43,5.93,5.93,0,0,0-3.19-.45.28.28,0,0,0-.23.39.43.43,0,0,0,.47.26,5.16,5.16,0,0,1,2.7.38A8.8,8.8,0,0,1,8.9,18.49.44.44,0,0,0,9.06,18.61Z"/><path class="cls-13" d="M7.22,19.42c.06,0,.12-.05.16-.15a.47.47,0,0,0-.06-.44,3.2,3.2,0,0,0-1.82-1,2.11,2.11,0,0,0-1.5.89.49.49,0,0,0,0,.45c.07.14.18.15.26,0a1.83,1.83,0,0,1,1.26-.75,3,3,0,0,1,1.63.9A.13.13,0,0,0,7.22,19.42Z"/><path class="cls-19" d="M.86,13.2a3.37,3.37,0,0,1,1.48-.31c.32,0,.49-.46.82-.28a2.73,2.73,0,0,1,.78-1.11L3.62,10.1,2.5,9.74A7.4,7.4,0,0,0,.86,13.2Z"/><path class="cls-13" d="M6,10.55a3.86,3.86,0,0,0-2.56,2.36l-1.79.62a3.85,3.85,0,0,1,.84-2.93c-1.37.84-1.54,3-1.54,3l-1,.37S.91,6.6,3.66,6.14C6.6,5.65,8.56,10.1,6,10.55Z"/><ellipse class="cls-13" cx="25.25" cy="29.8" rx="6.38" ry="5.27"/><ellipse class="cls-13" cx="22.2" cy="25.92" rx="3.33" ry="3.05"/><ellipse class="cls-13" cx="29.41" cy="20.64" rx="5" ry="5.55"/><ellipse class="cls-13" cx="28.86" cy="12.59" rx="5.55" ry="5.27"/><ellipse class="cls-13" cx="24.69" cy="6.77" rx="4.72" ry="3.89"/><rect class="cls-3" x="12.3" y="62.89" width="5.55" height="2.78" rx="1.39" ry="1.39" transform="translate(-0.64 0.15) rotate(-0.58)"/><rect class="cls-3" x="8.81" y="62.79" width="5.55" height="2.78" rx="1.39" ry="1.39" transform="translate(-18.99 6.57) rotate(-17.73)"/><path class="cls-2" d="M22.81,44.24,21.94,44c-.39,0-.06-.2,0-.59l-.11-3.78a1.6,1.6,0,0,0-.47-1.5l-3.51-3.31,1.81-1.88L23.33,37a2.51,2.51,0,0,1,.54,1.2l-.23,5.42A.75.75,0,0,1,22.81,44.24Z"/><path class="cls-3" d="M23.28,36.09c1.5,2.24,2.15,9.33-1.3,6.87-1.1-.78-.38-3.6-.38-3.6l-3.8-4.53a1.32,1.32,0,0,1,0-1.87l.13-.13a1.32,1.32,0,0,1,1.87,0Z"/><path class="cls-4" d="M22.85,43.2s-2.1-.54-2.56.44-.23.88,0,1.23A1.9,1.9,0,0,1,20.46,46c0,.45-.13,1.35.82,1.3a12,12,0,0,1,2.2-.55,1.58,1.58,0,0,0,1.09-2.15C24.13,43.37,24,43.12,22.85,43.2Z"/></g></g></svg>