<svg xmlns="http://www.w3.org/2000/svg" xmlns:xlink="http://www.w3.org/1999/xlink" viewBox="0 0 35.81 70.22"><defs><style>.cls-1{fill:none;}.cls-2{fill:#55c0eb;}.cls-3{fill:#f8cba8;}.cls-4{fill:#2d3556;}.cls-5{fill:#363d66;}.cls-6{fill:#d8d9dd;}.cls-7{clip-path:url(#clip-path);}.cls-8{fill:#323232;opacity:0.76;}.cls-9{fill:#c6464d;}.cls-10{fill:#d99876;}.cls-11,.cls-15{fill:#fff;}.cls-12{fill:#2a2724;}.cls-13{fill:#303030;}.cls-14{fill:#ff2463;opacity:0.15;}.cls-15{opacity:0.2;}.cls-16,.cls-18{fill:#b67e5e;}.cls-16,.cls-17{opacity:0.43;}.cls-19{fill:#a00d1b;}</style><clipPath id="clip-path"><path class="cls-1" d="M26,49.88c-1.7-1.74-6.06-12-6.06-12,.42-2.07-.54-1.93.35-1.93l2.11,2.74c1.6,0,1.77-.21,1.77-.21l1.14,2.18A57.12,57.12,0,0,1,26,49.88Z"/></clipPath></defs><title>8</title><g id="Capa_2" data-name="Capa 2"><g id="Capa_7" data-name="Capa 7"><path class="cls-2" d="M32.35,46.22l.05-.9c.08-.39-.17-.12-.55-.22l-3.56-1.28A1.6,1.6,0,0,1,27,42.91L25,38.54l-2.35,1.13,2.72,4.79a2.51,2.51,0,0,0,1,.88l5.22,1.48A.75.75,0,0,0,32.35,46.22Z"/><path class="cls-2" d="M24.45,44.12c1.66,2.12,8.19,5,6.94.91-.4-1.29-3.3-1.48-3.3-1.48l-3.11-5a1.32,1.32,0,0,0-1.76-.62l-.16.08a1.32,1.32,0,0,0-.62,1.76Z"/><path class="cls-3" d="M31.35,46s.07-2.17,1.13-2.34.91,0,1.18.33a1.9,1.9,0,0,0,1.06.5c.43.11,1.34.25,1,1.14-.18.51-.85,1-1.14,2a1.58,1.58,0,0,1-2.37.45C31.16,47.28,31,47.07,31.35,46Z"/><polygon class="cls-4" points="17.11 54.92 18.62 67.7 20.28 68.28 22.67 54.43 17.11 54.92"/><polygon class="cls-5" points="16.54 53.73 14.38 66.43 15.81 67.44 22.01 54.83 16.54 53.73"/><path class="cls-5" d="M14.61,53.09c0-1.16.65-4.48,1.44-4.48h8.4c.8,0,1.55,2.32,1.55,3.48h0c0,.07,0,.13,0,.19-.06,1.7-2.66,4.07-5.74,4.07s-5.63-1.4-5.63-3.13h0a1.07,1.07,0,0,1,0-.13Z"/><path class="cls-6" d="M26,49.88c-1.7-1.74-6.06-12-6.06-12,.42-2.07-.54-1.93.35-1.93l2.11,2.74c1.6,0,1.77-.21,1.77-.21l1.14,2.18A57.12,57.12,0,0,1,26,49.88Z"/><g class="cls-7"><circle class="cls-8" cx="25.35" cy="40.27" r="0.45"/><circle class="cls-8" cx="25.35" cy="41.69" r="0.45"/></g><path class="cls-2" d="M13.61,53.51l5.8,1.76,5.06,0,1.95-2.65L26,49.88l-1.3-7.14a5.76,5.76,0,0,0-2.41-4.93s-.94,1.8-.65,0l-2.6-.33c-.06,0-1.68-1.12-1.74-1.09-1.43.66-2,2.75-2,6.27l-.53,5.85Z"/><path class="cls-9" d="M23.32,38.32a22.85,22.85,0,0,0-1.59,2.4l1.2.17-.77,1.64,2.51,2.58,1.47,5L24.26,38.16Z"/><polygon class="cls-10" points="18.11 36.99 22.33 38.48 22.37 34.52 18.04 34.47 18.11 36.99"/><polygon class="cls-11" points="16.39 36.53 24.16 40.04 24.23 37.95 17.34 34.96 16.39 36.53"/><path class="cls-12" d="M5.34,7.4S-6.49,20.57,5.07,25.45c8.1-4.1,6.79-19.37,3-19.26S5.34,7.4,5.34,7.4Z"/><path class="cls-12" d="M14.6,4.57C15,2.81,15-.23,10.77,0,5.83.3-1.64,7,4.37,10,11.86,13.79,14.6,4.57,14.6,4.57Z"/><path class="cls-13" d="M6.63,17.58c0,7.35,6.43-5.16,14-5.16s11.19-1.92,14.44,5.07c0-7.35-7.21-13.21-14.76-13.21A13.49,13.49,0,0,0,6.63,17.58Z"/><path class="cls-3" d="M9.2,21.64a14.08,14.08,0,0,0,8.65,13.3c3.42,1.28,6.29,2.12,8.66,1.63,3.48-.73,5.61-4.66,5.66-6.51.1-3.89,4.18-2.11.61-5.31-1.89-1.69,6.82-11.58-11.59-12.63C15,11.95,9.2,14.62,9.2,21.64Z"/><ellipse class="cls-14" cx="26.44" cy="25.48" rx="2.42" ry="0.98"/><path class="cls-15" d="M27.78,25.88h0a.08.08,0,0,0,0-.12L27,25a.08.08,0,0,0-.12,0h0a.08.08,0,0,0,0,.12l.75.75A.08.08,0,0,0,27.78,25.88Z"/><path class="cls-15" d="M26.89,25.88h0a.08.08,0,0,0,0-.12L26.14,25A.08.08,0,0,0,26,25h0a.08.08,0,0,0,0,.12l.75.75A.08.08,0,0,0,26.89,25.88Z"/><path class="cls-15" d="M26,25.88h0a.08.08,0,0,0,0-.12L25.26,25a.08.08,0,0,0-.12,0h0a.08.08,0,0,0,0,.12l.75.75A.08.08,0,0,0,26,25.88Z"/><path class="cls-13" d="M10,30.45c1,1.86,4.86,2.13,6.17-2.56a6.53,6.53,0,0,0,.1-3.64s-.81-1.2,1.69-1.51,3.45-7.08,6.7-8c2.44-.69,4.43.39,6.42,0S32.88,9.89,30,9.14s-11-5-17.58.61S6.16,18.42,7,22.94A33.52,33.52,0,0,0,10,30.45Z"/><path class="cls-3" d="M18.44,23s-1-3.27-3-2.94-2,7.8,2.11,8.42C20.52,28.94,18.44,23,18.44,23Z"/><path class="cls-16" d="M15.87,22.56s2.28,1.37,2.06,2.75-1.2.84-1.34.31S17,25,17,24.92A4.14,4.14,0,0,0,15.87,22.56Z"/><path class="cls-16" d="M31.66,26.75H34.2c-.15.41-.89.62-1.44,1.35l-1.25-.89A.25.25,0,0,1,31.66,26.75Z"/><g class="cls-17"><path class="cls-18" d="M29.52,31.64h-.3c-2.77-.14-2.84-1-2.89-1a.31.31,0,0,1,0-.45.32.32,0,0,1,.45,0s.26.91,2.44.91h.27c.14,0,.54-.11.54.23S29.52,31.64,29.52,31.64Z"/></g><path class="cls-13" d="M26.47,22.83a.4.4,0,0,1-.36,0,.29.29,0,0,1-.07-.45,9.54,9.54,0,0,1,3-2.46,5.93,5.93,0,0,1,3.19-.48.28.28,0,0,1,.23.38.43.43,0,0,1-.47.26,5.16,5.16,0,0,0-2.69.41,8.8,8.8,0,0,0-2.67,2.21A.44.44,0,0,1,26.47,22.83Z"/><path class="cls-13" d="M28.32,23.63c-.06,0-.12-.05-.16-.15a.47.47,0,0,1,.06-.44A3.2,3.2,0,0,1,30,22a2.11,2.11,0,0,1,1.5.88.49.49,0,0,1,0,.45c-.06.14-.18.16-.26,0A1.83,1.83,0,0,0,30,22.66c-.75,0-1.61.91-1.62.92A.13.13,0,0,1,28.32,23.63Z"/><path class="cls-12" d="M34.62,17.33A3.37,3.37,0,0,0,33.14,17c-.32,0-.5-.46-.82-.27a2.73,2.73,0,0,0-.79-1.11l.3-1.4,1.12-.37A7.4,7.4,0,0,1,34.62,17.33Z"/><path class="cls-13" d="M29.42,14.73A3.86,3.86,0,0,1,32,17.07l1.8.6a3.85,3.85,0,0,0-.87-2.92c1.38.83,1.57,3,1.57,3l1,.36s-1-7.34-3.74-7.77C28.81,9.85,26.89,14.32,29.42,14.73Z"/><rect class="cls-19" x="18.14" y="67.16" width="5.55" height="2.78" rx="1.39" ry="1.39"/><rect class="cls-19" x="14.19" y="65.08" width="2.78" height="5.55" rx="1.39" ry="1.39" transform="translate(-43.42 30.88) rotate(-45)"/><path class="cls-2" d="M13,48.6l.86-.24c.39-.05.06-.2,0-.59L13.95,44a1.6,1.6,0,0,1,.45-1.51l3.47-3.35L16,37.26l-3.66,4.12a2.51,2.51,0,0,0-.52,1.2L12.14,48A.75.75,0,0,0,13,48.6Z"/><path class="cls-2" d="M12.43,40.45C11,42.7,10.37,49.79,13.8,47.31c1.09-.79.34-3.6.34-3.6l3.76-4.57a1.32,1.32,0,0,0,0-1.87l-.13-.13a1.32,1.32,0,0,0-1.87,0Z"/><path class="cls-3" d="M12.93,47.55S15,47,15.5,48s.24.88,0,1.23a1.9,1.9,0,0,0-.18,1.16c0,.45.14,1.35-.8,1.31a12,12,0,0,0-2.21-.53A1.58,1.58,0,0,1,11.23,49C11.65,47.74,11.8,47.49,12.93,47.55Z"/></g></g></svg>