<svg xmlns="http://www.w3.org/2000/svg" xmlns:xlink="http://www.w3.org/1999/xlink" viewBox="0 0 29.74 58.14"><defs><style>.cls-1{fill:#ebebeb;}.cls-2{fill:#323232;}.cls-3{clip-path:url(#clip-path);}.cls-4{clip-path:url(#clip-path-2);}.cls-5{fill:#0797b4;}.cls-6{fill:#d8d9dd;}.cls-13,.cls-7{fill:#e2826d;}.cls-8{fill:#fff;}.cls-9{fill:#047c86;}.cls-10{fill:#f4b8ac;}.cls-11{fill:#d26d5a;}.cls-12{fill:#953004;}.cls-13{opacity:0.2;}.cls-14{fill:#383d46;}</style><clipPath id="clip-path"><path class="cls-1" d="M16.84,54a1.14,1.14,0,0,0-.53,1.58c.49,1.14,1.07,2.2,2,2.2,1.72,0,2.37,0,2.16-1.42S19,54.5,18,53.92,17.24,53.62,16.84,54Z"/></clipPath><clipPath id="clip-path-2"><path class="cls-1" d="M12.2,54a1.14,1.14,0,0,1,.53,1.58c-.49,1.14-1.07,2.2-2,2.2-1.72,0-2.37,0-2.16-1.42S10,54.5,11,53.92,11.81,53.62,12.2,54Z"/></clipPath></defs><title>9</title><g id="Capa_2" data-name="Capa 2"><g id="Capa_7" data-name="Capa 7"><path class="cls-2" d="M22.26,46.64c0-1.07-.87-4.14-1.95-4.14H9C7.9,42.5,7,45.57,7,46.64H7a1.27,1.27,0,0,0,0,.18c.08,1.57,3.45,2.83,7.6,2.83s7.61-1.29,7.61-2.89h0a.68.68,0,0,0,0-.12Z"/><path class="cls-1" d="M16.84,54a1.14,1.14,0,0,0-.53,1.58c.49,1.14,1.07,2.2,2,2.2,1.72,0,2.37,0,2.16-1.42S19,54.5,18,53.92,17.24,53.62,16.84,54Z"/><g class="cls-3"><path class="cls-1" d="M20.48,55.59l.41.78a1,1,0,0,1-.18,1.16l-.07.07a1.83,1.83,0,0,1-1.31.52H18.14a1.77,1.77,0,0,1-1.46-.65l-.09-.12a1,1,0,0,1,0-1.11l.61-1a1.64,1.64,0,0,1,1.28-.61h1C19.92,54.66,20.3,55.24,20.48,55.59Z"/><path class="cls-1" d="M20,54.55s1.6,2.6.16,2.74-2.32.26-2.92-.35-1-1.07-1-1.51-.09-1.86,1.16-1.74S19.46,53.66,20,54.55Z"/></g><path class="cls-2" d="M18.84,55.61h0c2,0,3.39-2.13,3.39-2.13a2.15,2.15,0,0,0,.29-1.59l-1.68-4-6-.05,3.67,4a1.1,1.1,0,0,1-.12,1.3L17,53.43a1,1,0,0,0-.16,1.36A2.44,2.44,0,0,0,18.84,55.61Z"/><path class="cls-1" d="M12.2,54a1.14,1.14,0,0,1,.53,1.58c-.49,1.14-1.07,2.2-2,2.2-1.72,0-2.37,0-2.16-1.42S10,54.5,11,53.92,11.81,53.62,12.2,54Z"/><g class="cls-4"><path class="cls-1" d="M8.57,55.59l-.41.78a1,1,0,0,0,.18,1.16l.07.07a1.83,1.83,0,0,0,1.31.52h1.19a1.77,1.77,0,0,0,1.46-.65l.09-.12a1,1,0,0,0,0-1.11l-.61-1a1.64,1.64,0,0,0-1.28-.61h-1C9.12,54.66,8.75,55.24,8.57,55.59Z"/><path class="cls-1" d="M9.1,54.55s-1.6,2.6-.16,2.74,2.32.26,2.92-.35,1-1.07,1-1.51.09-1.86-1.16-1.74S9.58,53.66,9.1,54.55Z"/></g><path class="cls-2" d="M10.2,55.61h0c-2,0-3.39-2.13-3.39-2.13a2.15,2.15,0,0,1-.29-1.59l1.68-4,6-.05-3.67,4a1.1,1.1,0,0,0,.12,1.3l1.38.27a1,1,0,0,1,.16,1.36A2.44,2.44,0,0,1,10.2,55.61Z"/><path class="cls-5" d="M23.35,46.46l-7.3,1.36-1.27-1.69-1.16,1.69L6.26,46.46l.37-4.85V32.71a9.72,9.72,0,0,1,5.95-2.53h4.37a10.11,10.11,0,0,1,6,2.53v8.91Z"/><path class="cls-6" d="M14.79,36.83,19.32,30A6,6,0,0,0,17,29.56H12.62a6,6,0,0,0-2.18.41A63.09,63.09,0,0,1,14.79,36.83Z"/><path class="cls-7" d="M17.1,30.28,14.89,32l-2.16-1.75a3.3,3.3,0,0,1,2.19-1.34A3.3,3.3,0,0,1,17.1,30.28Z"/><polygon class="cls-8" points="19.95 30.41 16.2 33.53 14.9 32.03 18.15 29.03 19.95 30.41"/><polygon class="cls-8" points="9.74 30.41 13.61 33.53 14.9 32.03 11.85 28.78 9.74 30.41"/><circle class="cls-2" cx="14.81" cy="34.5" r="0.47"/><path class="cls-9" d="M14.68,36.66c.09,1,.14-.51.17.48,0,.5,0,1,0,1.5l0,1.5v1.5c0,.5,0,1,0,1.5,0,1-.05,2-.12,3-.09-1-.14-2-.17-3,0-.5,0-1,0-1.5l0-1.5v-1.5c0-.5,0-1,0-1.5C14.58,36.15,14.61,37.66,14.68,36.66Z"/><rect class="cls-9" x="17.83" y="38.81" width="3.06" height="0.5"/><path class="cls-9" d="M17.84,39.63c.07.67.09,1.35.1,2l-.1-.1h1.41c.47,0,.94,0,1.41.09-.47,0-.94.07-1.41.09H17.75v-.1c0-.67,0-1.35.1-2"/><rect class="cls-9" x="8.88" y="38.75" width="3.06" height="0.5"/><path class="cls-9" d="M11.92,39.57c-.07.67-.09,1.35-.1,2l.1-.1H10.51c-.47,0-.94,0-1.41.09.47,0,.94.07,1.41.09H12v-.1c0-.67,0-1.35-.1-2"/><path class="cls-10" d="M8.32,43.2A.88.88,0,0,1,7.09,43L3.85,38.76a.88.88,0,0,1-.06-1l1.72-3A.88.88,0,1,1,7,35.69L5.6,38.16,8.49,42A.88.88,0,0,1,8.32,43.2Z"/><path class="cls-6" d="M4,35.29S4.1,36,5.19,36.7a3.1,3.1,0,0,0,1.9.65l1.68-3.29a1.29,1.29,0,0,0-.34-1.79l-.15-.1a1.29,1.29,0,0,0-1.79.34Z"/><path class="cls-10" d="M7.61,44.3a2.45,2.45,0,0,0,.88.89,1.56,1.56,0,0,0,1.93-.9c.14-.72-.7-.51-.74-1.14,0-.46.36.51.84.15.24-.18,0-1-.9-1.23-.77-.17-.77-.61-1.72-.12C6.81,42.53,6.77,43.16,7.61,44.3Z"/><path class="cls-10" d="M20.94,43.2A.88.88,0,0,0,22.17,43l3.25-4.27a.88.88,0,0,0,.06-1l-1.72-3a.88.88,0,1,0-1.52.88l1.43,2.47L20.78,42A.88.88,0,0,0,20.94,43.2Z"/><path class="cls-6" d="M25.22,35.29s-.05.68-1.14,1.41a3.1,3.1,0,0,1-1.9.65L20.5,34.07a1.29,1.29,0,0,1,.34-1.79l.15-.1a1.29,1.29,0,0,1,1.79.34Z"/><path class="cls-10" d="M21.66,44.3a2.45,2.45,0,0,1-.88.89,1.56,1.56,0,0,1-1.93-.9c-.14-.72.7-.51.74-1.14,0-.46-.36.51-.84.15-.24-.18,0-1,.9-1.23.77-.17.77-.61,1.72-.12C22.46,42.53,22.5,43.16,21.66,44.3Z"/><ellipse class="cls-10" cx="14.66" cy="16.93" rx="11.54" ry="7.91"/><path class="cls-10" d="M25.43,20.68c0,6.56-4.66,10-10.4,10s-10.4-3.43-10.4-10S9.28,8.8,15,8.8,25.43,14.12,25.43,20.68Z"/><path class="cls-7" d="M14.87,24.33l.06,0,1.34-1a.23.23,0,0,0-.14-.43H13.6a.23.23,0,0,0-.14.43l1.34,1Z"/><path class="cls-11" d="M15,27.23A6,6,0,0,0,18.86,26a.31.31,0,1,0-.44-.44A5.51,5.51,0,0,1,15,26.61h-.26a5.51,5.51,0,0,1-3.42-1.06.31.31,0,1,0-.44.44,6,6,0,0,0,3.85,1.25Z"/><path class="cls-10" d="M25.75,18.46s1.78-2.66,3.41-1.86-.28,7.51-4.1,7C22.34,23.22,25.75,18.46,25.75,18.46Z"/><path class="cls-10" d="M4,18.46S2.21,15.8.58,16.6s.28,7.51,4.1,7C7.4,23.22,4,18.46,4,18.46Z"/><path class="cls-12" d="M14.88,13.92c3.24-.6,8.22-2.16,10,1.68a21.86,21.86,0,0,1,1,2.93l.81-1,.73-.74s4.24-3.93-2.91-12C22,1.91,18.12,0,14.89,0c-1.7,0-4.52.22-7.55,4.55-9.81,1-5,12.24-5,12.24l.66.75.81,1,.63-2A10.33,10.33,0,0,1,6,13.79,2.54,2.54,0,0,1,7.78,12.5c.33,0,1.4,1.79,4.65,1.72A15.44,15.44,0,0,0,14.88,13.92Z"/><path d="M23.39,16.89a.3.3,0,0,0,.16-.55,6.56,6.56,0,0,0-2.92-.94,4.13,4.13,0,0,0-2.42.82.3.3,0,0,0,.37.46,3.59,3.59,0,0,1,2-.69,6.06,6.06,0,0,1,2.61.86A.3.3,0,0,0,23.39,16.89Z"/><path d="M6.35,16.89a.3.3,0,0,1-.16-.55,6.56,6.56,0,0,1,2.92-.94,4.13,4.13,0,0,1,2.42.82.3.3,0,1,1-.37.46,3.59,3.59,0,0,0-2-.69,6.06,6.06,0,0,0-2.61.86A.29.29,0,0,1,6.35,16.89Z"/><path class="cls-7" d="M28.14,18.72s-2.38.63-2.55,1.92.84,1.07,1.1.63-.21-.69-.21-.74A3.89,3.89,0,0,1,28.14,18.72Z"/><path class="cls-7" d="M1.6,18.72s2.38.63,2.55,1.92-.84,1.07-1.1.63.21-.69.21-.74A3.89,3.89,0,0,0,1.6,18.72Z"/><ellipse class="cls-13" cx="21.03" cy="21.84" rx="2.26" ry="0.91"/><ellipse class="cls-13" cx="8.71" cy="21.84" rx="2.26" ry="0.91"/><circle class="cls-14" cx="9.13" cy="18.86" r="1.35"/><circle class="cls-14" cx="20.5" cy="18.86" r="1.35"/><circle class="cls-8" cx="9.66" cy="18.38" r="0.48"/><path class="cls-8" d="M19.62,18a.5.5,0,0,0,.7.7A.5.5,0,0,0,19.62,18Z"/></g></g></svg>