<svg xmlns="http://www.w3.org/2000/svg" xmlns:xlink="http://www.w3.org/1999/xlink" viewBox="0 0 36.87 72.58"><defs><style>.cls-1{fill:#e0e0e0;}.cls-2{clip-path:url(#clip-path);}.cls-3{fill:#ecb298;}.cls-4{clip-path:url(#clip-path-2);}.cls-5{fill:#4a362e;}.cls-6{fill:#320e91;}.cls-7{fill:#f2b6aa;}.cls-8{fill:#e0806e;}.cls-9{fill:#f2f7f4;}.cls-10{fill:#d8a082;}.cls-11{fill:#d06d5a;}.cls-12{fill:#57453f;}.cls-13{opacity:0.2;}.cls-14{fill:#383d46;}.cls-15{fill:#ffe3de;}.cls-16{fill:#5159fd;}.cls-17{fill:#ffa433;}.cls-18{fill:#f4f4f5;}.cls-19{fill:#f75e1a;}.cls-20{fill:#ba4622;}.cls-21{fill:#a3351a;}</style><clipPath id="clip-path"><path class="cls-1" d="M17.41,68.25a2.11,2.11,0,0,0-.35,2.25,2.94,2.94,0,0,0,2.64,2c2,0,3.12-.72,2-1.93S20,68.39,18.89,67.72,17.86,67.82,17.41,68.25Z"/></clipPath><clipPath id="clip-path-2"><path class="cls-1" d="M14,68a2.11,2.11,0,0,1,.35,2.25,2.94,2.94,0,0,1-2.64,2c-2,0-3.12-.72-2-1.93s1.68-2.18,2.78-2.85S13.57,67.61,14,68Z"/></clipPath></defs><title>alcaldesa</title><g id="Capa_2" data-name="Capa 2"><g id="Capa_10" data-name="Capa 10"><path class="cls-1" d="M17.41,68.25a2.11,2.11,0,0,0-.35,2.25,2.94,2.94,0,0,0,2.64,2c2,0,3.12-.72,2-1.93S20,68.39,18.89,67.72,17.86,67.82,17.41,68.25Z"/><g class="cls-2"><path class="cls-1" d="M21.68,69.64l.47.9a1.14,1.14,0,0,1-.21,1.34l-.08.08a2.1,2.1,0,0,1-1.51.6H19a2,2,0,0,1-1.68-.75l-.1-.14a1.12,1.12,0,0,1,0-1.28l.71-1.14a1.89,1.89,0,0,1,1.47-.71h1.13C21,68.57,21.47,69.24,21.68,69.64Z"/><path class="cls-1" d="M21.08,68.44s1.84,3,.19,3.15-2.67.29-3.37-.4-1.18-1.23-1.2-1.74-.11-2.14,1.34-2S20.52,67.42,21.08,68.44Z"/></g><ellipse class="cls-3" cx="18.68" cy="68.86" rx="1.06" ry="1.39" transform="translate(-39.41 27.43) rotate(-39.32)"/><path class="cls-1" d="M14,68a2.11,2.11,0,0,1,.35,2.25,2.94,2.94,0,0,1-2.64,2c-2,0-3.12-.72-2-1.93s1.68-2.18,2.78-2.85S13.57,67.61,14,68Z"/><g class="cls-4"><path class="cls-1" d="M9.75,69.43l-.47.9a1.14,1.14,0,0,0,.21,1.34l.08.08a2.1,2.1,0,0,0,1.51.6h1.36a2,2,0,0,0,1.68-.75l.1-.14a1.12,1.12,0,0,0,0-1.28l-.71-1.14a1.89,1.89,0,0,0-1.47-.71H11C10.39,68.36,10,69,9.75,69.43Z"/><path class="cls-1" d="M10.36,68.23s-1.84,3-.19,3.15,2.67.29,3.37-.4,1.18-1.23,1.2-1.74.11-2.14-1.34-2S10.92,67.21,10.36,68.23Z"/></g><path class="cls-3" d="M12,53.71c-.08.49.15,14.88.15,14.88l1.65,0,.37-15.24S12.48,51.17,12,53.71Z"/><path class="cls-3" d="M17.15,53.32c-.09.49.36,14.88.36,14.88h1.94L19.69,53S17.63,50.77,17.15,53.32Z"/><path class="cls-5" d="M3.52,19.45A28.89,28.89,0,0,0,3.85,32a4.87,4.87,0,0,0,.78,1.86,6.7,6.7,0,0,0,4.14,2.5c4.86.28,10.11.64,15,.42,2-.09,3.69-1.73,4.88-3.3a6.73,6.73,0,0,0,1-3c.47-2.88.82-5.95-.32-8.64a12.17,12.17,0,0,0-5.1-5.37A17.9,17.9,0,0,0,12.9,13.76a13,13,0,0,0-9.67,6.11"/><path class="cls-6" d="M23.28,60c0-2,.76-19-.48-19H9.73c-1.24,0-1.85,13.7-1.85,15.66v1.88c0,1,.08,2.43.09,2.53.09,2.86,3.05,2.25,7.83,2.25s7.45.94,7.45-2V60.19a2,2,0,0,0,0-.21Z"/><path class="cls-1" d="M26.13,55.57l-8.41,1.57-1.47-1.95-1.34,1.95L6.44,55.57,6.86,50V39.72s3-2.91,6.85-2.91h5c3.81,0,7,2.91,7,2.91V50Z"/><path class="cls-1" d="M18.93,36.93l-2.7,3.77-2.33-3.77a3.8,3.8,0,0,1,2.52-1.55A3.8,3.8,0,0,1,18.93,36.93Z"/><path class="cls-7" d="M34.25,43a1,1,0,0,1-.74,1.23l-6,1.51a1,1,0,0,1-1.06-.38l-2.37-3.17A1,1,0,1,1,25.71,41l2,2.63L33,42.3A1,1,0,0,1,34.25,43Z"/><path class="cls-1" d="M26.2,46s1.26.33,1.13-1.53c-.08-1.07.4-1.06.4-1.06l-2-3.09a1.48,1.48,0,0,0-2.05-.45l-.17.11A1.48,1.48,0,0,0,23,42Z"/><path class="cls-7" d="M35.09,44.29a2.82,2.82,0,0,0,1.34-.53,1.8,1.8,0,0,0-.08-2.45c-.7-.47-.86.51-1.54.26-.49-.18.71-.15.54-.83-.08-.34-1.08-.49-1.71.4-.53.74-1,.54-.9,1.76C32.85,44.34,33.51,44.66,35.09,44.29Z"/><path class="cls-8" d="M19.09,38.26c0,1.5-1.26,4.59-2.86,4.59s-3.47-2.72-3.47-4.22,1.82-3.09,3.43-3.09A2.82,2.82,0,0,1,19.09,38.26Z"/><path class="cls-6" d="M13.71,36.81c0-.39-1.79-.15-1.79,4.63l-.28,20.72s8.58-.14,8.72,0,.28-9.85.28-9.85S22,36.81,18.75,36.81c0,0,.39,5.38-2.42,5.38C16.32,42.19,13.14,42.85,13.71,36.81Z"/><path class="cls-9" d="M13,36.85s-3,3.66-3.47,6.09l1.78,2.53S9.76,47.07,10,47.25s1.69,9.28,1.69,9.28Z"/><path class="cls-9" d="M19.23,36.75s3.38,3.75,3.84,6.19l-1.78,2.53s1.59,1.59,1.31,1.78-2,9.28-2,9.28Z"/><path class="cls-10" d="M29.46,24.29s2.38-2.82,4.14-1.69S32.31,31.17,28,30.08C24.95,29.3,29.46,24.29,29.46,24.29Z"/><path class="cls-8" d="M32.17,24.9s-2.81.41-3.16,1.88.82,1.33,1.18.86-.16-.82-.15-.88A4.48,4.48,0,0,1,32.17,24.9Z"/><path class="cls-10" d="M4.55,21.51S2.85,18.24.88,19s-.63,8.64,3.8,8.52C7.84,27.4,4.55,21.51,4.55,21.51Z"/><path class="cls-8" d="M1.77,21.51s2.65,1,2.67,2.53-1.1,1.12-1.34.57.33-.76.34-.82A4.48,4.48,0,0,0,1.77,21.51Z"/><path class="cls-7" d="M29.45,22.41c-.56,5-6.2,8.58-13.5,7.77S4.42,25.53,5,20.53,11.74,7.15,19,8,30,17.4,29.45,22.41Z"/><path class="cls-3" d="M28.81,26.79C28,34.3,22.71,37.58,16.14,36.85S4.82,31.69,5,24.13c.36-15.79,6.71-16.59,13.3-16C31.51,9.37,29.65,19.28,28.81,26.79Z"/><path class="cls-8" d="M16.25,29.62l.07,0L18,28.66a.27.27,0,0,0-.1-.51L15,27.83a.27.27,0,0,0-.21.47l1.42,1.28Z"/><path class="cls-11" d="M16.05,33c3.11.19,4.5-.89,4.56-.94a.36.36,0,1,0-.45-.56,6.36,6.36,0,0,1-4.05.78l-.3,0A6.36,6.36,0,0,1,12,30.56a.36.36,0,0,0-.56.45c0,.06,1.17,1.42,4.24,1.92Z"/><path class="cls-5" d="M28.87,20.91a21.93,21.93,0,0,0,.76,3.48l1.06-1,.93-.75S31.8-.19,10.15,6C4.7,5.81,2.9,19.4,2.9,19.4l.66.94,2.07,4.51S15.2,21.19,19.89,16c0,0,.28-5.44,2.72-3.56C22.61,12.47,28.57,9.57,28.87,20.91Z"/><path class="cls-5" d="M5.6,24.93,3.5,20.37l-.67-1v0C2.9,18.83,4.67,5.94,10,5.94h.12C16.5,4.12,21.59,4.63,25.3,7.44,28.64,10,30.2,14,30.92,16.87a25.93,25.93,0,0,1,.77,5.74v0l0,0-.93.75-1.15,1.11,0-.13c-.08-.43-.21-.87-.33-1.29a9,9,0,0,1-.43-2.2h0c-.12-4.38-1.08-7.15-2.85-8.23a3.71,3.71,0,0,0-3.31-.15l0,0,0,0a1.21,1.21,0,0,0-1.24-.3C20.14,12.76,20,16,20,16v0l0,0c-4.65,5.11-14.18,8.8-14.28,8.83ZM3,19.38l.65.92,2.05,4.46c.83-.32,9.71-3.89,14.15-8.75,0-.33.23-3.35,1.44-3.91a1.31,1.31,0,0,1,1.35.29,3.86,3.86,0,0,1,3.4.18c1.82,1.11,2.8,3.91,2.92,8.34h0a8.88,8.88,0,0,0,.43,2.17c.11.38.22.78.3,1.17l1-.94.91-.73a26,26,0,0,0-.76-5.68c-.71-2.88-2.26-6.83-5.57-9.35-3.67-2.79-8.73-3.28-15-1.47H10c-1.53,0-3.68,1.17-5.49,6.57A41.52,41.52,0,0,0,3,19.38Z"/><path class="cls-12" d="M27,22.19a.34.34,0,0,0,.25-.61A7.55,7.55,0,0,0,24,20.13a4.75,4.75,0,0,0-2.87.63.34.34,0,1,0,.37.57,4.14,4.14,0,0,1,2.43-.52,7,7,0,0,1,2.88,1.31A.33.33,0,0,0,27,22.19Z"/><path class="cls-12" d="M7.44,20a.34.34,0,0,1-.11-.65,7.56,7.56,0,0,1,3.46-.71,4.75,4.75,0,0,1,2.66,1.25.34.34,0,1,1-.49.48,4.14,4.14,0,0,0-2.25-1,7,7,0,0,0-3.1.65A.33.33,0,0,1,7.44,20Z"/><g class="cls-13"><ellipse class="cls-8" cx="23.62" cy="27.56" rx="1.05" ry="2.61" transform="matrix(0.11, -0.99, 0.99, 0.11, -6.39, 47.98)"/></g><g class="cls-13"><ellipse class="cls-8" cx="9.53" cy="25.99" rx="1.05" ry="2.61" transform="translate(-17.36 32.57) rotate(-83.64)"/></g><path class="cls-14" d="M22,24.68a.21.21,0,0,1-.07-.4,4.69,4.69,0,0,1,2.15-.44,3,3,0,0,1,1.65.77.21.21,0,0,1-.3.3,2.56,2.56,0,0,0-1.4-.65,4.33,4.33,0,0,0-1.92.4A.21.21,0,0,1,22,24.68Z"/><path class="cls-14" d="M21.95,25A.56.56,0,0,1,21.77,24a5,5,0,0,1,2.34-.47,3.3,3.3,0,0,1,1.86.87.56.56,0,1,1-.8.79A2.23,2.23,0,0,0,24,24.61a4,4,0,0,0-1.73.37A.55.55,0,0,1,21.95,25Z"/><path class="cls-14" d="M8.67,23.19a.21.21,0,0,1-.07-.4,4.69,4.69,0,0,1,2.15-.44,3,3,0,0,1,1.65.77.21.21,0,0,1-.3.3,2.56,2.56,0,0,0-1.4-.65,4.33,4.33,0,0,0-1.92.4A.21.21,0,0,1,8.67,23.19Z"/><path class="cls-14" d="M8.63,23.54a.56.56,0,0,1-.18-1.07A5,5,0,0,1,10.78,22a3.3,3.3,0,0,1,1.86.87.56.56,0,1,1-.8.79,2.23,2.23,0,0,0-1.19-.55,4,4,0,0,0-1.73.37A.55.55,0,0,1,8.63,23.54Z"/><circle class="cls-15" cx="13.61" cy="37.69" r="0.7"/><circle class="cls-15" cx="13.89" cy="38.82" r="0.7"/><circle class="cls-15" cx="14.64" cy="39.76" r="0.7"/><circle class="cls-15" cx="16.04" cy="40.13" r="0.7"/><circle class="cls-15" cx="17.45" cy="39.75" r="0.7"/><circle class="cls-15" cx="18.48" cy="39" r="0.7"/><circle class="cls-15" cx="18.95" cy="38.06" r="0.7"/><polygon class="cls-1" points="26.73 42.91 32.17 42.11 32.97 45.16 26.2 45.96 26.73 42.91"/><path class="cls-16" d="M6.78,51.45S20.23,36.89,22.2,37.27a10.24,10.24,0,0,1,1.88,1.05L6.41,54.71Z"/><path class="cls-7" d="M8.53,51.88a1,1,0,0,1-1.42-.19L3.37,46.76a1,1,0,0,1-.07-1.12l2-3.43a1,1,0,1,1,1.75,1L5.39,46.07l3.33,4.38A1,1,0,0,1,8.53,51.88Z"/><path class="cls-7" d="M7.71,53.14a2.82,2.82,0,0,0,1,1,1.8,1.8,0,0,0,2.22-1c.16-.82-.81-.58-.85-1.32,0-.53.42.59,1,.17.28-.21,0-1.18-1-1.41-.89-.19-.89-.71-2-.14C6.78,51.1,6.74,51.83,7.71,53.14Z"/><path class="cls-1" d="M6.29,51.38l2.34-2.06L5,45.1s-3.19.09-1.78,2.16Z"/><path class="cls-1" d="M3.2,44.25s-1.69,3.19.94,2.53a5.13,5.13,0,0,0,2.53-2.06l2.16-4c.46-.68.5-.94-.17-1.4l-.17-.11a1.49,1.49,0,0,0-2.06.39Z"/><polygon class="cls-17" points="18.45 40.22 17.69 40.12 17.87 40.86 17.36 41.29 17.94 41.79 17.82 42.52 18.56 42.45 19 43.04 19.45 42.47 20.22 42.52 20.11 41.8 20.64 41.29 20.05 40.91 20.29 40.15 19.55 40.23 18.97 39.59 18.45 40.22"/><circle class="cls-18" cx="19" cy="41.29" r="1.01"/><path class="cls-19" d="M17.25,1.09a14,14,0,0,0-14,14.11v3.24l28.09-.13V15.07A14,14,0,0,0,17.25,1.09Z"/><path class="cls-20" d="M31.92,18.31l-21.07.1a.54.54,0,0,1-.54-.54v-2.7a18.92,18.92,0,0,1,1.27-7,.34.34,0,0,1,.65.07l1.17,6.59a1.08,1.08,0,0,0,1.07.89l5.74,0a1.08,1.08,0,0,0,1.06-.9L23.32,2.43a14,14,0,0,0-11.86-.06h0l-.26.13A14,14,0,0,0,3.27,15.2v3.24H2.75a.54.54,0,0,0-.54.54v.69a.54.54,0,0,0,.37.51,49.15,49.15,0,0,0,14.77,2A49.15,49.15,0,0,0,32.1,20.05a.54.54,0,0,0,.37-.52v-.69A.54.54,0,0,0,31.92,18.31Z"/><path class="cls-19" d="M18.44,15.67H16.2a1.08,1.08,0,0,1-1.08-1l-.53-13.5A1.08,1.08,0,0,1,15.67,0h3.17a1.08,1.08,0,0,1,1.08,1.11l-.4,13.51A1.08,1.08,0,0,1,18.44,15.67Z"/><path class="cls-19" d="M32.09,19a67.62,67.62,0,0,1-14.75,1.52A67.62,67.62,0,0,1,2.58,19.15a.46.46,0,0,1-.35-.27.52.52,0,0,0,0,.11v.69a.54.54,0,0,0,.37.51,49.15,49.15,0,0,0,14.77,2A49.15,49.15,0,0,0,32.1,20.05a.54.54,0,0,0,.37-.52v-.69a.52.52,0,0,0,0-.11A.46.46,0,0,1,32.09,19Z"/><path class="cls-21" d="M16.57,14.63l-.39-13.5c0-.61.33-1.12.76-1.12H15.67a1.08,1.08,0,0,0-1.07,1.12l.53,13.5a1.08,1.08,0,0,0,1.08,1h1.13C16.92,15.68,16.58,15.22,16.57,14.63Z"/><ellipse class="cls-3" cx="12.66" cy="68.88" rx="1.39" ry="1.06" transform="translate(-48.64 35.02) rotate(-50.68)"/></g></g></svg>