<svg xmlns="http://www.w3.org/2000/svg" viewBox="0 0 64.95 103"><defs><style>.cls-1{fill:#4a362e;}.cls-2{fill:#2e60e8;}.cls-3{fill:#d8d9dd;}.cls-4{fill:#b8764a;}.cls-10,.cls-5{fill:#fff;}.cls-6{fill:#efb49a;}.cls-7{fill:#fc8080;}.cls-8{fill:#ffa485;}.cls-9{fill:#ff2463;opacity:0.15;}.cls-10{opacity:0.2;}.cls-11{fill:#39322e;}.cls-12{fill:#f4b8ac;}</style></defs><title>Dayang</title><g id="Capa_2" data-name="Capa 2"><g id="Capa_1-2" data-name="Capa 1"><rect class="cls-1" x="3.72" y="18.44" width="56.8" height="58.8" rx="15.21" ry="15.21"/><path class="cls-2" d="M51.42,96.82l-16.13,3L32.47,96.1,29.9,99.83l-16.27-3,.81-10.72V66.41a20.16,20.16,0,0,1,2.21-1.76,19.81,19.81,0,0,1,10.93-3.83h9.67c7.32,0,13.35,5.59,13.35,5.59V86.1Z"/><path class="cls-3" d="M32.12,71,42.49,60.48a13.2,13.2,0,0,0-5.14-1H27.69a13.2,13.2,0,0,0-4.83.91Z"/><path class="cls-4" d="M37.6,61l-4.88,3.87L27.94,61s2.16-3,4.83-3S37.6,61,37.6,61Z"/><polygon class="cls-5" points="43.9 61.33 35.59 68.24 32.73 64.9 39.91 58.29 43.9 61.33"/><polygon class="cls-5" points="21.32 61.33 29.88 68.24 32.74 64.9 26 57.72 21.32 61.33"/><path class="cls-6" d="M55.24,40.13c0,11.45-14.34,18.59-20.37,21.08a6.85,6.85,0,0,1-5.24,0c-6-2.49-20.37-9.63-20.37-21.08,0-14.5,10.29-26.25,23-26.25S55.24,25.63,55.24,40.13Z"/><path class="cls-6" d="M57.95,28.56c0,14.5-10.93,22.08-24.42,22.08S7.83,43.23,7.83,28.74,20,2.32,33.53,2.32,57.95,14.07,57.95,28.56Z"/><path class="cls-7" d="M32.47,45.09,32.35,45l-2.94-2.11a.51.51,0,0,1,.3-.93h5.53a.51.51,0,0,1,.3.93L32.6,45Z"/><path class="cls-6" d="M8.72,32.27s-3.89-5.8-7.45-4.05.62,16.41,9,15.26C16.16,42.66,8.72,32.27,8.72,32.27Z"/><path class="cls-6" d="M56.23,32.27s3.89-5.8,7.45-4.05-.62,16.41-9,15.26C48.79,42.66,56.23,32.27,56.23,32.27Z"/><path class="cls-8" d="M3.48,32.85S8.69,34.21,9.05,37s-1.83,2.33-2.41,1.36.47-1.51.47-1.62A8.5,8.5,0,0,0,3.48,32.85Z"/><path class="cls-8" d="M61.46,32.85c-.09-1.68-4.94-1.21-5.57,4.2-.33,2.84,1.83,2.33,2.41,1.36s-.47-1.51-.47-1.62A8.5,8.5,0,0,1,61.46,32.85Z"/><ellipse class="cls-9" cx="19.03" cy="39.65" rx="4.94" ry="1.99"/><ellipse class="cls-9" cx="45.92" cy="39.65" rx="4.94" ry="1.99"/><path class="cls-10" d="M17,41.09h0s0-.14,0-.2l1.54-1.54c.07-.07.16-.08.2,0h0s0,.14,0,.2l-1.54,1.54C17.12,41.12,17,41.14,17,41.09Z"/><path class="cls-10" d="M18.52,40.82h0a.15.15,0,0,1,0-.2l1.54-1.54a.15.15,0,0,1,.2,0h0a.15.15,0,0,1,0,.2l-1.54,1.54A.15.15,0,0,1,18.52,40.82Z"/><path class="cls-10" d="M20,40.56h0a.15.15,0,0,1,0-.2l1.54-1.54c.07-.07.16-.08.2,0h0a.15.15,0,0,1,0,.2l-1.54,1.54C20.18,40.59,20.09,40.6,20,40.56Z"/><path class="cls-10" d="M43.2,40.49h0a.17.17,0,0,1,0-.24l1.54-1.54a.17.17,0,0,1,.24,0h0A.17.17,0,0,1,45,39l-1.54,1.54A.17.17,0,0,1,43.2,40.49Z"/><path class="cls-10" d="M45,40.49h0a.17.17,0,0,1,0-.24l1.54-1.54a.17.17,0,0,1,.24,0h0a.17.17,0,0,1,0,.24l-1.54,1.54A.17.17,0,0,1,45,40.49Z"/><path class="cls-10" d="M46.8,40.49h0a.17.17,0,0,1,0-.24l1.54-1.54a.17.17,0,0,1,.24,0h0a.17.17,0,0,1,0,.24L47,40.49A.17.17,0,0,1,46.8,40.49Z"/><path class="cls-11" d="M13.86,34a.65.65,0,0,1-.34-1.2,14.33,14.33,0,0,1,6.37-2.06,9,9,0,0,1,5.28,1.79.65.65,0,0,1-.82,1,7.83,7.83,0,0,0-4.47-1.5,13.24,13.24,0,0,0-5.69,1.87A.65.65,0,0,1,13.86,34Z"/><path class="cls-11" d="M39.57,34.44a.72.72,0,0,1-.55-.23.42.42,0,0,1,.21-.66A17.71,17.71,0,0,1,45.6,32a11,11,0,0,1,5.28,1.34A.41.41,0,0,1,51,34a.8.8,0,0,1-.91.07A9.54,9.54,0,0,0,45.6,33a16.34,16.34,0,0,0-5.69,1.4A.82.82,0,0,1,39.57,34.44Z"/><path class="cls-5" d="M24.73,48.87H41s-2.88,5-8.45,5A8.88,8.88,0,0,1,24.73,48.87Z"/><path class="cls-1" d="M9.31,30.73s1.27-25.27,33-20.5l5.2-5.61s-9.24-9.11-27.4-1.77c0,0-18.16,9.62-15.51,25.9C4.34,29.88,8,36.48,9.31,30.73Z"/><path class="cls-1" d="M43.52,10.24s8,1.6,12.09,20.91c0,0,1.62,3.9,4.11-3.31,0,0-2.2-23-12.2-23.4C45.82,4.37,43.52,10.24,43.52,10.24Z"/><path class="cls-2" d="M4.95,78s-2.09,4.9,1,7,7-4,7-4l7.52-9.87a3.66,3.66,0,0,0-1-5.09l-.42-.28a3.66,3.66,0,0,0-5.09,1Z"/><path class="cls-12" d="M17.18,100.22a7,7,0,0,0,2.52,2.53c1.8.86,5.11-.58,5.48-2.55s-2-1.44-2.1-3.25c-.08-1.29,1,1.46,2.4.42.68-.52.06-2.92-2.57-3.49-2.19-.48-2.2-1.74-4.88-.34C14.9,95.18,14.8,97,17.18,100.22Z"/><path class="cls-12" d="M46.36,96a2.5,2.5,0,0,0,3.5-.43l9.4-12a2.5,2.5,0,0,0,.21-2.76l-4.78-8.53a2.5,2.5,0,1,0-4.36,2.44l4,7.08L45.93,92.54A2.5,2.5,0,0,0,46.36,96Z"/><path class="cls-12" d="M48.35,99.2a7,7,0,0,1-2.55,2.5c-1.81.83-5.1-.65-5.45-2.62s2-1.42,2.14-3.22c.09-1.29-1,1.45-2.4.38-.67-.53,0-2.92,2.62-3.45,2.19-.45,2.23-1.71,4.88-.27C50.7,94.19,50.77,96,48.35,99.2Z"/><path class="cls-2" d="M15.52,96.69l3.82-3.78L11.15,79s-8-1.18-5.13,5.89Z"/><path class="cls-2" d="M58.42,77s2.09,4.9-1,7-7-4-7-4l-7.52-9.87a3.66,3.66,0,0,1,1-5.09l.42-.28a3.66,3.66,0,0,1,5.09,1Z"/><path class="cls-2" d="M49.65,95.62l-3.73-3.87L54.42,78s8-1,5,6Z"/></g></g></svg>