<svg xmlns="http://www.w3.org/2000/svg" xmlns:xlink="http://www.w3.org/1999/xlink" viewBox="0 0 30.29 59.42"><defs><style>.cls-1{fill:#e9e9e9;}.cls-2{fill:#1c1c1e;}.cls-3{clip-path:url(#clip-path);}.cls-4{clip-path:url(#clip-path-2);}.cls-5{fill:#363d66;}.cls-14,.cls-6{fill:#e0806e;}.cls-7{fill:#f2b6aa;}.cls-8{fill:#80cccc;}.cls-9{fill:#a1d7d8;}.cls-10{fill:none;stroke:#80cccc;stroke-miterlimit:10;stroke-width:0.08px;}.cls-11{fill:#232b4f;}.cls-12{fill:#d06d5a;}.cls-13{fill:#1e1c1c;}.cls-14{opacity:0.2;}.cls-15{fill:#383d46;}.cls-16{fill:#fff;}</style><clipPath id="clip-path"><path class="cls-1" d="M17.63,55.21a1.15,1.15,0,0,0-.54,1.6c.49,1.15,1.08,2.23,2,2.23,1.74,0,2.4,0,2.19-1.43s-1.48-1.88-2.44-2.47S18,54.84,17.63,55.21Z"/></clipPath><clipPath id="clip-path-2"><path class="cls-1" d="M12.93,55.21a1.15,1.15,0,0,1,.54,1.6C13,58,12.39,59,11.45,59c-1.74,0-2.4,0-2.19-1.43s1.48-1.88,2.44-2.47S12.53,54.84,12.93,55.21Z"/></clipPath></defs><title>pep14</title><g id="Capa_2" data-name="Capa 2"><g id="personals"><path class="cls-2" d="M23.11,47.77c0-1.08-.88-4.19-2-4.19H9.65c-1.09,0-2,3.11-2,4.19h0a1.2,1.2,0,0,0,0,.18c.08,1.59,3.5,2.86,7.7,2.86s7.71-1.31,7.71-2.92h0a.72.72,0,0,0,0-.12Z"/><path class="cls-1" d="M17.63,55.21a1.15,1.15,0,0,0-.54,1.6c.49,1.15,1.08,2.23,2,2.23,1.74,0,2.4,0,2.19-1.43s-1.48-1.88-2.44-2.47S18,54.84,17.63,55.21Z"/><g class="cls-3"><path class="cls-1" d="M21.31,56.83l.41.79a1,1,0,0,1-.19,1.18l-.07.07a1.85,1.85,0,0,1-1.33.53h-1.2a1.79,1.79,0,0,1-1.48-.66l-.09-.12a1,1,0,0,1,0-1.12l.62-1a1.67,1.67,0,0,1,1.29-.62h1C20.75,55.89,21.12,56.48,21.31,56.83Z"/><path class="cls-1" d="M20.78,55.78s1.62,2.63.16,2.77-2.35.26-3-.35-1-1.08-1.06-1.53-.09-1.88,1.18-1.76S20.28,54.89,20.78,55.78Z"/></g><path class="cls-2" d="M19.65,56.86h0c2.06,0,3.43-2.16,3.43-2.16a2.18,2.18,0,0,0,.29-1.61l-1.7-4L15.57,49l3.71,4.07a1.11,1.11,0,0,1-.12,1.32l-1.39.27A1,1,0,0,0,17.61,56,2.47,2.47,0,0,0,19.65,56.86Z"/><path class="cls-1" d="M12.93,55.21a1.15,1.15,0,0,1,.54,1.6C13,58,12.39,59,11.45,59c-1.74,0-2.4,0-2.19-1.43s1.48-1.88,2.44-2.47S12.53,54.84,12.93,55.21Z"/><g class="cls-4"><path class="cls-1" d="M9.24,56.83l-.41.79A1,1,0,0,0,9,58.81l.07.07a1.85,1.85,0,0,0,1.33.53h1.2a1.79,1.79,0,0,0,1.47-.66l.09-.12a1,1,0,0,0,0-1.12l-.62-1a1.66,1.66,0,0,0-1.29-.62h-1C9.81,55.89,9.43,56.48,9.24,56.83Z"/><path class="cls-1" d="M9.78,55.78s-1.62,2.63-.16,2.77,2.35.26,3-.35,1-1.08,1.06-1.53.09-1.88-1.18-1.76S10.27,54.89,9.78,55.78Z"/></g><path class="cls-2" d="M10.9,56.86h0c-2.06,0-3.43-2.16-3.43-2.16a2.18,2.18,0,0,1-.29-1.61l1.7-4L15,49l-3.71,4.07a1.11,1.11,0,0,0,.12,1.32l1.39.27A1,1,0,0,1,12.94,56,2.47,2.47,0,0,1,10.9,56.86Z"/><path class="cls-5" d="M24.22,47.59,16.83,49l-1.29-1.71L14.36,49,6.9,47.59l.37-4.91v-9a9.84,9.84,0,0,1,6-2.56h4.43a10.24,10.24,0,0,1,6.12,2.56v9Z"/><path class="cls-6" d="M17.89,31.2l-2.38,3.31L13.46,31.2a3.34,3.34,0,0,1,2.21-1.36A3.34,3.34,0,0,1,17.89,31.2Z"/><path class="cls-7" d="M9,44.28a.89.89,0,0,1-1.25-.17L4.46,39.79a.89.89,0,0,1-.06-1l1.75-3a.89.89,0,0,1,1.54.89L6.23,39.18,9.17,43A.89.89,0,0,1,9,44.28Z"/><ellipse class="cls-8" cx="18.66" cy="40.85" rx="0.53" ry="0.04" transform="translate(-18.13 15.08) rotate(-30.44)"/><path class="cls-9" d="M21.6,43.55l0,0-.09-.15s0-.07,0-.14l-.83-1.41-.21-.41A.89.89,0,0,0,19.34,41l-.23-.39h0l-.44.28a5,5,0,0,1-.47.24h0l.22.38a.87.87,0,0,0-.18,1.07l.16.3.94,1.59a.12.12,0,0,0,.12.07l.1.16,0,0s0,.07,0,.13L21,47.25a.26.26,0,0,0,.36.09l1.68-1a.26.26,0,0,0,.09-.36l-1.41-2.39C21.68,43.55,21.64,43.54,21.6,43.55Z"/><path class="cls-8" d="M18.51,43l.09.15,2.12-1.25-.07-.12v0Z"/><rect class="cls-8" x="18.62" y="42.79" width="2.46" height="0.17" transform="translate(-18.99 15.96) rotate(-30.44)"/><rect class="cls-8" x="18.85" y="43.19" width="2.46" height="0.17" transform="translate(-19.16 16.14) rotate(-30.44)"/><path class="cls-8" d="M21.37,47a.09.09,0,0,1,0,.13l-.09.05a.09.09,0,0,1-.13,0l-1.29-2.19a.09.09,0,0,1,0-.13l.09-.05a.09.09,0,0,1,.13,0Z"/><path class="cls-8" d="M22,46.72a.12.12,0,0,1-.06.15l-.13.07a.12.12,0,0,1-.16,0l-1.35-2.3a.12.12,0,0,1,.06-.15l.13-.08a.12.12,0,0,1,.16,0Z"/><path class="cls-8" d="M22.52,46.41a.12.12,0,0,1-.06.15l-.13.08a.12.12,0,0,1-.16,0l-1.35-2.3a.12.12,0,0,1,.06-.15l.13-.07a.12.12,0,0,1,.16,0Z"/><path class="cls-8" d="M22.95,46.06a.09.09,0,0,1,0,.13l-.09.05a.09.09,0,0,1-.13,0L21.41,44a.09.09,0,0,1,0-.13l.09-.05a.09.09,0,0,1,.13,0Z"/><path class="cls-8" d="M21.45,43.53a.09.09,0,0,1,0,.13l-1.65,1a.09.09,0,0,1-.13,0l0,0a.09.09,0,0,1,0-.13l1.65-1a.09.09,0,0,1,.13,0Z"/><path class="cls-10" d="M19.19,40.72a1.91,1.91,0,0,1-.43.3,1.91,1.91,0,0,1-.47.23"/><path class="cls-10" d="M19.27,40.86a1.92,1.92,0,0,1-.43.3,1.91,1.91,0,0,1-.47.23"/><path class="cls-11" d="M4.66,36.27s.05.68,1.15,1.43a3.14,3.14,0,0,0,1.92.66L9.44,35a1.31,1.31,0,0,0-.34-1.81l-.15-.1a1.31,1.31,0,0,0-1.81.35Z"/><path class="cls-7" d="M8.27,45.4a2.48,2.48,0,0,0,.9.9,1.58,1.58,0,0,0,2-.91c.14-.72-.71-.51-.75-1.16,0-.46.37.52.85.15.24-.18,0-1-.92-1.24-.78-.17-.78-.62-1.74-.12C7.46,43.6,7.42,44.25,8.27,45.4Z"/><path class="cls-7" d="M21.78,44.28A.89.89,0,0,0,23,44.11l3.29-4.33a.89.89,0,0,0,.06-1l-1.75-3a.89.89,0,0,0-1.54.89l1.45,2.51L21.61,43A.89.89,0,0,0,21.78,44.28Z"/><path class="cls-11" d="M26.11,36.27S26.06,37,25,37.7a3.14,3.14,0,0,1-1.92.66L21.33,35a1.31,1.31,0,0,1,.35-1.81l.15-.1a1.3,1.3,0,0,1,1.81.35Z"/><path class="cls-7" d="M22.51,45.4a2.49,2.49,0,0,1-.9.9,1.58,1.58,0,0,1-2-.91c-.14-.72.71-.51.75-1.16,0-.46-.37.52-.85.15-.24-.18,0-1,.92-1.24.78-.17.78-.62,1.74-.12C23.32,43.6,23.35,44.25,22.51,45.4Z"/><ellipse class="cls-7" cx="14.93" cy="17.03" rx="11.76" ry="8.05"/><path class="cls-7" d="M25.9,20.85C25.9,27.53,21.16,31,15.31,31S4.71,27.53,4.71,20.85,9.46,8.76,15.31,8.76,25.9,14.17,25.9,20.85Z"/><path class="cls-6" d="M15.15,24.57l.06,0,1.37-1a.24.24,0,0,0-.14-.43H13.86a.24.24,0,0,0-.14.43l1.37,1Z"/><path class="cls-12" d="M15.29,27.53a6.07,6.07,0,0,0,3.92-1.27.32.32,0,1,0-.45-.45,5.62,5.62,0,0,1-3.48,1.08H15a5.61,5.61,0,0,1-3.48-1.08.32.32,0,1,0-.45.45A6.07,6.07,0,0,0,15,27.53Z"/><path class="cls-7" d="M26.22,18.59S28,15.88,29.7,16.7s-.29,7.65-4.18,7.12C22.75,23.44,26.22,18.59,26.22,18.59Z"/><path class="cls-7" d="M4.07,18.59S2.25,15.88.59,16.7s.29,7.65,4.18,7.12C7.54,23.44,4.07,18.59,4.07,18.59Z"/><path class="cls-13" d="M29.08,11.37A3.23,3.23,0,0,0,27.3,7.21a2,2,0,0,0-1.76-1.9h-.24A3.23,3.23,0,0,0,22.85,3a2.35,2.35,0,0,0-2.61-1.45A2.89,2.89,0,0,0,18.11.25c-1-.11-1.39.33-2,1.08A3.22,3.22,0,0,0,13.89,0a2.89,2.89,0,0,0-2.26,1.09A2.35,2.35,0,0,0,8.87,2.25a3.23,3.23,0,0,0-2.68,2l-.24,0a2,2,0,0,0-2,1.7,3.22,3.22,0,0,0-2.21,4,2.11,2.11,0,0,0,.4,4,1.78,1.78,0,0,0,.24,3l.67.75.83,1,.64-2.06c.33-1.08,1.56-4.43,2.64-4.11,11.33,3.39,14.64-.25,16.37-.25,1.05,0,2.51,5.42,2.82,6.42l.83-1,0-.34A1.78,1.78,0,0,0,29.13,15a2.11,2.11,0,0,0,0-3.63Z"/><path class="cls-13" d="M23.83,17a.3.3,0,0,0,.16-.56,6.69,6.69,0,0,0-3-1,4.2,4.2,0,0,0-2.46.83.3.3,0,1,0,.38.47,3.65,3.65,0,0,1,2.08-.7,6.17,6.17,0,0,1,2.66.87A.3.3,0,0,0,23.83,17Z"/><path class="cls-13" d="M6.46,17a.3.3,0,0,1-.16-.56,6.68,6.68,0,0,1,3-1,4.2,4.2,0,0,1,2.46.83.3.3,0,1,1-.38.47,3.65,3.65,0,0,0-2.08-.7,6.16,6.16,0,0,0-2.66.87A.3.3,0,0,1,6.46,17Z"/><path class="cls-6" d="M28.67,18.86s-2.43.64-2.6,2,.85,1.09,1.12.64-.22-.7-.22-.75A4,4,0,0,1,28.67,18.86Z"/><path class="cls-6" d="M1.63,18.86s2.43.64,2.6,2-.85,1.09-1.12.64.22-.7.22-.75A4,4,0,0,0,1.63,18.86Z"/><ellipse class="cls-14" cx="21.41" cy="22.03" rx="2.31" ry="0.93"/><ellipse class="cls-14" cx="8.88" cy="22.03" rx="2.31" ry="0.93"/><circle class="cls-15" cx="9.3" cy="19" r="1.37"/><circle class="cls-15" cx="20.88" cy="19" r="1.37"/><circle class="cls-16" cx="9.84" cy="18.51" r="0.49"/><path class="cls-16" d="M20,18.16a.51.51,0,0,0,.71.71A.51.51,0,0,0,20,18.16Z"/></g></g></svg>