<svg xmlns="http://www.w3.org/2000/svg" viewBox="0 0 31.95 66.61"><defs><style>.cls-1{fill:#56bee9;}.cls-2{fill:#b2b2b2;}.cls-3{fill:#f6c9a6;}.cls-4{fill:#1e1c1c;}.cls-5{fill:#040404;}.cls-6{fill:#2d3556;}.cls-7{fill:#363d66;}.cls-8{fill:#d1d1d1;}.cls-9{fill:#d79676;}.cls-10{fill:#fff;}.cls-11{fill:#582804;}.cls-12{fill:#b47e5e;opacity:0.43;}.cls-13{fill:#d06d5a;}.cls-14{fill:#383d46;}.cls-15{fill:#c40321;}.cls-16{fill:#924700;}</style></defs><title>pep13</title><g id="Capa_2" data-name="Capa 2"><g id="personals"><path class="cls-1" d="M29.43,31.46,28.64,31c-.32-.24-.19.1-.45.4l-2.73,2.65a1.61,1.61,0,0,1-1.39.76l-4.85-.07,0,2.62L24.74,37A2.52,2.52,0,0,0,26,36.55l3.63-4.07A.75.75,0,0,0,29.43,31.46Z"/><path class="cls-2" d="M24.05,37.67c2.65-.57,8.09-5.22,3.88-5.87-1.34-.21-2.79,2.33-2.79,2.33l-5.92.6A1.33,1.33,0,0,0,17.88,36v.18a1.33,1.33,0,0,0,1.32,1.34Z"/><path class="cls-3" d="M28.79,32.26s-1.93-1-1.62-2.06.42-.81.82-.92a1.92,1.92,0,0,0,.92-.74c.29-.34.82-1.1,1.48-.42.38.39.51,1.2,1.27,1.89A1.59,1.59,0,0,1,31,32.37C29.86,33,29.58,33.08,28.79,32.26Z"/><path class="cls-4" d="M16.74,66.59l-2.55-.24A1.25,1.25,0,0,1,13,65h0A1.25,1.25,0,0,1,14.42,64l2.5.62a1.25,1.25,0,0,1,1.16,1.32h0C18,66.55,17.44,66.65,16.74,66.59Z"/><path class="cls-5" d="M18.63,66.36l-2.7,0c-.74,0-1.1-.48-1.09-1.25,0,0,.53-.9,1.28-.89l2.54-.64A1.38,1.38,0,0,1,20,65h0A1.38,1.38,0,0,1,18.63,66.36Z"/><path class="cls-6" d="M12.5,51.21l1.28,13s.1.37.87.28.89-.22.89-.22l2.68-13.4Z"/><path class="cls-7" d="M14.23,51.38l2,13s.1.21.75.25c.87,0,.81-.23.81-.23l2.12-13.76Z"/><path class="cls-7" d="M11.87,44.72h7.87c.75,0,1.52,2.61,1.46,4.19-.06,1.74-2.52,3.75-5.4,3.75s-5.14-1.72-5.14-3.49h0C10.56,48,11.12,44.72,11.87,44.72Z"/><path class="cls-8" d="M21,47.12l.24-1.84-1-6.59a5.9,5.9,0,0,0-2.47-5.05s-1,1.85-.66,0l-2.67-.34c-.06,0-1.73-1.15-1.78-1.12-1.47.68-2.06,2.82-2.06,6.43l.24,8.58Z"/><polygon class="cls-9" points="13.41 32.8 17.74 34.33 17.78 30.27 13.34 30.23 13.41 32.8"/><polygon class="cls-10" points="11.64 32.33 19.62 35.94 19.23 34.47 12.62 30.73 11.64 32.33"/><path class="cls-3" d="M23.35,40.28s-1-2-.06-2.67.84-.4,1.24-.25a2,2,0,0,0,1.2,0c.45-.1,1.34-.39,1.47.57a12.31,12.31,0,0,0-.13,2.32,1.62,1.62,0,0,1-2,1.52C23.77,41.54,23.5,41.43,23.35,40.28Z"/><path class="cls-2" d="M18.66,37.71a1.52,1.52,0,0,0-1.95.49,1.34,1.34,0,0,0,.21,1.94c1.87,1.42,5.24,1.62,6.68.65.28-.19-.12-1.78-.3-2.16C22.89,37.73,18.66,37.71,18.66,37.71Z"/><path class="cls-2" d="M18.6,37.67l-3.82-3a1.36,1.36,0,0,0-1.9.23l-.11.15A1.36,1.36,0,0,0,13,37l3.85,3.11.09,0a1.71,1.71,0,0,0,1.41-.53,2,2,0,0,0,.29-1.94Z"/><path class="cls-3" d="M2.44,16.44c-.55,7,3.85,12.37,7.55,13.89,8.24,3.38,14.29-.64,14.61-3.73.4-3.85,4.31-1.77,1-5.23-1.74-1.83,7.68-11-10.53-13.45C8.91,7.26,3,9.47,2.44,16.44Z"/><path class="cls-11" d="M2.58,25.26c2.29,3.06,5.55,4.42,4.73,3.25-1.84-2.6.73-3,1.6-5.31a6.51,6.51,0,0,0,.38-3.6s-.71-1.26,1.8-1.37,4-6.76,7.28-7.42c2.48-.49,4.37.74,6.38.49s2.13-4.68-.68-5.65-11.63-11-21.28.22C-2.84,12.39,1.64,24,2.58,25.26Z"/><path class="cls-3" d="M11.51,18.53s-.77-3.33-2.72-3.15S6.18,23,10.23,23.91C13.11,24.58,11.51,18.53,11.51,18.53Z"/><path class="cls-12" d="M9,17.88s2.16,1.54,1.83,2.89-1.26.74-1.35.2.48-.61.5-.65A4.13,4.13,0,0,0,9,17.88Z"/><path class="cls-11" d="M.63,11.3c-.48,6.06,5.9,1.47,13.09.26,14.51-2.45,9.9,2.69,12.92,2.58a1.66,1.66,0,0,0,1.56-1.3C30,8,26.08.39,15.51,0,8.22-.26,1.1,5.24.63,11.3Z"/><path class="cls-12" d="M24.35,23.27l2.53.2c-.18.4-.94.55-1.54,1.23l-1.18-1A.25.25,0,0,1,24.35,23.27Z"/><path class="cls-13" d="M21.22,29.4c-2-.29-1.18-3-1.08-3.12a.19.19,0,0,1,.32,0s.11.92,1.66,1l.19,0c.1,0,.47-.06.37.25C22.16,29.31,21.22,29.4,21.22,29.4Z"/><path class="cls-11" d="M20.14,16.81a.27.27,0,0,1-.22-.17.34.34,0,0,1,.12-.43,5.61,5.61,0,0,1,2.78-.79,3.57,3.57,0,0,1,2.17,1,.35.35,0,0,1,0,.45.25.25,0,0,1-.39,0,3.1,3.1,0,0,0-1.84-.88,5.18,5.18,0,0,0-2.49.72A.25.25,0,0,1,20.14,16.81Z"/><ellipse class="cls-14" cx="22.8" cy="19.13" rx="1.44" ry="1.08" transform="translate(1.95 40.36) rotate(-85.51)"/><path class="cls-10" d="M23.42,19.6c.12.62-.52,1.05-.77.53S23.16,19.08,23.42,19.6Z"/><path class="cls-11" d="M16.26.16a21.28,21.28,0,0,1,7.89,2.2C27.7,4.3,29.47,1.94,28.93.5S35.71,8.94,27.24,14c-1.47-4.94-7.76-8.88-7.76-8.88Z"/><path class="cls-15" d="M30.49,26a2.08,2.08,0,0,0-1.56.13A2.08,2.08,0,0,0,27.36,26a1.82,1.82,0,0,0-.74,2.71A4.71,4.71,0,0,0,28,30.17a2.49,2.49,0,0,0,1.57.09,3.53,3.53,0,0,0,1.68-1.55A1.82,1.82,0,0,0,30.49,26Z"/><path class="cls-16" d="M28.72,26.34s-.28-1.75,1.15-1.78c0,.23.07.53.07.53s-1.16.12-.93,1.22Z"/></g></g></svg>