<svg xmlns="http://www.w3.org/2000/svg" xmlns:xlink="http://www.w3.org/1999/xlink" viewBox="0 0 30.88 59.69"><defs><style>.cls-1{fill:#e9e9e9;}.cls-2{fill:#0a0a33;}.cls-3{clip-path:url(#clip-path);}.cls-4{clip-path:url(#clip-path-2);}.cls-5{fill:#12634f;}.cls-11,.cls-6{fill:#e0806e;}.cls-7{fill:#f2b6aa;}.cls-8{fill:#004531;}.cls-9{fill:#d06d5a;}.cls-10{fill:#1e1c1c;}.cls-11{opacity:0.2;}</style><clipPath id="clip-path"><path class="cls-1" d="M16.59,55.38A1.18,1.18,0,0,0,16,57c.51,1.18,1.11,2.29,2.07,2.29,1.78,0,2.46,0,2.24-1.47s-1.52-1.93-2.5-2.53S17,55,16.59,55.38Z"/></clipPath><clipPath id="clip-path-2"><path class="cls-1" d="M11.78,55.38A1.18,1.18,0,0,1,12.33,57c-.51,1.18-1.11,2.29-2.07,2.29-1.78,0-2.46,0-2.24-1.47s1.52-1.93,2.5-2.53S11.37,55,11.78,55.38Z"/></clipPath></defs><title>pep15</title><g id="Capa_2" data-name="Capa 2"><g id="personals"><path class="cls-2" d="M22.21,47.75c0-1.11-.91-4.3-2-4.3H8.43c-1.12,0-2,3.18-2,4.3h0a1.24,1.24,0,0,0,0,.18c.08,1.63,3.58,2.93,7.89,2.93s7.89-1.34,7.89-3h0a.74.74,0,0,0,0-.12Z"/><path class="cls-1" d="M16.59,55.38A1.18,1.18,0,0,0,16,57c.51,1.18,1.11,2.29,2.07,2.29,1.78,0,2.46,0,2.24-1.47s-1.52-1.93-2.5-2.53S17,55,16.59,55.38Z"/><g class="cls-3"><path class="cls-1" d="M20.37,57l.42.81a1,1,0,0,1-.19,1.21l-.07.07a1.9,1.9,0,0,1-1.36.54H17.94A1.83,1.83,0,0,1,16.42,59l-.09-.13a1,1,0,0,1,0-1.15l.64-1a1.71,1.71,0,0,1,1.32-.64h1C19.79,56.07,20.18,56.67,20.37,57Z"/><path class="cls-1" d="M19.82,56s1.66,2.7.17,2.84-2.41.26-3-.36-1.06-1.11-1.08-1.57-.1-1.93,1.2-1.81S19.31,55,19.82,56Z"/></g><path class="cls-2" d="M18.67,57.06h0c2.11,0,3.51-2.21,3.51-2.21a2.23,2.23,0,0,0,.3-1.65l-1.74-4.14L14.48,49l3.81,4.17a1.14,1.14,0,0,1-.12,1.35l-1.43.28a1.05,1.05,0,0,0-.16,1.41A2.53,2.53,0,0,0,18.67,57.06Z"/><path class="cls-1" d="M11.78,55.38A1.18,1.18,0,0,1,12.33,57c-.51,1.18-1.11,2.29-2.07,2.29-1.78,0-2.46,0-2.24-1.47s1.52-1.93,2.5-2.53S11.37,55,11.78,55.38Z"/><g class="cls-4"><path class="cls-1" d="M8,57l-.42.81a1,1,0,0,0,.19,1.21l.07.07a1.89,1.89,0,0,0,1.36.54h1.23A1.83,1.83,0,0,0,11.94,59l.09-.13a1,1,0,0,0,0-1.15l-.64-1a1.7,1.7,0,0,0-1.32-.64h-1C8.58,56.07,8.19,56.67,8,57Z"/><path class="cls-1" d="M8.55,56s-1.66,2.7-.17,2.84,2.41.26,3-.36,1.06-1.11,1.08-1.57.1-1.93-1.2-1.81S9.06,55,8.55,56Z"/></g><path class="cls-2" d="M9.7,57.06h0c-2.11,0-3.51-2.21-3.51-2.21a2.23,2.23,0,0,1-.3-1.65l1.74-4.14L13.89,49l-3.81,4.17a1.14,1.14,0,0,0,.12,1.35l1.43.28a1.05,1.05,0,0,1,.16,1.41A2.53,2.53,0,0,1,9.7,57.06Z"/><path class="cls-5" d="M23.35,47.57,15.77,49l-1.32-1.75L13.25,49,5.61,47.57l.38-5V33.29a10.08,10.08,0,0,1,6.17-2.62H16.7A10.49,10.49,0,0,1,23,33.29v9.25Z"/><path class="cls-6" d="M16.86,30.77s-.09,1.37-2.36,1.3a2.1,2.1,0,0,1-2.18-1.3,3.42,3.42,0,0,1,2.27-1.39A3.42,3.42,0,0,1,16.86,30.77Z"/><path class="cls-7" d="M11.16,43.43a.91.91,0,0,1-1.25.32l-4.8-2.83A.91.91,0,0,1,4.68,40l.49-3.54A.91.91,0,0,1,7,36.72l-.41,2.94,4.27,2.52A.91.91,0,0,1,11.16,43.43Z"/><path class="cls-8" d="M4,37.5s.31.63,1.65.91a3.22,3.22,0,0,0,2.08-.12L8,34.48a1.34,1.34,0,0,0-1-1.59l-.18,0a1.34,1.34,0,0,0-1.59,1Z"/><path class="cls-7" d="M10.9,44.76a2.54,2.54,0,0,0,1.2.51,1.62,1.62,0,0,0,1.5-1.62c-.15-.74-.87-.21-1.16-.81-.2-.43.55.35.87-.19.16-.27-.38-1-1.35-.83-.8.14-1-.29-1.69.56S9.65,44,10.9,44.76Z"/><path class="cls-7" d="M16.9,43.25a.91.91,0,0,0,1.22.42l5-2.42a.91.91,0,0,0,.51-.87l-.19-3.57a.91.91,0,0,0-1.82.1l.16,3L17.33,42A.91.91,0,0,0,16.9,43.25Z"/><path class="cls-8" d="M24.58,37.95s-.36.6-1.72.77a3.22,3.22,0,0,1-2.06-.29V34.59a1.34,1.34,0,0,1,1.16-1.49l.18,0a1.34,1.34,0,0,1,1.5,1.16Z"/><path class="cls-7" d="M17,44.6a2.55,2.55,0,0,1-1.24.41,1.62,1.62,0,0,1-1.36-1.74c.21-.73.89-.14,1.22-.71.24-.41-.58.3-.85-.26-.14-.28.46-1,1.41-.71.79.21,1-.2,1.64.7C18.62,43.34,18.35,43.95,17,44.6Z"/><ellipse class="cls-7" cx="15.36" cy="16.21" rx="8.25" ry="12.05" transform="translate(-2.5 29.62) rotate(-83.43)"/><path class="cls-7" d="M26.08,21.38c-.78,6.8-6,9.8-12,9.11S3.73,25.7,4.51,18.9,10.76,7.15,16.71,7.83,26.86,14.58,26.08,21.38Z"/><path class="cls-6" d="M14.7,23.91l.06,0L16.27,23a.24.24,0,0,0-.09-.46l-2.62-.3a.25.25,0,0,0-.19.43l1.28,1.16Z"/><path class="cls-9" d="M14.5,26.94c2.82.18,4.08-.79,4.13-.83a.33.33,0,1,0-.4-.51,5.76,5.76,0,0,1-3.67.69l-.27,0a5.75,5.75,0,0,1-3.42-1.51.33.33,0,1,0-.51.4c0,.05,1.05,1.29,3.84,1.75Z"/><path class="cls-7" d="M26.67,19.12s2.16-2.54,3.76-1.52-1.19,7.75-5.09,6.75C22.57,23.65,26.67,19.12,26.67,19.12Z"/><path class="cls-7" d="M4.12,16.52s-1.53-3-3.31-2.33S.21,22,4.23,21.93C7.08,21.86,4.12,16.52,4.12,16.52Z"/><path class="cls-10" d="M29.1,7.83C26.85.47,13.32-2.78,6.41,2.85,3.18,5.32,2.11,14.24,2.64,14.61l.59.84L4,16.57l.89-2C5.32,13.48,7,10.22,8,10.68c11.13,4.78,14.93,1.46,16.69,1.67,1.07.12,1.91,5.81,2.11,6.86l1.75-1.41S30.5,12.42,29.1,7.83Z"/><path class="cls-10" d="M24.42,17.21a.31.31,0,0,0,.23-.55,6.86,6.86,0,0,0-2.91-1.33,4.31,4.31,0,0,0-2.61.56.31.31,0,1,0,.33.52,3.74,3.74,0,0,1,2.2-.47,6.32,6.32,0,0,1,2.6,1.2A.31.31,0,0,0,24.42,17.21Z"/><path class="cls-10" d="M6.75,15.18a.31.31,0,0,1-.1-.59A6.84,6.84,0,0,1,9.79,14,4.31,4.31,0,0,1,12.2,15.1a.31.31,0,1,1-.44.43,3.74,3.74,0,0,0-2-1,6.31,6.31,0,0,0-2.8.58A.31.31,0,0,1,6.75,15.18Z"/><path class="cls-10" d="M7.64,18.24a.21.21,0,0,1-.17-.14.27.27,0,0,1,.11-.33,4.3,4.3,0,0,1,2.18-.55,2.74,2.74,0,0,1,1.65.88.28.28,0,0,1,0,.35.19.19,0,0,1-.3,0,2.38,2.38,0,0,0-1.4-.74,4,4,0,0,0-1.94.5A.19.19,0,0,1,7.64,18.24Z"/><path class="cls-10" d="M7.58,18.48a.46.46,0,0,1-.35-.29.52.52,0,0,1,.22-.64A4.52,4.52,0,0,1,9.78,17a3,3,0,0,1,1.81,1,.52.52,0,0,1,0,.67.45.45,0,0,1-.41.15.44.44,0,0,1-.27-.15A2.13,2.13,0,0,0,9.67,18a3.75,3.75,0,0,0-1.79.47.44.44,0,0,1-.27.05Zm2.25-1-.11,0a2,2,0,0,0-.37,0,2.16,2.16,0,0,1,.37,0,2.23,2.23,0,0,1,.41.09Z"/><path class="cls-10" d="M22.86,19.65a.21.21,0,0,0,.18-.11A.27.27,0,0,0,23,19.2a4.3,4.3,0,0,0-2.08-.83,2.74,2.74,0,0,0-1.75.65.28.28,0,0,0,0,.35.19.19,0,0,0,.3,0,2.37,2.37,0,0,1,1.48-.55,4,4,0,0,1,1.86.75A.19.19,0,0,0,22.86,19.65Z"/><path class="cls-10" d="M19.2,19.7a.45.45,0,0,1-.3-.2.53.53,0,0,1,.08-.67,3,3,0,0,1,1.92-.72l.36,0a4.94,4.94,0,0,1,1.87.85.52.52,0,0,1,.13.66.46.46,0,0,1-.4.24h-.06a.45.45,0,0,1-.19-.08,4.16,4.16,0,0,0-1.48-.68l-.23,0a2.13,2.13,0,0,0-1.31.48A.44.44,0,0,1,19.2,19.7Zm2-1.06-.29,0a2.11,2.11,0,0,0-.4,0,2.23,2.23,0,0,1,.4,0,2.14,2.14,0,0,1,.36,0Z"/><path class="cls-6" d="M29.12,19.68s-2.55.36-2.87,1.69.74,1.21,1.07.78-.14-.74-.13-.79A4.06,4.06,0,0,1,29.12,19.68Z"/><path class="cls-6" d="M1.6,16.51S4,17.44,4,18.81s-1,1-1.22.52.3-.69.31-.74A4.06,4.06,0,0,0,1.6,16.51Z"/><ellipse class="cls-11" cx="21.37" cy="22.06" rx="0.95" ry="2.36" transform="translate(-2.99 40.77) rotate(-83.43)"/><ellipse class="cls-11" cx="8.61" cy="20.59" rx="0.95" ry="2.36" transform="translate(-12.83 26.79) rotate(-83.43)"/></g></g></svg>