<svg xmlns="http://www.w3.org/2000/svg" viewBox="0 0 27.52 65.72"><defs><style>.cls-1{fill:#373737;}.cls-2{fill:#1e1e21;}.cls-3{fill:#f6c9a6;}.cls-4{fill:#8156b8;}.cls-5{fill:#e3a777;}.cls-6{fill:#a881cf;}.cls-7{fill:#f5c89d;}.cls-8{fill:#1e1c1c;}.cls-9{fill:#d06d5a;}.cls-10{fill:#383d46;}.cls-11{fill:#fff;}</style></defs><title>pep1</title><g id="Capa_2" data-name="Capa 2"><g id="personals"><path class="cls-1" d="M14.15,61.74l-.54,1.07a1.3,1.3,0,0,0-.19.56l0,.41a1,1,0,0,0,.79,1.2l4.54.21c1.51-.71,2.36-1.8,1.83-2s-1.46.16-2.08.09a2.93,2.93,0,0,1-1.8-1l-.34-.79a.77.77,0,0,0-.29-.15C15.61,61.22,14.54,61,14.15,61.74Z"/><path class="cls-1" d="M13.37,63.78l0-.41a1.39,1.39,0,0,1,.08-.33c.58,1.38,2.35,1.57,4.69,1.73,1.54.11,2.17-1.29,1.82-1.68.63-.32,2,.78,0,2.24l-.76-.07a1.53,1.53,0,0,1-1,.23L14.16,65A1,1,0,0,1,13.37,63.78Z"/><path class="cls-2" d="M15.45,62.77h0c1.32-.21,1.59-.55,1.44-1.87l-.7-12.05-5-.87,2.16,13.58C13.62,62.86,14.13,63,15.45,62.77Z"/><path class="cls-3" d="M20.63,45.82l.79-.44c.19-.39-.11-.46-.34-.83L18.5,41.49a6.48,6.48,0,0,1-1.14-2.17l-1-5.21L14,35l1.11,5.49a2.76,2.76,0,0,0,.79,1.2l3.57,3.93A.83.83,0,0,0,20.63,45.82Z"/><path class="cls-4" d="M15,39.46a7.69,7.69,0,0,0,1.26-.35c.35-.15,1-.54,1-.54l-.73-4.5a1.45,1.45,0,0,0-1.71-1.14l-.2,0c-.79.16-1,.92-.85,1.71Z"/><path class="cls-3" d="M19.93,44.9s1.28-2,2.39-1.58.85.53.94,1A2.1,2.1,0,0,0,24,45.36c.35.35,1.12,1,.32,1.66-.46.38-1.35.45-2.18,1.22a1.74,1.74,0,0,1-2.5-.91C19,46,19,45.69,19.93,44.9Z"/><path class="cls-1" d="M9.43,62.05l-.56,1.06a1.29,1.29,0,0,0-.2.56l0,.41a1,1,0,0,0,.78,1.21l5.24.43c1.67,0,1.25-1.16.88-1.61s-1.18-.42-1.8-.5a2.92,2.92,0,0,1-1.79-1l-.33-.79a.77.77,0,0,0-.29-.15C10.9,61.55,9.83,61.34,9.43,62.05Z"/><path class="cls-1" d="M8.63,64.08l0-.41a1.37,1.37,0,0,1,.08-.33c.57,1.38,2.34,1.59,4.67,1.78,1.54.12,2.08-.3,2.29-.68.25.54.25,1.31-1.09,1.27L9.4,65.29A1,1,0,0,1,8.63,64.08Z"/><path class="cls-2" d="M10.53,63.27h0c1.33.08,1.67-.19,1.81-1.52l1.92-11.92L9.56,47.9,8.73,61.63C8.72,63,9.2,63.19,10.53,63.27Z"/><path class="cls-2" d="M8.88,49.47c0-1.21.56-4.67,1.25-4.67h7.27c.69,0,1.34,2.41,1.34,3.62h0c0,.07,0,.13,0,.2-.05,1.77-2.31,4.24-5,4.24s-4.88-1.46-4.88-3.26h0s0-.09,0-.13Z"/><path class="cls-5" d="M12.06,31.87s4.28,3.57,5.48,2.45c.6-.57-1.27-2.17-1.27-2.17l.12-3.27-4.29,0Z"/><path class="cls-6" d="M7.58,48.82s5.18,1.22,6.7,1.37,6-1.18,6-1.18L20,44.11,18.73,37a5.7,5.7,0,0,0-2.39-4.88s1.68,2.18.87,1.95c-1.45-.41-5.11-3.31-5.14-3.3-2,.38-2.65,2.7-2.65,6.19l-.53,5.79Z"/><path class="cls-7" d="M2.43,17c0,6.84,4.7,11.77,8.43,13,8.29,2.67,13.89-1.72,14-4.76.09-3.79,4.07-2.06.59-5.18C23.58,18.43,32.07,8.8,14.11,7.77,8,7.6,2.43,10.2,2.43,17Z"/><path class="cls-8" d="M3.25,25.64c.93,1.81,4.74,2.07,6-2.5a6.36,6.36,0,0,0,.1-3.55S8.57,18.43,11,18.13s3.36-6.9,6.53-7.79c2.38-.67,4.32.38,6.26,0s1.71-4.73-1.1-5.46S9.2-1.27,4,5.34.4,12.23.72,18.32C.85,20.85,2.55,24.27,3.25,25.64Z"/><path class="cls-7" d="M11.45,18.39s-1-3.19-2.9-2.87-2,7.6,2.06,8.21C13.47,24.16,11.45,18.39,11.45,18.39Z"/><path class="cls-5" d="M8.94,17.95s2.23,1.33,2,2.68-1.17.82-1.3.3.42-.63.44-.68A4,4,0,0,0,8.94,17.95Z"/><path class="cls-8" d="M.27,12.17c0,5.95,5.87,1,12.78-.75,14-3.5,9.86,1.87,12.8,1.53a1.63,1.63,0,0,0,1.42-1.39c1.38-4.85-3-12-13.35-11.54C6.79.32.27,6.23.27,12.17Z"/><path class="cls-5" d="M24.33,22h2.48c-.15.4-.87.61-1.4,1.31l-1.22-.87A.24.24,0,0,1,24.33,22Z"/><path class="cls-8" d="M.81,25s.36,1.55,1.45,1.27c1.71-.43.2-1.81-.55-4.36-3.53-12,1.91-12.45,2-12.73S8.08,8.4,8.08,8.4s-2.64,10-2.45,10.73,2.46,2.41,3.64,4,3.79,10.26-2.64,10.8C-3.19,34.76.81,25,.81,25Z"/><path class="cls-9" d="M20.15,25.19a.31.31,0,0,1,.44,0s.25.89,2.38.88h.26c.13,0,.67-.07.53.22C21.44,31.07,20,25.31,20.15,25.19Z"/><path d="M19.73,16.05a.26.26,0,0,1-.23-.15.34.34,0,0,1,.09-.43,5.49,5.49,0,0,1,2.65-1,3.49,3.49,0,0,1,2.2.85.34.34,0,0,1,0,.44.25.25,0,0,1-.38,0,3,3,0,0,0-1.86-.72,5.08,5.08,0,0,0-2.37.89A.24.24,0,0,1,19.73,16.05Z"/><ellipse class="cls-10" cx="22.5" cy="18.11" rx="1.06" ry="1.41"/><path class="cls-11" d="M23.19,17.24c.31.53-.15,1.14-.55.73S22.79,16.84,23.19,17.24Z"/><path class="cls-3" d="M16.78,47.39l.87-.24c.27-.34,0-.47-.14-.89l-1.8-3.57a6.47,6.47,0,0,1-.6-2.38l.24-5.3-2.48.36L12.68,41a2.76,2.76,0,0,0,.49,1.36L15.72,47A.83.83,0,0,0,16.78,47.39Z"/><path class="cls-4" d="M12.75,39.88a7.7,7.7,0,0,0,1.31,0c.38-.06,1.13-.28,1.13-.28L15.52,35a1.45,1.45,0,0,0-1.4-1.51h-.2c-.8,0-1.2.66-1.23,1.46Z"/><path class="cls-3" d="M15.89,46.31s1.46-1.89,2.52-1.36.8.61.84,1.06a2.1,2.1,0,0,0,.62,1.13c.31.38,1,1.09.17,1.68-.49.34-1.39.32-2.28,1a1.74,1.74,0,0,1-2.41-1.13C14.9,47.33,14.86,47,15.89,46.31Z"/></g></g></svg>