<svg xmlns="http://www.w3.org/2000/svg" xmlns:xlink="http://www.w3.org/1999/xlink" viewBox="0 0 29.26 58.19"><defs><style>.cls-1{fill:#a6a6a6;}.cls-13,.cls-2{fill:#161614;stroke:#161614;stroke-miterlimit:10;}.cls-2{stroke-width:0.98px;}.cls-3{fill:#363d66;}.cls-4{clip-path:url(#clip-path);}.cls-5{clip-path:url(#clip-path-2);}.cls-6{fill:#c6464d;}.cls-14,.cls-7{fill:#e0806e;}.cls-8{fill:#f2b6aa;}.cls-9{fill:#37823f;}.cls-10{fill:#005b06;}.cls-11{fill:#9d0d1b;}.cls-12{fill:#d06d5a;}.cls-13{stroke-width:0.43px;}.cls-14{opacity:0.2;}.cls-15{fill:#383d46;}.cls-16{fill:#fff;}</style><clipPath id="clip-path"><path class="cls-1" d="M17.12,54.11a1.12,1.12,0,0,0-.52,1.55c.48,1.12,1.05,2.17,2,2.17,1.69,0,2.33,0,2.12-1.39s-1.44-1.83-2.37-2.4S17.51,53.74,17.12,54.11Z"/></clipPath><clipPath id="clip-path-2"><path class="cls-1" d="M12.55,54.11a1.12,1.12,0,0,1,.52,1.55c-.48,1.12-1,2.17-2,2.17-1.69,0-2.33,0-2.12-1.39s1.44-1.83,2.37-2.4S12.17,53.74,12.55,54.11Z"/></clipPath></defs><title>pep12</title><g id="Capa_2" data-name="Capa 2"><g id="personals"><path class="cls-2" d="M4.79,19.56S1.67,27.3,3.23,29.17c3.75,4.48,19.33,4.65,23.37.42,2.54-2.66-.94-14.66-.94-14.66S5.27,10.68,4.79,19.56Z"/><path class="cls-3" d="M22.45,46.88c0-1.05-.86-4.07-1.92-4.07H9.38c-1.06,0-1.92,3-1.92,4.07h0a1.22,1.22,0,0,0,0,.17c.08,1.54,3.4,2.78,7.48,2.78s7.48-1.27,7.48-2.84h0a.71.71,0,0,0,0-.12Z"/><path class="cls-1" d="M17.12,54.11a1.12,1.12,0,0,0-.52,1.55c.48,1.12,1.05,2.17,2,2.17,1.69,0,2.33,0,2.12-1.39s-1.44-1.83-2.37-2.4S17.51,53.74,17.12,54.11Z"/><g class="cls-4"><path class="cls-1" d="M20.7,55.68l.4.77a1,1,0,0,1-.18,1.15l-.07.07a1.8,1.8,0,0,1-1.29.52H18.39A1.74,1.74,0,0,1,17,57.55l-.08-.12a1,1,0,0,1,0-1.09l.6-1a1.62,1.62,0,0,1,1.26-.6h1C20.15,54.76,20.52,55.33,20.7,55.68Z"/><path class="cls-1" d="M20.18,54.66s1.58,2.56.16,2.69-2.28.25-2.88-.34-1-1.05-1-1.48-.09-1.83,1.14-1.71S19.7,53.79,20.18,54.66Z"/></g><path class="cls-3" d="M19.09,55.7h0c2,0,3.33-2.1,3.33-2.1A2.11,2.11,0,0,0,22.7,52L21,48.11l-5.93-.05,3.61,4a1.08,1.08,0,0,1-.11,1.28l-1.35.26a1,1,0,0,0-.15,1.34A2.4,2.4,0,0,0,19.09,55.7Z"/><path class="cls-1" d="M12.55,54.11a1.12,1.12,0,0,1,.52,1.55c-.48,1.12-1,2.17-2,2.17-1.69,0-2.33,0-2.12-1.39s1.44-1.83,2.37-2.4S12.17,53.74,12.55,54.11Z"/><g class="cls-5"><path class="cls-1" d="M9,55.68l-.4.77a1,1,0,0,0,.18,1.15l.07.07a1.8,1.8,0,0,0,1.29.52h1.17a1.74,1.74,0,0,0,1.43-.64l.08-.12a1,1,0,0,0,0-1.09l-.6-1a1.62,1.62,0,0,0-1.26-.6H10C9.52,54.76,9.16,55.33,9,55.68Z"/><path class="cls-1" d="M9.5,54.66s-1.57,2.56-.16,2.69,2.28.25,2.88-.34,1-1.05,1-1.48.09-1.83-1.14-1.71S10,53.79,9.5,54.66Z"/></g><path class="cls-3" d="M10.59,55.7h0c-2,0-3.33-2.1-3.33-2.1A2.12,2.12,0,0,1,7,52l1.65-3.93,5.93-.05-3.61,4a1.08,1.08,0,0,0,.11,1.28l1.35.26a1,1,0,0,1,.15,1.34A2.4,2.4,0,0,1,10.59,55.7Z"/><path class="cls-6" d="M23.53,46.7,16.34,48l-1.25-1.66L13.95,48,6.71,46.7l.36-4.77V33.17a9.56,9.56,0,0,1,5.85-2.49h4.3a10,10,0,0,1,5.94,2.49v8.77Z"/><path class="cls-7" d="M17.37,30.78,15.06,34l-2-3.22a3.24,3.24,0,0,1,2.15-1.32A3.25,3.25,0,0,1,17.37,30.78Z"/><path class="cls-8" d="M8.74,43.49a.86.86,0,0,1-1.21-.16l-3.2-4.2a.86.86,0,0,1-.06-1L6,35.24a.86.86,0,1,1,1.5.87L6.05,38.53,8.9,42.28A.86.86,0,0,1,8.74,43.49Z"/><polygon class="cls-9" points="8.98 37.2 8.98 45.73 14.51 47.81 15.27 40.6 14.51 38.64 8.98 37.2"/><polygon class="cls-9" points="20.92 37.2 20.92 45.73 15.39 47.81 14.63 40.6 15.39 38.64 20.92 37.2"/><rect class="cls-10" x="14.51" y="38.64" width="0.92" height="9.17"/><path class="cls-11" d="M4.53,35.71s0,.66,1.12,1.39a3.05,3.05,0,0,0,1.87.64L9.17,34.5a1.27,1.27,0,0,0-.34-1.76l-.14-.1A1.27,1.27,0,0,0,6.93,33Z"/><path class="cls-8" d="M8,44.57a2.41,2.41,0,0,0,.87.88,1.54,1.54,0,0,0,1.9-.88c.13-.7-.69-.5-.73-1.12,0-.45.36.51.83.14.24-.18,0-1-.89-1.21-.76-.16-.76-.6-1.69-.12C7.24,42.83,7.21,43.45,8,44.57Z"/><path class="cls-8" d="M21.16,43.49a.86.86,0,0,0,1.21-.16l3.2-4.2a.86.86,0,0,0,.06-1l-1.69-2.93a.86.86,0,0,0-1.5.87l1.41,2.43L21,42.28A.87.87,0,0,0,21.16,43.49Z"/><path class="cls-11" d="M25.36,35.71s0,.66-1.12,1.39a3.05,3.05,0,0,1-1.87.64L20.72,34.5a1.27,1.27,0,0,1,.34-1.76l.14-.1A1.27,1.27,0,0,1,23,33Z"/><path class="cls-8" d="M21.86,44.57a2.41,2.41,0,0,1-.87.88,1.54,1.54,0,0,1-1.9-.88c-.13-.7.69-.5.73-1.12,0-.45-.36.51-.83.14-.24-.18,0-1,.89-1.21.76-.16.76-.6,1.69-.12C22.65,42.83,22.68,43.45,21.86,44.57Z"/><ellipse class="cls-8" cx="14.43" cy="17.09" rx="11.36" ry="7.78"/><path class="cls-8" d="M25,20.78c0,6.45-4.58,9.83-10.24,9.83S4.55,27.24,4.55,20.78,9.14,9.1,14.79,9.1,25,14.33,25,20.78Z"/><path class="cls-7" d="M14.63,24.37l.06,0,1.32-1a.23.23,0,0,0-.13-.42H13.39a.23.23,0,0,0-.13.42l1.32,1Z"/><path class="cls-12" d="M14.78,27.23A5.86,5.86,0,0,0,18.56,26a.31.31,0,1,0-.43-.43,5.43,5.43,0,0,1-3.37,1H14.5a5.43,5.43,0,0,1-3.37-1,.31.31,0,0,0-.43.43,5.87,5.87,0,0,0,3.78,1.23Z"/><path class="cls-8" d="M25.34,18.6s1.75-2.62,3.36-1.83-.28,7.39-4,6.87C22,23.28,25.34,18.6,25.34,18.6Z"/><path class="cls-8" d="M3.93,18.6S2.18,16,.57,16.78s.28,7.39,4,6.87C7.28,23.28,3.93,18.6,3.93,18.6Z"/><path class="cls-2" d="M4.78,13.41c-.43.92-1.32,1.68-.87,5.25l-.8-1L2.39,17s-3-6.08.53-11.49,15.17-6.66,18.16-2.4c9.65,1,6,13.88,6,13.88l-.65.73-.8,1c-.21-.66-3.36-5.55-3.12-7.12C22.18,11.5,3.7,17.92,4.78,13.41Z"/><path class="cls-13" d="M23,17.48a.29.29,0,0,0,.15-.54A6.45,6.45,0,0,0,20.24,16a4.06,4.06,0,0,0-2.38.81.29.29,0,1,0,.37.45,3.53,3.53,0,0,1,2-.67,6,6,0,0,1,2.57.84A.29.29,0,0,0,23,17.48Z"/><path class="cls-13" d="M6.18,17.48A.29.29,0,0,1,6,16.94,6.46,6.46,0,0,1,8.9,16a4.06,4.06,0,0,1,2.38.81.29.29,0,1,1-.37.45,3.53,3.53,0,0,0-2-.67,6,6,0,0,0-2.57.84A.28.28,0,0,1,6.18,17.48Z"/><path class="cls-7" d="M27.69,18.86s-2.35.61-2.51,1.89.83,1.05,1.08.61-.21-.68-.21-.73A3.83,3.83,0,0,1,27.69,18.86Z"/><path class="cls-7" d="M1.57,18.86s2.35.61,2.51,1.89S3.25,21.8,3,21.37s.21-.68.21-.73A3.83,3.83,0,0,0,1.57,18.86Z"/><ellipse class="cls-14" cx="20.69" cy="21.93" rx="2.23" ry="0.9"/><ellipse class="cls-14" cx="8.58" cy="21.93" rx="2.23" ry="0.9"/><circle class="cls-15" cx="8.98" cy="19" r="1.33"/><circle class="cls-15" cx="20.17" cy="19" r="1.33"/><circle class="cls-16" cx="9.15" cy="19.65" r="0.47"/><path class="cls-16" d="M19.79,19.3a.49.49,0,0,0,.69.69A.49.49,0,0,0,19.79,19.3Z"/></g></g></svg>