<svg xmlns="http://www.w3.org/2000/svg" xmlns:xlink="http://www.w3.org/1999/xlink" viewBox="0 0 29.27 62.4"><defs><style>.cls-1{fill:#1b1919;}.cls-2{fill:#f4b8ac;}.cls-3{clip-path:url(#clip-path);}.cls-4{fill:#363d66;}.cls-5{fill:#d8d9dd;}.cls-12,.cls-6{fill:#e2826d;}.cls-7{fill:#fff;}.cls-8{fill:#c2c3ca;}.cls-9{fill:#e9a28f;}.cls-10{fill:#d26d5a;}.cls-11{fill:#1e120d;}.cls-12{opacity:0.2;}.cls-13{fill:#383d46;}.cls-14{fill:#953004;}</style><clipPath id="clip-path"><path class="cls-1" d="M11.7,55.54a1.12,1.12,0,0,1,.52,1.55c-.48,1.12-1,2.17-2,2.17-1.69,0-2.33,0-2.12-1.39s1.44-1.83,2.37-2.4S11.31,55.17,11.7,55.54Z"/></clipPath></defs><title>pep2</title><g id="Capa_2" data-name="Capa 2"><g id="personals"><path class="cls-2" d="M28,42.82A.86.86,0,0,1,27.1,42v-4.7l-2.59-1.08a.86.86,0,0,1,.67-1.59l3.12,1.31a.86.86,0,0,1,.53.8V42A.86.86,0,0,1,28,42.82Z"/><path class="cls-2" d="M29.16,43.43A2.41,2.41,0,0,1,29,44.65a1.54,1.54,0,0,1-2,.45c-.53-.48.25-.81-.1-1.33s0,.62-.57.62c-.3,0-.63-.79,0-1.5s.24-.94,1.27-1.11C28.73,41.56,29.13,42,29.16,43.43Z"/><path class="cls-1" d="M11.7,55.54a1.12,1.12,0,0,1,.52,1.55c-.48,1.12-1,2.17-2,2.17-1.69,0-2.33,0-2.12-1.39s1.44-1.83,2.37-2.4S11.31,55.17,11.7,55.54Z"/><g class="cls-3"><path class="cls-1" d="M8.12,57.11l-.4.77A1,1,0,0,0,7.9,59l.07.07a1.8,1.8,0,0,0,1.29.52h1.17A1.74,1.74,0,0,0,11.86,59l.08-.12a1,1,0,0,0,0-1.09l-.6-1a1.61,1.61,0,0,0-1.26-.6h-1C8.67,56.19,8.3,56.77,8.12,57.11Z"/><path class="cls-1" d="M8.64,56.09s-1.57,2.56-.16,2.69,2.28.25,2.88-.34,1-1,1-1.48.09-1.83-1.14-1.71S9.12,55.22,8.64,56.09Z"/></g><path class="cls-4" d="M9.73,57.13h0c-2,0-3.4-3.09-3.4-3.09a2.11,2.11,0,0,1-.28-1.56L7.7,48.56l5.93-.05-3.61,4a1.08,1.08,0,0,0,.11,1.28L11.56,55a1,1,0,0,1,.15,1.34A2.4,2.4,0,0,1,9.73,57.13Z"/><path class="cls-4" d="M21.93,48.36c0-1.05-.86-4.07-1.92-4.07H8.86c-1.06,0-1.92,3-1.92,4.07h0a1.25,1.25,0,0,0,0,.17c.08,1.54,3.4,2.78,7.48,2.78s7.48-1.27,7.48-2.84h0a.67.67,0,0,0,0-.12Z"/><path class="cls-5" d="M23,48l-7.18,1.34-1.25-1.66-1.14,1.66L6.14,48l.36-4.77V34.52A9.56,9.56,0,0,1,12.35,32h4.3a9.94,9.94,0,0,1,5.94,2.49v8.76Z"/><path class="cls-5" d="M14.53,38.57,19,31.88a5.88,5.88,0,0,0-2.29-.46H12.4a5.88,5.88,0,0,0-2.15.41A62.05,62.05,0,0,1,14.53,38.57Z"/><path class="cls-6" d="M16.81,32.13l-2.17,1.72-2.13-1.72a3.24,3.24,0,0,1,2.15-1.32A3.24,3.24,0,0,1,16.81,32.13Z"/><polygon class="cls-7" points="19.61 32.25 15.92 35.33 14.64 33.85 17.84 30.9 19.61 32.25"/><polygon class="cls-7" points="9.56 32.25 13.37 35.33 14.65 33.85 11.64 30.65 9.56 32.25"/><circle class="cls-8" cx="15.82" cy="39.06" r="0.46"/><circle class="cls-8" cx="15.82" cy="41.95" r="0.46"/><circle class="cls-8" cx="15.82" cy="44.85" r="0.46"/><path class="cls-8" d="M14.43,35.93a46.33,46.33,0,0,1,.38,5.89,45.79,45.79,0,0,1-.28,5.9,45.8,45.8,0,0,1-.38-5.89A46.33,46.33,0,0,1,14.43,35.93Z"/><path class="cls-4" d="M20.54,61l-.09.32c-1.19,0-2.13-.36-2.19-1.55L15.85,49.8l3.61-.88,2.08,9.59C21.49,59.7,21.74,61,20.54,61Z"/><path class="cls-5" d="M26.6,34.09a2.17,2.17,0,0,1,0,1.78,3.05,3.05,0,0,1-1.1,1.64l-3.27-1.57a1.27,1.27,0,0,1-.8-1.6l.06-.16a1.27,1.27,0,0,1,1.6-.8Z"/><path class="cls-1" d="M22.68,60.51c-1,1.49-2.29,2.32-3.21,1.67s-1.32-1.69.25-3.89c1.06-1.48,2.89-2.11,3.81-1.46S23.73,59,22.68,60.51Z"/><path class="cls-1" d="M22.87,60.55c-1,1.49-2.48,2.27-3.4,1.62s-.39-2.24.66-3.73,2.65-2.17,3.57-1.52S23.92,59.06,22.87,60.55Z"/><path class="cls-2" d="M10.77,40.17h0L3.88,40.1a.86.86,0,0,1-.75-1.28l2-3.62A.86.86,0,1,1,6.66,36L5.35,38.38l5.43.06a.86.86,0,0,1,0,1.73Z"/><path class="cls-2" d="M10.61,40a1.31,1.31,0,0,0,.94.24c.51-.07,1.21-.31,1.08-1.09s.19-.69.19-.69.79.29.92-.38c.27-1.39-.77-3.18-2.11-2.3C9.91,36.94,9,38.87,10.61,40Z"/><path class="cls-5" d="M2.77,36.65s.29.23,1.33,1a1.6,1.6,0,0,0,2-.13l1.61-2.32a1.27,1.27,0,0,0-.26-1.77l-.14-.1a1.27,1.27,0,0,0-1.77.26Z"/><ellipse class="cls-9" cx="14.42" cy="19.17" rx="11.35" ry="7.78"/><path class="cls-9" d="M25,22.86c0,6.45-4.58,9.82-10.23,9.82S4.55,29.31,4.55,22.86,9.13,11.18,14.78,11.18,25,16.41,25,22.86Z"/><path class="cls-6" d="M14.63,26.45l.06,0,1.32-1a.23.23,0,0,0-.13-.42H13.38a.23.23,0,0,0-.13.42l1.32,1Z"/><path class="cls-10" d="M14.77,29.31a5.86,5.86,0,0,0,3.78-1.23.31.31,0,1,0-.43-.43,5.42,5.42,0,0,1-3.36,1H14.5a5.42,5.42,0,0,1-3.36-1,.31.31,0,1,0-.43.43,5.86,5.86,0,0,0,3.78,1.23Z"/><path class="cls-9" d="M25.32,20.68s1.75-2.61,3.35-1.82-.28,7.39-4,6.87C22,25.36,25.32,20.68,25.32,20.68Z"/><path class="cls-9" d="M3.93,20.68S2.18,18.06.57,18.85s.28,7.39,4,6.87C7.28,25.36,3.93,20.68,3.93,20.68Z"/><path class="cls-11" d="M14.64,16.21c3.19-.59,8.09-2.12,9.87,1.65a21.5,21.5,0,0,1,1,2.88l.8-1L27,19s4.17-3.86-2.86-11.8c-2.53-2.85-6.3-4.72-9.49-4.72C13,2.52,10.2,2.74,7.22,7-2.43,8,2.32,19,2.32,19l.65.73.8,1,.62-2a10.16,10.16,0,0,1,1.53-2.67,2.5,2.5,0,0,1,1.73-1.27c.32,0,1.38,1.76,4.57,1.69A15.19,15.19,0,0,0,14.64,16.21Z"/><path d="M23,19.14a.29.29,0,0,0,.15-.54,6.45,6.45,0,0,0-2.87-.93,4.06,4.06,0,0,0-2.38.81.29.29,0,0,0,.37.45,3.53,3.53,0,0,1,2-.67,6,6,0,0,1,2.56.84A.29.29,0,0,0,23,19.14Z"/><path d="M6.24,19.14a.29.29,0,0,1-.15-.54A6.45,6.45,0,0,1,9,17.67a4.06,4.06,0,0,1,2.38.81.29.29,0,1,1-.37.45,3.53,3.53,0,0,0-2-.67,6,6,0,0,0-2.56.84A.29.29,0,0,1,6.24,19.14Z"/><path class="cls-6" d="M27.68,20.94s-2.35.61-2.51,1.89.82,1.05,1.08.61-.21-.68-.21-.73A3.83,3.83,0,0,1,27.68,20.94Z"/><path class="cls-6" d="M1.57,20.94s2.35.61,2.51,1.89-.83,1.05-1.08.61.21-.68.21-.73A3.83,3.83,0,0,0,1.57,20.94Z"/><ellipse class="cls-12" cx="20.68" cy="24" rx="2.23" ry="0.9"/><ellipse class="cls-12" cx="8.57" cy="24" rx="2.23" ry="0.9"/><circle class="cls-13" cx="8.98" cy="21.07" r="1.33"/><circle class="cls-13" cx="20.17" cy="21.07" r="1.33"/><circle class="cls-7" cx="9.5" cy="20.6" r="0.47"/><path class="cls-7" d="M19.3,20.26a.49.49,0,0,0,.69.69A.49.49,0,0,0,19.3,20.26Z"/><ellipse class="cls-2" cx="14.44" cy="19.17" rx="11.35" ry="7.78"/><path class="cls-2" d="M25,22.86c0,6.45-4.58,9.82-10.23,9.82S4.57,29.31,4.57,22.86,9.15,11.18,14.8,11.18,25,16.41,25,22.86Z"/><path class="cls-6" d="M14.65,26.45l.06,0,1.32-1a.23.23,0,0,0-.13-.42H13.4a.23.23,0,0,0-.13.42l1.32,1Z"/><path class="cls-10" d="M14.79,29.31a5.86,5.86,0,0,0,3.78-1.23.31.31,0,1,0-.43-.43,5.42,5.42,0,0,1-3.36,1h-.26a5.42,5.42,0,0,1-3.36-1,.31.31,0,1,0-.43.43,5.86,5.86,0,0,0,3.78,1.23Z"/><path class="cls-2" d="M25.34,20.68s1.75-2.61,3.35-1.82-.28,7.39-4,6.87C22,25.36,25.34,20.68,25.34,20.68Z"/><path class="cls-2" d="M3.95,20.68S2.19,18.06.59,18.85s.28,7.39,4,6.87C7.3,25.36,3.95,20.68,3.95,20.68Z"/><path class="cls-14" d="M14.66,16.21c3.19-.59,8.09-2.12,9.87,1.65a21.5,21.5,0,0,1,1,2.88l.8-1L27,19s4.17-3.86-2.86-11.8c-2.53-2.85-6.3-4.72-9.49-4.72C13,2.52,10.21,2.74,7.23,7-2.41,8,2.34,19,2.34,19l.65.73.8,1,.62-2a10.16,10.16,0,0,1,1.53-2.67,2.5,2.5,0,0,1,1.73-1.27c.32,0,1.38,1.76,4.57,1.69A15.19,15.19,0,0,0,14.66,16.21Z"/><path d="M23,19.14a.29.29,0,0,0,.15-.54,6.45,6.45,0,0,0-2.87-.93,4.06,4.06,0,0,0-2.38.81.29.29,0,0,0,.37.45,3.53,3.53,0,0,1,2-.67,6,6,0,0,1,2.56.84A.29.29,0,0,0,23,19.14Z"/><path d="M6.26,19.14a.29.29,0,0,1-.15-.54A6.45,6.45,0,0,1,9,17.67a4.06,4.06,0,0,1,2.38.81.29.29,0,1,1-.37.45,3.53,3.53,0,0,0-2-.67,6,6,0,0,0-2.56.84A.29.29,0,0,1,6.26,19.14Z"/><path class="cls-6" d="M27.7,20.94s-2.35.61-2.51,1.89.82,1.05,1.08.61-.21-.68-.21-.73A3.83,3.83,0,0,1,27.7,20.94Z"/><path class="cls-6" d="M1.59,20.94s2.35.61,2.51,1.89-.83,1.05-1.08.61.21-.68.21-.73A3.83,3.83,0,0,0,1.59,20.94Z"/><ellipse class="cls-12" cx="20.7" cy="24" rx="2.23" ry="0.9"/><ellipse class="cls-12" cx="8.59" cy="24" rx="2.23" ry="0.9"/><circle class="cls-13" cx="9" cy="21.07" r="1.33"/><circle class="cls-13" cx="20.19" cy="21.07" r="1.33"/><circle class="cls-7" cx="9.52" cy="20.6" r="0.47"/><path class="cls-7" d="M19.32,20.26a.49.49,0,0,0,.69.69A.49.49,0,0,0,19.32,20.26Z"/><path class="cls-14" d="M24.68,12.36s-1.58-9.68-4.9-9.68S3.71,0,3.71,0s-1,9.51-1.94,11.5,2.38,3.62,2.38,3.62Z"/></g></g></svg>