<svg xmlns="http://www.w3.org/2000/svg" xmlns:xlink="http://www.w3.org/1999/xlink" viewBox="0 0 41.13 82.55"><defs><style>.cls-1{fill:#201f1f;}.cls-2{isolation:isolate;}.cls-3{fill:#404040;}.cls-4{fill:#00bfd3;}.cls-5{fill:#45505b;}.cls-6{fill:#fff;}.cls-7{clip-path:url(#clip-path);}.cls-8{fill:#223c7b;}.cls-9{clip-path:url(#clip-path-2);}.cls-10{fill:#2b363f;}.cls-11{fill:#2d0505;}.cls-12{fill:#211915;}.cls-13{fill:#e9a28f;}.cls-14{fill:#1e120d;}.cls-15,.cls-17{fill:#e2826d;}.cls-15{opacity:0.2;}.cls-16{fill:#d26d5a;}.cls-18{fill:#383d46;}.cls-19{fill:#760606;}.cls-20,.cls-22{fill:#d1d1d1;}.cls-20,.cls-21{mix-blend-mode:multiply;}.cls-23{fill:#bbeefc;opacity:0.5;}.cls-24{fill:#7d7d7d;}.cls-25{fill:#303030;}.cls-26{fill:#1f1f1f;}.cls-27{fill:#232323;}.cls-28{fill:#f4f4f4;}.cls-29{fill:#e5b8ac;}</style><clipPath id="clip-path"><path class="cls-1" d="M12.74,56a1.48,1.48,0,0,1-.56,2.1c-1.35.89-2.75,1.63-3.76,1C6.56,57.87,5.84,57.42,7.1,56s2.93-1,4.38-.91S12.58,55.35,12.74,56Z"/></clipPath><clipPath id="clip-path-2"><path class="cls-1" d="M29.5,56a1.48,1.48,0,0,0,.56,2.1c1.35.89,2.75,1.63,3.76,1,1.87-1.24,2.59-1.68,1.33-3.09s-2.93-1-4.38-.91S29.66,55.35,29.5,56Z"/></clipPath></defs><title>pep3</title><g class="cls-2"><g id="Capa_2" data-name="Capa 2"><g id="personals"><path class="cls-3" d="M12.62,49.15A38.86,38.86,0,0,0,10,57C9,62.31,6.81,68.94,20.49,68.7c12-.21,12.21-2.32,10.64-11.72a31.1,31.1,0,0,0-2.58-8.9Z"/><path class="cls-4" d="M30.42,34H11.26A2.23,2.23,0,0,1,9,31.78V14.71a2.23,2.23,0,0,1,2.25-2.2H30.42a2.22,2.22,0,0,1,2.25,2.2V31.78A2.22,2.22,0,0,1,30.42,34"/><path class="cls-5" d="M5.48,29.65a1.1,1.1,0,0,0-1.22.84c-.37,1,1.54,2.15,1.54,2.15l2.5,1.64a1,1,0,0,0,1.47-.17L9.87,34a1,1,0,0,0-.17-1.47Z"/><path class="cls-6" d="M7.28,33.6l1,.67a1,1,0,0,0,1.47-.17L9.87,34a1,1,0,0,0-.17-1.47l-.93-.63A2.47,2.47,0,0,0,7.28,33.6Z"/><path class="cls-5" d="M8.18,32.52a1.28,1.28,0,0,0,0,1.73c.74,1,3.09-.14,3.09-.14l3.2-1.41a1.23,1.23,0,0,0,.77-1.55L15.23,31a1.23,1.23,0,0,0-1.55-.77Z"/><path class="cls-6" d="M9.2,32.09c1.38.36,1.36,1.88,1.32,2.33-.75.25-1.83.45-2.29-.17a1.28,1.28,0,0,1,0-1.73Z"/><path class="cls-1" d="M12.74,56a1.48,1.48,0,0,1-.56,2.1c-1.35.89-2.75,1.63-3.76,1C6.56,57.87,5.84,57.42,7.1,56s2.93-1,4.38-.91S12.58,55.35,12.74,56Z"/><g class="cls-7"><path class="cls-1" d="M7.63,55.16l-1,.56A1.29,1.29,0,0,0,6,57.12l0,.13a2.38,2.38,0,0,0,1.05,1.52l1.28.87a2.3,2.3,0,0,0,2.05.34l.18-.07a1.27,1.27,0,0,0,.84-1.18l0-1.52a2.14,2.14,0,0,0-.95-1.59l-1.06-.7C8.91,54.55,8.08,54.91,7.63,55.16Z"/><path class="cls-1" d="M9,54.41s-3.61,1.67-2.15,2.86S9.15,59.22,10.24,59s1.88-.43,2.22-.89,1.44-2,0-2.73S10.12,53.8,9,54.41Z"/></g><path class="cls-8" d="M9.4,56.37h0c-2.21-1.46-1.5-5.9-1.5-5.9a2.8,2.8,0,0,1,.83-1.94l4.7-3.13L20,49.67l-6.88,1.73a1.43,1.43,0,0,0-.81,1.5L13,55.34a1.32,1.32,0,0,1-.81,1.59A3.18,3.18,0,0,1,9.4,56.37Z"/><path class="cls-1" d="M29.5,56a1.48,1.48,0,0,0,.56,2.1c1.35.89,2.75,1.63,3.76,1,1.87-1.24,2.59-1.68,1.33-3.09s-2.93-1-4.38-.91S29.66,55.35,29.5,56Z"/><g class="cls-9"><path class="cls-1" d="M34.61,55.16l1,.56a1.29,1.29,0,0,1,.64,1.4l0,.13a2.38,2.38,0,0,1-1.05,1.52l-1.28.87a2.3,2.3,0,0,1-2.05.34l-.18-.07a1.27,1.27,0,0,1-.84-1.18l0-1.52a2.14,2.14,0,0,1,.95-1.59l1.06-.7C33.33,54.55,34.15,54.91,34.61,55.16Z"/><path class="cls-1" d="M33.28,54.41s3.61,1.67,2.15,2.86S33.09,59.22,32,59s-1.88-.43-2.22-.89-1.44-2,0-2.73S32.12,53.8,33.28,54.41Z"/></g><path class="cls-8" d="M32.84,56.37h0c2.21-1.46,1.5-5.9,1.5-5.9a2.8,2.8,0,0,0-.83-1.94l-4.7-3.13-6.59,4.28,6.88,1.73a1.43,1.43,0,0,1,.81,1.5l-.66,2.43a1.32,1.32,0,0,0,.81,1.59A3.18,3.18,0,0,0,32.84,56.37Z"/><path class="cls-8" d="M27.86,44.42c0-1-.83-3.94-1.85-3.94H15.22c-1,0-1.85,2.92-1.85,3.94h0a1.22,1.22,0,0,0,0,.17c.08,1.49,3.29,2.69,7.23,2.69s7.24-1.23,7.24-2.75h0a.66.66,0,0,0,0-.11Z"/><path class="cls-5" d="M28.85,44.11l-6.94,1.3L20.7,43.8l-1.11,1.61-7-1.3.35-4.62V31a9.25,9.25,0,0,1,5.66-2.41h4.16A9.62,9.62,0,0,1,28.5,31V39.5Z"/><path class="cls-5" d="M20.7,34.95,25,28.47A5.68,5.68,0,0,0,22.8,28H18.64a5.68,5.68,0,0,0-2.08.39A60.05,60.05,0,0,1,20.7,34.95Z"/><path class="cls-6" d="M18.4,41.61a35.42,35.42,0,0,0,10.22-.51l-.12-1.6V36.77c-8.27,1.7-13.95.59-15.58.18l0,2.61-.1,1.2C13.55,40.92,15.4,41.22,18.4,41.61Z"/><path class="cls-10" d="M20.6,28.42l0,.66c0,.42.05,1,.08,1.74.05,1.44.1,3.36.11,5.29s0,3.85,0,5.29c0,.72,0,1.32-.06,1.74l0,.66,0-.66c0-.42-.05-1-.08-1.74-.05-1.44-.1-3.36-.11-5.29s0-3.85,0-5.29c0-.72,0-1.32.06-1.74Z"/><path class="cls-5" d="M37.14,29.35a1.1,1.1,0,0,1,1.22.84c.37,1-1.54,2.15-1.54,2.15L34.31,34a1,1,0,0,1-1.47-.17l-.09-.11a1,1,0,0,1,.17-1.47Z"/><path class="cls-6" d="M35.34,33.31l-1,.67a1,1,0,0,1-1.47-.17l-.09-.11a1,1,0,0,1,.17-1.47l.93-.63A2.47,2.47,0,0,1,35.34,33.31Z"/><path class="cls-11" d="M30.19,11.83s3.2,1.21,3.2,2.72-.39,8.64-2.46,9.33S22.84,22.46,19.34,23a44.19,44.19,0,0,1-8,.69c-.78-.17-1.34,0-1.81-1.86s-2.33-7.34-.13-8.6,8.86-.48,8.86-.48Z"/><path class="cls-12" d="M23,14c3.27-.42,7.21-1.78,8.78,2.24.39,1,0,2.5.28,3.52l.65-1.48.13-.29s1.51-7-2.5-11.92a12.19,12.19,0,0,0-5.47-3.59,17.18,17.18,0,0,0-2.43-.64,9,9,0,0,0-5.06.72,5.48,5.48,0,0,1-1.24.65,12,12,0,0,0-2.3.51C12,4.65,10.71,7.55,10,9.42a17.35,17.35,0,0,0-1.07,5.92,11.86,11.86,0,0,0,0,1.23l.09.3L11.31,18l.75-2a8.65,8.65,0,0,1,1.71-2.67,2.86,2.86,0,0,1,1.84-1.21c.33,0,1.67,1.92,4.91,2A15.11,15.11,0,0,0,23,14Z"/><path class="cls-13" d="M20.3,31.28s-1.4-.42-2-.68c-.32-.15-4.69-3.29-5-3.51-1.24-1-3.59-8.45-3.59-8.45S8,9.24,14.52,6.87l.07,0a16.64,16.64,0,0,1,5.66-1h.1a16.63,16.63,0,0,1,5.66,1l.07,0c6.52,2.37,5.34,11.52,5.34,11.52s-1.25,7.1-3.68,8.69c-.13.09-4.56,3.33-5.07,3.51S20.3,31.28,20.3,31.28Z"/><path class="cls-14" d="M21,12c-3-.57-7.89,0-9.59,3.57a20.38,20.38,0,0,0-.92,2.74l-.76-.92-.1-.27s-1-6.53,3-10.8a13,13,0,0,1,8.2-3.48A13,13,0,0,1,29,6.33c4,4.27,3,10.8,3,10.8l-.1.27-.76.92-.59-1.9c-.31-1,.43-2.19-.14-3a9.74,9.74,0,0,0-3.56-2.27c-.31,0-.67,1.52-3.71,1.46A14.29,14.29,0,0,1,21,12Z"/><ellipse class="cls-15" cx="15.05" cy="21.43" rx="2.12" ry="0.86"/><ellipse class="cls-15" cx="26.59" cy="21.43" rx="2.12" ry="0.86"/><path class="cls-16" d="M20.68,26.49a5.58,5.58,0,0,1-3.6-1.17.29.29,0,0,1,.41-.41,5.16,5.16,0,0,0,3.21,1h.25a5.17,5.17,0,0,0,3.21-1,.29.29,0,1,1,.41.41A5.58,5.58,0,0,1,21,26.49Z"/><path class="cls-17" d="M20.82,23.76l-.05,0-1.26-.91a.22.22,0,0,1,.13-.4H22a.22.22,0,0,1,.13.4l-1.26.91Z"/><circle class="cls-18" cx="26.2" cy="18.64" r="1.26"/><circle class="cls-18" cx="15.54" cy="18.64" r="1.26"/><circle class="cls-6" cx="25.7" cy="18.19" r="0.45"/><circle class="cls-6" cx="16.03" cy="18.19" r="0.45"/><path d="M12.82,16.79a.28.28,0,0,1-.15-.51,6.15,6.15,0,0,1,2.74-.89,3.87,3.87,0,0,1,2.27.77.28.28,0,0,1-.35.43,3.36,3.36,0,0,0-1.92-.64,5.67,5.67,0,0,0-2.44.8A.28.28,0,0,1,12.82,16.79Z"/><path d="M28.81,16.79a.28.28,0,0,0,.15-.51,6.15,6.15,0,0,0-2.74-.89,3.87,3.87,0,0,0-2.27.77.28.28,0,1,0,.35.43,3.36,3.36,0,0,1,1.92-.64,5.68,5.68,0,0,1,2.44.8A.27.27,0,0,0,28.81,16.79Z"/><path class="cls-17" d="M20.62,22.4l-.05,0-1.26-.91a.22.22,0,0,1,.13-.4h2.37a.22.22,0,0,1,.13.4l-1.26.91Z"/><path class="cls-19" d="M33.71,13.19C33.71,5.28,28.14,0,21.12,0a12.71,12.71,0,0,0-13,13.18c-.1,7.41,1.91,12.3,4.71,15.19.63.87,5.82,3.69,8.53,3.59,1.5-.13,5.36-1.56,6.93-3.65C31.76,25,34,19.5,33.71,13.19ZM30.9,23.31c-4.4.39-5.27-1.16-10-1.12-5.48,0-6.72,1.73-10.13,1.08-1.23-.23-2.15-6.89-2.15-7.7a2.12,2.12,0,0,1,2.18-2.25,51.3,51.3,0,0,0,10,.71c4.68-.17,9.71-.57,10.66-.57,1.3,0,1.85,1.26,1.85,2.57C33.23,16.72,32.14,23.2,30.9,23.31Z"/><path class="cls-20" d="M33.68,13.14C33.73,6.72,30,1.92,24.79.38,28.52,2.72,31.07,7.06,31,12.63c0,.29,0,.57,0,.84h.35c1.3,0,1.85,1.26,1.85,2.57,0,.69-1.09,7.17-2.33,7.28-.51,0-1,.06-1.39.06A16.38,16.38,0,0,1,26.32,29c-.36.54-3,2.08-5,3,2.8-.58,5.79-2.23,6.32-3C31.9,24.67,33.78,20.55,33.68,13.14Z"/><path class="cls-20" d="M15.72,29.12a16.45,16.45,0,0,1-3.23-5.71,7.8,7.8,0,0,1-1.75-.14c-1.23-.23-2.15-6.89-2.15-7.7a2.12,2.12,0,0,1,2.18-2.25l.24,0c0-.18,0-.36,0-.54C11,7.23,13.53,2.89,17.26.55a12.64,12.64,0,0,0-9.1,12.63c-.1,7.41,1.91,12.3,4.71,15.19.53.73,4.33,2.87,7.12,3.45A14.39,14.39,0,0,1,15.72,29.12Z"/><g class="cls-21"><path class="cls-22" d="M17.57,25.63a6.31,6.31,0,0,1,.67.31l-.12,0a13.78,13.78,0,0,1,2.82-.28,14,14,0,0,1,2.82.27l-.13,0a6.51,6.51,0,0,1,.71-.34,6.49,6.49,0,0,1-.45.64l0,0-.11,0a14,14,0,0,1-2.82.27,13.77,13.77,0,0,1-2.82-.28l-.11,0,0,0A6.27,6.27,0,0,1,17.57,25.63Z"/></g><g class="cls-21"><path class="cls-22" d="M18.26,27a5.22,5.22,0,0,1,.58.33l-.13-.05A10.94,10.94,0,0,1,21,27a11.13,11.13,0,0,1,2.33.23l-.14.06a5.44,5.44,0,0,1,.61-.35,5.43,5.43,0,0,1-.34.62l0,0-.12,0a11.14,11.14,0,0,1-2.33.23,10.93,10.93,0,0,1-2.33-.24l-.11,0,0,0A5.23,5.23,0,0,1,18.26,27Z"/></g><g class="cls-21"><path class="cls-22" d="M18.6,28.56a5.91,5.91,0,0,1,.51.35L19,28.85a9.21,9.21,0,0,1,3.87,0l-.15.07a6.44,6.44,0,0,1,.54-.37,6.44,6.44,0,0,1-.25.61l0,0-.13,0a9.21,9.21,0,0,1-3.87,0l-.12,0,0,0A5.94,5.94,0,0,1,18.6,28.56Z"/></g><path class="cls-23" d="M33.68,13.58c0,1.33-.56,2.61-1.9,2.61-1,0-6.16-.4-11-.58a53.44,53.44,0,0,0-10.26.73,2.17,2.17,0,0,1-2.25-2.29c0-.83.95-7.61,2.21-7.85,3.51-.66,4.78,1.06,10.43,1.1,4.9,0,5.8-1.54,10.34-1.15C32.56,6.28,33.68,12.88,33.68,13.58Z"/><path class="cls-5" d="M34.44,32.22a1.28,1.28,0,0,1,0,1.73c-.74,1-3.09-.14-3.09-.14L28.1,32.4a1.23,1.23,0,0,1-.77-1.55l.05-.16a1.23,1.23,0,0,1,1.55-.77Z"/><path class="cls-6" d="M33.42,31.79c-1.38.36-1.36,1.88-1.32,2.33.75.25,1.83.45,2.29-.17a1.28,1.28,0,0,0,0-1.73Z"/><path class="cls-19" d="M30,40.36c-.08-1.29-1.43-2.41-3.42-2.84H15.09c-2,.43-3.34,1.55-3.42,2.84l-.74,7.72c-.09,1.5,1.56,2.82,3.93,3.17a41.62,41.62,0,0,0,12,0c2.38-.35,4-1.67,3.93-3.17Z"/><path class="cls-24" d="M17.47,66.28H12.32a1.24,1.24,0,0,1-1-.33,1.2,1.2,0,0,1-.31-1l3.43-22.14A1.33,1.33,0,0,1,16,41.7a1.37,1.37,0,0,1,1.12,1.56L13.89,63.91h3.58a1.2,1.2,0,1,1,0,2.38Z"/><path class="cls-24" d="M28.89,66.28H23.74a1.2,1.2,0,1,1,0-2.38h3.58L24.13,43.27a1.34,1.34,0,1,1,2.66-.42L30.22,65a1.06,1.06,0,0,1-.31.94A1.24,1.24,0,0,1,28.89,66.28Z"/><rect class="cls-24" x="13.97" y="62.42" width="13.38" height="5.35" rx="1.27" ry="1.27"/><path class="cls-25" d="M15.28,39.36S12.61,34.15,12.53,34C12.13,33,12,32.69,10,32.69H1.92V30.62H10c3.12,0,3.82,1,4.45,2.52.07.17,2.69,5.26,2.69,5.26Z"/><path class="cls-25" d="M16.38,37.54l-3.37-9c-.81-2.36-1.52-3.4-4.9-3.4H1.92V23.1h6.2c4.36,0,5.81,1.75,6.86,4.78l3.35,8.93Z"/><rect class="cls-26" y="29.7" width="7.97" height="3.91" rx="0.95" ry="0.95"/><circle class="cls-3" cx="3.98" cy="24.13" r="3.42"/><path class="cls-25" d="M25.85,39.36s2.67-5.21,2.75-5.39c.4-.92.55-1.27,2.55-1.27h8.07V30.62H31.15c-3.12,0-3.82,1-4.45,2.52C26.63,33.31,24,38.4,24,38.4Z"/><path class="cls-25" d="M24.75,37.54l3.37-9c.81-2.36,1.52-3.4,4.9-3.4h6.2V23.1H33c-4.36,0-5.81,1.75-6.86,4.78l-3.35,8.93Z"/><rect class="cls-26" x="33.17" y="29.7" width="7.97" height="3.91" rx="0.95" ry="0.95"/><circle class="cls-3" cx="37.15" cy="24.13" r="3.42"/><path class="cls-26" d="M20.37,50a4.61,4.61,0,0,0-4.61,4.63V77.92a4.61,4.61,0,1,0,9.21,0V54.63A4.61,4.61,0,0,0,20.37,50Z"/><circle class="cls-27" cx="20.57" cy="34.97" r="2.74"/><circle class="cls-24" cx="20.57" cy="40.25" r="6.44"/><circle class="cls-28" cx="20.57" cy="40.25" r="4.11"/><path class="cls-29" d="M34.41,33.48s.33-.78.82-.78.85.85.85.85a1,1,0,0,1-.74.56C34.82,34.14,34.41,33.48,34.41,33.48Z"/><path class="cls-29" d="M35.52,29.72S35,31.4,37,31.54a2.35,2.35,0,0,0,2.45-1.82S36.94,28.31,35.52,29.72Z"/><path class="cls-29" d="M6.42,33.48s-.33-.78-.82-.78-.85.85-.85.85a1,1,0,0,0,.74.56C6,34.14,6.42,33.48,6.42,33.48Z"/><path class="cls-29" d="M5.31,29.72s.56,1.67-1.45,1.82a2.35,2.35,0,0,1-2.45-1.82S3.9,28.31,5.31,29.72Z"/></g></g></g></svg>