<svg xmlns="http://www.w3.org/2000/svg" xmlns:xlink="http://www.w3.org/1999/xlink" viewBox="0 0 29.68 62.83"><defs><style>.cls-1{fill:none;}.cls-2{fill:#9d0d1b;}.cls-3{fill:#56bee9;}.cls-4{fill:#f6c9a6;}.cls-5{fill:#2d3556;}.cls-6{fill:#363d66;}.cls-7{fill:#d6d7db;}.cls-8{clip-path:url(#clip-path);}.cls-9{fill:#323232;opacity:0.76;}.cls-10{fill:#009cc8;}.cls-11{fill:#d79676;}.cls-12{fill:#fff;}.cls-13{fill:#1e1c1c;}.cls-14{fill:#b47e5e;opacity:0.43;}.cls-15{fill:#d06d5a;}.cls-16{fill:#383d46;}</style><clipPath id="clip-path"><path class="cls-1" d="M9.41,43.23C11,41.56,15.25,31.7,15.25,31.7c-.4-2,.52-1.86-.34-1.86l-2,2.64c-1.54,0-1.71-.2-1.71-.2l-1.1,2.1A55,55,0,0,0,9.41,43.23Z"/></clipPath></defs><title>pep4</title><g id="Capa_2" data-name="Capa 2"><g id="personals"><path class="cls-2" d="M19.5,62.44l1.89-1.89a1,1,0,0,0-.07-1.61,1.79,1.79,0,0,0-1.5.28l-2.22,1.33a1.34,1.34,0,0,0,0,1.89h0A1.34,1.34,0,0,0,19.5,62.44Z"/><path class="cls-2" d="M13,62.56h2.67A1.34,1.34,0,0,0,17,61.22h0a1.34,1.34,0,0,0-1.34-1.34L13,60.32a1.34,1.34,0,0,0-1.34,1.34h0C11.69,62.39,12.28,62.56,13,62.56Z"/><path class="cls-3" d="M8.45,36.4a7.33,7.33,0,0,1,1.43.37,1.81,1.81,0,0,1,1.06.93h0c-1.6,2-7.89,4.78-6.68.88C4.64,37.34,8.45,36.4,8.45,36.4Z"/><path class="cls-3" d="M8.45,36.38l2-4.1a1.27,1.27,0,0,1,1.7-.6l.16.08a1.27,1.27,0,0,1,.6,1.7l-1.95,4.22-.06.07a1.61,1.61,0,0,1-1.41.15,1.87,1.87,0,0,1-1.05-1.51Z"/><path class="cls-4" d="M4.3,39.49s-.06-2.09-1.09-2.26-.88,0-1.14.32A1.83,1.83,0,0,1,1,38c-.42.11-1.29.24-1,1.1.18.5.82.94,1.1,1.89a1.53,1.53,0,0,0,2.29.43C4.48,40.73,4.67,40.52,4.3,39.49Z"/><path class="cls-5" d="M18,48.09,16.4,60.29s-.11.35-.83.24-.82-.24-.82-.24L12.66,47.62Z"/><path class="cls-6" d="M18.57,46.94l2.07,12.23s0,.28-.49.72-.89.26-.89.26L13.3,48Z"/><path class="cls-6" d="M20.43,46.33C20.43,45.21,19.8,42,19,42H10.94c-.77,0-1.49,2.23-1.49,3.35h0c0,.06,0,.12,0,.18C9.52,47.18,12,49.46,15,49.46s5.43-1.35,5.43-3h0a1,1,0,0,0,0-.12Z"/><path class="cls-7" d="M9.41,43.23C11,41.56,15.25,31.7,15.25,31.7c-.4-2,.52-1.86-.34-1.86l-2,2.64c-1.54,0-1.71-.2-1.71-.2l-1.1,2.1A55,55,0,0,0,9.41,43.23Z"/><g class="cls-8"><circle class="cls-9" cx="10.08" cy="33.97" r="0.44"/><circle class="cls-9" cx="10.08" cy="35.34" r="0.44"/></g><path class="cls-3" d="M21.39,46.73l-5.59,1.7-4.87,0L9,45.83l.36-2.6,1.26-6.89A5.55,5.55,0,0,1,13,31.6s.91,1.74.62,0l2.51-.32c.06,0,1.62-1.08,1.67-1.05,1.38.63,1.93,2.65,1.93,6l.51,5.63Z"/><path class="cls-10" d="M12,32.09a22,22,0,0,1,1.54,2.32l-1.15.17.74,1.58-2.42,2.49L9.33,43.42l1.8-11.48Z"/><polygon class="cls-11" points="17.05 30.81 12.99 32.24 12.95 28.43 17.12 28.38 17.05 30.81"/><polygon class="cls-12" points="18.71 30.36 11.22 33.75 11.16 31.74 17.8 28.86 18.71 30.36"/><path class="cls-4" d="M22,41s-2-.54-2.48.4-.23.84,0,1.18a1.84,1.84,0,0,1,.17,1.11c0,.43-.14,1.3.77,1.26a11.56,11.56,0,0,1,2.12-.51,1.52,1.52,0,0,0,1.07-2.07C23.28,41.17,23.13,40.93,22,41Z"/><path class="cls-4" d="M27.25,16.37c0,6.57-4.52,11.31-8.1,12.46-8,2.56-13.34-1.65-13.41-4.57-.09-3.64-3.91-2-.57-5C6.95,17.7-1.21,8.45,16,7.46,21.86,7.3,27.25,9.8,27.25,16.37Z"/><path class="cls-13" d="M26.47,24.63c-.89,1.74-4.55,2-5.78-2.4a6.11,6.11,0,0,1-.1-3.41s.76-1.13-1.59-1.42-3.23-6.63-6.27-7.49c-2.29-.64-4.15.37-6,0S5.08,5.37,7.78,4.67,19.49-4.74,27.7,6.44C32.5,13,27.15,23.31,26.47,24.63Z"/><path class="cls-4" d="M18.6,17.67s1-3.06,2.78-2.75,1.89,7.3-2,7.88C16.66,23.21,18.6,17.67,18.6,17.67Z"/><path class="cls-14" d="M21,17.24s-2.14,1.28-1.92,2.58,1.12.79,1.25.29-.41-.6-.42-.65A3.88,3.88,0,0,1,21,17.24Z"/><path class="cls-13" d="M29.33,11.69c0,5.71-5.63.94-12.28-.72C3.63,7.6,7.58,12.76,4.76,12.44A1.56,1.56,0,0,1,3.4,11.1C2.07,6.45,6.29-.4,16.22,0,23.07.31,29.33,6,29.33,11.69Z"/><path class="cls-14" d="M6.22,21.16H3.84c.14.39.84.58,1.35,1.26l1.17-.84A.24.24,0,0,0,6.22,21.16Z"/><path class="cls-15" d="M7.94,25.67h.28c2.6-.13,2.66-.92,2.71-1a.29.29,0,0,0,0-.42.3.3,0,0,0-.42,0s-.24.85-2.28.85H8c-.13,0-.5-.1-.51.21S7.94,25.67,7.94,25.67Z"/><path d="M10.64,15.42a.25.25,0,0,0,.22-.14.32.32,0,0,0-.08-.41,5.27,5.27,0,0,0-2.55-.95,3.35,3.35,0,0,0-2.11.82.33.33,0,0,0,0,.42.24.24,0,0,0,.36,0,2.91,2.91,0,0,1,1.79-.69,4.87,4.87,0,0,1,2.28.86A.24.24,0,0,0,10.64,15.42Z"/><ellipse class="cls-16" cx="7.98" cy="17.39" rx="1.01" ry="1.35"/><path class="cls-12" d="M7.31,16.56c-.29.51.14,1.09.53.7S7.7,16.17,7.31,16.56Z"/><path class="cls-3" d="M20.56,36.59a7.33,7.33,0,0,1,.78-1.26,1.81,1.81,0,0,1,1.2-.74h0c1.48,2.13,2.23,8.95-1.14,6.64C20.33,40.51,20.56,36.59,20.56,36.59Z"/><path class="cls-3" d="M20.54,36.58l-3.33-3.11a1.27,1.27,0,0,1-.07-1.8l.12-.13a1.27,1.27,0,0,1,1.8-.07l3.46,3.11.05.08a1.61,1.61,0,0,1-.28,1.39,1.87,1.87,0,0,1-1.76.56Z"/></g></g></svg>