<svg xmlns="http://www.w3.org/2000/svg" viewBox="0 0 33.62 77.58"><defs><style>.cls-1{fill:#363d66;}.cls-2{fill:#d8d9dd;}.cls-3{fill:#a00d1b;}.cls-4{fill:#c6464d;}.cls-14,.cls-5{fill:#fff;}.cls-6{fill:#cc8051;}.cls-7{fill:#323232;opacity:0.76;}.cls-8{fill:#512308;}.cls-9{fill:#ffb88f;}.cls-10{fill:#ffa485;}.cls-11{fill:#f68260;}.cls-12{fill:#61300e;}.cls-13{fill:#ff2463;opacity:0.15;}.cls-14{opacity:0.2;}.cls-15{fill:#383d46;}.cls-16{fill:#1b1919;}.cls-17{fill:none;stroke:#b0121a;stroke-linecap:round;stroke-linejoin:round;stroke-width:4.29px;}.cls-18{fill:#d88e5d;}.cls-19{fill:#2a2724;}.cls-20{fill:#b8764a;}.cls-21{fill:#303030;}</style></defs><title>pep5_1</title><g id="Capa_2" data-name="Capa 2"><g id="personals"><path class="cls-1" d="M24.63,56.22c0-1.19-1-4.62-2.17-4.62H9.79c-1.2,0-2.17,3.43-2.17,4.62h0a1.42,1.42,0,0,0,0,.2c.09,1.75,3.85,3.16,8.49,3.16s8.49-1.44,8.49-3.22h0a.76.76,0,0,0,0-.13Z"/><path class="cls-2" d="M18.47,38.54H14a8.79,8.79,0,0,0-5.61,2.07l-.5,9.67-.38,5,7.56,1.4h2.5l7.49-1.4-.38-5-.4-9.72A9.81,9.81,0,0,0,18.47,38.54Z"/><path class="cls-3" d="M20.62,37.94a11.56,11.56,0,0,1,4.35,2l.43,10.57.41,5.41L20.55,57.4l-2.35-5.27,2.42-14.19"/><path class="cls-4" d="M21.43,38a23.55,23.55,0,0,1,1.64,2.48l-1.23.18.79,1.69L20,45l-1.51,5.11,1.93-12.28Z"/><path class="cls-3" d="M12.89,37.89A8.46,8.46,0,0,0,7.69,40L7.14,50.52l-.41,5.42L12,57.15l3-5.27-2.12-14"/><path class="cls-4" d="M11.86,38.06a23.55,23.55,0,0,0-1.64,2.48l1.23.18-.79,1.69,2.58,2.66,1.51,5.11L13,37.9Z"/><rect class="cls-5" x="9.32" y="43.74" width="3.04" height="0.69"/><path class="cls-6" d="M19.78,37.14l-3.39,2.68-3.32-2.68s1.5-2.06,3.36-2.06S19.78,37.14,19.78,37.14Z"/><polygon class="cls-5" points="22.02 38.01 17.82 41.5 16.38 39.81 20.01 36.47 22.02 38.01"/><polygon class="cls-5" points="10.61 38.01 14.94 41.5 16.38 39.81 12.98 36.19 10.61 38.01"/><circle class="cls-7" cx="16.37" cy="41.94" r="0.47"/><circle class="cls-7" cx="16.37" cy="43.41" r="0.47"/><path class="cls-8" d="M12.24,6c-.94-1.59-2-4.55,2.24-5.71C19.4-1.07,29.29,2.56,24.42,7.5,18.36,13.65,12.24,6,12.24,6Z"/><path class="cls-9" d="M27.9,27.27c0,5.78-7.24,9.39-10.29,10.65a3.46,3.46,0,0,1-2.65,0C11.92,36.65,4.67,33,4.67,27.27,4.67,19.94,9.87,14,16.29,14S27.9,19.94,27.9,27.27Z"/><path class="cls-9" d="M29.27,21.42c0,7.32-5.52,11.15-12.33,11.15S4,28.83,4,21.51s6.17-13.34,13-13.34S29.27,14.1,29.27,21.42Z"/><path class="cls-10" d="M16.4,29.77l-.06,0-1.48-1.07A.26.26,0,0,1,15,28.2H17.8a.26.26,0,0,1,.15.47l-1.48,1.07Z"/><path class="cls-11" d="M16.24,33c-3-.15-4.19-1.32-4.24-1.37a.34.34,0,1,1,.49-.49,6.08,6.08,0,0,0,3.77,1.17h.29a6.08,6.08,0,0,0,3.77-1.17.34.34,0,1,1,.49.49c-.05,0-1.26,1.23-4.24,1.37Z"/><path class="cls-9" d="M4.4,23.3s-2-2.93-3.76-2S1,29.54,5.17,29C8.16,28.54,4.4,23.3,4.4,23.3Z"/><path class="cls-9" d="M28.4,23.3s2-2.93,3.76-2-.31,8.29-4.52,7.71C24.64,28.54,28.4,23.3,28.4,23.3Z"/><path class="cls-12" d="M16.4,18.23l-2.72,0-.58-4-1,3.92s-2.55.37-3.45.63-3.41,1.36-3.41,1.36l-1,3.19-.9-1.09L3.22,22S2,14.28,6.75,9.25c2.93-3.11,7.78-4.07,9.65-4.1s6.72,1,9.65,4.1c4.74,5,3.53,12.71,3.53,12.71l-.12.32-.9,1.09-1-3.19S25,19.05,24.17,18.81s-3.45-.63-3.45-.63l-1-3.92-.58,4Z"/><path class="cls-12" d="M7,21.57a.33.33,0,0,1-.17-.6,7.24,7.24,0,0,1,3.22-1,4.55,4.55,0,0,1,2.67.9.33.33,0,0,1-.41.51A4,4,0,0,0,10,20.57a6.69,6.69,0,0,0-2.88.94A.33.33,0,0,1,7,21.57Z"/><path class="cls-12" d="M25.8,21.57A.33.33,0,0,0,26,21a7.23,7.23,0,0,0-3.22-1,4.55,4.55,0,0,0-2.67.9.33.33,0,1,0,.41.51,4,4,0,0,1,2.26-.76,6.69,6.69,0,0,1,2.88.94A.32.32,0,0,0,25.8,21.57Z"/><path class="cls-10" d="M1.76,23.59s2.63.69,2.81,2.12-.93,1.18-1.22.69.24-.76.24-.82A4.29,4.29,0,0,0,1.76,23.59Z"/><path class="cls-10" d="M31,23.59s-2.63.69-2.81,2.12.93,1.18,1.22.69-.24-.76-.24-.82A4.29,4.29,0,0,1,31,23.59Z"/><ellipse class="cls-13" cx="9.61" cy="27.02" rx="2.5" ry="1.01"/><ellipse class="cls-13" cx="23.19" cy="27.02" rx="2.5" ry="1.01"/><path class="cls-14" d="M8.27,27.44h0a.08.08,0,0,1,0-.12L9,26.55a.08.08,0,0,1,.12,0h0a.08.08,0,0,1,0,.12l-.78.78A.08.08,0,0,1,8.27,27.44Z"/><path class="cls-14" d="M9.18,27.44h0a.09.09,0,0,1,0-.12l.78-.78a.08.08,0,0,1,.12,0h0a.08.08,0,0,1,0,.12l-.78.78A.08.08,0,0,1,9.18,27.44Z"/><path class="cls-14" d="M10.09,27.44h0a.09.09,0,0,1,0-.12l.78-.78a.09.09,0,0,1,.12,0h0a.09.09,0,0,1,0,.12l-.78.78A.08.08,0,0,1,10.09,27.44Z"/><path class="cls-14" d="M21.82,27.44h0a.08.08,0,0,1,0-.12l.78-.78a.08.08,0,0,1,.12,0h0a.08.08,0,0,1,0,.12l-.78.78A.08.08,0,0,1,21.82,27.44Z"/><path class="cls-14" d="M22.73,27.44h0a.08.08,0,0,1,0-.12l.78-.78a.08.08,0,0,1,.12,0h0a.08.08,0,0,1,0,.12l-.78.78A.08.08,0,0,1,22.73,27.44Z"/><path class="cls-14" d="M23.63,27.44h0a.08.08,0,0,1,0-.12l.78-.78a.08.08,0,0,1,.12,0h0a.09.09,0,0,1,0,.12l-.78.78A.08.08,0,0,1,23.63,27.44Z"/><circle class="cls-15" cx="22.73" cy="23.73" r="1.49"/><circle class="cls-5" cx="22.14" cy="23.2" r="0.53"/><circle class="cls-15" cx="10.59" cy="23.64" r="1.5"/><circle class="cls-5" cx="10" cy="23.11" r="0.53"/><path class="cls-16" d="M12,73.36a1.27,1.27,0,0,1,.6,1.76c-.54,1.27-1.19,2.46-2.23,2.46-1.92,0-2.64,0-2.41-1.58s1.63-2.07,2.69-2.72S11.57,72.95,12,73.36Z"/><path class="cls-1" d="M10.28,74.53l.1.36c1.36,0,2.42-.41,2.49-1.76L14.6,57.85l-6.87-.76L9.14,71.73C9.21,73.08,8.92,74.53,10.28,74.53Z"/><polyline class="cls-17" points="8.04 39.81 4.14 45.85 11.96 45.94"/><path class="cls-18" d="M11.77,46.77a1.49,1.49,0,0,0,1.07.27c.58-.08,1.37-.35,1.23-1.24s.21-.79.21-.79.9.33,1-.43c.3-1.58-.87-3.61-2.4-2.61C11,43.25,9.93,45.44,11.77,46.77Z"/><polyline class="cls-17" points="24.92 40.41 31.48 42.96 31.48 48.95"/><path class="cls-18" d="M32.83,50.61A2.74,2.74,0,0,1,32.64,52a1.74,1.74,0,0,1-2.32.51c-.6-.54.28-.92-.12-1.51-.28-.42,0,.7-.65.7-.34,0-.71-.9,0-1.7s.27-1.07,1.44-1.27C32.34,48.5,32.8,49,32.83,50.61Z"/><path class="cls-19" d="M23.13,6.95a3.9,3.9,0,0,0-1.46-2.3,10.27,10.27,0,0,0-6.22-2.19,7.34,7.34,0,0,0-5.33,2.05A3.84,3.84,0,0,0,9,6.66l-3.62,24a4,4,0,0,0,4.07,4.48l1.21.78a10.53,10.53,0,0,0,10.11.68l3.14-1.46a4,4,0,0,0,4-4.68Z"/><path class="cls-19" d="M10.21,6.09C9.13,4.49,7.95,1.53,12.81.37,18.49-1,29.94,2.65,24.31,7.58,17.29,13.74,10.21,6.09,10.21,6.09Z"/><path class="cls-18" d="M28,27.35c0,5.78-7.24,9.39-10.29,10.65a3.46,3.46,0,0,1-2.65,0C12,36.74,4.77,33.13,4.77,27.35,4.77,20,10,14.09,16.38,14.09S28,20,28,27.35Z"/><path class="cls-18" d="M29.36,21.51c0,7.32-5.52,11.15-12.33,11.15S4,28.92,4,21.6,10.21,8.25,17,8.25,29.36,14.19,29.36,21.51Z"/><path class="cls-20" d="M16.5,29.85l-.06,0-1.48-1.07a.26.26,0,0,1,.15-.47h2.79a.26.26,0,0,1,.15.47l-1.48,1.07Z"/><path class="cls-12" d="M16.33,33.06c-3-.15-4.19-1.32-4.24-1.37a.34.34,0,1,1,.49-.49,6.08,6.08,0,0,0,3.77,1.17h.29a6.08,6.08,0,0,0,3.77-1.17.34.34,0,1,1,.49.49c-.05.05-1.26,1.23-4.24,1.37Z"/><path class="cls-18" d="M4.5,23.38s-2-2.93-3.76-2S1.05,29.62,5.26,29C8.26,28.63,4.5,23.38,4.5,23.38Z"/><path class="cls-18" d="M28.49,23.38s2-2.93,3.76-2-.31,8.29-4.52,7.71C24.73,28.63,28.49,23.38,28.49,23.38Z"/><path class="cls-21" d="M19.8,14.35l1,3.92s2.55.37,3.45.63,3.41,1.36,3.41,1.36l1,3.19.9-1.09.12-.32s1.21-7.68-3.53-12.71c-2.93-3.11-7.78-4.07-9.65-4.1s-6.72,1-9.65,4.1C2.11,14.36,3.31,22,3.31,22l.12.32.9,1.09,1-3.19s2.59-1.12,3.41-1.36S15.95,17,15.95,17Z"/><path class="cls-21" d="M7.09,21.65a.33.33,0,0,1-.17-.6,7.24,7.24,0,0,1,3.22-1,4.55,4.55,0,0,1,2.67.9.33.33,0,0,1-.41.51,4,4,0,0,0-2.26-.76,6.69,6.69,0,0,0-2.88.94A.33.33,0,0,1,7.09,21.65Z"/><path class="cls-21" d="M25.9,21.65a.33.33,0,0,0,.17-.6,7.23,7.23,0,0,0-3.22-1,4.55,4.55,0,0,0-2.67.9.33.33,0,1,0,.41.51,4,4,0,0,1,2.26-.76,6.69,6.69,0,0,1,2.88.94A.32.32,0,0,0,25.9,21.65Z"/><path class="cls-12" d="M1.85,23.67s2.63.69,2.81,2.12-.93,1.18-1.22.69.24-.76.24-.82A4.29,4.29,0,0,0,1.85,23.67Z"/><path class="cls-12" d="M31.14,23.67s-2.63.69-2.81,2.12.93,1.18,1.22.69-.24-.76-.24-.82A4.29,4.29,0,0,1,31.14,23.67Z"/><ellipse class="cls-13" cx="9.71" cy="27.11" rx="2.5" ry="1.01"/><ellipse class="cls-13" cx="23.28" cy="27.11" rx="2.5" ry="1.01"/><path class="cls-14" d="M8.37,27.53h0a.08.08,0,0,1,0-.12l.78-.78a.08.08,0,0,1,.12,0h0a.08.08,0,0,1,0,.12l-.78.78A.08.08,0,0,1,8.37,27.53Z"/><path class="cls-14" d="M9.28,27.53h0a.09.09,0,0,1,0-.12l.78-.78a.08.08,0,0,1,.12,0h0a.08.08,0,0,1,0,.12l-.78.78A.08.08,0,0,1,9.28,27.53Z"/><path class="cls-14" d="M10.18,27.53h0a.09.09,0,0,1,0-.12l.78-.78a.09.09,0,0,1,.12,0h0a.09.09,0,0,1,0,.12l-.78.78A.09.09,0,0,1,10.18,27.53Z"/><path class="cls-14" d="M21.91,27.53h0a.08.08,0,0,1,0-.12l.78-.78a.08.08,0,0,1,.12,0h0a.08.08,0,0,1,0,.12l-.78.78A.08.08,0,0,1,21.91,27.53Z"/><path class="cls-14" d="M22.82,27.53h0a.08.08,0,0,1,0-.12l.78-.78a.08.08,0,0,1,.12,0h0a.08.08,0,0,1,0,.12l-.78.78A.08.08,0,0,1,22.82,27.53Z"/><path class="cls-14" d="M23.73,27.53h0a.08.08,0,0,1,0-.12l.78-.78a.08.08,0,0,1,.12,0h0a.09.09,0,0,1,0,.12l-.78.78A.08.08,0,0,1,23.73,27.53Z"/><circle class="cls-15" cx="22.83" cy="23.82" r="1.49"/><circle class="cls-5" cx="22.24" cy="23.29" r="0.53"/><circle class="cls-15" cx="10.68" cy="23.73" r="1.5"/><circle class="cls-5" cx="10.09" cy="23.2" r="0.53"/><path class="cls-16" d="M20.31,73.36a1.27,1.27,0,0,0-.6,1.76c.54,1.27,1.19,2.46,2.23,2.46,1.92,0,2.64,0,2.41-1.58s-1.63-2.07-2.69-2.72S20.75,72.95,20.31,73.36Z"/><path class="cls-1" d="M22.05,74.53l-.1.36c-1.36,0-2.42-.41-2.49-1.76L17.73,57.85l6.87-.76L23.19,71.73C23.12,73.08,23.41,74.53,22.05,74.53Z"/></g></g></svg>