<svg xmlns="http://www.w3.org/2000/svg" xmlns:xlink="http://www.w3.org/1999/xlink" viewBox="0 0 29.74 59.19"><defs><style>.cls-1{fill:#ebebeb;}.cls-2{fill:#bc8031;stroke:#bc8031;stroke-miterlimit:10;}.cls-3{fill:#323232;}.cls-4{clip-path:url(#clip-path);}.cls-5{clip-path:url(#clip-path-2);}.cls-6{fill:#f96b8a;}.cls-11,.cls-7{fill:#e2826d;}.cls-8{fill:#f4b8ac;}.cls-9{fill:#f25a82;}.cls-10{fill:#d26d5a;}.cls-11{opacity:0.2;}.cls-12{fill:#383d46;}.cls-13{fill:#fff;}</style><clipPath id="clip-path"><path class="cls-1" d="M17.4,55a1.14,1.14,0,0,0-.53,1.58c.49,1.14,1.07,2.2,2,2.2,1.72,0,2.37,0,2.16-1.42S19.56,55.55,18.6,55,17.79,54.67,17.4,55Z"/></clipPath><clipPath id="clip-path-2"><path class="cls-1" d="M12.76,55a1.14,1.14,0,0,1,.53,1.58c-.49,1.14-1.07,2.2-2,2.2-1.72,0-2.37,0-2.16-1.42S10.6,55.55,11.55,55,12.36,54.67,12.76,55Z"/></clipPath></defs><title>pep6</title><g id="Capa_2" data-name="Capa 2"><g id="personals"><path class="cls-2" d="M3.86,24.2l.07,12.35,21.65.56,1.11-20.54S4.35,15.18,3.86,24.2Z"/><path class="cls-3" d="M22.82,47.69c0-1.07-.87-4.14-1.95-4.14H9.53c-1.08,0-1.95,3.07-1.95,4.14h0a1.27,1.27,0,0,0,0,.18c.08,1.57,3.45,2.83,7.6,2.83s7.61-1.29,7.61-2.88h0a.68.68,0,0,0,0-.12Z"/><path class="cls-1" d="M17.4,55a1.14,1.14,0,0,0-.53,1.58c.49,1.14,1.07,2.2,2,2.2,1.72,0,2.37,0,2.16-1.42S19.56,55.55,18.6,55,17.79,54.67,17.4,55Z"/><g class="cls-4"><path class="cls-1" d="M21,56.64l.41.78a1,1,0,0,1-.18,1.16l-.07.07a1.83,1.83,0,0,1-1.31.52H18.69a1.77,1.77,0,0,1-1.46-.65l-.09-.12a1,1,0,0,1,0-1.11l.61-1A1.64,1.64,0,0,1,19,55.71h1C20.48,55.71,20.85,56.29,21,56.64Z"/><path class="cls-1" d="M20.51,55.6s1.6,2.6.16,2.74-2.32.26-2.92-.35-1-1.07-1-1.51-.09-1.86,1.16-1.74S20,54.72,20.51,55.6Z"/></g><path class="cls-3" d="M19.4,56.66h0c2,0,3.39-2.13,3.39-2.13a2.15,2.15,0,0,0,.29-1.59l-1.68-4-6-.05,3.67,4a1.1,1.1,0,0,1-.12,1.3l-1.38.27a1,1,0,0,0-.16,1.36A2.44,2.44,0,0,0,19.4,56.66Z"/><path class="cls-1" d="M12.76,55a1.14,1.14,0,0,1,.53,1.58c-.49,1.14-1.07,2.2-2,2.2-1.72,0-2.37,0-2.16-1.42S10.6,55.55,11.55,55,12.36,54.67,12.76,55Z"/><g class="cls-5"><path class="cls-1" d="M9.12,56.64l-.41.78a1,1,0,0,0,.18,1.16l.07.07a1.83,1.83,0,0,0,1.31.52h1.19a1.77,1.77,0,0,0,1.46-.65l.09-.12a1,1,0,0,0,0-1.11l-.61-1a1.64,1.64,0,0,0-1.28-.61h-1C9.68,55.71,9.31,56.29,9.12,56.64Z"/><path class="cls-1" d="M9.65,55.6S8,58.2,9.49,58.34s2.32.26,2.92-.35,1-1.07,1-1.51.09-1.86-1.16-1.74S10.14,54.72,9.65,55.6Z"/></g><path class="cls-3" d="M10.76,56.66h0c-2,0-3.39-2.13-3.39-2.13a2.15,2.15,0,0,1-.29-1.59l1.68-4,6-.05-3.67,4a1.1,1.1,0,0,0,.12,1.3l1.38.27a1,1,0,0,1,.16,1.36A2.44,2.44,0,0,1,10.76,56.66Z"/><path class="cls-6" d="M23.91,47.52l-7.3,1.36-1.27-1.69-1.16,1.69L6.81,47.52l.37-4.85V33.76a9.72,9.72,0,0,1,5.95-2.53H17.5a10.11,10.11,0,0,1,6,2.53v8.91Z"/><path class="cls-7" d="M17.66,31.33,15.31,34.6l-2-3.27A3.3,3.3,0,0,1,15.47,30,3.3,3.3,0,0,1,17.66,31.33Z"/><path class="cls-8" d="M8.88,44.25a.88.88,0,0,1-1.23-.17L4.4,39.81a.88.88,0,0,1-.06-1l1.72-3a.88.88,0,1,1,1.52.88L6.15,39.22,9,43A.88.88,0,0,1,8.88,44.25Z"/><path class="cls-9" d="M4.6,36.34s.05.68,1.14,1.41a3.1,3.1,0,0,0,1.9.65l1.68-3.29A1.29,1.29,0,0,0,9,33.33l-.15-.1A1.29,1.29,0,0,0,7,33.57Z"/><path class="cls-8" d="M8.16,45.35a2.45,2.45,0,0,0,.88.89,1.56,1.56,0,0,0,1.93-.9c.14-.72-.7-.51-.74-1.14,0-.46.36.51.84.15.24-.18,0-1-.9-1.23C9.41,43,9.4,42.51,8.46,43,7.36,43.58,7.33,44.21,8.16,45.35Z"/><path class="cls-8" d="M21.5,44.25a.88.88,0,0,0,1.23-.17L26,39.81a.88.88,0,0,0,.06-1l-1.72-3a.88.88,0,1,0-1.52.88l1.43,2.47L21.33,43A.88.88,0,0,0,21.5,44.25Z"/><path class="cls-9" d="M25.77,36.34s-.05.68-1.14,1.41a3.1,3.1,0,0,1-1.9.65l-1.68-3.29a1.29,1.29,0,0,1,.34-1.79l.15-.1a1.29,1.29,0,0,1,1.79.34Z"/><path class="cls-8" d="M22.22,45.35a2.45,2.45,0,0,1-.88.89,1.56,1.56,0,0,1-1.93-.9c-.14-.72.7-.51.74-1.14,0-.46-.36.51-.84.15-.24-.18,0-1,.9-1.23C21,43,21,42.51,21.92,43,23,43.58,23.05,44.21,22.22,45.35Z"/><ellipse class="cls-8" cx="14.66" cy="17.42" rx="11.54" ry="7.91"/><path class="cls-8" d="M25.43,21.17c0,6.56-4.66,10-10.4,10s-10.4-3.43-10.4-10S9.28,9.3,15,9.3,25.43,14.62,25.43,21.17Z"/><path class="cls-7" d="M14.87,24.83l.06,0,1.34-1a.23.23,0,0,0-.14-.43H13.6a.23.23,0,0,0-.14.43l1.34,1Z"/><path class="cls-10" d="M15,27.73a6,6,0,0,0,3.85-1.25.31.31,0,1,0-.44-.44A5.51,5.51,0,0,1,15,27.11h-.26A5.51,5.51,0,0,1,11.32,26a.31.31,0,1,0-.44.44,6,6,0,0,0,3.85,1.25Z"/><path class="cls-8" d="M25.75,19s1.78-2.66,3.41-1.86-.28,7.51-4.1,7C22.34,23.71,25.75,19,25.75,19Z"/><path class="cls-8" d="M4,19S2.21,16.3.58,17.1s.28,7.51,4.1,7C7.4,23.71,4,19,4,19Z"/><path class="cls-2" d="M22.25,14.34c3.24-.6.85-2.08,2.67,1.75a21.86,21.86,0,0,1,1,2.93l.81-1,.73-.74s4.24-3.93-2.91-12C22,2.41,18.12.5,14.89.5,13.19.5,10.37.72,7.34,5c-9.81,1-5,12.24-5,12.24L3,18l.81,1,.63-2A10.33,10.33,0,0,1,6,14.29,2.54,2.54,0,0,1,7.78,13c.33,0,8.44,1.42,11.69,1.35A18.81,18.81,0,0,0,22.25,14.34Z"/><path class="cls-2" d="M23.39,17.39a.3.3,0,0,0,.16-.55,6.56,6.56,0,0,0-2.92-.94,4.13,4.13,0,0,0-2.42.82.3.3,0,0,0,.37.46,3.59,3.59,0,0,1,2-.69,6.06,6.06,0,0,1,2.61.86A.3.3,0,0,0,23.39,17.39Z"/><path class="cls-2" d="M6.35,17.39a.3.3,0,0,1-.16-.55,6.56,6.56,0,0,1,2.92-.94,4.13,4.13,0,0,1,2.42.82.3.3,0,1,1-.37.46,3.59,3.59,0,0,0-2-.69,6.06,6.06,0,0,0-2.61.86A.29.29,0,0,1,6.35,17.39Z"/><path class="cls-7" d="M28.14,19.22s-2.38.62-2.55,1.92.84,1.07,1.1.62-.21-.69-.21-.74A3.89,3.89,0,0,1,28.14,19.22Z"/><path class="cls-7" d="M1.6,19.22s2.38.62,2.55,1.92-.84,1.07-1.1.62.21-.69.21-.74A3.89,3.89,0,0,0,1.6,19.22Z"/><ellipse class="cls-11" cx="21.03" cy="22.34" rx="2.26" ry="0.91"/><ellipse class="cls-11" cx="8.71" cy="22.34" rx="2.26" ry="0.91"/><circle class="cls-12" cx="9.13" cy="19.36" r="1.35"/><circle class="cls-12" cx="20.5" cy="19.36" r="1.35"/><circle class="cls-13" cx="9.66" cy="18.88" r="0.48"/><path class="cls-13" d="M19.62,18.53a.5.5,0,0,0,.7.7A.5.5,0,0,0,19.62,18.53Z"/></g></g></svg>