<svg xmlns="http://www.w3.org/2000/svg" xmlns:xlink="http://www.w3.org/1999/xlink" viewBox="0 0 29.99 59.72"><defs><style>.cls-1{fill:#a6a6a6;}.cls-2{fill:#383d46;}.cls-3{clip-path:url(#clip-path);}.cls-4{clip-path:url(#clip-path-2);}.cls-5{fill:#00caee;}.cls-14,.cls-6{fill:#e0806e;}.cls-7{fill:#f2b6aa;}.cls-8{fill:#da1f4c;}.cls-9{fill:#98032c;}.cls-10{fill:#00b2cd;}.cls-11{fill:#d06d5a;}.cls-12,.cls-13{fill:#161614;stroke:#161614;stroke-miterlimit:10;}.cls-12{stroke-width:1.01px;}.cls-13{stroke-width:0.44px;}.cls-14{opacity:0.2;}.cls-15{fill:#fff;}</style><clipPath id="clip-path"><path class="cls-1" d="M16.61,55.52a1.15,1.15,0,0,0-.54,1.59c.49,1.15,1.08,2.23,2,2.23,1.73,0,2.39,0,2.18-1.43S18.79,56,17.83,55.45,17,55.15,16.61,55.52Z"/></clipPath><clipPath id="clip-path-2"><path class="cls-1" d="M11.92,55.52a1.15,1.15,0,0,1,.54,1.59c-.49,1.15-1.08,2.23-2,2.23-1.74,0-2.39,0-2.18-1.43S9.74,56,10.7,55.45,11.52,55.15,11.92,55.52Z"/></clipPath></defs><title>pep7</title><g id="Capa_2" data-name="Capa 2"><g id="personals"><path class="cls-2" d="M22.08,48.1c0-1.08-.88-4.18-2-4.18H8.66c-1.09,0-2,3.1-2,4.18h0a1.25,1.25,0,0,0,0,.18c.08,1.58,3.49,2.86,7.68,2.86s7.69-1.3,7.69-2.92h0a.72.72,0,0,0,0-.12Z"/><path class="cls-1" d="M16.61,55.52a1.15,1.15,0,0,0-.54,1.59c.49,1.15,1.08,2.23,2,2.23,1.73,0,2.39,0,2.18-1.43S18.79,56,17.83,55.45,17,55.15,16.61,55.52Z"/><g class="cls-3"><path class="cls-1" d="M20.28,57.14l.41.79a1,1,0,0,1-.19,1.18l-.07.07a1.85,1.85,0,0,1-1.33.53h-1.2a1.79,1.79,0,0,1-1.47-.66l-.09-.12a1,1,0,0,1,0-1.12l.62-1a1.66,1.66,0,0,1,1.29-.62h1C19.72,56.2,20.1,56.78,20.28,57.14Z"/><path class="cls-1" d="M19.75,56.09s1.62,2.63.16,2.77-2.34.26-3-.35-1-1.08-1.06-1.52-.09-1.88,1.17-1.76S19.26,55.19,19.75,56.09Z"/></g><path class="cls-2" d="M18.63,57.16h0C20.68,57.16,22,55,22,55a2.17,2.17,0,0,0,.29-1.61l-1.7-4-6.09-.05,3.7,4.06a1.11,1.11,0,0,1-.12,1.32L16.75,55a1,1,0,0,0-.16,1.37A2.46,2.46,0,0,0,18.63,57.16Z"/><path class="cls-1" d="M11.92,55.52a1.15,1.15,0,0,1,.54,1.59c-.49,1.15-1.08,2.23-2,2.23-1.74,0-2.39,0-2.18-1.43S9.74,56,10.7,55.45,11.52,55.15,11.92,55.52Z"/><g class="cls-4"><path class="cls-1" d="M8.25,57.14l-.41.79A1,1,0,0,0,8,59.1l.07.07a1.84,1.84,0,0,0,1.33.53h1.2a1.79,1.79,0,0,0,1.47-.66l.09-.12a1,1,0,0,0,0-1.12l-.62-1a1.66,1.66,0,0,0-1.29-.62h-1C8.81,56.2,8.43,56.78,8.25,57.14Z"/><path class="cls-1" d="M8.78,56.09s-1.62,2.63-.16,2.77,2.34.26,3-.35,1-1.08,1.05-1.52.09-1.88-1.17-1.76S9.27,55.19,8.78,56.09Z"/></g><path class="cls-2" d="M9.9,57.16h0C7.85,57.16,6.48,55,6.48,55a2.17,2.17,0,0,1-.29-1.61l1.7-4L14,49.31l-3.7,4.06a1.11,1.11,0,0,0,.12,1.32l1.39.27a1,1,0,0,1,.16,1.37A2.47,2.47,0,0,1,9.9,57.16Z"/><path class="cls-5" d="M23.19,47.92,15.81,49.3l-1.29-1.71L13.35,49.3,5.91,47.92,6.28,43V34a9.82,9.82,0,0,1,6-2.55h4.42A10.22,10.22,0,0,1,22.81,34v9Z"/><path class="cls-6" d="M16.87,31.57l-2.37,3.3-2-3.3a3.33,3.33,0,0,1,2.21-1.36A3.33,3.33,0,0,1,16.87,31.57Z"/><path class="cls-7" d="M8,44.62a.89.89,0,0,1-1.24-.17L3.47,40.13a.89.89,0,0,1-.06-1l1.74-3A.89.89,0,1,1,6.69,37l-1.44,2.5,2.92,3.84A.89.89,0,0,1,8,44.62Z"/><polygon class="cls-8" points="8.5 38.08 8.5 46.84 14.18 48.98 14.96 41.57 14.18 39.56 8.5 38.08"/><polygon class="cls-8" points="20.76 38.08 20.76 46.84 15.08 48.98 14.3 41.57 15.08 39.56 20.76 38.08"/><rect class="cls-9" x="14.18" y="39.56" width="0.95" height="9.42"/><path class="cls-10" d="M3.68,36.63s.05.68,1.15,1.43a3.14,3.14,0,0,0,1.92.66l1.7-3.32a1.3,1.3,0,0,0-.35-1.81L8,33.48a1.3,1.3,0,0,0-1.81.34Z"/><path class="cls-7" d="M7.28,45.73a2.48,2.48,0,0,0,.89.9,1.58,1.58,0,0,0,1.95-.91c.14-.72-.71-.51-.75-1.15,0-.46.37.52.85.15.24-.18,0-1-.91-1.24-.78-.17-.78-.62-1.73-.12C6.46,43.94,6.43,44.58,7.28,45.73Z"/><path class="cls-7" d="M20.75,44.62A.89.89,0,0,0,22,44.45l3.28-4.32a.89.89,0,0,0,.06-1l-1.74-3a.89.89,0,0,0-1.54.89l1.44,2.5-2.93,3.84A.89.89,0,0,0,20.75,44.62Z"/><path class="cls-10" d="M25.07,36.63s-.05.68-1.15,1.43a3.14,3.14,0,0,1-1.92.66l-1.7-3.32a1.3,1.3,0,0,1,.34-1.81l.15-.1a1.3,1.3,0,0,1,1.81.34Z"/><path class="cls-7" d="M21.48,45.73a2.48,2.48,0,0,1-.89.9,1.58,1.58,0,0,1-1.95-.91c-.14-.72.71-.51.75-1.15,0-.46-.36.52-.85.15-.24-.18,0-1,.91-1.24.78-.17.78-.62,1.73-.12C22.29,43.94,22.32,44.58,21.48,45.73Z"/><ellipse class="cls-7" cx="14.87" cy="17.57" rx="7.99" ry="11.67" transform="translate(-3.79 31.04) rotate(-85.58)"/><path class="cls-7" d="M25.43,22.19c-.51,6.61-5.47,9.7-11.26,9.25S4,27.17,4.47,20.57,10.09,9,15.88,9.41,25.94,15.58,25.43,22.19Z"/><path class="cls-6" d="M14.51,25l.06,0L16,24.15a.24.24,0,0,0-.1-.44l-2.55-.2a.24.24,0,0,0-.17.42L14.45,25Z"/><path class="cls-11" d="M14.43,28a6,6,0,0,0,4-1,.32.32,0,1,0-.41-.48,5.58,5.58,0,0,1-3.53.81l-.26,0A5.58,5.58,0,0,1,10.83,26a.32.32,0,0,0-.48.41A6,6,0,0,0,14.13,28Z"/><path class="cls-7" d="M25.92,20s2-2.54,3.58-1.6-.87,7.55-4.68,6.72C22.12,24.5,25.92,20,25.92,20Z"/><path class="cls-7" d="M4,18.28S2.42,15.47.71,16.15s-.3,7.59,3.59,7.36C7.07,23.34,4,18.28,4,18.28Z"/><path class="cls-12" d="M5.29,13c-.52.91-1.49,1.62-1.3,5.31l-.74-1.06-.68-.8S0,10,4,4.77s16.06-5.62,18.78-1c9.81,1.78,5,14.69,5,14.69l-.73.7-.9.93c-.16-.7-3-6-2.63-7.53C23.25,12.46,3.82,17.56,5.29,13Z"/><path class="cls-13" d="M23.58,18.64a.3.3,0,0,0,.2-.54,6.62,6.62,0,0,0-2.87-1.18,4.17,4.17,0,0,0-2.5.64.3.3,0,1,0,.34.49,3.63,3.63,0,0,1,2.12-.53,6.13,6.13,0,0,1,2.56,1.07A.29.29,0,0,0,23.58,18.64Z"/><path class="cls-13" d="M6.4,17.31a.3.3,0,0,1-.11-.56,6.63,6.63,0,0,1,3-.72,4.17,4.17,0,0,1,2.37,1,.3.3,0,1,1-.41.43,3.63,3.63,0,0,0-2-.85,6.13,6.13,0,0,0-2.69.66A.29.29,0,0,1,6.4,17.31Z"/><path class="cls-6" d="M28.32,20.43s-2.45.44-2.72,1.74.76,1.14,1.06.72-.16-.71-.16-.76A3.93,3.93,0,0,1,28.32,20.43Z"/><path class="cls-6" d="M1.57,18.36S3.92,19.18,4,20.5s-.93,1-1.16.54.27-.68.27-.73A3.93,3.93,0,0,0,1.57,18.36Z"/><ellipse class="cls-14" cx="20.9" cy="23.01" rx="0.92" ry="2.29" transform="translate(-3.65 42.08) rotate(-85.58)"/><ellipse class="cls-14" cx="8.5" cy="22.06" rx="0.92" ry="2.29" transform="translate(-14.15 28.83) rotate(-85.58)"/><circle class="cls-2" cx="9.15" cy="19.09" r="1.36" transform="matrix(0.08, -1, 1, 0.08, -10.59, 26.74)"/><circle class="cls-2" cx="20.61" cy="19.97" r="1.36" transform="matrix(0.08, -1, 1, 0.08, -0.89, 38.98)"/><circle class="cls-15" cx="9.26" cy="19.77" r="0.48" transform="matrix(0.08, -1, 1, 0.08, -11.16, 27.48)"/><path class="cls-15" d="M20.19,20.26a.5.5,0,0,0,.65.76A.5.5,0,0,0,20.19,20.26Z"/></g></g></svg>