<svg xmlns="http://www.w3.org/2000/svg" xmlns:xlink="http://www.w3.org/1999/xlink" viewBox="0 0 31.44 58.62"><defs><style>.cls-1{fill:#a6a6a6;}.cls-2{fill:#003e8b;}.cls-3{clip-path:url(#clip-path);}.cls-4{clip-path:url(#clip-path-2);}.cls-5{fill:#ffb327;}.cls-13,.cls-6{fill:#e0806e;}.cls-7{fill:#f2b6aa;}.cls-8{fill:#c47800;}.cls-9{fill:#451e00;stroke:#451e00;}.cls-11,.cls-12,.cls-9{stroke-miterlimit:10;}.cls-11,.cls-9{stroke-width:0.99px;}.cls-10{fill:#d06d5a;}.cls-11,.cls-12{fill:#5d3000;stroke:#5d3000;}.cls-12{stroke-width:0.44px;}.cls-13{opacity:0.2;}.cls-14{fill:#383d46;}</style><clipPath id="clip-path"><path class="cls-1" d="M16.9,54.51a1.13,1.13,0,0,0-.53,1.56c.48,1.13,1.06,2.19,2,2.19,1.7,0,2.35,0,2.14-1.4S19,55,18.1,54.44,17.29,54.14,16.9,54.51Z"/></clipPath><clipPath id="clip-path-2"><path class="cls-1" d="M12.3,54.51a1.13,1.13,0,0,1,.53,1.56c-.48,1.13-1.06,2.19-2,2.19-1.7,0-2.35,0-2.14-1.4S10.16,55,11.1,54.44,11.91,54.14,12.3,54.51Z"/></clipPath></defs><title>pep8</title><g id="Capa_2" data-name="Capa 2"><g id="personals"><path class="cls-2" d="M22.27,47.22c0-1.06-.86-4.11-1.93-4.11H9.1c-1.07,0-1.93,3-1.93,4.11h0a1.24,1.24,0,0,0,0,.18c.08,1.55,3.42,2.8,7.54,2.8s7.54-1.28,7.54-2.86h0a.71.71,0,0,0,0-.12Z"/><path class="cls-1" d="M16.9,54.51a1.13,1.13,0,0,0-.53,1.56c.48,1.13,1.06,2.19,2,2.19,1.7,0,2.35,0,2.14-1.4S19,55,18.1,54.44,17.29,54.14,16.9,54.51Z"/><g class="cls-3"><path class="cls-1" d="M20.51,56.09l.4.78A1,1,0,0,1,20.73,58l-.07.07a1.81,1.81,0,0,1-1.3.52H18.19A1.75,1.75,0,0,1,16.74,58l-.08-.12a1,1,0,0,1,0-1.1l.61-1a1.63,1.63,0,0,1,1.27-.61h1C20,55.17,20.33,55.74,20.51,56.09Z"/><path class="cls-1" d="M20,55.06s1.59,2.58.16,2.72-2.3.25-2.9-.35-1-1.06-1-1.5-.09-1.84,1.15-1.73S19.5,54.18,20,55.06Z"/></g><path class="cls-2" d="M18.88,56.11h0c2,0,3.36-2.11,3.36-2.11a2.13,2.13,0,0,0,.29-1.58l-1.67-4-6-.05,3.64,4a1.09,1.09,0,0,1-.11,1.29L17,54a1,1,0,0,0-.15,1.35A2.42,2.42,0,0,0,18.88,56.11Z"/><path class="cls-1" d="M12.3,54.51a1.13,1.13,0,0,1,.53,1.56c-.48,1.13-1.06,2.19-2,2.19-1.7,0-2.35,0-2.14-1.4S10.16,55,11.1,54.44,11.91,54.14,12.3,54.51Z"/><g class="cls-4"><path class="cls-1" d="M8.69,56.09l-.4.78A1,1,0,0,0,8.47,58l.07.07a1.81,1.81,0,0,0,1.3.52H11A1.75,1.75,0,0,0,12.46,58l.09-.12a1,1,0,0,0,0-1.1l-.61-1a1.63,1.63,0,0,0-1.27-.61h-1C9.24,55.17,8.87,55.74,8.69,56.09Z"/><path class="cls-1" d="M9.22,55.06s-1.59,2.58-.16,2.72,2.3.25,2.9-.35,1-1.06,1-1.5.09-1.84-1.15-1.73S9.7,54.18,9.22,55.06Z"/></g><path class="cls-2" d="M10.32,56.11h0C8.3,56.11,7,54,7,54a2.13,2.13,0,0,1-.29-1.58l1.67-4,6-.05-3.64,4a1.09,1.09,0,0,0,.12,1.29l1.36.27a1,1,0,0,1,.15,1.35A2.42,2.42,0,0,1,10.32,56.11Z"/><path class="cls-5" d="M23.6,47l-7.24,1.35L15.1,46.66l-1.15,1.68L6.65,47,7,42.17V33.33a9.64,9.64,0,0,1,5.9-2.51h4.34a10,10,0,0,1,6,2.51v8.84Z"/><path class="cls-6" d="M17.4,30.93l-2.33,3.24-2-3.24a3.27,3.27,0,0,1,2.17-1.33A3.27,3.27,0,0,1,17.4,30.93Z"/><path class="cls-7" d="M8.45,43.8a.87.87,0,0,1-1.22-.17L4,39.4a.87.87,0,0,1-.06-1l1.71-3a.87.87,0,1,1,1.51.87L5.75,38.81l2.87,3.77A.87.87,0,0,1,8.45,43.8Z"/><path class="cls-8" d="M4.21,36s.05.67,1.13,1.4A3.08,3.08,0,0,0,7.22,38l1.67-3.26A1.28,1.28,0,0,0,8.55,33l-.14-.1a1.28,1.28,0,0,0-1.78.34Z"/><path class="cls-7" d="M7.74,44.89a2.43,2.43,0,0,0,.88.88,1.55,1.55,0,0,0,1.91-.89c.14-.71-.7-.5-.73-1.13,0-.45.36.51.84.15.24-.18,0-1-.9-1.22C9,42.51,9,42.07,8,42.56,6.94,43.13,6.91,43.76,7.74,44.89Z"/><path class="cls-7" d="M29.67,29.83A.87.87,0,0,1,30,31l-2.74,4.57a.87.87,0,0,1-.87.41L23,35.52a.87.87,0,1,1,.25-1.72l2.8.41,2.44-4.07A.87.87,0,0,1,29.67,29.83Z"/><path class="cls-8" d="M24,36.69s.6-.29.88-1.57a3.08,3.08,0,0,0-.1-2l-3.65-.34a1.28,1.28,0,0,0-1.52,1l0,.17a1.28,1.28,0,0,0,1,1.52Z"/><path class="cls-7" d="M30.94,30.09a2.43,2.43,0,0,0,.49-1.14A1.55,1.55,0,0,0,29.9,27.5c-.71.14-.21.83-.78,1.1-.41.19.34-.52-.18-.83-.26-.15-1,.36-.8,1.29.13.77-.28.94.52,1.62S30.2,31.28,30.94,30.09Z"/><path class="cls-9" d="M18.63,7.73S18.93-1.48,8.1.88c-6.65,1.45-9.57,11-6.18,19S3.55,30.68,3.55,30.68s7.15.67,3.51-9.45S18.63,7.73,18.63,7.73Z"/><ellipse class="cls-7" cx="15.71" cy="17.32" rx="7.84" ry="11.45" transform="translate(-3.24 31.01) rotate(-83.64)"/><path class="cls-7" d="M25.91,22.2c-.72,6.47-5.69,9.33-11.35,8.7s-9.88-4.53-9.16-11S11.3,8.72,17,9.35,26.63,15.73,25.91,22.2Z"/><path class="cls-6" d="M15.1,24.64l.06,0,1.43-.81a.23.23,0,0,0-.09-.43L14,23.1a.23.23,0,0,0-.18.4L15,24.6Z"/><path class="cls-10" d="M14.93,27.52a5.91,5.91,0,0,0,3.93-.81.31.31,0,1,0-.39-.48A5.47,5.47,0,0,1,15,26.9l-.26,0a5.47,5.47,0,0,1-3.25-1.42.31.31,0,0,0-.48.39,5.92,5.92,0,0,0,3.65,1.65Z"/><path class="cls-7" d="M26.47,20s2-2.42,3.57-1.45S28.93,26,25.22,25C22.59,24.36,26.47,20,26.47,20Z"/><path class="cls-7" d="M5,17.66s-1.46-2.82-3.16-2.2-.55,7.44,3.28,7.34C7.86,22.72,5,17.66,5,17.66Z"/><path class="cls-11" d="M23.53,15.12c3.26-.24,1.07-2,2.44,2a21.82,21.82,0,0,1,.65,3l.91-.88.8-.65S34.13.46,9.85,4.31C1.13,6.15,3.6,15.83,3.6,15.83l.57.81.69,1.06.84-1.93a10.24,10.24,0,0,1,1.83-2.5A2.52,2.52,0,0,1,9.41,12.2c.33,0,8.17,2.33,11.38,2.61A18.69,18.69,0,0,0,23.53,15.12Z"/><path class="cls-12" d="M24.32,18.24a.29.29,0,0,0,.21-.52,6.5,6.5,0,0,0-2.77-1.25,4.09,4.09,0,0,0-2.48.54.29.29,0,1,0,.32.49,3.56,3.56,0,0,1,2.09-.45,6,6,0,0,1,2.48,1.13A.29.29,0,0,0,24.32,18.24Z"/><path class="cls-12" d="M7.51,16.37a.29.29,0,0,1-.09-.56,6.51,6.51,0,0,1,3-.61,4.09,4.09,0,0,1,2.29,1.07.29.29,0,1,1-.42.41,3.56,3.56,0,0,0-1.94-.9,6,6,0,0,0-2.67.56A.29.29,0,0,1,7.51,16.37Z"/><path class="cls-6" d="M28.8,20.57s-2.42.35-2.73,1.62.71,1.15,1,.74-.13-.7-.13-.75A3.86,3.86,0,0,1,28.8,20.57Z"/><path class="cls-6" d="M2.63,17.65s2.28.88,2.3,2.18-.94,1-1.15.49.29-.66.29-.71A3.86,3.86,0,0,0,2.63,17.65Z"/><ellipse class="cls-13" cx="21.44" cy="22.86" rx="0.91" ry="2.25" transform="translate(-3.66 41.64) rotate(-83.64)"/><ellipse class="cls-13" cx="9.31" cy="21.51" rx="0.91" ry="2.25" transform="translate(-13.1 28.37) rotate(-83.64)"/><path class="cls-14" d="M20,20.38A.18.18,0,0,1,20,20a4,4,0,0,1,1.85-.38,2.54,2.54,0,0,1,1.42.67.18.18,0,0,1-.26.26,2.21,2.21,0,0,0-1.2-.56,3.73,3.73,0,0,0-1.65.35Z"/><path class="cls-14" d="M20,20.68a.48.48,0,0,1-.15-.92,4.31,4.31,0,0,1,2-.41,2.84,2.84,0,0,1,1.6.75.48.48,0,1,1-.69.68,1.92,1.92,0,0,0-1-.47,3.44,3.44,0,0,0-1.49.32A.48.48,0,0,1,20,20.68Z"/><path class="cls-14" d="M8.57,19.1a.18.18,0,0,1-.06-.35,4,4,0,0,1,1.85-.38,2.54,2.54,0,0,1,1.42.67.18.18,0,0,1-.26.26,2.21,2.21,0,0,0-1.2-.56,3.73,3.73,0,0,0-1.65.35Z"/><path class="cls-14" d="M8.53,19.4a.48.48,0,0,1-.15-.92,4.31,4.31,0,0,1,2-.41,2.84,2.84,0,0,1,1.6.75.48.48,0,1,1-.69.68,1.92,1.92,0,0,0-1-.47,3.44,3.44,0,0,0-1.49.32A.48.48,0,0,1,8.53,19.4Z"/></g></g></svg>