<svg xmlns="http://www.w3.org/2000/svg" xmlns:xlink="http://www.w3.org/1999/xlink" viewBox="0 0 31.86 59.78"><defs><style>.cls-1{fill:#e9e9e9;}.cls-2{fill:#323232;}.cls-3{clip-path:url(#clip-path);}.cls-4{clip-path:url(#clip-path-2);}.cls-5{fill:#d6d7db;}.cls-12,.cls-6{fill:#e0806e;}.cls-7{fill:#fff;}.cls-8{fill:#f2b6aa;}.cls-9{fill:#bababa;}.cls-10{fill:#d06d5a;}.cls-11{fill:#a76d00;}.cls-12{opacity:0.2;}.cls-13{fill:#383d46;}</style><clipPath id="clip-path"><path class="cls-1" d="M17.63,55.33A1.22,1.22,0,0,0,17.06,57c.52,1.22,1.14,2.36,2.14,2.36,1.84,0,2.53,0,2.31-1.52s-1.57-2-2.58-2.61S18.05,54.93,17.63,55.33Z"/></clipPath><clipPath id="clip-path-2"><path class="cls-1" d="M12.66,55.33A1.22,1.22,0,0,1,13.23,57c-.52,1.22-1.14,2.36-2.14,2.36-1.84,0-2.54,0-2.31-1.52s1.57-2,2.58-2.61S12.24,54.93,12.66,55.33Z"/></clipPath></defs><title>pep9</title><g id="Capa_2" data-name="Capa 2"><g id="personals"><path class="cls-2" d="M23.43,47.46c0-1.15-.93-4.43-2.09-4.43H9.2c-1.15,0-2.09,3.29-2.09,4.43h0a1.34,1.34,0,0,0,0,.19c.09,1.68,3.7,3,8.14,3s8.15-1.38,8.15-3.09h0a.75.75,0,0,0,0-.13Z"/><path class="cls-1" d="M17.63,55.33A1.22,1.22,0,0,0,17.06,57c.52,1.22,1.14,2.36,2.14,2.36,1.84,0,2.53,0,2.31-1.52s-1.57-2-2.58-2.61S18.05,54.93,17.63,55.33Z"/><g class="cls-3"><path class="cls-1" d="M21.53,57l.44.84a1.06,1.06,0,0,1-.2,1.25l-.07.08a2,2,0,0,1-1.41.56H19a1.89,1.89,0,0,1-1.56-.7l-.09-.13a1,1,0,0,1,0-1.19L18,56.7A1.76,1.76,0,0,1,19.35,56h1C20.93,56,21.33,56.67,21.53,57Z"/><path class="cls-1" d="M21,55.93s1.71,2.78.17,2.93-2.49.27-3.13-.37-1.09-1.14-1.12-1.62-.1-2,1.24-1.86S20.44,55,21,55.93Z"/></g><path class="cls-2" d="M19.77,57.07h0c2.17,0,3.63-2.28,3.63-2.28a2.3,2.3,0,0,0,.31-1.7l-1.8-4.27-6.45-.06,3.93,4.3a1.18,1.18,0,0,1-.12,1.4l-1.47.29a1.09,1.09,0,0,0-.17,1.46A2.61,2.61,0,0,0,19.77,57.07Z"/><path class="cls-1" d="M12.66,55.33A1.22,1.22,0,0,1,13.23,57c-.52,1.22-1.14,2.36-2.14,2.36-1.84,0-2.54,0-2.31-1.52s1.57-2,2.58-2.61S12.24,54.93,12.66,55.33Z"/><g class="cls-4"><path class="cls-1" d="M8.77,57l-.44.84a1.06,1.06,0,0,0,.2,1.25l.07.08a2,2,0,0,0,1.41.56h1.27a1.89,1.89,0,0,0,1.56-.7l.09-.13a1,1,0,0,0,0-1.19l-.66-1.06A1.76,1.76,0,0,0,10.94,56h-1C9.36,56,9,56.67,8.77,57Z"/><path class="cls-1" d="M9.33,55.93s-1.72,2.78-.17,2.93,2.49.27,3.13-.37,1.09-1.14,1.12-1.62.1-2-1.24-1.86S9.85,55,9.33,55.93Z"/></g><path class="cls-2" d="M10.52,57.07h0c-2.17,0-3.63-2.28-3.63-2.28a2.3,2.3,0,0,1-.31-1.7l1.8-4.27,6.45-.06-3.93,4.3a1.18,1.18,0,0,0,.12,1.4l1.47.29a1.08,1.08,0,0,1,.17,1.46A2.61,2.61,0,0,1,10.52,57.07Z"/><path class="cls-5" d="M24.61,47.27l-7.82,1.46-1.36-1.81-1.24,1.81L6.29,47.27l.39-5.2V32.53a10.41,10.41,0,0,1,6.37-2.71h4.68a10.83,10.83,0,0,1,6.47,2.71v9.54Z"/><path class="cls-5" d="M15.43,36.95l4.85-7.29a6.39,6.39,0,0,0-2.49-.5H13.11a6.39,6.39,0,0,0-2.34.44A67.46,67.46,0,0,1,15.43,36.95Z"/><path class="cls-6" d="M17.91,29.93l-2.37,1.87-2.32-1.87a3.53,3.53,0,0,1,2.34-1.44A3.53,3.53,0,0,1,17.91,29.93Z"/><polygon class="cls-7" points="20.96 30.07 16.94 33.42 15.55 31.8 19.03 28.6 20.96 30.07"/><polygon class="cls-7" points="10.02 30.07 14.17 33.42 15.55 31.8 12.29 28.32 10.02 30.07"/><path class="cls-8" d="M7.35,43.84a.94.94,0,0,1-1.28-.36l-2.82-5a.94.94,0,0,1,.08-1l2.26-2.91a.94.94,0,1,1,1.48,1.16L5.19,38.1,7.7,42.56A.94.94,0,0,1,7.35,43.84Z"/><path class="cls-9" d="M4,34.82s0,.72,1,1.67a3.33,3.33,0,0,0,1.92,1l2.26-3.24a1.38,1.38,0,0,0-.1-2l-.14-.13a1.38,1.38,0,0,0-1.95.1Z"/><path class="cls-8" d="M6.43,44.9A2.62,2.62,0,0,0,7.23,46a1.67,1.67,0,0,0,2.18-.67c.25-.74-.67-.64-.62-1.32,0-.49.31.6.87.28.28-.16.17-1.09-.78-1.43-.79-.29-.73-.76-1.8-.38C5.83,42.91,5.7,43.57,6.43,44.9Z"/><path class="cls-8" d="M22.2,44.19A.94.94,0,0,0,23.53,44l3.63-4.46a.94.94,0,0,0,.1-1L25.51,35.3a.94.94,0,1,0-1.66.89l1.45,2.7-3.23,4A.94.94,0,0,0,22.2,44.19Z"/><path class="cls-9" d="M27.06,35.87s-.08.72-1.27,1.48a3.33,3.33,0,0,1-2.06.63L22,34.39a1.38,1.38,0,0,1,.43-1.91l.16-.1a1.38,1.38,0,0,1,1.9.43Z"/><path class="cls-8" d="M22.93,45.39a2.62,2.62,0,0,1-1,.92,1.67,1.67,0,0,1-2-1c-.12-.77.77-.52.83-1.2,0-.49-.4.54-.91.13-.25-.2,0-1.1,1-1.28.83-.15.85-.63,1.84-.07C23.85,43.52,23.87,44.2,22.93,45.39Z"/><ellipse class="cls-8" cx="15.71" cy="15.66" rx="12.37" ry="8.47" transform="matrix(1, 0, 0, 1, -0.02, 0.02)"/><path class="cls-8" d="M27.25,19.67c0,7-5,10.71-11.13,10.71S5,26.72,5,19.69,9.94,7,16.09,7,27.24,12.64,27.25,19.67Z"/><path class="cls-6" d="M15.94,23.59l.06,0,1.44-1a.25.25,0,0,0-.15-.46H14.58a.25.25,0,0,0-.15.46l1.44,1Z"/><path class="cls-10" d="M16.1,26.7c2.89-.15,4.07-1.29,4.12-1.34a.33.33,0,1,0-.47-.47A5.91,5.91,0,0,1,16.08,26H15.8a5.91,5.91,0,0,1-3.67-1.14.33.33,0,1,0-.47.47s1.23,1.19,4.12,1.33Z"/><path class="cls-8" d="M27.58,17.29s1.91-2.85,3.65-2-.3,8-4.39,7.49C23.94,22.39,27.58,17.29,27.58,17.29Z"/><path class="cls-8" d="M4.28,17.31s-1.91-2.85-3.66-2,.31,8,4.4,7.48C7.93,22.41,4.28,17.31,4.28,17.31Z"/><path class="cls-11" d="M19.54,12.47c3.71-.74,3.66-1.93,4.26-2.29,3.31.47,3.62,6.13,3.94,7.19l.87-1.06.78-.79s.6-7.8-1.84-13c-.3-.63-1.46.9-1.73.77s-.2-.72-1.16-1.8c-.55-.62-1.66.93-2.31.4A29.47,29.47,0,0,0,19.58.09c-.86-.51-3,1.47-3.89,1.14C14.38.75,14.12.38,12.88.39c-.8,0-1.42,1.52-2.6,2-.86.32-2.06-1.07-3-.19-.74.66-1.09,2.09-1.78,2.08-.69.48-1.92-1.08-2.61-.53-1.71,1.37-.32,11.81-.32,11.81l.71.8.87,1.06.67-2.17a11.06,11.06,0,0,1,1.66-2.91,2.72,2.72,0,0,1,1.89-1.38c.35-.05,1.5,1.91,5,1.83C14.17,12.74,18.65,12.64,19.54,12.47Z"/><path class="cls-11" d="M25.06,15.61a.32.32,0,0,0,.17-.59,7,7,0,0,0-3.13-1,4.42,4.42,0,0,0-2.59.88.32.32,0,0,0,.4.49,3.85,3.85,0,0,1,2.19-.74,6.49,6.49,0,0,1,2.79.91A.32.32,0,0,0,25.06,15.61Z"/><path class="cls-11" d="M6.8,15.63A.32.32,0,0,1,6.63,15a7,7,0,0,1,3.13-1,4.42,4.42,0,0,1,2.59.87.32.32,0,0,1-.4.49,3.85,3.85,0,0,0-2.19-.73A6.5,6.5,0,0,0,7,15.58.31.31,0,0,1,6.8,15.63Z"/><path class="cls-6" d="M30.15,17.57s-2.55.67-2.73,2.06.9,1.14,1.18.67-.23-.74-.23-.79A4.17,4.17,0,0,1,30.15,17.57Z"/><path class="cls-6" d="M1.71,17.6s2.56.67,2.73,2.06-.9,1.15-1.18.67.23-.74.23-.79A4.17,4.17,0,0,0,1.71,17.6Z"/><ellipse class="cls-12" cx="22.53" cy="20.92" rx="2.43" ry="0.98" transform="translate(-0.02 0.02) rotate(-0.06)"/><ellipse class="cls-12" cx="9.34" cy="20.93" rx="2.43" ry="0.98" transform="translate(-0.02 0.01) rotate(-0.06)"/><circle class="cls-13" cx="9.78" cy="17.74" r="1.44" transform="translate(-0.02 0.01) rotate(-0.06)"/><circle class="cls-13" cx="21.97" cy="17.73" r="1.44"/><circle class="cls-7" cx="10.35" cy="17.23" r="0.51" transform="translate(-0.02 0.01) rotate(-0.06)"/><path class="cls-7" d="M21,16.84a.53.53,0,0,0,.75.75A.53.53,0,0,0,21,16.84Z"/></g></g></svg>