<svg xmlns="http://www.w3.org/2000/svg" viewBox="0 0 67.14 41.99"><defs><style>.cls-1{fill:#424242;}.cls-2{fill:#b2b2b2;}.cls-3{fill:#ededef;}.cls-4{fill:#adb2ba;}.cls-5{fill:#ebebeb;}.cls-6{fill:#dbdbdb;}.cls-7{fill:#959dad;}.cls-8{fill:#585a6a;}.cls-9{fill:#2a2b35;}.cls-10{fill:#fd83d8;}.cls-11{fill:#ef79c2;}.cls-12{fill:#736efd;}.cls-13{fill:#6060d6;}.cls-14{fill:#fdda48;}.cls-15{fill:#f0ab01;}.cls-16{fill:#fd5122;}.cls-17{fill:#fd8b27;}.cls-18{fill:#589afd;}.cls-19{fill:#edeef0;}.cls-20{fill:#dcdee2;}.cls-21{fill:#d8d9dd;}.cls-22{fill:#b7b9c0;}.cls-23{fill:#61a2ef;}.cls-24{fill:#528acf;}.cls-25{fill:#fff;}.cls-26{fill:#444242;}.cls-27{fill:#f9d026;}.cls-28{fill:#ffac12;}.cls-29{fill:#3a3839;}</style></defs><title>2</title><g id="Capa_2" data-name="Capa 2"><g id="Capa_7" data-name="Capa 7"><rect class="cls-1" x="5.56" y="20.34" width="3.28" height="21.65" rx="1.64" ry="1.64"/><rect class="cls-1" x="57.74" y="19.79" width="3.28" height="21.65" rx="1.64" ry="1.64"/><rect class="cls-2" y="8.68" width="67.14" height="16.79" rx="8.39" ry="8.39"/><rect class="cls-3" y="5.98" width="67.14" height="16.79" rx="8.39" ry="8.39"/><path class="cls-4" d="M58.48,7.81H46.56a.71.71,0,0,0-.74.67V14h.39V8.6a.44.44,0,0,1,.46-.41H58.37a.44.44,0,0,1,.46.42V14h.39V8.48A.71.71,0,0,0,58.48,7.81Z"/><path class="cls-5" d="M48.23,12.54h0a1.09,1.09,0,0,1-1.14-1v-7h2.28v7A1.09,1.09,0,0,1,48.23,12.54Z"/><path class="cls-6" d="M47.09,4.49V5h0A1.62,1.62,0,0,1,48.79,6.5V12a.94.94,0,0,1-.13.47,1,1,0,0,0,.71-1v-7Z"/><path class="cls-4" d="M49.34,4.49h-2.2a.38.38,0,0,1-.4-.36v0a.38.38,0,0,1,.4-.36h2.2a.38.38,0,0,1,.4.36v0A.38.38,0,0,1,49.34,4.49Z"/><path class="cls-7" d="M49.34,3.75h-.92a.38.38,0,0,1,.4.36v0a.38.38,0,0,1-.4.36h.92a.38.38,0,0,0,.4-.36v0A.38.38,0,0,0,49.34,3.75Z"/><path class="cls-5" d="M52.49,12.54h0a1.09,1.09,0,0,1-1.14-1v-7h2.28v7A1.09,1.09,0,0,1,52.49,12.54Z"/><path class="cls-6" d="M51.35,4.49v.44h0a1.5,1.5,0,0,1,1.57,1.42V12a1,1,0,0,1-.18.56,1.06,1.06,0,0,0,.89-1v-7Z"/><path class="cls-4" d="M53.58,4.49H51.4A.39.39,0,0,1,51,4.12h0a.39.39,0,0,1,.41-.37h2.19a.39.39,0,0,1,.41.37h0A.39.39,0,0,1,53.58,4.49Z"/><path class="cls-7" d="M53.59,3.75h-.92a.38.38,0,0,1,.4.36v0a.38.38,0,0,1-.4.36h.92a.38.38,0,0,0,.4-.36v0A.38.38,0,0,0,53.59,3.75Z"/><path class="cls-5" d="M56.75,12.54h0a1.09,1.09,0,0,1-1.14-1v-7h2.28v7A1.09,1.09,0,0,1,56.75,12.54Z"/><path class="cls-6" d="M55.61,4.49v.44h0a1.57,1.57,0,0,1,1.64,1.48V12a1,1,0,0,1-.17.54,1,1,0,0,0,.8-1v-7Z"/><path class="cls-4" d="M57.85,4.49h-2.2a.38.38,0,0,1-.4-.36v0a.38.38,0,0,1,.4-.36h2.2a.38.38,0,0,1,.4.36v0A.38.38,0,0,1,57.85,4.49Z"/><path class="cls-7" d="M57.85,3.75h-.92a.38.38,0,0,1,.4.36v0a.38.38,0,0,1-.4.36h.92a.38.38,0,0,0,.4-.36v0A.38.38,0,0,0,57.85,3.75Z"/><path class="cls-8" d="M60,15h-15a.14.14,0,0,1-.15-.14h0a.87.87,0,0,1,.91-.82H59.29a.87.87,0,0,1,.91.82h0A.14.14,0,0,1,60,15Z"/><path class="cls-9" d="M59.29,14H57a.87.87,0,0,1,.91.82V15H60a.14.14,0,0,0,.15-.14h0A.87.87,0,0,0,59.29,14Z"/><path class="cls-10" d="M49.37,8.74H47.09v2.78a1.09,1.09,0,0,0,1.14,1h0a1.09,1.09,0,0,0,1.14-1V8.74Z"/><path class="cls-11" d="M49.37,11.51V8.74h-.58v3.67A1,1,0,0,0,49.37,11.51Z"/><path class="cls-12" d="M53.63,6.63H51.35v4.88a1.09,1.09,0,0,0,1.14,1h0a1.09,1.09,0,0,0,1.14-1V6.63Z"/><path class="cls-13" d="M53.63,11.51V6.63h-.7v5.83A1,1,0,0,0,53.63,11.51Z"/><path class="cls-14" d="M57.89,10.18H55.61v1.34a1.09,1.09,0,0,0,1.14,1h0a1.09,1.09,0,0,0,1.14-1V10.18Z"/><path class="cls-15" d="M57.25,10.18v2.26a1,1,0,0,0,.63-.92V10.18h-.63Z"/><ellipse class="cls-16" cx="49.31" cy="2.51" rx="0.43" ry="0.39"/><ellipse class="cls-14" cx="56.54" cy="1.74" rx="0.43" ry="0.39"/><ellipse class="cls-17" cx="48.04" cy="5.76" rx="0.24" ry="0.22"/><ellipse class="cls-17" cx="48.04" cy="1.74" rx="0.24" ry="0.22"/><ellipse class="cls-18" cx="52.93" cy="2.99" rx="0.24" ry="0.22"/><ellipse class="cls-17" cx="55.73" cy="2.9" rx="0.24" ry="0.22"/><ellipse class="cls-17" cx="57.08" cy="8.74" rx="0.24" ry="0.22"/><ellipse class="cls-17" cx="56.36" cy="5.84" rx="0.24" ry="0.22"/><path class="cls-19" d="M25.94,1.1V11.71a2,2,0,0,0,2,2h0a2,2,0,0,0,2-2V1.1Z"/><path class="cls-20" d="M28,1.1V13.73h0a2,2,0,0,0,2-2V1.1Z"/><rect class="cls-21" x="25.94" y="1.93" width="4.08" height="0.83"/><rect class="cls-22" x="27.98" y="1.93" width="2.04" height="0.83"/><rect class="cls-19" x="25.31" y="0.9" width="5.35" height="1.27"/><path class="cls-23" d="M26.68,11.71A1.29,1.29,0,0,0,28,13h0a1.29,1.29,0,0,0,1.29-1.29V6.52H26.68v5.19Z"/><path class="cls-24" d="M28,6.52V13h0a1.29,1.29,0,0,0,1.29-1.29V6.52Z"/><circle class="cls-25" cx="28.28" cy="7.82" r="0.58"/><circle class="cls-25" cx="27.39" cy="9.57" r="0.41"/><circle class="cls-19" cx="28.43" cy="11.38" r="0.41"/><rect class="cls-20" x="27.98" y="0.9" width="2.67" height="1.27"/><path class="cls-19" d="M28.28,7.24a.58.58,0,0,0-.3.08v1a.58.58,0,1,0,.3-1.09Z"/><polygon class="cls-26" points="32.45 16.46 21.54 16.46 21.54 0 22.61 0 22.61 15.38 32.45 15.38 32.45 16.46"/><rect class="cls-26" x="22.07" y="3.1" width="6.61" height="0.72"/><circle class="cls-27" cx="22.07" cy="3.46" r="0.89"/><circle class="cls-28" cx="22.07" cy="3.46" r="0.48"/><rect class="cls-26" x="25.41" y="2.6" width="5.15" height="1.69"/><rect class="cls-29" x="27.98" y="2.6" width="2.58" height="1.69"/></g></g></svg>