<svg xmlns="http://www.w3.org/2000/svg" viewBox="0 0 29.71 29.72"><defs><style>.cls-1{fill:#37c4d4;}</style></defs><title>Recurso 1</title><g id="Capa_2" data-name="Capa 2"><g id="Capa_1-2" data-name="Capa 1"><path class="cls-1" d="M28.51,9.08a14.85,14.85,0,0,0-7.06-7.52A14.2,14.2,0,0,0,14.23,0a13.65,13.65,0,0,0-2,.19A14.59,14.59,0,0,0,7.24,2c-.2.11-.3.22-.3.34A14.38,14.38,0,0,0,0,16.12a14.83,14.83,0,0,0,.27,2c-.07.08-.07.21,0,.42a14.78,14.78,0,0,0,3.84,6.77,13.76,13.76,0,0,0,5,3.3l.27.09a15.52,15.52,0,0,0,1.61.53.83.83,0,0,0,.3,0,14.41,14.41,0,0,0,13-3.12,13.85,13.85,0,0,0,3-3.44c.09,0,.18-.11.28-.28a14.78,14.78,0,0,0,2.07-7.5A13.76,13.76,0,0,0,28.51,9.08ZM21.34,25.42a12.51,12.51,0,0,1-10.17,1.41l-.26-.11A12.37,12.37,0,0,1,2.37,14.9a12.31,12.31,0,0,1,.16-2.16,12.51,12.51,0,0,1,15.09-10l.38.09A12.41,12.41,0,0,1,23.51,6a12.3,12.3,0,0,1,1.42,1.64A12.51,12.51,0,0,1,21.34,25.42Z"/><path class="cls-1" d="M19.74,8.53a8.76,8.76,0,0,0-1.37-.83l-.2-.1-.12-.05A7.92,7.92,0,0,0,13,7.08,8,8,0,0,0,6.9,16a7.75,7.75,0,0,0,2.56,4.81c.18.16.4.34.63.52A8,8,0,1,0,19.74,8.53ZM11.19,19.09a4.49,4.49,0,0,0-.71-.62,5.25,5.25,0,0,1-1.28-3.3,5.58,5.58,0,0,1,5-5.86,1.42,1.42,0,0,0,.3,0,5.57,5.57,0,0,1,2.72.45l.28.14.12.06a5.85,5.85,0,0,1,.82.56l0,0,.34.31.08.08a5,5,0,0,1,1.51,3.63,4.24,4.24,0,0,0,.1,1.1,6,6,0,0,1-1.8,3.43A5.48,5.48,0,0,1,11.19,19.09Z"/></g></g></svg>