<svg xmlns="http://www.w3.org/2000/svg" viewBox="0 0 129.96 130.52"><defs><style>.cls-1{fill:#72631c;}.cls-2{fill:#2b8945;}.cls-3{fill:#2f914a;}.cls-4{fill:#0aa315;}.cls-5{fill:#099b17;}.cls-6{fill:#32a054;}.cls-7{fill:#339949;}.cls-8{fill:#39aa59;}.cls-9{fill:#37a04b;}.cls-10{fill:#38ba54;}</style></defs><title>arbolito</title><g id="Capa_2" data-name="Capa 2"><g id="Capa_8" data-name="Capa 8"><ellipse class="cls-1" cx="65.32" cy="117.19" rx="9.87" ry="7.25"/><rect class="cls-1" x="55.45" y="89.16" width="19.74" height="27.44"/><path class="cls-1" d="M55.71,116.46c-2.55,2.9-6.68,4.1-10.62,4.84-.64.12-1.44.4-1.43,1,0,.45.48.75.92.92,1.88.72,4,.38,6,.18a40.49,40.49,0,0,1,5.93-.15,2.35,2.35,0,0,1,1.22.29c1,.66.3,2.09-.43,3l-3.21,3.92c3.84.41,7.19-2.4,11-3.17,4.49-.91,9,1.14,13.62,1.29.61,0,1.43-.19,1.4-.76a.91.91,0,0,0-.46-.63c-1.18-.82-3.09-1-3.54-2.28-.4-1.15.81-2.33,2.09-2.55a10.83,10.83,0,0,1,3.84.44,4.54,4.54,0,0,0,3.71-.52.56.56,0,0,0,.2-.25c.07-.23-.14-.44-.34-.58-2-1.41-4.64-1.51-6.93-2.4-1.88-.73-3.5-2-5.45-2.51a15.25,15.25,0,0,0-3.51-.36l-8-.2c-2.52-.06-2.65-.58-5,.2"/><path class="cls-2" d="M50.94,97.53c-6.37,6.2-17.09,5.82-23.94-.85s-7.25-17.12-.88-23.32,17.09-5.82,23.94.85S57.31,91.33,50.94,97.53Z"/><path class="cls-2" d="M75.19,99.25c-6.37,6.2-17.09,5.82-23.94-.85S44,81.28,50.37,75.08s17.09-5.82,23.94.85S81.55,93,75.19,99.25Z"/><path class="cls-3" d="M75.52,93.35a16.61,16.61,0,0,1-23.06-.21,15.6,15.6,0,0,1-.22-22.46,16.61,16.61,0,0,1,23.06.21A15.6,15.6,0,0,1,75.52,93.35Z"/><path class="cls-2" d="M103,98c-6.37,6.2-17.09,5.82-23.94-.85S71.77,80,78.14,73.79s17.09-5.82,23.94.85S109.32,91.76,103,98Z"/><path class="cls-2" d="M125.43,82.51c-6.37,6.2-17.09,5.82-23.94-.85s-7.25-17.12-.88-23.32,17.09-5.82,23.94.85S131.8,76.3,125.43,82.51Z"/><path class="cls-3" d="M119.2,80.49a15.61,15.61,0,0,1-20.9-5.9A14.78,14.78,0,0,1,103.5,54a15.61,15.61,0,0,1,20.9,5.9A14.78,14.78,0,0,1,119.2,80.49Z"/><path class="cls-2" d="M9.48,82.07C1.23,78.55-2.31,68.68,1.58,60s13.73-12.81,22-9.29,11.79,13.38,7.9,22S17.73,85.59,9.48,82.07Z"/><path class="cls-3" d="M9.13,75.67a14.73,14.73,0,0,1-2-21.11c5.41-6.59,15.07-7.84,21.57-2.77a14.73,14.73,0,0,1,2,21.11C25.29,79.5,15.63,80.74,9.13,75.67Z"/><path class="cls-3" d="M51.28,91.63a16.61,16.61,0,0,1-23.06-.21A15.6,15.6,0,0,1,28,69a16.61,16.61,0,0,1,23.06.21A15.6,15.6,0,0,1,51.28,91.63Z"/><path class="cls-3" d="M97.65,95.42a16.54,16.54,0,0,1-22.21-6A15.66,15.66,0,0,1,81.2,67.65a16.54,16.54,0,0,1,22.21,6A15.66,15.66,0,0,1,97.65,95.42Z"/><path class="cls-4" d="M108.07,30a13.7,13.7,0,0,1-12.8,14.43A13.49,13.49,0,0,1,81.44,31.16a13.7,13.7,0,0,1,12.8-14.43A13.49,13.49,0,0,1,108.07,30Z"/><path class="cls-5" d="M22.74,38.8a15.79,15.79,0,0,1,10.1-19.11,14.16,14.16,0,0,1,18.35,9.5,15.79,15.79,0,0,1-10.1,19.11A14.16,14.16,0,0,1,22.74,38.8Z"/><path class="cls-6" d="M26.75,34.61a13.7,13.7,0,0,1,12.8-14.43A13.49,13.49,0,0,1,53.39,33.44a13.7,13.7,0,0,1-12.8,14.43A13.49,13.49,0,0,1,26.75,34.61Z"/><path class="cls-5" d="M108.52,30.47A13.7,13.7,0,0,1,95.72,44.9,13.49,13.49,0,0,1,81.89,31.65a13.7,13.7,0,0,1,12.8-14.43A13.49,13.49,0,0,1,108.52,30.47Z"/><path class="cls-7" d="M52.82,74.13c-5.41,5.85-14.51,5.49-20.33-.81s-6.15-16.15-.75-22,14.51-5.49,20.33.81S58.23,68.28,52.82,74.13Z"/><path class="cls-7" d="M73.41,75.75C68,81.61,58.9,81.24,53.08,74.95s-6.15-16.15-.75-22,14.51-5.49,20.33.81S78.82,69.9,73.41,75.75Z"/><path class="cls-6" d="M73.69,70.18A13.12,13.12,0,0,1,54.11,70a15.87,15.87,0,0,1-.18-21.19,13.12,13.12,0,0,1,19.58.2A15.87,15.87,0,0,1,73.69,70.18Z"/><path class="cls-7" d="M97,74.54c-5.41,5.85-14.51,5.49-20.33-.81s-6.15-16.15-.75-22,14.51-5.49,20.33.81S102.4,68.68,97,74.54Z"/><path class="cls-7" d="M116.08,60c-5.41,5.85-14.51,5.49-20.33-.81S89.6,43,95,37.14s14.51-5.49,20.33.81S121.49,54.1,116.08,60Z"/><path class="cls-6" d="M110.79,58c-6.12,3.83-14.07,1.33-17.75-5.57s-1.7-15.59,4.42-19.42,14.07-1.33,17.75,5.57S116.91,54.22,110.79,58Z"/><path class="cls-7" d="M17.61,59.54c-7-3.32-10-12.63-6.71-20.79S22.55,26.67,29.56,30s10,12.63,6.71,20.79S24.61,62.86,17.61,59.54Z"/><path class="cls-6" d="M17.31,53.51c-5.52-4.78-6.27-13.7-1.67-19.92S28.44,26.2,34,31s6.27,13.7,1.67,19.92S22.83,58.28,17.31,53.51Z"/><path class="cls-6" d="M53.1,68.56a13.12,13.12,0,0,1-19.58-.2,15.87,15.87,0,0,1-.18-21.19,13.12,13.12,0,0,1,19.58.2A15.87,15.87,0,0,1,53.1,68.56Z"/><path class="cls-6" d="M92.49,72.14c-6.56,4.1-15,1.56-18.87-5.68S72,50,78.51,45.94s15-1.56,18.87,5.68S99,68,92.49,72.14Z"/><path class="cls-6" d="M107.82,31A13.7,13.7,0,0,1,95,45.47,13.49,13.49,0,0,1,81.19,32.21,13.7,13.7,0,0,1,94,17.78,13.49,13.49,0,0,1,107.82,31Z"/><path class="cls-7" d="M34.56,28.63C32.7,23,36.4,16.94,42.82,15s13.14,1.14,15,6.75S56,33.5,49.57,35.39,36.42,34.25,34.56,28.63Z"/><path class="cls-8" d="M37.84,25.65c-.24-5.43,4.45-10,10.46-10.26s11.08,4,11.31,9.42-4.45,10-10.46,10.26S38.08,31.09,37.84,25.65Z"/><path class="cls-7" d="M100.8,23.35c2,5.49-2,11.43-9.05,13.27S77.34,35.5,75.3,30s2-11.43,9.05-13.27S98.76,17.86,100.8,23.35Z"/><path class="cls-8" d="M96.51,30.1c-3.22,5.32-10.6,7.61-16.49,5.12s-8-8.83-4.83-14.16,10.6-7.61,16.49-5.12S99.73,24.78,96.51,30.1Z"/><path class="cls-7" d="M59.56,55.08c-4.74,4.46-12.72,4.18-17.82-.61s-5.39-12.31-.65-16.77,12.72-4.18,17.82.61S64.3,50.62,59.56,55.08Z"/><path class="cls-7" d="M79.31,54.92c-4.76,4.48-12.78,4.21-17.91-.62S56,41.94,60.74,37.45s12.78-4.21,17.91.62S84.07,50.44,79.31,54.92Z"/><path class="cls-8" d="M79.55,50.66A12.75,12.75,0,0,1,62.3,50.5a11,11,0,0,1-.16-16.23,12.75,12.75,0,0,1,17.25.15A11,11,0,0,1,79.55,50.66Z"/><path class="cls-7" d="M98.79,49C94,53.48,86.07,53.2,81,48.4s-5.39-12.31-.65-16.77,12.72-4.19,17.82.61S103.53,44.56,98.79,49Z"/><path class="cls-8" d="M94.39,47.41a11.85,11.85,0,0,1-15.66-3.84,10.43,10.43,0,0,1,3.49-14.89,11.85,11.85,0,0,1,15.66,3.84A10.43,10.43,0,0,1,94.39,47.41Z"/><path class="cls-7" d="M30.75,42.61a9.69,9.69,0,0,1-4.92-13.25,10.8,10.8,0,0,1,13.68-5.59A9.69,9.69,0,0,1,44.43,37,10.8,10.8,0,0,1,30.75,42.61Z"/><path class="cls-8" d="M30.53,38.76a8.66,8.66,0,0,1-1.23-12.7A10,10,0,0,1,42.74,24.4,8.66,8.66,0,0,1,44,37.09,10,10,0,0,1,30.53,38.76Z"/><path class="cls-8" d="M59.83,50.81a12.68,12.68,0,0,1-17.16-.12,11,11,0,0,1-.19-16.15,12.68,12.68,0,0,1,17.16.12A11,11,0,0,1,59.83,50.81Z"/><path class="cls-9" d="M45.6,15.38a8.07,8.07,0,0,1,5.46-9.85A7.73,7.73,0,0,1,61,10.43a8.07,8.07,0,0,1-5.46,9.85A7.73,7.73,0,0,1,45.6,15.38Z"/><path class="cls-10" d="M47.78,13.22A7.21,7.21,0,1,1,55.26,20,7.19,7.19,0,0,1,47.78,13.22Z"/><path class="cls-9" d="M89.41,11.55c1.35,4-1.33,8.28-6,9.62s-9.53-.81-10.88-4.78,1.33-8.28,6-9.62S88.05,7.57,89.41,11.55Z"/><path class="cls-10" d="M86.57,16.44a8.56,8.56,0,0,1-10.9,3.71A7.25,7.25,0,0,1,72.47,9.89a8.56,8.56,0,0,1,10.9-3.71A7.25,7.25,0,0,1,86.57,16.44Z"/><path class="cls-9" d="M62.14,34.55c-3.13,3.23-8.41,3-11.78-.45s-3.57-8.92-.43-12.15,8.41-3,11.78.45S65.27,31.31,62.14,34.55Z"/><path class="cls-9" d="M75.19,34.44c-3.15,3.25-8.45,3-11.84-.45s-3.58-9-.43-12.22,8.45-3,11.84.45S78.34,31.19,75.19,34.44Z"/><path class="cls-10" d="M75.35,31.34a7.89,7.89,0,0,1-11.41-.11,8.51,8.51,0,0,1-.11-11.77,7.89,7.89,0,0,1,11.41.11A8.51,8.51,0,0,1,75.35,31.34Z"/><path class="cls-9" d="M88.07,30.15c-3.13,3.23-8.41,3-11.78-.45s-3.57-8.92-.43-12.16,8.41-3,11.78.45S91.21,26.92,88.07,30.15Z"/><path class="cls-10" d="M85,29.1A7.46,7.46,0,0,1,74.72,26,8,8,0,0,1,77.28,15.3a7.46,7.46,0,0,1,10.29,3.07A8,8,0,0,1,85,29.1Z"/><path class="cls-9" d="M43.08,25.51c-3.4-1.53-4.85-5.83-3.25-9.6s5.65-5.58,9-4,4.85,5.83,3.25,9.6S46.48,27,43.08,25.51Z"/><path class="cls-10" d="M42.94,22.72a6.68,6.68,0,0,1-.81-9.2A6.21,6.21,0,0,1,51,12.31a6.68,6.68,0,0,1,.81,9.2A6.21,6.21,0,0,1,42.94,22.72Z"/><path class="cls-10" d="M61.19,31.33c-3.37,3.46-8.52,3.76-11.51.67s-2.68-8.41.69-11.87,8.52-3.76,11.51-.67S64.56,27.87,61.19,31.33Z"/><path class="cls-10" d="M56.07,7.45C58.88,1.51,65.56-1.5,71,.74S78.52,9.6,75.7,15.55s-9.49,8.95-14.91,6.71S53.25,13.39,56.07,7.45Z"/></g></g></svg>