<svg xmlns="http://www.w3.org/2000/svg" viewBox="0 0 371.88 81.6"><defs><style>.cls-1,.cls-8{fill:#424242;}.cls-1{opacity:0.3;}.cls-2{fill:#827049;}.cls-3{fill:#9b9173;}.cls-4{fill:#5a5b5b;}.cls-5{fill:#5f6060;}.cls-6{fill:#c7c6c5;}.cls-7{fill:#b5b4b4;}.cls-9{fill:#f4b8ac;}.cls-10{fill:#363d66;}.cls-11{fill:#d8d9dd;}.cls-12{fill:#fff;}.cls-13{fill:#e9a28f;}.cls-14{fill:#953004;}</style></defs><title>asiento_front</title><g id="Capa_2" data-name="Capa 2"><g id="Capa_8" data-name="Capa 8"><rect class="cls-1" y="59.95" width="79.93" height="21.09"/><rect class="cls-2" x="3.24" y="58.84" width="71.94" height="13" rx="4.35" ry="4.35"/><rect class="cls-3" x="3.91" y="56.93" width="70.73" height="11.22" rx="4.01" ry="4.01"/><rect class="cls-2" x="8.49" y="55.98" width="4.76" height="9.83" rx="2.37" ry="2.37"/><rect class="cls-2" x="8.25" y="68.99" width="4.76" height="9.83" rx="2.37" ry="2.37"/><rect class="cls-2" x="66.93" y="68.99" width="4.76" height="9.83" rx="2.37" ry="2.37"/><rect class="cls-2" x="66.85" y="55.98" width="4.76" height="9.83" rx="2.37" ry="2.37"/><rect class="cls-2" x="3.51" y="44.25" width="70.73" height="15.35" rx="4.69" ry="4.69"/><rect class="cls-3" x="3.95" y="44.46" width="69.91" height="2.32" rx="1.16" ry="1.16"/><rect class="cls-4" x="86.66" y="61.43" width="12.19" height="20.16" rx="6.08" ry="6.08"/><rect class="cls-5" x="86.66" y="58.85" width="11.96" height="11.02" rx="5.51" ry="5.51"/><rect class="cls-4" x="89.59" y="19.46" width="5.39" height="44.55" rx="2.69" ry="2.69" transform="translate(184.58 83.47) rotate(180)"/><ellipse class="cls-4" cx="91.82" cy="20.87" rx="8.68" ry="9.85"/><ellipse class="cls-6" cx="91.82" cy="17.59" rx="8.68" ry="9.85"/><ellipse class="cls-7" cx="91.82" cy="10.55" rx="8.68" ry="9.85"/><ellipse class="cls-8" cx="91.59" cy="9.61" rx="10.55" ry="7.03"/><ellipse class="cls-4" cx="91.59" cy="7.03" rx="10.55" ry="7.03"/><rect class="cls-4" x="272.61" y="61.43" width="12.19" height="20.16" rx="6.08" ry="6.08"/><rect class="cls-5" x="272.61" y="58.85" width="11.96" height="11.02" rx="5.51" ry="5.51"/><rect class="cls-4" x="275.54" y="19.46" width="5.39" height="44.55" rx="2.69" ry="2.69" transform="translate(556.46 83.47) rotate(180)"/><ellipse class="cls-4" cx="277.76" cy="20.87" rx="8.68" ry="9.85"/><ellipse class="cls-6" cx="277.76" cy="17.59" rx="8.68" ry="9.85"/><ellipse class="cls-7" cx="277.76" cy="10.55" rx="8.68" ry="9.85"/><ellipse class="cls-8" cx="277.53" cy="9.61" rx="10.55" ry="7.03"/><ellipse class="cls-4" cx="277.53" cy="7.03" rx="10.55" ry="7.03"/><rect class="cls-1" x="291.96" y="59.95" width="79.93" height="21.09"/><rect class="cls-2" x="295.19" y="58.84" width="71.94" height="13" rx="4.35" ry="4.35"/><rect class="cls-3" x="295.87" y="56.93" width="70.73" height="11.22" rx="4.01" ry="4.01"/><path class="cls-9" d="M340.22,57.9a1.1,1.1,0,0,1-.32-2.16l6.56-2-2.27-3.86a1.1,1.1,0,1,1,1.9-1.12l3,5.07a1.1,1.1,0,0,1-.63,1.62l-7.91,2.37A1.1,1.1,0,0,1,340.22,57.9Z"/><path class="cls-10" d="M344.11,64.88c0-1.34-1.1-5.2-2.45-5.2H327.42c-1.35,0-2.45,3.85-2.45,5.2h0a1.6,1.6,0,0,0,0,.22c.1,2,4.34,3.55,9.55,3.55S344.09,67,344.09,65h0a.86.86,0,0,0,0-.15Z"/><path class="cls-11" d="M345.41,64.24,336.25,66h-3.06l-9.24-1.71.46-6.09V47s3.31-3.17,7.47-3.17h5.49c4.16,0,7.58,3.17,7.58,3.17V58.15Z"/><path class="cls-9" d="M318.93,58.7a1.1,1.1,0,0,1-1.1-1.1V50.86a1.1,1.1,0,0,1,.68-1l4-1.67a1.1,1.1,0,1,1,.85,2L320,51.59v6A1.1,1.1,0,0,1,318.93,58.7Z"/><path class="cls-11" d="M349.11,50.53s-.36.32-1.64,1.36a2,2,0,0,1-2.57-.05L342.7,49a1.62,1.62,0,0,1,.23-2.28l.17-.14a1.62,1.62,0,0,1,2.28.23Z"/><path class="cls-9" d="M317.38,59.26a3.08,3.08,0,0,0,.21,1.56,2,2,0,0,0,2.61.57c.68-.61-.31-1,.13-1.7.32-.48,0,.79.73.79.38,0,.8-1,0-1.91-.64-.75-.31-1.2-1.62-1.42C317.92,56.88,317.41,57.49,317.38,59.26Z"/><polygon class="cls-12" points="340.73 44.55 338.46 44.26 331.89 44.26 328.95 44.55 328.95 42.56 340.73 42.56 340.73 44.55"/><ellipse class="cls-13" cx="334.55" cy="27.7" rx="14.5" ry="9.93"/><path class="cls-9" d="M348.08,32.41c0,6-2.88,9.39-7.36,10.78-1.64.51-3.77.26-5.7.26-2.23,0-4.26.22-6.1-.47-4.13-1.53-7-4.89-7-10.58C322,24.18,327.8,17.5,335,17.5S348.08,24.18,348.08,32.41Z"/><path class="cls-9" d="M348.47,29.63s2.24-3.34,4.28-2.33-.36,9.43-5.15,8.77C344.19,35.6,348.47,29.63,348.47,29.63Z"/><path class="cls-9" d="M321.16,29.63s-2.24-3.34-4.28-2.33.36,9.43,5.15,8.77C325.44,35.6,321.16,29.63,321.16,29.63Z"/><path class="cls-14" d="M349.81,30.29c0,8.23-6.48,12.54-14.48,12.54s-14.48-4.31-14.48-12.54a14.48,14.48,0,1,1,29,0Z"/><path class="cls-14" d="M334.83,23.93c4.07-.76,10.32-2.71,12.6,2.11a27.44,27.44,0,0,1,1.24,3.68l1-1.24.13-.36s1.37-8.75-4-14.47C342.47,10.11,337,9,334.81,9s-7.65,1.13-11,4.67c-5.39,5.72-4,14.47-4,14.47l.13.36,1,1.24.79-2.54a13,13,0,0,1,1.95-3.4,3.19,3.19,0,0,1,2.21-1.62c.41-.06,1.76,2.24,5.83,2.15A19.39,19.39,0,0,0,334.83,23.93Z"/><path class="cls-14" d="M320.06,21.33S322.08,9,326.32,9s20.52-3.43,20.52-3.43,1.31,12.15,2.48,14.69-3,4.63-3,4.63Z"/><rect class="cls-2" x="300.45" y="55.98" width="4.76" height="9.83" rx="2.37" ry="2.37"/><rect class="cls-2" x="300.21" y="68.99" width="4.76" height="9.83" rx="2.37" ry="2.37"/><rect class="cls-2" x="358.89" y="68.99" width="4.76" height="9.83" rx="2.37" ry="2.37"/><rect class="cls-2" x="358.81" y="55.98" width="4.76" height="9.83" rx="2.37" ry="2.37"/><rect class="cls-2" x="295.47" y="44.25" width="70.73" height="15.35" rx="4.69" ry="4.69"/><rect class="cls-3" x="295.91" y="44.46" width="69.91" height="2.32" rx="1.16" ry="1.16"/></g></g></svg>