<svg xmlns="http://www.w3.org/2000/svg" viewBox="0 0 371.88 89.37"><defs><style>.cls-1,.cls-8{fill:#424242;}.cls-1{opacity:0.3;}.cls-2{fill:#827049;}.cls-3{fill:#9b9173;}.cls-4{fill:#5a5b5b;}.cls-5{fill:#5f6060;}.cls-6{fill:#c7c6c5;}.cls-7{fill:#b5b4b4;}</style></defs><title>Recurso 11</title><g id="Capa_2" data-name="Capa 2"><g id="Capa_8" data-name="Capa 8"><rect class="cls-1" y="68.27" width="79.93" height="21.09"/><rect class="cls-2" x="4.35" y="67.16" width="71.94" height="13" rx="4.35" ry="4.35"/><rect class="cls-3" x="5.02" y="65.26" width="70.73" height="11.22" rx="4.01" ry="4.01"/><rect class="cls-2" x="9.05" y="57.65" width="4.76" height="9.83" rx="2.37" ry="2.37"/><rect class="cls-2" x="9.36" y="77.31" width="4.76" height="9.83" rx="2.37" ry="2.37"/><rect class="cls-2" x="68.04" y="77.31" width="4.76" height="9.83" rx="2.37" ry="2.37"/><rect class="cls-2" x="67.41" y="57.65" width="4.76" height="9.83" rx="2.37" ry="2.37"/><rect class="cls-2" x="4.07" y="45.91" width="70.73" height="15.35" rx="4.69" ry="4.69"/><rect class="cls-3" x="4.51" y="46.13" width="69.91" height="2.32" rx="1.16" ry="1.16"/><rect class="cls-1" x="291.96" y="68.27" width="79.93" height="21.09"/><rect class="cls-2" x="296.3" y="67.16" width="71.94" height="13" rx="4.35" ry="4.35"/><rect class="cls-3" x="296.98" y="65.26" width="70.73" height="11.22" rx="4.01" ry="4.01"/><rect class="cls-2" x="301" y="57.65" width="4.76" height="9.83" rx="2.37" ry="2.37"/><rect class="cls-2" x="301.32" y="77.31" width="4.76" height="9.83" rx="2.37" ry="2.37"/><rect class="cls-2" x="360" y="77.31" width="4.76" height="9.83" rx="2.37" ry="2.37"/><rect class="cls-2" x="359.36" y="57.65" width="4.76" height="9.83" rx="2.37" ry="2.37"/><rect class="cls-2" x="296.02" y="45.91" width="70.73" height="15.35" rx="4.69" ry="4.69"/><rect class="cls-3" x="296.46" y="46.13" width="69.91" height="2.32" rx="1.16" ry="1.16"/><rect class="cls-4" x="86.66" y="61.43" width="12.19" height="20.16" rx="6.08" ry="6.08"/><rect class="cls-5" x="86.66" y="58.85" width="11.96" height="11.02" rx="5.51" ry="5.51"/><rect class="cls-4" x="89.59" y="19.46" width="5.39" height="44.55" rx="2.69" ry="2.69" transform="translate(184.58 83.47) rotate(-180)"/><ellipse class="cls-4" cx="91.82" cy="20.87" rx="8.68" ry="9.85"/><ellipse class="cls-6" cx="91.82" cy="17.59" rx="8.68" ry="9.85"/><ellipse class="cls-7" cx="91.82" cy="10.55" rx="8.68" ry="9.85"/><ellipse class="cls-8" cx="91.59" cy="9.61" rx="10.55" ry="7.03"/><ellipse class="cls-4" cx="91.59" cy="7.03" rx="10.55" ry="7.03"/><rect class="cls-4" x="272.61" y="61.43" width="12.19" height="20.16" rx="6.08" ry="6.08"/><rect class="cls-5" x="272.61" y="58.85" width="11.96" height="11.02" rx="5.51" ry="5.51"/><rect class="cls-4" x="275.54" y="19.46" width="5.39" height="44.55" rx="2.69" ry="2.69" transform="translate(556.46 83.47) rotate(-180)"/><ellipse class="cls-4" cx="277.76" cy="20.87" rx="8.68" ry="9.85"/><ellipse class="cls-6" cx="277.76" cy="17.59" rx="8.68" ry="9.85"/><ellipse class="cls-7" cx="277.76" cy="10.55" rx="8.68" ry="9.85"/><ellipse class="cls-8" cx="277.53" cy="9.61" rx="10.55" ry="7.03"/><ellipse class="cls-4" cx="277.53" cy="7.03" rx="10.55" ry="7.03"/></g></g></svg>