<svg xmlns="http://www.w3.org/2000/svg" xmlns:xlink="http://www.w3.org/1999/xlink" viewBox="0 0 64.96 62.33"><defs><style>.cls-1{fill:url(#Degradado_sin_nombre_7);}.cls-2{fill:#fff;}</style><radialGradient id="Degradado_sin_nombre_7" cx="32" cy="28.67" r="49.69" gradientUnits="userSpaceOnUse"><stop offset="0.05" stop-color="#999"/><stop offset="0.17" stop-color="#999"/><stop offset="0.52" stop-color="#999"/><stop offset="0.66" stop-color="#717171"/><stop offset="0.79" stop-color="#4d4d4d"/></radialGradient></defs><title>ayudaA</title><g id="Capa_2" data-name="Capa 2"><g id="Capa_11" data-name="Capa 11"><ellipse class="cls-1" cx="32.48" cy="31.17" rx="32.48" ry="31.17"/><path class="cls-2" d="M12.39,34.81l-.86,2H9l4.5-9.72h2.12L20,36.83H17.17l-.83-2Zm2-4.7-1.2,2.79h2.35Z"/><path class="cls-2" d="M18,27.12h2.87l2.41,4.31,2.45-4.31h2.59l-4,6.61v3.11H22V33.72Z"/><path class="cls-2" d="M28.39,32.86V27.12h2.36v5.65a2.11,2.11,0,0,0,.45,1.47,2,2,0,0,0,1.51.49,2.09,2.09,0,0,0,1.58-.48,2.13,2.13,0,0,0,.44-1.48V27.12h2.35v5.77a4,4,0,0,1-1.1,3A4.51,4.51,0,0,1,32.71,37a4.38,4.38,0,0,1-3.24-1.08A4.09,4.09,0,0,1,28.39,32.86Z"/><path class="cls-2" d="M43.07,36.83H38.55V27.12h4.51a5,5,0,0,1,3.55,1.28A4.6,4.6,0,0,1,48,31.92a4.76,4.76,0,0,1-1.38,3.58A4.86,4.86,0,0,1,43.07,36.83Zm-.19-7.68h-2v5.66h2A2.41,2.41,0,0,0,44.75,34a3,3,0,0,0,.71-2.11,2.78,2.78,0,0,0-.74-2A2.46,2.46,0,0,0,42.88,29.15Z"/><path class="cls-2" d="M50.92,34.81l-.86,2H47.57l4.5-9.72h2.12l4.37,9.72H55.71l-.83-2Zm2-4.7-1.2,2.79h2.35Z"/></g></g></svg>