<svg xmlns="http://www.w3.org/2000/svg" xmlns:xlink="http://www.w3.org/1999/xlink" viewBox="0 0 55.66 55.66"><defs><style>.cls-1{fill:url(#Degradado_sin_nombre_12);}.cls-2{fill:#822293;}</style><radialGradient id="Degradado_sin_nombre_12" cx="27.83" cy="27.83" r="27.83" gradientUnits="userSpaceOnUse"><stop offset="0.92" stop-color="#f2f2f2"/><stop offset="0.92" stop-color="#ebe7e3"/><stop offset="0.93" stop-color="#ded4c8"/><stop offset="0.95" stop-color="#d4c5b3"/><stop offset="0.96" stop-color="#ccbaa4"/><stop offset="0.98" stop-color="#c8b49c"/><stop offset="1" stop-color="#c7b299"/></radialGradient></defs><title>ayuda</title><g id="Capa_2" data-name="Capa 2"><g id="personals"><circle class="cls-1" cx="27.83" cy="27.83" r="27.83"/><path class="cls-2" d="M11.35,38l-.66,1.56H8.77l3.46-7.48h1.63l3.36,7.48H15L14.39,38Zm1.56-3.62L12,36.57h1.81Z"/><path class="cls-2" d="M15.67,32.11h2.21l1.85,3.32,1.89-3.32h2l-3.07,5.09v2.39H18.76V37.19Z"/><path class="cls-2" d="M23.67,36.53V32.11h1.82v4.35a1.63,1.63,0,0,0,.35,1.13A1.51,1.51,0,0,0,27,38a1.61,1.61,0,0,0,1.21-.37,1.64,1.64,0,0,0,.34-1.14V32.11h1.81v4.45a3.07,3.07,0,0,1-.85,2.3,3.47,3.47,0,0,1-2.53.83,3.37,3.37,0,0,1-2.49-.83A3.15,3.15,0,0,1,23.67,36.53Z"/><path class="cls-2" d="M35,39.59H31.49V32.11H35a3.83,3.83,0,0,1,2.74,1,3.54,3.54,0,0,1,1,2.71,3.67,3.67,0,0,1-1.06,2.75A3.74,3.74,0,0,1,35,39.59Zm-.14-5.91H33.31V38h1.51a1.86,1.86,0,0,0,1.44-.6,2.31,2.31,0,0,0,.55-1.62,2.14,2.14,0,0,0-.57-1.56A1.9,1.9,0,0,0,34.82,33.68Z"/><path class="cls-2" d="M41,38l-.66,1.56H38.43l3.46-7.48h1.63l3.36,7.48h-2.2L44.05,38Zm1.56-3.62-.93,2.15h1.81Z"/><path class="cls-2" d="M25.31,19.93v1.71a.6.6,0,0,1-.11.37.76.76,0,0,1-.28.23,3.36,3.36,0,0,1-.52.18l-.48.13a2.68,2.68,0,0,0-1,.48,1.2,1.2,0,0,0-.36,1,1.16,1.16,0,0,0,.21.67,1.42,1.42,0,0,0,.53.47,1.48,1.48,0,0,0,.69.17,1.44,1.44,0,0,0,.81-.22,3.84,3.84,0,0,0,.72-.65,5.94,5.94,0,0,1,.63-.63.93.93,0,0,1,.61-.2,1,1,0,0,1,.76.34,1.33,1.33,0,0,1,.29.9A2.09,2.09,0,0,1,27.42,26a3.06,3.06,0,0,1-.94.91,4.91,4.91,0,0,1-1.25.56,4.51,4.51,0,0,1-1.26.19,4.72,4.72,0,0,1-2.05-.44A3.58,3.58,0,0,1,20.43,26,3.45,3.45,0,0,1,19.88,24a3.23,3.23,0,0,1,.79-2.25,4.22,4.22,0,0,1,2.17-1.22v-.61a1.13,1.13,0,0,1,.35-.85,1.24,1.24,0,0,1,.89-.33,1.22,1.22,0,0,1,.9.33A1.16,1.16,0,0,1,25.31,19.93Zm-1.23-4.87a1.27,1.27,0,0,1,.95.39,1.3,1.3,0,0,1,.39.95,1.33,1.33,0,0,1-1.33,1.33,1.3,1.3,0,0,1-.94-.39,1.27,1.27,0,0,1-.4-.94,1.34,1.34,0,0,1,1.34-1.34Z"/><path class="cls-2" d="M30.35,19.73V18a.55.55,0,0,1,.3-.55,7.14,7.14,0,0,1,1.09-.35,2.86,2.86,0,0,0,1-.49,1.35,1.35,0,0,0-.07-1.9,1.54,1.54,0,0,0-1.82-.14,3.55,3.55,0,0,0-.71.65,4.68,4.68,0,0,1-.61.62,1,1,0,0,1-.62.2,1,1,0,0,1-.75-.34,1.33,1.33,0,0,1-.29-.9,2.06,2.06,0,0,1,.36-1.17,3.17,3.17,0,0,1,.95-.91,4.7,4.7,0,0,1,1.26-.56A4.62,4.62,0,0,1,31.69,12a4.7,4.7,0,0,1,2,.44,3.6,3.6,0,0,1,1.49,1.29,3.45,3.45,0,0,1,.56,1.95A3.21,3.21,0,0,1,35,17.88a4.25,4.25,0,0,1-2.18,1.22v.62a1.12,1.12,0,0,1-.35.85,1.36,1.36,0,0,1-1.78,0A1.14,1.14,0,0,1,30.35,19.73Zm1.24,4.87a1.34,1.34,0,1,1,0-2.67,1.28,1.28,0,0,1,.95.39,1.35,1.35,0,0,1,0,1.89A1.28,1.28,0,0,1,31.59,24.59Z"/></g></g></svg>