<svg xmlns="http://www.w3.org/2000/svg" xmlns:xlink="http://www.w3.org/1999/xlink" viewBox="0 0 421.93 455.84"><defs><style>.cls-1{fill:#5a5b5b;}.cls-2{fill:#3f3f3f;}.cls-3{fill:#a3bbcc;}.cls-4{fill:#cbdbeb;}.cls-5{fill:#efecaf;}.cls-6{fill:#ce1515;}.cls-7{fill:#bc0606;}.cls-8{fill:#f75959;}.cls-9{fill:#66a7d3;}.cls-10{fill:#ffb55c;}.cls-11{fill:#528ac1;opacity:0.63;}.cls-12{fill:#82bae8;}.cls-13{fill:#d37f2d;}.cls-14{fill:#ff953e;}.cls-15{fill:#4a9ac6;}.cls-16{fill:none;stroke:#82bae8;stroke-width:0.68px;}.cls-16,.cls-25{stroke-miterlimit:10;}.cls-17{fill:#9ad9fc;}.cls-18,.cls-31{fill:#424242;}.cls-18{opacity:0.3;}.cls-19{fill:#037008;}.cls-20{fill:#b7b7b7;}.cls-21{fill:#9ab2b1;}.cls-22{fill:#099b17;}.cls-23{fill:#0aa315;}.cls-24{fill:#bcbcbc;}.cls-25,.cls-32{fill:#fff;}.cls-25{stroke:#f68b30;stroke-width:0.7px;}.cls-26{fill:#f68b30;}.cls-27{fill:url(#Blanco_Negro);}.cls-28{fill:#5f6060;}.cls-29{fill:#c7c6c5;}.cls-30{fill:#b5b4b4;}.cls-33{fill:#ce5424;}.cls-34{fill:#ef7037;}.cls-35{fill:#ff7f3b;}</style><linearGradient id="Blanco_Negro" x1="204.08" y1="-9.89" x2="203.48" y2="73.71" gradientUnits="userSpaceOnUse"><stop offset="0" stop-color="#fff"/><stop offset="1"/></linearGradient></defs><title>bomber</title><g id="Capa_2" data-name="Capa 2"><g id="Capa_11" data-name="Capa 11"><rect class="cls-1" x="404.21" y="375.23" width="8.79" height="20.42" rx="4.39" ry="4.39" transform="translate(794.05 -23.16) rotate(90)"/><rect class="cls-1" x="355.37" y="373.69" width="8.79" height="20.42" rx="4.39" ry="4.39" transform="translate(743.67 24.14) rotate(90)"/><path class="cls-1" d="M342,378V347.77a5.16,5.16,0,0,1,5.31-5l69.31-2.22a5.16,5.16,0,0,1,5.31,5V378a5.16,5.16,0,0,1-5.31,5H347.31A5.16,5.16,0,0,1,342,378Z"/><rect class="cls-2" x="360.79" y="326.23" width="42.35" height="71.05" rx="9.39" ry="9.39" transform="translate(743.71 -20.21) rotate(90)"/><polygon class="cls-3" points="364.76 373.75 364.76 360.18 407.5 370.36 403.98 373.75 364.76 373.75"/><polygon class="cls-3" points="366.55 342.53 366.55 356.1 407.57 345.92 404.2 342.53 366.55 342.53"/><path class="cls-4" d="M363.09,370.51v-29c0-1.94,3.33-1.11,15.54-6.66l22.76,3.49c2,0,5.69-.76,5.68,1.18L407,370.69c0,1.94-.2-1.37-2.23-1.37H377C374.93,369.3,362.54,378.19,363.09,370.51Z"/><path class="cls-1" d="M374.75,367.64l.11-28.58c0-2.57,1.72-4.22,3.76-4.21l26,.1a3.7,3.7,0,0,1,3.69,3.69l-.11,28.58a3.7,3.7,0,0,1-3.72,3.66l-26-.1A3.72,3.72,0,0,1,374.75,367.64Z"/><path class="cls-5" d="M347,344.1h-1.08s-1.08.14-1.08,2.25v4H347S347,344,347,344.1Z"/><path class="cls-5" d="M347,379h-1.12s-1.12-.14-1.12-2.25v-4h2.21S347,379.15,347,379Z"/><rect class="cls-1" x="62.21" y="441.23" width="8.79" height="20.42" rx="4.39" ry="4.39" transform="translate(518.05 384.84) rotate(90)"/><rect class="cls-1" x="13.37" y="439.69" width="8.79" height="20.42" rx="4.39" ry="4.39" transform="translate(467.67 432.14) rotate(90)"/><path class="cls-6" d="M0,444V413.77a5.16,5.16,0,0,1,5.31-5l69.31-2.22a5.16,5.16,0,0,1,5.31,5V444a5.16,5.16,0,0,1-5.31,5H5.31A5.16,5.16,0,0,1,0,444Z"/><rect class="cls-7" x="18.79" y="392.23" width="42.35" height="71.05" rx="9.39" ry="9.39" transform="translate(467.71 387.79) rotate(90)"/><polygon class="cls-3" points="22.76 439.75 22.76 426.18 65.5 436.36 61.98 439.75 22.76 439.75"/><path class="cls-4" d="M21.09,436.51v-29c0-1.94,3.33-1.11,15.54-6.66l22.76,3.49c2,0,5.69-.76,5.68,1.18L65,436.69c0,1.94-.2-1.37-2.23-1.37H35C32.93,435.3,20.54,444.19,21.09,436.51Z"/><path class="cls-8" d="M32.75,433.64l.11-28.58c0-2.57,1.72-4.22,3.76-4.21l26,.1a3.7,3.7,0,0,1,3.69,3.69l-.11,28.58a3.7,3.7,0,0,1-3.72,3.66l-26-.1A3.72,3.72,0,0,1,32.75,433.64Z"/><path class="cls-5" d="M5,410.1H3.91s-1.08.14-1.08,2.25v4H5S5,410,5,410.1Z"/><path class="cls-5" d="M5,445H3.85s-1.12-.14-1.12-2.25v-4H4.95S5,445.15,5,445Z"/><rect class="cls-1" x="404.21" y="310.84" width="8.79" height="20.42" rx="4.39" ry="4.39" transform="translate(729.66 -87.55) rotate(90)"/><rect class="cls-1" x="355.37" y="309.31" width="8.79" height="20.42" rx="4.39" ry="4.39" transform="translate(679.28 -40.24) rotate(90)"/><path class="cls-6" d="M342,313.57V283.38a5.16,5.16,0,0,1,5.31-5l69.31-2.22a5.16,5.16,0,0,1,5.31,5v32.4a5.16,5.16,0,0,1-5.31,5H347.31A5.16,5.16,0,0,1,342,313.57Z"/><rect class="cls-7" x="360.79" y="261.84" width="42.35" height="71.05" rx="9.39" ry="9.39" transform="translate(679.33 -84.6) rotate(90)"/><polygon class="cls-3" points="364.76 309.37 364.76 295.79 407.5 305.97 403.98 309.37 364.76 309.37"/><polygon class="cls-3" points="366.55 278.14 366.55 291.72 407.57 281.54 404.2 278.14 366.55 278.14"/><path class="cls-4" d="M363.09,306.13v-29c0-1.94,3.33-1.11,15.54-6.66L401.4,274c2,0,5.69-.76,5.68,1.18L407,306.3c0,1.94-.2-1.37-2.23-1.37H377C374.93,304.92,362.54,313.81,363.09,306.13Z"/><path class="cls-8" d="M374.75,303.26l.11-28.58c0-2.57,1.72-4.22,3.76-4.21l26,.1a3.7,3.7,0,0,1,3.69,3.69l-.11,28.58a3.7,3.7,0,0,1-3.72,3.66l-26-.1A3.72,3.72,0,0,1,374.75,303.26Z"/><path class="cls-5" d="M347,279.72h-1.08s-1.08.14-1.08,2.25v4H347S347,279.59,347,279.72Z"/><path class="cls-5" d="M347,314.63h-1.12s-1.12-.14-1.12-2.25v-4h2.21S347,314.76,347,314.63Z"/><rect class="cls-1" x="62.21" y="375.23" width="8.79" height="20.42" rx="4.39" ry="4.39" transform="translate(452.05 318.84) rotate(90)"/><rect class="cls-1" x="13.37" y="373.69" width="8.79" height="20.42" rx="4.39" ry="4.39" transform="translate(401.67 366.14) rotate(90)"/><path class="cls-1" d="M0,378V347.77a5.16,5.16,0,0,1,5.31-5l69.31-2.22a5.16,5.16,0,0,1,5.31,5V378a5.16,5.16,0,0,1-5.31,5H5.31A5.16,5.16,0,0,1,0,378Z"/><rect class="cls-2" x="18.79" y="326.23" width="42.35" height="71.05" rx="9.39" ry="9.39" transform="translate(401.71 321.79) rotate(90)"/><polygon class="cls-3" points="22.76 373.75 22.76 360.18 65.5 370.36 61.98 373.75 22.76 373.75"/><polygon class="cls-3" points="24.55 342.53 24.55 356.1 65.57 345.92 62.2 342.53 24.55 342.53"/><path class="cls-4" d="M21.09,370.51v-29c0-1.94,3.33-1.11,15.54-6.66l22.76,3.49c2,0,5.69-.76,5.68,1.18L65,370.69c0,1.94-.2-1.37-2.23-1.37H35C32.93,369.3,20.54,378.19,21.09,370.51Z"/><path class="cls-1" d="M32.75,367.64l.11-28.58c0-2.57,1.72-4.22,3.76-4.21l26,.1a3.7,3.7,0,0,1,3.69,3.69l-.11,28.58a3.7,3.7,0,0,1-3.72,3.66l-26-.1A3.72,3.72,0,0,1,32.75,367.64Z"/><path class="cls-5" d="M5,344.1H3.91s-1.08.14-1.08,2.25v4H5S5,344,5,344.1Z"/><path class="cls-5" d="M5,379H3.85s-1.12-.14-1.12-2.25v-4H4.95S5,379.15,5,379Z"/><rect class="cls-1" x="62.21" y="310.84" width="8.79" height="20.42" rx="4.39" ry="4.39" transform="translate(387.66 254.45) rotate(90)"/><rect class="cls-1" x="13.37" y="309.31" width="8.79" height="20.42" rx="4.39" ry="4.39" transform="translate(337.28 301.76) rotate(90)"/><path class="cls-1" d="M0,313.57V283.38a5.16,5.16,0,0,1,5.31-5l69.31-2.22a5.16,5.16,0,0,1,5.31,5v32.4a5.16,5.16,0,0,1-5.31,5H5.31A5.16,5.16,0,0,1,0,313.57Z"/><rect class="cls-2" x="18.79" y="261.84" width="42.35" height="71.05" rx="9.39" ry="9.39" transform="translate(337.33 257.4) rotate(90)"/><polygon class="cls-3" points="22.76 309.37 22.76 295.79 65.5 305.97 61.98 309.37 22.76 309.37"/><polygon class="cls-3" points="24.55 278.14 24.55 291.72 65.57 281.54 62.2 278.14 24.55 278.14"/><path class="cls-4" d="M21.09,306.13v-29c0-1.94,3.33-1.11,15.54-6.66L59.4,274c2,0,5.69-.76,5.68,1.18L65,306.3c0,1.94-.2-1.37-2.23-1.37H35C32.93,304.92,20.54,313.81,21.09,306.13Z"/><path class="cls-1" d="M32.75,303.26l.11-28.58c0-2.57,1.72-4.22,3.76-4.21l26,.1a3.7,3.7,0,0,1,3.69,3.69l-.11,28.58a3.7,3.7,0,0,1-3.72,3.66l-26-.1A3.72,3.72,0,0,1,32.75,303.26Z"/><path class="cls-5" d="M5,279.72H3.91s-1.08.14-1.08,2.25v4H5S5,279.59,5,279.72Z"/><path class="cls-5" d="M5,314.63H3.85s-1.12-.14-1.12-2.25v-4H4.95S5,314.76,5,314.63Z"/><rect class="cls-9" x="180.84" y="349" width="51" height="44"/><path class="cls-10" d="M225.54,393h70.74V322.4H113V393H185V349.57h40.52S225.54,393.3,225.54,393Z"/><rect class="cls-11" x="231.02" y="246.96" width="47.96" height="22.87"/><rect class="cls-12" x="205.46" y="350.25" width="25.38" height="42.75"/><rect class="cls-12" x="179.18" y="350.25" width="25.38" height="42.75"/><rect class="cls-13" x="113.04" y="385.79" width="66.8" height="7.19"/><rect class="cls-13" x="229.84" y="385.79" width="66.6" height="7.19"/><rect class="cls-13" x="156.59" y="369.45" width="42.64" height="4.08" transform="translate(549.41 193.58) rotate(90)"/><rect class="cls-13" x="210.44" y="369.45" width="42.64" height="4.08" transform="translate(603.25 139.73) rotate(90)"/><rect class="cls-13" x="175.97" y="346.09" width="57.83" height="5.88"/><path class="cls-13" d="M119.53,157.78s-14.82,9.31-14.82,17.81V335.47H302.16V176.73c0-7.84-14.33-19-14.33-19"/><path class="cls-14" d="M119.51,309.78c.2-.28,168.77.08,168.77.08s11.81,18.47,13.76,24.35c1.8,5.43-5.69,5.06-5.69,5.06l-186-.1c-7.81.49-5-5.72-5-5.72S114.63,316.8,119.51,309.78Z"/><path class="cls-10" d="M199.15,313.39h91.69V166.81h-174V313.39H144V309h55.07S199.15,313.71,199.15,313.39Z"/><polygon class="cls-15" points="132.04 237 132.04 204.38 275.84 204.38 275.84 237 213.78 237 132.04 237"/><line class="cls-16" x1="156.72" y1="204" x2="156.72" y2="237"/><line class="cls-16" x1="180.22" y1="237" x2="180.22" y2="204"/><line class="cls-16" x1="203.73" y1="204" x2="203.73" y2="237"/><line class="cls-16" x1="227.24" y1="204" x2="227.24" y2="237"/><line class="cls-16" x1="250.74" y1="204" x2="250.74" y2="237"/><rect class="cls-17" x="211.64" y="208.79" width="1.61" height="9" rx="0.8" ry="0.8" transform="translate(226.86 -87.41) rotate(47.63)"/><rect class="cls-17" x="212.25" y="213.39" width="1.61" height="9" rx="0.8" ry="0.8" transform="translate(230.45 -86.36) rotate(47.63)"/><rect class="cls-17" x="189.31" y="208.79" width="1.61" height="9" rx="0.8" ry="0.8" transform="translate(219.58 -70.91) rotate(47.63)"/><rect class="cls-17" x="189.92" y="213.39" width="1.61" height="9" rx="0.8" ry="0.8" transform="translate(223.17 -69.86) rotate(47.63)"/><rect class="cls-17" x="256.3" y="208.79" width="1.61" height="9" rx="0.8" ry="0.8" transform="translate(241.42 -120.4) rotate(47.63)"/><rect class="cls-17" x="256.91" y="213.39" width="1.61" height="9" rx="0.8" ry="0.8" transform="translate(245.02 -119.35) rotate(47.63)"/><rect class="cls-17" x="233.97" y="208.79" width="1.61" height="9" rx="0.8" ry="0.8" transform="translate(234.14 -103.9) rotate(47.63)"/><rect class="cls-17" x="234.58" y="213.39" width="1.61" height="9" rx="0.8" ry="0.8" transform="translate(237.74 -102.86) rotate(47.63)"/><rect class="cls-17" x="166.98" y="208.79" width="1.61" height="9" rx="0.8" ry="0.8" transform="translate(212.29 -54.41) rotate(47.63)"/><rect class="cls-17" x="167.59" y="213.39" width="1.61" height="9" rx="0.8" ry="0.8" transform="translate(215.89 -53.37) rotate(47.63)"/><rect class="cls-17" x="144.65" y="208.79" width="1.61" height="9" rx="0.8" ry="0.8" transform="translate(205.01 -37.91) rotate(47.63)"/><rect class="cls-17" x="145.27" y="213.39" width="1.61" height="9" rx="0.8" ry="0.8" transform="translate(208.61 -36.87) rotate(47.63)"/><rect class="cls-13" x="131.84" y="203" width="144" height="3"/><rect class="cls-13" x="131.84" y="236" width="144" height="3"/><polygon class="cls-15" points="132.04 276 132.04 243.38 275.84 243.38 275.84 276 213.78 276 132.04 276"/><line class="cls-16" x1="156.72" y1="243" x2="156.72" y2="276"/><line class="cls-16" x1="180.22" y1="276" x2="180.22" y2="243"/><line class="cls-16" x1="203.73" y1="243" x2="203.73" y2="276"/><line class="cls-16" x1="227.24" y1="243" x2="227.24" y2="276"/><line class="cls-16" x1="250.74" y1="243" x2="250.74" y2="276"/><rect class="cls-17" x="211.64" y="247.79" width="1.61" height="9" rx="0.8" ry="0.8" transform="translate(255.67 -74.69) rotate(47.63)"/><rect class="cls-17" x="212.25" y="252.39" width="1.61" height="9" rx="0.8" ry="0.8" transform="translate(259.27 -73.64) rotate(47.63)"/><rect class="cls-17" x="189.31" y="247.79" width="1.61" height="9" rx="0.8" ry="0.8" transform="translate(248.39 -58.19) rotate(47.63)"/><rect class="cls-17" x="189.92" y="252.39" width="1.61" height="9" rx="0.8" ry="0.8" transform="translate(251.99 -57.14) rotate(47.63)"/><rect class="cls-17" x="256.3" y="247.79" width="1.61" height="9" rx="0.8" ry="0.8" transform="translate(270.23 -107.68) rotate(47.63)"/><rect class="cls-17" x="256.91" y="252.39" width="1.61" height="9" rx="0.8" ry="0.8" transform="translate(273.83 -106.63) rotate(47.63)"/><rect class="cls-17" x="233.97" y="247.79" width="1.61" height="9" rx="0.8" ry="0.8" transform="translate(262.95 -91.18) rotate(47.63)"/><rect class="cls-17" x="234.58" y="252.39" width="1.61" height="9" rx="0.8" ry="0.8" transform="translate(266.55 -90.14) rotate(47.63)"/><rect class="cls-17" x="166.98" y="247.79" width="1.61" height="9" rx="0.8" ry="0.8" transform="translate(241.11 -41.69) rotate(47.63)"/><rect class="cls-17" x="167.59" y="252.39" width="1.61" height="9" rx="0.8" ry="0.8" transform="translate(244.71 -40.65) rotate(47.63)"/><rect class="cls-17" x="144.65" y="247.79" width="1.61" height="9" rx="0.8" ry="0.8" transform="translate(233.83 -25.2) rotate(47.63)"/><rect class="cls-17" x="145.27" y="252.39" width="1.61" height="9" rx="0.8" ry="0.8" transform="translate(237.42 -24.15) rotate(47.63)"/><rect class="cls-13" x="131.84" y="242" width="144" height="3"/><rect class="cls-13" x="131.84" y="275" width="144" height="3"/><rect class="cls-13" x="111.98" y="304" width="184.86" height="9.39"/><path class="cls-13" d="M118.36,94.19s-15,9.42-15,18v72.68H302.68V113.35c0-7.93-14.49-19.16-14.49-19.16"/><rect class="cls-10" x="118.4" y="94.26" width="170.24" height="71.74"/><rect class="cls-13" x="128.15" y="102.14" width="150.09" height="48.73"/><path class="cls-14" d="M118.34,165.9c.21-.28,170.31.09,170.31.09s11.94,11.67,13.91,17.62c1.82,5.49-5.76,5.12-5.76,5.12l-187.68-.1c-7.89.49-5.09-5.78-5.09-5.78S113.84,172,118.34,165.9Z"/><rect class="cls-14" x="127.84" y="101.97" width="150.4" height="8.09"/><rect class="cls-18" x="126.53" y="104.65" width="24.48" height="46.8"/><rect class="cls-19" x="129.46" y="105.08" width="20.8" height="39.63"/><rect class="cls-20" x="128.48" y="101.7" width="21.78" height="2.32"/><rect class="cls-21" x="128.48" y="102.76" width="21.78" height="3.58"/><path class="cls-22" d="M138,114.78a1.9,1.9,0,0,1-2.2-.09,1,1,0,0,1-.05-1.69,1.9,1.9,0,0,1,2.2.09A1,1,0,0,1,138,114.78Z"/><path class="cls-22" d="M140.25,114.93a1.9,1.9,0,0,1-2.2-.09,1,1,0,0,1-.05-1.69,1.9,1.9,0,0,1,2.2.09A1,1,0,0,1,140.25,114.93Z"/><path class="cls-23" d="M140.29,114.5a1.83,1.83,0,0,1-2.12,0,1,1,0,0,1,0-1.63,1.83,1.83,0,0,1,2.12,0A1,1,0,0,1,140.29,114.5Z"/><path class="cls-22" d="M142.8,114.87a1.9,1.9,0,0,1-2.2-.09,1,1,0,0,1-.05-1.69,1.9,1.9,0,0,1,2.2.09A1,1,0,0,1,142.8,114.87Z"/><path class="cls-22" d="M144.88,113.78a1.9,1.9,0,0,1-2.2-.09,1,1,0,0,1-.05-1.69,1.9,1.9,0,0,1,2.2.09A1,1,0,0,1,144.88,113.78Z"/><path class="cls-23" d="M144.31,113.62a1.65,1.65,0,0,1-1.91-.45,1,1,0,0,1,.5-1.49,1.65,1.65,0,0,1,1.91.45A1,1,0,0,1,144.31,113.62Z"/><path class="cls-22" d="M134.24,113.61a1.09,1.09,0,0,1-.7-1.61,1.75,1.75,0,0,1,2-.65,1.09,1.09,0,0,1,.7,1.61A1.75,1.75,0,0,1,134.24,113.61Z"/><path class="cls-23" d="M134.21,113.14a.93.93,0,0,1-.15-1.53,1.71,1.71,0,0,1,2-.18.93.93,0,0,1,.15,1.53A1.71,1.71,0,0,1,134.21,113.14Z"/><path class="cls-23" d="M138.06,114.35a1.83,1.83,0,0,1-2.12,0,1,1,0,0,1,0-1.63,1.83,1.83,0,0,1,2.12,0A1,1,0,0,1,138.06,114.35Z"/><path class="cls-23" d="M142.32,114.68a1.75,1.75,0,0,1-2-.46,1,1,0,0,1,.56-1.57,1.75,1.75,0,0,1,2,.46A1,1,0,0,1,142.32,114.68Z"/><path class="cls-22" d="M137.86,113.29a2.32,2.32,0,0,1-2.68-.11,1.24,1.24,0,0,1-.06-2.06,2.32,2.32,0,0,1,2.68.11A1.24,1.24,0,0,1,137.86,113.29Z"/><path class="cls-22" d="M140.57,113.47a2.32,2.32,0,0,1-2.68-.11,1.24,1.24,0,0,1-.06-2.06,2.32,2.32,0,0,1,2.68.11A1.24,1.24,0,0,1,140.57,113.47Z"/><path class="cls-23" d="M140.62,113a2.23,2.23,0,0,1-2.58-.05,1.19,1.19,0,0,1,0-2,2.23,2.23,0,0,1,2.58.05A1.19,1.19,0,0,1,140.62,113Z"/><path class="cls-22" d="M143.68,113.4a2.32,2.32,0,0,1-2.68-.11,1.24,1.24,0,0,1-.06-2.06,2.32,2.32,0,0,1,2.68.11A1.24,1.24,0,0,1,143.68,113.4Z"/><path class="cls-22" d="M146.21,112.07a2.32,2.32,0,0,1-2.68-.11,1.24,1.24,0,0,1-.06-2.06,2.32,2.32,0,0,1,2.68.11A1.24,1.24,0,0,1,146.21,112.07Z"/><path class="cls-23" d="M145.52,111.88a2,2,0,0,1-2.33-.55,1.17,1.17,0,0,1,.61-1.81,2,2,0,0,1,2.33.55A1.17,1.17,0,0,1,145.52,111.88Z"/><path class="cls-22" d="M133.25,111.86a1.33,1.33,0,0,1-.85-2,2.13,2.13,0,0,1,2.47-.79,1.33,1.33,0,0,1,.85,2A2.13,2.13,0,0,1,133.25,111.86Z"/><path class="cls-23" d="M133.22,111.3a1.13,1.13,0,0,1-.19-1.87,2.09,2.09,0,0,1,2.42-.21,1.13,1.13,0,0,1,.19,1.87A2.09,2.09,0,0,1,133.22,111.3Z"/><path class="cls-23" d="M137.91,112.77a2.23,2.23,0,0,1-2.58-.05,1.19,1.19,0,0,1,0-2,2.23,2.23,0,0,1,2.58.05A1.19,1.19,0,0,1,137.91,112.77Z"/><path class="cls-23" d="M143.09,113.17a2.14,2.14,0,0,1-2.47-.56,1.24,1.24,0,0,1,.68-1.91,2.14,2.14,0,0,1,2.47.56A1.24,1.24,0,0,1,143.09,113.17Z"/><path class="cls-22" d="M137.85,111.29a2.32,2.32,0,0,1-2.68-.11,1.24,1.24,0,0,1-.06-2.06,2.32,2.32,0,0,1,2.68.11A1.24,1.24,0,0,1,137.85,111.29Z"/><path class="cls-22" d="M140.56,111.48a2.32,2.32,0,0,1-2.68-.11,1.24,1.24,0,0,1-.06-2.06,2.32,2.32,0,0,1,2.68.11A1.24,1.24,0,0,1,140.56,111.48Z"/><path class="cls-23" d="M140.6,111a2.23,2.23,0,0,1-2.58-.05,1.19,1.19,0,0,1,0-2,2.23,2.23,0,0,1,2.58.05A1.19,1.19,0,0,1,140.6,111Z"/><path class="cls-22" d="M143.66,111.41a2.32,2.32,0,0,1-2.68-.11,1.24,1.24,0,0,1-.06-2.06,2.32,2.32,0,0,1,2.68.11A1.24,1.24,0,0,1,143.66,111.41Z"/><path class="cls-22" d="M146.2,110.07a2.32,2.32,0,0,1-2.68-.11,1.24,1.24,0,0,1-.06-2.06,2.32,2.32,0,0,1,2.68.11A1.24,1.24,0,0,1,146.2,110.07Z"/><path class="cls-23" d="M145.5,109.89a2,2,0,0,1-2.33-.55,1.17,1.17,0,0,1,.61-1.81,2,2,0,0,1,2.33.55A1.17,1.17,0,0,1,145.5,109.89Z"/><path class="cls-22" d="M133.24,109.87a1.33,1.33,0,0,1-.85-2,2.13,2.13,0,0,1,2.47-.79,1.33,1.33,0,0,1,.85,2A2.13,2.13,0,0,1,133.24,109.87Z"/><path class="cls-23" d="M133.21,109.3a1.13,1.13,0,0,1-.19-1.87,2.09,2.09,0,0,1,2.42-.21,1.13,1.13,0,0,1,.19,1.87A2.09,2.09,0,0,1,133.21,109.3Z"/><path class="cls-23" d="M137.89,110.77a2.23,2.23,0,0,1-2.58-.05,1.19,1.19,0,0,1,0-2,2.23,2.23,0,0,1,2.58.05A1.19,1.19,0,0,1,137.89,110.77Z"/><path class="cls-23" d="M143.07,111.17a2.14,2.14,0,0,1-2.47-.56,1.24,1.24,0,0,1,.68-1.91,2.14,2.14,0,0,1,2.47.56A1.24,1.24,0,0,1,143.07,111.17Z"/><path class="cls-22" d="M137.71,109.75a2.8,2.8,0,0,1-2.9-.11,1.1,1.1,0,0,1-.07-2,2.8,2.8,0,0,1,2.9.11A1.1,1.1,0,0,1,137.71,109.75Z"/><path class="cls-22" d="M140.64,109.93a2.8,2.8,0,0,1-2.9-.11,1.1,1.1,0,0,1-.07-2,2.8,2.8,0,0,1,2.9.11A1.1,1.1,0,0,1,140.64,109.93Z"/><path class="cls-23" d="M140.69,109.43a2.69,2.69,0,0,1-2.79-.05,1.06,1.06,0,0,1,0-1.89,2.69,2.69,0,0,1,2.79.05A1.06,1.06,0,0,1,140.69,109.43Z"/><path class="cls-22" d="M144,109.86a2.8,2.8,0,0,1-2.9-.11,1.1,1.1,0,0,1-.07-2,2.8,2.8,0,0,1,2.9.11A1.1,1.1,0,0,1,144,109.86Z"/><path class="cls-22" d="M146.75,108.6a2.8,2.8,0,0,1-2.9-.11,1.1,1.1,0,0,1-.07-2,2.8,2.8,0,0,1,2.9.11A1.1,1.1,0,0,1,146.75,108.6Z"/><path class="cls-23" d="M146,108.42a2.39,2.39,0,0,1-2.52-.53c-.51-.62-.22-1.39.66-1.72a2.39,2.39,0,0,1,2.52.53C147.18,107.32,146.88,108.09,146,108.42Z"/><path class="cls-22" d="M132.71,108.38c-1-.31-1.41-1.14-.92-1.86a2.48,2.48,0,0,1,2.68-.75c1,.31,1.41,1.14.92,1.86A2.48,2.48,0,0,1,132.71,108.38Z"/><path class="cls-23" d="M132.68,107.85a1,1,0,0,1-.21-1.78,2.51,2.51,0,0,1,2.62-.2,1,1,0,0,1,.21,1.78A2.51,2.51,0,0,1,132.68,107.85Z"/><path class="cls-23" d="M137.76,109.25a2.69,2.69,0,0,1-2.79-.05,1.06,1.06,0,0,1,0-1.89,2.69,2.69,0,0,1,2.79.05A1.06,1.06,0,0,1,137.76,109.25Z"/><path class="cls-23" d="M143.37,109.64a2.54,2.54,0,0,1-2.68-.54c-.54-.65-.21-1.47.73-1.82a2.54,2.54,0,0,1,2.68.54C144.64,108.48,144.31,109.29,143.37,109.64Z"/><path class="cls-22" d="M137.74,107.95a2.8,2.8,0,0,1-2.9-.08,1.1,1.1,0,0,1-.1-2,2.8,2.8,0,0,1,2.9.08A1.1,1.1,0,0,1,137.74,107.95Z"/><path class="cls-22" d="M140.68,108.1a2.8,2.8,0,0,1-2.9-.08,1.1,1.1,0,0,1-.1-2,2.8,2.8,0,0,1,2.9.08A1.1,1.1,0,0,1,140.68,108.1Z"/><path class="cls-23" d="M140.72,107.6a2.69,2.69,0,0,1-2.79,0,1.06,1.06,0,0,1,0-1.89,2.69,2.69,0,0,1,2.79,0A1.06,1.06,0,0,1,140.72,107.6Z"/><path class="cls-22" d="M144,108a2.8,2.8,0,0,1-2.9-.08,1.1,1.1,0,0,1-.1-2,2.8,2.8,0,0,1,2.9.08A1.1,1.1,0,0,1,144,108Z"/><path class="cls-22" d="M146.76,106.7a2.8,2.8,0,0,1-2.9-.08,1.1,1.1,0,0,1-.1-2,2.8,2.8,0,0,1,2.9.08A1.1,1.1,0,0,1,146.76,106.7Z"/><path class="cls-23" d="M146,106.53a2.39,2.39,0,0,1-2.53-.5c-.52-.61-.24-1.39.63-1.73a2.39,2.39,0,0,1,2.53.5C147.17,105.41,146.88,106.19,146,106.53Z"/><path class="cls-22" d="M132.72,106.64c-1-.3-1.43-1.13-1-1.85a2.48,2.48,0,0,1,2.66-.78c1,.3,1.43,1.13,1,1.85A2.48,2.48,0,0,1,132.72,106.64Z"/><path class="cls-23" d="M132.68,106.11a1,1,0,0,1-.24-1.77,2.51,2.51,0,0,1,2.61-.23,1,1,0,0,1,.24,1.77A2.51,2.51,0,0,1,132.68,106.11Z"/><path class="cls-23" d="M137.78,107.45a2.69,2.69,0,0,1-2.79,0,1.06,1.06,0,0,1,0-1.89,2.69,2.69,0,0,1,2.79,0A1.06,1.06,0,0,1,137.78,107.45Z"/><path class="cls-23" d="M143.4,107.78a2.54,2.54,0,0,1-2.69-.51c-.55-.64-.24-1.46.7-1.83a2.54,2.54,0,0,1,2.69.51C144.65,106.6,144.33,107.41,143.4,107.78Z"/><path class="cls-22" d="M137.83,106.26a2.32,2.32,0,0,1-2.68-.08,1.24,1.24,0,0,1-.09-2.06,2.32,2.32,0,0,1,2.68.08A1.24,1.24,0,0,1,137.83,106.26Z"/><path class="cls-22" d="M140.54,106.41a2.32,2.32,0,0,1-2.68-.08,1.24,1.24,0,0,1-.09-2.06,2.32,2.32,0,0,1,2.68.08A1.24,1.24,0,0,1,140.54,106.41Z"/><path class="cls-23" d="M140.57,105.89a2.23,2.23,0,0,1-2.58,0,1.19,1.19,0,0,1,0-2,2.23,2.23,0,0,1,2.58,0A1.19,1.19,0,0,1,140.57,105.89Z"/><path class="cls-22" d="M143.64,106.3a2.32,2.32,0,0,1-2.68-.08,1.24,1.24,0,0,1-.09-2.06,2.32,2.32,0,0,1,2.68.08A1.24,1.24,0,0,1,143.64,106.3Z"/><path class="cls-22" d="M146.16,104.94a2.32,2.32,0,0,1-2.68-.08,1.24,1.24,0,0,1-.09-2.06,2.32,2.32,0,0,1,2.68.08A1.24,1.24,0,0,1,146.16,104.94Z"/><path class="cls-23" d="M145.46,104.76a2,2,0,0,1-2.34-.52,1.17,1.17,0,0,1,.58-1.82,2,2,0,0,1,2.34.52A1.17,1.17,0,0,1,145.46,104.76Z"/><path class="cls-22" d="M133.19,104.88a1.33,1.33,0,0,1-.88-1.95,2.12,2.12,0,0,1,2.46-.82,1.33,1.33,0,0,1,.88,1.95A2.12,2.12,0,0,1,133.19,104.88Z"/><path class="cls-23" d="M133.15,104.32a1.13,1.13,0,0,1-.22-1.86,2.08,2.08,0,0,1,2.41-.24,1.13,1.13,0,0,1,.22,1.86A2.08,2.08,0,0,1,133.15,104.32Z"/><path class="cls-23" d="M137.86,105.74a2.23,2.23,0,0,1-2.58,0,1.19,1.19,0,0,1,0-2,2.23,2.23,0,0,1,2.58,0A1.19,1.19,0,0,1,137.86,105.74Z"/><path class="cls-23" d="M143,106.08a2.14,2.14,0,0,1-2.48-.53,1.24,1.24,0,0,1,.65-1.92,2.14,2.14,0,0,1,2.48.53A1.24,1.24,0,0,1,143,106.08Z"/><ellipse class="cls-22" cx="136.9" cy="103.36" rx="1.54" ry="1.66" transform="translate(-33.01 126.98) rotate(-44.97)"/><ellipse class="cls-22" cx="139.19" cy="103.53" rx="1.54" ry="1.66" transform="translate(-32.46 128.65) rotate(-44.97)"/><ellipse class="cls-23" cx="139.3" cy="103.03" rx="1.53" ry="1.56" transform="translate(-32.07 128.57) rotate(-44.97)"/><ellipse class="cls-22" cx="141.82" cy="103.41" rx="1.54" ry="1.66" transform="translate(-31.6 130.47) rotate(-44.97)"/><ellipse class="cls-22" cx="143.95" cy="101.91" rx="1.54" ry="1.66" transform="translate(-29.92 131.53) rotate(-44.97)"/><ellipse class="cls-23" cx="143.79" cy="101.61" rx="1.43" ry="1.48" transform="translate(-31.53 85.37) rotate(-29.95)"/><ellipse class="cls-22" cx="134.82" cy="101.52" rx="1.66" ry="1.54" transform="translate(-12.41 184) rotate(-66.24)"/><ellipse class="cls-23" cx="135.05" cy="101.26" rx="1.48" ry="1.43" transform="translate(-28.46 143.15) rotate(-51.23)"/><ellipse class="cls-23" cx="137" cy="102.86" rx="1.53" ry="1.56" transform="translate(-32.62 126.9) rotate(-44.97)"/><ellipse class="cls-23" cx="141.71" cy="102.99" rx="1.53" ry="1.56" transform="translate(-32.49 84.52) rotate(-29.95)"/><ellipse class="cls-23" cx="137.23" cy="100.58" rx="2.29" ry="2.11" transform="translate(36.5 237.69) rotate(-89.93)"/><ellipse class="cls-23" cx="141.67" cy="100.58" rx="2.29" ry="2.11" transform="translate(40.93 242.13) rotate(-89.93)"/><ellipse class="cls-23" cx="139.45" cy="99.98" rx="1.98" ry="2.11" transform="translate(39.32 239.32) rotate(-89.93)"/><path class="cls-22" d="M137.54,128.48a1.9,1.9,0,0,1-2.2-.09,1,1,0,0,1-.05-1.69,1.9,1.9,0,0,1,2.2.09A1,1,0,0,1,137.54,128.48Z"/><path class="cls-22" d="M139.76,128.63a1.9,1.9,0,0,1-2.2-.09,1,1,0,0,1-.05-1.69,1.9,1.9,0,0,1,2.2.09A1,1,0,0,1,139.76,128.63Z"/><path class="cls-23" d="M139.8,128.21a1.83,1.83,0,0,1-2.12,0,1,1,0,0,1,0-1.63,1.83,1.83,0,0,1,2.12,0A1,1,0,0,1,139.8,128.21Z"/><path class="cls-22" d="M142.31,128.57a1.9,1.9,0,0,1-2.2-.09,1,1,0,0,1-.05-1.69,1.9,1.9,0,0,1,2.2.09A1,1,0,0,1,142.31,128.57Z"/><path class="cls-22" d="M144.39,127.48a1.9,1.9,0,0,1-2.2-.09,1,1,0,0,1-.05-1.69,1.9,1.9,0,0,1,2.2.09A1,1,0,0,1,144.39,127.48Z"/><path class="cls-23" d="M143.82,127.33a1.65,1.65,0,0,1-1.91-.45,1,1,0,0,1,.5-1.49,1.65,1.65,0,0,1,1.91.45A1,1,0,0,1,143.82,127.33Z"/><path class="cls-22" d="M133.75,127.31a1.09,1.09,0,0,1-.7-1.61,1.75,1.75,0,0,1,2-.65,1.09,1.09,0,0,1,.7,1.61A1.75,1.75,0,0,1,133.75,127.31Z"/><path class="cls-23" d="M133.72,126.85a.93.93,0,0,1-.15-1.53,1.71,1.71,0,0,1,2-.18.93.93,0,0,1,.15,1.53A1.71,1.71,0,0,1,133.72,126.85Z"/><path class="cls-23" d="M137.57,128.05a1.83,1.83,0,0,1-2.12,0,1,1,0,0,1,0-1.63,1.83,1.83,0,0,1,2.12,0A1,1,0,0,1,137.57,128.05Z"/><path class="cls-23" d="M141.83,128.38a1.75,1.75,0,0,1-2-.46,1,1,0,0,1,.56-1.57,1.75,1.75,0,0,1,2,.46A1,1,0,0,1,141.83,128.38Z"/><path class="cls-22" d="M137.37,127a2.32,2.32,0,0,1-2.68-.11,1.24,1.24,0,0,1-.06-2.06,2.32,2.32,0,0,1,2.68.11A1.24,1.24,0,0,1,137.37,127Z"/><path class="cls-22" d="M140.08,127.18a2.32,2.32,0,0,1-2.68-.11,1.24,1.24,0,0,1-.06-2.06,2.32,2.32,0,0,1,2.68.11A1.24,1.24,0,0,1,140.08,127.18Z"/><path class="cls-23" d="M140.13,126.66a2.23,2.23,0,0,1-2.58-.05,1.19,1.19,0,0,1,0-2,2.23,2.23,0,0,1,2.58.05A1.19,1.19,0,0,1,140.13,126.66Z"/><path class="cls-22" d="M143.19,127.1a2.32,2.32,0,0,1-2.68-.11,1.24,1.24,0,0,1-.06-2.06,2.32,2.32,0,0,1,2.68.11A1.24,1.24,0,0,1,143.19,127.1Z"/><path class="cls-22" d="M145.72,125.77a2.32,2.32,0,0,1-2.68-.11,1.24,1.24,0,0,1-.06-2.06,2.32,2.32,0,0,1,2.68.11A1.24,1.24,0,0,1,145.72,125.77Z"/><path class="cls-23" d="M145,125.58a2,2,0,0,1-2.33-.55,1.17,1.17,0,0,1,.61-1.81,2,2,0,0,1,2.33.55A1.17,1.17,0,0,1,145,125.58Z"/><path class="cls-22" d="M132.76,125.56a1.33,1.33,0,0,1-.85-2,2.13,2.13,0,0,1,2.47-.79,1.33,1.33,0,0,1,.85,2A2.13,2.13,0,0,1,132.76,125.56Z"/><path class="cls-23" d="M132.73,125a1.13,1.13,0,0,1-.19-1.87,2.09,2.09,0,0,1,2.42-.21,1.13,1.13,0,0,1,.19,1.87A2.09,2.09,0,0,1,132.73,125Z"/><path class="cls-23" d="M137.42,126.47a2.23,2.23,0,0,1-2.58-.05,1.19,1.19,0,0,1,0-2,2.23,2.23,0,0,1,2.58.05A1.19,1.19,0,0,1,137.42,126.47Z"/><path class="cls-23" d="M142.6,126.87a2.14,2.14,0,0,1-2.47-.56,1.24,1.24,0,0,1,.68-1.91,2.14,2.14,0,0,1,2.47.56A1.24,1.24,0,0,1,142.6,126.87Z"/><path class="cls-22" d="M137.36,125a2.32,2.32,0,0,1-2.68-.11,1.24,1.24,0,0,1-.06-2.06,2.32,2.32,0,0,1,2.68.11A1.24,1.24,0,0,1,137.36,125Z"/><path class="cls-22" d="M140.07,125.18a2.32,2.32,0,0,1-2.68-.11,1.24,1.24,0,0,1-.06-2.06,2.32,2.32,0,0,1,2.68.11A1.24,1.24,0,0,1,140.07,125.18Z"/><path class="cls-23" d="M140.11,124.66a2.23,2.23,0,0,1-2.58-.05,1.19,1.19,0,0,1,0-2,2.23,2.23,0,0,1,2.58.05A1.19,1.19,0,0,1,140.11,124.66Z"/><path class="cls-22" d="M143.17,125.11a2.32,2.32,0,0,1-2.68-.11,1.24,1.24,0,0,1-.06-2.06,2.32,2.32,0,0,1,2.68.11A1.24,1.24,0,0,1,143.17,125.11Z"/><path class="cls-22" d="M145.71,123.78a2.32,2.32,0,0,1-2.68-.11,1.24,1.24,0,0,1-.06-2.06,2.32,2.32,0,0,1,2.68.11A1.24,1.24,0,0,1,145.71,123.78Z"/><path class="cls-23" d="M145,123.59a2,2,0,0,1-2.33-.55,1.17,1.17,0,0,1,.61-1.81,2,2,0,0,1,2.33.55A1.17,1.17,0,0,1,145,123.59Z"/><path class="cls-22" d="M132.75,123.57a1.33,1.33,0,0,1-.85-2,2.13,2.13,0,0,1,2.47-.79,1.33,1.33,0,0,1,.85,2A2.13,2.13,0,0,1,132.75,123.57Z"/><path class="cls-23" d="M132.72,123a1.13,1.13,0,0,1-.19-1.87,2.09,2.09,0,0,1,2.42-.21,1.13,1.13,0,0,1,.19,1.87A2.09,2.09,0,0,1,132.72,123Z"/><path class="cls-23" d="M137.4,124.48a2.23,2.23,0,0,1-2.58-.05,1.19,1.19,0,0,1,0-2,2.23,2.23,0,0,1,2.58.05A1.19,1.19,0,0,1,137.4,124.48Z"/><path class="cls-23" d="M142.58,124.88a2.14,2.14,0,0,1-2.47-.56,1.24,1.24,0,0,1,.68-1.91,2.14,2.14,0,0,1,2.47.56A1.24,1.24,0,0,1,142.58,124.88Z"/><path class="cls-22" d="M137.22,123.45a2.8,2.8,0,0,1-2.9-.11,1.1,1.1,0,0,1-.07-2,2.8,2.8,0,0,1,2.9.11A1.1,1.1,0,0,1,137.22,123.45Z"/><path class="cls-22" d="M140.15,123.63a2.8,2.8,0,0,1-2.9-.11,1.1,1.1,0,0,1-.07-2,2.8,2.8,0,0,1,2.9.11A1.1,1.1,0,0,1,140.15,123.63Z"/><path class="cls-23" d="M140.2,123.14a2.69,2.69,0,0,1-2.79-.05,1.06,1.06,0,0,1,0-1.89,2.69,2.69,0,0,1,2.79.05A1.06,1.06,0,0,1,140.2,123.14Z"/><path class="cls-22" d="M143.52,123.57a2.8,2.8,0,0,1-2.9-.11,1.1,1.1,0,0,1-.07-2,2.8,2.8,0,0,1,2.9.11A1.1,1.1,0,0,1,143.52,123.57Z"/><path class="cls-22" d="M146.26,122.3a2.8,2.8,0,0,1-2.9-.11,1.1,1.1,0,0,1-.07-2,2.8,2.8,0,0,1,2.9.11A1.1,1.1,0,0,1,146.26,122.3Z"/><path class="cls-23" d="M145.51,122.12a2.39,2.39,0,0,1-2.52-.53c-.51-.62-.22-1.39.66-1.72a2.39,2.39,0,0,1,2.52.53C146.69,121,146.39,121.79,145.51,122.12Z"/><path class="cls-22" d="M132.22,122.09c-1-.31-1.41-1.14-.92-1.86a2.48,2.48,0,0,1,2.68-.75c1,.31,1.41,1.14.92,1.86A2.48,2.48,0,0,1,132.22,122.09Z"/><path class="cls-23" d="M132.19,121.55a1,1,0,0,1-.21-1.78,2.51,2.51,0,0,1,2.62-.2,1,1,0,0,1,.21,1.78A2.51,2.51,0,0,1,132.19,121.55Z"/><path class="cls-23" d="M137.27,123a2.69,2.69,0,0,1-2.79-.05,1.06,1.06,0,0,1,0-1.89,2.69,2.69,0,0,1,2.79.05A1.06,1.06,0,0,1,137.27,123Z"/><path class="cls-23" d="M142.88,123.34a2.54,2.54,0,0,1-2.68-.54c-.54-.65-.21-1.47.73-1.82a2.54,2.54,0,0,1,2.68.54C144.15,122.18,143.82,123,142.88,123.34Z"/><path class="cls-22" d="M137.25,121.65a2.8,2.8,0,0,1-2.9-.08,1.1,1.1,0,0,1-.1-2,2.8,2.8,0,0,1,2.9.08A1.1,1.1,0,0,1,137.25,121.65Z"/><path class="cls-22" d="M140.19,121.8a2.8,2.8,0,0,1-2.9-.08,1.1,1.1,0,0,1-.1-2,2.8,2.8,0,0,1,2.9.08A1.1,1.1,0,0,1,140.19,121.8Z"/><path class="cls-23" d="M140.23,121.3a2.69,2.69,0,0,1-2.79,0,1.06,1.06,0,0,1,0-1.89,2.69,2.69,0,0,1,2.79,0A1.06,1.06,0,0,1,140.23,121.3Z"/><path class="cls-22" d="M143.55,121.69a2.8,2.8,0,0,1-2.9-.08,1.1,1.1,0,0,1-.1-2,2.8,2.8,0,0,1,2.9.08A1.1,1.1,0,0,1,143.55,121.69Z"/><path class="cls-22" d="M146.28,120.4a2.8,2.8,0,0,1-2.9-.08,1.1,1.1,0,0,1-.1-2,2.8,2.8,0,0,1,2.9.08A1.1,1.1,0,0,1,146.28,120.4Z"/><path class="cls-23" d="M145.52,120.23a2.39,2.39,0,0,1-2.53-.5c-.52-.61-.24-1.39.63-1.73a2.39,2.39,0,0,1,2.53.5C146.68,119.12,146.39,119.89,145.52,120.23Z"/><path class="cls-22" d="M132.23,120.35c-1-.3-1.43-1.13-1-1.85a2.48,2.48,0,0,1,2.66-.78c1,.3,1.43,1.13,1,1.85A2.48,2.48,0,0,1,132.23,120.35Z"/><path class="cls-23" d="M132.19,119.81A1,1,0,0,1,132,118a2.51,2.51,0,0,1,2.61-.23,1,1,0,0,1,.24,1.77A2.51,2.51,0,0,1,132.19,119.81Z"/><path class="cls-23" d="M137.29,121.16a2.69,2.69,0,0,1-2.79,0,1.06,1.06,0,0,1,0-1.89,2.69,2.69,0,0,1,2.79,0A1.06,1.06,0,0,1,137.29,121.16Z"/><path class="cls-23" d="M142.91,121.48a2.54,2.54,0,0,1-2.69-.51c-.55-.64-.24-1.46.7-1.83a2.54,2.54,0,0,1,2.69.51C144.16,120.3,143.84,121.12,142.91,121.48Z"/><path class="cls-22" d="M137.34,120a2.32,2.32,0,0,1-2.68-.08,1.24,1.24,0,0,1-.09-2.06,2.32,2.32,0,0,1,2.68.08A1.24,1.24,0,0,1,137.34,120Z"/><path class="cls-22" d="M140,120.11a2.32,2.32,0,0,1-2.68-.08,1.24,1.24,0,0,1-.09-2.06,2.32,2.32,0,0,1,2.68.08A1.24,1.24,0,0,1,140,120.11Z"/><path class="cls-23" d="M140.08,119.59a2.23,2.23,0,0,1-2.58,0,1.19,1.19,0,0,1,0-2,2.23,2.23,0,0,1,2.58,0A1.19,1.19,0,0,1,140.08,119.59Z"/><path class="cls-22" d="M143.15,120a2.32,2.32,0,0,1-2.68-.08,1.24,1.24,0,0,1-.09-2.06,2.32,2.32,0,0,1,2.68.08A1.24,1.24,0,0,1,143.15,120Z"/><path class="cls-22" d="M145.67,118.64a2.32,2.32,0,0,1-2.68-.08,1.24,1.24,0,0,1-.09-2.06,2.32,2.32,0,0,1,2.68.08A1.24,1.24,0,0,1,145.67,118.64Z"/><path class="cls-23" d="M145,118.46a2,2,0,0,1-2.34-.52,1.17,1.17,0,0,1,.58-1.82,2,2,0,0,1,2.34.52A1.17,1.17,0,0,1,145,118.46Z"/><path class="cls-22" d="M132.7,118.59a1.33,1.33,0,0,1-.88-1.95,2.12,2.12,0,0,1,2.46-.82,1.33,1.33,0,0,1,.88,1.95A2.12,2.12,0,0,1,132.7,118.59Z"/><path class="cls-23" d="M132.66,118a1.13,1.13,0,0,1-.22-1.86,2.08,2.08,0,0,1,2.41-.24,1.13,1.13,0,0,1,.22,1.86A2.08,2.08,0,0,1,132.66,118Z"/><path class="cls-23" d="M137.37,119.44a2.23,2.23,0,0,1-2.58,0,1.19,1.19,0,0,1,0-2,2.23,2.23,0,0,1,2.58,0A1.19,1.19,0,0,1,137.37,119.44Z"/><path class="cls-23" d="M142.56,119.78a2.14,2.14,0,0,1-2.48-.53,1.24,1.24,0,0,1,.65-1.92,2.14,2.14,0,0,1,2.48.53A1.24,1.24,0,0,1,142.56,119.78Z"/><ellipse class="cls-22" cx="136.41" cy="117.07" rx="1.54" ry="1.66" transform="translate(-42.83 130.64) rotate(-44.97)"/><ellipse class="cls-22" cx="138.7" cy="117.24" rx="1.54" ry="1.66" transform="translate(-42.28 132.31) rotate(-44.97)"/><ellipse class="cls-23" cx="138.81" cy="116.74" rx="1.53" ry="1.56" transform="translate(-41.9 132.24) rotate(-44.97)"/><ellipse class="cls-22" cx="141.33" cy="117.11" rx="1.54" ry="1.66" transform="translate(-41.43 134.13) rotate(-44.97)"/><ellipse class="cls-22" cx="143.46" cy="115.62" rx="1.54" ry="1.66" transform="translate(-39.75 135.2) rotate(-44.97)"/><ellipse class="cls-23" cx="143.3" cy="115.31" rx="1.43" ry="1.48" transform="translate(-38.43 86.96) rotate(-29.95)"/><ellipse class="cls-22" cx="134.33" cy="115.22" rx="1.66" ry="1.54" transform="translate(-25.25 191.73) rotate(-66.24)"/><ellipse class="cls-23" cx="134.56" cy="114.96" rx="1.48" ry="1.43" transform="translate(-39.33 147.89) rotate(-51.23)"/><ellipse class="cls-23" cx="136.51" cy="116.57" rx="1.53" ry="1.56" transform="translate(-42.45 130.57) rotate(-44.97)"/><ellipse class="cls-23" cx="141.23" cy="116.69" rx="1.53" ry="1.56" transform="translate(-39.4 86.1) rotate(-29.95)"/><ellipse class="cls-23" cx="136.74" cy="114.28" rx="2.29" ry="2.11" transform="translate(22.31 250.89) rotate(-89.93)"/><ellipse class="cls-23" cx="141.18" cy="114.28" rx="2.29" ry="2.11" transform="translate(26.73 255.33) rotate(-89.93)"/><ellipse class="cls-23" cx="138.96" cy="113.68" rx="1.98" ry="2.11" transform="translate(25.12 252.51) rotate(-89.93)"/><path class="cls-22" d="M138,142.82a1.9,1.9,0,0,1-2.2-.09,1,1,0,0,1-.05-1.69,1.9,1.9,0,0,1,2.2.09A1,1,0,0,1,138,142.82Z"/><path class="cls-22" d="M140.25,143a1.9,1.9,0,0,1-2.2-.09,1,1,0,0,1-.05-1.69,1.9,1.9,0,0,1,2.2.09A1,1,0,0,1,140.25,143Z"/><path class="cls-23" d="M140.29,142.54a1.83,1.83,0,0,1-2.12,0,1,1,0,0,1,0-1.63,1.83,1.83,0,0,1,2.12,0A1,1,0,0,1,140.29,142.54Z"/><path class="cls-22" d="M142.8,142.91a1.9,1.9,0,0,1-2.2-.09,1,1,0,0,1-.05-1.69,1.9,1.9,0,0,1,2.2.09A1,1,0,0,1,142.8,142.91Z"/><path class="cls-22" d="M144.88,141.81a1.9,1.9,0,0,1-2.2-.09,1,1,0,0,1-.05-1.69,1.9,1.9,0,0,1,2.2.09A1,1,0,0,1,144.88,141.81Z"/><path class="cls-23" d="M144.31,141.66a1.65,1.65,0,0,1-1.91-.45,1,1,0,0,1,.5-1.49,1.65,1.65,0,0,1,1.91.45A1,1,0,0,1,144.31,141.66Z"/><path class="cls-22" d="M134.24,141.65a1.09,1.09,0,0,1-.7-1.61,1.75,1.75,0,0,1,2-.65,1.09,1.09,0,0,1,.7,1.61A1.75,1.75,0,0,1,134.24,141.65Z"/><path class="cls-23" d="M134.21,141.18a.93.93,0,0,1-.15-1.53,1.71,1.71,0,0,1,2-.18.93.93,0,0,1,.15,1.53A1.71,1.71,0,0,1,134.21,141.18Z"/><path class="cls-23" d="M138.06,142.39a1.83,1.83,0,0,1-2.12,0,1,1,0,0,1,0-1.63,1.83,1.83,0,0,1,2.12,0A1,1,0,0,1,138.06,142.39Z"/><path class="cls-23" d="M142.32,142.72a1.75,1.75,0,0,1-2-.46,1,1,0,0,1,.56-1.57,1.75,1.75,0,0,1,2,.46A1,1,0,0,1,142.32,142.72Z"/><path class="cls-22" d="M137.86,141.33a2.32,2.32,0,0,1-2.68-.11,1.24,1.24,0,0,1-.06-2.06,2.32,2.32,0,0,1,2.68.11A1.24,1.24,0,0,1,137.86,141.33Z"/><path class="cls-22" d="M140.57,141.51a2.32,2.32,0,0,1-2.68-.11,1.24,1.24,0,0,1-.06-2.06,2.32,2.32,0,0,1,2.68.11A1.24,1.24,0,0,1,140.57,141.51Z"/><path class="cls-23" d="M140.62,141a2.23,2.23,0,0,1-2.58-.05,1.19,1.19,0,0,1,0-2,2.23,2.23,0,0,1,2.58.05A1.19,1.19,0,0,1,140.62,141Z"/><path class="cls-22" d="M143.68,141.44a2.32,2.32,0,0,1-2.68-.11,1.24,1.24,0,0,1-.06-2.06,2.32,2.32,0,0,1,2.68.11A1.24,1.24,0,0,1,143.68,141.44Z"/><path class="cls-22" d="M146.21,140.1a2.32,2.32,0,0,1-2.68-.11,1.24,1.24,0,0,1-.06-2.06,2.32,2.32,0,0,1,2.68.11A1.24,1.24,0,0,1,146.21,140.1Z"/><path class="cls-23" d="M145.52,139.92a2,2,0,0,1-2.33-.55,1.17,1.17,0,0,1,.61-1.81,2,2,0,0,1,2.33.55A1.17,1.17,0,0,1,145.52,139.92Z"/><path class="cls-22" d="M133.25,139.9a1.33,1.33,0,0,1-.85-2,2.13,2.13,0,0,1,2.47-.79,1.33,1.33,0,0,1,.85,2A2.13,2.13,0,0,1,133.25,139.9Z"/><path class="cls-23" d="M133.22,139.34a1.13,1.13,0,0,1-.19-1.87,2.09,2.09,0,0,1,2.42-.21,1.13,1.13,0,0,1,.19,1.87A2.09,2.09,0,0,1,133.22,139.34Z"/><path class="cls-23" d="M137.91,140.8a2.23,2.23,0,0,1-2.58-.05,1.19,1.19,0,0,1,0-2,2.23,2.23,0,0,1,2.58.05A1.19,1.19,0,0,1,137.91,140.8Z"/><path class="cls-23" d="M143.09,141.21a2.14,2.14,0,0,1-2.47-.56,1.24,1.24,0,0,1,.68-1.91,2.14,2.14,0,0,1,2.47.56A1.24,1.24,0,0,1,143.09,141.21Z"/><path class="cls-22" d="M137.85,139.33a2.32,2.32,0,0,1-2.68-.11,1.24,1.24,0,0,1-.06-2.06,2.32,2.32,0,0,1,2.68.11A1.24,1.24,0,0,1,137.85,139.33Z"/><path class="cls-22" d="M140.56,139.52a2.32,2.32,0,0,1-2.68-.11,1.24,1.24,0,0,1-.06-2.06,2.32,2.32,0,0,1,2.68.11A1.24,1.24,0,0,1,140.56,139.52Z"/><path class="cls-23" d="M140.6,139a2.23,2.23,0,0,1-2.58-.05,1.19,1.19,0,0,1,0-2,2.23,2.23,0,0,1,2.58.05A1.19,1.19,0,0,1,140.6,139Z"/><path class="cls-22" d="M143.66,139.44a2.32,2.32,0,0,1-2.68-.11,1.24,1.24,0,0,1-.06-2.06,2.32,2.32,0,0,1,2.68.11A1.24,1.24,0,0,1,143.66,139.44Z"/><path class="cls-22" d="M146.2,138.11a2.32,2.32,0,0,1-2.68-.11,1.24,1.24,0,0,1-.06-2.06,2.32,2.32,0,0,1,2.68.11A1.24,1.24,0,0,1,146.2,138.11Z"/><path class="cls-23" d="M145.5,137.92a2,2,0,0,1-2.33-.55,1.17,1.17,0,0,1,.61-1.81,2,2,0,0,1,2.33.55A1.17,1.17,0,0,1,145.5,137.92Z"/><path class="cls-22" d="M133.24,137.91a1.33,1.33,0,0,1-.85-2,2.13,2.13,0,0,1,2.47-.79,1.33,1.33,0,0,1,.85,2A2.13,2.13,0,0,1,133.24,137.91Z"/><path class="cls-23" d="M133.21,137.34a1.13,1.13,0,0,1-.19-1.87,2.09,2.09,0,0,1,2.42-.21,1.13,1.13,0,0,1,.19,1.87A2.09,2.09,0,0,1,133.21,137.34Z"/><path class="cls-23" d="M137.89,138.81a2.23,2.23,0,0,1-2.58-.05,1.19,1.19,0,0,1,0-2,2.23,2.23,0,0,1,2.58.05A1.19,1.19,0,0,1,137.89,138.81Z"/><path class="cls-23" d="M143.07,139.21a2.14,2.14,0,0,1-2.47-.56,1.24,1.24,0,0,1,.68-1.91,2.14,2.14,0,0,1,2.47.56A1.24,1.24,0,0,1,143.07,139.21Z"/><path class="cls-22" d="M137.71,137.79a2.8,2.8,0,0,1-2.9-.11,1.1,1.1,0,0,1-.07-2,2.8,2.8,0,0,1,2.9.11A1.1,1.1,0,0,1,137.71,137.79Z"/><path class="cls-22" d="M140.64,138a2.8,2.8,0,0,1-2.9-.11,1.1,1.1,0,0,1-.07-2,2.8,2.8,0,0,1,2.9.11A1.1,1.1,0,0,1,140.64,138Z"/><path class="cls-23" d="M140.69,137.47a2.69,2.69,0,0,1-2.79-.05,1.06,1.06,0,0,1,0-1.89,2.69,2.69,0,0,1,2.79.05A1.06,1.06,0,0,1,140.69,137.47Z"/><path class="cls-22" d="M144,137.9a2.8,2.8,0,0,1-2.9-.11,1.1,1.1,0,0,1-.07-2,2.8,2.8,0,0,1,2.9.11A1.1,1.1,0,0,1,144,137.9Z"/><path class="cls-22" d="M146.75,136.64a2.8,2.8,0,0,1-2.9-.11,1.1,1.1,0,0,1-.07-2,2.8,2.8,0,0,1,2.9.11A1.1,1.1,0,0,1,146.75,136.64Z"/><path class="cls-23" d="M146,136.46a2.39,2.39,0,0,1-2.52-.53c-.51-.62-.22-1.39.66-1.72a2.39,2.39,0,0,1,2.52.53C147.18,135.36,146.88,136.13,146,136.46Z"/><path class="cls-22" d="M132.71,136.42c-1-.31-1.41-1.14-.92-1.86a2.48,2.48,0,0,1,2.68-.75c1,.31,1.41,1.14.92,1.86A2.48,2.48,0,0,1,132.71,136.42Z"/><path class="cls-23" d="M132.68,135.88a1,1,0,0,1-.21-1.78,2.51,2.51,0,0,1,2.62-.2,1,1,0,0,1,.21,1.78A2.51,2.51,0,0,1,132.68,135.88Z"/><path class="cls-23" d="M137.76,137.29a2.69,2.69,0,0,1-2.79-.05,1.06,1.06,0,0,1,0-1.89,2.69,2.69,0,0,1,2.79.05A1.06,1.06,0,0,1,137.76,137.29Z"/><path class="cls-23" d="M143.37,137.68a2.54,2.54,0,0,1-2.68-.54c-.54-.65-.21-1.47.73-1.82a2.54,2.54,0,0,1,2.68.54C144.64,136.51,144.31,137.33,143.37,137.68Z"/><path class="cls-22" d="M137.74,136a2.8,2.8,0,0,1-2.9-.08,1.1,1.1,0,0,1-.1-2,2.8,2.8,0,0,1,2.9.08A1.1,1.1,0,0,1,137.74,136Z"/><path class="cls-22" d="M140.68,136.13a2.8,2.8,0,0,1-2.9-.08,1.1,1.1,0,0,1-.1-2,2.8,2.8,0,0,1,2.9.08A1.1,1.1,0,0,1,140.68,136.13Z"/><path class="cls-23" d="M140.72,135.64a2.69,2.69,0,0,1-2.79,0,1.06,1.06,0,0,1,0-1.89,2.69,2.69,0,0,1,2.79,0A1.06,1.06,0,0,1,140.72,135.64Z"/><path class="cls-22" d="M144,136a2.8,2.8,0,0,1-2.9-.08,1.1,1.1,0,0,1-.1-2,2.8,2.8,0,0,1,2.9.08A1.1,1.1,0,0,1,144,136Z"/><path class="cls-22" d="M146.76,134.73a2.8,2.8,0,0,1-2.9-.08,1.1,1.1,0,0,1-.1-2,2.8,2.8,0,0,1,2.9.08A1.1,1.1,0,0,1,146.76,134.73Z"/><path class="cls-23" d="M146,134.56a2.39,2.39,0,0,1-2.53-.5c-.52-.61-.24-1.39.63-1.73a2.39,2.39,0,0,1,2.53.5C147.17,133.45,146.88,134.22,146,134.56Z"/><path class="cls-22" d="M132.72,134.68c-1-.3-1.43-1.13-1-1.85a2.48,2.48,0,0,1,2.66-.78c1,.3,1.43,1.13,1,1.85A2.48,2.48,0,0,1,132.72,134.68Z"/><path class="cls-23" d="M132.68,134.14a1,1,0,0,1-.24-1.77,2.51,2.51,0,0,1,2.61-.23,1,1,0,0,1,.24,1.77A2.51,2.51,0,0,1,132.68,134.14Z"/><path class="cls-23" d="M137.78,135.49a2.69,2.69,0,0,1-2.79,0,1.06,1.06,0,0,1,0-1.89,2.69,2.69,0,0,1,2.79,0A1.06,1.06,0,0,1,137.78,135.49Z"/><path class="cls-23" d="M143.4,135.82a2.54,2.54,0,0,1-2.69-.51c-.55-.64-.24-1.46.7-1.83a2.54,2.54,0,0,1,2.69.51C144.65,134.63,144.33,135.45,143.4,135.82Z"/><path class="cls-22" d="M137.83,134.29a2.32,2.32,0,0,1-2.68-.08,1.24,1.24,0,0,1-.09-2.06,2.32,2.32,0,0,1,2.68.08A1.24,1.24,0,0,1,137.83,134.29Z"/><path class="cls-22" d="M140.54,134.45a2.32,2.32,0,0,1-2.68-.08,1.24,1.24,0,0,1-.09-2.06,2.32,2.32,0,0,1,2.68.08A1.24,1.24,0,0,1,140.54,134.45Z"/><path class="cls-23" d="M140.57,133.93a2.23,2.23,0,0,1-2.58,0,1.19,1.19,0,0,1,0-2,2.23,2.23,0,0,1,2.58,0A1.19,1.19,0,0,1,140.57,133.93Z"/><path class="cls-22" d="M143.64,134.34a2.32,2.32,0,0,1-2.68-.08,1.24,1.24,0,0,1-.09-2.06,2.32,2.32,0,0,1,2.68.08A1.24,1.24,0,0,1,143.64,134.34Z"/><path class="cls-22" d="M146.16,133a2.32,2.32,0,0,1-2.68-.08,1.24,1.24,0,0,1-.09-2.06,2.32,2.32,0,0,1,2.68.08A1.24,1.24,0,0,1,146.16,133Z"/><path class="cls-23" d="M145.46,132.8a2,2,0,0,1-2.34-.52,1.17,1.17,0,0,1,.58-1.82A2,2,0,0,1,146,131,1.17,1.17,0,0,1,145.46,132.8Z"/><path class="cls-22" d="M133.19,132.92a1.33,1.33,0,0,1-.88-1.95,2.12,2.12,0,0,1,2.46-.82,1.33,1.33,0,0,1,.88,1.95A2.12,2.12,0,0,1,133.19,132.92Z"/><path class="cls-23" d="M133.15,132.36a1.13,1.13,0,0,1-.22-1.86,2.08,2.08,0,0,1,2.41-.24,1.13,1.13,0,0,1,.22,1.86A2.08,2.08,0,0,1,133.15,132.36Z"/><path class="cls-23" d="M137.86,133.77a2.23,2.23,0,0,1-2.58,0,1.19,1.19,0,0,1,0-2,2.23,2.23,0,0,1,2.58,0A1.19,1.19,0,0,1,137.86,133.77Z"/><path class="cls-23" d="M143,134.11a2.14,2.14,0,0,1-2.48-.53,1.24,1.24,0,0,1,.65-1.92,2.14,2.14,0,0,1,2.48.53A1.24,1.24,0,0,1,143,134.11Z"/><ellipse class="cls-22" cx="136.9" cy="131.4" rx="1.54" ry="1.66" transform="translate(-52.82 135.18) rotate(-44.97)"/><ellipse class="cls-22" cx="139.19" cy="131.57" rx="1.54" ry="1.66" transform="translate(-52.27 136.85) rotate(-44.97)"/><ellipse class="cls-23" cx="139.3" cy="131.07" rx="1.53" ry="1.56" transform="translate(-51.89 136.77) rotate(-44.97)"/><ellipse class="cls-22" cx="141.82" cy="131.45" rx="1.54" ry="1.66" transform="translate(-51.42 138.67) rotate(-44.97)"/><ellipse class="cls-22" cx="143.95" cy="129.95" rx="1.54" ry="1.66" transform="translate(-49.73 139.73) rotate(-44.97)"/><ellipse class="cls-23" cx="143.79" cy="129.65" rx="1.43" ry="1.48" transform="translate(-45.53 89.11) rotate(-29.95)"/><ellipse class="cls-22" cx="134.82" cy="129.55" rx="1.66" ry="1.54" transform="translate(-38.08 200.74) rotate(-66.24)"/><ellipse class="cls-23" cx="135.05" cy="129.29" rx="1.48" ry="1.43" transform="translate(-50.32 153.63) rotate(-51.23)"/><ellipse class="cls-23" cx="137" cy="130.9" rx="1.53" ry="1.56" transform="translate(-52.44 135.1) rotate(-44.97)"/><ellipse class="cls-23" cx="141.71" cy="131.03" rx="1.53" ry="1.56" transform="translate(-46.49 88.26) rotate(-29.95)"/><ellipse class="cls-23" cx="137.23" cy="128.61" rx="2.29" ry="2.11" transform="translate(8.46 265.7) rotate(-89.93)"/><ellipse class="cls-23" cx="141.67" cy="128.62" rx="2.29" ry="2.11" transform="translate(12.89 270.14) rotate(-89.93)"/><ellipse class="cls-23" cx="139.45" cy="128.02" rx="1.98" ry="2.11" transform="translate(11.28 267.32) rotate(-89.93)"/><rect class="cls-24" x="128.48" y="143.87" width="21.78" height="2.32"/><rect class="cls-21" x="128.48" y="144.92" width="21.78" height="3.58"/><rect class="cls-20" x="128.48" y="101.7" width="1.71" height="43.22"/><rect class="cls-20" x="148.54" y="101.7" width="1.71" height="43.22"/><ellipse class="cls-25" cx="205.69" cy="172" rx="14.54" ry="21.03" transform="translate(-3.52 4.3) rotate(-1.19)"/><path class="cls-26" d="M208.25,188.05c.24,0,.24,0,.77-.4a4.14,4.14,0,0,0,.82-.88l.64-1.38-.66-.56s-.27.21,0-.24a1.85,1.85,0,0,1,.56-.66l.53-.42L211,183s-.19-.5.05-.48a.24.24,0,0,0,.27-.21l.29-.45.11-1,.05-.48.32-.69c.32-.69.61-1.14.16-1.43a1.87,1.87,0,0,1-.61-1l-.19-.5-.72-.08-.48-.05c-.24,0-.19-.5-.19-.5l.05-.48.4-1.41-.77.4-.77.4s-1.22.11-1.19-.13a3.52,3.52,0,0,0-.37-1l-.93-.34.56-.66a3.45,3.45,0,0,0-.4-.77,3.42,3.42,0,0,1-.37-1l-.16-.74.27-.21.29-.45.56-.66.5-.19.34-.93.05-.48.27-.21.77-.4.29-.45.74-.16.72.08.48.05.5-.19.24,0,.48.05.21.27.48.05-.42-.53-.24,0a.74.74,0,0,0-.45-.29l.05-.48.82-.88.29-.45-.9-.58-.93-.34-.5.19-.48-.05-.27.21-1.17-.37-.24,0-.45-.29.05-.48-.19-.5s-.37-1-.61-1-.64-.8-.64-.8-.37-1-1.11-.85c0,0-.05.48.19.5s.19.5.19.5l-.29.45-.56.66-.53.42-.53.42-1,.37-.27.21-1.48.32L200.28,164a.33.33,0,0,1-.05.48l-.27.21,0,.24-.53.42s.24,0-.21-.27a1.86,1.86,0,0,0-.69-.32l-.48-.05-.42-.53s-.24,0,0-.24l.27-.21.32-.69a3.42,3.42,0,0,0-1,.37l-1.06.85.19.5.13,1-.05.48a.33.33,0,0,1-.05.48l-.27.21a4.21,4.21,0,0,0,1.09,1.09,2.13,2.13,0,0,1,.82,1.3.84.84,0,0,0,.19.5l.21.27.16.74.19.5-.05.48.19.5.21.27.64.8-.08.72.19.5a3.21,3.21,0,0,0,.11,1.22l.37,1,.19.5-.05.48.42.53.21.27.35,1.25c-.24,0-.53.42-.53.42l.19.5.19.5.64.8c.24,0,1.09,1.09,1.09,1.09a.85.85,0,0,1,.66.56c.19.5.72.08.9.58s.42.53.42.53l1.14.61.85,1.06.21.27Z"/><rect class="cls-17" x="217.44" y="356.98" width="1.72" height="9.59" rx="0.86" ry="0.86" transform="translate(338.46 -43.31) rotate(47.63)"/><rect class="cls-17" x="218.09" y="361.88" width="1.72" height="9.59" rx="0.86" ry="0.86" transform="translate(342.3 -42.19) rotate(47.63)"/><rect class="cls-17" x="190.44" y="357.98" width="1.72" height="9.59" rx="0.86" ry="0.86" transform="translate(330.4 -23.04) rotate(47.63)"/><rect class="cls-17" x="191.09" y="362.88" width="1.72" height="9.59" rx="0.86" ry="0.86" transform="translate(334.23 -21.92) rotate(47.63)"/><path class="cls-27" d="M243.37,36.05c-1.55-7.54-4.13-17.5-7.71-22.43A23.69,23.69,0,0,0,226.48,6l-.5-.28-.47-.24a7.82,7.82,0,0,0-1.56-.58,24.3,24.3,0,0,0-2.5-.81c-.27-.07-5.54-1.38-10.28-2.35A9,9,0,0,0,205.87,0h-4.44a9.08,9.08,0,0,0-5.54,1.86c-6.35,1.48-16.64,4.32-20,6-2.11,1.05-5.63,2.82-10.14,19-2.44,8.79-3.9,17.52-3.9,23.37v1.6A9.83,9.83,0,0,0,165,59.07c.05.83.09,1.66.11,2.44a35.59,35.59,0,0,0,1.4,9.39c1,5.05,5.54,9.81,12.94,9.81,4,0,7.77-1.9,12.12-4.11,3.43-1.74,7.71-3.9,10.31-3.9,1.84,0,7.52.7,20.46,7.17A10.56,10.56,0,0,0,227.09,81a12,12,0,0,0,7-2.42,11.64,11.64,0,0,0,4.54-4.35c1.67-2.59,2.13-5.83,2.45-11.26,0-.36,0-.65,0-.82,0-.43.07-1,.09-1.75a9.88,9.88,0,0,0,1.53-1.25C245,57,247.21,54.73,243.37,36.05Z"/><rect class="cls-1" x="196.18" y="113.36" width="15.3" height="25.3" rx="7.64" ry="7.64"/><rect class="cls-28" x="196.18" y="108.13" width="15" height="13.83" rx="6.91" ry="6.91"/><rect class="cls-1" x="199.86" y="58.71" width="6.77" height="55.9" rx="3.38" ry="3.38" transform="translate(406.48 173.31) rotate(180)"/><ellipse class="cls-1" cx="202.65" cy="60.47" rx="10.89" ry="12.36"/><ellipse class="cls-29" cx="202.65" cy="56.35" rx="10.89" ry="12.36"/><ellipse class="cls-30" cx="202.65" cy="47.53" rx="10.89" ry="12.36"/><ellipse class="cls-31" cx="202.36" cy="46.35" rx="13.24" ry="8.83"/><ellipse class="cls-1" cx="202.36" cy="43.11" rx="13.24" ry="8.83"/><path class="cls-32" d="M243.37,42.05c-1.55-7.54-4.13-17.5-7.71-22.43A23.69,23.69,0,0,0,226.48,12l-.5-.28-.47-.24a7.82,7.82,0,0,0-1.56-.58,24.3,24.3,0,0,0-2.5-.81c-.27-.07-5.54-1.38-10.28-2.35A9,9,0,0,0,205.87,6h-4.44a9.08,9.08,0,0,0-5.54,1.86c-6.35,1.48-16.64,4.32-20,6-2.11,1.05-5.63,2.82-10.14,19-2.44,8.79-3.9,17.52-3.9,23.37v1.6A9.83,9.83,0,0,0,165,65.07c.05.83.09,1.66.11,2.44a35.59,35.59,0,0,0,1.4,9.39c1,5.05,5.54,9.81,12.94,9.81,4,0,7.77-1.9,12.12-4.11,3.43-1.74,7.71-3.9,10.31-3.9,1.84,0,7.52.7,20.46,7.17A10.56,10.56,0,0,0,227.09,87a12,12,0,0,0,7-2.42,11.64,11.64,0,0,0,4.54-4.35c1.67-2.59,2.13-5.83,2.45-11.26,0-.36,0-.65,0-.82,0-.43.07-1,.09-1.75a9.88,9.88,0,0,0,1.53-1.25C245,63,247.21,60.73,243.37,42.05Z"/><path class="cls-33" d="M174.32,75s.33,3.7,5.14,3.7,14.42-8,22.43-8,20.83,6.41,24,8,6.5-4,6.5-4L216.31,64.29s-14.42-1.6-22.43,0S174.32,75,174.32,75Z"/><path class="cls-34" d="M172.47,58.72a113.56,113.56,0,0,1,15.46-4.22c1.35-.21,3.9-.66,6.82-1a77.56,77.56,0,0,1,10.57-.41,70.77,70.77,0,0,1,16.74,3.32c3.12.88,11.26,3.66,11.26,3.66s0,5.84-.13,7.35S233,74.33,232,75.89s-1.63,2.22-4.32,1.5c-1.27-.34-4.72-3-9.76-5.38a39.42,39.42,0,0,0-11.82-3.56c-2-.25-8.7-.1-12.73,1.53A97.28,97.28,0,0,0,181.94,76c-1.44.81-4.79,2.37-6.35,1.22-1.08-.79-2.35-4.75-2.47-9.95C173,63.5,172.47,58.72,172.47,58.72Z"/><path class="cls-35" d="M169.84,56.28v1.6a1.57,1.57,0,0,0,1.6,1.6c1.6,0,11.92-6.25,32.4-6.33,8.91-.16,27.47,6.26,27.47,6.26s4.22,1.67,5.83.07-3.2-28.84-8-35.25c-3.2-4.81-9.61-6.41-9.61-6.41s-12.82-3.2-16-3.2-20.83,4.81-24,6.41S169.84,45.06,169.84,56.28Z"/><rect class="cls-33" x="200.32" y="14" width="6.66" height="2.22" rx="1.11" ry="1.11"/><polygon class="cls-33" points="189.87 18.64 189.35 18.69 189.34 18.61 189.87 18.6 189.87 18.64"/><path class="cls-33" d="M188.32,18.87l-1,.27-.05-.19,1-.22Z"/><polygon class="cls-33" points="186.33 19.49 185.39 19.91 185.27 19.66 186.25 19.26 186.33 19.49"/><polygon class="cls-33" points="184.48 20.42 183.63 21 183.43 20.73 184.32 20.15 184.48 20.42"/><polygon class="cls-33" points="182.83 21.65 182.1 22.38 181.84 22.14 182.6 21.4 182.83 21.65"/><polygon class="cls-33" points="181.44 23.18 180.84 24.02 180.55 23.84 181.15 22.96 181.44 23.18"/><polygon class="cls-33" points="180.32 24.91 179.86 25.84 179.61 25.74 180.04 24.77 180.32 24.91"/><polygon class="cls-33" points="179.47 26.81 179.16 27.8 178.97 27.75 179.25 26.74 179.47 26.81"/><polygon class="cls-33" points="178.9 28.82 178.72 29.84 178.59 29.83 178.75 28.79 178.9 28.82"/><polygon class="cls-33" points="178.56 30.88 178.41 31.92 178.28 31.9 178.44 30.86 178.56 30.88"/><path class="cls-33" d="M178.26,33c-.05.35-.1.69-.15,1l-.17,0q.09-.52.17-1Z"/><polygon class="cls-33" points="177.97 35.04 177.82 36.08 177.59 36.04 177.77 35.01 177.97 35.04"/><polygon class="cls-33" points="177.68 37.12 177.53 38.16 177.22 38.11 177.4 37.08 177.68 37.12"/><polygon class="cls-33" points="177.37 39.2 177.22 40.24 176.87 40.18 177.04 39.15 177.37 39.2"/><polygon class="cls-33" points="177.07 41.27 176.91 42.31 176.53 42.25 176.69 41.22 177.07 41.27"/><polygon class="cls-33" points="176.76 43.35 176.62 44.39 176.2 44.33 176.36 43.29 176.76 43.35"/><polygon class="cls-33" points="176.47 45.43 176.33 46.47 175.91 46.41 176.05 45.37 176.47 45.43"/><polygon class="cls-33" points="176.19 47.51 176.06 48.55 175.65 48.5 175.78 47.45 176.19 47.51"/><polygon class="cls-33" points="175.93 49.59 175.82 50.63 175.45 50.59 175.54 49.54 175.93 49.59"/><polygon class="cls-33" points="175.71 51.67 175.63 52.71 175.31 52.69 175.37 51.64 175.71 51.67"/><polygon class="cls-33" points="175.56 53.76 175.52 54.8 175.28 54.8 175.28 53.75 175.56 53.76"/><polygon class="cls-33" points="175.52 55.85 175.56 56.89 175.43 56.9 175.33 55.85 175.52 55.85"/><polygon class="cls-33" points="175.68 57.93 175.77 58.45 175.74 58.46 175.6 57.95 175.68 57.93"/><polygon class="cls-33" points="221.93 18.6 222.4 18.84 222.35 18.91 221.91 18.64 221.93 18.6"/><path class="cls-33" d="M223.32,19.38l.89.6-.12.16-.85-.64Z"/><polygon class="cls-33" points="225.05 20.63 225.87 21.33 225.67 21.54 224.9 20.82 225.05 20.63"/><polygon class="cls-33" points="226.63 22.08 227.35 22.89 227.09 23.09 226.4 22.3 226.63 22.08"/><polygon class="cls-33" points="228.01 23.74 228.6 24.63 228.3 24.82 227.72 23.94 228.01 23.74"/><polygon class="cls-33" points="229.13 25.58 229.56 26.57 229.25 26.69 228.81 25.74 229.13 25.58"/><path class="cls-33" d="M229.9,27.59l.13.52c0,.17.08.35.11.53l-.25.05c0-.17-.08-.34-.13-.51l-.15-.5Z"/><polygon class="cls-33" points="230.32 29.69 230.43 30.76 230.27 30.77 230.11 29.73 230.32 29.69"/><polygon class="cls-33" points="230.52 31.82 230.59 32.88 230.46 32.89 230.39 31.83 230.52 31.82"/><polygon class="cls-33" points="230.64 33.95 230.68 35.01 230.54 35.02 230.51 33.95 230.64 33.95"/><polygon class="cls-33" points="230.72 36.08 230.74 37.15 230.54 37.15 230.55 36.08 230.72 36.08"/><polygon class="cls-33" points="230.76 38.21 230.77 39.28 230.49 39.27 230.52 38.21 230.76 38.21"/><polygon class="cls-33" points="230.76 40.34 230.75 41.41 230.41 41.4 230.45 40.34 230.76 40.34"/><polygon class="cls-33" points="230.73 42.48 230.7 43.54 230.32 43.53 230.37 42.46 230.73 42.48"/><polygon class="cls-33" points="230.67 44.61 230.63 45.67 230.22 45.65 230.27 44.59 230.67 44.61"/><rect class="cls-33" x="229.81" y="47.05" width="1.07" height="0.43" transform="translate(171.67 274.96) rotate(-87.14)"/><polygon class="cls-33" points="230.47 48.87 230.41 49.93 230 49.91 230.05 48.84 230.47 48.87"/><polygon class="cls-33" points="230.34 50.99 230.27 52.06 229.89 52.03 229.94 50.97 230.34 50.99"/><polygon class="cls-33" points="230.2 53.12 230.13 54.18 229.81 54.16 229.85 53.1 230.2 53.12"/><path class="cls-33" d="M230.07,55.24c0,.35,0,.7,0,1.06h-.24c0-.36,0-.71,0-1.07Z"/><polygon class="cls-33" points="230.12 57.35 230.24 58.41 230.1 58.43 229.92 57.38 230.12 57.35"/><path class="cls-33" d="M230.47,59.44a3.54,3.54,0,0,0,.18.49l0,0a3.59,3.59,0,0,1-.21-.48Z"/><ellipse class="cls-32" cx="203.22" cy="40.05" rx="7.73" ry="11.18" transform="translate(-0.79 4.22) rotate(-1.19)"/><path class="cls-26" d="M203.34,51.41c-4.31,0-7.9-5-8-11.2a14.18,14.18,0,0,1,2.13-8.05,6.38,6.38,0,0,1,11.23-.23,14.18,14.18,0,0,1,2.46,8c.13,6.26-3.31,11.43-7.67,11.53Zm-.24-22.35H203a6.56,6.56,0,0,0-5.24,3.3,13.81,13.81,0,0,0-2.07,7.84c.12,6,3.55,10.83,7.66,10.83h.11c4.16-.09,7.44-5.09,7.31-11.14a13.81,13.81,0,0,0-2.39-7.75A6.6,6.6,0,0,0,203.1,29.06Z"/><path class="cls-26" d="M204.58,48.58c.13,0,.13,0,.41-.21a2.2,2.2,0,0,0,.44-.47l.34-.73-.35-.3s-.14.11,0-.13a1,1,0,0,1,.3-.35l.28-.23,0-.25s-.1-.27,0-.25a.12.12,0,0,0,.14-.11l.15-.24.06-.51,0-.25.17-.37c.17-.37.32-.61.08-.76a1,1,0,0,1-.32-.55l-.1-.27-.38,0-.25,0c-.13,0-.1-.27-.1-.27l0-.25.21-.75-.41.21-.41.21s-.65.06-.63-.07a1.87,1.87,0,0,0-.2-.54l-.49-.18.3-.35a1.84,1.84,0,0,0-.21-.41,1.82,1.82,0,0,1-.2-.54l-.08-.39.14-.11.15-.24.3-.35.27-.1.18-.49,0-.25.14-.11.41-.21.15-.24.39-.08.38,0,.25,0,.27-.1h.13l.25,0,.11.14.25,0-.23-.28h-.13a.4.4,0,0,0-.24-.15l0-.25.44-.47.15-.24-.48-.31-.49-.18-.27.1-.25,0-.14.11-.62-.2h-.13l-.24-.15,0-.25-.1-.27s-.2-.54-.32-.55-.34-.42-.34-.42-.2-.54-.59-.45c0,0,0,.25.1.27s.1.27.1.27l-.15.24-.3.35-.28.23-.28.23-.54.2-.14.11-.79.17-.7.56a.18.18,0,0,1,0,.25l-.14.11v.13l-.28.23s.13,0-.11-.14a1,1,0,0,0-.37-.17l-.25,0-.23-.28s-.13,0,0-.13l.14-.11.17-.37a1.82,1.82,0,0,0-.54.2l-.56.45.1.27.07.52,0,.25a.18.18,0,0,1,0,.25l-.14.11a2.24,2.24,0,0,0,.58.58,1.13,1.13,0,0,1,.44.69.45.45,0,0,0,.1.27l.11.14.08.39.1.27,0,.25.1.27.11.14.34.42,0,.38.1.27a1.71,1.71,0,0,0,.06.65l.2.54.1.27,0,.25.23.28.11.14.18.66c-.13,0-.28.23-.28.23l.1.27.1.27.34.42c.13,0,.58.58.58.58a.45.45,0,0,1,.35.3c.1.27.38,0,.48.31s.23.28.23.28l.61.32.45.56.11.14Z"/></g></g></svg>