<svg xmlns="http://www.w3.org/2000/svg" viewBox="0 0 437.39 330.1"><defs><style>.cls-1{fill:#f73131;}.cls-2{fill:#657172;}.cls-3{fill:#aaa;}.cls-4{fill:#96b5ed;}.cls-5{fill:#5a5b5b;}.cls-6{fill:#5f6060;}.cls-7{fill:#c7c6c5;}.cls-8{fill:#b5b4b4;}.cls-9{fill:#424242;}.cls-10{fill:#7c482c;}.cls-11{fill:#f75959;}.cls-12{fill:#bc0606;}.cls-13{fill:#528ac1;}.cls-14{fill:#7fadd3;}.cls-15{fill:#2ba5f7;}.cls-16{fill:#666;}.cls-17{fill:#e03f20;}.cls-18{fill:#f95428;}.cls-19{fill:#ccc;}.cls-20{fill:#f2f2f2;}.cls-21{fill:#f7b239;}.cls-22{fill:#e6e6e6;}.cls-23{fill:#c9311c;}.cls-24{fill:#1392d8;}</style></defs><title>bomber</title><g id="Capa_2" data-name="Capa 2"><g id="Capa_8" data-name="Capa 8"><path class="cls-1" d="M105.79,264H223V165.22H8.54V264H49v-6.17h56.7S105.79,264.44,105.79,264Z"/><rect class="cls-2" x="48.55" y="204.77" width="57.15" height="53.04"/><rect class="cls-2" x="131.4" y="204.62" width="57.15" height="53.04"/><rect class="cls-3" x="8.54" y="254.51" width="40.46" height="10.06"/><rect class="cls-3" x="106.05" y="254.51" width="117.73" height="10.06"/><rect class="cls-3" x="16.31" y="231.65" width="59.67" height="5.72" transform="translate(280.65 188.36) rotate(90)"/><rect class="cls-3" x="78.72" y="231.65" width="59.67" height="5.72" transform="translate(343.06 125.95) rotate(90)"/><rect class="cls-3" x="98.48" y="231.65" width="59.67" height="5.72" transform="translate(362.83 106.19) rotate(90)"/><rect class="cls-3" x="160.9" y="231.65" width="59.67" height="5.72" transform="translate(425.24 43.78) rotate(90)"/><rect class="cls-4" x="8.9" y="158.63" width="40.46" height="10.06"/><rect class="cls-5" x="5.63" y="272.89" width="12.2" height="20.17" rx="6.08" ry="6.08"/><rect class="cls-6" x="5.63" y="270.31" width="11.96" height="11.02" rx="5.51" ry="5.51"/><rect class="cls-5" x="8.56" y="230.91" width="5.39" height="44.56" rx="2.69" ry="2.69" transform="translate(22.52 506.38) rotate(180)"/><ellipse class="cls-5" cx="10.79" cy="232.32" rx="8.68" ry="9.85"/><ellipse class="cls-7" cx="10.79" cy="229.03" rx="8.68" ry="9.85"/><ellipse class="cls-8" cx="10.79" cy="222" rx="8.68" ry="9.85"/><ellipse class="cls-9" cx="10.55" cy="221.06" rx="10.55" ry="7.04"/><ellipse class="cls-5" cx="10.55" cy="218.48" rx="10.55" ry="7.04"/><path class="cls-10" d="M8.07,94.41c-.25.23,214.12,0,214.12,0"/><rect class="cls-11" x="8.78" y="94.51" width="214.28" height="90.89"/><rect class="cls-1" x="23.63" y="104.02" width="182.99" height="67.44"/><rect class="cls-12" x="24.89" y="103.79" width="181.73" height="11.2"/><path class="cls-1" d="M313.85,264.57H431V165.81H216.59v98.76h40.46V258.4h56.7S313.85,265,313.85,264.57Z"/><rect class="cls-2" x="256.6" y="205.36" width="57.15" height="53.04"/><rect class="cls-3" x="216.59" y="254.51" width="40.46" height="10.06"/><rect class="cls-3" x="313.52" y="254.51" width="117.73" height="10.06"/><rect class="cls-3" x="224.36" y="231.65" width="59.67" height="5.72" transform="translate(488.71 -19.69) rotate(90)"/><rect class="cls-3" x="286.78" y="231.65" width="59.67" height="5.72" transform="translate(551.12 -82.1) rotate(90)"/><rect class="cls-3" x="244.48" y="198.96" width="80.93" height="8.23"/><path class="cls-1" d="M314.2,168.69H431.38V69.92H216.95v98.76h40.46v-6.17h56.7S314.2,169.14,314.2,168.69Z"/><path class="cls-10" d="M216.12,0c-.25.23,214.12,0,214.12,0"/><rect class="cls-11" x="216.83" y="0.1" width="214.28" height="90.89"/><rect class="cls-1" x="231.68" y="9.6" width="182.99" height="67.44"/><rect class="cls-12" x="232.94" y="9.37" width="181.73" height="11.2" transform="translate(647.62 29.95) rotate(180)"/><rect class="cls-4" x="216.95" y="158.63" width="40.46" height="10.06"/><rect class="cls-3" x="215.92" y="157.37" width="215.7" height="11.31"/><path class="cls-3" d="M267.76,146.28v-27.8a9.08,9.08,0,0,0-9-9H241.6a9.08,9.08,0,0,0-9,9v27.8Z"/><path class="cls-13" d="M264.1,142.45v-22a7.19,7.19,0,0,0-7.17-7.17H243.38a7.19,7.19,0,0,0-7.17,7.17v22Z"/><rect class="cls-14" x="245.69" y="123.24" width="13.42" height="2.4" rx="1.2" ry="1.2" transform="translate(-17.94 202.59) rotate(-42.37)"/><rect class="cls-14" x="246.6" y="130.1" width="13.42" height="2.4" rx="1.2" ry="1.2" transform="translate(-22.33 205) rotate(-42.37)"/><path class="cls-3" d="M338.86,146.28v-27.8a9.08,9.08,0,0,0-9-9H312.7a9.08,9.08,0,0,0-9,9v27.8Z"/><path class="cls-13" d="M335.2,142.45v-22a7.19,7.19,0,0,0-7.17-7.17H314.48a7.19,7.19,0,0,0-7.17,7.17v22Z"/><rect class="cls-14" x="316.79" y="123.24" width="13.42" height="2.4" rx="1.2" ry="1.2" transform="translate(0.63 250.5) rotate(-42.37)"/><rect class="cls-14" x="317.7" y="130.1" width="13.42" height="2.4" rx="1.2" ry="1.2" transform="translate(-3.76 252.91) rotate(-42.37)"/><path class="cls-3" d="M415.2,146.28v-27.8a9.08,9.08,0,0,0-9-9H389a9.08,9.08,0,0,0-9,9v27.8Z"/><path class="cls-13" d="M411.54,142.45v-22a7.19,7.19,0,0,0-7.17-7.17H390.82a7.19,7.19,0,0,0-7.17,7.17v22Z"/><rect class="cls-14" x="393.13" y="123.24" width="13.42" height="2.4" rx="1.2" ry="1.2" transform="translate(20.56 301.95) rotate(-42.37)"/><rect class="cls-14" x="394.04" y="130.1" width="13.42" height="2.4" rx="1.2" ry="1.2" transform="translate(16.18 304.36) rotate(-42.37)"/><path class="cls-15" d="M145.4,216.87h-6.81a1.35,1.35,0,0,0-1.35,1.35v8.53h9.52v-8.53A1.35,1.35,0,0,0,145.4,216.87Z"/><path class="cls-15" d="M162.28,216.87h-6.81a1.35,1.35,0,0,0-1.35,1.35v8.53h9.52v-8.53A1.35,1.35,0,0,0,162.28,216.87Z"/><path class="cls-15" d="M179.15,216.87h-6.81a1.35,1.35,0,0,0-1.35,1.35v8.53h9.52v-8.53A1.35,1.35,0,0,0,179.15,216.87Z"/><rect class="cls-16" x="130.04" y="271.14" width="14.09" height="12.12"/><rect class="cls-16" x="173.61" y="271.14" width="14.09" height="12.12"/><path class="cls-17" d="M122.13,245.46H132V231.61h-9.91a1.92,1.92,0,0,0-1.92,1.92v10A1.92,1.92,0,0,0,122.13,245.46Z"/><path class="cls-18" d="M187.48,245.46h8.14a1.92,1.92,0,0,0,1.92-1.92v-10a1.92,1.92,0,0,0-1.92-1.92h-8.14Z"/><path class="cls-18" d="M190,229.6v40.67H127.7V229a4.33,4.33,0,0,1,4.33-4.33h53.09A4.91,4.91,0,0,1,190,229.6Z"/><path class="cls-19" d="M190,229v15H127.7V227.95a3.26,3.26,0,0,1,3.26-3.26h54.78A4.29,4.29,0,0,1,190,229Z"/><path class="cls-20" d="M188.4,229.59l.16,14.43h-16l7.53-18.89h6.67C188.58,225.12,188.4,227.78,188.4,229.59Z"/><polygon class="cls-20" points="159.07 225.13 159.07 244.02 141.61 244.02 149.14 225.13 159.07 225.13"/><rect class="cls-20" x="144.59" y="250.08" width="28.57" height="16.16"/><path class="cls-18" d="M190,227.15v19.36H186.5V228.22H160.64v18.29H157.1V228.22H131.24v18.29H127.7V227.15a2.47,2.47,0,0,1,2.47-2.47h57.4A2.47,2.47,0,0,1,190,227.15Z"/><rect class="cls-21" x="176.71" y="256.68" width="9.73" height="5.9"/><rect class="cls-21" x="131.3" y="256.68" width="9.73" height="5.9"/><rect class="cls-16" x="147.74" y="253.44" width="22.27" height="2.95"/><rect class="cls-16" x="147.74" y="259.04" width="22.27" height="2.95"/><path class="cls-17" d="M130.17,224.68v44.24H127.7V227.15A2.47,2.47,0,0,1,130.17,224.68Z"/><path class="cls-22" d="M191.29,265.53H126.45a1.77,1.77,0,0,0-1.77,1.77v5.22a1.77,1.77,0,0,0,1.77,1.77h64.85a1.77,1.77,0,0,0,1.77-1.77V267.3A1.77,1.77,0,0,0,191.29,265.53Z"/><path class="cls-19" d="M130.57,272.52V267.3a1.77,1.77,0,0,1,1.77-1.77h-5.9a1.77,1.77,0,0,0-1.77,1.77v5.22a1.77,1.77,0,0,0,1.77,1.77h5.9A1.77,1.77,0,0,1,130.57,272.52Z"/><path class="cls-15" d="M59.56,218H52.75a1.35,1.35,0,0,0-1.35,1.35v8.53h9.52v-8.53A1.35,1.35,0,0,0,59.56,218Z"/><path class="cls-15" d="M76.44,218H69.63a1.35,1.35,0,0,0-1.35,1.35v8.53h9.52v-8.53A1.35,1.35,0,0,0,76.44,218Z"/><path class="cls-15" d="M93.32,218H86.5a1.35,1.35,0,0,0-1.35,1.35v8.53h9.52v-8.53A1.35,1.35,0,0,0,93.32,218Z"/><rect class="cls-16" x="44.2" y="272.25" width="14.09" height="12.12"/><rect class="cls-16" x="87.77" y="272.25" width="14.09" height="12.12"/><path class="cls-17" d="M36.29,246.57H46.2V232.72H36.29a1.92,1.92,0,0,0-1.92,1.92v10A1.92,1.92,0,0,0,36.29,246.57Z"/><path class="cls-18" d="M101.64,246.57h8.14a1.92,1.92,0,0,0,1.92-1.92v-10a1.92,1.92,0,0,0-1.92-1.92h-8.14Z"/><path class="cls-18" d="M104.2,230.71v40.67H41.86V230.12a4.33,4.33,0,0,1,4.33-4.33H99.29A4.91,4.91,0,0,1,104.2,230.71Z"/><path class="cls-19" d="M104.2,230.08v15H41.86V229.06a3.26,3.26,0,0,1,3.26-3.26H99.91A4.29,4.29,0,0,1,104.2,230.08Z"/><path class="cls-20" d="M102.56,230.7l.16,14.43h-16l7.53-18.89h6.67C102.74,226.23,102.56,228.89,102.56,230.7Z"/><polygon class="cls-20" points="73.23 226.24 73.23 245.13 55.77 245.13 63.3 226.24 73.23 226.24"/><rect class="cls-20" x="58.75" y="251.19" width="28.57" height="16.16"/><path class="cls-18" d="M104.2,228.26v19.36h-3.54V229.33H74.8v18.29H71.26V229.33H45.4v18.29H41.86V228.26a2.47,2.47,0,0,1,2.47-2.47h57.4A2.47,2.47,0,0,1,104.2,228.26Z"/><rect class="cls-21" x="90.87" y="257.79" width="9.73" height="5.9"/><rect class="cls-21" x="45.46" y="257.79" width="9.73" height="5.9"/><rect class="cls-16" x="61.9" y="254.55" width="22.27" height="2.95"/><rect class="cls-16" x="61.9" y="260.15" width="22.27" height="2.95"/><path class="cls-17" d="M44.33,225.79V270H41.86V228.26A2.47,2.47,0,0,1,44.33,225.79Z"/><path class="cls-22" d="M105.46,266.64H40.61a1.77,1.77,0,0,0-1.77,1.77v5.22a1.77,1.77,0,0,0,1.77,1.77h64.85a1.77,1.77,0,0,0,1.77-1.77v-5.22A1.77,1.77,0,0,0,105.46,266.64Z"/><path class="cls-19" d="M44.73,273.63v-5.22a1.77,1.77,0,0,1,1.77-1.77h-5.9a1.77,1.77,0,0,0-1.77,1.77v5.22a1.77,1.77,0,0,0,1.77,1.77h5.9A1.77,1.77,0,0,1,44.73,273.63Z"/><rect class="cls-1" x="258.21" y="215.76" width="54.02" height="67.42"/><rect class="cls-16" x="259.59" y="319.66" width="12.43" height="10.44"/><rect class="cls-16" x="298.02" y="319.66" width="12.43" height="10.44"/><path class="cls-17" d="M250.31,297.54h8.74V285.61h-8.74a1.68,1.68,0,0,0-1.7,1.66v8.61A1.68,1.68,0,0,0,250.31,297.54Z"/><path class="cls-23" d="M250.31,299.53h8.74V287.6h-8.74a1.68,1.68,0,0,0-1.7,1.66v8.61A1.68,1.68,0,0,0,250.31,299.53Z"/><path class="cls-17" d="M322.27,295.89v-8.61a1.68,1.68,0,0,0-1.7-1.66h-8.74v11.93h8.74A1.68,1.68,0,0,0,322.27,295.89Z"/><path class="cls-23" d="M322.27,297.87v-8.61a1.68,1.68,0,0,0-1.7-1.66h-8.74v11.93h8.74A1.68,1.68,0,0,0,322.27,297.87Z"/><path class="cls-18" d="M312.51,283.88v35h-55V283.38a3.72,3.72,0,0,1,2.18-3.37,3.86,3.86,0,0,1,1.64-.36h46.83A4.28,4.28,0,0,1,312.51,283.88Z"/><path class="cls-19" d="M312.51,283.34v13h-55V282.46a2.85,2.85,0,0,1,2.88-2.81h48.33A3.74,3.74,0,0,1,312.51,283.34Z"/><path class="cls-20" d="M311.07,283.87l.14,12.43h-14.1L303.75,280h5.89C311.22,280,311.07,282.32,311.07,283.87Z"/><polygon class="cls-20" points="285.2 280.03 285.2 296.3 269.79 296.3 276.44 280.03 285.2 280.03"/><rect class="cls-20" x="272.42" y="301.52" width="25.2" height="13.92"/><path class="cls-18" d="M312.51,281.78v16.67h-3.12V282.7H286.58v15.75h-3.12V282.7H260.65v15.75h-3.12V281.78a2.15,2.15,0,0,1,2.18-2.13h50.63A2.15,2.15,0,0,1,312.51,281.78Z"/><rect class="cls-21" x="300.76" y="307.21" width="8.58" height="5.08"/><rect class="cls-21" x="260.7" y="307.21" width="8.58" height="5.08"/><rect class="cls-16" x="275.2" y="304.41" width="19.64" height="2.54"/><rect class="cls-16" x="275.2" y="309.24" width="19.64" height="2.54"/><path class="cls-17" d="M259.71,279.65v38.1h-2.18v-36A2.15,2.15,0,0,1,259.71,279.65Z"/><path class="cls-22" d="M313.62,314.82h-57.2a1.55,1.55,0,0,0-1.56,1.53v4.5a1.55,1.55,0,0,0,1.56,1.53h57.2a1.55,1.55,0,0,0,1.56-1.53v-4.5A1.55,1.55,0,0,0,313.62,314.82Z"/><path class="cls-19" d="M260.06,320.85v-4.5a1.55,1.55,0,0,1,1.56-1.53h-5.2a1.55,1.55,0,0,0-1.56,1.53v4.5a1.55,1.55,0,0,0,1.56,1.53h5.2A1.55,1.55,0,0,1,260.06,320.85Z"/><path class="cls-15" d="M270,266h-7.31a1.64,1.64,0,0,0-1.45,1.78v11.18h10.22V267.76A1.64,1.64,0,0,0,270,266Z"/><path class="cls-15" d="M288.07,266h-7.31a1.64,1.64,0,0,0-1.45,1.78v11.18h10.22V267.76A1.64,1.64,0,0,0,288.07,266Z"/><path class="cls-15" d="M306.18,266h-7.31a1.64,1.64,0,0,0-1.45,1.78v11.18h10.22V267.76A1.64,1.64,0,0,0,306.18,266Z"/><path class="cls-24" d="M270,273.26h-7.31c-.8,0-1.45.35-1.45.78v4.9h10.22V274C271.42,273.61,270.77,273.26,270,273.26Z"/><path class="cls-24" d="M288.07,273.26h-7.31c-.8,0-1.45.35-1.45.78v4.9h10.22V274C289.53,273.61,288.88,273.26,288.07,273.26Z"/><path class="cls-24" d="M306.18,273.26h-7.31c-.8,0-1.45.35-1.45.78v4.9h10.22V274C307.64,273.61,307,273.26,306.18,273.26Z"/><rect class="cls-5" x="421.91" y="272.89" width="12.2" height="20.17" rx="6.08" ry="6.08"/><rect class="cls-6" x="421.91" y="270.31" width="11.96" height="11.02" rx="5.51" ry="5.51"/><rect class="cls-5" x="424.85" y="230.91" width="5.39" height="44.56" rx="2.69" ry="2.69" transform="translate(855.09 506.38) rotate(180)"/><ellipse class="cls-5" cx="427.07" cy="232.32" rx="8.68" ry="9.85"/><ellipse class="cls-7" cx="427.07" cy="229.03" rx="8.68" ry="9.85"/><ellipse class="cls-8" cx="427.07" cy="222" rx="8.68" ry="9.85"/><ellipse class="cls-9" cx="426.84" cy="221.06" rx="10.55" ry="7.04"/><ellipse class="cls-5" cx="426.84" cy="218.48" rx="10.55" ry="7.04"/></g></g></svg>