<svg xmlns="http://www.w3.org/2000/svg" xmlns:xlink="http://www.w3.org/1999/xlink" viewBox="0 0 437.39 468.68"><defs><style>.cls-1{fill:#f73131;}.cls-2{fill:#657172;}.cls-13,.cls-3{fill:#aaa;}.cls-4{fill:#96b5ed;}.cls-5{fill:#5a5b5b;}.cls-6{fill:#5f6060;}.cls-7{fill:#c7c6c5;}.cls-8{fill:#b5b4b4;}.cls-9{fill:#424242;}.cls-10{fill:#7c482c;}.cls-11{fill:#f75959;}.cls-12{fill:#bc0606;}.cls-13{stroke:#aaa;stroke-miterlimit:10;}.cls-14{fill:#528ac1;}.cls-15{fill:#7fadd3;}.cls-16{fill:#2ba5f7;}.cls-17{fill:#666;}.cls-18{fill:#e03f20;}.cls-19{fill:#f95428;}.cls-20{fill:#ccc;}.cls-21{fill:#f2f2f2;}.cls-22{fill:#f7b239;}.cls-23{fill:#e6e6e6;}.cls-24{fill:#c9311c;}.cls-25{fill:#1392d8;}.cls-26{fill:url(#Blanco_Negro);}.cls-27{fill:url(#Blanco_Negro-2);}.cls-28,.cls-31{isolation:isolate;}.cls-29{fill:#fff;}.cls-30{fill:#5b5d6e;}.cls-31{opacity:0.1;}.cls-32{fill:#b3b3b3;}.cls-33{fill:#ff462e;}.cls-34{fill:#464655;}</style><linearGradient id="Blanco_Negro" x1="322.19" y1="-16.11" x2="319.11" y2="108.97" gradientUnits="userSpaceOnUse"><stop offset="0" stop-color="#fff"/><stop offset="1"/></linearGradient><linearGradient id="Blanco_Negro-2" x1="321.97" y1="-16.11" x2="318.89" y2="108.96" xlink:href="#Blanco_Negro"/></defs><title>bomber</title><g id="Capa_2" data-name="Capa 2"><g id="Capa_11" data-name="Capa 11"><path class="cls-1" d="M105.79,402.57H223V303.81H8.54v98.76H49v-6.17h56.7S105.79,403,105.79,402.57Z"/><rect class="cls-2" x="48.55" y="343.36" width="57.15" height="53.04"/><rect class="cls-2" x="131.4" y="343.2" width="57.15" height="53.04"/><rect class="cls-3" x="8.54" y="393.09" width="40.46" height="10.06"/><rect class="cls-3" x="106.05" y="393.09" width="117.73" height="10.06"/><rect class="cls-3" x="16.31" y="370.23" width="59.67" height="5.72" transform="translate(419.23 326.94) rotate(90)"/><rect class="cls-3" x="78.72" y="370.23" width="59.67" height="5.72" transform="translate(481.64 264.53) rotate(90)"/><rect class="cls-3" x="98.49" y="370.23" width="59.67" height="5.72" transform="translate(501.41 244.77) rotate(90)"/><rect class="cls-3" x="160.9" y="370.23" width="59.67" height="5.72" transform="translate(563.82 182.36) rotate(90)"/><rect class="cls-4" x="8.9" y="297.21" width="40.46" height="10.06"/><rect class="cls-5" x="5.63" y="411.47" width="12.2" height="20.17" rx="6.09" ry="6.09"/><rect class="cls-6" x="5.63" y="408.89" width="11.96" height="11.02" rx="5.5" ry="5.5"/><rect class="cls-5" x="8.56" y="369.49" width="5.39" height="44.56" rx="2.69" ry="2.69" transform="translate(22.52 783.54) rotate(-180)"/><ellipse class="cls-5" cx="10.79" cy="370.9" rx="8.68" ry="9.85"/><ellipse class="cls-7" cx="10.79" cy="367.61" rx="8.68" ry="9.85"/><ellipse class="cls-8" cx="10.79" cy="360.58" rx="8.68" ry="9.85"/><ellipse class="cls-9" cx="10.55" cy="359.64" rx="10.55" ry="7.04"/><ellipse class="cls-5" cx="10.55" cy="357.06" rx="10.55" ry="7.04"/><path class="cls-10" d="M8.07,233c-.25.23,214.12,0,214.12,0"/><rect class="cls-11" x="8.78" y="233.1" width="214.28" height="90.89"/><rect class="cls-1" x="23.63" y="242.6" width="182.99" height="67.44"/><rect class="cls-12" x="24.89" y="242.37" width="181.73" height="11.2"/><path class="cls-1" d="M313.85,403.15H431V304.39H216.59v98.76h40.46V397h56.7S313.85,403.61,313.85,403.15Z"/><rect class="cls-2" x="256.6" y="343.94" width="57.15" height="53.04"/><rect class="cls-13" x="216.59" y="393.09" width="40.46" height="10.06"/><rect class="cls-13" x="313.52" y="393.09" width="117.73" height="10.06"/><rect class="cls-13" x="224.37" y="370.23" width="59.67" height="5.72" transform="translate(627.29 118.89) rotate(90)"/><rect class="cls-3" x="286.78" y="370.23" width="59.67" height="5.72" transform="translate(689.7 56.48) rotate(90)"/><rect class="cls-13" x="244.48" y="337.54" width="80.93" height="8.23"/><path class="cls-1" d="M314.2,307.27H431.38V208.51H216.95v98.76h40.46V301.1h56.7S314.2,307.73,314.2,307.27Z"/><path class="cls-10" d="M216.12,138.59c-.25.23,214.12,0,214.12,0"/><rect class="cls-11" x="216.83" y="138.69" width="214.28" height="90.89"/><rect class="cls-1" x="231.68" y="148.19" width="182.99" height="67.44"/><rect class="cls-12" x="232.94" y="147.96" width="181.73" height="11.2" transform="translate(647.62 307.13) rotate(180)"/><rect class="cls-4" x="216.95" y="297.21" width="40.46" height="10.06"/><rect class="cls-3" x="215.92" y="295.96" width="215.7" height="11.31"/><path class="cls-3" d="M267.76,284.87v-27.8a9.07,9.07,0,0,0-9-9H241.6a9.07,9.07,0,0,0-9,9v27.8Z"/><path class="cls-14" d="M264.1,281V259a7.19,7.19,0,0,0-7.17-7.17H243.38a7.19,7.19,0,0,0-7.17,7.17v22Z"/><rect class="cls-15" x="251.19" y="256.32" width="2.4" height="13.42" rx="1.2" ry="1.2" transform="translate(276.63 -100.7) rotate(47.63)"/><rect class="cls-15" x="252.11" y="263.18" width="2.4" height="13.42" rx="1.2" ry="1.2" transform="translate(282 -99.14) rotate(47.63)"/><path class="cls-3" d="M338.86,284.87v-27.8a9.07,9.07,0,0,0-9-9H312.7a9.07,9.07,0,0,0-9,9v27.8Z"/><path class="cls-14" d="M335.2,281V259a7.19,7.19,0,0,0-7.17-7.17H314.48a7.19,7.19,0,0,0-7.17,7.17v22Z"/><rect class="cls-15" x="322.29" y="256.32" width="2.4" height="13.42" rx="1.2" ry="1.2" transform="translate(299.81 -153.23) rotate(47.63)"/><rect class="cls-15" x="323.21" y="263.18" width="2.4" height="13.42" rx="1.2" ry="1.2" transform="translate(305.18 -151.67) rotate(47.63)"/><path class="cls-3" d="M415.2,284.87v-27.8a9.07,9.07,0,0,0-9-9H389a9.07,9.07,0,0,0-9,9v27.8Z"/><path class="cls-14" d="M411.54,281V259a7.19,7.19,0,0,0-7.17-7.17H390.82a7.19,7.19,0,0,0-7.17,7.17v22Z"/><rect class="cls-15" x="398.64" y="256.32" width="2.4" height="13.42" rx="1.2" ry="1.2" transform="matrix(0.67, 0.74, -0.74, 0.67, 324.71, -209.63)"/><rect class="cls-15" x="399.55" y="263.18" width="2.4" height="13.42" rx="1.2" ry="1.2" transform="translate(330.07 -208.07) rotate(47.63)"/><path class="cls-16" d="M145.4,355.45h-6.81a1.35,1.35,0,0,0-1.35,1.35v8.53h9.52V356.8A1.35,1.35,0,0,0,145.4,355.45Z"/><path class="cls-16" d="M162.28,355.45h-6.81a1.35,1.35,0,0,0-1.35,1.35v8.53h9.52V356.8A1.35,1.35,0,0,0,162.28,355.45Z"/><path class="cls-16" d="M179.15,355.45h-6.81A1.35,1.35,0,0,0,171,356.8v8.53h9.52V356.8A1.35,1.35,0,0,0,179.15,355.45Z"/><rect class="cls-17" x="130.04" y="409.72" width="14.09" height="12.12"/><rect class="cls-17" x="173.61" y="409.72" width="14.09" height="12.12"/><path class="cls-18" d="M122.13,384H132V370.19h-9.91a1.92,1.92,0,0,0-1.92,1.92v10A1.92,1.92,0,0,0,122.13,384Z"/><path class="cls-19" d="M187.48,384h8.14a1.92,1.92,0,0,0,1.92-1.92v-10a1.92,1.92,0,0,0-1.92-1.92h-8.14Z"/><path class="cls-19" d="M190,368.18v40.67H127.7V367.59a4.33,4.33,0,0,1,4.33-4.33h53.09A4.91,4.91,0,0,1,190,368.18Z"/><path class="cls-20" d="M190,367.55v15H127.7V366.53a3.26,3.26,0,0,1,3.26-3.26h54.78A4.29,4.29,0,0,1,190,367.55Z"/><path class="cls-21" d="M188.4,368.16l.16,14.43h-16l7.53-18.89h6.67C188.58,363.7,188.4,366.36,188.4,368.16Z"/><polygon class="cls-21" points="159.07 363.7 159.07 382.6 141.61 382.6 149.14 363.7 159.07 363.7"/><rect class="cls-21" x="144.59" y="388.66" width="28.57" height="16.16"/><path class="cls-19" d="M190,365.73v19.35H186.5V366.8H160.64v18.28H157.1V366.8H131.24v18.28H127.7V365.73a2.47,2.47,0,0,1,2.47-2.47h57.4A2.47,2.47,0,0,1,190,365.73Z"/><rect class="cls-22" x="176.71" y="395.26" width="9.73" height="5.9"/><rect class="cls-22" x="131.3" y="395.26" width="9.73" height="5.9"/><rect class="cls-17" x="147.74" y="392.02" width="22.27" height="2.95"/><rect class="cls-17" x="147.74" y="397.62" width="22.27" height="2.95"/><path class="cls-18" d="M130.17,363.26V407.5H127.7V365.73A2.47,2.47,0,0,1,130.17,363.26Z"/><path class="cls-23" d="M191.29,404.11H126.45a1.77,1.77,0,0,0-1.77,1.77v5.22a1.77,1.77,0,0,0,1.77,1.77h64.85a1.77,1.77,0,0,0,1.77-1.77v-5.22A1.77,1.77,0,0,0,191.29,404.11Z"/><path class="cls-20" d="M130.57,411.1v-5.22a1.77,1.77,0,0,1,1.77-1.77h-5.9a1.77,1.77,0,0,0-1.77,1.77v5.22a1.77,1.77,0,0,0,1.77,1.77h5.9A1.77,1.77,0,0,1,130.57,411.1Z"/><path class="cls-16" d="M59.56,356.56H52.75a1.35,1.35,0,0,0-1.35,1.35v8.53h9.52v-8.53A1.35,1.35,0,0,0,59.56,356.56Z"/><path class="cls-16" d="M76.44,356.56H69.63a1.35,1.35,0,0,0-1.35,1.35v8.53h9.52v-8.53A1.35,1.35,0,0,0,76.44,356.56Z"/><path class="cls-16" d="M93.32,356.56H86.5a1.35,1.35,0,0,0-1.35,1.35v8.53h9.52v-8.53A1.35,1.35,0,0,0,93.32,356.56Z"/><rect class="cls-17" x="44.2" y="410.83" width="14.09" height="12.12"/><rect class="cls-17" x="87.77" y="410.83" width="14.09" height="12.12"/><path class="cls-18" d="M36.29,385.15H46.2V371.3H36.29a1.92,1.92,0,0,0-1.92,1.92v10A1.92,1.92,0,0,0,36.29,385.15Z"/><path class="cls-19" d="M101.64,385.15h8.14a1.92,1.92,0,0,0,1.92-1.92v-10a1.92,1.92,0,0,0-1.92-1.92h-8.14Z"/><path class="cls-19" d="M104.2,369.29V410H41.86V368.7a4.33,4.33,0,0,1,4.33-4.33H99.29A4.91,4.91,0,0,1,104.2,369.29Z"/><path class="cls-20" d="M104.2,368.66v15H41.86V367.64a3.26,3.26,0,0,1,3.26-3.26H99.91A4.29,4.29,0,0,1,104.2,368.66Z"/><path class="cls-21" d="M102.56,369.27l.16,14.43h-16l7.53-18.89h6.67C102.74,364.81,102.56,367.47,102.56,369.27Z"/><polygon class="cls-21" points="73.23 364.81 73.23 383.71 55.77 383.71 63.3 364.81 73.23 364.81"/><rect class="cls-21" x="58.75" y="389.77" width="28.57" height="16.16"/><path class="cls-19" d="M104.2,366.84V386.2h-3.54V367.91H74.8V386.2H71.26V367.91H45.4V386.2H41.86V366.84a2.47,2.47,0,0,1,2.47-2.47h57.4A2.47,2.47,0,0,1,104.2,366.84Z"/><rect class="cls-22" x="90.87" y="396.37" width="9.73" height="5.9"/><rect class="cls-22" x="45.46" y="396.37" width="9.73" height="5.9"/><rect class="cls-17" x="61.9" y="393.13" width="22.27" height="2.95"/><rect class="cls-17" x="61.9" y="398.73" width="22.27" height="2.95"/><path class="cls-18" d="M44.33,364.37v44.24H41.86V366.84A2.47,2.47,0,0,1,44.33,364.37Z"/><path class="cls-23" d="M105.46,405.22H40.61A1.77,1.77,0,0,0,38.84,407v5.22A1.77,1.77,0,0,0,40.61,414h64.85a1.77,1.77,0,0,0,1.77-1.77V407A1.77,1.77,0,0,0,105.46,405.22Z"/><path class="cls-20" d="M44.73,412.21V407a1.77,1.77,0,0,1,1.77-1.77h-5.9A1.77,1.77,0,0,0,38.84,407v5.22A1.77,1.77,0,0,0,40.61,414h5.9A1.77,1.77,0,0,1,44.73,412.21Z"/><rect class="cls-1" x="258.21" y="354.34" width="54.02" height="67.41"/><rect class="cls-17" x="259.59" y="458.24" width="12.43" height="10.44"/><rect class="cls-17" x="298.02" y="458.24" width="12.43" height="10.44"/><path class="cls-18" d="M250.31,436.12h8.74V424.19h-8.74a1.68,1.68,0,0,0-1.7,1.66v8.61A1.68,1.68,0,0,0,250.31,436.12Z"/><path class="cls-24" d="M250.31,438.1h8.74V426.17h-8.74a1.68,1.68,0,0,0-1.7,1.66v8.61A1.68,1.68,0,0,0,250.31,438.1Z"/><path class="cls-18" d="M322.27,434.46v-8.61a1.68,1.68,0,0,0-1.7-1.66h-8.74v11.93h8.74A1.68,1.68,0,0,0,322.27,434.46Z"/><path class="cls-24" d="M322.27,436.45v-8.61a1.68,1.68,0,0,0-1.7-1.66h-8.74V438.1h8.74A1.68,1.68,0,0,0,322.27,436.45Z"/><path class="cls-19" d="M312.51,422.46v35h-55V422a3.72,3.72,0,0,1,2.18-3.36,3.86,3.86,0,0,1,1.64-.36h46.83A4.28,4.28,0,0,1,312.51,422.46Z"/><path class="cls-20" d="M312.51,421.92v13h-55V421a2.85,2.85,0,0,1,2.88-2.81h48.33A3.74,3.74,0,0,1,312.51,421.92Z"/><path class="cls-21" d="M311.07,422.45l.14,12.43h-14.1l6.64-16.27h5.89C311.22,418.61,311.07,420.9,311.07,422.45Z"/><polygon class="cls-21" points="285.2 418.61 285.2 434.88 269.79 434.88 276.44 418.61 285.2 418.61"/><rect class="cls-21" x="272.42" y="440.1" width="25.2" height="13.92"/><path class="cls-19" d="M312.51,420.35V437h-3.12V421.27H286.58V437h-3.12V421.27H260.65V437h-3.12V420.35a2.15,2.15,0,0,1,2.18-2.13h50.63A2.15,2.15,0,0,1,312.51,420.35Z"/><rect class="cls-22" x="300.76" y="445.78" width="8.58" height="5.08"/><rect class="cls-22" x="260.7" y="445.78" width="8.58" height="5.08"/><rect class="cls-17" x="275.2" y="442.99" width="19.64" height="2.54"/><rect class="cls-17" x="275.2" y="447.81" width="19.64" height="2.54"/><path class="cls-18" d="M259.71,418.23v38.09h-2.18v-36A2.15,2.15,0,0,1,259.71,418.23Z"/><path class="cls-23" d="M313.62,453.4h-57.2a1.55,1.55,0,0,0-1.56,1.53v4.5a1.55,1.55,0,0,0,1.56,1.53h57.2a1.55,1.55,0,0,0,1.56-1.53v-4.5A1.55,1.55,0,0,0,313.62,453.4Z"/><path class="cls-20" d="M260.06,459.42v-4.5a1.55,1.55,0,0,1,1.56-1.53h-5.2a1.55,1.55,0,0,0-1.56,1.53v4.5a1.55,1.55,0,0,0,1.56,1.53h5.2A1.55,1.55,0,0,1,260.06,459.42Z"/><path class="cls-16" d="M270,404.57h-7.31a1.64,1.64,0,0,0-1.45,1.78v11.18h10.22V406.34A1.64,1.64,0,0,0,270,404.57Z"/><path class="cls-16" d="M288.07,404.57h-7.31a1.64,1.64,0,0,0-1.45,1.78v11.18h10.22V406.34A1.64,1.64,0,0,0,288.07,404.57Z"/><path class="cls-16" d="M306.18,404.57h-7.31a1.64,1.64,0,0,0-1.45,1.78v11.18h10.22V406.34A1.64,1.64,0,0,0,306.18,404.57Z"/><path class="cls-25" d="M270,411.84h-7.31c-.8,0-1.45.35-1.45.78v4.9h10.22v-4.9C271.42,412.19,270.77,411.84,270,411.84Z"/><path class="cls-25" d="M288.07,411.84h-7.31c-.8,0-1.45.35-1.45.78v4.9h10.22v-4.9C289.53,412.19,288.88,411.84,288.07,411.84Z"/><path class="cls-25" d="M306.18,411.84h-7.31c-.8,0-1.45.35-1.45.78v4.9h10.22v-4.9C307.64,412.19,307,411.84,306.18,411.84Z"/><rect class="cls-5" x="421.91" y="411.47" width="12.2" height="20.17" rx="6.09" ry="6.09"/><rect class="cls-6" x="421.91" y="408.89" width="11.96" height="11.02" rx="5.5" ry="5.5"/><rect class="cls-5" x="424.85" y="369.49" width="5.39" height="44.56" rx="2.69" ry="2.69" transform="translate(855.09 783.54) rotate(-180)"/><ellipse class="cls-5" cx="427.07" cy="370.9" rx="8.68" ry="9.85"/><ellipse class="cls-7" cx="427.07" cy="367.61" rx="8.68" ry="9.85"/><ellipse class="cls-8" cx="427.07" cy="360.58" rx="8.68" ry="9.85"/><ellipse class="cls-9" cx="426.84" cy="359.64" rx="10.55" ry="7.04"/><ellipse class="cls-5" cx="426.84" cy="357.06" rx="10.55" ry="7.04"/><path class="cls-26" d="M360.32,7.25c0-.12-.07-.24-.12-.36l0-.12h0a4.45,4.45,0,0,0-5.3-2.63L334.15,9.79A12.21,12.21,0,0,0,313.32,14l-.13,0-.14,0-.33,0h0a27.52,27.52,0,0,0-27.49,27.49V91.24h-4.53v13.31h1.09L280,118.91H297.4v4.63h55.08V102.47h0V93.32h0V63.22a27.55,27.55,0,0,0-20.89-26.73V28a12.27,12.27,0,0,0,2.92-2.66l2.21.51a22.34,22.34,0,0,1,13.93,9.94,4.44,4.44,0,0,0,3.77,2.08h.3a4.43,4.43,0,0,0,2.06-.67l.33-.23.08-.06.27-.23.08-.08.19-.2.12-.14.1-.13q.12-.16.23-.33l0-.06.13-.23h0a4.44,4.44,0,0,0-.17-4.44,31.16,31.16,0,0,0-18.41-13.61l17.43-4.76a4.45,4.45,0,0,0,3.12-5.46Zm-62.93,56v28h-4.53V41.46A19.88,19.88,0,0,1,312.73,21.6a3.82,3.82,0,0,0,.59-.05,12.23,12.23,0,0,0,5,6.47v8.47A27.55,27.55,0,0,0,297.4,63.22Zm-1.09,41.33h1.09v8.5Z"/><path class="cls-27" d="M356.44,127.52h-63v-4.63h-18l1.84-14.37h-.55V87.27h4.53V41.46a31.5,31.5,0,0,1,29.44-31.39,16.18,16.18,0,0,1,24.58-4.71L353.82.3a8.4,8.4,0,0,1,6.39.81l1.59,1,1.52,2.09a8.45,8.45,0,0,1,.46.91l.07.13.06.19,0,.07c.1.26.17.48.23.69h0a8.41,8.41,0,0,1,0,4.53l-2.34,4L359.6,16a8.42,8.42,0,0,1-1.34.49l-6.91,1.89A35.29,35.29,0,0,1,361.54,29a8.45,8.45,0,0,1,.77,7.37v.83l-.81.81c-.12.19-.26.38-.4.57l-.19.24-.23.27-.35.37-.17.17c-.16.15-.32.29-.5.43l-.16.12c-.21.16-.42.3-.62.43a8.45,8.45,0,0,1-3.9,1.27l-.57,0a8.37,8.37,0,0,1-7.13-3.94,18.4,18.4,0,0,0-11.45-8.18l-.27.24v3.56a31.44,31.44,0,0,1,20.89,29.67ZM310.82,25.68a15.91,15.91,0,0,0-14,15.78v7.46a31.41,31.41,0,0,1,17.48-15.38V30A16.29,16.29,0,0,1,310.82,25.68Zm-17.36,87.87-1.66-13h9.57v12.47Z"/><rect class="cls-5" x="314.49" y="165.97" width="15.82" height="26.16" rx="7.9" ry="7.9"/><rect class="cls-6" x="314.49" y="160.57" width="15.51" height="14.3" rx="7.14" ry="7.14"/><rect class="cls-5" x="318.29" y="109.47" width="7" height="57.8" rx="3.49" ry="3.49" transform="translate(643.58 276.73) rotate(-180)"/><ellipse class="cls-5" cx="321.18" cy="111.29" rx="11.26" ry="12.78"/><ellipse class="cls-7" cx="321.18" cy="107.03" rx="11.26" ry="12.78"/><ellipse class="cls-8" cx="321.18" cy="97.91" rx="11.26" ry="12.78"/><ellipse class="cls-9" cx="320.88" cy="96.69" rx="13.69" ry="9.13"/><ellipse class="cls-5" cx="320.88" cy="93.35" rx="13.69" ry="9.13"/><g class="cls-28"><path class="cls-29" d="M361.43,9.26c0-.12-.07-.24-.12-.36l0-.12h0A4.45,4.45,0,0,0,356,6.14L335.26,11.8A12.21,12.21,0,0,0,314.43,16l-.13,0-.14,0-.33,0h0a27.52,27.52,0,0,0-27.49,27.49V93.25h-4.53v13.31h1.09l-1.84,14.37h17.43v4.63h55.08V104.48h0V95.33h0V65.23A27.55,27.55,0,0,0,332.7,38.5V30a12.27,12.27,0,0,0,2.92-2.66l2.21.51a22.34,22.34,0,0,1,13.93,9.94,4.44,4.44,0,0,0,3.77,2.08h.3a4.43,4.43,0,0,0,2.06-.67l.33-.23.08-.06.27-.23.08-.08.19-.2.12-.14.1-.13q.12-.16.23-.33l0-.06.13-.23h0a4.44,4.44,0,0,0-.17-4.44,31.16,31.16,0,0,0-18.41-13.61l17.43-4.76a4.45,4.45,0,0,0,3.12-5.46Zm-62.93,56v28H294V43.47a19.88,19.88,0,0,1,19.86-19.86,3.82,3.82,0,0,0,.59-.05,12.23,12.23,0,0,0,5,6.47V38.5A27.55,27.55,0,0,0,298.51,65.23Zm-1.09,41.33h1.09v8.5Z"/><path class="cls-29" d="M357.55,129.53h-63v-4.63h-18l1.84-14.37h-.55V89.28h4.53V43.47a31.5,31.5,0,0,1,29.44-31.39A16.18,16.18,0,0,1,336.4,7.37l18.53-5.06a8.4,8.4,0,0,1,6.39.81l1.59,1,1.52,2.09a8.45,8.45,0,0,1,.46.91l.07.13.06.19,0,.07c.1.26.17.48.23.69h0a8.41,8.41,0,0,1,0,4.53l-2.34,4-2.2,1.33a8.42,8.42,0,0,1-1.34.49l-6.91,1.89A35.29,35.29,0,0,1,362.65,31a8.45,8.45,0,0,1,.77,7.37v.83l-.81.81c-.12.19-.26.38-.4.57l-.19.24-.23.27-.35.37-.17.17c-.16.15-.32.29-.5.43l-.16.12c-.21.16-.42.3-.62.43a8.45,8.45,0,0,1-3.9,1.27l-.57,0a8.37,8.37,0,0,1-7.13-3.94,18.4,18.4,0,0,0-11.45-8.18l-.27.24v3.56a31.44,31.44,0,0,1,20.89,29.67ZM311.93,27.7a15.91,15.91,0,0,0-14,15.78v7.46a31.41,31.41,0,0,1,17.48-15.38V32A16.29,16.29,0,0,1,311.93,27.7Zm-17.36,87.87-1.66-13h9.57v12.47Z"/></g><path class="cls-30" d="M290.16,101.86A3.81,3.81,0,0,1,286.35,98V44.41a27.52,27.52,0,0,1,27.49-27.49,3.81,3.81,0,1,1,0,7.62A19.88,19.88,0,0,0,294,44.41V98A3.81,3.81,0,0,1,290.16,101.86Z"/><path class="cls-31" d="M290.16,98V44.41a27.52,27.52,0,0,1,24.69-27.34,3.81,3.81,0,0,0-1-.14,27.52,27.52,0,0,0-27.49,27.49V98a3.81,3.81,0,0,0,5.72,3.3A3.81,3.81,0,0,1,290.16,98Z"/><path class="cls-32" d="M355.53,40.83a4.44,4.44,0,0,1-3.77-2.08,22.34,22.34,0,0,0-13.93-9.94l-16.09-3.75a4.45,4.45,0,0,1,2-8.66l16.09,3.75A31.18,31.18,0,0,1,359.29,34a4.45,4.45,0,0,1-3.76,6.81Z"/><path class="cls-31" d="M358.58,38.55a4.44,4.44,0,0,1-3.77-2.08,22.34,22.34,0,0,0-13.93-9.94l-16.09-3.75a4.43,4.43,0,0,1-2.92-6.4,4.44,4.44,0,0,0-.13,8.69l16.09,3.75a22.34,22.34,0,0,1,13.93,9.94,4.44,4.44,0,0,0,7.7-.29A4.43,4.43,0,0,1,358.58,38.55Z"/><rect class="cls-30" x="319.39" y="30.44" width="13.31" height="16.38"/><path class="cls-33" d="M326,38.62h0a27.54,27.54,0,0,0-27.54,27.54v60.33h55.08V66.16A27.54,27.54,0,0,0,326,38.62Z"/><path class="cls-20" d="M327.19,24A4.45,4.45,0,0,1,326,15.25l30-8.18a4.45,4.45,0,0,1,2.34,8.58l-30,8.18A4.45,4.45,0,0,1,327.19,24Z"/><path class="cls-31" d="M361.27,9.71a4.44,4.44,0,0,1-3,2.64l-30,8.18a4.44,4.44,0,0,1-5.3-2.64,4.44,4.44,0,0,0,5.3,5.94l30-8.18a4.45,4.45,0,0,0,3.12-5.46A4.54,4.54,0,0,0,361.27,9.71Z"/><circle class="cls-34" cx="326.05" cy="20.73" r="12.21"/><circle class="cls-29" cx="326.05" cy="20.73" r="6.27"/><path class="cls-23" d="M323.59,20.73a6.27,6.27,0,0,1,4.36-6,6.27,6.27,0,1,0,0,11.94A6.27,6.27,0,0,1,323.59,20.73Z"/><rect class="cls-20" x="298.51" y="96.27" width="55.08" height="9.15"/><path class="cls-31" d="M330.11,38.92a27.75,27.75,0,0,0-4.07-.3h0a27.54,27.54,0,0,0-27.54,27.54v60.33h8.13V66.16A27.54,27.54,0,0,1,330.11,38.92Z"/><polygon class="cls-34" points="299.26 121.86 281.07 121.86 284.22 97.21 296.11 97.21 299.26 121.86"/><polygon class="cls-31" points="284.22 97.21 281.07 121.86 287.93 121.86 291.08 97.21 284.22 97.21"/><rect class="cls-32" x="281.82" y="94.18" width="16.69" height="13.31"/><rect class="cls-31" x="281.82" y="94.18" width="5.84" height="13.31"/></g></g></svg>