<svg xmlns="http://www.w3.org/2000/svg" viewBox="0 0 167.97 500.73"><defs><style>.cls-1{fill:#cbdbeb;}.cls-2{fill:#657172;}.cls-3{fill:#96b5ed;}.cls-4{fill:#6e9fe5;}.cls-5{fill:#528ac1;}.cls-6{fill:#7fadd3;}.cls-7{fill:#c3cad1;}.cls-8{fill:#b3b8bc;}.cls-9{fill:#a3aaaf;}.cls-10{fill:#5a5b5b;}.cls-11{fill:#5f6060;}.cls-12{fill:#c7c6c5;}.cls-13{fill:#b5b4b4;}.cls-14{fill:#424242;}</style></defs><title>buildcent</title><g id="Capa_2" data-name="Capa 2"><g id="Capa_8" data-name="Capa 8"><path class="cls-1" d="M76.54,479.58h90.41v-76.2H1.5v76.2H32.72v-4.76H76.46S76.54,479.93,76.54,479.58Z"/><rect class="cls-2" x="32.37" y="433.89" width="44.1" height="40.92"/><rect class="cls-3" x="1.5" y="471.81" width="31.22" height="7.76"/><rect class="cls-3" x="76.29" y="471.81" width="90.84" height="7.76"/><rect class="cls-3" x="7.5" y="454.18" width="46.04" height="4.41" transform="translate(486.9 425.86) rotate(90)"/><rect class="cls-3" x="55.65" y="454.18" width="46.04" height="4.41" transform="translate(535.05 377.71) rotate(90)"/><rect class="cls-3" x="23.02" y="428.95" width="62.44" height="6.35"/><path class="cls-4" d="M123.56,462.29V440.84a7,7,0,0,0-7-7h-13.2a7,7,0,0,0-7,7v21.45Z"/><path class="cls-5" d="M120.73,459.34v-17a5.55,5.55,0,0,0-5.53-5.53H104.75a5.55,5.55,0,0,0-5.53,5.53v17Z"/><rect class="cls-6" x="106.35" y="444.51" width="10.35" height="1.85" rx="0.93" ry="0.93" transform="translate(-271.05 191.5) rotate(-42.37)"/><rect class="cls-6" x="106.7" y="449.28" width="10.35" height="1.85" rx="0.93" ry="0.93" transform="translate(-274.17 192.98) rotate(-42.37)"/><path class="cls-4" d="M155,462.29V440.84a7,7,0,0,0-7-7h-13.2a7,7,0,0,0-7,7v21.45Z"/><path class="cls-5" d="M152.13,459.34v-17a5.55,5.55,0,0,0-5.53-5.53H136.14a5.55,5.55,0,0,0-5.53,5.53v17Z"/><rect class="cls-6" x="137.92" y="444.51" width="10.35" height="1.85" rx="0.93" ry="0.93" transform="translate(-262.81 212.77) rotate(-42.37)"/><rect class="cls-6" x="138.63" y="449.81" width="10.35" height="1.85" rx="0.93" ry="0.93" transform="translate(-266.19 214.63) rotate(-42.37)"/><path class="cls-1" d="M76.34,343.21h90.41v-89H1.3v89H32.52v-5.56H76.27S76.34,343.62,76.34,343.21Z"/><path class="cls-4" d="M154.76,313.33V291.81a7,7,0,0,0-7-7h-13.2a7,7,0,0,0-7,7v21.53Z"/><path class="cls-5" d="M151.93,310.37V293.32a5.56,5.56,0,0,0-5.53-5.55H135.95a5.56,5.56,0,0,0-5.53,5.55v17.05Z"/><path class="cls-6" d="M139.08,299.93h0a.94.94,0,0,1,.06-1.31l6.28-5.75a.93.93,0,0,1,1.31.06h0a.94.94,0,0,1-.06,1.31L140.39,300A.93.93,0,0,1,139.08,299.93Z"/><path class="cls-6" d="M139.78,305.24h0a.94.94,0,0,1,.06-1.31l6.28-5.75a.93.93,0,0,1,1.31.06h0a.94.94,0,0,1-.06,1.31l-6.28,5.75A.93.93,0,0,1,139.78,305.24Z"/><path class="cls-4" d="M40.51,313.33V291.81a7,7,0,0,0-7-7H20.33a7,7,0,0,0-7,7v21.53Z"/><path class="cls-5" d="M37.69,310.37V293.32a5.56,5.56,0,0,0-5.53-5.55H21.7a5.56,5.56,0,0,0-5.53,5.55v17.05Z"/><path class="cls-6" d="M24.83,299.93h0a.94.94,0,0,1,.06-1.31l6.28-5.75a.93.93,0,0,1,1.31.06h0a.94.94,0,0,1-.06,1.31L26.14,300A.93.93,0,0,1,24.83,299.93Z"/><path class="cls-6" d="M25.54,305.24h0a.94.94,0,0,1,.06-1.31l6.28-5.75a.93.93,0,0,1,1.31.06h0a.94.94,0,0,1-.06,1.31l-6.28,5.75A.93.93,0,0,1,25.54,305.24Z"/><path class="cls-4" d="M81,313.33V291.81a7,7,0,0,0-7-7H60.78a7,7,0,0,0-7,7v21.53Z"/><path class="cls-5" d="M78.14,310.37V293.32a5.56,5.56,0,0,0-5.53-5.55H62.15a5.56,5.56,0,0,0-5.53,5.55v17.05Z"/><path class="cls-6" d="M65.28,299.93h0a.94.94,0,0,1,.06-1.31l6.28-5.75a.93.93,0,0,1,1.31.06h0a.94.94,0,0,1-.06,1.31L66.59,300A.93.93,0,0,1,65.28,299.93Z"/><path class="cls-6" d="M66,305.24h0a.94.94,0,0,1,.06-1.31l6.28-5.75a.93.93,0,0,1,1.31.06h0a.94.94,0,0,1-.06,1.31L67.3,305.3A.93.93,0,0,1,66,305.24Z"/><path class="cls-4" d="M119.77,313.33V291.81a7,7,0,0,0-7-7H99.59a7,7,0,0,0-7,7v21.53Z"/><path class="cls-5" d="M116.95,310.37V293.32a5.56,5.56,0,0,0-5.53-5.55H101a5.56,5.56,0,0,0-5.53,5.55v17.05Z"/><path class="cls-6" d="M104.09,299.93h0a.94.94,0,0,1,.06-1.31l6.28-5.75a.93.93,0,0,1,1.31.06h0a.94.94,0,0,1-.06,1.31L105.4,300A.93.93,0,0,1,104.09,299.93Z"/><path class="cls-6" d="M104.8,305.24h0a.94.94,0,0,1,.06-1.31l6.28-5.75a.93.93,0,0,1,1.31.06h0a.94.94,0,0,1-.06,1.31l-6.28,5.75A.93.93,0,0,1,104.8,305.24Z"/><path class="cls-1" d="M76.34,422.07h90.41V329.88H1.3v92.19H32.52v-5.76H76.27S76.34,422.5,76.34,422.07Z"/><path class="cls-4" d="M154.76,389V367.47a7,7,0,0,0-7-7h-13.2a7,7,0,0,0-7,7V389Z"/><path class="cls-5" d="M151.93,386V369a5.56,5.56,0,0,0-5.53-5.55H135.95a5.56,5.56,0,0,0-5.53,5.55V386Z"/><path class="cls-6" d="M139.08,375.59h0a.94.94,0,0,1,.06-1.31l6.28-5.75a.93.93,0,0,1,1.31.06h0a.94.94,0,0,1-.06,1.31l-6.28,5.75A.93.93,0,0,1,139.08,375.59Z"/><path class="cls-6" d="M139.78,380.9h0a.94.94,0,0,1,.06-1.31l6.28-5.75a.93.93,0,0,1,1.31.06h0a.94.94,0,0,1-.06,1.31L141.09,381A.93.93,0,0,1,139.78,380.9Z"/><path class="cls-4" d="M40.51,389V367.47a7,7,0,0,0-7-7H20.33a7,7,0,0,0-7,7V389Z"/><path class="cls-5" d="M37.69,386V369a5.56,5.56,0,0,0-5.53-5.55H21.7A5.56,5.56,0,0,0,16.17,369V386Z"/><path class="cls-6" d="M24.83,375.59h0a.94.94,0,0,1,.06-1.31l6.28-5.75a.93.93,0,0,1,1.31.06h0a.94.94,0,0,1-.06,1.31l-6.28,5.75A.93.93,0,0,1,24.83,375.59Z"/><path class="cls-6" d="M25.54,380.9h0a.94.94,0,0,1,.06-1.31l6.28-5.75a.93.93,0,0,1,1.31.06h0a.94.94,0,0,1-.06,1.31L26.85,381A.93.93,0,0,1,25.54,380.9Z"/><path class="cls-4" d="M81,389V367.47a7,7,0,0,0-7-7H60.78a7,7,0,0,0-7,7V389Z"/><path class="cls-5" d="M78.14,386V369a5.56,5.56,0,0,0-5.53-5.55H62.15A5.56,5.56,0,0,0,56.62,369V386Z"/><path class="cls-6" d="M65.28,375.59h0a.94.94,0,0,1,.06-1.31l6.28-5.75a.93.93,0,0,1,1.31.06h0a.94.94,0,0,1-.06,1.31l-6.28,5.75A.93.93,0,0,1,65.28,375.59Z"/><path class="cls-6" d="M66,380.9h0a.94.94,0,0,1,.06-1.31l6.28-5.75a.93.93,0,0,1,1.31.06h0a.94.94,0,0,1-.06,1.31L67.3,381A.93.93,0,0,1,66,380.9Z"/><path class="cls-4" d="M119.77,389V367.47a7,7,0,0,0-7-7H99.59a7,7,0,0,0-7,7V389Z"/><path class="cls-5" d="M116.95,386V369a5.56,5.56,0,0,0-5.53-5.55H101A5.56,5.56,0,0,0,95.43,369V386Z"/><path class="cls-6" d="M104.09,375.59h0a.94.94,0,0,1,.06-1.31l6.28-5.75a.93.93,0,0,1,1.31.06h0a.94.94,0,0,1-.06,1.31l-6.28,5.75A.93.93,0,0,1,104.09,375.59Z"/><path class="cls-6" d="M104.8,380.9h0a.94.94,0,0,1,.06-1.31l6.28-5.75a.93.93,0,0,1,1.31.06h0a.94.94,0,0,1-.06,1.31L106.11,381A.93.93,0,0,1,104.8,380.9Z"/><path class="cls-4" d="M154.76,422.87V401.35a7,7,0,0,0-7-7h-13.2a7,7,0,0,0-7,7v21.53Z"/><path class="cls-5" d="M151.93,419.91V402.86a5.56,5.56,0,0,0-5.53-5.55H135.95a5.56,5.56,0,0,0-5.53,5.55v17.05Z"/><path class="cls-6" d="M139.08,409.47h0a.94.94,0,0,1,.06-1.31l6.28-5.75a.93.93,0,0,1,1.31.06h0a.94.94,0,0,1-.06,1.31l-6.28,5.75A.93.93,0,0,1,139.08,409.47Z"/><path class="cls-6" d="M139.78,414.78h0a.94.94,0,0,1,.06-1.31l6.28-5.75a.93.93,0,0,1,1.31.06h0a.94.94,0,0,1-.06,1.31l-6.28,5.75A.93.93,0,0,1,139.78,414.78Z"/><path class="cls-4" d="M40.51,422.87V401.35a7,7,0,0,0-7-7H20.33a7,7,0,0,0-7,7v21.53Z"/><path class="cls-5" d="M37.69,419.91V402.86a5.56,5.56,0,0,0-5.53-5.55H21.7a5.56,5.56,0,0,0-5.53,5.55v17.05Z"/><path class="cls-6" d="M24.83,409.47h0a.94.94,0,0,1,.06-1.31l6.28-5.75a.93.93,0,0,1,1.31.06h0a.94.94,0,0,1-.06,1.31l-6.28,5.75A.93.93,0,0,1,24.83,409.47Z"/><path class="cls-6" d="M25.54,414.78h0a.94.94,0,0,1,.06-1.31l6.28-5.75a.93.93,0,0,1,1.31.06h0a.94.94,0,0,1-.06,1.31l-6.28,5.75A.93.93,0,0,1,25.54,414.78Z"/><path class="cls-4" d="M81,422.87V401.35a7,7,0,0,0-7-7H60.78a7,7,0,0,0-7,7v21.53Z"/><path class="cls-5" d="M78.14,419.91V402.86a5.56,5.56,0,0,0-5.53-5.55H62.15a5.56,5.56,0,0,0-5.53,5.55v17.05Z"/><path class="cls-6" d="M65.28,409.47h0a.94.94,0,0,1,.06-1.31l6.28-5.75a.93.93,0,0,1,1.31.06h0a.94.94,0,0,1-.06,1.31l-6.28,5.75A.93.93,0,0,1,65.28,409.47Z"/><path class="cls-6" d="M66,414.78h0a.94.94,0,0,1,.06-1.31l6.28-5.75a.93.93,0,0,1,1.31.06h0a.94.94,0,0,1-.06,1.31l-6.28,5.75A.93.93,0,0,1,66,414.78Z"/><path class="cls-4" d="M119.77,422.87V401.35a7,7,0,0,0-7-7H99.59a7,7,0,0,0-7,7v21.53Z"/><path class="cls-5" d="M116.95,419.91V402.86a5.56,5.56,0,0,0-5.53-5.55H101a5.56,5.56,0,0,0-5.53,5.55v17.05Z"/><path class="cls-6" d="M104.09,409.47h0a.94.94,0,0,1,.06-1.31l6.28-5.75a.93.93,0,0,1,1.31.06h0a.94.94,0,0,1-.06,1.31l-6.28,5.75A.93.93,0,0,1,104.09,409.47Z"/><path class="cls-6" d="M104.8,414.78h0a.94.94,0,0,1,.06-1.31l6.28-5.75a.93.93,0,0,1,1.31.06h0a.94.94,0,0,1-.06,1.31l-6.28,5.75A.93.93,0,0,1,104.8,414.78Z"/><path class="cls-4" d="M154.76,350.36V328.83a7,7,0,0,0-7-7h-13.2a7,7,0,0,0-7,7v21.53Z"/><path class="cls-5" d="M151.93,347.39V330.34a5.56,5.56,0,0,0-5.53-5.55H135.95a5.56,5.56,0,0,0-5.53,5.55v17.05Z"/><path class="cls-6" d="M139.08,337h0a.94.94,0,0,1,.06-1.31l6.28-5.75a.93.93,0,0,1,1.31.06h0a.94.94,0,0,1-.06,1.31L140.39,337A.93.93,0,0,1,139.08,337Z"/><path class="cls-6" d="M139.78,342.26h0a.94.94,0,0,1,.06-1.31l6.28-5.75a.93.93,0,0,1,1.31.06h0a.94.94,0,0,1-.06,1.31l-6.28,5.75A.93.93,0,0,1,139.78,342.26Z"/><path class="cls-4" d="M40.51,350.36V328.83a7,7,0,0,0-7-7H20.33a7,7,0,0,0-7,7v21.53Z"/><path class="cls-5" d="M37.69,347.39V330.34a5.56,5.56,0,0,0-5.53-5.55H21.7a5.56,5.56,0,0,0-5.53,5.55v17.05Z"/><path class="cls-6" d="M24.83,337h0a.94.94,0,0,1,.06-1.31l6.28-5.75a.93.93,0,0,1,1.31.06h0a.94.94,0,0,1-.06,1.31L26.14,337A.93.93,0,0,1,24.83,337Z"/><path class="cls-6" d="M25.54,342.26h0a.94.94,0,0,1,.06-1.31l6.28-5.75a.93.93,0,0,1,1.31.06h0a.94.94,0,0,1-.06,1.31l-6.28,5.75A.93.93,0,0,1,25.54,342.26Z"/><path class="cls-4" d="M81,350.36V328.83a7,7,0,0,0-7-7H60.78a7,7,0,0,0-7,7v21.53Z"/><path class="cls-5" d="M78.14,347.39V330.34a5.56,5.56,0,0,0-5.53-5.55H62.15a5.56,5.56,0,0,0-5.53,5.55v17.05Z"/><path class="cls-6" d="M65.28,337h0a.94.94,0,0,1,.06-1.31l6.28-5.75a.93.93,0,0,1,1.31.06h0a.94.94,0,0,1-.06,1.31L66.59,337A.93.93,0,0,1,65.28,337Z"/><path class="cls-6" d="M66,342.26h0a.94.94,0,0,1,.06-1.31l6.28-5.75a.93.93,0,0,1,1.31.06h0a.94.94,0,0,1-.06,1.31l-6.28,5.75A.93.93,0,0,1,66,342.26Z"/><path class="cls-4" d="M119.77,350.36V328.83a7,7,0,0,0-7-7H99.59a7,7,0,0,0-7,7v21.53Z"/><path class="cls-5" d="M116.95,347.39V330.34a5.56,5.56,0,0,0-5.53-5.55H101a5.56,5.56,0,0,0-5.53,5.55v17.05Z"/><path class="cls-6" d="M104.09,337h0a.94.94,0,0,1,.06-1.31l6.28-5.75a.93.93,0,0,1,1.31.06h0a.94.94,0,0,1-.06,1.31L105.4,337A.93.93,0,0,1,104.09,337Z"/><path class="cls-6" d="M104.8,342.26h0a.94.94,0,0,1,.06-1.31l6.28-5.75a.93.93,0,0,1,1.31.06h0a.94.94,0,0,1-.06,1.31l-6.28,5.75A.93.93,0,0,1,104.8,342.26Z"/><path class="cls-1" d="M76.54,286h90.41V209.58H1.5V286H32.72v-4.78H76.46S76.54,286.4,76.54,286Z"/><path class="cls-4" d="M123.56,268.7V247.17a7,7,0,0,0-7-7h-13.2a7,7,0,0,0-7,7V268.7Z"/><path class="cls-5" d="M120.73,265.74V248.68a5.56,5.56,0,0,0-5.53-5.55H104.75a5.56,5.56,0,0,0-5.53,5.55v17.05Z"/><path class="cls-6" d="M107.7,255.29h0a.94.94,0,0,1,.06-1.31l6.28-5.75a.93.93,0,0,1,1.31.06h0a.94.94,0,0,1-.06,1.31L109,255.35A.93.93,0,0,1,107.7,255.29Z"/><path class="cls-6" d="M108.06,260.07h0a.94.94,0,0,1,.06-1.31l6.28-5.75a.93.93,0,0,1,1.31.06h0a.94.94,0,0,1-.06,1.31l-6.28,5.75A.93.93,0,0,1,108.06,260.07Z"/><path class="cls-4" d="M155,268.7V247.17a7,7,0,0,0-7-7h-13.2a7,7,0,0,0-7,7V268.7Z"/><path class="cls-5" d="M152.13,265.74V248.68a5.56,5.56,0,0,0-5.53-5.55H136.14a5.56,5.56,0,0,0-5.53,5.55v17.05Z"/><path class="cls-6" d="M139.27,255.29h0a.94.94,0,0,1,.06-1.31l6.28-5.75a.93.93,0,0,1,1.31.06h0a.94.94,0,0,1-.06,1.31l-6.28,5.75A.93.93,0,0,1,139.27,255.29Z"/><path class="cls-6" d="M140,260.6h0a.94.94,0,0,1,.06-1.31l6.28-5.75a.93.93,0,0,1,1.31.06h0a.94.94,0,0,1-.06,1.31l-6.28,5.75A.93.93,0,0,1,140,260.6Z"/><path class="cls-4" d="M40.49,268.7V247.17a7,7,0,0,0-7-7H20.31a7,7,0,0,0-7,7V268.7Z"/><path class="cls-5" d="M37.67,265.74V248.68a5.56,5.56,0,0,0-5.53-5.55H21.68a5.56,5.56,0,0,0-5.53,5.55v17.05Z"/><path class="cls-6" d="M24.82,255.29h0a.94.94,0,0,1,.06-1.31l6.28-5.75a.93.93,0,0,1,1.31.06h0a.94.94,0,0,1-.06,1.31l-6.28,5.75A.93.93,0,0,1,24.82,255.29Z"/><path class="cls-6" d="M25.52,260.6h0a.94.94,0,0,1,.06-1.31l6.28-5.75a.93.93,0,0,1,1.31.06h0a.94.94,0,0,1-.06,1.31l-6.28,5.75A.93.93,0,0,1,25.52,260.6Z"/><path class="cls-4" d="M80.58,268.7V247.17a7,7,0,0,0-7-7H60.4a7,7,0,0,0-7,7V268.7Z"/><path class="cls-5" d="M77.76,265.74V248.68a5.56,5.56,0,0,0-5.53-5.55H61.77a5.56,5.56,0,0,0-5.53,5.55v17.05Z"/><path class="cls-6" d="M64.9,255.29h0A.94.94,0,0,1,65,254l6.28-5.75a.93.93,0,0,1,1.31.06h0a.94.94,0,0,1-.06,1.31l-6.28,5.75A.93.93,0,0,1,64.9,255.29Z"/><path class="cls-6" d="M65.61,260.6h0a.94.94,0,0,1,.06-1.31l6.28-5.75a.93.93,0,0,1,1.31.06h0a.94.94,0,0,1-.06,1.31l-6.28,5.75A.93.93,0,0,1,65.61,260.6Z"/><path class="cls-1" d="M76.34,149.48h90.41v-89H1.3v89H32.52v-5.56H76.27S76.34,149.89,76.34,149.48Z"/><path class="cls-4" d="M154.76,119.61V98.08a7,7,0,0,0-7-7h-13.2a7,7,0,0,0-7,7v21.53Z"/><path class="cls-5" d="M151.93,116.64V99.59A5.56,5.56,0,0,0,146.4,94H135.95a5.56,5.56,0,0,0-5.53,5.55v17.05Z"/><path class="cls-6" d="M139.08,106.2h0a.94.94,0,0,1,.06-1.31l6.28-5.75a.93.93,0,0,1,1.31.06h0a.94.94,0,0,1-.06,1.31l-6.28,5.75A.93.93,0,0,1,139.08,106.2Z"/><path class="cls-6" d="M139.78,111.51h0a.94.94,0,0,1,.06-1.31l6.28-5.75a.93.93,0,0,1,1.31.06h0a.94.94,0,0,1-.06,1.31l-6.28,5.75A.93.93,0,0,1,139.78,111.51Z"/><path class="cls-4" d="M40.51,119.61V98.08a7,7,0,0,0-7-7H20.33a7,7,0,0,0-7,7v21.53Z"/><path class="cls-5" d="M37.69,116.64V99.59A5.56,5.56,0,0,0,32.15,94H21.7a5.56,5.56,0,0,0-5.53,5.55v17.05Z"/><path class="cls-6" d="M24.83,106.2h0a.94.94,0,0,1,.06-1.31l6.28-5.75a.93.93,0,0,1,1.31.06h0a.94.94,0,0,1-.06,1.31l-6.28,5.75A.93.93,0,0,1,24.83,106.2Z"/><path class="cls-6" d="M25.54,111.51h0a.94.94,0,0,1,.06-1.31l6.28-5.75a.93.93,0,0,1,1.31.06h0a.94.94,0,0,1-.06,1.31l-6.28,5.75A.93.93,0,0,1,25.54,111.51Z"/><path class="cls-4" d="M81,119.61V98.08a7,7,0,0,0-7-7H60.78a7,7,0,0,0-7,7v21.53Z"/><path class="cls-5" d="M78.14,116.64V99.59A5.56,5.56,0,0,0,72.61,94H62.15a5.56,5.56,0,0,0-5.53,5.55v17.05Z"/><path class="cls-6" d="M65.28,106.2h0a.94.94,0,0,1,.06-1.31l6.28-5.75a.93.93,0,0,1,1.31.06h0a.94.94,0,0,1-.06,1.31l-6.28,5.75A.93.93,0,0,1,65.28,106.2Z"/><path class="cls-6" d="M66,111.51h0a.94.94,0,0,1,.06-1.31l6.28-5.75a.93.93,0,0,1,1.31.06h0a.94.94,0,0,1-.06,1.31l-6.28,5.75A.93.93,0,0,1,66,111.51Z"/><path class="cls-4" d="M119.77,119.61V98.08a7,7,0,0,0-7-7H99.59a7,7,0,0,0-7,7v21.53Z"/><path class="cls-5" d="M116.95,116.64V99.59A5.56,5.56,0,0,0,111.42,94H101a5.56,5.56,0,0,0-5.53,5.55v17.05Z"/><path class="cls-6" d="M104.09,106.2h0a.94.94,0,0,1,.06-1.31l6.28-5.75a.93.93,0,0,1,1.31.06h0a.94.94,0,0,1-.06,1.31l-6.28,5.75A.93.93,0,0,1,104.09,106.2Z"/><path class="cls-6" d="M104.8,111.51h0a.94.94,0,0,1,.06-1.31l6.28-5.75a.93.93,0,0,1,1.31.06h0a.94.94,0,0,1-.06,1.31l-6.28,5.75A.93.93,0,0,1,104.8,111.51Z"/><path class="cls-1" d="M76.34,228.35h90.41V136.15H1.3v92.19H32.52v-5.76H76.27S76.34,228.77,76.34,228.35Z"/><path class="cls-4" d="M154.76,195.27V173.75a7,7,0,0,0-7-7h-13.2a7,7,0,0,0-7,7v21.53Z"/><path class="cls-5" d="M151.93,192.31V175.25a5.56,5.56,0,0,0-5.53-5.55H135.95a5.56,5.56,0,0,0-5.53,5.55v17.05Z"/><path class="cls-6" d="M139.08,181.87h0a.94.94,0,0,1,.06-1.31l6.28-5.75a.93.93,0,0,1,1.31.06h0a.94.94,0,0,1-.06,1.31l-6.28,5.75A.93.93,0,0,1,139.08,181.87Z"/><path class="cls-6" d="M139.78,187.18h0a.94.94,0,0,1,.06-1.31l6.28-5.75a.93.93,0,0,1,1.31.06h0a.94.94,0,0,1-.06,1.31l-6.28,5.75A.93.93,0,0,1,139.78,187.18Z"/><path class="cls-4" d="M40.51,195.27V173.75a7,7,0,0,0-7-7H20.33a7,7,0,0,0-7,7v21.53Z"/><path class="cls-5" d="M37.69,192.31V175.25a5.56,5.56,0,0,0-5.53-5.55H21.7a5.56,5.56,0,0,0-5.53,5.55v17.05Z"/><path class="cls-6" d="M24.83,181.87h0a.94.94,0,0,1,.06-1.31l6.28-5.75a.93.93,0,0,1,1.31.06h0a.94.94,0,0,1-.06,1.31l-6.28,5.75A.93.93,0,0,1,24.83,181.87Z"/><path class="cls-6" d="M25.54,187.18h0a.94.94,0,0,1,.06-1.31l6.28-5.75a.93.93,0,0,1,1.31.06h0a.94.94,0,0,1-.06,1.31l-6.28,5.75A.93.93,0,0,1,25.54,187.18Z"/><path class="cls-4" d="M81,195.27V173.75a7,7,0,0,0-7-7H60.78a7,7,0,0,0-7,7v21.53Z"/><path class="cls-5" d="M78.14,192.31V175.25a5.56,5.56,0,0,0-5.53-5.55H62.15a5.56,5.56,0,0,0-5.53,5.55v17.05Z"/><path class="cls-6" d="M65.28,181.87h0a.94.94,0,0,1,.06-1.31l6.28-5.75a.93.93,0,0,1,1.31.06h0a.94.94,0,0,1-.06,1.31l-6.28,5.75A.93.93,0,0,1,65.28,181.87Z"/><path class="cls-6" d="M66,187.18h0a.94.94,0,0,1,.06-1.31l6.28-5.75a.93.93,0,0,1,1.31.06h0a.94.94,0,0,1-.06,1.31l-6.28,5.75A.93.93,0,0,1,66,187.18Z"/><path class="cls-4" d="M119.77,195.27V173.75a7,7,0,0,0-7-7H99.59a7,7,0,0,0-7,7v21.53Z"/><path class="cls-5" d="M116.95,192.31V175.25a5.56,5.56,0,0,0-5.53-5.55H101a5.56,5.56,0,0,0-5.53,5.55v17.05Z"/><path class="cls-6" d="M104.09,181.87h0a.94.94,0,0,1,.06-1.31l6.28-5.75a.93.93,0,0,1,1.31.06h0a.94.94,0,0,1-.06,1.31l-6.28,5.75A.93.93,0,0,1,104.09,181.87Z"/><path class="cls-6" d="M104.8,187.18h0a.94.94,0,0,1,.06-1.31l6.28-5.75a.93.93,0,0,1,1.31.06h0a.94.94,0,0,1-.06,1.31l-6.28,5.75A.93.93,0,0,1,104.8,187.18Z"/><path class="cls-4" d="M154.76,229.15V207.62a7,7,0,0,0-7-7h-13.2a7,7,0,0,0-7,7v21.53Z"/><path class="cls-5" d="M151.93,226.18V209.13a5.56,5.56,0,0,0-5.53-5.55H135.95a5.56,5.56,0,0,0-5.53,5.55v17.05Z"/><path class="cls-6" d="M139.08,215.74h0a.94.94,0,0,1,.06-1.31l6.28-5.75a.93.93,0,0,1,1.31.06h0a.94.94,0,0,1-.06,1.31l-6.28,5.75A.93.93,0,0,1,139.08,215.74Z"/><path class="cls-6" d="M139.78,221.05h0a.94.94,0,0,1,.06-1.31l6.28-5.75a.93.93,0,0,1,1.31.06h0a.94.94,0,0,1-.06,1.31l-6.28,5.75A.93.93,0,0,1,139.78,221.05Z"/><path class="cls-4" d="M40.51,229.15V207.62a7,7,0,0,0-7-7H20.33a7,7,0,0,0-7,7v21.53Z"/><path class="cls-5" d="M37.69,226.18V209.13a5.56,5.56,0,0,0-5.53-5.55H21.7a5.56,5.56,0,0,0-5.53,5.55v17.05Z"/><path class="cls-6" d="M24.83,215.74h0a.94.94,0,0,1,.06-1.31l6.28-5.75a.93.93,0,0,1,1.31.06h0a.94.94,0,0,1-.06,1.31l-6.28,5.75A.93.93,0,0,1,24.83,215.74Z"/><path class="cls-6" d="M25.54,221.05h0a.94.94,0,0,1,.06-1.31L31.87,214a.93.93,0,0,1,1.31.06h0a.94.94,0,0,1-.06,1.31l-6.28,5.75A.93.93,0,0,1,25.54,221.05Z"/><path class="cls-4" d="M81,229.15V207.62a7,7,0,0,0-7-7H60.78a7,7,0,0,0-7,7v21.53Z"/><path class="cls-5" d="M78.14,226.18V209.13a5.56,5.56,0,0,0-5.53-5.55H62.15a5.56,5.56,0,0,0-5.53,5.55v17.05Z"/><path class="cls-6" d="M65.28,215.74h0a.94.94,0,0,1,.06-1.31l6.28-5.75a.93.93,0,0,1,1.31.06h0a.94.94,0,0,1-.06,1.31l-6.28,5.75A.93.93,0,0,1,65.28,215.74Z"/><path class="cls-6" d="M66,221.05h0a.94.94,0,0,1,.06-1.31L72.32,214a.93.93,0,0,1,1.31.06h0a.94.94,0,0,1-.06,1.31l-6.28,5.75A.93.93,0,0,1,66,221.05Z"/><path class="cls-4" d="M119.77,229.15V207.62a7,7,0,0,0-7-7H99.59a7,7,0,0,0-7,7v21.53Z"/><path class="cls-5" d="M116.95,226.18V209.13a5.56,5.56,0,0,0-5.53-5.55H101a5.56,5.56,0,0,0-5.53,5.55v17.05Z"/><path class="cls-6" d="M104.09,215.74h0a.94.94,0,0,1,.06-1.31l6.28-5.75a.93.93,0,0,1,1.31.06h0a.94.94,0,0,1-.06,1.31l-6.28,5.75A.93.93,0,0,1,104.09,215.74Z"/><path class="cls-6" d="M104.8,221.05h0a.94.94,0,0,1,.06-1.31l6.28-5.75a.93.93,0,0,1,1.31.06h0a.94.94,0,0,1-.06,1.31l-6.28,5.75A.93.93,0,0,1,104.8,221.05Z"/><path class="cls-4" d="M154.76,156.63V135.11a7,7,0,0,0-7-7h-13.2a7,7,0,0,0-7,7v21.53Z"/><path class="cls-5" d="M151.93,153.67V136.62a5.56,5.56,0,0,0-5.53-5.55H135.95a5.56,5.56,0,0,0-5.53,5.55v17.05Z"/><path class="cls-6" d="M139.08,143.23h0a.94.94,0,0,1,.06-1.31l6.28-5.75a.93.93,0,0,1,1.31.06h0a.94.94,0,0,1-.06,1.31l-6.28,5.75A.93.93,0,0,1,139.08,143.23Z"/><path class="cls-6" d="M139.78,148.54h0a.94.94,0,0,1,.06-1.31l6.28-5.75a.93.93,0,0,1,1.31.06h0a.94.94,0,0,1-.06,1.31l-6.28,5.75A.93.93,0,0,1,139.78,148.54Z"/><path class="cls-4" d="M40.51,156.63V135.11a7,7,0,0,0-7-7H20.33a7,7,0,0,0-7,7v21.53Z"/><path class="cls-5" d="M37.69,153.67V136.62a5.56,5.56,0,0,0-5.53-5.55H21.7a5.56,5.56,0,0,0-5.53,5.55v17.05Z"/><path class="cls-6" d="M24.83,143.23h0a.94.94,0,0,1,.06-1.31l6.28-5.75a.93.93,0,0,1,1.31.06h0a.94.94,0,0,1-.06,1.31l-6.28,5.75A.93.93,0,0,1,24.83,143.23Z"/><path class="cls-6" d="M25.54,148.54h0a.94.94,0,0,1,.06-1.31l6.28-5.75a.93.93,0,0,1,1.31.06h0a.94.94,0,0,1-.06,1.31l-6.28,5.75A.93.93,0,0,1,25.54,148.54Z"/><path class="cls-4" d="M81,156.63V135.11a7,7,0,0,0-7-7H60.78a7,7,0,0,0-7,7v21.53Z"/><path class="cls-5" d="M78.14,153.67V136.62a5.56,5.56,0,0,0-5.53-5.55H62.15a5.56,5.56,0,0,0-5.53,5.55v17.05Z"/><path class="cls-6" d="M65.28,143.23h0a.94.94,0,0,1,.06-1.31l6.28-5.75a.93.93,0,0,1,1.31.06h0a.94.94,0,0,1-.06,1.31l-6.28,5.75A.93.93,0,0,1,65.28,143.23Z"/><path class="cls-6" d="M66,148.54h0a.94.94,0,0,1,.06-1.31l6.28-5.75a.93.93,0,0,1,1.31.06h0a.94.94,0,0,1-.06,1.31L67.3,148.6A.93.93,0,0,1,66,148.54Z"/><path class="cls-4" d="M119.77,156.63V135.11a7,7,0,0,0-7-7H99.59a7,7,0,0,0-7,7v21.53Z"/><path class="cls-5" d="M116.95,153.67V136.62a5.56,5.56,0,0,0-5.53-5.55H101a5.56,5.56,0,0,0-5.53,5.55v17.05Z"/><path class="cls-6" d="M104.09,143.23h0a.94.94,0,0,1,.06-1.31l6.28-5.75a.93.93,0,0,1,1.31.06h0a.94.94,0,0,1-.06,1.31l-6.28,5.75A.93.93,0,0,1,104.09,143.23Z"/><path class="cls-6" d="M104.8,148.54h0a.94.94,0,0,1,.06-1.31l6.28-5.75a.93.93,0,0,1,1.31.06h0a.94.94,0,0,1-.06,1.31l-6.28,5.75A.93.93,0,0,1,104.8,148.54Z"/><rect class="cls-7" x="1.47" width="166.49" height="69.8"/><rect class="cls-8" x="13.01" y="7.3" width="142.18" height="51.8"/><rect class="cls-9" x="13.99" y="7.12" width="141.2" height="8.6" transform="translate(169.18 22.85) rotate(180)"/><rect class="cls-10" x="5.63" y="480.55" width="12.2" height="20.17" rx="6.08" ry="6.08"/><rect class="cls-11" x="5.63" y="477.97" width="11.96" height="11.02" rx="5.51" ry="5.51"/><rect class="cls-10" x="8.56" y="438.57" width="5.39" height="44.56" rx="2.69" ry="2.69" transform="translate(22.52 921.71) rotate(180)"/><ellipse class="cls-10" cx="10.79" cy="439.98" rx="8.68" ry="9.85"/><ellipse class="cls-12" cx="10.79" cy="436.7" rx="8.68" ry="9.85"/><ellipse class="cls-13" cx="10.79" cy="429.66" rx="8.68" ry="9.85"/><ellipse class="cls-14" cx="10.55" cy="428.72" rx="10.55" ry="7.04"/><ellipse class="cls-10" cx="10.55" cy="426.14" rx="10.55" ry="7.04"/></g></g></svg>