<svg xmlns="http://www.w3.org/2000/svg" viewBox="0 0 469.98 282.95"><defs><style>.cls-1{fill:#cbdcef;}.cls-2{fill:#a9bbd4;}.cls-3{fill:#83e0ea;}.cls-4{fill:#495379;}.cls-5{fill:#bbc9e0;}.cls-6{fill:#cdd9ea;}.cls-7{fill:#7980a7;}.cls-8{fill:#e1eaf4;}.cls-9{fill:#caf3f8;}.cls-10,.cls-11{fill:#00e0b3;stroke-miterlimit:10;stroke-width:3px;}.cls-10{stroke:#1b83db;}.cls-11{stroke:#495379;}.cls-12{fill:#a1b2d4;}.cls-13{fill:#cafaff;}.cls-14{fill:#8e92b5;}.cls-15{fill:#676e93;}.cls-16{fill:#f27628;}.cls-17{fill:#505f71;}.cls-18{fill:#c1e6ff;}.cls-19{fill:#5797ec;}.cls-20{fill:#fff;}</style></defs><title>cient</title><g id="Capa_2" data-name="Capa 2"><g id="Capa_8" data-name="Capa 8"><path class="cls-1" d="M292.57,227.7H62.18C28,227.7,0,201,0,168.31H0V108.92H292.57c34.2,0,62.18,26.72,62.18,59.39h0C354.75,201,326.77,227.7,292.57,227.7Z"/><path class="cls-2" d="M292.57,212.6H62.18C28,212.6,0,185.88,0,153.21H0V93.83H292.57c34.2,0,62.18,26.72,62.18,59.39h0C354.75,185.88,326.77,212.6,292.57,212.6Z"/><rect class="cls-3" x="148.25" y="187.29" width="53.97" height="39.6"/><rect class="cls-4" x="151.16" y="187.18" width="49.03" height="3.37"/><rect class="cls-5" y="49.54" width="354.75" height="118.78" rx="59.39" ry="59.39"/><rect class="cls-6" x="21.8" y="49.54" width="317.38" height="100.24" rx="50.12" ry="50.12"/><rect class="cls-7" x="67.9" y="41.75" width="19.55" height="192.4" rx="9.75" ry="9.75"/><rect class="cls-7" x="134.57" y="41.75" width="19.55" height="192.4" rx="9.75" ry="9.75"/><rect class="cls-7" x="197.14" y="41.75" width="19.55" height="192.4" rx="9.75" ry="9.75"/><rect class="cls-7" x="261.15" y="41.75" width="19.55" height="192.4" rx="9.75" ry="9.75"/><rect class="cls-2" x="67.9" y="62.86" width="19.55" height="113.07" rx="9.75" ry="9.75"/><rect class="cls-2" x="134.57" y="62.86" width="19.55" height="113.07" rx="9.75" ry="9.75"/><rect class="cls-2" x="197.14" y="62.86" width="19.55" height="113.07" rx="9.75" ry="9.75"/><rect class="cls-2" x="261.15" y="62.86" width="19.55" height="113.07" rx="9.75" ry="9.75"/><rect class="cls-8" x="67.9" y="41.75" width="19.55" height="113.07" rx="9.75" ry="9.75"/><rect class="cls-8" x="134.57" y="41.75" width="19.55" height="113.07" rx="9.75" ry="9.75"/><rect class="cls-8" x="261.15" y="41.75" width="19.55" height="113.07" rx="9.75" ry="9.75"/><path class="cls-9" d="M314,157l-18,21.18,6.55,5.61,16.57-21.18,27.52,5.73-9.39,29.48,10.19-20.42-8.25,24.93s6.9.21,8.25-1.19,11.22-27.05,11.22-27.05l47-5.75s-1.34,33.31-2.4,35.35,7.48-3.63,7.48-3.63l2.94-24.11S418,186.74,418,187.29V170.2l21.11-15.39,9.08-13.16,3.74,28.84,3.74-4.34-1.25-32.93L442,143.53s-19.16,26-70.78,25.14S314,157,314,157Z"/><rect class="cls-10" x="101.51" y="194.88" width="21.32" height="10.52" rx="5.26" ry="5.26"/><rect class="cls-10" x="228.26" y="194.88" width="21.32" height="10.52" rx="5.26" ry="5.26"/><rect class="cls-11" x="187.32" y="204.11" width="6.5" height="6.21" rx="3.1" ry="3.1"/><rect class="cls-12" x="280.7" y="121.66" width="181.08" height="161.29" rx="80.64" ry="80.64"/><rect class="cls-3" x="280.7" y="92.39" width="181.08" height="161.29" rx="80.64" ry="80.64"/><polygon class="cls-13" points="372.98 226.76 365.08 253.68 380.32 253.58 389.62 226.76 372.98 226.76"/><rect class="cls-12" x="280.7" y="69.14" width="181.08" height="161.29" rx="80.64" ry="80.64"/><rect class="cls-3" x="280.7" y="38.75" width="181.08" height="161.29" rx="80.64" ry="80.64"/><polygon class="cls-13" points="359.59 173.61 353.9 200.04 373.66 200.04 380.37 173.03 359.59 173.61"/><rect id="luz" class="cls-8" x="197.14" y="41.75" width="19.55" height="113.07" rx="9.75" ry="9.75"/><rect class="cls-12" x="280.7" y="15.5" width="181.08" height="161.29" rx="80.64" ry="80.64"/><rect class="cls-5" x="280.7" width="181.08" height="158.87" rx="79.43" ry="79.43"/><rect class="cls-14" x="295.99" y="12.52" width="150.5" height="120.71" rx="60.35" ry="60.35"/><rect class="cls-15" x="295.99" y="22.82" width="150.5" height="120.71" rx="60.35" ry="60.35"/><rect class="cls-16" x="332.63" y="79.43" width="8.11" height="34.59" rx="4.04" ry="4.04"/><rect class="cls-16" x="405.22" y="79.43" width="8.11" height="34.59" rx="4.04" ry="4.04"/><rect class="cls-17" x="274.4" y="15.5" width="195.58" height="79.43" rx="39.72" ry="39.72"/><rect class="cls-18" x="274.4" y="19.66" width="195.58" height="79.43" rx="39.72" ry="39.72"/><g id="_Grupo_" data-name="&lt;Grupo&gt;"><g id="_Grupo_2" data-name="&lt;Grupo&gt;"><path class="cls-19" d="M354,68c0,6.23,4.89,12,12.53,14.77H386.8c7.64-2.8,12.53-8.54,12.53-14.77a13.22,13.22,0,0,0-2.91-8.1H356.87A13.22,13.22,0,0,0,354,68Z"/></g><g id="_Grupo_3" data-name="&lt;Grupo&gt;"><ellipse class="cls-20" cx="391.29" cy="64.22" rx="2.21" ry="1.79"/></g><g id="_Grupo_4" data-name="&lt;Grupo&gt;"><ellipse class="cls-19" cx="374.91" cy="50.94" rx="1.73" ry="1.4"/></g><g id="_Grupo_5" data-name="&lt;Grupo&gt;"><ellipse class="cls-19" cx="380.43" cy="55.41" rx="3.79" ry="3.07"/></g><g id="_Grupo_6" data-name="&lt;Grupo&gt;"><ellipse class="cls-20" cx="386.81" cy="69.75" rx="4.48" ry="3.63"/></g><g id="_Grupo_7" data-name="&lt;Grupo&gt;"><g id="_Grupo_8" data-name="&lt;Grupo&gt;"><path class="cls-7" d="M388.51,89H364.78a2.19,2.19,0,0,1-.71-.11c-10.87-3.68-17.9-11.78-17.9-20.66,0-6.53,3.78-12.74,10.37-17.05a2.14,2.14,0,0,1,2.57.22,1.3,1.3,0,0,1-.28,2.09c-5.73,3.74-9,9.12-9,14.74,0,7.58,6,14.54,15.32,17.8h23c9.32-3.27,15.32-10.22,15.32-17.8,0-8.59-7.47-16.13-18.59-18.77A1.56,1.56,0,0,1,383.55,48v-12a1.68,1.68,0,0,1,1.83-1.48h1.74a.79.79,0,1,0,0-1.55h-21a.79.79,0,1,0,0,1.55h1.74a1.68,1.68,0,0,1,1.83,1.48V48a1.56,1.56,0,0,1-1.32,1.42,33,33,0,0,0-3.48,1,2,2,0,0,1-2.41-.76,1.39,1.39,0,0,1,.93-2c.85-.3,1.73-.58,2.62-.83V37.42c-2.5,0-4.52-1.7-4.52-3.74s2.07-3.74,4.61-3.74h21c2.54,0,4.61,1.68,4.61,3.74s-2,3.7-4.52,3.74V46.9c12,3.28,19.9,11.71,19.9,21.28,0,8.87-7,17-17.9,20.66A2.18,2.18,0,0,1,388.51,89Z"/></g></g></g></g></g></svg>