<svg xmlns="http://www.w3.org/2000/svg" xmlns:xlink="http://www.w3.org/1999/xlink" viewBox="0 0 461.78 377.85"><defs><style>.cls-1{fill:#cbdcef;}.cls-2{fill:#a9bbd4;}.cls-3{fill:#83e0ea;}.cls-4{fill:#495379;}.cls-5{fill:#bbc9e0;}.cls-6{fill:#cdd9ea;}.cls-7{fill:#7980a7;}.cls-8{fill:#e1eaf4;}.cls-9{fill:#caf3f8;}.cls-10,.cls-11{fill:#00e0b3;stroke-miterlimit:10;stroke-width:3px;}.cls-10{stroke:#1b83db;}.cls-11{stroke:#495379;}.cls-12{fill:#a1b2d4;}.cls-13{fill:#cafaff;}.cls-14{fill:#8e92b5;}.cls-15{fill:#676e93;}.cls-16{fill:url(#Blanco_Negro);}.cls-17{fill:#5a5b5b;}.cls-18{fill:#5f6060;}.cls-19{fill:#c7c6c5;}.cls-20{fill:#b5b4b4;}.cls-21{fill:#424242;}.cls-22{fill:url(#Blanco_Negro-2);}.cls-23{fill:#fff;}.cls-24{fill:#8eefe3;}.cls-25{fill:#4deeff;}.cls-26{fill:#80bcb3;}.cls-27{fill:#3b9bf2;}</style><linearGradient id="Blanco_Negro" x1="368.63" y1="9.33" x2="366.96" y2="91.13" gradientUnits="userSpaceOnUse"><stop offset="0" stop-color="#fff"/><stop offset="1"/></linearGradient><linearGradient id="Blanco_Negro-2" x1="367.87" y1="-8.92" x2="366.05" y2="80.35" xlink:href="#Blanco_Negro"/></defs><title>cient</title><g id="Capa_2" data-name="Capa 2"><g id="Capa_11" data-name="Capa 11"><path class="cls-1" d="M292.57,322.61H62.18C28,322.61,0,295.88,0,263.22H0V203.83H292.57c34.2,0,62.18,26.72,62.18,59.39h0C354.75,295.88,326.77,322.61,292.57,322.61Z"/><path class="cls-2" d="M292.57,307.51H62.18C28,307.51,0,280.78,0,248.12H0V188.73H292.57c34.2,0,62.18,26.72,62.18,59.39h0C354.75,280.78,326.77,307.51,292.57,307.51Z"/><rect class="cls-3" x="148.25" y="282.2" width="53.97" height="39.6"/><rect class="cls-4" x="151.16" y="282.09" width="49.03" height="3.37"/><rect class="cls-5" y="144.45" width="354.75" height="118.77" rx="59.31" ry="59.31"/><rect class="cls-6" x="21.8" y="144.45" width="317.38" height="100.24" rx="50.06" ry="50.06"/><rect class="cls-7" x="67.9" y="136.66" width="19.55" height="192.39" rx="9.76" ry="9.76"/><rect class="cls-7" x="134.57" y="136.66" width="19.55" height="192.39" rx="9.76" ry="9.76"/><rect class="cls-7" x="197.14" y="136.66" width="19.55" height="192.39" rx="9.76" ry="9.76"/><rect class="cls-7" x="261.15" y="136.66" width="19.55" height="192.39" rx="9.76" ry="9.76"/><rect class="cls-2" x="67.9" y="157.77" width="19.55" height="113.06" rx="9.76" ry="9.76"/><rect class="cls-2" x="134.57" y="157.77" width="19.55" height="113.06" rx="9.76" ry="9.76"/><rect class="cls-2" x="197.14" y="157.77" width="19.55" height="113.06" rx="9.76" ry="9.76"/><rect class="cls-2" x="261.15" y="157.77" width="19.55" height="113.06" rx="9.76" ry="9.76"/><rect class="cls-8" x="67.9" y="136.66" width="19.55" height="113.06" rx="9.76" ry="9.76"/><rect class="cls-8" x="134.57" y="136.66" width="19.55" height="113.06" rx="9.76" ry="9.76"/><rect class="cls-8" x="261.15" y="136.66" width="19.55" height="113.06" rx="9.76" ry="9.76"/><path class="cls-9" d="M314,251.87l-18,21.18,6.55,5.61,16.57-21.18,27.52,5.73-9.39,29.48,10.19-20.42-8.25,24.92s6.9.21,8.25-1.19,11.22-27,11.22-27l47-5.75s-1.34,33.31-2.4,35.35,7.48-3.63,7.48-3.63l2.94-24.11S418,281.65,418,282.2V265.11l21.11-15.39,9.08-13.16,3.74,28.84,3.74-4.34-1.25-32.93L442,238.44s-19.16,26-70.78,25.13S314,251.87,314,251.87Z"/><rect class="cls-10" x="101.51" y="289.79" width="21.32" height="10.52" rx="5.25" ry="5.25"/><rect class="cls-10" x="228.26" y="289.79" width="21.32" height="10.52" rx="5.25" ry="5.25"/><rect class="cls-11" x="187.32" y="299.02" width="6.5" height="6.2" rx="3.1" ry="3.1"/><rect class="cls-12" x="280.7" y="216.57" width="181.08" height="161.28" rx="80.54" ry="80.54"/><rect class="cls-3" x="280.7" y="187.3" width="181.08" height="161.28" rx="80.54" ry="80.54"/><polygon class="cls-13" points="372.98 321.66 365.08 348.58 380.32 348.48 389.62 321.66 372.98 321.66"/><rect class="cls-12" x="280.7" y="164.05" width="181.08" height="161.28" rx="80.54" ry="80.54"/><rect class="cls-3" x="280.7" y="133.66" width="181.08" height="161.28" rx="80.54" ry="80.54"/><polygon class="cls-13" points="359.59 268.51 353.9 294.94 373.66 294.94 380.37 267.94 359.59 268.51"/><rect id="luz" class="cls-8" x="197.14" y="136.66" width="19.55" height="113.06" rx="9.76" ry="9.76"/><rect class="cls-12" x="280.7" y="110.41" width="181.08" height="161.28" rx="80.54" ry="80.54"/><rect class="cls-5" x="280.7" y="94.91" width="181.08" height="158.86" rx="79.33" ry="79.33"/><rect class="cls-14" x="295.99" y="107.43" width="150.5" height="120.7" rx="60.28" ry="60.28"/><rect class="cls-15" x="295.99" y="117.73" width="150.5" height="120.7" rx="60.28" ry="60.28"/><ellipse class="cls-16" cx="367.3" cy="74.21" rx="43.86" ry="41.77"/><rect class="cls-17" x="359.98" y="157.42" width="18.15" height="27.96" rx="9.06" ry="9.06"/><rect class="cls-18" x="359.98" y="151.65" width="17.8" height="15.28" rx="7.63" ry="7.63"/><rect class="cls-17" x="364.34" y="97.02" width="8.03" height="61.78" rx="4.01" ry="4.01" transform="translate(736.72 255.83) rotate(180)"/><ellipse class="cls-17" cx="367.66" cy="98.97" rx="12.91" ry="13.66"/><ellipse class="cls-19" cx="367.66" cy="94.42" rx="12.91" ry="13.66"/><ellipse class="cls-20" cx="367.66" cy="84.67" rx="12.91" ry="13.66"/><ellipse class="cls-21" cx="367.31" cy="83.37" rx="15.7" ry="9.75"/><ellipse class="cls-17" cx="367.31" cy="79.79" rx="15.7" ry="9.75"/><rect class="cls-22" x="339.89" width="55.13" height="23.06" rx="11.51" ry="11.51"/><rect class="cls-23" x="348.61" y="18.42" width="37.07" height="33.95"/><rect class="cls-23" x="339.89" y="4.19" width="55.13" height="20.6" rx="10.29" ry="10.29"/><ellipse class="cls-23" cx="367.3" cy="77.89" rx="43.86" ry="40.86"/><rect class="cls-24" x="352.59" y="17.76" width="29.55" height="28.96"/><path class="cls-25" d="M382,44.64V17.76H352.59V44.64C338.69,50,328.8,62.85,328.8,77.77c0,19.86,17.19,35.87,38.5,35.87s38.5-16,38.5-35.87C405.81,62.74,396,50,382,44.64Z"/><rect class="cls-26" x="352.59" y="17.76" width="29.55" height="8.34"/><path class="cls-25" d="M382.85,22.15H351.76a6.66,6.66,0,0,1-6.95-6.47h0a6.66,6.66,0,0,1,6.95-6.47h31.08a6.66,6.66,0,0,1,6.95,6.47h0A6.73,6.73,0,0,1,382.85,22.15Z"/><path class="cls-27" d="M401.57,77.77c0,17.55-15.31,31.92-34.26,31.92s-34.38-14.37-34.38-31.92a30.7,30.7,0,0,1,4.71-16.24c8-1.32,18.25-1.1,30.85,3.29,13,4.5,23.2,4.17,31,2.08A28,28,0,0,1,401.57,77.77Z"/><ellipse class="cls-23" cx="372.37" cy="79.08" rx="4.59" ry="4.28"/><ellipse class="cls-27" cx="372.37" cy="41.56" rx="4.59" ry="4.28"/><ellipse class="cls-27" cx="362.24" cy="50.56" rx="3.65" ry="3.4"/><ellipse class="cls-23" cx="359.89" cy="87.75" rx="6.12" ry="5.7"/><ellipse class="cls-23" cx="353.76" cy="74.8" rx="4.59" ry="4.28"/></g></g></svg>