<svg xmlns="http://www.w3.org/2000/svg" xmlns:xlink="http://www.w3.org/1999/xlink" viewBox="0 0 722.97 448.78"><defs><style>.cls-1{fill:#afafaf;}.cls-2{fill:#90999e;}.cls-3{fill:#b3bec6;}.cls-4{fill:#aab4ba;}.cls-5{fill:#a3abaf;}.cls-6{fill:#fff;}.cls-7{fill:#ddd;}.cls-8{fill:#c6c6c6;}.cls-9{fill:#528ac1;}.cls-10{fill:#7fadd3;}.cls-11{fill:#c61c28;}.cls-12{fill:#f4f4f4;}.cls-13,.cls-28{fill:#424242;}.cls-13{opacity:0.3;}.cls-14{fill:#037008;}.cls-15{fill:#b7b7b7;}.cls-16{fill:#9ab2b1;}.cls-17{fill:#099b17;}.cls-18{fill:#0aa315;}.cls-19{fill:#bcbcbc;}.cls-20{fill:#c0f1f2;}.cls-21{fill:#80d6d3;}.cls-22{fill:none;stroke:#606060;stroke-miterlimit:10;stroke-width:2px;}.cls-23{fill:url(#Degradado_sin_nombre_4);}.cls-24{fill:#5a5b5b;}.cls-25{fill:#5f6060;}.cls-26{fill:#c7c6c5;}.cls-27{fill:#b5b4b4;}.cls-29{fill:#de4e13;}.cls-30{fill:#cc2800;}.cls-31{fill:#e5e5e5;}.cls-32{fill:#b8b8bc;}.cls-33{fill:#d3d3d3;}.cls-34{fill:#606060;}.cls-35{fill:#444;}.cls-36{fill:#c5011c;}.cls-37{fill:#a50319;}.cls-38{fill:#ce1515;}.cls-39{fill:#bc0606;}.cls-40{fill:#a3bbcc;}.cls-41{fill:#cbdbeb;}.cls-42{fill:#f75959;}.cls-43{fill:#efecaf;}.cls-44{fill:#3f3f3f;}.cls-45{fill:#193e72;}.cls-46{fill:#244c93;}.cls-47{fill:#2954b2;}</style><linearGradient id="Degradado_sin_nombre_4" x1="382.57" y1="-25.64" x2="382.57" y2="76.45" gradientUnits="userSpaceOnUse"><stop offset="0" stop-color="#fff"/><stop offset="1"/></linearGradient></defs><title>emergencia</title><g id="Capa_2" data-name="Capa 2"><g id="Capa_10" data-name="Capa 10"><rect class="cls-1" x="17.97" y="139.88" width="684" height="308.9"/><path class="cls-2" d="M702,142.5H15v-13H702Z"/><rect class="cls-3" x="648.94" y="112.12" width="53.18" height="21.09"/><rect class="cls-3" x="16.97" y="112.12" width="53.18" height="21.09"/><rect class="cls-4" x="69.59" y="112.12" width="53.18" height="21.09"/><rect class="cls-5" x="122.21" y="112.12" width="53.18" height="21.09"/><rect class="cls-3" x="174.82" y="112.12" width="53.18" height="21.09"/><rect class="cls-4" x="227.44" y="112.12" width="53.18" height="21.09"/><rect class="cls-5" x="280.06" y="112.12" width="53.18" height="21.09"/><rect class="cls-3" x="332.68" y="112.12" width="32.31" height="21.09"/><rect class="cls-5" x="449.35" y="112.12" width="41.74" height="21.09"/><rect class="cls-3" x="491.09" y="112.12" width="53.18" height="21.09"/><rect class="cls-4" x="543.71" y="112.12" width="53.18" height="21.09"/><rect class="cls-5" x="596.33" y="112.12" width="53.18" height="21.09"/><polygon class="cls-6" points="680.03 144.98 518.56 144.98 518.56 409.72 680.03 409.1 680.03 144.98"/><rect class="cls-7" x="518.74" y="71.69" width="161.59" height="88.34"/><rect class="cls-8" x="531.12" y="79.46" width="134.51" height="69.16"/><rect class="cls-1" x="532.17" y="79.28" width="133.46" height="9.16" transform="translate(1197.8 167.72) rotate(180)"/><rect class="cls-9" x="531.63" y="183.98" width="136.34" height="33.04" rx="1.46" ry="1.46"/><rect class="cls-10" x="549.07" y="189.68" width="2.4" height="13.39" rx="1.2" ry="1.2" transform="translate(324.52 -342.51) rotate(47.63)"/><rect class="cls-10" x="550.5" y="196.14" width="2.4" height="13.39" rx="1.2" ry="1.2" transform="translate(329.76 -341.46) rotate(47.63)"/><rect class="cls-9" x="531.63" y="222.04" width="136.34" height="33.04" rx="1.46" ry="1.46"/><rect class="cls-10" x="549.07" y="227.74" width="2.4" height="13.39" rx="1.2" ry="1.2" transform="translate(352.64 -330.1) rotate(47.63)"/><rect class="cls-10" x="550.5" y="234.2" width="2.4" height="13.39" rx="1.2" ry="1.2" transform="translate(357.88 -329.05) rotate(47.63)"/><rect class="cls-9" x="531.63" y="259.38" width="136.34" height="33.04" rx="1.46" ry="1.46"/><rect class="cls-10" x="549.07" y="265.08" width="2.4" height="13.39" rx="1.2" ry="1.2" transform="translate(380.23 -317.92) rotate(47.63)"/><rect class="cls-10" x="550.5" y="271.55" width="2.4" height="13.39" rx="1.2" ry="1.2" transform="translate(385.47 -316.87) rotate(47.63)"/><rect class="cls-9" x="531.63" y="297.45" width="136.34" height="33.04" rx="1.46" ry="1.46"/><rect class="cls-10" x="549.07" y="303.14" width="2.4" height="13.39" rx="1.2" ry="1.2" transform="translate(408.35 -305.51) rotate(47.63)"/><rect class="cls-10" x="550.5" y="309.61" width="2.4" height="13.39" rx="1.2" ry="1.2" transform="translate(413.59 -304.46) rotate(47.63)"/><rect class="cls-9" x="531.63" y="334.79" width="136.34" height="33.04" rx="1.46" ry="1.46"/><rect class="cls-10" x="549.07" y="340.49" width="2.4" height="13.39" rx="1.2" ry="1.2" transform="translate(435.94 -293.33) rotate(47.63)"/><rect class="cls-10" x="550.5" y="346.95" width="2.4" height="13.39" rx="1.2" ry="1.2" transform="translate(441.18 -292.28) rotate(47.63)"/><rect class="cls-11" x="518.66" y="406.28" width="161.44" height="8.32"/><rect class="cls-11" x="518.97" y="160.5" width="161" height="10"/><polygon class="cls-12" points="374.63 380.72 374.46 380.72 374.46 381.1 374.63 380.72"/><polygon class="cls-12" points="518.44 192.98 239.97 192.98 239.97 380.72 518.44 380.1 518.44 192.98"/><rect class="cls-7" x="240.15" y="93.69" width="278.59" height="114.34"/><rect class="cls-8" x="255.53" y="101.46" width="250.51" height="95.16"/><rect class="cls-1" x="255.58" y="101.28" width="250.46" height="9.16" transform="translate(761.62 211.72) rotate(180)"/><rect class="cls-13" x="260.06" y="107.53" width="41.12" height="89.13"/><rect class="cls-14" x="259.06" y="108.36" width="40.23" height="77.39"/><rect class="cls-15" x="257.17" y="101.77" width="42.12" height="4.53"/><rect class="cls-16" x="257.17" y="103.83" width="42.12" height="7"/><path class="cls-17" d="M275.63,127.3a3.65,3.65,0,0,1-4.25-.18,2,2,0,0,1-.1-3.3,3.65,3.65,0,0,1,4.25.18A2,2,0,0,1,275.63,127.3Z"/><path class="cls-17" d="M279.93,127.6a3.65,3.65,0,0,1-4.25-.18,2,2,0,0,1-.1-3.3,3.65,3.65,0,0,1,4.25.18A2,2,0,0,1,279.93,127.6Z"/><path class="cls-18" d="M280,126.77a3.51,3.51,0,0,1-4.09-.08,1.92,1.92,0,0,1,0-3.18,3.51,3.51,0,0,1,4.09.08A1.92,1.92,0,0,1,280,126.77Z"/><path class="cls-17" d="M284.86,127.48a3.65,3.65,0,0,1-4.25-.18,2,2,0,0,1-.1-3.3,3.65,3.65,0,0,1,4.25.18A2,2,0,0,1,284.86,127.48Z"/><path class="cls-17" d="M288.89,125.34a3.65,3.65,0,0,1-4.25-.18,2,2,0,0,1-.1-3.3,3.65,3.65,0,0,1,4.25.18A2,2,0,0,1,288.89,125.34Z"/><path class="cls-18" d="M287.79,125a3.17,3.17,0,0,1-3.7-.88,1.89,1.89,0,0,1,1-2.9,3.17,3.17,0,0,1,3.7.88A1.89,1.89,0,0,1,287.79,125Z"/><path class="cls-17" d="M268.3,125a2.14,2.14,0,0,1-1.35-3.14,3.37,3.37,0,0,1,3.92-1.27,2.14,2.14,0,0,1,1.35,3.14A3.37,3.37,0,0,1,268.3,125Z"/><path class="cls-18" d="M268.26,124.11a1.82,1.82,0,0,1-.3-3,3.29,3.29,0,0,1,3.84-.34,1.82,1.82,0,0,1,.3,3A3.29,3.29,0,0,1,268.26,124.11Z"/><path class="cls-18" d="M275.7,126.47a3.51,3.51,0,0,1-4.09-.08,1.92,1.92,0,0,1,0-3.18,3.51,3.51,0,0,1,4.09.08A1.92,1.92,0,0,1,275.7,126.47Z"/><path class="cls-18" d="M283.93,127.11a3.37,3.37,0,0,1-3.93-.9,2,2,0,0,1,1.07-3.07,3.37,3.37,0,0,1,3.93.9A2,2,0,0,1,283.93,127.11Z"/><path class="cls-17" d="M275.32,124.39a4.44,4.44,0,0,1-5.17-.21,2.43,2.43,0,0,1-.12-4,4.44,4.44,0,0,1,5.17.21A2.43,2.43,0,0,1,275.32,124.39Z"/><path class="cls-17" d="M280.55,124.75a4.44,4.44,0,0,1-5.17-.21,2.43,2.43,0,0,1-.12-4,4.44,4.44,0,0,1,5.17.21A2.43,2.43,0,0,1,280.55,124.75Z"/><path class="cls-18" d="M280.64,123.74a4.27,4.27,0,0,1-5-.1,2.33,2.33,0,0,1,0-3.87,4.27,4.27,0,0,1,5,.1A2.33,2.33,0,0,1,280.64,123.74Z"/><path class="cls-17" d="M286.56,124.61a4.44,4.44,0,0,1-5.17-.21,2.43,2.43,0,0,1-.12-4,4.44,4.44,0,0,1,5.17.21A2.43,2.43,0,0,1,286.56,124.61Z"/><path class="cls-17" d="M291.47,122a4.44,4.44,0,0,1-5.17-.21,2.43,2.43,0,0,1-.12-4,4.44,4.44,0,0,1,5.17.21A2.43,2.43,0,0,1,291.47,122Z"/><path class="cls-18" d="M290.13,121.64a3.86,3.86,0,0,1-4.5-1.08,2.3,2.3,0,0,1,1.19-3.54,3.86,3.86,0,0,1,4.5,1.08A2.3,2.3,0,0,1,290.13,121.64Z"/><path class="cls-17" d="M266.4,121.61a2.6,2.6,0,0,1-1.64-3.82,4.1,4.1,0,0,1,4.78-1.54,2.6,2.6,0,0,1,1.64,3.82A4.1,4.1,0,0,1,266.4,121.61Z"/><path class="cls-18" d="M266.34,120.5a2.21,2.21,0,0,1-.36-3.65,4,4,0,0,1,4.67-.42,2.21,2.21,0,0,1,.36,3.65A4,4,0,0,1,266.34,120.5Z"/><path class="cls-18" d="M275.41,123.37a4.27,4.27,0,0,1-5-.1,2.33,2.33,0,0,1,0-3.87,4.27,4.27,0,0,1,5,.1A2.33,2.33,0,0,1,275.41,123.37Z"/><path class="cls-18" d="M285.42,124.16a4.1,4.1,0,0,1-4.79-1.1c-1-1.34-.37-3,1.31-3.74a4.1,4.1,0,0,1,4.79,1.1C287.69,121.76,287.11,123.43,285.42,124.16Z"/><path class="cls-17" d="M275.29,120.5a4.44,4.44,0,0,1-5.17-.21,2.43,2.43,0,0,1-.12-4,4.44,4.44,0,0,1,5.17.21A2.43,2.43,0,0,1,275.29,120.5Z"/><path class="cls-17" d="M280.53,120.86a4.44,4.44,0,0,1-5.17-.21,2.43,2.43,0,0,1-.12-4,4.44,4.44,0,0,1,5.17.21A2.43,2.43,0,0,1,280.53,120.86Z"/><path class="cls-18" d="M280.61,119.85a4.27,4.27,0,0,1-5-.1,2.33,2.33,0,0,1,0-3.87,4.27,4.27,0,0,1,5,.1A2.33,2.33,0,0,1,280.61,119.85Z"/><path class="cls-17" d="M286.53,120.72a4.44,4.44,0,0,1-5.17-.21,2.43,2.43,0,0,1-.12-4,4.44,4.44,0,0,1,5.17.21A2.43,2.43,0,0,1,286.53,120.72Z"/><path class="cls-17" d="M291.44,118.11a4.44,4.44,0,0,1-5.17-.21,2.43,2.43,0,0,1-.12-4,4.44,4.44,0,0,1,5.17.21A2.43,2.43,0,0,1,291.44,118.11Z"/><path class="cls-18" d="M290.1,117.75a3.86,3.86,0,0,1-4.5-1.08,2.3,2.3,0,0,1,1.19-3.54,3.86,3.86,0,0,1,4.5,1.08A2.3,2.3,0,0,1,290.1,117.75Z"/><path class="cls-17" d="M266.37,117.72a2.6,2.6,0,0,1-1.64-3.82,4.1,4.1,0,0,1,4.78-1.54,2.6,2.6,0,0,1,1.64,3.82A4.1,4.1,0,0,1,266.37,117.72Z"/><path class="cls-18" d="M266.31,116.61a2.21,2.21,0,0,1-.36-3.65,4,4,0,0,1,4.67-.42,2.21,2.21,0,0,1,.36,3.65A4,4,0,0,1,266.31,116.61Z"/><path class="cls-18" d="M275.38,119.48a4.27,4.27,0,0,1-5-.1,2.33,2.33,0,0,1,0-3.87,4.27,4.27,0,0,1,5,.1A2.33,2.33,0,0,1,275.38,119.48Z"/><path class="cls-18" d="M285.39,120.27a4.1,4.1,0,0,1-4.79-1.1c-1-1.34-.37-3,1.31-3.74a4.1,4.1,0,0,1,4.79,1.1C287.66,117.86,287.08,119.54,285.39,120.27Z"/><path class="cls-17" d="M275,117.48a5.36,5.36,0,0,1-5.6-.21c-1.59-1.12-1.65-2.83-.14-3.83a5.36,5.36,0,0,1,5.6.21C276.47,114.77,276.53,116.48,275,117.48Z"/><path class="cls-17" d="M280.7,117.83a5.36,5.36,0,0,1-5.6-.21c-1.59-1.12-1.65-2.83-.14-3.83a5.36,5.36,0,0,1,5.6.21C282.14,115.12,282.2,116.83,280.7,117.83Z"/><path class="cls-18" d="M280.79,116.87a5.16,5.16,0,0,1-5.4-.1,2.08,2.08,0,0,1,0-3.68,5.16,5.16,0,0,1,5.4.1A2.08,2.08,0,0,1,280.79,116.87Z"/><path class="cls-17" d="M287.2,117.71a5.36,5.36,0,0,1-5.6-.21c-1.59-1.12-1.65-2.83-.14-3.83a5.36,5.36,0,0,1,5.6.21C288.65,115,288.71,116.71,287.2,117.71Z"/><path class="cls-17" d="M292.51,115.24a5.36,5.36,0,0,1-5.6-.21c-1.59-1.12-1.65-2.83-.14-3.83a5.36,5.36,0,0,1,5.6.21C294,112.53,294,114.24,292.51,115.24Z"/><path class="cls-18" d="M291.06,114.89a4.59,4.59,0,0,1-4.88-1c-1-1.21-.42-2.72,1.28-3.36a4.59,4.59,0,0,1,4.88,1C293.33,112.74,292.76,114.25,291.06,114.89Z"/><path class="cls-17" d="M265.35,114.82c-1.92-.6-2.72-2.23-1.79-3.64a4.78,4.78,0,0,1,5.17-1.46c1.92.6,2.72,2.23,1.79,3.64A4.78,4.78,0,0,1,265.35,114.82Z"/><path class="cls-18" d="M265.29,113.77a2,2,0,0,1-.4-3.47,4.82,4.82,0,0,1,5.06-.39,2,2,0,0,1,.4,3.47A4.82,4.82,0,0,1,265.29,113.77Z"/><path class="cls-18" d="M275.12,116.51a5.16,5.16,0,0,1-5.4-.1,2.08,2.08,0,0,1,0-3.68,5.16,5.16,0,0,1,5.4.1A2.08,2.08,0,0,1,275.12,116.51Z"/><path class="cls-18" d="M286,117.27a4.88,4.88,0,0,1-5.19-1.05c-1-1.27-.41-2.86,1.41-3.55a4.88,4.88,0,0,1,5.19,1.05C288.42,115,287.79,116.58,286,117.27Z"/><path class="cls-17" d="M275.08,114a5.37,5.37,0,0,1-5.61-.15c-1.6-1.1-1.69-2.81-.2-3.83a5.37,5.37,0,0,1,5.61.15C276.48,111.24,276.57,112.95,275.08,114Z"/><path class="cls-17" d="M280.76,114.25a5.37,5.37,0,0,1-5.61-.15c-1.6-1.1-1.69-2.81-.2-3.83a5.37,5.37,0,0,1,5.61.15C282.16,111.53,282.25,113.24,280.76,114.25Z"/><path class="cls-18" d="M280.84,113.29a5.16,5.16,0,0,1-5.4,0,2.08,2.08,0,0,1,0-3.68,5.16,5.16,0,0,1,5.4,0A2.08,2.08,0,0,1,280.84,113.29Z"/><path class="cls-17" d="M287.26,114.05a5.37,5.37,0,0,1-5.61-.15c-1.6-1.1-1.69-2.81-.2-3.83a5.37,5.37,0,0,1,5.61.15C288.67,111.32,288.76,113,287.26,114.05Z"/><path class="cls-17" d="M292.53,111.52a5.37,5.37,0,0,1-5.61-.15c-1.6-1.1-1.69-2.81-.2-3.83a5.37,5.37,0,0,1,5.61.15C293.94,108.79,294,110.5,292.53,111.52Z"/><path class="cls-18" d="M291.07,111.19a4.6,4.6,0,0,1-4.89-1c-1-1.2-.47-2.71,1.22-3.37a4.6,4.6,0,0,1,4.89,1C293.31,109,292.76,110.53,291.07,111.19Z"/><path class="cls-17" d="M265.37,111.42c-1.93-.58-2.76-2.2-1.85-3.62a4.76,4.76,0,0,1,5.15-1.52c1.93.58,2.76,2.2,1.85,3.62A4.76,4.76,0,0,1,265.37,111.42Z"/><path class="cls-18" d="M265.29,110.37a2,2,0,0,1-.46-3.46,4.81,4.81,0,0,1,5.05-.45,2,2,0,0,1,.46,3.46A4.81,4.81,0,0,1,265.29,110.37Z"/><path class="cls-18" d="M275.16,113a5.16,5.16,0,0,1-5.4,0,2.08,2.08,0,0,1,0-3.68,5.16,5.16,0,0,1,5.4,0A2.08,2.08,0,0,1,275.16,113Z"/><path class="cls-18" d="M286,113.63a4.89,4.89,0,0,1-5.2-1c-1.06-1.26-.46-2.86,1.35-3.57a4.89,4.89,0,0,1,5.2,1C288.44,111.32,287.83,112.92,286,113.63Z"/><path class="cls-17" d="M275.25,110.66a4.44,4.44,0,0,1-5.18-.15,2.43,2.43,0,0,1-.18-4,4.44,4.44,0,0,1,5.18.15A2.43,2.43,0,0,1,275.25,110.66Z"/><path class="cls-17" d="M280.49,111a4.44,4.44,0,0,1-5.18-.15,2.43,2.43,0,0,1-.18-4,4.44,4.44,0,0,1,5.18.15A2.43,2.43,0,0,1,280.49,111Z"/><path class="cls-18" d="M280.56,109.95a4.27,4.27,0,0,1-5,0,2.33,2.33,0,0,1,0-3.87,4.27,4.27,0,0,1,5,0A2.33,2.33,0,0,1,280.56,109.95Z"/><path class="cls-17" d="M286.49,110.75a4.44,4.44,0,0,1-5.18-.15,2.43,2.43,0,0,1-.18-4,4.44,4.44,0,0,1,5.18.15A2.43,2.43,0,0,1,286.49,110.75Z"/><path class="cls-17" d="M291.36,108.09a4.44,4.44,0,0,1-5.18-.15,2.43,2.43,0,0,1-.18-4,4.44,4.44,0,0,1,5.18.15A2.43,2.43,0,0,1,291.36,108.09Z"/><path class="cls-18" d="M290,107.74a3.87,3.87,0,0,1-4.52-1,2.29,2.29,0,0,1,1.13-3.55,3.87,3.87,0,0,1,4.52,1A2.29,2.29,0,0,1,290,107.74Z"/><path class="cls-17" d="M266.28,108a2.61,2.61,0,0,1-1.7-3.8,4.09,4.09,0,0,1,4.75-1.6,2.61,2.61,0,0,1,1.7,3.8A4.09,4.09,0,0,1,266.28,108Z"/><path class="cls-18" d="M266.21,106.88a2.22,2.22,0,0,1-.42-3.64,4,4,0,0,1,4.67-.47,2.22,2.22,0,0,1,.42,3.64A4,4,0,0,1,266.21,106.88Z"/><path class="cls-18" d="M275.32,109.64a4.27,4.27,0,0,1-5,0,2.33,2.33,0,0,1,0-3.87,4.27,4.27,0,0,1,5,0A2.33,2.33,0,0,1,275.32,109.64Z"/><path class="cls-18" d="M285.35,110.31a4.11,4.11,0,0,1-4.8-1c-1-1.32-.42-3,1.25-3.75a4.11,4.11,0,0,1,4.8,1C287.58,107.88,287,109.56,285.35,110.31Z"/><path class="cls-17" d="M275.72,107.31a3.09,3.09,0,0,1-4.38-.17,3.15,3.15,0,0,1-.15-4.42,3.09,3.09,0,0,1,4.38.17A3.15,3.15,0,0,1,275.72,107.31Z"/><path class="cls-17" d="M280.16,107.64a3.09,3.09,0,0,1-4.38-.17,3.15,3.15,0,0,1-.15-4.42,3.09,3.09,0,0,1,4.38.17A3.15,3.15,0,0,1,280.16,107.64Z"/><path class="cls-18" d="M280.22,106.52a3,3,0,0,1-4.22,0,3,3,0,0,1,0-4.25,3,3,0,0,1,4.22,0A3,3,0,0,1,280.22,106.52Z"/><path class="cls-17" d="M285.24,107.4a3.09,3.09,0,0,1-4.38-.17,3.15,3.15,0,0,1-.15-4.42,3.09,3.09,0,0,1,4.38.17A3.15,3.15,0,0,1,285.24,107.4Z"/><path class="cls-17" d="M289.36,104.48a3.09,3.09,0,0,1-4.38-.17,3.15,3.15,0,0,1-.15-4.42,3.09,3.09,0,0,1,4.38.17A3.15,3.15,0,0,1,289.36,104.48Z"/><path class="cls-18" d="M288.22,104.09a2.8,2.8,0,0,1-3.82-1.12,2.85,2.85,0,0,1,1-3.9,2.8,2.8,0,0,1,3.82,1.12A2.85,2.85,0,0,1,288.22,104.09Z"/><path class="cls-17" d="M268.14,104.37a3.14,3.14,0,0,1-1.44-4.17,3.1,3.1,0,0,1,4-1.75,3.14,3.14,0,0,1,1.44,4.17A3.1,3.1,0,0,1,268.14,104.37Z"/><path class="cls-18" d="M268.08,103.16a2.86,2.86,0,0,1-.35-4,2.8,2.8,0,0,1,3.95-.52,2.86,2.86,0,0,1,.35,4A2.8,2.8,0,0,1,268.08,103.16Z"/><path class="cls-18" d="M275.78,106.19a3,3,0,0,1-4.22,0,3,3,0,0,1,0-4.25,3,3,0,0,1,4.22,0A3,3,0,0,1,275.78,106.19Z"/><path class="cls-18" d="M284.27,106.92a3,3,0,0,1-4.06-1.14,3,3,0,0,1,1.06-4.12,3,3,0,0,1,4.06,1.14A3,3,0,0,1,284.27,106.92Z"/><ellipse class="cls-18" cx="274.1" cy="99.57" rx="4.48" ry="4.07" transform="translate(174.22 373.56) rotate(-89.93)"/><ellipse class="cls-18" cx="282.68" cy="99.58" rx="4.48" ry="4.07" transform="translate(182.77 382.14) rotate(-89.93)"/><ellipse class="cls-18" cx="278.39" cy="98.4" rx="3.86" ry="4.07" transform="translate(179.67 376.68) rotate(-89.93)"/><path class="cls-17" d="M274.68,154.06a3.65,3.65,0,0,1-4.25-.18,2,2,0,0,1-.1-3.3,3.65,3.65,0,0,1,4.25.18A2,2,0,0,1,274.68,154.06Z"/><path class="cls-17" d="M279,154.36a3.65,3.65,0,0,1-4.25-.18,2,2,0,0,1-.1-3.3,3.65,3.65,0,0,1,4.25.18A2,2,0,0,1,279,154.36Z"/><path class="cls-18" d="M279.06,153.52a3.51,3.51,0,0,1-4.09-.08,1.92,1.92,0,0,1,0-3.18,3.51,3.51,0,0,1,4.09.08A1.92,1.92,0,0,1,279.06,153.52Z"/><path class="cls-17" d="M283.92,154.24a3.65,3.65,0,0,1-4.25-.18,2,2,0,0,1-.1-3.3,3.65,3.65,0,0,1,4.25.18A2,2,0,0,1,283.92,154.24Z"/><path class="cls-17" d="M287.95,152.1a3.65,3.65,0,0,1-4.25-.18,2,2,0,0,1-.1-3.3,3.65,3.65,0,0,1,4.25.18A2,2,0,0,1,287.95,152.1Z"/><path class="cls-18" d="M286.84,151.8a3.17,3.17,0,0,1-3.7-.88,1.89,1.89,0,0,1,1-2.9,3.17,3.17,0,0,1,3.7.88A1.89,1.89,0,0,1,286.84,151.8Z"/><path class="cls-17" d="M267.36,151.77a2.14,2.14,0,0,1-1.35-3.14,3.37,3.37,0,0,1,3.92-1.27,2.14,2.14,0,0,1,1.35,3.14A3.37,3.37,0,0,1,267.36,151.77Z"/><path class="cls-18" d="M267.31,150.87a1.82,1.82,0,0,1-.3-3,3.29,3.29,0,0,1,3.84-.34,1.82,1.82,0,0,1,.3,3A3.29,3.29,0,0,1,267.31,150.87Z"/><path class="cls-18" d="M274.76,153.22a3.51,3.51,0,0,1-4.09-.08,1.92,1.92,0,0,1,0-3.18,3.51,3.51,0,0,1,4.09.08A1.92,1.92,0,0,1,274.76,153.22Z"/><path class="cls-18" d="M283,153.87a3.37,3.37,0,0,1-3.93-.9,2,2,0,0,1,1.07-3.07,3.37,3.37,0,0,1,3.93.9A2,2,0,0,1,283,153.87Z"/><path class="cls-17" d="M274.37,151.15a4.44,4.44,0,0,1-5.17-.21,2.43,2.43,0,0,1-.12-4,4.44,4.44,0,0,1,5.17.21A2.43,2.43,0,0,1,274.37,151.15Z"/><path class="cls-17" d="M279.61,151.51a4.44,4.44,0,0,1-5.17-.21,2.43,2.43,0,0,1-.12-4,4.44,4.44,0,0,1,5.17.21A2.43,2.43,0,0,1,279.61,151.51Z"/><path class="cls-18" d="M279.7,150.49a4.27,4.27,0,0,1-5-.1,2.33,2.33,0,0,1,0-3.87,4.27,4.27,0,0,1,5,.1A2.33,2.33,0,0,1,279.7,150.49Z"/><path class="cls-17" d="M285.62,151.37a4.44,4.44,0,0,1-5.17-.21,2.43,2.43,0,0,1-.12-4,4.44,4.44,0,0,1,5.17.21A2.43,2.43,0,0,1,285.62,151.37Z"/><path class="cls-17" d="M290.52,148.76a4.44,4.44,0,0,1-5.17-.21,2.43,2.43,0,0,1-.12-4,4.44,4.44,0,0,1,5.17.21A2.43,2.43,0,0,1,290.52,148.76Z"/><path class="cls-18" d="M289.18,148.4a3.86,3.86,0,0,1-4.5-1.08,2.3,2.3,0,0,1,1.19-3.54,3.86,3.86,0,0,1,4.5,1.08A2.3,2.3,0,0,1,289.18,148.4Z"/><path class="cls-17" d="M265.45,148.36a2.6,2.6,0,0,1-1.64-3.82,4.1,4.1,0,0,1,4.78-1.54,2.6,2.6,0,0,1,1.64,3.82A4.1,4.1,0,0,1,265.45,148.36Z"/><path class="cls-18" d="M265.4,147.26a2.21,2.21,0,0,1-.36-3.65,4,4,0,0,1,4.67-.42,2.21,2.21,0,0,1,.36,3.65A4,4,0,0,1,265.4,147.26Z"/><path class="cls-18" d="M274.46,150.13a4.27,4.27,0,0,1-5-.1,2.33,2.33,0,0,1,0-3.87,4.27,4.27,0,0,1,5,.1A2.33,2.33,0,0,1,274.46,150.13Z"/><path class="cls-18" d="M284.48,150.91a4.1,4.1,0,0,1-4.79-1.1c-1-1.34-.37-3,1.31-3.74a4.1,4.1,0,0,1,4.79,1.1C286.75,148.51,286.16,150.19,284.48,150.91Z"/><path class="cls-17" d="M274.34,147.26a4.44,4.44,0,0,1-5.17-.21,2.43,2.43,0,0,1-.12-4,4.44,4.44,0,0,1,5.17.21A2.43,2.43,0,0,1,274.34,147.26Z"/><path class="cls-17" d="M279.58,147.62a4.44,4.44,0,0,1-5.17-.21,2.43,2.43,0,0,1-.12-4,4.44,4.44,0,0,1,5.17.21A2.43,2.43,0,0,1,279.58,147.62Z"/><path class="cls-18" d="M279.67,146.6a4.27,4.27,0,0,1-5-.1,2.33,2.33,0,0,1,0-3.87,4.27,4.27,0,0,1,5,.1A2.33,2.33,0,0,1,279.67,146.6Z"/><path class="cls-17" d="M285.59,147.48a4.44,4.44,0,0,1-5.17-.21,2.43,2.43,0,0,1-.12-4,4.44,4.44,0,0,1,5.17.21A2.43,2.43,0,0,1,285.59,147.48Z"/><path class="cls-17" d="M290.49,144.87a4.44,4.44,0,0,1-5.17-.21,2.43,2.43,0,0,1-.12-4,4.44,4.44,0,0,1,5.17.21A2.43,2.43,0,0,1,290.49,144.87Z"/><path class="cls-18" d="M289.15,144.51a3.86,3.86,0,0,1-4.5-1.08,2.3,2.3,0,0,1,1.19-3.54,3.86,3.86,0,0,1,4.5,1.08A2.3,2.3,0,0,1,289.15,144.51Z"/><path class="cls-17" d="M265.42,144.47a2.6,2.6,0,0,1-1.64-3.82,4.1,4.1,0,0,1,4.78-1.54,2.6,2.6,0,0,1,1.64,3.82A4.1,4.1,0,0,1,265.42,144.47Z"/><path class="cls-18" d="M265.37,143.37a2.21,2.21,0,0,1-.36-3.65,4,4,0,0,1,4.67-.42A2.21,2.21,0,0,1,270,143,4,4,0,0,1,265.37,143.37Z"/><path class="cls-18" d="M274.43,146.24a4.27,4.27,0,0,1-5-.1,2.33,2.33,0,0,1,0-3.87,4.27,4.27,0,0,1,5,.1A2.33,2.33,0,0,1,274.43,146.24Z"/><path class="cls-18" d="M284.45,147a4.1,4.1,0,0,1-4.79-1.1c-1-1.34-.37-3,1.31-3.74a4.1,4.1,0,0,1,4.79,1.1C286.72,144.62,286.13,146.29,284.45,147Z"/><path class="cls-17" d="M274.08,144.24a5.36,5.36,0,0,1-5.6-.21c-1.59-1.12-1.65-2.83-.14-3.83a5.36,5.36,0,0,1,5.6.21C275.52,141.52,275.58,143.24,274.08,144.24Z"/><path class="cls-17" d="M279.75,144.59a5.36,5.36,0,0,1-5.6-.21c-1.59-1.12-1.65-2.83-.14-3.83a5.36,5.36,0,0,1,5.6.21C281.2,141.88,281.26,143.59,279.75,144.59Z"/><path class="cls-18" d="M279.84,143.62a5.16,5.16,0,0,1-5.4-.1,2.08,2.08,0,0,1,0-3.68,5.16,5.16,0,0,1,5.4.1A2.08,2.08,0,0,1,279.84,143.62Z"/><path class="cls-17" d="M286.26,144.46a5.36,5.36,0,0,1-5.6-.21c-1.59-1.12-1.65-2.83-.14-3.83a5.36,5.36,0,0,1,5.6.21C287.7,141.75,287.77,143.46,286.26,144.46Z"/><path class="cls-17" d="M291.57,142a5.36,5.36,0,0,1-5.6-.21c-1.59-1.12-1.65-2.83-.14-3.83a5.36,5.36,0,0,1,5.6.21C293,139.28,293.07,141,291.57,142Z"/><path class="cls-18" d="M290.11,141.65a4.59,4.59,0,0,1-4.88-1c-1-1.21-.42-2.72,1.28-3.36a4.59,4.59,0,0,1,4.88,1C292.38,139.5,291.81,141,290.11,141.65Z"/><path class="cls-17" d="M264.41,141.57c-1.92-.6-2.72-2.23-1.79-3.64a4.78,4.78,0,0,1,5.17-1.46c1.92.6,2.72,2.23,1.79,3.64A4.78,4.78,0,0,1,264.41,141.57Z"/><path class="cls-18" d="M264.34,140.52a2,2,0,0,1-.4-3.47,4.82,4.82,0,0,1,5.06-.39,2,2,0,0,1,.4,3.47A4.82,4.82,0,0,1,264.34,140.52Z"/><path class="cls-18" d="M274.17,143.27a5.16,5.16,0,0,1-5.4-.1,2.08,2.08,0,0,1,0-3.68,5.16,5.16,0,0,1,5.4.1A2.08,2.08,0,0,1,274.17,143.27Z"/><path class="cls-18" d="M285,144a4.88,4.88,0,0,1-5.19-1.05c-1-1.27-.41-2.86,1.41-3.55a4.88,4.88,0,0,1,5.19,1.05C287.48,141.75,286.84,143.34,285,144Z"/><path class="cls-17" d="M274.13,140.72a5.37,5.37,0,0,1-5.61-.15c-1.6-1.1-1.69-2.81-.2-3.83a5.37,5.37,0,0,1,5.61.15C275.54,138,275.63,139.71,274.13,140.72Z"/><path class="cls-17" d="M279.81,141a5.37,5.37,0,0,1-5.61-.15c-1.6-1.1-1.69-2.81-.2-3.83a5.37,5.37,0,0,1,5.61.15C281.21,138.28,281.3,140,279.81,141Z"/><path class="cls-18" d="M279.89,140a5.16,5.16,0,0,1-5.4,0,2.08,2.08,0,0,1,0-3.68,5.16,5.16,0,0,1,5.4,0A2.08,2.08,0,0,1,279.89,140Z"/><path class="cls-17" d="M286.32,140.81a5.37,5.37,0,0,1-5.61-.15c-1.6-1.1-1.69-2.81-.2-3.83a5.37,5.37,0,0,1,5.61.15C287.72,138.08,287.81,139.79,286.32,140.81Z"/><path class="cls-17" d="M291.59,138.28a5.37,5.37,0,0,1-5.61-.15c-1.6-1.1-1.69-2.81-.2-3.83a5.37,5.37,0,0,1,5.61.15C293,135.55,293.08,137.26,291.59,138.28Z"/><path class="cls-18" d="M290.13,137.95a4.6,4.6,0,0,1-4.89-1c-1-1.2-.47-2.71,1.22-3.37a4.6,4.6,0,0,1,4.89,1C292.36,135.77,291.82,137.28,290.13,137.95Z"/><path class="cls-17" d="M264.42,138.17c-1.93-.58-2.76-2.2-1.85-3.62a4.76,4.76,0,0,1,5.15-1.52c1.93.58,2.76,2.2,1.85,3.62A4.76,4.76,0,0,1,264.42,138.17Z"/><path class="cls-18" d="M264.34,137.13a2,2,0,0,1-.46-3.46,4.81,4.81,0,0,1,5.05-.45,2,2,0,0,1,.46,3.46A4.81,4.81,0,0,1,264.34,137.13Z"/><path class="cls-18" d="M274.21,139.75a5.16,5.16,0,0,1-5.4,0,2.08,2.08,0,0,1,0-3.68,5.16,5.16,0,0,1,5.4,0A2.08,2.08,0,0,1,274.21,139.75Z"/><path class="cls-18" d="M285.07,140.39a4.89,4.89,0,0,1-5.2-1c-1.06-1.26-.46-2.86,1.35-3.57a4.89,4.89,0,0,1,5.2,1C287.49,138.08,286.89,139.68,285.07,140.39Z"/><path class="cls-17" d="M274.3,137.42a4.44,4.44,0,0,1-5.18-.15,2.43,2.43,0,0,1-.18-4,4.44,4.44,0,0,1,5.18.15A2.43,2.43,0,0,1,274.3,137.42Z"/><path class="cls-17" d="M279.54,137.72a4.44,4.44,0,0,1-5.18-.15,2.43,2.43,0,0,1-.18-4,4.44,4.44,0,0,1,5.18.15A2.43,2.43,0,0,1,279.54,137.72Z"/><path class="cls-18" d="M279.62,136.7a4.27,4.27,0,0,1-5,0,2.33,2.33,0,0,1,0-3.87,4.27,4.27,0,0,1,5,0A2.33,2.33,0,0,1,279.62,136.7Z"/><path class="cls-17" d="M285.55,137.51a4.44,4.44,0,0,1-5.18-.15,2.43,2.43,0,0,1-.18-4,4.44,4.44,0,0,1,5.18.15A2.43,2.43,0,0,1,285.55,137.51Z"/><path class="cls-17" d="M290.41,134.85a4.44,4.44,0,0,1-5.18-.15,2.43,2.43,0,0,1-.18-4,4.44,4.44,0,0,1,5.18.15A2.43,2.43,0,0,1,290.41,134.85Z"/><path class="cls-18" d="M289.06,134.5a3.87,3.87,0,0,1-4.52-1,2.29,2.29,0,0,1,1.13-3.55,3.87,3.87,0,0,1,4.52,1A2.29,2.29,0,0,1,289.06,134.5Z"/><path class="cls-17" d="M265.34,134.74a2.61,2.61,0,0,1-1.7-3.8,4.09,4.09,0,0,1,4.75-1.6,2.61,2.61,0,0,1,1.7,3.8A4.09,4.09,0,0,1,265.34,134.74Z"/><path class="cls-18" d="M265.26,133.64a2.22,2.22,0,0,1-.42-3.64,4,4,0,0,1,4.67-.47,2.22,2.22,0,0,1,.42,3.64A4,4,0,0,1,265.26,133.64Z"/><path class="cls-18" d="M274.37,136.4a4.27,4.27,0,0,1-5,0,2.33,2.33,0,0,1,0-3.87,4.27,4.27,0,0,1,5,0A2.33,2.33,0,0,1,274.37,136.4Z"/><path class="cls-18" d="M284.4,137.07a4.11,4.11,0,0,1-4.8-1c-1-1.32-.42-3,1.25-3.75a4.11,4.11,0,0,1,4.8,1C286.63,134.64,286.07,136.32,284.4,137.07Z"/><path class="cls-17" d="M274.77,134.06a3.09,3.09,0,0,1-4.38-.17,3.15,3.15,0,0,1-.15-4.42,3.09,3.09,0,0,1,4.38.17A3.15,3.15,0,0,1,274.77,134.06Z"/><path class="cls-17" d="M279.21,134.39a3.09,3.09,0,0,1-4.38-.17,3.15,3.15,0,0,1-.15-4.42,3.09,3.09,0,0,1,4.38.17A3.15,3.15,0,0,1,279.21,134.39Z"/><path class="cls-18" d="M279.27,133.28a3,3,0,0,1-4.22,0,3,3,0,0,1,0-4.25,3,3,0,0,1,4.22,0A3,3,0,0,1,279.27,133.28Z"/><path class="cls-17" d="M284.29,134.16a3.09,3.09,0,0,1-4.38-.17,3.15,3.15,0,0,1-.15-4.42,3.09,3.09,0,0,1,4.38.17A3.15,3.15,0,0,1,284.29,134.16Z"/><path class="cls-17" d="M288.41,131.23a3.09,3.09,0,0,1-4.38-.17,3.15,3.15,0,0,1-.15-4.42,3.09,3.09,0,0,1,4.38.17A3.15,3.15,0,0,1,288.41,131.23Z"/><path class="cls-18" d="M287.27,130.85a2.8,2.8,0,0,1-3.82-1.12,2.85,2.85,0,0,1,1-3.9,2.8,2.8,0,0,1,3.82,1.12A2.85,2.85,0,0,1,287.27,130.85Z"/><path class="cls-17" d="M267.19,131.13a3.14,3.14,0,0,1-1.44-4.17,3.1,3.1,0,0,1,4-1.75,3.14,3.14,0,0,1,1.44,4.17A3.1,3.1,0,0,1,267.19,131.13Z"/><path class="cls-18" d="M267.13,129.91a2.86,2.86,0,0,1-.35-4,2.8,2.8,0,0,1,3.95-.52,2.86,2.86,0,0,1,.35,4A2.8,2.8,0,0,1,267.13,129.91Z"/><path class="cls-18" d="M274.84,132.95a3,3,0,0,1-4.22,0,3,3,0,0,1,0-4.25,3,3,0,0,1,4.22,0A3,3,0,0,1,274.84,132.95Z"/><path class="cls-18" d="M283.32,133.67a3,3,0,0,1-4.06-1.14,3,3,0,0,1,1.06-4.12,3,3,0,0,1,4.06,1.14A3,3,0,0,1,283.32,133.67Z"/><ellipse class="cls-18" cx="273.15" cy="126.33" rx="4.48" ry="4.07" transform="translate(146.51 399.34) rotate(-89.93)"/><ellipse class="cls-18" cx="281.73" cy="126.34" rx="4.48" ry="4.07" transform="translate(155.07 407.92) rotate(-89.93)"/><ellipse class="cls-18" cx="277.44" cy="125.16" rx="3.86" ry="4.07" transform="translate(151.97 402.46) rotate(-89.93)"/><path class="cls-17" d="M275.63,182.05a3.65,3.65,0,0,1-4.25-.18,2,2,0,0,1-.1-3.3,3.65,3.65,0,0,1,4.25.18A2,2,0,0,1,275.63,182.05Z"/><path class="cls-17" d="M279.93,182.35a3.65,3.65,0,0,1-4.25-.18,2,2,0,0,1-.1-3.3,3.65,3.65,0,0,1,4.25.18A2,2,0,0,1,279.93,182.35Z"/><path class="cls-18" d="M280,181.52a3.51,3.51,0,0,1-4.09-.08,1.92,1.92,0,0,1,0-3.18,3.51,3.51,0,0,1,4.09.08A1.92,1.92,0,0,1,280,181.52Z"/><path class="cls-17" d="M284.86,182.23a3.65,3.65,0,0,1-4.25-.18,2,2,0,0,1-.1-3.3,3.65,3.65,0,0,1,4.25.18A2,2,0,0,1,284.86,182.23Z"/><path class="cls-17" d="M288.89,180.09a3.65,3.65,0,0,1-4.25-.18,2,2,0,0,1-.1-3.3,3.65,3.65,0,0,1,4.25.18A2,2,0,0,1,288.89,180.09Z"/><path class="cls-18" d="M287.79,179.79a3.17,3.17,0,0,1-3.7-.88,1.89,1.89,0,0,1,1-2.9,3.17,3.17,0,0,1,3.7.88A1.89,1.89,0,0,1,287.79,179.79Z"/><path class="cls-17" d="M268.3,179.77a2.14,2.14,0,0,1-1.35-3.14,3.37,3.37,0,0,1,3.92-1.27,2.14,2.14,0,0,1,1.35,3.14A3.37,3.37,0,0,1,268.3,179.77Z"/><path class="cls-18" d="M268.26,178.86a1.82,1.82,0,0,1-.3-3,3.29,3.29,0,0,1,3.84-.34,1.82,1.82,0,0,1,.3,3A3.29,3.29,0,0,1,268.26,178.86Z"/><path class="cls-18" d="M275.7,181.22a3.51,3.51,0,0,1-4.09-.08,1.92,1.92,0,0,1,0-3.18,3.51,3.51,0,0,1,4.09.08A1.92,1.92,0,0,1,275.7,181.22Z"/><path class="cls-18" d="M283.93,181.86A3.37,3.37,0,0,1,280,181a2,2,0,0,1,1.07-3.07,3.37,3.37,0,0,1,3.93.9A2,2,0,0,1,283.93,181.86Z"/><path class="cls-17" d="M275.32,179.14a4.44,4.44,0,0,1-5.17-.21,2.43,2.43,0,0,1-.12-4,4.44,4.44,0,0,1,5.17.21A2.43,2.43,0,0,1,275.32,179.14Z"/><path class="cls-17" d="M280.55,179.5a4.44,4.44,0,0,1-5.17-.21,2.43,2.43,0,0,1-.12-4,4.44,4.44,0,0,1,5.17.21A2.43,2.43,0,0,1,280.55,179.5Z"/><path class="cls-18" d="M280.64,178.49a4.27,4.27,0,0,1-5-.1,2.33,2.33,0,0,1,0-3.87,4.27,4.27,0,0,1,5,.1A2.33,2.33,0,0,1,280.64,178.49Z"/><path class="cls-17" d="M286.56,179.36a4.44,4.44,0,0,1-5.17-.21,2.43,2.43,0,0,1-.12-4,4.44,4.44,0,0,1,5.17.21A2.43,2.43,0,0,1,286.56,179.36Z"/><path class="cls-17" d="M291.47,176.76a4.44,4.44,0,0,1-5.17-.21,2.43,2.43,0,0,1-.12-4,4.44,4.44,0,0,1,5.17.21A2.43,2.43,0,0,1,291.47,176.76Z"/><path class="cls-18" d="M290.13,176.39a3.86,3.86,0,0,1-4.5-1.08,2.3,2.3,0,0,1,1.19-3.54,3.86,3.86,0,0,1,4.5,1.08A2.3,2.3,0,0,1,290.13,176.39Z"/><path class="cls-17" d="M266.4,176.36a2.6,2.6,0,0,1-1.64-3.82,4.1,4.1,0,0,1,4.78-1.54,2.6,2.6,0,0,1,1.64,3.82A4.1,4.1,0,0,1,266.4,176.36Z"/><path class="cls-18" d="M266.34,175.25a2.21,2.21,0,0,1-.36-3.65,4,4,0,0,1,4.67-.42,2.21,2.21,0,0,1,.36,3.65A4,4,0,0,1,266.34,175.25Z"/><path class="cls-18" d="M275.41,178.12a4.27,4.27,0,0,1-5-.1,2.33,2.33,0,0,1,0-3.87,4.27,4.27,0,0,1,5,.1A2.33,2.33,0,0,1,275.41,178.12Z"/><path class="cls-18" d="M285.42,178.91a4.1,4.1,0,0,1-4.79-1.1c-1-1.34-.37-3,1.31-3.74a4.1,4.1,0,0,1,4.79,1.1C287.69,176.51,287.11,178.18,285.42,178.91Z"/><path class="cls-17" d="M275.29,175.25a4.44,4.44,0,0,1-5.17-.21,2.43,2.43,0,0,1-.12-4,4.44,4.44,0,0,1,5.17.21A2.43,2.43,0,0,1,275.29,175.25Z"/><path class="cls-17" d="M280.53,175.61a4.44,4.44,0,0,1-5.17-.21,2.43,2.43,0,0,1-.12-4,4.44,4.44,0,0,1,5.17.21A2.43,2.43,0,0,1,280.53,175.61Z"/><path class="cls-18" d="M280.61,174.6a4.27,4.27,0,0,1-5-.1,2.33,2.33,0,0,1,0-3.87,4.27,4.27,0,0,1,5,.1A2.33,2.33,0,0,1,280.61,174.6Z"/><path class="cls-17" d="M286.53,175.47a4.44,4.44,0,0,1-5.17-.21,2.43,2.43,0,0,1-.12-4,4.44,4.44,0,0,1,5.17.21A2.43,2.43,0,0,1,286.53,175.47Z"/><path class="cls-17" d="M291.44,172.86a4.44,4.44,0,0,1-5.17-.21,2.43,2.43,0,0,1-.12-4,4.44,4.44,0,0,1,5.17.21A2.43,2.43,0,0,1,291.44,172.86Z"/><path class="cls-18" d="M290.1,172.5a3.86,3.86,0,0,1-4.5-1.08,2.3,2.3,0,0,1,1.19-3.54,3.86,3.86,0,0,1,4.5,1.08A2.3,2.3,0,0,1,290.1,172.5Z"/><path class="cls-17" d="M266.37,172.47a2.6,2.6,0,0,1-1.64-3.82,4.1,4.1,0,0,1,4.78-1.54,2.6,2.6,0,0,1,1.64,3.82A4.1,4.1,0,0,1,266.37,172.47Z"/><path class="cls-18" d="M266.31,171.36a2.21,2.21,0,0,1-.36-3.65,4,4,0,0,1,4.67-.42,2.21,2.21,0,0,1,.36,3.65A4,4,0,0,1,266.31,171.36Z"/><path class="cls-18" d="M275.38,174.23a4.27,4.27,0,0,1-5-.1,2.33,2.33,0,0,1,0-3.87,4.27,4.27,0,0,1,5,.1A2.33,2.33,0,0,1,275.38,174.23Z"/><path class="cls-18" d="M285.39,175a4.1,4.1,0,0,1-4.79-1.1c-1-1.34-.37-3,1.31-3.74a4.1,4.1,0,0,1,4.79,1.1C287.66,172.61,287.08,174.29,285.39,175Z"/><path class="cls-17" d="M275,172.23a5.36,5.36,0,0,1-5.6-.21c-1.59-1.12-1.65-2.83-.14-3.83a5.36,5.36,0,0,1,5.6.21C276.47,169.52,276.53,171.23,275,172.23Z"/><path class="cls-17" d="M280.7,172.58a5.36,5.36,0,0,1-5.6-.21c-1.59-1.12-1.65-2.83-.14-3.83a5.36,5.36,0,0,1,5.6.21C282.14,169.87,282.2,171.58,280.7,172.58Z"/><path class="cls-18" d="M280.79,171.62a5.16,5.16,0,0,1-5.4-.1,2.08,2.08,0,0,1,0-3.68,5.16,5.16,0,0,1,5.4.1A2.08,2.08,0,0,1,280.79,171.62Z"/><path class="cls-17" d="M287.2,172.46a5.36,5.36,0,0,1-5.6-.21c-1.59-1.12-1.65-2.83-.14-3.83a5.36,5.36,0,0,1,5.6.21C288.65,169.74,288.71,171.46,287.2,172.46Z"/><path class="cls-17" d="M292.51,170a5.36,5.36,0,0,1-5.6-.21c-1.59-1.12-1.65-2.83-.14-3.83a5.36,5.36,0,0,1,5.6.21C294,167.28,294,169,292.51,170Z"/><path class="cls-18" d="M291.06,169.64a4.59,4.59,0,0,1-4.88-1c-1-1.21-.42-2.72,1.28-3.36a4.59,4.59,0,0,1,4.88,1C293.33,167.49,292.76,169,291.06,169.64Z"/><path class="cls-17" d="M265.35,169.57c-1.92-.6-2.72-2.23-1.79-3.64a4.78,4.78,0,0,1,5.17-1.46c1.92.6,2.72,2.23,1.79,3.64A4.78,4.78,0,0,1,265.35,169.57Z"/><path class="cls-18" d="M265.29,168.52a2,2,0,0,1-.4-3.47,4.82,4.82,0,0,1,5.06-.39,2,2,0,0,1,.4,3.47A4.82,4.82,0,0,1,265.29,168.52Z"/><path class="cls-18" d="M275.12,171.26a5.16,5.16,0,0,1-5.4-.1,2.08,2.08,0,0,1,0-3.68,5.16,5.16,0,0,1,5.4.1A2.08,2.08,0,0,1,275.12,171.26Z"/><path class="cls-18" d="M286,172a4.88,4.88,0,0,1-5.19-1.05c-1-1.27-.41-2.86,1.41-3.55a4.88,4.88,0,0,1,5.19,1.05C288.42,169.74,287.79,171.33,286,172Z"/><path class="cls-17" d="M275.08,168.72a5.37,5.37,0,0,1-5.61-.15c-1.6-1.1-1.69-2.81-.2-3.83a5.37,5.37,0,0,1,5.61.15C276.48,166,276.57,167.7,275.08,168.72Z"/><path class="cls-17" d="M280.76,169a5.37,5.37,0,0,1-5.61-.15c-1.6-1.1-1.69-2.81-.2-3.83a5.37,5.37,0,0,1,5.61.15C282.16,166.28,282.25,168,280.76,169Z"/><path class="cls-18" d="M280.84,168a5.16,5.16,0,0,1-5.4,0,2.08,2.08,0,0,1,0-3.68,5.16,5.16,0,0,1,5.4,0A2.08,2.08,0,0,1,280.84,168Z"/><path class="cls-17" d="M287.26,168.8a5.37,5.37,0,0,1-5.61-.15c-1.6-1.1-1.69-2.81-.2-3.83a5.37,5.37,0,0,1,5.61.15C288.67,166.07,288.76,167.78,287.26,168.8Z"/><path class="cls-17" d="M292.53,166.27a5.37,5.37,0,0,1-5.61-.15c-1.6-1.1-1.69-2.81-.2-3.83a5.37,5.37,0,0,1,5.61.15C293.94,163.54,294,165.25,292.53,166.27Z"/><path class="cls-18" d="M291.07,165.94a4.6,4.6,0,0,1-4.89-1c-1-1.2-.47-2.71,1.22-3.37a4.6,4.6,0,0,1,4.89,1C293.31,163.76,292.76,165.27,291.07,165.94Z"/><path class="cls-17" d="M265.37,166.17c-1.93-.58-2.76-2.2-1.85-3.62a4.76,4.76,0,0,1,5.15-1.52c1.93.58,2.76,2.2,1.85,3.62A4.76,4.76,0,0,1,265.37,166.17Z"/><path class="cls-18" d="M265.29,165.12a2,2,0,0,1-.46-3.46,4.81,4.81,0,0,1,5.05-.45,2,2,0,0,1,.46,3.46A4.81,4.81,0,0,1,265.29,165.12Z"/><path class="cls-18" d="M275.16,167.75a5.16,5.16,0,0,1-5.4,0,2.08,2.08,0,0,1,0-3.68,5.16,5.16,0,0,1,5.4,0A2.08,2.08,0,0,1,275.16,167.75Z"/><path class="cls-18" d="M286,168.38a4.89,4.89,0,0,1-5.2-1c-1.06-1.26-.46-2.86,1.35-3.57a4.89,4.89,0,0,1,5.2,1C288.44,166.07,287.83,167.67,286,168.38Z"/><path class="cls-17" d="M275.25,165.41a4.44,4.44,0,0,1-5.18-.15,2.43,2.43,0,0,1-.18-4,4.44,4.44,0,0,1,5.18.15A2.43,2.43,0,0,1,275.25,165.41Z"/><path class="cls-17" d="M280.49,165.71a4.44,4.44,0,0,1-5.18-.15,2.43,2.43,0,0,1-.18-4,4.44,4.44,0,0,1,5.18.15A2.43,2.43,0,0,1,280.49,165.71Z"/><path class="cls-18" d="M280.56,164.7a4.27,4.27,0,0,1-5,0,2.33,2.33,0,0,1,0-3.87,4.27,4.27,0,0,1,5,0A2.33,2.33,0,0,1,280.56,164.7Z"/><path class="cls-17" d="M286.49,165.5a4.44,4.44,0,0,1-5.18-.15,2.43,2.43,0,0,1-.18-4,4.44,4.44,0,0,1,5.18.15A2.43,2.43,0,0,1,286.49,165.5Z"/><path class="cls-17" d="M291.36,162.84a4.44,4.44,0,0,1-5.18-.15,2.43,2.43,0,0,1-.18-4,4.44,4.44,0,0,1,5.18.15A2.43,2.43,0,0,1,291.36,162.84Z"/><path class="cls-18" d="M290,162.49a3.87,3.87,0,0,1-4.52-1,2.29,2.29,0,0,1,1.13-3.55,3.87,3.87,0,0,1,4.52,1A2.29,2.29,0,0,1,290,162.49Z"/><path class="cls-17" d="M266.28,162.73a2.61,2.61,0,0,1-1.7-3.8,4.09,4.09,0,0,1,4.75-1.6,2.61,2.61,0,0,1,1.7,3.8A4.09,4.09,0,0,1,266.28,162.73Z"/><path class="cls-18" d="M266.21,161.63a2.22,2.22,0,0,1-.42-3.64,4,4,0,0,1,4.67-.47,2.22,2.22,0,0,1,.42,3.64A4,4,0,0,1,266.21,161.63Z"/><path class="cls-18" d="M275.32,164.39a4.27,4.27,0,0,1-5,0,2.33,2.33,0,0,1,0-3.87,4.27,4.27,0,0,1,5,0A2.33,2.33,0,0,1,275.32,164.39Z"/><path class="cls-18" d="M285.35,165.06a4.11,4.11,0,0,1-4.8-1c-1-1.32-.42-3,1.25-3.75a4.11,4.11,0,0,1,4.8,1C287.58,162.63,287,164.31,285.35,165.06Z"/><path class="cls-17" d="M275.72,162.06a3.09,3.09,0,0,1-4.38-.17,3.15,3.15,0,0,1-.15-4.42,3.09,3.09,0,0,1,4.38.17A3.15,3.15,0,0,1,275.72,162.06Z"/><path class="cls-17" d="M280.16,162.39a3.09,3.09,0,0,1-4.38-.17,3.15,3.15,0,0,1-.15-4.42A3.09,3.09,0,0,1,280,158,3.15,3.15,0,0,1,280.16,162.39Z"/><path class="cls-18" d="M280.22,161.27a3,3,0,0,1-4.22,0,3,3,0,0,1,0-4.25,3,3,0,0,1,4.22,0A3,3,0,0,1,280.22,161.27Z"/><path class="cls-17" d="M285.24,162.15a3.09,3.09,0,0,1-4.38-.17,3.15,3.15,0,0,1-.15-4.42,3.09,3.09,0,0,1,4.38.17A3.15,3.15,0,0,1,285.24,162.15Z"/><path class="cls-17" d="M289.36,159.23a3.09,3.09,0,0,1-4.38-.17,3.15,3.15,0,0,1-.15-4.42,3.09,3.09,0,0,1,4.38.17A3.15,3.15,0,0,1,289.36,159.23Z"/><path class="cls-18" d="M288.22,158.84a2.8,2.8,0,0,1-3.82-1.12,2.85,2.85,0,0,1,1-3.9,2.8,2.8,0,0,1,3.82,1.12A2.85,2.85,0,0,1,288.22,158.84Z"/><path class="cls-17" d="M268.14,159.12a3.14,3.14,0,0,1-1.44-4.17,3.1,3.1,0,0,1,4-1.75,3.14,3.14,0,0,1,1.44,4.17A3.1,3.1,0,0,1,268.14,159.12Z"/><path class="cls-18" d="M268.08,157.91a2.86,2.86,0,0,1-.35-4,2.8,2.8,0,0,1,3.95-.52,2.86,2.86,0,0,1,.35,4A2.8,2.8,0,0,1,268.08,157.91Z"/><path class="cls-18" d="M275.78,160.94a3,3,0,0,1-4.22,0,3,3,0,0,1,0-4.25,3,3,0,0,1,4.22,0A3,3,0,0,1,275.78,160.94Z"/><path class="cls-18" d="M284.27,161.67a3,3,0,0,1-4.06-1.14,3,3,0,0,1,1.06-4.12,3,3,0,0,1,4.06,1.14A3,3,0,0,1,284.27,161.67Z"/><ellipse class="cls-18" cx="274.1" cy="154.32" rx="4.48" ry="4.07" transform="translate(119.47 428.24) rotate(-89.93)"/><ellipse class="cls-18" cx="282.68" cy="154.33" rx="4.48" ry="4.07" transform="translate(128.02 436.83) rotate(-89.93)"/><ellipse class="cls-18" cx="278.39" cy="153.15" rx="3.86" ry="4.07" transform="translate(124.92 431.36) rotate(-89.93)"/><rect class="cls-19" x="257.17" y="184.1" width="42.12" height="4.53"/><rect class="cls-16" x="257.17" y="186.16" width="42.12" height="7"/><rect class="cls-15" x="257.17" y="101.77" width="3.31" height="84.39"/><rect class="cls-15" x="295.97" y="101.77" width="3.31" height="84.39"/><rect class="cls-9" x="443.42" y="224.49" width="57.82" height="29.55" rx="0.97" ry="0.97"/><rect class="cls-10" x="459.02" y="229.59" width="2.15" height="11.98" rx="1.07" ry="1.07" transform="translate(324.08 -263.1) rotate(47.63)"/><rect class="cls-10" x="460.3" y="235.37" width="2.15" height="11.98" rx="1.07" ry="1.07" transform="translate(328.77 -262.16) rotate(47.63)"/><rect class="cls-9" x="320.75" y="224.49" width="57.82" height="29.55" rx="0.97" ry="0.97"/><rect class="cls-10" x="336.35" y="229.59" width="2.15" height="11.98" rx="1.07" ry="1.07" transform="translate(284.08 -172.47) rotate(47.63)"/><rect class="cls-10" x="337.64" y="235.37" width="2.15" height="11.98" rx="1.07" ry="1.07" transform="translate(288.77 -171.54) rotate(47.63)"/><rect class="cls-9" x="382.09" y="224.49" width="57.82" height="29.55" rx="0.97" ry="0.97"/><rect class="cls-10" x="397.69" y="229.59" width="2.15" height="11.98" rx="1.07" ry="1.07" transform="translate(304.08 -217.79) rotate(47.63)"/><rect class="cls-10" x="398.97" y="235.37" width="2.15" height="11.98" rx="1.07" ry="1.07" transform="translate(308.77 -216.85) rotate(47.63)"/><rect class="cls-9" x="259.42" y="224.49" width="57.82" height="29.55" rx="0.97" ry="0.97"/><rect class="cls-10" x="275.02" y="229.59" width="2.15" height="11.98" rx="1.07" ry="1.07" transform="translate(264.08 -127.16) rotate(47.63)"/><rect class="cls-10" x="276.3" y="235.37" width="2.15" height="11.98" rx="1.07" ry="1.07" transform="translate(268.77 -126.22) rotate(47.63)"/><rect class="cls-9" x="443.42" y="258.99" width="57.82" height="29.55" rx="0.97" ry="0.97"/><rect class="cls-10" x="459.02" y="264.09" width="2.15" height="11.98" rx="1.07" ry="1.07" transform="matrix(0.67, 0.74, -0.74, 0.67, 349.57, -251.85)"/><rect class="cls-10" x="460.3" y="269.87" width="2.15" height="11.98" rx="1.07" ry="1.07" transform="translate(354.26 -250.91) rotate(47.63)"/><rect class="cls-9" x="320.75" y="258.99" width="57.82" height="29.55" rx="0.97" ry="0.97"/><rect class="cls-10" x="336.35" y="264.09" width="2.15" height="11.98" rx="1.07" ry="1.07" transform="translate(309.57 -161.22) rotate(47.63)"/><rect class="cls-10" x="337.64" y="269.87" width="2.15" height="11.98" rx="1.07" ry="1.07" transform="translate(314.26 -160.29) rotate(47.63)"/><rect class="cls-9" x="382.09" y="258.99" width="57.82" height="29.55" rx="0.97" ry="0.97"/><rect class="cls-10" x="397.69" y="264.09" width="2.15" height="11.98" rx="1.07" ry="1.07" transform="translate(329.57 -206.54) rotate(47.63)"/><rect class="cls-10" x="398.97" y="269.87" width="2.15" height="11.98" rx="1.07" ry="1.07" transform="translate(334.26 -205.6) rotate(47.63)"/><rect class="cls-9" x="259.42" y="258.99" width="57.82" height="29.55" rx="0.97" ry="0.97"/><rect class="cls-10" x="275.02" y="264.09" width="2.15" height="11.98" rx="1.07" ry="1.07" transform="translate(289.57 -115.91) rotate(47.63)"/><rect class="cls-10" x="276.3" y="269.87" width="2.15" height="11.98" rx="1.07" ry="1.07" transform="translate(294.26 -114.97) rotate(47.63)"/><rect class="cls-9" x="443.42" y="293.49" width="57.82" height="29.55" rx="0.97" ry="0.97"/><rect class="cls-10" x="459.02" y="298.59" width="2.15" height="11.98" rx="1.07" ry="1.07" transform="translate(375.06 -240.6) rotate(47.63)"/><rect class="cls-10" x="460.3" y="304.37" width="2.15" height="11.98" rx="1.07" ry="1.07" transform="translate(379.75 -239.66) rotate(47.63)"/><rect class="cls-9" x="320.75" y="293.49" width="57.82" height="29.55" rx="0.97" ry="0.97"/><rect class="cls-10" x="336.35" y="298.59" width="2.15" height="11.98" rx="1.07" ry="1.07" transform="translate(335.06 -149.97) rotate(47.63)"/><rect class="cls-10" x="337.64" y="304.37" width="2.15" height="11.98" rx="1.07" ry="1.07" transform="translate(339.75 -149.04) rotate(47.63)"/><rect class="cls-9" x="382.09" y="293.49" width="57.82" height="29.55" rx="0.97" ry="0.97"/><rect class="cls-10" x="397.69" y="298.59" width="2.15" height="11.98" rx="1.07" ry="1.07" transform="matrix(0.67, 0.74, -0.74, 0.67, 355.06, -195.29)"/><rect class="cls-10" x="398.97" y="304.37" width="2.15" height="11.98" rx="1.07" ry="1.07" transform="translate(359.75 -194.35) rotate(47.63)"/><rect class="cls-9" x="259.42" y="293.49" width="57.82" height="29.55" rx="0.97" ry="0.97"/><rect class="cls-10" x="275.02" y="298.59" width="2.15" height="11.98" rx="1.07" ry="1.07" transform="translate(315.06 -104.66) rotate(47.63)"/><rect class="cls-10" x="276.3" y="304.37" width="2.15" height="11.98" rx="1.07" ry="1.07" transform="translate(319.75 -103.72) rotate(47.63)"/><rect class="cls-20" x="329.47" y="337.6" width="98" height="48.9"/><rect class="cls-21" x="377.97" y="336.5" width="1" height="50"/><rect class="cls-11" x="239.97" y="378.5" width="90" height="8.1"/><rect class="cls-11" x="426.07" y="378.17" width="92.9" height="8.44"/><rect class="cls-11" x="303.95" y="359.25" width="49.38" height="5.33" transform="translate(690.55 33.28) rotate(90)"/><rect class="cls-11" x="402.79" y="359.51" width="49.47" height="4.73" transform="translate(789.39 -65.65) rotate(90)"/><rect class="cls-21" x="346.11" y="345.22" width="1.99" height="11.1" rx="0.99" ry="0.99" transform="translate(372.34 -142.06) rotate(47.63)"/><rect class="cls-21" x="347.3" y="350.58" width="1.99" height="11.1" rx="0.99" ry="0.99" transform="translate(376.68 -141.2) rotate(47.63)"/><rect class="cls-21" x="396.11" y="345.22" width="1.99" height="11.1" rx="0.99" ry="0.99" transform="translate(405.57 880.54) rotate(-132.37)"/><rect class="cls-21" x="397.3" y="350.58" width="1.99" height="11.1" rx="0.99" ry="0.99" transform="translate(392.99 -178.14) rotate(47.63)"/><line class="cls-22" x1="374.47" y1="360.5" x2="374.47" y2="366.5"/><line class="cls-22" x1="382.47" y1="360.5" x2="382.47" y2="366.5"/><rect class="cls-11" x="325.97" y="333.5" width="104" height="6"/><rect class="cls-11" x="239.97" y="207.5" width="279" height="7"/><path class="cls-23" d="M422.39,20a9,9,0,0,0-7.81-4.57h-5l-.61,0a10.46,10.46,0,0,0,.1-1.46V10.63a10.65,10.65,0,0,0-4.2-8.45l-.45-.33a7.16,7.16,0,0,0-.75-.45A10.67,10.67,0,0,0,400.5.2l-.56-.08A10,10,0,0,0,398.45,0H366.7a10.64,10.64,0,0,0-10.63,10.63V14a10.82,10.82,0,0,0,.1,1.45l-.61,0h-5A9,9,0,0,0,342.75,20a14.57,14.57,0,0,0-11.22,14.16v47a14.56,14.56,0,0,0,14.54,14.54h73a14.53,14.53,0,0,0,14.54-14.54v-47A14.57,14.57,0,0,0,422.39,20Zm-1.78,61.17a1.57,1.57,0,0,1,0,.32,1.54,1.54,0,0,1-1.51,1.22h-73a1.54,1.54,0,0,1-1.54-1.54v-47a1.54,1.54,0,0,1,1.54-1.54h73a1.54,1.54,0,0,1,1.54,1.54Z"/><path class="cls-6" d="M422.39,25a9,9,0,0,0-7.81-4.57h-5l-.61,0a10.46,10.46,0,0,0,.1-1.46V15.63a10.65,10.65,0,0,0-4.2-8.45l-.45-.33a7.16,7.16,0,0,0-.75-.45,10.67,10.67,0,0,0-3.18-1.2l-.56-.08A10,10,0,0,0,398.45,5H366.7a10.64,10.64,0,0,0-10.63,10.63V19a10.82,10.82,0,0,0,.1,1.45l-.61,0h-5A9,9,0,0,0,342.75,25a14.57,14.57,0,0,0-11.22,14.16v47a14.56,14.56,0,0,0,14.54,14.54h73a14.53,14.53,0,0,0,14.54-14.54v-47A14.57,14.57,0,0,0,422.39,25Zm-1.78,61.17a1.57,1.57,0,0,1,0,.32,1.54,1.54,0,0,1-1.51,1.22h-73a1.54,1.54,0,0,1-1.54-1.54v-47a1.54,1.54,0,0,1,1.54-1.54h73a1.54,1.54,0,0,1,1.54,1.54Z"/><rect class="cls-24" x="373.21" y="134.86" width="15.3" height="25.3" rx="7.64" ry="7.64"/><rect class="cls-25" x="373.35" y="129.63" width="15" height="13.83" rx="6.91" ry="6.91"/><rect class="cls-24" x="377.47" y="80.21" width="6.77" height="55.9" rx="3.38" ry="3.38" transform="translate(761.71 216.31) rotate(180)"/><ellipse class="cls-24" cx="381.15" cy="81.97" rx="10.89" ry="12.36"/><ellipse class="cls-26" cx="381.15" cy="77.85" rx="10.89" ry="12.36"/><ellipse class="cls-27" cx="381.15" cy="69.03" rx="10.89" ry="12.36"/><ellipse class="cls-28" cx="380.86" cy="67.85" rx="13.24" ry="8.83"/><ellipse class="cls-24" cx="380.86" cy="64.61" rx="13.24" ry="8.83"/><path class="cls-29" d="M358,31.36H348.1v-2a2.46,2.46,0,0,1,2.46-2.46h5A2.46,2.46,0,0,1,358,29.41v2Z"/><path class="cls-30" d="M417,31.36h-9.92v-2a2.46,2.46,0,0,1,2.46-2.46h5A2.46,2.46,0,0,1,417,29.41v2Z"/><rect class="cls-31" x="366.53" y="19.05" width="6.42" height="13.3"/><rect class="cls-32" x="392.19" y="19.05" width="6.42" height="13.3"/><path class="cls-31" d="M419.07,94.22h-73a8,8,0,0,1-8-8v-47a8,8,0,0,1,8-8h73a8,8,0,0,1,8,8v47A8,8,0,0,1,419.07,94.22Z"/><path class="cls-33" d="M427.11,39.17v47a8,8,0,0,1-8,8h-36.5V31.13h36.5A8,8,0,0,1,427.11,39.17Z"/><path class="cls-34" d="M398.45,23.14H366.7A4.14,4.14,0,0,1,362.57,19V15.63a4.14,4.14,0,0,1,4.13-4.13h31.75a4.14,4.14,0,0,1,4.13,4.13V19A4.14,4.14,0,0,1,398.45,23.14Z"/><path class="cls-35" d="M402.58,15.63V19a4.14,4.14,0,0,1-4.13,4.13H382.57V11.5h15.87A4.14,4.14,0,0,1,402.58,15.63Z"/><polygon class="cls-36" points="400.38 56.24 389.01 56.24 389.01 44.87 376.13 44.87 376.13 56.24 364.77 56.24 364.77 69.11 376.13 69.11 376.13 80.48 389.01 80.48 389.01 69.11 400.38 69.11 400.38 56.24"/><polygon class="cls-37" points="400.38 56.24 400.38 69.11 389.01 69.11 389.01 80.48 382.57 80.48 382.57 44.87 389.01 44.87 389.01 56.24 400.38 56.24"/><polygon class="cls-6" points="144.97 212.55 15.95 212.55 20.34 219.82 144.97 219.82 144.97 212.55"/><polygon class="cls-6" points="144.97 291.55 15.95 291.55 20.34 298.82 144.97 298.82 144.97 291.55"/><polygon class="cls-6" points="144.97 370.55 15.95 370.55 20.34 377.82 144.97 377.82 144.97 370.55"/><rect class="cls-24" x="108.34" y="266.73" width="8.79" height="20.42" rx="4.39" ry="4.39" transform="translate(389.68 164.21) rotate(90)"/><rect class="cls-24" x="59.5" y="265.19" width="8.79" height="20.42" rx="4.39" ry="4.39" transform="translate(339.3 211.51) rotate(90)"/><path class="cls-38" d="M46.13,269.45V239.27a5.16,5.16,0,0,1,5.31-5l69.31-2.22a5.16,5.16,0,0,1,5.31,5v32.4a5.16,5.16,0,0,1-5.31,5H51.44A5.16,5.16,0,0,1,46.13,269.45Z"/><rect class="cls-39" x="64.92" y="217.73" width="42.35" height="71.05" rx="9.39" ry="9.39" transform="translate(339.34 167.16) rotate(90)"/><polygon class="cls-40" points="68.89 265.25 68.89 251.68 111.63 261.86 108.11 265.25 68.89 265.25"/><path class="cls-41" d="M67.22,262v-29c0-1.94,3.33-1.11,15.54-6.66l22.76,3.49c2,0,5.69-.76,5.68,1.18l-.12,31.11c0,1.94-.2-1.37-2.23-1.37H81.1C79.06,260.8,66.67,269.69,67.22,262Z"/><path class="cls-42" d="M78.88,259.14,79,230.56c0-2.57,1.72-4.22,3.76-4.21l26,.1a3.7,3.7,0,0,1,3.69,3.69l-.11,28.58a3.7,3.7,0,0,1-3.72,3.66l-26-.1A3.72,3.72,0,0,1,78.88,259.14Z"/><path class="cls-43" d="M51.12,235.6H50s-1.08.14-1.08,2.25v4h2.13S51.18,235.47,51.12,235.6Z"/><path class="cls-43" d="M51.11,270.52H50s-1.12-.14-1.12-2.25v-4h2.21S51.16,270.65,51.11,270.52Z"/><rect class="cls-24" x="108.34" y="186.34" width="8.79" height="20.42" rx="4.39" ry="4.39" transform="translate(309.29 83.82) rotate(90)"/><rect class="cls-24" x="59.5" y="184.81" width="8.79" height="20.42" rx="4.39" ry="4.39" transform="translate(258.91 131.13) rotate(90)"/><path class="cls-24" d="M46.13,189.07V158.88a5.16,5.16,0,0,1,5.31-5l69.31-2.22a5.16,5.16,0,0,1,5.31,5v32.4a5.16,5.16,0,0,1-5.31,5H51.44A5.16,5.16,0,0,1,46.13,189.07Z"/><rect class="cls-44" x="64.92" y="137.34" width="42.35" height="71.05" rx="9.39" ry="9.39" transform="translate(258.96 86.77) rotate(90)"/><polygon class="cls-40" points="68.89 184.87 68.89 171.29 111.63 181.47 108.11 184.87 68.89 184.87"/><polygon class="cls-40" points="70.68 153.64 70.68 167.22 111.7 157.03 108.33 153.64 70.68 153.64"/><path class="cls-41" d="M67.22,181.63v-29c0-1.94,3.33-1.11,15.54-6.66l22.76,3.49c2,0,5.69-.76,5.68,1.18l-.12,31.11c0,1.94-.2-1.37-2.23-1.37H81.1C79.06,180.42,66.67,189.31,67.22,181.63Z"/><path class="cls-24" d="M78.88,178.76,79,150.18c0-2.57,1.72-4.22,3.76-4.21l26,.1a3.7,3.7,0,0,1,3.69,3.69l-.11,28.58a3.7,3.7,0,0,1-3.72,3.66l-26-.1A3.72,3.72,0,0,1,78.88,178.76Z"/><path class="cls-43" d="M51.12,155.22H50s-1.08.14-1.08,2.25v4h2.13S51.18,155.09,51.12,155.22Z"/><path class="cls-43" d="M51.11,190.13H50s-1.12-.14-1.12-2.25v-4h2.21S51.16,190.26,51.11,190.13Z"/><rect class="cls-24" x="108.34" y="346.73" width="8.79" height="20.42" rx="4.39" ry="4.39" transform="translate(469.68 244.21) rotate(90)"/><rect class="cls-24" x="59.5" y="345.19" width="8.79" height="20.42" rx="4.39" ry="4.39" transform="translate(419.3 291.51) rotate(90)"/><path class="cls-45" d="M46.13,349.45V319.27a5.16,5.16,0,0,1,5.31-5l69.31-2.22a5.16,5.16,0,0,1,5.31,5v32.4a5.16,5.16,0,0,1-5.31,5H51.44A5.16,5.16,0,0,1,46.13,349.45Z"/><rect class="cls-46" x="64.92" y="297.73" width="42.35" height="71.05" rx="9.39" ry="9.39" transform="translate(419.34 247.16) rotate(90)"/><polygon class="cls-40" points="68.89 345.25 68.89 331.68 111.63 341.86 108.11 345.25 68.89 345.25"/><path class="cls-41" d="M67.22,342v-29c0-1.94,3.33-1.11,15.54-6.66l22.76,3.49c2,0,5.69-.76,5.68,1.18l-.12,31.11c0,1.94-.2-1.37-2.23-1.37H81.1C79.06,340.8,66.67,349.69,67.22,342Z"/><path class="cls-47" d="M78.88,339.14,79,310.56c0-2.57,1.72-4.22,3.76-4.21l26,.1a3.7,3.7,0,0,1,3.69,3.69l-.11,28.58a3.7,3.7,0,0,1-3.72,3.66l-26-.1A3.72,3.72,0,0,1,78.88,339.14Z"/><path class="cls-43" d="M51.12,315.6H50s-1.08.14-1.08,2.25v4h2.13S51.18,315.47,51.12,315.6Z"/><path class="cls-43" d="M51.11,350.52H50s-1.12-.14-1.12-2.25v-4h2.21S51.16,350.65,51.11,350.52Z"/><rect class="cls-24" x="108.34" y="421.34" width="8.79" height="20.42" rx="4.39" ry="4.39" transform="translate(544.29 318.82) rotate(90)"/><rect class="cls-24" x="59.5" y="419.81" width="8.79" height="20.42" rx="4.39" ry="4.39" transform="translate(493.91 366.13) rotate(90)"/><path class="cls-24" d="M46.13,424.07V393.88a5.16,5.16,0,0,1,5.31-5l69.31-2.22a5.16,5.16,0,0,1,5.31,5v32.4a5.16,5.16,0,0,1-5.31,5H51.44A5.16,5.16,0,0,1,46.13,424.07Z"/><rect class="cls-44" x="64.92" y="372.34" width="42.35" height="71.05" rx="9.39" ry="9.39" transform="translate(493.96 321.77) rotate(90)"/><polygon class="cls-40" points="68.89 419.87 68.89 406.29 111.63 416.47 108.11 419.87 68.89 419.87"/><polygon class="cls-40" points="70.68 388.64 70.68 402.22 111.7 392.04 108.33 388.64 70.68 388.64"/><path class="cls-41" d="M67.22,416.63v-29c0-1.94,3.33-1.11,15.54-6.66l22.76,3.49c2,0,5.69-.76,5.68,1.18l-.12,31.11c0,1.94-.2-1.37-2.23-1.37H81.1C79.06,415.42,66.67,424.31,67.22,416.63Z"/><path class="cls-24" d="M78.88,413.76,79,385.18c0-2.57,1.72-4.22,3.76-4.21l26,.1a3.7,3.7,0,0,1,3.69,3.69l-.11,28.58a3.7,3.7,0,0,1-3.72,3.66l-26-.1A3.72,3.72,0,0,1,78.88,413.76Z"/><path class="cls-43" d="M51.12,390.22H50s-1.08.14-1.08,2.25v4h2.13S51.18,390.09,51.12,390.22Z"/><path class="cls-43" d="M51.11,425.13H50s-1.12-.14-1.12-2.25v-4h2.21S51.16,425.26,51.11,425.13Z"/><rect class="cls-3" x="-16.04" y="128.13" width="53.18" height="21.09" transform="translate(149.22 128.13) rotate(90)"/><rect class="cls-4" x="-16.04" y="180.75" width="53.18" height="21.09" transform="translate(201.84 180.75) rotate(90)"/><rect class="cls-5" x="-16.04" y="233.37" width="53.18" height="21.09" transform="translate(254.46 233.37) rotate(90)"/><rect class="cls-3" x="-16.04" y="285.98" width="53.18" height="21.09" transform="translate(307.08 285.98) rotate(90)"/><rect class="cls-4" x="-16.04" y="338.6" width="53.18" height="21.09" transform="translate(359.69 338.6) rotate(90)"/><rect class="cls-5" x="-16.04" y="391.22" width="53.18" height="21.09" transform="translate(412.31 391.22) rotate(90)"/><rect class="cls-3" x="0.19" y="427.6" width="20.71" height="21.09" transform="translate(448.69 427.6) rotate(90)"/><rect class="cls-5" x="691.56" y="121.91" width="41.74" height="21.09" transform="translate(844.89 -579.97) rotate(90)"/><rect class="cls-3" x="685.84" y="169.37" width="53.18" height="21.09" transform="translate(892.34 -532.51) rotate(90)"/><rect class="cls-4" x="685.84" y="221.99" width="53.18" height="21.09" transform="translate(944.96 -479.9) rotate(90)"/><rect class="cls-5" x="685.84" y="274.6" width="53.18" height="21.09" transform="translate(997.58 -427.28) rotate(90)"/><rect class="cls-3" x="685.84" y="316.37" width="53.18" height="21.09" transform="translate(1039.34 -385.51) rotate(90)"/><rect class="cls-4" x="685.84" y="368.99" width="53.18" height="21.09" transform="translate(1091.96 -332.9) rotate(90)"/><rect class="cls-5" x="690.96" y="416.49" width="42.94" height="21.09" transform="translate(1139.46 -285.4) rotate(90)"/></g></g></svg>