<svg xmlns="http://www.w3.org/2000/svg" viewBox="0 0 108 101.23"><defs><style>.cls-1{fill:#919191;}.cls-2{fill:#606060;}.cls-3{fill:#c7c5cb;}.cls-4{fill:#aeadb3;}.cls-5{fill:#81d1a6;}.cls-6{fill:#fff;}.cls-7{fill:#de4e13;}.cls-8{fill:#cc2800;}.cls-9{fill:#e5e5e5;}.cls-10{fill:#b8b8bc;}.cls-11{fill:#d3d3d3;}.cls-12{fill:#444;}.cls-13{fill:#c5011c;}.cls-14{fill:#a50319;}</style></defs><title>emerg</title><g id="Capa_2" data-name="Capa 2"><g id="Capa_13" data-name="Capa 13"><path class="cls-1" d="M86,94.67h9V1.73A1.73,1.73,0,0,0,93.25,0H87.71A1.73,1.73,0,0,0,86,1.73V94.67Z"/><rect class="cls-2" x="85.98" y="66.16" width="9.01" height="6.4"/><path class="cls-2" d="M87.71,0h5.44a1.73,1.73,0,0,0-1.73,1.73V94.67H86V1.73A1.73,1.73,0,0,1,87.71,0Z"/><path class="cls-3" d="M81.83,94.67H99.13a1.41,1.41,0,0,1,1.41,1.41v3.73a1.41,1.41,0,0,1-1.41,1.41H81.83a1.41,1.41,0,0,1-1.41-1.41V96.08A1.41,1.41,0,0,1,81.83,94.67Z"/><path class="cls-4" d="M86,94.67v6.55H81.83a1.41,1.41,0,0,1-1.41-1.41V96.08a1.41,1.41,0,0,1,1.41-1.41Z"/><path class="cls-5" d="M.73,25.87,10.26,9.08a5.67,5.67,0,0,1,2.56-.78h92.27A2.91,2.91,0,0,1,108,11.22V44a2.91,2.91,0,0,1-2.91,2.91H12.82a4.79,4.79,0,0,1-2.56-.69L.73,29.39A2.5,2.5,0,0,1,.73,25.87Z"/><path class="cls-6" d="M17.89,14.28h3.78a1.88,1.88,0,0,1,1.37.43,1.88,1.88,0,0,1,.43,1.37V17A1.88,1.88,0,0,1,23,18.36a1.88,1.88,0,0,1-1.37.43H19.51v1.8H17.89Zm4,1.8a.48.48,0,0,0-.54-.54h-1.8v2h1.8a.48.48,0,0,0,.54-.54Z"/><path class="cls-6" d="M24.28,14.28h3.78a1.88,1.88,0,0,1,1.37.43,1.88,1.88,0,0,1,.43,1.37v.81a2.27,2.27,0,0,1-.25,1.16,1.21,1.21,0,0,1-.79.55l1.13,2H28.19l-1-1.89H25.9v1.89H24.28Zm4,1.8a.48.48,0,0,0-.54-.54H25.9v1.89h1.8a.48.48,0,0,0,.54-.54Z"/><path class="cls-6" d="M33.73,20.58H30.49V19.32h.81V15.54h-.81V14.28h3.24v1.26h-.81v3.78h.81Z"/><path class="cls-6" d="M39.94,17.07l-1.26,2.25H37.42l-1.26-2.25v3.51H34.54v-6.3h1.71L38,17.61l1.8-3.33h1.71v6.3H39.94Z"/><path class="cls-6" d="M47.63,20.58h-5v-6.3h5v1.26H44.26v1.21h2.66V18H44.26v1.31h3.38Z"/><path class="cls-6" d="M48.35,14.28h3.78a1.88,1.88,0,0,1,1.37.43,1.88,1.88,0,0,1,.43,1.37v.81a2.27,2.27,0,0,1-.25,1.16,1.21,1.21,0,0,1-.79.55l1.13,2H52.27l-1-1.89H50v1.89H48.35Zm4,1.8a.48.48,0,0,0-.54-.54H50v1.89h1.8a.48.48,0,0,0,.54-.54Z"/><path class="cls-6" d="M60.5,18.87a1.88,1.88,0,0,1-.43,1.37,1.88,1.88,0,0,1-1.37.43H56.45a1.88,1.88,0,0,1-1.37-.43,1.88,1.88,0,0,1-.43-1.37V16a1.89,1.89,0,0,1,.43-1.37,1.89,1.89,0,0,1,1.37-.43H58.7a1.88,1.88,0,0,1,1.37.43A1.88,1.88,0,0,1,60.5,16ZM58.88,16a.48.48,0,0,0-.54-.54H56.81a.48.48,0,0,0-.54.54v2.88a.48.48,0,0,0,.54.54h1.53a.48.48,0,0,0,.54-.54Z"/><path class="cls-6" d="M62.75,16.26a.48.48,0,0,0,.54.54h1.62a1.79,1.79,0,0,1,1.3.41,1.72,1.72,0,0,1,.41,1.28v.44a1.72,1.72,0,0,1-.41,1.28,1.79,1.79,0,0,1-1.3.41H62.52a7.33,7.33,0,0,1-1.31-.12V19.34h3.34a.46.46,0,0,0,.33-.11.4.4,0,0,0,.12-.31v-.76H62.93a1.88,1.88,0,0,1-1.37-.43,1.88,1.88,0,0,1-.43-1.37v-.27a1.88,1.88,0,0,1,.43-1.37,1.88,1.88,0,0,1,1.37-.43h3.16v1.26h-2.8a.48.48,0,0,0-.54.54Z"/><path class="cls-6" d="M21.49,30.65H19.73l2.38-6.3h1.8l2.39,6.3H24.55l-.4-1.12H21.89Zm.81-2.29h1.44L23,26.24Z"/><path class="cls-6" d="M30.62,24.35h1.62v4.59a1.55,1.55,0,0,1-1.8,1.8H28.37a1.55,1.55,0,0,1-1.8-1.8V24.35h1.62v4.59a.48.48,0,0,0,.54.54h1.35a.48.48,0,0,0,.54-.54Z"/><path class="cls-6" d="M37,24.35h1.8l-2,3.15,2.07,3.15H37l-1.26-2-1.26,2h-1.8l2.07-3.15-2-3.15h1.79l1.22,2Z"/><path class="cls-6" d="M42.23,30.65H39V29.39h.81V25.61H39V24.35h3.24v1.26h-.81v3.78h.81Z"/><path class="cls-6" d="M44.66,29.39h3.29v1.26H43v-6.3h1.62Z"/><path class="cls-6" d="M51.55,30.65H48.31V29.39h.81V25.61h-.81V24.35h3.24v1.26h-.81v3.78h.81Z"/><path class="cls-6" d="M58,28.94a1.55,1.55,0,0,1-1.8,1.8H54a1.55,1.55,0,0,1-1.8-1.8V26.06a1.54,1.54,0,0,1,1.8-1.8h2.25a1.55,1.55,0,0,1,1.8,1.8Zm-1.62-2.88a.48.48,0,0,0-.54-.54H54.34a.48.48,0,0,0-.54.54v2.88a.48.48,0,0,0,.54.54h1.53a.48.48,0,0,0,.54-.54Z"/><path class="cls-6" d="M60.28,26.33a.48.48,0,0,0,.54.54h1.62a1.79,1.79,0,0,1,1.3.41,1.72,1.72,0,0,1,.41,1.28V29a1.72,1.72,0,0,1-.41,1.28,1.79,1.79,0,0,1-1.3.41H60a7.33,7.33,0,0,1-1.31-.12V29.41h3.34a.46.46,0,0,0,.33-.11.4.4,0,0,0,.12-.31v-.76H60.46a1.55,1.55,0,0,1-1.8-1.8v-.27a1.55,1.55,0,0,1,1.8-1.8h3.16v1.26h-2.8a.48.48,0,0,0-.54.54Z"/><path class="cls-6" d="M22.28,34.42h3.6a1.81,1.81,0,0,1,1.3.4A1.62,1.62,0,0,1,27.59,36a1.51,1.51,0,0,1-.23.88,1.26,1.26,0,0,1-.58.47,1.61,1.61,0,0,1,.4.17,1.18,1.18,0,0,1,.35.32,1.65,1.65,0,0,1,.24.48,2,2,0,0,1,.09.65,1.48,1.48,0,0,1-1.71,1.71H22.28ZM26,36.22a.48.48,0,0,0-.54-.54H23.9v1.26h1.53A.48.48,0,0,0,26,36.4Zm.27,2.52a.48.48,0,0,0-.54-.54H23.9v1.26h1.8a.48.48,0,0,0,.54-.54Z"/><path class="cls-6" d="M29.79,40.72H28l2.38-6.3h1.8l2.39,6.3H32.85l-.4-1.12H30.2Zm.81-2.29H32l-.72-2.12Zm.09-4.28.54-1.53h1.62l-1,1.53Z"/><path class="cls-6" d="M36.41,36.4a.48.48,0,0,0,.54.54h1.62a1.79,1.79,0,0,1,1.3.41,1.72,1.72,0,0,1,.41,1.28v.44a1.72,1.72,0,0,1-.41,1.28,1.79,1.79,0,0,1-1.3.41H36.17a7.33,7.33,0,0,1-1.31-.12V39.48h3.34a.46.46,0,0,0,.33-.11.4.4,0,0,0,.12-.31v-.76H36.59a1.55,1.55,0,0,1-1.8-1.8v-.27a1.55,1.55,0,0,1,1.8-1.8h3.16v1.26h-2.8a.48.48,0,0,0-.54.54Z"/><path class="cls-6" d="M44.06,40.72H40.82V39.46h.81V35.68h-.81V34.42h3.24v1.26h-.81v3.78h.81Z"/><path class="cls-6" d="M46.4,40.75a1.78,1.78,0,0,1-1.3-.41,1.74,1.74,0,0,1-.41-1.28V36.2a1.85,1.85,0,0,1,.43-1.36,1.89,1.89,0,0,1,1.37-.42h3.24v1.26H46.85a.48.48,0,0,0-.54.54v2.87a.44.44,0,0,0,.12.33.45.45,0,0,0,.33.12h1.35a1.54,1.54,0,0,0,.48-.08h1.13v1.18a6.43,6.43,0,0,1-1.2.12H46.4Z"/><path class="cls-6" d="M56.12,39a1.55,1.55,0,0,1-1.8,1.8H52.07a1.55,1.55,0,0,1-1.8-1.8V36.13a1.54,1.54,0,0,1,1.8-1.8h2.25a1.55,1.55,0,0,1,1.8,1.8ZM54.5,36.13a.48.48,0,0,0-.54-.54H52.43a.48.48,0,0,0-.54.54V39a.48.48,0,0,0,.54.54H54A.48.48,0,0,0,54.5,39Z"/><path class="cls-6" d="M58.37,36.4a.48.48,0,0,0,.54.54h1.62a1.79,1.79,0,0,1,1.3.41,1.72,1.72,0,0,1,.41,1.28v.44a1.72,1.72,0,0,1-.41,1.28,1.79,1.79,0,0,1-1.3.41H58.13a7.33,7.33,0,0,1-1.31-.12V39.48h3.34a.46.46,0,0,0,.33-.11.4.4,0,0,0,.12-.31v-.76H58.55a1.55,1.55,0,0,1-1.8-1.8v-.27a1.55,1.55,0,0,1,1.8-1.8H61.7v1.26h-2.8a.48.48,0,0,0-.54.54Z"/><path class="cls-6" d="M99.19,20.19A2.53,2.53,0,0,0,97,18.9H95.4a3,3,0,0,0,0-.41v-1a3,3,0,0,0-1.18-2.38l-.13-.09-.21-.13a3,3,0,0,0-.9-.34l-.16,0a2.81,2.81,0,0,0-.42,0h-9a3,3,0,0,0-3,3v1a3.05,3.05,0,0,0,0,.41H78.93a2.53,2.53,0,0,0-2.2,1.29,4.11,4.11,0,0,0-3.16,4V37.45a4.11,4.11,0,0,0,4.1,4.1H98.25a4.1,4.1,0,0,0,4.1-4.1V24.19A4.11,4.11,0,0,0,99.19,20.19Zm-.5,17.25a.44.44,0,0,1,0,.09.44.44,0,0,1-.43.35H77.66a.44.44,0,0,1-.43-.43V24.19a.44.44,0,0,1,.43-.44H98.25a.44.44,0,0,1,.43.44Z"/><path class="cls-7" d="M81,22h-2.8v-.55a.69.69,0,0,1,.69-.69h1.41a.69.69,0,0,1,.69.69V22Z"/><path class="cls-8" d="M97.68,22h-2.8v-.55a.69.69,0,0,1,.69-.69H97a.69.69,0,0,1,.69.69V22Z"/><rect class="cls-9" x="83.43" y="18.51" width="1.81" height="3.75"/><rect class="cls-10" x="90.67" y="18.51" width="1.81" height="3.75"/><path class="cls-9" d="M98.25,39.71H77.66a2.27,2.27,0,0,1-2.27-2.27V24.19a2.27,2.27,0,0,1,2.27-2.27H98.25a2.27,2.27,0,0,1,2.27,2.27V37.45A2.27,2.27,0,0,1,98.25,39.71Z"/><path class="cls-11" d="M100.52,24.19V37.45a2.27,2.27,0,0,1-2.27,2.27H88V21.92h10.3A2.27,2.27,0,0,1,100.52,24.19Z"/><path class="cls-2" d="M92.43,19.67h-9a1.17,1.17,0,0,1-1.16-1.16v-1a1.17,1.17,0,0,1,1.16-1.16h9a1.17,1.17,0,0,1,1.16,1.16v1A1.17,1.17,0,0,1,92.43,19.67Z"/><path class="cls-12" d="M93.6,17.55v1a1.17,1.17,0,0,1-1.17,1.17H88V16.38h4.48A1.17,1.17,0,0,1,93.6,17.55Z"/><polygon class="cls-13" points="92.98 29 89.77 29 89.77 25.79 86.14 25.79 86.14 29 82.94 29 82.94 32.63 86.14 32.63 86.14 35.84 89.77 35.84 89.77 32.63 92.98 32.63 92.98 29"/><polygon class="cls-14" points="92.98 29 92.98 32.63 89.77 32.63 89.77 35.84 87.96 35.84 87.96 25.79 89.77 25.79 89.77 29 92.98 29"/></g></g></svg>