<svg xmlns="http://www.w3.org/2000/svg" xmlns:xlink="http://www.w3.org/1999/xlink" viewBox="0 0 108 101.23"><defs><style>.cls-1,.cls-21,.cls-34,.cls-35,.cls-36,.cls-37,.cls-39,.cls-40,.cls-47{fill:none;}.cls-2{fill:#919191;}.cls-3{fill:#606060;}.cls-4{fill:#c7c5cb;}.cls-5{fill:#aeadb3;}.cls-6{fill:#ed0531;}.cls-24,.cls-7{fill:#fff;}.cls-8{fill:#2d2d2d;}.cls-9{fill:#070707;}.cls-10{fill:#bfbfbf;}.cls-11{fill:#f5ca61;}.cls-12{fill:#e3b44e;}.cls-13{fill:#ca9c41;}.cls-14{fill:#161616;}.cls-15{fill:url(#Degradado_sin_nombre_16);}.cls-16{fill:#1b4d9e;}.cls-17{fill:#8f8f8f;}.cls-18{fill:url(#linear-gradient);}.cls-19{fill:#dbdbdb;}.cls-20{fill:#bababa;}.cls-21{stroke:#de0e4a;stroke-linecap:round;stroke-linejoin:round;stroke-width:0.24px;stroke-dasharray:0.05 0.24 0.05 0.24 0.05 0.24;}.cls-22{fill:#de0e4a;}.cls-23{fill:#1c1c1b;}.cls-24,.cls-48{opacity:0.5;}.cls-25{fill:#cc0b31;}.cls-26{fill:#30910e;}.cls-27{fill:#fdc85f;}.cls-28{fill:#cf3a66;}.cls-29{fill:#e06481;}.cls-30{fill:#f7d7e0;}.cls-31{fill:#fde4ee;}.cls-31,.cls-44,.cls-49,.cls-50{opacity:0.35;}.cls-32{fill:#707070;}.cls-33{fill:#141414;}.cls-34,.cls-35,.cls-36,.cls-37,.cls-39,.cls-40,.cls-47{stroke-miterlimit:10;}.cls-34,.cls-35,.cls-36,.cls-37{stroke-width:0.05px;}.cls-34{stroke:url(#linear-gradient-2);}.cls-35{stroke:url(#linear-gradient-3);}.cls-36{stroke:url(#linear-gradient-4);}.cls-37{stroke:url(#linear-gradient-5);}.cls-38{fill:#005ca9;}.cls-39{stroke:#1b4d9e;stroke-width:0.14px;}.cls-40{stroke:#a8a8a8;stroke-width:0.09px;}.cls-41{fill:#e7772b;}.cls-42{fill:#fda266;}.cls-43{fill:#e6cf2d;}.cls-44{fill:#d4d4d4;}.cls-45,.cls-50{fill:#a8a8a8;}.cls-46{fill:#c40a18;}.cls-47{stroke:#1b1718;stroke-width:0.02px;}.cls-51{fill:#e8e8e8;}.cls-52{fill:#cfcfcf;}.cls-53{clip-path:url(#clip-path);}</style><linearGradient id="Degradado_sin_nombre_16" x1="83.56" y1="31.51" x2="92.78" y2="31.51" gradientUnits="userSpaceOnUse"><stop offset="0" stop-color="#8d0404"/><stop offset="0.03" stop-color="#900808"/><stop offset="0.05" stop-color="#981313"/><stop offset="0.07" stop-color="#a01f1e"/><stop offset="0.11" stop-color="#9d1a19"/><stop offset="0.16" stop-color="#930c0c"/><stop offset="0.18" stop-color="#8d0404"/><stop offset="0.58" stop-color="#910605"/><stop offset="0.8" stop-color="#a61619"/><stop offset="0.88" stop-color="#ae1c21"/><stop offset="0.89" stop-color="#a8181b"/><stop offset="0.91" stop-color="#9d0f10"/><stop offset="0.93" stop-color="#960a09"/><stop offset="1" stop-color="#940907"/></linearGradient><linearGradient id="linear-gradient" x1="88.18" y1="21.34" x2="88.11" y2="23.84" gradientUnits="userSpaceOnUse"><stop offset="0.05" stop-color="#db332a"/><stop offset="0.12" stop-color="#d52f27" stop-opacity="0.93"/><stop offset="0.26" stop-color="#c5261f" stop-opacity="0.75"/><stop offset="0.46" stop-color="#ac1713" stop-opacity="0.46"/><stop offset="0.68" stop-color="#8d0404" stop-opacity="0.1"/></linearGradient><linearGradient id="linear-gradient-2" x1="83.55" y1="41.73" x2="89.26" y2="41.73" xlink:href="#linear-gradient"/><linearGradient id="linear-gradient-3" x1="-273.8" y1="41.73" x2="-268.08" y2="41.73" gradientTransform="matrix(-1, 0, 0, 1, -181, 0)" xlink:href="#linear-gradient"/><linearGradient id="linear-gradient-4" x1="83.55" y1="24.18" x2="89.26" y2="24.18" xlink:href="#linear-gradient"/><linearGradient id="linear-gradient-5" x1="-273.79" y1="24.18" x2="-268.08" y2="24.18" gradientTransform="matrix(-1, 0, 0, 1, -181, 0)" xlink:href="#linear-gradient"/><clipPath id="clip-path"><polygon class="cls-1" points="91.24 28.4 89.17 28.49 89.17 26.85 91.24 26.85 91.24 28.4"/></clipPath></defs><title>extintor</title><g id="Capa_2" data-name="Capa 2"><g id="Capa_13" data-name="Capa 13"><path class="cls-2" d="M86,94.67h9V1.73A1.73,1.73,0,0,0,93.25,0H87.71A1.73,1.73,0,0,0,86,1.73V94.67Z"/><rect class="cls-3" x="85.98" y="66.16" width="9.01" height="6.4"/><path class="cls-3" d="M87.71,0h5.44a1.73,1.73,0,0,0-1.73,1.73V94.67H86V1.73A1.73,1.73,0,0,1,87.71,0Z"/><path class="cls-4" d="M81.83,94.67H99.13a1.41,1.41,0,0,1,1.41,1.41v3.73a1.41,1.41,0,0,1-1.41,1.41H81.83a1.41,1.41,0,0,1-1.41-1.41V96.08A1.41,1.41,0,0,1,81.83,94.67Z"/><path class="cls-5" d="M86,94.67v6.55H81.83a1.41,1.41,0,0,1-1.41-1.41V96.08a1.41,1.41,0,0,1,1.41-1.41Z"/><path class="cls-6" d="M.73,25.87,10.26,9.08a5.67,5.67,0,0,1,2.56-.78h92.27A2.91,2.91,0,0,1,108,11.22V44a2.91,2.91,0,0,1-2.91,2.91H12.82a4.79,4.79,0,0,1-2.56-.69L.73,29.39A2.5,2.5,0,0,1,.73,25.87Z"/><path class="cls-7" d="M37,14.28h1.62v4.59a1.88,1.88,0,0,1-.43,1.37,1.88,1.88,0,0,1-1.37.43H34.79a1.88,1.88,0,0,1-1.37-.43A1.88,1.88,0,0,1,33,18.87V14.28h1.62v4.59a.48.48,0,0,0,.54.54H36.5a.48.48,0,0,0,.54-.54Z"/><path class="cls-7" d="M41.09,16.26a.48.48,0,0,0,.54.54h1.62a1.79,1.79,0,0,1,1.3.41A1.72,1.72,0,0,1,45,18.49v.44a1.72,1.72,0,0,1-.41,1.28,1.79,1.79,0,0,1-1.3.41H40.85a7.33,7.33,0,0,1-1.31-.12V19.34h3.34a.46.46,0,0,0,.33-.11.4.4,0,0,0,.12-.31v-.76H41.27a1.88,1.88,0,0,1-1.37-.43,1.88,1.88,0,0,1-.43-1.37v-.27a1.88,1.88,0,0,1,.43-1.37,1.88,1.88,0,0,1,1.37-.43h3.16v1.26h-2.8a.48.48,0,0,0-.54.54Z"/><path class="cls-7" d="M51.44,18.87A1.88,1.88,0,0,1,51,20.25a1.88,1.88,0,0,1-1.37.43H47.39A1.88,1.88,0,0,1,46,20.25a1.88,1.88,0,0,1-.43-1.37V16A1.89,1.89,0,0,1,46,14.62a1.89,1.89,0,0,1,1.37-.43h2.25a1.88,1.88,0,0,1,1.37.43A1.88,1.88,0,0,1,51.44,16ZM49.82,16a.48.48,0,0,0-.54-.54H47.75a.48.48,0,0,0-.54.54v2.88a.48.48,0,0,0,.54.54h1.53a.48.48,0,0,0,.54-.54Z"/><path class="cls-7" d="M40.07,24.35a1.85,1.85,0,0,1,2.07,2.07v2.16a1.85,1.85,0,0,1-2.07,2.07H36.56v-6.3Zm.45,2.07a.72.72,0,0,0-.81-.81H38.18v3.78h1.53a.72.72,0,0,0,.81-.81Z"/><path class="cls-7" d="M48,30.65H43v-6.3h5v1.26H44.66v1.21h2.66v1.26H44.66v1.31H48Z"/><path class="cls-7" d="M18.68,40.72h-5v-6.3h5v1.26H15.3V36.9H18v1.26H15.3v1.31h3.38Z"/><path class="cls-7" d="M23,34.42h1.8l-2,3.15,2.07,3.15h-1.8l-1.26-2-1.26,2h-1.8l2.07-3.15-2-3.15H20.6l1.22,2Z"/><path class="cls-7" d="M28.4,40.72H26.78v-5H24.89V34.42h5.4v1.26H28.4Z"/><path class="cls-7" d="M33.89,40.72H30.65V39.46h.81V35.68h-.81V34.42h3.24v1.26h-.81v3.78h.81Z"/><path class="cls-7" d="M40.19,40.72H38.48l-2.16-3.78v3.78H34.7v-6.3h1.71l2.16,3.78V34.42h1.62Z"/><path class="cls-7" d="M44.33,40.72H42.71v-5H40.82V34.42h5.4v1.26H44.33Z"/><path class="cls-7" d="M52.52,39a1.55,1.55,0,0,1-1.8,1.8H48.47a1.55,1.55,0,0,1-1.8-1.8V36.13a1.54,1.54,0,0,1,1.8-1.8h2.25a1.55,1.55,0,0,1,1.8,1.8ZM50.9,36.13a.48.48,0,0,0-.54-.54H48.83a.48.48,0,0,0-.54.54V39a.48.48,0,0,0,.54.54h1.53A.48.48,0,0,0,50.9,39Z"/><path class="cls-7" d="M53.42,34.42H57.2a1.55,1.55,0,0,1,1.8,1.8V37a2.27,2.27,0,0,1-.25,1.16,1.21,1.21,0,0,1-.79.55l1.13,2H57.33l-1-1.89H55v1.89H53.42Zm4,1.8a.48.48,0,0,0-.54-.54H55v1.89h1.8a.48.48,0,0,0,.54-.54Z"/><path class="cls-7" d="M64.89,40.72h-5v-6.3h5v1.26H61.52V36.9h2.66v1.26H61.52v1.31h3.38Z"/><path class="cls-7" d="M67,36.4a.48.48,0,0,0,.54.54h1.62a1.79,1.79,0,0,1,1.3.41,1.72,1.72,0,0,1,.41,1.28v.44a1.72,1.72,0,0,1-.41,1.28,1.79,1.79,0,0,1-1.3.41H66.73a7.33,7.33,0,0,1-1.31-.12V39.48h3.34a.46.46,0,0,0,.33-.11.4.4,0,0,0,.12-.31v-.76H67.14a1.55,1.55,0,0,1-1.8-1.8v-.27a1.55,1.55,0,0,1,1.8-1.8H70.3v1.26H67.5a.48.48,0,0,0-.54.54Z"/><path class="cls-7" d="M90.81,17.64c.86-.17,7.54-.08,7.54-.08s-.07-.45-1.37-.65c-1.12-.17-5-.16-6-.15l.46-.26h.06a.16.16,0,1,0-.18-.16l-.66.37-.31-.22a.7.7,0,0,0,.26-1.13l.11-.29c2.4-1.44,5.41-3.35,5.78-3.49.93-.35.76-.81.76-.81a5,5,0,0,0-2,.65l-6.09,3.44-.06-.06.55-.34H89.5l-.19.11L88.73,14l-.22.13-.3-.3.15.39h0l.22.8-.15.09-.09.19.36-.22,0,.06-2.54,1.44v.09s0,.75.14.71v-.48l.17.38-.13.19H86v.05h0v-.05h-.28v.11a6.08,6.08,0,0,0-1.94.3A3.83,3.83,0,0,0,81,21c-.26,1.42.06,4.06.42,7.12.3,2.49.62,5.2.71,7.75,0,0-.22.15-.22.23v.8h.25c0,.3,0,.6,0,.9h0V38c0,.09,0,.18,0,.27l0,.47-.5,1.72h0l-.16.54,1.46.19v-.26c0-.41,0-2.25,0-2.25v-.31a2.62,2.62,0,0,0,0-.6c0-.32,0-.63,0-1h.64v5.12a.58.58,0,0,0,0,.08.35.35,0,0,0,0,.06c0,.69,2.07,1.25,4.61,1.25s4.61-.56,4.61-1.25a.35.35,0,0,0,0-.06.58.58,0,0,0,0-.08V37h0V36.1h0V23a.58.58,0,0,0,0-.08.35.35,0,0,0,0-.06c0-.54-1.25-1.22-3-1.5V20.07a2.16,2.16,0,0,0,.47-2.1C90.56,17.93,90.81,17.84,90.81,17.64Zm-.15-1.79a.57.57,0,0,1-.44.55l.33-.89A.56.56,0,0,1,90.66,15.85ZM81.75,21.1a3.07,3.07,0,0,1,2.17-2.49,5.34,5.34,0,0,1,1.72-.27v.08h.28v-.05h0v.05H86c0,.06,0,.12,0,.19a2.16,2.16,0,0,0,.56,1.46v1.28c-1.76.28-3,1-3,1.5a.35.35,0,0,0,0,.06.58.58,0,0,0,0,.08V35.84H82.9c-.09-2.58-.42-5.31-.72-7.84C81.82,25,81.51,22.41,81.75,21.1Zm.41,15v0h0Z"/><path class="cls-7" d="M88.17,44.55c-1.68,0-5.47-.22-5.81-2.18l-1.06-.14a1.23,1.23,0,0,1-1-1.57l.16-.54.46-1.59,0-.53v-.23a1.24,1.24,0,0,1,0-.15h0a1.22,1.22,0,0,1-.24-.73v-.8a1.3,1.3,0,0,1,.2-.7c-.11-2.37-.41-4.89-.68-7.13-.39-3.29-.71-5.89-.41-7.49a5.06,5.06,0,0,1,3.51-4,7.14,7.14,0,0,1,1.64-.34,1.23,1.23,0,0,1,.61-.88l1.62-.92v-.07l-.1-.27a1.23,1.23,0,0,1,1.78-1.49,1.23,1.23,0,0,1,.76.36l.06.06,5-2.84a5.5,5.5,0,0,1,2.69-.81,1.23,1.23,0,0,1,1,.79,1.6,1.6,0,0,1-.06,1.22A2.34,2.34,0,0,1,97,12.73c-.3.15-1.69,1-2.93,1.76l-1.52.93.09.12c1.64,0,3.72,0,4.55.16,1.92.28,2.33,1.18,2.4,1.68a1.23,1.23,0,0,1-.29,1,1.26,1.26,0,0,1-.94.42c-2.62,0-5.53,0-6.76,0a3.38,3.38,0,0,1-.49,1.56c1.56.43,2.93,1.24,2.93,2.47,0,0,0,0,0,.07s0,0,0,.07V35.93a1.24,1.24,0,0,1,0,.17V37a1.24,1.24,0,0,1,0,.17v4.76s0,0,0,.07,0,0,0,.07C94,44.31,89.92,44.55,88.17,44.55Zm-3.38-2.92a12.54,12.54,0,0,0,6.77,0V37a1.24,1.24,0,0,1,0-.17v-.57a1.2,1.2,0,0,1,0-.17V23.19a5.62,5.62,0,0,0-2-.63,1.23,1.23,0,0,1-1-1.21V20.07a1.23,1.23,0,0,1,.32-.83.92.92,0,0,0,.25-.63.94.94,0,0,0,0-.28,1.23,1.23,0,0,1,.14-1l.06-.09a1.23,1.23,0,0,1-.3-.81l-1.31.74a1.23,1.23,0,0,1-.25.9l-.06.08a1.22,1.22,0,0,1-.13.18,1.23,1.23,0,0,1,0,.22s0,.05,0,.08a.93.93,0,0,0,.25.63,1.23,1.23,0,0,1,.32.83v1.28a1.23,1.23,0,0,1-1,1.21,5.64,5.64,0,0,0-2,.63V35.84a1.22,1.22,0,0,1-.1.49,1.23,1.23,0,0,1,.1.49ZM83,21.32q0,.1,0,.22a5.47,5.47,0,0,1,2.35-1.18,3.39,3.39,0,0,1-.33-.74,3.69,3.69,0,0,0-.63.15A1.85,1.85,0,0,0,83,21.32Zm6.62-3.66h0Zm7.35-4.93h0Z"/><polygon class="cls-8" points="81.45 41.01 82.91 41.2 82.91 38.66 82.16 38.66 81.45 41.01"/><rect class="cls-9" x="82.58" y="35.84" width="0.99" height="0.85"/><path class="cls-8" d="M82.91,39.6l-.85,0a57.58,57.58,0,0,0-.63-11.47C81.07,25,80.75,22.39,81,21A3.83,3.83,0,0,1,83.7,17.9a6,6,0,0,1,2.13-.3l-.06.75a5.29,5.29,0,0,0-1.86.26,3.07,3.07,0,0,0-2.17,2.49c-.24,1.31.07,3.9.43,6.9a66.07,66.07,0,0,1,.71,10.52C82.87,38.89,82.94,39.25,82.91,39.6Z"/><rect class="cls-10" x="85.92" y="17.53" width="0.09" height="0.84"/><rect class="cls-11" x="85.97" y="17.48" width="0.28" height="0.41"/><rect class="cls-12" x="85.97" y="17.9" width="0.28" height="0.41"/><rect class="cls-13" x="85.97" y="18.31" width="0.28" height="0.11"/><rect class="cls-14" x="86.16" y="17.48" width="0.8" height="0.94"/><path class="cls-15" d="M92.78,22.84c0-.54-1.25-1.22-3-1.5V19.69h-3.2v1.65c-1.76.28-3,1-3,1.5a.35.35,0,0,0,0,.06.58.58,0,0,0,0,.08v19a.58.58,0,0,0,0,.08.35.35,0,0,0,0,.06c0,.69,2.07,1.25,4.61,1.25s4.61-.56,4.61-1.25a.35.35,0,0,0,0-.06.58.58,0,0,0,0-.08V23a.58.58,0,0,0,0-.08A.35.35,0,0,0,92.78,22.84Z"/><path class="cls-7" d="M88.18,25.06c-2.1,0-3.72-.12-3.72-.1v9.36a19.6,19.6,0,0,0,3.81.34,19.24,19.24,0,0,0,3.79-.34V25S90.28,25.06,88.18,25.06Z"/><path class="cls-16" d="M88.17,25.39c-2,0-3.52-.12-3.52-.1v1.22a34.46,34.46,0,0,0,3.61.15,27.21,27.21,0,0,0,3.59-.2V25.29S90.16,25.39,88.17,25.39Z"/><path class="cls-16" d="M88.17,34.28a15.74,15.74,0,0,1-3.52-.43v.28a20,20,0,0,0,3.61.29,19.65,19.65,0,0,0,3.59-.29v-.28A18.29,18.29,0,0,1,88.17,34.28Z"/><path class="cls-17" d="M90.09,16.55a.7.7,0,1,1,.7-.7A.7.7,0,0,1,90.09,16.55Zm0-1.27a.57.57,0,1,0,.57.57A.57.57,0,0,0,90.09,15.28Z"/><path class="cls-8" d="M97,16.92c-1.3-.19-6.26-.15-6.26-.15l-.5-.36.5-1.33c2.39-1.44,5.41-3.35,5.78-3.49.93-.35.76-.81.76-.81a5,5,0,0,0-2,.65l-9.12,5.16.71,1.6,2.19-.25s1.76.22,1.76-.29c.86-.17,7.54-.08,7.54-.08S98.28,17.11,97,16.92Z"/><circle class="cls-17" cx="86.89" cy="16.9" r="0.3"/><path class="cls-8" d="M91.64,16.34a.16.16,0,0,0-.32,0l-1.07.6.09.17,1.09-.61h.06A.16.16,0,0,0,91.64,16.34Z"/><circle class="cls-17" cx="89.79" cy="16.22" r="0.13"/><path class="cls-16" d="M88.39,25.91a16.32,16.32,0,0,1,3.32.47v7.54a13.11,13.11,0,0,1-3.25.32,18.78,18.78,0,0,1-3.67-.33V26.38a22.08,22.08,0,0,1,3.39-.47h.2m0-.14h-.21a22.68,22.68,0,0,0-3.53.5V34a24.06,24.06,0,0,0,3.86.36A14.9,14.9,0,0,0,91.85,34V26.26a16.81,16.81,0,0,0-3.47-.5Z"/><path class="cls-18" d="M92.46,22.67a7.1,7.1,0,0,1-4.32,1.12,7.1,7.1,0,0,1-4.32-1.12,7.7,7.7,0,0,1,8.64,0Z"/><path class="cls-8" d="M86.16,16.68s0,.75.14.71v-.8h-.14Z"/><rect class="cls-19" x="85.64" y="17.48" width="0.28" height="0.41"/><rect class="cls-20" x="85.64" y="17.9" width="0.28" height="0.41"/><rect class="cls-2" x="85.64" y="18.31" width="0.28" height="0.11"/><path class="cls-21" d="M89.54,17.39s.85-.77.41-1.53a13.35,13.35,0,0,0-1.74-2"/><polygon class="cls-22" points="88.59 15.13 89.36 14.63 88.73 14 88.34 14.23 88.59 15.13"/><path class="cls-23" d="M81.61,40.47s.21-.54.45-.54c-.14-.09-.14-.14,0-.56s.14-.47.19-.52a.57.57,0,0,1,.38,0c.28,0,.42.89,0,1.13a1.93,1.93,0,0,1,.28,1c0-.41,0-2.25,0-2.25V38.1l-.75.09,0,.56Z"/><polygon class="cls-22" points="88.42 15.13 89.5 14.47 89.69 14.47 88.32 15.32 88.42 15.13"/><circle class="cls-24" cx="88.18" cy="18.61" r="2.17"/><circle class="cls-25" cx="88.19" cy="18.6" r="2.06"/><path class="cls-26" d="M87.86,18.58l.62.34s.85-1.07,1.3-1.62a2.06,2.06,0,0,0-1.14-.7Z"/><polygon class="cls-27" points="88.24 18.21 88.96 17.45 88.52 18.4 88.24 18.21"/><circle class="cls-28" cx="88.18" cy="18.61" r="0.55"/><circle class="cls-29" cx="88.19" cy="18.6" r="0.5"/><circle class="cls-30" cx="88.19" cy="18.6" r="0.28"/><circle class="cls-31" cx="88.19" cy="18.6" r="2.11"/><path class="cls-32" d="M82.16,37.77a1.26,1.26,0,0,0,.75,0,2.52,2.52,0,0,1,0,.61s-.47.24-.75,0Z"/><path class="cls-33" d="M82.39,36.17v.71h-.47v-.8c0-.09.24-.24.24-.24v.33Z"/><polygon class="cls-33" points="82.58 36.17 82.91 36.02 83.56 35.97 83.56 36.81 82.58 36.83 82.58 36.17"/><path class="cls-33" d="M83.56,36a17.45,17.45,0,0,0,4.48.42,30.7,30.7,0,0,0,4.75-.29V37a27.46,27.46,0,0,1-9.24-.19Z"/><ellipse class="cls-7" cx="88.18" cy="22.12" rx="1.22" ry="0.45"/><path class="cls-34" d="M83.57,41.2s1.32,1.32,5.69,1"/><path class="cls-35" d="M92.78,41.2s-1.32,1.32-5.69,1"/><path class="cls-36" d="M83.57,23.88s1.32.85,5.69.52"/><path class="cls-37" d="M92.78,23.88s-1.32.85-5.69.52"/><rect class="cls-38" x="85.34" y="32.05" width="1.62" height="1.62" rx="0.25" ry="0.25"/><path class="cls-7" d="M86.65,33.61h-1a.24.24,0,0,1-.24-.24v-1a.24.24,0,0,1,.24-.24h1a.24.24,0,0,1,.24.24v1A.24.24,0,0,1,86.65,33.61Zm-1-1.44a.2.2,0,0,0-.2.2v1a.2.2,0,0,0,.2.2h1a.2.2,0,0,0,.2-.2v-1a.2.2,0,0,0-.2-.2Z"/><path class="cls-7" d="M86.49,32.36a.32.32,0,0,0,0,.19c0,.08,0,.12,0,.18s-.09.11-.08.17,0-.06,0-.12a.17.17,0,0,0-.06-.17c0,.06,0,.14,0,.19a.33.33,0,0,0-.06.37s.15.12.19.1a.54.54,0,0,1,.18,0s0-.06,0-.06,0,0,0,.07a.18.18,0,0,0,0-.19c0-.07,0-.11,0-.17a.27.27,0,0,0,0-.17.13.13,0,0,1,0,.1.23.23,0,0,0-.07.11.38.38,0,0,1,0-.15.25.25,0,0,0,0-.25C86.55,32.48,86.5,32.45,86.49,32.36Z"/><path class="cls-7" d="M86.73,33.08a.11.11,0,0,1,0-.1.13.13,0,0,0,0-.11.11.11,0,0,1,0,.11A.27.27,0,0,0,86.73,33.08Z"/><path class="cls-7" d="M86,32.45a.14.14,0,0,1,0-.12c0-.06.07-.08.06-.14s0,.06,0,.1,0,0,0,0,0,0,0-.06,0,0,0,.1,0,.08,0,.08,0,0,0-.06.06-.08.06-.08a.12.12,0,0,0,0,.09s0,.07,0,.1a.09.09,0,0,1-.06.07Z"/><path class="cls-7" d="M85.69,32.48s0,0,0-.06,0-.08,0-.11-.08.07-.08.12,0,0,0-.05a.07.07,0,0,0,0,.11c0,.08.05,0,.05,0Z"/><polygon class="cls-7" points="85.75 32.45 85.94 32.45 86.14 32.61 86.14 32.65 85.55 32.65 85.55 32.61 85.75 32.45"/><path class="cls-7" d="M85.55,32.67h.6l-.08.81s0,0,0,0h-.31s0,0,0,0S85.55,32.67,85.55,32.67Z"/><path class="cls-7" d="M86.31,33.17l-.16,0a.08.08,0,0,0,0,.08.06.06,0,0,0,0,0,.08.08,0,0,0,0,.09c0,.06.11,0,.11,0l.16-.08.19.1s.14,0,.16-.14c0,0-.09.1-.17.06s.08-.08,0-.16S86.31,33.17,86.31,33.17Z"/><path d="M86.29,31.87h-.08v-.09h-.1v.09H86l.08-.49h.11Zm-.18-.16h.07l0-.25Z"/><rect class="cls-38" x="87.51" y="32.1" width="1.62" height="1.62" rx="0.25" ry="0.25"/><path class="cls-7" d="M88.82,33.65h-1a.24.24,0,0,1-.24-.24v-1a.24.24,0,0,1,.24-.24h1a.24.24,0,0,1,.24.24v1A.24.24,0,0,1,88.82,33.65Zm-1-1.44a.2.2,0,0,0-.2.2v1a.2.2,0,0,0,.2.2h1a.2.2,0,0,0,.2-.2v-1a.2.2,0,0,0-.2-.2Z"/><path class="cls-7" d="M88.38,32.5a.15.15,0,0,1,0-.08.07.07,0,0,0,0-.07.11.11,0,0,1,0,.06A.07.07,0,0,0,88.38,32.5Z"/><path class="cls-7" d="M88.42,32.36a.24.24,0,0,1,0,.12s-.07.08,0,.18a.13.13,0,0,1,0-.06,0,0,0,0,0,0,0,.09.09,0,0,1,0,.07.14.14,0,0,0,0,.15s0,0,0-.1a.35.35,0,0,0,0-.2A.21.21,0,0,0,88.42,32.36Z"/><path class="cls-7" d="M88.58,32.25a.17.17,0,0,0-.07.12c0,.08.05.07.05.15s0,.1,0,.16,0,0,0,.09,0,.23-.12.13a.17.17,0,0,0,0,.17s.08,0,.07.1-.07.07-.13.05-.2,0-.19.06.13,0,.08.08-.18,0-.23.07-.06.05,0,.07a.4.4,0,0,1,.1.05.14.14,0,0,0,.14,0s0-.06.05-.06h.25c.06,0,.18,0,.18-.07s-.1-.07-.16-.06-.1,0-.07,0a.32.32,0,0,1,.15,0,.28.28,0,0,0,.18,0s0-.06,0-.07-.05,0,0,0a.2.2,0,0,0,.09-.23c0-.09-.1-.11-.05-.26a.19.19,0,0,0-.09.17c0,.11,0,.14,0,.15a.12.12,0,0,1-.08-.12c0-.09,0-.07,0-.07s-.08,0-.08.07a.31.31,0,0,1,.07-.13c.06-.08.12-.12.08-.27s-.06.14-.12.14,0,0,0-.09,0-.11,0-.16S88.57,32.39,88.58,32.25Z"/><path class="cls-7" d="M88.15,32.45v0l.13.06a0,0,0,0,1,0,0v0l0,0v-.05s0,0,0-.06Z"/><path class="cls-7" d="M88.14,32.54v-.09a.06.06,0,0,0-.06,0,.06.06,0,0,0-.05.06l-.3.64s-.05.07,0,.09l.36.17s.07,0,.09,0l.21-.45a.07.07,0,0,0,0-.06l0-.16s0,0,0,0Z"/><path d="M88.44,31.54v0a.1.1,0,0,1,0,.1.1.1,0,0,1,.06.11v0a.1.1,0,0,1-.12.12h-.12v-.49h.12C88.41,31.42,88.44,31.46,88.44,31.54Zm-.15,0v.13h0s0,0,0-.05v0s0-.05,0-.05Zm0,.2v.15h0s0,0,0,0v0s0-.06,0-.06Z"/><rect class="cls-38" x="89.47" y="32.06" width="1.62" height="1.62" rx="0.25" ry="0.25"/><path class="cls-7" d="M90.78,33.61h-1a.24.24,0,0,1-.24-.24v-1a.24.24,0,0,1,.24-.24h1a.24.24,0,0,1,.24.24v1A.24.24,0,0,1,90.78,33.61Zm-1-1.44a.2.2,0,0,0-.2.2v1a.2.2,0,0,0,.2.2h1a.2.2,0,0,0,.2-.2v-1a.2.2,0,0,0-.2-.2Z"/><path class="cls-7" d="M90.43,32.25l0,.09a.18.18,0,0,0,0,.16.23.23,0,0,0,0-.12S90.43,32.25,90.43,32.25Z"/><path class="cls-7" d="M90.44,32.21a.33.33,0,0,1,.09.18c0,.08-.05.12,0,.16a.15.15,0,0,0,0,.08s0-.1,0-.1,0,0,0,.11a.29.29,0,0,0,0,.16.77.77,0,0,0,.12.14.25.25,0,0,1,.21.15s0,0,0-.09l0,0h0a.55.55,0,0,0,0-.13.76.76,0,0,1-.06-.18c0-.06,0-.15,0-.15a.23.23,0,0,0-.08.18c0,.1,0,.09,0,.09s0,0,0-.09a.51.51,0,0,1,0-.09s-.06,0-.06.07a.49.49,0,0,1-.06-.18c0-.06,0-.14,0-.2S90.44,32.21,90.44,32.21Z"/><path class="cls-7" d="M90.67,33a.24.24,0,1,0,.24.24A.24.24,0,0,0,90.67,33Zm0,.38h0l-.11-.08a0,0,0,0,1,0,0h0l.11.08A0,0,0,0,1,90.66,33.34Zm.16-.19h0l-.11-.08a0,0,0,0,1,0,0h0l.11.08A0,0,0,0,1,90.82,33.15Z"/><path class="cls-7" d="M90.62,33.5a.13.13,0,0,0-.13-.09s0-.08-.06-.08-.08,0-.11-.08,0-.09,0-.09a.19.19,0,0,0,0,.17c0,.09.05.08.05.08s0,0-.06,0,0,.12.1.14.08,0,.17,0S90.62,33.5,90.62,33.5Z"/><path class="cls-7" d="M90.23,33.16a.08.08,0,0,0-.06.07.1.1,0,0,0,0,.09A.14.14,0,0,1,90.23,33.16Z"/><path class="cls-7" d="M90.37,32.66l-.29.34a.29.29,0,0,1-.14-.21.25.25,0,0,1,.21-.24A.43.43,0,0,1,90.37,32.66Z"/><path class="cls-7" d="M90.51,32.89h0l-.16-.13a0,0,0,0,1,0,0h0l.16.13A0,0,0,0,1,90.51,32.89Z"/><path class="cls-7" d="M90.36,33.09h0L90.17,33a0,0,0,0,1,0,0h0l.16.13A0,0,0,0,1,90.36,33.09Z"/><path class="cls-7" d="M90,32.6l0,.06a.14.14,0,0,0-.08,0s-.06,0-.07.15a2.75,2.75,0,0,1,0,.39,1.49,1.49,0,0,1-.12.16l0-.06a.22.22,0,0,0,.11-.18c0-.14,0-.39,0-.39s0-.16.15-.15A.16.16,0,0,1,90,32.6Z"/><path d="M90.4,31.69v.07c0,.08,0,.12-.12.12s-.12,0-.12-.12V31.5c0-.08,0-.12.12-.12s.12,0,.12.12v0h-.07v-.05s0,0,0,0,0,0,0,0v.27s0,0,0,0,0,0,0,0v-.07Z"/><path class="cls-7" d="M85,25.66h.1l0,.63H85Z"/><path class="cls-7" d="M85.27,25.85l0,.45h-.09l0-.63h.12l.08.38,0-.37h.09l0,.63h-.1Z"/><path class="cls-7" d="M85.74,25.7c.1,0,.14.07.14.17v0h-.09v0s0-.06,0-.06-.05,0-.05.06.18.16.17.34-.06.15-.16.15a.14.14,0,0,1-.14-.17v0h.09v0s0,.06,0,.06.05,0,.05-.06-.18-.16-.17-.34S85.65,25.69,85.74,25.7Z"/><path class="cls-7" d="M85.95,25.72l.3,0v.09h-.1l0,.54H86l0-.54h-.1Z"/><path class="cls-7" d="M86.5,26.37a.19.19,0,0,1,0-.08v-.1c0-.06,0-.08-.06-.08h0v.25h-.1l0-.63h.15a.13.13,0,0,1,.14.15v0a.12.12,0,0,1-.07.12s.06.07.06.14v.1a.18.18,0,0,0,0,.08Zm-.08-.54V26h0s.06,0,.06-.06V25.9s0-.07,0-.07Z"/><path class="cls-7" d="M86.81,25.76l0,.48s0,.06,0,.06.05,0,.05-.06l0-.48H87l0,.48c0,.1-.06.16-.15.15a.14.14,0,0,1-.14-.16l0-.48Z"/><path class="cls-7" d="M87.38,26.17v.08c0,.1-.06.16-.15.15a.14.14,0,0,1-.14-.16v-.33c0-.1.06-.16.15-.15a.14.14,0,0,1,.14.16V26h-.09v-.07s0-.06,0-.06-.05,0-.05.06v.34s0,.06,0,.06.05,0,.05-.06v-.09Z"/><path class="cls-7" d="M87.76,26.18v.08c0,.1-.05.16-.15.15a.14.14,0,0,1-.14-.16v-.33c0-.1.05-.16.15-.15a.14.14,0,0,1,.14.16V26h-.09v-.07s0-.06,0-.06-.05,0-.05.06v.34s0,.06,0,.06.05,0,.05-.06v-.09Z"/><path class="cls-7" d="M87.86,25.79H88v.63h-.1Z"/><path class="cls-7" d="M88,25.95a.15.15,0,1,1,.3,0v.33a.15.15,0,1,1-.3,0Zm.09.33s0,.06.05.06.05,0,.05-.06v-.34s0-.06-.05-.06-.05,0-.05.06Z"/><path class="cls-7" d="M88.52,26v.45h-.09V25.8h.12l.1.37V25.8h.09v.63h-.1Z"/><path class="cls-7" d="M88.94,26.06h.13v.09h-.13v.18h.17v.09h-.27V25.8h.27v.09h-.17Z"/><path class="cls-7" d="M89.33,25.78c.1,0,.15.05.15.15v0h-.09v0s0-.06-.05-.06,0,0,0,.06.2.15.2.33a.14.14,0,0,1-.14.16c-.1,0-.15-.05-.15-.15v0h.09v0s0,.06.05.06.05,0,0-.06-.2-.15-.2-.33S89.24,25.78,89.33,25.78Z"/><path class="cls-39" d="M84.7,28.59a35.22,35.22,0,0,0,7.06,0"/><path class="cls-39" d="M84.7,30.89a46,46,0,0,0,7.06,0"/><path class="cls-40" d="M85,26.94s2.21.19,3.77.14"/><path class="cls-40" d="M85,27.33s2.21.19,3.77.14"/><path class="cls-40" d="M85,27.82s2.21.19,3.77.14"/><path class="cls-40" d="M85,28.31s2.21.19,3.77.14"/><path class="cls-40" d="M85,29s2.21.19,3.77.14"/><path class="cls-40" d="M85,29.4s2.21.19,3.77.14"/><path class="cls-40" d="M85,29.89s2.21.19,3.77.14"/><path class="cls-40" d="M85,30.38s2.21.19,3.77.14"/><path class="cls-41" d="M90.27,30.35c-.06,0-.06-.14,0-.24s.08-.14.07-.22a.14.14,0,0,1,0,.12c0,.07,0,.09,0,.15s0,0,0-.08.06-.09,0-.15-.06-.1,0-.16.07-.11.06-.13a.36.36,0,0,1,0,.15.09.09,0,0,0,0,.09s0-.05,0-.09a.2.2,0,0,0,0-.23c0-.05,0-.23.1-.24a.07.07,0,0,0,0,.08s.08.07.1.15,0,.06,0,.06,0,0,0-.06,0-.07,0-.09a.1.1,0,0,1,0,.09c0,.06,0,.17,0,.21s0,0,0-.06.07-.06,0-.11a.26.26,0,0,1,.05.19.31.31,0,0,0,0,.21.26.26,0,0,1,0,.32Z"/><path class="cls-42" d="M90.34,30.36s-.08,0-.06-.12,0-.09,0-.14,0,.1,0,.13.05,0,.05-.07,0,0,0-.06.08-.06,0-.18c0,0,0,0,0,0a.2.2,0,0,1,.06-.13c.05-.07.08-.08.09-.13s0,.13.06.1,0-.08,0-.07a.19.19,0,0,0,0,.1.21.21,0,0,1,0,.15s0,0,0-.09,0-.06,0-.07a.14.14,0,0,0,0,.09s.07.1,0,.18a.12.12,0,0,0,0,.13s0,0,0-.05a.1.1,0,0,1,0-.09.06.06,0,0,0,0,.08.16.16,0,0,1,0,.22Z"/><path class="cls-43" d="M90.45,30.36s0-.07,0-.12,0-.07,0-.11a.07.07,0,0,1,0,.06s0,0,0,.07,0,0,0,0,0,0,0-.07,0,0,0-.08,0-.06,0-.07a.18.18,0,0,1,0,.07,0,0,0,0,0,0,0s0,0,0,0a.1.1,0,0,0,0-.12s0-.12,0-.12a0,0,0,0,0,0,0s0,0,.05.08v0l0,0s0,0,0,0a.05.05,0,0,1,0,0s0,.09,0,.11,0,0,0,0,0,0,0-.06a.13.13,0,0,1,0,.1.16.16,0,0,0,0,.11.13.13,0,0,1,0,.16Z"/><path class="cls-7" d="M90.53,30.35s0,0,0-.07,0,0,0-.06a0,0,0,0,1,0,0s0,0,0,0,0,0,0,0,0,0,0,0,0,0,0,0,0,0,0,0a.09.09,0,0,1,0,0,0,0,0,0,0,0,0s0,0,0,0a.05.05,0,0,0,0-.06s0-.06,0-.07a0,0,0,0,0,0,0s0,0,0,0v0s0,0,0,0a0,0,0,0,1,0,0s0,0,0,.06,0,0,0,0,0,0,0,0a.07.07,0,0,1,0,.05.08.08,0,0,0,0,.06.07.07,0,0,1,0,.09Z"/><path class="cls-44" d="M89.86,30.34v0a5.73,5.73,0,0,0,1.63-.15.35.35,0,0,0,0-.1.2.2,0,0,0-.17-.22.16.16,0,0,0-.18-.13.21.21,0,0,0-.16.11l0,0a.1.1,0,0,0,0,0,.11.11,0,0,0-.12-.1.13.13,0,0,0-.09,0h0l-.06,0a.16.16,0,0,0-.12-.05.17.17,0,0,0-.09,0,.1.1,0,0,0-.11-.09.11.11,0,0,0-.11.11v0a.12.12,0,0,0-.1.12.11.11,0,0,0,0,.07l0,0a.09.09,0,0,0-.1-.09.1.1,0,0,0-.1.1.1.1,0,0,0,.05.09A.29.29,0,0,0,89.86,30.34Z"/><path class="cls-2" d="M89.26,30.35h0a.05.05,0,0,1,0-.07l.2-.19a0,0,0,0,1,.06,0h0a.06.06,0,0,1,0,.07l-.2.19A0,0,0,0,1,89.26,30.35Z"/><path class="cls-2" d="M89.53,30.16h0a0,0,0,0,1-.06,0l-.18-.22a.08.08,0,0,1,0-.08h0a0,0,0,0,1,.06,0l.17.23A.06.06,0,0,1,89.53,30.16Z"/><path class="cls-2" d="M89.83,29.51h0a0,0,0,0,0,0,0l-.19.14a0,0,0,0,0,0,.06h0a0,0,0,0,0,0,0l.19-.14A0,0,0,0,0,89.83,29.51Z"/><path class="cls-2" d="M89.63,29.71h0a0,0,0,0,0,0-.06l-.1-.22a0,0,0,0,0-.06,0h0a0,0,0,0,0,0,.06l.11.21A0,0,0,0,0,89.63,29.71Z"/><path class="cls-45" d="M89.69,29.28a.14.14,0,0,1-.09.16.11.11,0,0,1-.14-.1.14.14,0,0,1,.09-.16A.11.11,0,0,1,89.69,29.28Z"/><path class="cls-45" d="M89.25,29.9h0a.1.1,0,0,1,0-.12l.15-.26c.08-.14.13-.16.17-.13h0s0,.2-.05.25l-.11.23A.08.08,0,0,1,89.25,29.9Z"/><path class="cls-45" d="M89.34,30.17h0a0,0,0,0,1-.05,0l-.09-.26c0-.06.05-.1.07-.11h0s0,0,0,.07l.07.29A.05.05,0,0,1,89.34,30.17Z"/><path class="cls-45" d="M89.1,30.35h0a.05.05,0,0,1,0-.07l.2-.19a0,0,0,0,1,.06,0h0a.06.06,0,0,1,0,.07l-.2.19A0,0,0,0,1,89.1,30.35Z"/><path class="cls-45" d="M89.57,29.67h0a0,0,0,0,0,0-.06l-.06-.17a0,0,0,0,0-.06,0h0a0,0,0,0,0,0,.06l.07.17A0,0,0,0,0,89.57,29.67Z"/><path class="cls-46" d="M89.77,29.48"/><path class="cls-47" d="M89.8,29.47a.18.18,0,0,0,.1.09c.07,0,.15,0,.19.09"/><path class="cls-46" d="M89.8,29.49h0s-.06,0-.06,0v0l-.05.25v0s0,0,.05,0h0s.06,0,.06,0v0l.05-.25v0S89.83,29.5,89.8,29.49Z"/><path class="cls-46" d="M89.7,29.44l.07,0h0v0l-.05-.06s0,0,0,0h0l.09.09v0h0l-.08,0Z"/><g class="cls-48"><ellipse class="cls-46" cx="89.79" cy="29.49" rx="0.03" ry="0.03" transform="translate(38.48 108.86) rotate(-75.3)"/></g><ellipse class="cls-46" cx="89.79" cy="29.49" rx="0.03" ry="0.02" transform="translate(38.46 108.85) rotate(-75.29)"/><path class="cls-46" d="M89.79,29.49h0v0h0Z"/><path class="cls-46" d="M89.81,29.49h0Zm0,0h0Z"/><path class="cls-46" d="M89.8,29.49h0Z"/><path class="cls-46" d="M89.8,29.49h0Z"/><path class="cls-46" d="M89.8,29.48h0Z"/><path class="cls-46" d="M89.8,29.48h0Zm0,0h0Z"/><path class="cls-46" d="M89.8,29.48h0Zm0,0h0Z"/><path class="cls-46" d="M89.8,29.48h0Z"/><path class="cls-46" d="M89.8,29.48h0Z"/><path class="cls-46" d="M89.78,29.49h0Zm0,0h0Z"/><path class="cls-46" d="M89.77,29.49h0Z"/><path class="cls-46" d="M89.78,29.49h0Z"/><path class="cls-46" d="M89.77,29.49h0Zm0,0h0Z"/><path class="cls-46" d="M89.77,29.49h0Z"/><path class="cls-46" d="M89.78,29.5h0Z"/><path class="cls-46" d="M89.78,29.5h0Zm0,0h0Z"/><path class="cls-46" d="M89.78,29.5h0Zm0,0h0Z"/><path class="cls-46" d="M89.78,29.5h0Z"/><path class="cls-46" d="M89.78,29.5h0Z"/><path class="cls-46" d="M89.78,29.51h0Zm0,0h0Z"/><path class="cls-46" d="M89.77,29.48h0Zm0,0h0Z"/><path class="cls-46" d="M89.77,29.48h0Zm0,0h0Z"/><path class="cls-46" d="M89.77,29.48h0Zm0,0h0Z"/><path class="cls-46" d="M89.77,29.49h0Zm0,0h0Z"/><path class="cls-46" d="M89.77,29.49h0Z"/><path class="cls-46" d="M89.79,29.47h0Z"/><path class="cls-46" d="M89.78,29.47h0Z"/><path class="cls-46" d="M89.78,29.47h0Z"/><path class="cls-46" d="M89.78,29.47h0Z"/><path class="cls-46" d="M89.79,29.48h0Z"/><path class="cls-46" d="M89.78,29.47h0Z"/><path class="cls-46" d="M89.78,29.47h0Z"/><path class="cls-46" d="M89.77,29.48h0Z"/><path class="cls-46" d="M89.77,29.48h0Zm0,0h0Z"/><path class="cls-46" d="M89.77,29.48h0Z"/><path class="cls-46" d="M89.77,29.49h0Z"/><path class="cls-46" d="M89.77,29.49h0Zm0,0h0Zm0,0h0Z"/><path class="cls-46" d="M89.77,29.49h0Z"/><path class="cls-46" d="M89.77,29.49h0Z"/><path class="cls-46" d="M89.79,29.49h0Z"/><circle class="cls-46" cx="89.79" cy="29.49" r="0.01" transform="translate(38.65 108.97) rotate(-75.43)"/><circle class="cls-46" cx="89.79" cy="29.49" r="0.01" transform="translate(38.69 109) rotate(-75.45)"/><circle class="cls-46" cx="89.79" cy="29.49" transform="translate(37.78 108.4) rotate(-74.79)"/><g class="cls-49"><ellipse class="cls-46" cx="89.79" cy="29.49" rx="0.03" ry="0.02" transform="translate(38.75 109.03) rotate(-75.49)"/></g><path class="cls-45" d="M89.75,29.44h0a0,0,0,0,0-.05,0l-.17.16a0,0,0,0,0,0,.06h0a0,0,0,0,0,.05,0l.17-.16A0,0,0,0,0,89.75,29.44Z"/><path class="cls-50" d="M90,30.36a5.62,5.62,0,0,0,1.48-.15.34.34,0,0,0,0-.07.18.18,0,0,0-.2-.2.25.25,0,0,0-.16.09l-.07,0h0a.13.13,0,0,0-.14-.13.15.15,0,0,0-.12.07l-.09,0h-.06a.19.19,0,0,0-.19-.16.2.2,0,0,0-.19.21h0a.13.13,0,0,0-.09.13.13.13,0,0,0,0,.06A.27.27,0,0,0,90,30.36Z"/><path class="cls-51" d="M90.09,29.64a.84.84,0,0,1,0,.16l0,0a.86.86,0,0,1,0,.1l0,0a.3.3,0,0,0,0,.09l0,0a.27.27,0,0,0,0,.06l0-.07,0,.2a.15.15,0,0,0,0-.08l0,.16s0,0,0,.05a.18.18,0,0,1,0-.09h0l.07.09h0s0,0,0,0a0,0,0,0,1,.05,0l0,0v0a.11.11,0,0,0,0,.09l0,0a.06.06,0,0,0,.05.05s.06,0,.05,0a.14.14,0,0,0,0,.09l0,0s0,0,0,0a.09.09,0,0,0-.09-.11s0,0,0,0,0,0,0,0l0,0s0,0,0,0h0a.36.36,0,0,0-.09-.09.15.15,0,0,0,.14.07.19.19,0,0,0-.09-.08l.06,0a.08.08,0,0,0-.05,0h0a.33.33,0,0,0-.13-.1l.06,0a.8.8,0,0,0-.23-.08h0a.21.21,0,0,1-.13-.08l.07,0a.12.12,0,0,0,0-.05.32.32,0,0,0,.14,0,.13.13,0,0,0-.06-.07l.15,0h.09a.19.19,0,0,0-.1-.07.11.11,0,0,0,.08,0,0,0,0,0,0,0,0v0h0v0a.34.34,0,0,0-.19-.09h0l-.08,0a.13.13,0,0,0-.16-.07.07.07,0,0,0,0,.05h0"/><path class="cls-52" d="M90.15,29.69a.3.3,0,0,0,0,.11.09.09,0,0,1,0,.09s0,0,0,0l.09.09,0,0a0,0,0,0,0,0,0l.05,0h0v0a.06.06,0,0,0,0,0l.06,0a.19.19,0,0,0-.12-.09l0,0v0s-.05,0-.08,0l0,0a.46.46,0,0,1-.08-.15l.07,0a0,0,0,0,0,0,0,.15.15,0,0,0,.08,0,.13.13,0,0,1-.06-.07l0,0a0,0,0,0,0,0,0,.18.18,0,0,1,.11,0l0,0,.11,0-.28-.08h0a.09.09,0,0,0,0,0s0,0,0,0"/><path class="cls-45" d="M89.15,30.37h0a0,0,0,0,1,0,0h0a0,0,0,0,1,0,0h0a0,0,0,0,1,0,0h0A0,0,0,0,1,89.15,30.37Z"/><path class="cls-2" d="M89.33,30.38h0a0,0,0,0,1,0,0h0a0,0,0,0,1,0,0h0a0,0,0,0,1,0,0h0A0,0,0,0,1,89.33,30.38Z"/><path class="cls-45" d="M91.52,30.28a8.11,8.11,0,0,1-2.49.14v-.08a8.27,8.27,0,0,0,2.49-.14Z"/><g class="cls-53"><path class="cls-8" d="M89.48,30.26h-.1a6.88,6.88,0,0,0-.08-1.37,3.73,3.73,0,0,1-.05-.85.46.46,0,0,1,.32-.37.71.71,0,0,1,.25,0v.09a.63.63,0,0,0-.22,0,.37.37,0,0,0-.26.3,3.74,3.74,0,0,0,.05.82,7.9,7.9,0,0,1,.08,1.26S89.49,30.22,89.48,30.26Z"/><rect class="cls-46" x="89.84" y="27.62" width="0.01" height="0.1"/><rect class="cls-46" x="89.85" y="27.62" width="0.03" height="0.05"/><rect class="cls-46" x="89.85" y="27.67" width="0.03" height="0.05"/><rect class="cls-46" x="89.85" y="27.72" width="0.03" height="0.01"/><rect class="cls-46" x="89.87" y="27.62" width="0.1" height="0.11"/><path class="cls-46" d="M90.66,28.26c0-.06-.15-.15-.36-.18v-.2h-.38v.2c-.21,0-.36.12-.36.18h0v2.27h0c0,.08.25.15.55.15s.55-.07.55-.15h0V28.28h0Z"/><path class="cls-17" d="M90.34,27.51a.08.08,0,1,1,.08-.08A.08.08,0,0,1,90.34,27.51Zm0-.15a.07.07,0,1,0,.07.07A.07.07,0,0,0,90.34,27.35Z"/><path class="cls-8" d="M91,27.62l-.61-.09-.06,0,.06-.16c.29-.17.51-.33.56-.35s.09-.1.09-.1-.1,0-.1,0l-1.09.62.08.19.26,0s.21,0,.21,0a7,7,0,0,1,.77.06S91.18,27.64,91,27.62Z"/><circle class="cls-17" cx="89.96" cy="27.55" r="0.04"/><path class="cls-8" d="M90.53,27.48l0,0,0,0-.13.07v0l.13-.07h0A0,0,0,0,0,90.53,27.48Z"/><circle class="cls-17" cx="90.3" cy="27.47" r="0.02"/><path class="cls-8" d="M89.87,27.52s0,.09,0,.08v-.1h0Z"/><rect class="cls-46" x="89.81" y="27.62" width="0.03" height="0.05"/><rect class="cls-46" x="89.81" y="27.67" width="0.03" height="0.05"/><rect class="cls-46" x="89.81" y="27.72" width="0.03" height="0.01"/><path class="cls-22" d="M90.27,27.62h0a0,0,0,0,1,0,0h0a0,0,0,0,1,0,0h0Zm0,0h0a0,0,0,0,1,0,0h0a0,0,0,0,1,0,0h0Zm0,0h0a0,0,0,0,1,0,0h0a0,0,0,0,1,0,0h0a0,0,0,0,1,0,0h0a0,0,0,0,1,0,0h0a0,0,0,0,1,0,0h0a0,0,0,0,1,0,0h0a0,0,0,0,1,0,0h0a0,0,0,0,1,0,0h0Zm0-.16h0a0,0,0,0,1,0,0h0a0,0,0,0,1,0,0Zm0,0h0a0,0,0,0,1,0,0h0a0,0,0,0,1,0,0Zm0,0h0a0,0,0,0,1,0,0h0a0,0,0,0,1,0,0Zm0,0h0a0,0,0,0,1,0,0h0a0,0,0,0,1,0,0Zm0,0h0a0,0,0,0,1,0,0h0a0,0,0,0,1,0,0Zm0,0h0a0,0,0,0,1,0,0h0a0,0,0,0,1,0,0Zm0,0h0a0,0,0,0,1,0,0h0a0,0,0,0,1,0,0Zm0,0h0a0,0,0,0,1,0,0h0a0,0,0,0,1,0,0Zm0,0h0a0,0,0,0,1,0,0h0a0,0,0,0,1,0,0Z"/><polygon class="cls-22" points="90.16 27.34 90.25 27.28 90.18 27.2 90.13 27.23 90.16 27.34"/><polygon class="cls-22" points="90.14 27.34 90.27 27.26 90.29 27.26 90.13 27.36 90.14 27.34"/><circle class="cls-24" cx="90.11" cy="27.75" r="0.26"/><circle class="cls-25" cx="90.11" cy="27.75" r="0.25"/><path class="cls-26" d="M90.07,27.75l.07,0,.16-.19a.25.25,0,0,0-.14-.08Z"/><polygon class="cls-27" points="90.12 27.7 90.2 27.61 90.15 27.73 90.12 27.7"/><circle class="cls-28" cx="90.11" cy="27.75" r="0.07"/><circle class="cls-29" cx="90.11" cy="27.75" r="0.06"/><circle class="cls-30" cx="90.11" cy="27.75" r="0.03"/><circle class="cls-31" cx="90.11" cy="27.75" r="0.25"/></g></g></g></svg>