<svg xmlns="http://www.w3.org/2000/svg" viewBox="0 0 203.15 176.4"><defs><style>.cls-1{fill:#0ecedd;}.cls-2{fill:#5db5ed;}.cls-3{fill:#208e8e;}.cls-4{fill:#23a2a5;}.cls-5{fill:#5092df;}.cls-6{fill:#717f82;}.cls-7{fill:#5f6a6d;}.cls-8{fill:#4b5456;}</style></defs><title>fuente</title><g id="Capa_2" data-name="Capa 2"><g id="Capa_8" data-name="Capa 8"><polygon class="cls-1" points="149.33 14.93 52.02 15.09 0 87.72 47.82 161.47 160.08 161.47 202.84 87.72 149.33 14.93"/><polygon class="cls-2" points="142.03 25.18 60.37 25.31 16.72 84.83 56.85 145.27 151.05 145.27 186.93 84.83 142.03 25.18"/><polygon class="cls-3" points="0.62 100.18 0.62 86.49 48.22 160.22 48.22 176.4 0.62 100.18"/><polygon class="cls-3" points="202.37 102.67 203.15 87.73 160.53 159.91 160.53 176.09 202.37 102.67"/><path class="cls-4" d="M160.53,160.22H48.22V176.4H160.53Z"/><polygon class="cls-5" points="128.99 43.53 85.48 43.6 62.22 76.08 83.6 109.06 133.8 109.06 152.92 76.08 128.99 43.53"/><polygon class="cls-5" points="125.73 48.11 89.22 48.17 69.7 74.79 87.64 101.81 129.76 101.81 145.81 74.79 125.73 48.11"/><polygon class="cls-5" points="62.5 81.65 62.5 75.53 83.78 108.5 83.78 115.73 62.5 81.65"/><polygon class="cls-5" points="152.71 82.76 153.06 76.08 134 108.36 134 115.59 152.71 82.76"/><path class="cls-5" d="M134,108.5H83.78v7.23H134Z"/><rect class="cls-5" x="99.24" y="107.96" width="19.6" height="38.27"/><path class="cls-6" d="M114.58,88.66V54.44H98.87V88.66a8,8,0,0,0,0,1.22,7.81,7.81,0,1,0,15.62,0A8.22,8.22,0,0,0,114.58,88.66Z"/><path class="cls-7" d="M114.58,88.66V54.44h-11.4L98.87,88.66a8,8,0,0,0,0,1.22,7.81,7.81,0,1,0,15.62,0A8.22,8.22,0,0,0,114.58,88.66Z"/><path class="cls-8" d="M114.58,88.66V54.44h-3.73l-9.68,35.27a8,8,0,0,0,0,1.22c0,4.31,1.2,6.76,5.51,6.76a7.81,7.81,0,0,0,7.81-7.81A8.22,8.22,0,0,0,114.58,88.66Z"/><polygon class="cls-1" points="130.2 0 84.93 0.07 60.73 33.86 82.97 68.17 135.2 68.17 155.09 33.86 130.2 0"/><polygon class="cls-2" points="126.8 4.77 88.81 4.83 68.51 32.52 87.17 60.64 131 60.64 147.69 32.52 126.8 4.77"/><polygon class="cls-3" points="61.02 39.66 61.02 33.29 83.16 67.59 83.16 75.12 61.02 39.66"/><polygon class="cls-3" points="154.88 40.82 155.24 33.87 135.41 67.45 135.41 74.98 154.88 40.82"/><path class="cls-4" d="M135.41,67.59H83.16v7.53h52.25Z"/></g></g></svg>