<svg xmlns="http://www.w3.org/2000/svg" xmlns:xlink="http://www.w3.org/1999/xlink" viewBox="0 0 243.89 361.1"><defs><style>.cls-1{fill:none;}.cls-2{fill:#cbdbeb;}.cls-3{fill:#a7d2e8;}.cls-4{fill:#6e9fe5;}.cls-5{fill:#4e8fd1;}.cls-6{fill:#3495d6;}.cls-7{fill:#639ce0;}.cls-8{fill:#87b5c4;}.cls-9{fill:#cbf1f7;}.cls-10{fill:#657172;}.cls-11{fill:#424242;opacity:0.3;}.cls-12{fill:#827049;}.cls-13{fill:#9b9173;}.cls-14{clip-path:url(#clip-path);}.cls-15,.cls-17{fill:#ffd09c;}.cls-15,.cls-19,.cls-20,.cls-33{fill-rule:evenodd;}.cls-16{fill:#ef655b;}.cls-18{fill:#6e6c6b;}.cls-19{fill:#f7c383;}.cls-20{fill:#62bf46;}.cls-21{fill:#f6786a;}.cls-22{fill:#bcbcbc;}.cls-23{fill:#fefffd;}.cls-24{fill:#9a4a43;}.cls-25,.cls-33{fill:#ffe0b2;}.cls-26{fill:#515f75;}.cls-27{fill:aqua;}.cls-28{fill:#626f86;}.cls-29{fill:#34bdcd;}.cls-30{fill:#eba33d;}.cls-31{fill:#c1272d;}.cls-32{fill:#f0f;}.cls-34{fill:#f2c179;}.cls-35{fill:#ddad6f;}.cls-36{fill:#e04be8;}.cls-37{fill:#231f20;}.cls-38{fill:#785c37;}</style><clipPath id="clip-path"><rect class="cls-1" x="26.64" y="21.08" width="193.16" height="81.6"/></clipPath></defs><title>gim</title><g id="Capa_2" data-name="Capa 2"><g id="Capa_8" data-name="Capa 8"><path class="cls-2" d="M6.17,269.15V333l13.22,13.3H226.87l15.86-16V261.17H7.5S4.85,269.15,6.17,269.15Z"/><rect class="cls-3" x="32.57" y="286.3" width="23.02" height="23.67"/><polygon class="cls-3" points="29.2 335.96 15.73 325.56 15.73 302.47 29.2 312.86 29.2 335.96"/><polygon class="cls-3" points="29.2 309.4 15.73 299 15.73 275.91 29.2 286.3 29.2 309.4"/><polygon class="cls-3" points="221.75 335.38 235.22 324.99 235.22 301.89 221.75 312.29 221.75 335.38"/><polygon class="cls-3" points="221.75 308.82 235.22 298.43 235.22 275.33 221.75 285.73 221.75 308.82"/><rect class="cls-3" x="32.57" y="312.86" width="23.02" height="23.67"/><rect class="cls-3" x="58.95" y="286.3" width="23.02" height="23.67"/><rect class="cls-3" x="58.95" y="312.86" width="23.02" height="23.67"/><rect class="cls-3" x="168.42" y="286.3" width="23.02" height="23.67"/><rect class="cls-3" x="168.42" y="312.86" width="23.02" height="23.67"/><rect class="cls-3" x="195.36" y="286.3" width="23.02" height="23.67"/><rect class="cls-3" x="195.36" y="312.86" width="23.02" height="23.67"/><path class="cls-4" d="M243.89,184.28c0-5.84-3.86-10.64-8.82-11.27v-.07H12.49v.38a9.22,9.22,0,0,0-2.57-.38c-5.48,0-9.92,4.79-9.92,10.7,0,0,0,.1,0,.15H0v88H0s0,.1,0,.15c0,5.91,4.44,10.7,9.92,10.7a9.21,9.21,0,0,0,2.57-.38v.38H235.08v-.07c5-.59,8.82-5.12,8.82-10.63,0-.22,0-.44,0-.66h0V184.44h0C243.89,184.38,243.89,184.33,243.89,184.28Z"/><path class="cls-5" d="M243.89,174.28a10.36,10.36,0,0,0-8.82-10.51v-.07H12.49v.35a9.84,9.84,0,0,0-2.57-.35,10,10,0,0,0-9.92,10s0,.09,0,.14H0v82.07H0S0,256,0,256a10,10,0,0,0,9.92,10,9.83,9.83,0,0,0,2.57-.35V266H235.08v-.07a10,10,0,0,0,8.82-9.92c0-.21,0-.41,0-.61h0v-81h0S243.89,174.33,243.89,174.28Z"/><path class="cls-6" d="M221.92,152.78c0-24.86-43.42-57.13-97.32-57.13C71.14,95.65,27.73,129.45,27,154h0v20.1H221.8v-17.3A21.2,21.2,0,0,0,221.92,152.78Z"/><path class="cls-7" d="M221.92,220.51c0-24.86-43.42-57.13-97.32-57.13-53.45,0-96.87,33.8-97.59,58.37h0v20.1H221.8v-17.3A21.2,21.2,0,0,0,221.92,220.51Z"/><path class="cls-5" d="M26.31,173.44v67.73s-10.78-51.89,74.32-76.68V98.42s-61.1,8.24-74.32,54.91C26.31,153.34,25.14,174.6,26.31,173.44Z"/><path class="cls-5" d="M221.49,172.61v67.73s10.78-51.89-74.32-76.68V97.6s61.32,11.81,74.32,51.9C221.49,149.5,222.66,173.78,221.49,172.61Z"/><path class="cls-6" d="M176.32,216.87c0-11.61-24.51-26.69-54.94-26.69-30.18,0-54.69,15.79-55.09,27.27h0v9.39h110v-8.08A8.21,8.21,0,0,0,176.32,216.87Z"/><path class="cls-7" d="M176.32,248.51c0-11.61-24.51-26.69-54.94-26.69-30.18,0-54.69,15.79-55.09,27.27h0v9.39h110V250.4A8.21,8.21,0,0,0,176.32,248.51Z"/><path class="cls-5" d="M65.9,226.52v31.64s-6.09-24.24,42-35.82V191.47s-34.49,3.85-42,25.65C65.9,217.13,65.24,227.06,65.9,226.52Z"/><path class="cls-5" d="M176.08,226.13v31.64s6.09-24.24-42-35.82V191.09s34.62,5.52,42,24.24C176.08,215.33,176.74,226.67,176.08,226.13Z"/><rect class="cls-8" x="124.37" y="286.2" width="26.6" height="60.62"/><rect class="cls-8" x="95.4" y="286.2" width="26.6" height="60.62"/><rect class="cls-9" x="104.54" y="306.67" width="15.37" height="1.95" rx="0.85" ry="0.85" transform="translate(-191.82 186.01) rotate(-48.16)"/><rect class="cls-9" x="105.17" y="298.46" width="15.37" height="1.95" rx="0.85" ry="0.85" transform="translate(-185.5 183.75) rotate(-48.16)"/><rect class="cls-9" x="130.43" y="306.67" width="15.37" height="1.95" rx="0.85" ry="0.85" transform="translate(-183.2 205.3) rotate(-48.16)"/><rect class="cls-9" x="131.06" y="298.46" width="15.37" height="1.95" rx="0.85" ry="0.85" transform="translate(-176.88 203.04) rotate(-48.16)"/><rect class="cls-10" x="41.08" y="39.86" width="23.53" height="122.11" rx="11.73" ry="11.73"/><rect class="cls-10" x="181.03" y="40.28" width="23.53" height="122.11" rx="11.73" ry="11.73"/><rect class="cls-8" x="26.64" width="193.16" height="25.2"/><rect class="cls-2" x="26.64" y="20.89" width="193.16" height="82.01"/><rect class="cls-11" x="154.02" y="346.16" width="65.23" height="14.93"/><rect class="cls-12" x="157.57" y="345.38" width="58.71" height="9.21" rx="3.31" ry="3.31"/><rect class="cls-13" x="158.11" y="344.03" width="57.72" height="7.94" rx="3.05" ry="3.05"/><rect class="cls-12" x="161.4" y="338.64" width="3.88" height="6.96" rx="1.94" ry="1.94"/><rect class="cls-12" x="161.66" y="352.56" width="3.88" height="6.96" rx="1.94" ry="1.94"/><rect class="cls-12" x="209.54" y="352.56" width="3.88" height="6.96" rx="1.94" ry="1.94"/><rect class="cls-12" x="209.03" y="338.64" width="3.88" height="6.96" rx="1.94" ry="1.94"/><rect class="cls-12" x="157.34" y="330.33" width="57.72" height="10.86" rx="3.56" ry="3.56"/><rect class="cls-13" x="157.7" y="330.49" width="57.05" height="1.64" rx="0.82" ry="0.82"/><rect class="cls-11" x="29.69" y="346.16" width="65.23" height="14.93"/><rect class="cls-12" x="33.23" y="345.38" width="58.71" height="9.21" rx="3.31" ry="3.31"/><rect class="cls-13" x="33.78" y="344.03" width="57.72" height="7.94" rx="3.05" ry="3.05"/><rect class="cls-12" x="37.07" y="338.64" width="3.88" height="6.96" rx="1.94" ry="1.94"/><rect class="cls-12" x="37.33" y="352.56" width="3.88" height="6.96" rx="1.94" ry="1.94"/><rect class="cls-12" x="85.21" y="352.56" width="3.88" height="6.96" rx="1.94" ry="1.94"/><rect class="cls-12" x="84.7" y="338.64" width="3.88" height="6.96" rx="1.94" ry="1.94"/><rect class="cls-12" x="33.01" y="330.33" width="57.72" height="10.86" rx="3.56" ry="3.56"/><rect class="cls-13" x="33.36" y="330.49" width="57.05" height="1.64" rx="0.82" ry="0.82"/><g class="cls-14"><path class="cls-15" d="M54.87,85.24c-2.49-2-4.19-2.75-9.32,4a31.59,31.59,0,0,0-5.32,9.94,20,20,0,0,0-6.6,2.68c-7.16,4.35-13.45,12.7-12.21,14.81s6.72-2,13.88-6.31c3.17-1.92,6.13-3.58,8.34-5,3-.76,7.23-4.1,10.92-8.93C59.69,89.68,57.36,87.23,54.87,85.24Z"/><path class="cls-16" d="M48.18,85.4s-2.49,2.7-2.84,4L55,96.84l3.46-4Z"/><path class="cls-15" d="M75.62,53.8l.23.83-.69.82,4.26,3.61,1.83-2.16A2.79,2.79,0,0,0,77,53.3l-.19.23v0a.6.6,0,0,0-1.16.31Z"/><path class="cls-15" d="M58.44,50.95s5.51,0,5.33,4.67c0,0,4.77,2.06,5.18,4.79,0,0,3.47-3.57,7.1-4.46l2.53-.15.36,2.12S75,65.51,68.68,66.78a8.3,8.3,0,0,1-7.57-4.58Z"/><path class="cls-15" d="M58.74,55.27V47.19c0-2.16-6.17-1.94-6.32-2s.35,6.15-4.06,8.34c-3.6,1.79,8.64,2.7,8.64,2.7Z"/><path class="cls-17" d="M60.52,36.29a4,4,0,0,1,1,3c-.31,1.52-.34,1.34,0,2s2.29,2.06,2,2.32a2.64,2.64,0,0,1-1.85.41.88.88,0,0,0,0,.54,3.71,3.71,0,0,1,.12.94s-1.29.21-1.58-.29c0,0,.62,1.08,1.61.81a1.63,1.63,0,0,1,.5,1.67c-.31,1-.53,1.51-1.56,1.46s-1.71-.06-2.12-.63v3.29l-7.13-1.65L53,47,52.58,40l1.18-2.55S56.18,36,56.26,36L58,35.79Z"/><path class="cls-18" d="M62.07,44.35s.26.64,0,.77a5.91,5.91,0,0,1-2,0c-.39-.1.37,1.52,1.07,1.44s.87-.36,1.17,0a2.12,2.12,0,0,1,0,2.11,2.33,2.33,0,0,1-3.3.51,3.62,3.62,0,0,1-1.16-3.53A2.11,2.11,0,0,1,60,44.35C61.28,44.35,61.69,44,62.07,44.35Z"/><path class="cls-18" d="M57.16,36.82s4.22.14,3.71-1.37-2.33-2.2-6.07-1.65-6,2.68-5.73,6.62,1.65,5.7,2.3,5.56,2.78-.55,2.57-1.89,1.65-2.33,1.65-2.33l.93,2.4.58-.41S55.58,38.47,57.16,36.82Z"/><path class="cls-17" d="M55.58,41.76s-.51-1.06-1.13-1a1.28,1.28,0,0,0-1,1.34c0,.62.41,2.3,1.34,2.5s1.13-.14,1.1-.58-.48-.8-.48-1.31A2.29,2.29,0,0,1,55.58,41.76Z"/><path class="cls-19" d="M63.2,64.15a6.75,6.75,0,0,1-2.46,5.22v8.41H49.16v-26c1.51-1.79,3.55-1.23,7.28-1.23h0a6.76,6.76,0,0,1,6.76,6.76Z"/><path class="cls-20" d="M56.44,50.55a32.12,32.12,0,0,0-5.31.06,6.75,6.75,0,0,1,.83-.06,6.65,6.65,0,1,1-2.81,12.68V77.78H60.74V69.37a6.75,6.75,0,0,0,2.46-5.22V57.32A6.76,6.76,0,0,0,56.44,50.55Z"/><path class="cls-15" d="M75.46,108c-1.69-5.68-2.84-10.64-4.21-12.45a28.36,28.36,0,0,0-6.09-8.83c-5.42-5.56-7.87-3.66-9.92-1.55s-2.93,3.62,2.49,9.19a26.72,26.72,0,0,0,9,6.43,19.27,19.27,0,0,0,.88,6.89c2.25,7.53,8.17,15.12,10.29,14.45S77.7,115.52,75.46,108Z"/><path class="cls-15" d="M51.88,50.56s-4.12-.1-5.39,4.85c0,0-5.22,2.14-7.51,6,0,0-3.81,3.85,0,15.86l3.86-.57s2.68-2.68.73-9.17c0,0,3.79,0,7.77-6.15,0,0,6.66-.11,5.94-5.78A4.89,4.89,0,0,0,51.88,50.56Z"/><path class="cls-15" d="M44.64,77.62l-.78-.37-.17-1.06-5.51.87.44,2.8A2.79,2.79,0,0,0,44.13,79l0-.3,0,0a.6.6,0,0,0,.52-1.08Z"/><path class="cls-21" d="M51.69,77.94l-2.54,0s-4.29,2.21-.92,7.53a41.75,41.75,0,0,0,7.94,9l4.41-3.32C56.12,87.94,52.34,83.26,51.69,77.94Z"/><path class="cls-21" d="M53.74,77.92H53c.64,5,4.45,9.42,8.72,12.43l.93-.7C58.5,86.76,54.93,82.64,53.74,77.92Z"/><path class="cls-21" d="M63.7,88.84l2.2-1.66s-3.31-4-5.16-5V77.86l-5.7.05C56.26,82.31,59.82,86.17,63.7,88.84Z"/><path class="cls-22" d="M53,77.93H51.69c.64,5.32,4.42,10,8.89,13.25l1.09-.82C57.42,87.35,53.6,82.93,53,77.93Z"/><path class="cls-22" d="M55,77.91h-1.3c1.18,4.72,4.76,8.84,8.86,11.74l1.1-.83C59.82,86.17,56.26,82.31,55,77.91Z"/><path class="cls-23" d="M19.78,115.38s-1.26.44-.95,1.07a27.81,27.81,0,0,0,4.29,4.1c1.77,1.46,7.21,6.15,8.08,5s.19-.46.19-.46Z"/><path class="cls-24" d="M22.7,112.42s1.37,3,2.63,3.09,1.41,0,1.41,0a6.38,6.38,0,0,0,.9,2.37c.52.45,1.1,2.47,2.79,4s1.92,2.46,1.4,2.92-1.15.71-4.26-2-7.85-6.87-7.79-7.39S20.68,112.41,22.7,112.42Z"/><path class="cls-23" d="M76.13,123.2s.12,1.37.8,1.22a27.64,27.64,0,0,0,5-3.22c1.85-1.39,7.75-5.61,6.84-6.77s-.4-.31-.4-.31Z"/><path class="cls-24" d="M74,119.54s3.2-.61,3.65-1.83.33-1.41.33-1.41a6.24,6.24,0,0,0,2.52-.29c.57-.41,2.67-.47,4.59-1.75s2.86-1.28,3.18-.65.4,1.33-3,3.71-8.6,6.06-9.09,5.87S73.48,121.55,74,119.54Z"/><path class="cls-25" d="M93,100.54s-.08,7.06,0,10.85c0,0-.23.51-1.56,1S77.34,120,73.8,122.81L75,124.9s16.54-5.49,20.64-9.47S101,102.55,101,102.55Z"/><polygon class="cls-26" points="102.78 99.17 101.01 102.55 91.92 100.28 92.78 95.34 102.78 99.17"/><path class="cls-25" d="M96.35,45.56s1.32,5.3-.48,6.79c0,0,.06.34-1.63.23,0,0,4.28,3.69,9,2.08,0,0-1.38-.14-1.63-2.25a9.51,9.51,0,0,1,.4-3.92S101.37,39.22,96.35,45.56Z"/><path class="cls-25" d="M104.66,37.48s1.78,1.4,1.55,3.06a2.82,2.82,0,0,0-.37,1.6c.38,2,1.41,2.2,1.37,2.62s-.81.86-.81.86a.45.45,0,0,0-.17.46s.4.37-.13.74c0,0,.29.62-.07.83a.77.77,0,0,0-.34.57c-.07.5.08,1.63-1.22,1.63s-5.87-2-8.41-5.24-.95-2.46-.29-4.64,6-3.34,6.13-3.39S104.66,37.48,104.66,37.48Z"/><path class="cls-25" d="M108.71,92.83s8,8.29,9.22,11.32c0,0,1.51,6.86,1.51,9.26s1.52,13.11,1,23.54l-2.66,0s-1.15-5.39-3.16-12.33-1.38-16.54-1.38-16.54a24.73,24.73,0,0,0-11.81-7.83L98.74,97l5-2.69Z"/><path class="cls-25" d="M105,52.21A6.22,6.22,0,0,1,107.66,55s5.3,9,6.23,13.17c0,0,.51,1.77,1.09,0s4.38-10.94,4.38-10.94l2.19.5s-2.95,14.82-6.23,15.15-8.07-7.22-8.07-7.22L105,54.4Z"/><path class="cls-25" d="M95.63,51.79a10.43,10.43,0,0,1,8.08.34l.88.88.8,1.85,1,5.05-.46,6.19s-5.13-1-5.34-1.39a48.13,48.13,0,0,0-5-2.82L92.26,60l-.55-3.2,1.52-3.93,1.3-.45Z"/><polygon class="cls-27" points="75.85 124.97 74.23 125.9 72.25 124.25 72.48 122.8 73.75 122.34 75.85 124.97"/><path class="cls-27" d="M69.67,123.48s-1.26,0-1.18.63A25.56,25.56,0,0,0,71,129c1.12,1.82,4.48,7.59,5.63,6.85s.32-.34.32-.34Z"/><path class="cls-28" d="M73.21,121.82s.29,3,1.37,3.51,1.26.42,1.26.42a5.76,5.76,0,0,0,.05,2.34c.32.56.2,2.49,1.21,4.36s.93,2.74.32,3-1.25.26-3.15-3.11-4.82-8.41-4.61-8.84S71.41,121.19,73.21,121.82Z"/><polygon class="cls-27" points="120.54 134.43 121.31 136.19 119.82 138.31 118.36 138.2 117.79 136.98 120.54 134.43"/><path class="cls-27" d="M119.28,140.95s.1,1.26.73,1.13a25.59,25.59,0,0,0,4.66-2.94c1.72-1.27,7.17-5.12,6.34-6.2s-.36-.29-.36-.29Z"/><path class="cls-28" d="M117.33,137.56s3-.54,3.38-1.66.31-1.29.31-1.29a5.75,5.75,0,0,0,2.33-.25c.53-.37,2.46-.41,4.24-1.58s2.65-1.17,2.93-.58.36,1.23-2.83,3.4-8,5.53-8.41,5.35S116.85,139.41,117.33,137.56Z"/><path class="cls-29" d="M95.63,51.79s2.36,6.31,5.64,6.65,3.79-.08,3.7-2.44a7.19,7.19,0,0,0-1.26-3.87l1.27.08a50.19,50.19,0,0,0,1.67,5.05c.34.42,3.7,3.45,3,5.22A10.5,10.5,0,0,1,107,65.93s.08,3.54-.59,4.38l-10.77-.42L92.26,60a2.54,2.54,0,0,0,2.61-2.53,21.43,21.43,0,0,0-.34-5.05Z"/><path class="cls-25" d="M94.53,52.38s-3.43,1-4.38,2.38c0,0-9.85,4.42-12.06,7.51s.82,5.43.82,5.43l10.92,6.44.82-2.34s-7-5.87-9.6-6.94c0,0,7.13-2.65,9-4.61,0,0,1.28-.13,2.23-.3Z"/><path class="cls-25" d="M96,69.9s1.34,4.28.5,5.54-3,4.21-3,4.21,4.38,4.21,7,4.38,2.69-.51,2.69-.51,1-9.85,3.28-13.22Z"/><path class="cls-30" d="M105.59,38.78s-1.69-1.43-2.89-.4-1.2,2.86-2.24,3.78a8.87,8.87,0,0,0-1.31,1.32s-1.64-1.83-2.24-.92a3.75,3.75,0,0,0,.71,3.94l.11.07c1,.63-1.42,1.55-1.8,1.43a3.61,3.61,0,0,0-.71-1.95c-.65-.74-2.62-5.67-1-8,0,0-.54-.77-1.64.6S87.92,41.88,86.12,40c0,0,3.87-1,2.73-3.61s-1.91-5-.11-6.36,4.75-.4,5.35,1.55.6,4.47,1.36,4.52a6.94,6.94,0,0,0,2.67-.92c1.09-.46,6.87-1.26,7.86,2.63C106,37.81,106.43,39.62,105.59,38.78Z"/><path class="cls-31" d="M94.62,35.36c-.41.71-.92,1.34-1.31,2.06-.53,1,.9,1.85,1.43.88.39-.72.9-1.36,1.31-2.06a.84.84,0,0,0-1.43-.88Z"/><path class="cls-28" d="M98,94.87c-2-1.47-4-3.52-4.71-6-.81-3.07-.34-6.42,1.64-8.6l-1.48-.59s-7.58,5-5.3,10.4S101,100.28,101,100.28l2.7-2.61a10.85,10.85,0,0,1-1.45-.43A18.87,18.87,0,0,1,98,94.87Z"/><path class="cls-28" d="M95.8,90.65A14.6,14.6,0,0,0,103.38,96l1.69.37,3.64-3.52-6.1-5.26.5-4-6.64-2.66C93.87,83.18,93.61,87.79,95.8,90.65Z"/><path class="cls-32" d="M103.38,96a14.6,14.6,0,0,1-7.58-5.34c-2.19-2.86-1.93-7.47.67-9.78l-1.55-.62c-2,2.18-2.45,5.53-1.64,8.6.66,2.5,2.67,4.55,4.71,6a18.87,18.87,0,0,0,4.27,2.36,10.85,10.85,0,0,0,1.45.43l1.36-1.31Z"/><path class="cls-33" d="M118.37,56.66l.4.39-.09.82,3.44.12.23-2.16a1.81,1.81,0,0,0-1.5-2.19,2.13,2.13,0,0,0-1.95,2.07l0,.23,0,0a.34.34,0,0,0-.53.1A.52.52,0,0,0,118.37,56.66Z"/><path class="cls-33" d="M91.87,71.28l-.5.25-.74-.35-1.26,3.21,2,.93a1.81,1.81,0,0,0,2.56-.68,2.13,2.13,0,0,0-1.3-2.52l-.21-.1h0a.34.34,0,0,0,.08-.53A.52.52,0,0,0,91.87,71.28Z"/><path class="cls-34" d="M168,41.25c0,2.23-.94,6.11-3.88,6.11-1.41,0-7.32-.57-9.79,1.9s-4.69,6.16-6.75,8.21-8,8.58-8,10.81,10.4,13.23,13.19,16,3.94,3.05,4.88,3.05,2.76-4.17.94-6-3.64.35-5.29-1.29-4.31-9.32-6.72-11.73c1.14-1.14,2.5-2,5.82-5.26a50.55,50.55,0,0,1,5.76-4.82c0,3.91,4,11.32,4,14.14s-3.29,12.22-3.88,18.45.52,17.51.52,17.51h10.75l1.76-12.46L173,108.36h10.75s1.11-11.28.52-17.51-3.88-15.63-3.88-18.45,4-10.22,4-14.14a50.49,50.49,0,0,1,5.76,4.82c3.31,3.31,4.68,4.13,5.82,5.26-2.41,2.41-5.08,10.08-6.72,11.73s-3.47-.53-5.29,1.29,0,6,.94,6,2.08-.26,4.88-3.05S203,70.51,203,68.28s-5.93-8.76-8-10.81-4.28-5.74-6.75-8.21-8.38-1.9-9.79-1.9c-2.94,0-3.88-3.88-3.88-6.11Z"/><path class="cls-35" d="M175.11,44.38a10,10,0,0,1-.52-3.13H168a10,10,0,0,1-.52,3.13,6.72,6.72,0,0,0,7.66,0Z"/><path class="cls-36" d="M181,69.74c.83-2.61,2.36-6.12,3.06-9-2.21-1-3.49-6.3-3.15-13.47-.88,0-1.63,0-2.13.05-.35,2.89-1.77,8.35-7.5,8.35s-7.14-5.46-7.5-8.35c-.49,0-1.25-.05-2.13-.05.34,7.17-.95,12.5-3.15,13.47.7,2.85,2.23,6.35,3.06,9a65.54,65.54,0,0,0,19.43,0Z"/><path class="cls-37" d="M184.3,90.85a68.69,68.69,0,0,0-1.95-9.67,64.84,64.84,0,0,1-22.16,0,68.84,68.84,0,0,0-1.95,9.67,70.56,70.56,0,0,0-.07,8.82h12.57l.53-3.76.53,3.76h12.57A70.77,70.77,0,0,0,184.3,90.85Z"/><path class="cls-37" d="M171.28,22c-4.52,0-10.58,1.88-8.19,13.37h16.38C181.86,23.91,175.8,22,171.28,22"/><path class="cls-35" d="M180,35.11c0,1.47-.66,2.3-1.74,2.3-.87,0-1.43-1.24-1.43-2.3s.71-1.31,1.59-1.31S180,34.05,180,35.11Z"/><path class="cls-35" d="M162.52,35.11c0,1.47.66,2.3,1.74,2.3.87,0,1.43-1.24,1.43-2.3s-.71-1.31-1.59-1.31S162.52,34.05,162.52,35.11Z"/><path class="cls-34" d="M171.28,44.52c3.51,0,6.82-3.54,7.48-8.4,1.45-10.64-3.35-12.21-7.48-12.21s-8.93,1.57-7.48,12.21C164.46,41,167.76,44.52,171.28,44.52Z"/><path class="cls-38" d="M171.28,22"/><path class="cls-37" d="M171.28,23.47c-8.05,0-8.66,7.38-7.78,11.39.61-1.91,11.66-5.94,12-6.29a4.5,4.5,0,0,0,1.2,3.33c.75.75,1.92.89,2.38,2.4C179.92,31.34,179.33,23.47,171.28,23.47Z"/><path class="cls-34" d="M158.77,108.36l0,.24c.23,1.64,1.54,18.36,1.79,19.14s-.81,2.11,0,4.5c0,0,.4,5.42.81,7.36s1,14.23,1,14.23h3.68s.61-12.49.7-14c.13-1.91,1.26-6,.79-8.23h0s.69-2.37-.27-3.52l2.21-19.77"/><path class="cls-34" d="M173.27,108.36l0,.24c.23,1.64,1.54,18.36,1.79,19.14s-.81,2.11,0,4.5c0,0,.4,5.42.81,7.36s1,14.23,1,14.23h3.68s.61-12.49.7-14c.13-1.91.92-5.57.45-7.79l.07-.38a11.44,11.44,0,0,0,0-3.58L184,108.36"/><path class="cls-36" d="M162.64,153.09s-3.77,9.2,1.65,9.6,3.29-6.27,2.35-9.6Z"/><path class="cls-36" d="M176.68,153.09s-3.77,9.2,1.65,9.6,3.29-6.27,2.35-9.6Z"/></g></g></g></svg>