<svg xmlns="http://www.w3.org/2000/svg" xmlns:xlink="http://www.w3.org/1999/xlink" viewBox="0 0 243.89 290.86"><defs><style>.cls-1{fill:#cbdbeb;}.cls-2{fill:#a7d2e8;}.cls-3{fill:#6e9fe5;}.cls-4{fill:#4e8fd1;}.cls-5{fill:#3495d6;}.cls-6{fill:#639ce0;}.cls-7{fill:#87b5c4;}.cls-8{fill:#cbf1f7;}.cls-16,.cls-9{fill:#424242;}.cls-9{opacity:0.3;}.cls-10{fill:#827049;}.cls-11{fill:#9b9173;}.cls-12{fill:#5a5b5b;}.cls-13{fill:#5f6060;}.cls-14{fill:#c7c6c5;}.cls-15{fill:#b5b4b4;}.cls-17{fill:url(#Blanco_Negro);}.cls-18{fill:#fff;}.cls-19{fill:#e8a864;}.cls-20{fill:#d6d6d6;}.cls-21{fill:#bfbfbf;}.cls-22{fill:#4398d1;}.cls-23{fill:#f2bb80;}.cls-24{fill:#3e8cc7;}</style><linearGradient id="Blanco_Negro" x1="116.75" y1="-40.16" x2="116.75" y2="120.76" gradientUnits="userSpaceOnUse"><stop offset="0" stop-color="#fff"/><stop offset="1"/></linearGradient></defs><title>gim</title><g id="Capa_2" data-name="Capa 2"><g id="Capa_11" data-name="Capa 11"><path class="cls-1" d="M6.17,198.92v63.84l13.22,13.3H226.87l15.86-16V190.94H7.5S4.85,198.92,6.17,198.92Z"/><rect class="cls-2" x="32.57" y="216.07" width="23.02" height="23.67"/><polygon class="cls-2" points="29.2 265.73 15.73 255.33 15.73 232.24 29.2 242.63 29.2 265.73"/><polygon class="cls-2" points="29.2 239.17 15.73 228.78 15.73 205.68 29.2 216.07 29.2 239.17"/><polygon class="cls-2" points="221.75 265.15 235.22 254.76 235.22 231.66 221.75 242.06 221.75 265.15"/><polygon class="cls-2" points="221.75 238.59 235.22 228.2 235.22 205.1 221.75 215.5 221.75 238.59"/><rect class="cls-2" x="32.57" y="242.63" width="23.02" height="23.67"/><rect class="cls-2" x="58.95" y="216.07" width="23.02" height="23.67"/><rect class="cls-2" x="58.95" y="242.63" width="23.02" height="23.67"/><rect class="cls-2" x="168.42" y="216.07" width="23.02" height="23.67"/><rect class="cls-2" x="168.42" y="242.63" width="23.02" height="23.67"/><rect class="cls-2" x="195.36" y="216.07" width="23.02" height="23.67"/><rect class="cls-2" x="195.36" y="242.63" width="23.02" height="23.67"/><path class="cls-3" d="M243.89,114.06c0-5.84-3.86-10.64-8.82-11.27v-.07H12.49v.38a9.22,9.22,0,0,0-2.57-.38c-5.48,0-9.92,4.79-9.92,10.7,0,0,0,.1,0,.15H0v88H0s0,.1,0,.15c0,5.91,4.44,10.7,9.92,10.7a9.22,9.22,0,0,0,2.57-.38v.38H235.08v-.07c5-.59,8.82-5.12,8.82-10.63,0-.22,0-.44,0-.66h0V114.21h0C243.89,114.16,243.89,114.11,243.89,114.06Z"/><path class="cls-4" d="M243.89,104.06a10.36,10.36,0,0,0-8.82-10.51v-.07H12.49v.35a9.84,9.84,0,0,0-2.57-.35,10,10,0,0,0-9.92,10s0,.09,0,.14H0v82.07H0s0,.09,0,.14a10,10,0,0,0,9.92,10,9.83,9.83,0,0,0,2.57-.35v.35H235.08v-.07a10,10,0,0,0,8.82-9.92c0-.21,0-.41,0-.61h0v-81h0S243.89,104.11,243.89,104.06Z"/><path class="cls-5" d="M221.92,82.55c0-24.86-43.42-57.12-97.32-57.12C71.14,25.43,27.73,59.23,27,83.8h0v20.1H221.8V86.6A21.19,21.19,0,0,0,221.92,82.55Z"/><path class="cls-6" d="M221.92,150.29c0-24.86-43.42-57.12-97.32-57.12C71.14,93.16,27.73,127,27,151.53h0v20.1H221.8v-17.3A21.19,21.19,0,0,0,221.92,150.29Z"/><path class="cls-4" d="M26.31,103.21v67.73s-10.78-51.89,74.32-76.68V28.2s-61.1,8.24-74.32,54.91C26.31,83.11,25.14,104.38,26.31,103.21Z"/><path class="cls-4" d="M221.49,102.39v67.73s10.78-51.89-74.32-76.68V27.38s61.32,11.81,74.32,51.9C221.49,79.27,222.66,103.55,221.49,102.39Z"/><rect class="cls-7" x="124.37" y="215.98" width="26.6" height="60.62"/><rect class="cls-7" x="95.4" y="215.98" width="26.6" height="60.62"/><rect class="cls-8" x="111.25" y="229.73" width="1.95" height="15.37" rx="0.98" ry="0.98" transform="translate(187 -14.32) rotate(41.84)"/><rect class="cls-8" x="111.88" y="221.52" width="1.95" height="15.37" rx="0.98" ry="0.98" transform="translate(181.68 -16.83) rotate(41.84)"/><rect class="cls-8" x="137.14" y="229.73" width="1.95" height="15.37" rx="0.98" ry="0.98" transform="translate(193.6 -31.59) rotate(41.84)"/><rect class="cls-8" x="137.77" y="221.52" width="1.95" height="15.37" rx="0.98" ry="0.98" transform="translate(188.29 -34.1) rotate(41.84)"/><rect class="cls-9" x="154.02" y="275.93" width="65.23" height="14.93"/><rect class="cls-10" x="157.57" y="275.15" width="58.71" height="9.21" rx="3.31" ry="3.31"/><rect class="cls-11" x="158.11" y="273.8" width="57.72" height="7.94" rx="3.05" ry="3.05"/><rect class="cls-10" x="161.4" y="268.41" width="3.88" height="6.96" rx="1.94" ry="1.94"/><rect class="cls-10" x="161.66" y="282.33" width="3.88" height="6.96" rx="1.94" ry="1.94"/><rect class="cls-10" x="209.54" y="282.33" width="3.88" height="6.96" rx="1.94" ry="1.94"/><rect class="cls-10" x="209.03" y="268.41" width="3.88" height="6.96" rx="1.94" ry="1.94"/><rect class="cls-10" x="157.34" y="260.1" width="57.72" height="10.86" rx="3.56" ry="3.56"/><rect class="cls-11" x="157.7" y="260.26" width="57.05" height="1.64" rx="0.82" ry="0.82"/><rect class="cls-9" x="29.69" y="275.93" width="65.23" height="14.93"/><rect class="cls-10" x="33.23" y="275.15" width="58.71" height="9.21" rx="3.31" ry="3.31"/><rect class="cls-11" x="33.78" y="273.8" width="57.72" height="7.94" rx="3.05" ry="3.05"/><rect class="cls-10" x="37.07" y="268.41" width="3.88" height="6.96" rx="1.94" ry="1.94"/><rect class="cls-10" x="37.33" y="282.33" width="3.88" height="6.96" rx="1.94" ry="1.94"/><rect class="cls-10" x="85.21" y="282.33" width="3.88" height="6.96" rx="1.94" ry="1.94"/><rect class="cls-10" x="84.7" y="268.41" width="3.88" height="6.96" rx="1.94" ry="1.94"/><rect class="cls-10" x="33.01" y="260.1" width="57.72" height="10.86" rx="3.56" ry="3.56"/><rect class="cls-11" x="33.36" y="260.26" width="57.05" height="1.64" rx="0.82" ry="0.82"/><rect class="cls-12" x="117.37" y="162.89" width="15.1" height="24.97" rx="7.54" ry="7.54"/><rect class="cls-13" x="117.37" y="157.74" width="14.81" height="13.65" rx="6.82" ry="6.82"/><rect class="cls-12" x="121" y="108.95" width="6.68" height="55.18" rx="3.34" ry="3.34" transform="translate(248.68 273.08) rotate(-180)"/><ellipse class="cls-12" cx="123.76" cy="110.69" rx="10.74" ry="12.2"/><ellipse class="cls-14" cx="123.76" cy="106.63" rx="10.74" ry="12.2"/><ellipse class="cls-15" cx="123.76" cy="97.92" rx="10.74" ry="12.2"/><ellipse class="cls-16" cx="123.47" cy="96.75" rx="13.07" ry="8.71"/><ellipse class="cls-12" cx="123.47" cy="93.56" rx="13.07" ry="8.71"/><path class="cls-17" d="M139.43,129.33h-34A4.39,4.39,0,0,1,101,125V79.09l-6.73-6.66-.49-.51-.17-.19,0,0-.23-.26-.29-.35,0,0v0a15.57,15.57,0,0,1-2.87-5.77,4.31,4.31,0,0,1-.49-2V53.6H87.13V68.87a12.92,12.92,0,0,1-25.83,0V67.31a11.82,11.82,0,0,1-5.55,0,11.51,11.51,0,0,1-3.56-1.59l-.45-.32a11.43,11.43,0,0,1-2.65-2.75,11.25,11.25,0,0,1-2-5.78c0-.19,0-.38,0-.58V53.6H40.19a4.39,4.39,0,0,1-4.41-4.36V32.41A4.39,4.39,0,0,1,40.19,28h6.93V25.4A11.45,11.45,0,0,1,58.62,14a11.6,11.6,0,0,1,2.68.31V12.78a12.92,12.92,0,0,1,25.83,0V28h8.2V26.8a10.11,10.11,0,0,1,15.76-8.24,10.15,10.15,0,0,1,11.34,0,10.15,10.15,0,0,1,11.34,0,10.1,10.1,0,0,1,15.75,8.24V28h8.2V12.78a12.92,12.92,0,0,1,25.83,0v1.56a11.6,11.6,0,0,1,2.68-.31,11.45,11.45,0,0,1,11.5,11.37V56.25a11.45,11.45,0,0,1-11.5,11.37,11.6,11.6,0,0,1-2.68-.31v1.56A12.74,12.74,0,0,1,178,79.37l-.12.08c-.31.21-.62.4-.95.58l-.11.06h0l-.21.11c-.32.17-.62.31-.92.43l-.4.16-.17.07-.26.09-.06,0-.3.1h0a13,13,0,0,1-1.46.35,13.12,13.12,0,0,1-1.57.19l-.77,0a12.84,12.84,0,0,1-12.9-12.12c0-.21,0-.43,0-.65V53.6h-5.36v9.66q0,.19,0,.38a15.45,15.45,0,0,1-3.14,8.05l-5.35,7V125A4.39,4.39,0,0,1,139.43,129.33Z"/><path class="cls-18" d="M139.43,133.24h-34a4.41,4.41,0,0,1-4.41-4.41V82.46l-6.73-6.73-.49-.51L93.61,75l0,0-.23-.26-.29-.36,0,0v0a15.81,15.81,0,0,1-2.87-5.83,4.39,4.39,0,0,1-.49-2V56.69H87.13V72.13a12.92,12.92,0,1,1-25.83,0V70.55a11.69,11.69,0,0,1-5.55,0,11.44,11.44,0,0,1-3.56-1.6l-.45-.32a11.5,11.5,0,0,1-2.65-2.78,11.38,11.38,0,0,1-1.83-4.68A11.52,11.52,0,0,1,47.13,60c0-.19,0-.39,0-.59V56.69H40.19a4.41,4.41,0,0,1-4.41-4.41v-17a4.41,4.41,0,0,1,4.41-4.41h6.93V28.18A11.5,11.5,0,0,1,61.3,17V15.42a12.92,12.92,0,1,1,25.83,0V30.86h8.2V29.59a10.08,10.08,0,0,1,15.76-8.33,10.06,10.06,0,0,1,11.34,0,10.06,10.06,0,0,1,11.34,0,10.08,10.08,0,0,1,15.75,8.33v1.26h8.2V15.42a12.92,12.92,0,1,1,25.83,0V17a11.5,11.5,0,0,1,14.18,11.18V59.37a11.5,11.5,0,0,1-14.18,11.18v1.58A12.92,12.92,0,0,1,178,82.74l-.12.08c-.31.21-.62.4-.95.58l-.11.06h0l-.21.11c-.32.17-.62.31-.92.43l-.4.16-.17.07-.26.09-.06,0-.3.1h0a12.84,12.84,0,0,1-1.46.35,13,13,0,0,1-1.57.19l-.77,0a12.9,12.9,0,0,1-12.9-12.25c0-.22,0-.44,0-.66V56.69h-5.36v9.77q0,.19,0,.39A15.72,15.72,0,0,1,149.18,75l-5.35,7.12v46.73A4.41,4.41,0,0,1,139.43,133.24Z"/><path class="cls-19" d="M113.51,43.77H94.06V66.45h.2a11.15,11.15,0,0,0,3.12,6.15l8,8v48.2h34V80.63l6.24-8.31a11.33,11.33,0,0,0,2.27-5.87h0V43.77H113.51Z"/><rect class="cls-20" x="40.19" y="35.26" width="11.34" height="17.01"/><rect class="cls-21" x="40.19" y="43.77" width="11.34" height="8.51"/><path class="cls-22" d="M58.62,21.09h0a7.09,7.09,0,0,1,7.09,7.09V59.37a7.09,7.09,0,0,1-7.09,7.09h0a7.09,7.09,0,0,1-7.09-7.09V28.18A7.09,7.09,0,0,1,58.62,21.09Z"/><path class="cls-22" d="M74.21,6.91h0a8.51,8.51,0,0,1,8.51,8.51V72.13a8.51,8.51,0,0,1-8.51,8.51h0a8.51,8.51,0,0,1-8.51-8.51V15.42A8.51,8.51,0,0,1,74.21,6.91Z"/><path class="cls-22" d="M186.22,66.45h0a7.09,7.09,0,0,1-7.09-7.09V28.18a7.09,7.09,0,0,1,7.09-7.09h0a7.09,7.09,0,0,1,7.09,7.09V59.37A7.09,7.09,0,0,1,186.22,66.45Z"/><path class="cls-22" d="M170.62,80.63h0a8.51,8.51,0,0,1-8.51-8.51V15.42a8.51,8.51,0,0,1,8.51-8.51h0a8.51,8.51,0,0,1,8.51,8.51V72.13A8.51,8.51,0,0,1,170.62,80.63Z"/><polygon class="cls-20" points="145.1 35.26 99.73 35.26 82.72 35.26 82.72 52.28 94.06 52.28 118.79 52.28 162.11 52.28 162.11 35.26 145.1 35.26"/><polygon class="cls-21" points="145.1 43.77 99.73 43.77 82.72 43.77 82.72 52.28 94.06 52.28 118.79 52.28 162.11 52.28 162.11 43.77 145.1 43.77"/><path class="cls-23" d="M105.4,23.92a5.67,5.67,0,0,0-5.67,5.67V38.1a5.67,5.67,0,1,0,11.34,0V29.59A5.67,5.67,0,0,0,105.4,23.92Z"/><path class="cls-23" d="M116.75,23.92a5.67,5.67,0,0,0-5.67,5.67V38.1a5.67,5.67,0,0,0,11.34,0V29.59A5.67,5.67,0,0,0,116.75,23.92Z"/><path class="cls-23" d="M128.09,23.92a5.67,5.67,0,0,0-5.67,5.67V38.1a5.67,5.67,0,0,0,11.34,0V29.59A5.67,5.67,0,0,0,128.09,23.92Z"/><path class="cls-23" d="M139.43,23.92a5.67,5.67,0,0,0-5.67,5.67V38.1a5.67,5.67,0,0,0,11.34,0V29.59A5.67,5.67,0,0,0,139.43,23.92Z"/><path class="cls-24" d="M58.62,46.61a7.09,7.09,0,0,1-7.09-7.09V59.37a7.09,7.09,0,1,0,14.18,0V39.52A7.09,7.09,0,0,1,58.62,46.61Z"/><path class="cls-24" d="M74.21,46.61a8.51,8.51,0,0,1-8.51-8.51v34a8.51,8.51,0,0,0,17,0v-34A8.51,8.51,0,0,1,74.21,46.61Z"/><path class="cls-24" d="M186.22,46.61a7.09,7.09,0,0,0,7.09-7.09V59.37a7.09,7.09,0,1,1-14.18,0V39.52A7.09,7.09,0,0,0,186.22,46.61Z"/><path class="cls-24" d="M170.62,46.61a8.51,8.51,0,0,0,8.51-8.51v34a8.51,8.51,0,0,1-17,0v-34A8.51,8.51,0,0,0,170.62,46.61Z"/><path class="cls-23" d="M122.42,80.63c0-8.51-4.34-15.62-10.75-17.75l-6.27-2.1V55.11h8.51a5.67,5.67,0,0,0,4.88-2.84,5.47,5.47,0,0,0,.79-4,6,6,0,0,0-6.07-4.51H94.06V64.58a11.34,11.34,0,0,0,3.32,8l8,8v48.2h34V80.63Z"/></g></g></svg>