<svg xmlns="http://www.w3.org/2000/svg" viewBox="0 0 378.13 568.37"><defs><style>.cls-1{fill:#8ea6b0;}.cls-2{fill:#688088;}.cls-3{fill:#94a4a9;}.cls-4{fill:#b0c6cf;}.cls-5{fill:#c5d0d6;}.cls-6{fill:#a2b4bd;}.cls-7{fill:#dbdbdb;}.cls-8{fill:#72631c;}.cls-9{fill:#2b8945;}.cls-10{fill:#2f914a;}.cls-11{fill:#0aa315;}.cls-12{fill:#099b17;}.cls-13{fill:#32a054;}.cls-14{fill:#339949;}.cls-15{fill:#39aa59;}.cls-16{fill:#37a04b;}.cls-17{fill:#38ba54;}</style></defs><title>casaHidr</title><g id="Capa_2" data-name="Capa 2"><g id="Capa_6" data-name="Capa 6"><rect class="cls-1" x="14.68" y="153.92" width="334.71" height="12.32"/><rect class="cls-2" x="14.68" y="267.76" width="334.71" height="2.5"/><rect class="cls-3" x="3.06" y="270.26" width="367.86" height="5.46"/><path class="cls-4" d="M0,144.82H186.59V1.81L5.93,69.45C2.36,71.16-.18,73.56,0,77.83Z"/><path class="cls-4" d="M373.07,144.82H186.5V1.81L367.15,69.45c3.57,1.7,6.11,4.11,5.92,8.37Z"/><rect class="cls-1" x="183.63" width="6.16" height="88.04" rx="3.07" ry="3.07"/><polygon class="cls-4" points="15.45 166.24 15.45 267.88 148.43 267.88 148.43 184.08 214.7 184.08 214.7 267.88 357.71 267.88 357.71 166.24 15.45 166.24"/><polygon class="cls-1" points="148.43 184.08 148.43 267.88 151.85 267.88 151.85 188.09 211.29 188.09 211.29 267.88 214.7 267.88 214.7 184.08 148.43 184.08"/><rect class="cls-5" x="97.11" y="158.91" width="25.81" height="106.36"/><rect class="cls-6" x="107.83" y="161.69" width="3.61" height="94.05"/><rect class="cls-6" x="100.84" y="161.69" width="1.55" height="94.05"/><rect class="cls-6" x="116.87" y="161.69" width="1.54" height="94.05"/><rect class="cls-7" x="94.25" y="153.92" width="31.29" height="9.97"/><rect class="cls-7" x="94.25" y="260.28" width="31.29" height="9.98"/><rect class="cls-6" x="97.11" y="163.89" width="25.81" height="2.35"/><rect class="cls-5" x="10.94" y="158.91" width="25.81" height="106.36"/><rect class="cls-6" x="21.66" y="161.69" width="3.61" height="94.05"/><rect class="cls-6" x="14.68" y="161.69" width="1.55" height="94.05"/><rect class="cls-6" x="30.71" y="161.69" width="1.54" height="94.05"/><rect class="cls-7" x="8.09" y="153.92" width="31.29" height="9.97"/><rect class="cls-7" x="8.09" y="260.28" width="31.29" height="9.98"/><rect class="cls-6" x="10.94" y="163.89" width="25.81" height="2.35"/><rect class="cls-5" x="242.66" y="158.91" width="25.81" height="106.36"/><rect class="cls-6" x="253.37" y="161.69" width="3.62" height="94.05"/><rect class="cls-6" x="246.4" y="161.69" width="1.55" height="94.05"/><rect class="cls-6" x="262.43" y="161.69" width="1.55" height="94.05"/><rect class="cls-7" x="239.81" y="153.92" width="31.29" height="9.97"/><rect class="cls-7" x="239.81" y="260.28" width="31.29" height="9.98"/><rect class="cls-6" x="242.66" y="163.89" width="25.81" height="2.35"/><rect class="cls-5" x="337.95" y="158.91" width="25.81" height="106.36"/><rect class="cls-6" x="348.66" y="161.69" width="3.62" height="94.05"/><rect class="cls-6" x="341.69" y="161.69" width="1.55" height="94.05"/><rect class="cls-6" x="357.71" y="161.69" width="1.55" height="94.05"/><rect class="cls-7" x="335.1" y="153.92" width="31.29" height="9.97"/><rect class="cls-7" x="335.1" y="260.28" width="31.29" height="9.98"/><rect class="cls-6" x="337.95" y="163.89" width="25.81" height="2.35"/><rect class="cls-6" x="0.01" y="144.82" width="373.14" height="9.1"/><polygon class="cls-1" points="186.58 79.01 0.01 144.77 373.15 144.77 186.58 79.01"/><path class="cls-7" d="M186.58,88.71,323,136.81H50.14l136.44-48.1m0-9.7L0,144.77H373.15L186.58,79Z"/><ellipse class="cls-8" cx="68.52" cy="366.88" rx="9.87" ry="7.25"/><rect class="cls-8" x="58.65" y="338.85" width="19.74" height="27.44"/><path class="cls-8" d="M58.92,366.15c-2.55,2.9-6.68,4.1-10.62,4.84-.64.12-1.44.4-1.43,1,0,.45.48.75.92.92,1.88.72,4,.38,6,.18a40.49,40.49,0,0,1,5.93-.15,2.35,2.35,0,0,1,1.22.29c1,.66.3,2.09-.43,3l-3.21,3.92c3.84.41,7.19-2.4,11-3.17,4.49-.91,9,1.14,13.62,1.29.61,0,1.43-.19,1.4-.76a.91.91,0,0,0-.46-.63c-1.18-.82-3.09-1-3.54-2.28-.4-1.15.81-2.33,2.09-2.55a10.83,10.83,0,0,1,3.84.44,4.54,4.54,0,0,0,3.71-.52.56.56,0,0,0,.2-.25c.07-.23-.14-.44-.34-.58-2-1.41-4.64-1.51-6.93-2.4-1.88-.73-3.5-2-5.45-2.51a15.25,15.25,0,0,0-3.51-.36l-8-.2c-2.52-.06-2.65-.58-5,.2"/><path class="cls-9" d="M54.15,347.22c-6.37,6.2-17.09,5.82-23.94-.85S23,329.25,29.34,323s17.09-5.82,23.94.85S60.52,341,54.15,347.22Z"/><path class="cls-9" d="M78.39,348.94c-6.37,6.2-17.09,5.82-23.94-.85s-7.25-17.12-.88-23.32,17.09-5.82,23.94.85S84.76,342.74,78.39,348.94Z"/><path class="cls-10" d="M78.72,343a16.61,16.61,0,0,1-23.06-.21,15.6,15.6,0,0,1-.22-22.46,16.61,16.61,0,0,1,23.06.21A15.6,15.6,0,0,1,78.72,343Z"/><path class="cls-9" d="M106.16,347.65c-6.37,6.2-17.09,5.82-23.94-.85s-7.25-17.12-.88-23.32,17.09-5.82,23.94.85S112.53,341.45,106.16,347.65Z"/><path class="cls-9" d="M128.64,332.19c-6.37,6.2-17.09,5.82-23.94-.85s-7.25-17.12-.88-23.32,17.09-5.82,23.94.85S135,326,128.64,332.19Z"/><path class="cls-10" d="M122.4,330.18a15.61,15.61,0,0,1-20.9-5.9,14.78,14.78,0,0,1,5.21-20.58,15.61,15.61,0,0,1,20.9,5.9A14.78,14.78,0,0,1,122.4,330.18Z"/><path class="cls-9" d="M12.68,331.76c-8.25-3.52-11.79-13.38-7.9-22s13.73-12.81,22-9.29,11.79,13.38,7.9,22S20.93,335.27,12.68,331.76Z"/><path class="cls-10" d="M12.34,325.36a14.73,14.73,0,0,1-2-21.11c5.41-6.59,15.07-7.84,21.57-2.77a14.73,14.73,0,0,1,2,21.11C28.5,329.19,18.84,330.43,12.34,325.36Z"/><path class="cls-10" d="M54.48,341.32a16.61,16.61,0,0,1-23.06-.21,15.6,15.6,0,0,1-.22-22.46,16.61,16.61,0,0,1,23.06.21A15.6,15.6,0,0,1,54.48,341.32Z"/><path class="cls-10" d="M100.86,345.11a16.54,16.54,0,0,1-22.21-6,15.66,15.66,0,0,1,5.76-21.75,16.54,16.54,0,0,1,22.21,6A15.66,15.66,0,0,1,100.86,345.11Z"/><path class="cls-11" d="M111.28,279.68a13.7,13.7,0,0,1-12.8,14.43,13.49,13.49,0,0,1-13.84-13.25,13.7,13.7,0,0,1,12.8-14.43A13.49,13.49,0,0,1,111.28,279.68Z"/><path class="cls-12" d="M25.94,288.49A15.79,15.79,0,0,1,36,269.38a14.16,14.16,0,0,1,18.35,9.5A15.79,15.79,0,0,1,44.3,298,14.16,14.16,0,0,1,25.94,288.49Z"/><path class="cls-13" d="M30,284.3a13.7,13.7,0,0,1,12.8-14.43,13.49,13.49,0,0,1,13.84,13.25,13.7,13.7,0,0,1-12.8,14.43A13.49,13.49,0,0,1,30,284.3Z"/><path class="cls-12" d="M111.73,280.16a13.7,13.7,0,0,1-12.8,14.43,13.49,13.49,0,0,1-13.84-13.25,13.7,13.7,0,0,1,12.8-14.43A13.49,13.49,0,0,1,111.73,280.16Z"/><path class="cls-14" d="M56,323.82c-5.41,5.85-14.51,5.49-20.33-.81s-6.15-16.15-.75-22,14.51-5.49,20.33.81S61.44,318,56,323.82Z"/><path class="cls-14" d="M76.62,325.44c-5.41,5.85-14.51,5.49-20.33-.81s-6.15-16.15-.75-22,14.51-5.49,20.33.81S82,319.59,76.62,325.44Z"/><path class="cls-13" d="M76.9,319.87a13.12,13.12,0,0,1-19.58-.2,15.87,15.87,0,0,1-.18-21.19,13.12,13.12,0,0,1,19.58.2A15.87,15.87,0,0,1,76.9,319.87Z"/><path class="cls-14" d="M100.2,324.23c-5.41,5.85-14.51,5.49-20.33-.81s-6.15-16.15-.75-22,14.51-5.49,20.33.81S105.61,318.37,100.2,324.23Z"/><path class="cls-14" d="M119.29,309.64c-5.41,5.85-14.51,5.49-20.33-.81s-6.15-16.15-.75-22,14.51-5.49,20.33.81S124.7,303.79,119.29,309.64Z"/><path class="cls-13" d="M114,307.74c-6.12,3.83-14.07,1.33-17.75-5.57s-1.7-15.59,4.42-19.42,14.07-1.33,17.75,5.57S120.11,303.91,114,307.74Z"/><path class="cls-14" d="M20.81,309.23c-7-3.32-10-12.63-6.71-20.79s11.66-12.08,18.66-8.76,10,12.63,6.71,20.79S27.82,312.55,20.81,309.23Z"/><path class="cls-13" d="M20.52,303.2c-5.52-4.78-6.27-13.7-1.67-19.92s12.8-7.39,18.32-2.62,6.27,13.7,1.67,19.92S26,308,20.52,303.2Z"/><path class="cls-13" d="M56.31,318.25a13.12,13.12,0,0,1-19.58-.2,15.87,15.87,0,0,1-.18-21.19,13.12,13.12,0,0,1,19.58.2A15.87,15.87,0,0,1,56.31,318.25Z"/><path class="cls-13" d="M95.69,321.83c-6.56,4.1-15,1.56-18.87-5.68s-1.67-16.42,4.89-20.52,15-1.56,18.87,5.68S102.25,317.73,95.69,321.83Z"/><path class="cls-13" d="M111,280.73a13.7,13.7,0,0,1-12.8,14.43A13.49,13.49,0,0,1,84.4,281.9a13.7,13.7,0,0,1,12.8-14.43A13.49,13.49,0,0,1,111,280.73Z"/><path class="cls-14" d="M37.77,278.32c-1.86-5.62,1.83-11.7,8.26-13.58s13.14,1.14,15,6.75-1.83,11.7-8.26,13.58S39.63,283.94,37.77,278.32Z"/><path class="cls-15" d="M41.05,275.34c-.24-5.43,4.45-10,10.46-10.26s11.08,4,11.31,9.42-4.45,10-10.46,10.26S41.29,280.78,41.05,275.34Z"/><path class="cls-14" d="M104,273c2,5.49-2,11.43-9.05,13.27s-14.41-1.11-16.45-6.6,2-11.43,9.05-13.27S102,267.55,104,273Z"/><path class="cls-15" d="M99.72,279.79c-3.22,5.32-10.6,7.61-16.49,5.12s-8-8.83-4.83-14.16,10.6-7.61,16.49-5.12S102.94,274.47,99.72,279.79Z"/><path class="cls-14" d="M62.77,304.77c-4.74,4.46-12.72,4.18-17.82-.61s-5.39-12.31-.65-16.77S57,283.2,62.12,288,67.51,300.31,62.77,304.77Z"/><path class="cls-14" d="M82.51,304.61c-4.76,4.48-12.78,4.21-17.91-.62s-5.42-12.37-.66-16.85,12.78-4.21,17.91.62S87.28,300.13,82.51,304.61Z"/><path class="cls-15" d="M82.76,300.35a12.75,12.75,0,0,1-17.25-.15A11,11,0,0,1,65.35,284a12.75,12.75,0,0,1,17.25.15A11,11,0,0,1,82.76,300.35Z"/><path class="cls-14" d="M102,298.71c-4.74,4.46-12.72,4.19-17.82-.61s-5.39-12.31-.65-16.77,12.72-4.19,17.82.61S106.74,294.24,102,298.71Z"/><path class="cls-15" d="M97.6,297.1a11.85,11.85,0,0,1-15.66-3.84,10.43,10.43,0,0,1,3.49-14.89,11.85,11.85,0,0,1,15.66,3.84A10.43,10.43,0,0,1,97.6,297.1Z"/><path class="cls-14" d="M34,292.3A9.69,9.69,0,0,1,29,279a10.8,10.8,0,0,1,13.68-5.59,9.69,9.69,0,0,1,4.92,13.25A10.8,10.8,0,0,1,34,292.3Z"/><path class="cls-15" d="M33.74,288.45a8.66,8.66,0,0,1-1.23-12.7,10,10,0,0,1,13.43-1.67,8.66,8.66,0,0,1,1.23,12.7A10,10,0,0,1,33.74,288.45Z"/><path class="cls-15" d="M63,300.5a12.68,12.68,0,0,1-17.16-.12,11,11,0,0,1-.19-16.15,12.68,12.68,0,0,1,17.16.12A11,11,0,0,1,63,300.5Z"/><path class="cls-16" d="M48.81,265.07a8.07,8.07,0,0,1,5.46-9.85,7.73,7.73,0,0,1,9.92,4.9A8.07,8.07,0,0,1,58.73,270,7.73,7.73,0,0,1,48.81,265.07Z"/><path class="cls-17" d="M51,262.91a7.21,7.21,0,1,1,7.48,6.83A7.19,7.19,0,0,1,51,262.91Z"/><path class="cls-16" d="M92.61,261.24c1.35,4-1.33,8.28-6,9.62s-9.53-.81-10.88-4.78,1.33-8.28,6-9.62S91.26,257.26,92.61,261.24Z"/><path class="cls-17" d="M89.78,266.13a8.56,8.56,0,0,1-10.9,3.71,7.25,7.25,0,0,1-3.19-10.26,8.56,8.56,0,0,1,10.9-3.71A7.25,7.25,0,0,1,89.78,266.13Z"/><path class="cls-16" d="M65.34,284.24c-3.13,3.23-8.41,3-11.78-.45s-3.57-8.92-.43-12.15,8.41-3,11.78.45S68.48,281,65.34,284.24Z"/><path class="cls-16" d="M78.4,284.13c-3.15,3.25-8.45,3-11.84-.45s-3.58-9-.43-12.22,8.45-3,11.84.45S81.55,280.88,78.4,284.13Z"/><path class="cls-17" d="M78.56,281a7.89,7.89,0,0,1-11.41-.11A8.51,8.51,0,0,1,67,269.16a7.89,7.89,0,0,1,11.41.11A8.51,8.51,0,0,1,78.56,281Z"/><path class="cls-16" d="M91.28,279.84c-3.13,3.23-8.41,3-11.78-.45s-3.57-8.92-.43-12.16,8.41-3,11.78.45S94.42,276.61,91.28,279.84Z"/><path class="cls-17" d="M88.21,278.79a7.46,7.46,0,0,1-10.29-3.07A8,8,0,0,1,80.48,265a7.46,7.46,0,0,1,10.29,3.07A8,8,0,0,1,88.21,278.79Z"/><path class="cls-16" d="M46.29,275.2c-3.4-1.53-4.85-5.83-3.25-9.6s5.65-5.58,9-4,4.85,5.83,3.25,9.6S49.69,276.73,46.29,275.2Z"/><path class="cls-17" d="M46.15,272.41a6.68,6.68,0,0,1-.81-9.2A6.21,6.21,0,0,1,54.22,262a6.68,6.68,0,0,1,.81,9.2A6.21,6.21,0,0,1,46.15,272.41Z"/><path class="cls-17" d="M64.4,281c-3.37,3.46-8.52,3.76-11.51.67s-2.68-8.41.69-11.87,8.52-3.76,11.51-.67S67.77,277.56,64.4,281Z"/><path class="cls-17" d="M59.27,257.14c2.81-5.94,9.49-8.95,14.91-6.71s7.54,8.86,4.72,14.81-9.49,8.95-14.91,6.71S56.46,263.08,59.27,257.14Z"/><ellipse class="cls-8" cx="195.26" cy="366.88" rx="9.87" ry="7.25"/><rect class="cls-8" x="185.39" y="338.85" width="19.74" height="27.44"/><path class="cls-8" d="M185.65,366.15c-2.55,2.9-6.68,4.1-10.62,4.84-.64.12-1.44.4-1.43,1,0,.45.48.75.92.92,1.88.72,4,.38,6,.18a40.49,40.49,0,0,1,5.93-.15,2.35,2.35,0,0,1,1.22.29c1,.66.3,2.09-.43,3L184,380.17c3.84.41,7.19-2.4,11-3.17,4.49-.91,9,1.14,13.62,1.29.61,0,1.43-.19,1.4-.76a.91.91,0,0,0-.46-.63c-1.18-.82-3.09-1-3.54-2.28-.4-1.15.81-2.33,2.09-2.55a10.83,10.83,0,0,1,3.84.44,4.54,4.54,0,0,0,3.71-.52.56.56,0,0,0,.2-.25c.07-.23-.14-.44-.34-.58-2-1.41-4.64-1.51-6.93-2.4-1.88-.73-3.5-2-5.45-2.51a15.25,15.25,0,0,0-3.51-.36l-8-.2c-2.52-.06-2.65-.58-5,.2"/><path class="cls-9" d="M180.88,347.22c-6.37,6.2-17.09,5.82-23.94-.85s-7.25-17.12-.88-23.32,17.09-5.82,23.94.85S187.25,341,180.88,347.22Z"/><path class="cls-9" d="M205.12,348.94c-6.37,6.2-17.09,5.82-23.94-.85s-7.25-17.12-.88-23.32,17.09-5.82,23.94.85S211.49,342.74,205.12,348.94Z"/><path class="cls-10" d="M205.45,343a16.61,16.61,0,0,1-23.06-.21,15.6,15.6,0,0,1-.22-22.46,16.61,16.61,0,0,1,23.06.21A15.6,15.6,0,0,1,205.45,343Z"/><path class="cls-9" d="M232.89,347.65c-6.37,6.2-17.09,5.82-23.94-.85s-7.25-17.12-.88-23.32,17.09-5.82,23.94.85S239.26,341.45,232.89,347.65Z"/><path class="cls-9" d="M255.37,332.19c-6.37,6.2-17.09,5.82-23.94-.85s-7.25-17.12-.88-23.32,17.09-5.82,23.94.85S261.74,326,255.37,332.19Z"/><path class="cls-10" d="M249.13,330.18a15.61,15.61,0,0,1-20.9-5.9,14.78,14.78,0,0,1,5.21-20.58,15.61,15.61,0,0,1,20.9,5.9A14.78,14.78,0,0,1,249.13,330.18Z"/><path class="cls-9" d="M139.42,331.76c-8.25-3.52-11.79-13.38-7.9-22s13.73-12.81,22-9.29,11.79,13.38,7.9,22S147.67,335.27,139.42,331.76Z"/><path class="cls-10" d="M139.07,325.36a14.73,14.73,0,0,1-2-21.11c5.41-6.59,15.07-7.84,21.57-2.77a14.73,14.73,0,0,1,2,21.11C155.23,329.19,145.57,330.43,139.07,325.36Z"/><path class="cls-10" d="M181.21,341.32a16.61,16.61,0,0,1-23.06-.21,15.6,15.6,0,0,1-.22-22.46,16.61,16.61,0,0,1,23.06.21A15.6,15.6,0,0,1,181.21,341.32Z"/><path class="cls-10" d="M227.59,345.11a16.54,16.54,0,0,1-22.21-6,15.66,15.66,0,0,1,5.76-21.75,16.54,16.54,0,0,1,22.21,6A15.66,15.66,0,0,1,227.59,345.11Z"/><path class="cls-11" d="M238,279.68a13.7,13.7,0,0,1-12.8,14.43,13.49,13.49,0,0,1-13.84-13.25,13.7,13.7,0,0,1,12.8-14.43A13.49,13.49,0,0,1,238,279.68Z"/><path class="cls-12" d="M152.68,288.49a15.79,15.79,0,0,1,10.1-19.11,14.16,14.16,0,0,1,18.35,9.5A15.79,15.79,0,0,1,171,298,14.16,14.16,0,0,1,152.68,288.49Z"/><path class="cls-13" d="M156.69,284.3a13.7,13.7,0,0,1,12.8-14.43,13.49,13.49,0,0,1,13.84,13.25,13.7,13.7,0,0,1-12.8,14.43A13.49,13.49,0,0,1,156.69,284.3Z"/><path class="cls-12" d="M238.46,280.16a13.7,13.7,0,0,1-12.8,14.43,13.49,13.49,0,0,1-13.84-13.25,13.7,13.7,0,0,1,12.8-14.43A13.49,13.49,0,0,1,238.46,280.16Z"/><path class="cls-14" d="M182.76,323.82c-5.41,5.85-14.51,5.49-20.33-.81s-6.15-16.15-.75-22,14.51-5.49,20.33.81S188.17,318,182.76,323.82Z"/><path class="cls-14" d="M203.35,325.44c-5.41,5.85-14.51,5.49-20.33-.81s-6.15-16.15-.75-22,14.51-5.49,20.33.81S208.76,319.59,203.35,325.44Z"/><path class="cls-13" d="M203.63,319.87a13.12,13.12,0,0,1-19.58-.2,15.87,15.87,0,0,1-.18-21.19,13.12,13.12,0,0,1,19.58.2A15.87,15.87,0,0,1,203.63,319.87Z"/><path class="cls-14" d="M226.93,324.23c-5.41,5.85-14.51,5.49-20.33-.81s-6.15-16.15-.75-22,14.51-5.49,20.33.81S232.34,318.37,226.93,324.23Z"/><path class="cls-14" d="M246,309.64c-5.41,5.85-14.51,5.49-20.33-.81s-6.15-16.15-.75-22,14.51-5.49,20.33.81S251.43,303.79,246,309.64Z"/><path class="cls-13" d="M240.72,307.74c-6.12,3.83-14.07,1.33-17.75-5.57s-1.7-15.59,4.42-19.42,14.07-1.33,17.75,5.57S246.85,303.91,240.72,307.74Z"/><path class="cls-14" d="M147.54,309.23c-7-3.32-10-12.63-6.71-20.79s11.66-12.08,18.66-8.76,10,12.63,6.71,20.79S154.55,312.55,147.54,309.23Z"/><path class="cls-13" d="M147.25,303.2c-5.52-4.78-6.27-13.7-1.67-19.92s12.8-7.39,18.32-2.62,6.27,13.7,1.67,19.92S152.77,308,147.25,303.2Z"/><path class="cls-13" d="M183,318.25a13.12,13.12,0,0,1-19.58-.2,15.87,15.87,0,0,1-.18-21.19,13.12,13.12,0,0,1,19.58.2A15.87,15.87,0,0,1,183,318.25Z"/><path class="cls-13" d="M222.43,321.83c-6.56,4.1-15,1.56-18.87-5.68s-1.67-16.42,4.89-20.52,15-1.56,18.87,5.68S229,317.73,222.43,321.83Z"/><path class="cls-13" d="M237.76,280.73A13.7,13.7,0,0,1,225,295.16a13.49,13.49,0,0,1-13.84-13.25,13.7,13.7,0,0,1,12.8-14.43A13.49,13.49,0,0,1,237.76,280.73Z"/><path class="cls-14" d="M164.5,278.32c-1.86-5.62,1.83-11.7,8.26-13.58s13.14,1.14,15,6.75-1.83,11.7-8.26,13.58S166.36,283.94,164.5,278.32Z"/><path class="cls-15" d="M167.78,275.34c-.24-5.43,4.45-10,10.46-10.26s11.08,4,11.31,9.42-4.45,10-10.46,10.26S168,280.78,167.78,275.34Z"/><path class="cls-14" d="M230.74,273c2,5.49-2,11.43-9.05,13.27s-14.41-1.11-16.45-6.6,2-11.43,9.05-13.27S228.7,267.55,230.74,273Z"/><path class="cls-15" d="M226.45,279.79c-3.22,5.32-10.6,7.61-16.49,5.12s-8-8.83-4.83-14.16,10.6-7.61,16.49-5.12S229.67,274.47,226.45,279.79Z"/><path class="cls-14" d="M189.5,304.77c-4.74,4.46-12.72,4.18-17.82-.61s-5.39-12.31-.65-16.77,12.72-4.18,17.82.61S194.24,300.31,189.5,304.77Z"/><path class="cls-14" d="M209.24,304.61c-4.76,4.48-12.78,4.21-17.91-.62s-5.42-12.37-.66-16.85,12.78-4.21,17.91.62S214,300.13,209.24,304.61Z"/><path class="cls-15" d="M209.49,300.35a12.75,12.75,0,0,1-17.25-.15,11,11,0,0,1-.16-16.23,12.75,12.75,0,0,1,17.25.15A11,11,0,0,1,209.49,300.35Z"/><path class="cls-14" d="M228.73,298.71c-4.74,4.46-12.72,4.19-17.82-.61s-5.39-12.31-.65-16.77,12.72-4.19,17.82.61S233.47,294.24,228.73,298.71Z"/><path class="cls-15" d="M224.33,297.1a11.85,11.85,0,0,1-15.66-3.84,10.43,10.43,0,0,1,3.49-14.89,11.85,11.85,0,0,1,15.66,3.84A10.43,10.43,0,0,1,224.33,297.1Z"/><path class="cls-14" d="M160.69,292.3A9.69,9.69,0,0,1,155.77,279a10.8,10.8,0,0,1,13.68-5.59,9.69,9.69,0,0,1,4.92,13.25A10.8,10.8,0,0,1,160.69,292.3Z"/><path class="cls-15" d="M160.47,288.45a8.66,8.66,0,0,1-1.23-12.7,10,10,0,0,1,13.43-1.67,8.66,8.66,0,0,1,1.23,12.7A10,10,0,0,1,160.47,288.45Z"/><path class="cls-15" d="M189.76,300.5a12.68,12.68,0,0,1-17.16-.12,11,11,0,0,1-.19-16.15,12.68,12.68,0,0,1,17.16.12A11,11,0,0,1,189.76,300.5Z"/><path class="cls-16" d="M175.54,265.07a8.07,8.07,0,0,1,5.46-9.85,7.73,7.73,0,0,1,9.92,4.9,8.07,8.07,0,0,1-5.46,9.85A7.73,7.73,0,0,1,175.54,265.07Z"/><path class="cls-17" d="M177.71,262.91a7.21,7.21,0,1,1,7.48,6.83A7.19,7.19,0,0,1,177.71,262.91Z"/><path class="cls-16" d="M219.34,261.24c1.35,4-1.33,8.28-6,9.62s-9.53-.81-10.88-4.78,1.33-8.28,6-9.62S218,257.26,219.34,261.24Z"/><path class="cls-17" d="M216.51,266.13a8.56,8.56,0,0,1-10.9,3.71,7.25,7.25,0,0,1-3.19-10.26,8.56,8.56,0,0,1,10.9-3.71A7.25,7.25,0,0,1,216.51,266.13Z"/><path class="cls-16" d="M192.07,284.24c-3.13,3.23-8.41,3-11.78-.45s-3.57-8.92-.43-12.15,8.41-3,11.78.45S195.21,281,192.07,284.24Z"/><path class="cls-16" d="M205.13,284.13c-3.15,3.25-8.45,3-11.84-.45s-3.58-9-.43-12.22,8.45-3,11.84.45S208.28,280.88,205.13,284.13Z"/><path class="cls-17" d="M205.29,281a7.89,7.89,0,0,1-11.41-.11,8.51,8.51,0,0,1-.11-11.77,7.89,7.89,0,0,1,11.41.11A8.51,8.51,0,0,1,205.29,281Z"/><path class="cls-16" d="M218,279.84c-3.13,3.23-8.41,3-11.78-.45s-3.57-8.92-.43-12.16,8.41-3,11.78.45S221.15,276.61,218,279.84Z"/><path class="cls-17" d="M214.94,278.79a7.46,7.46,0,0,1-10.29-3.07A8,8,0,0,1,207.22,265a7.46,7.46,0,0,1,10.29,3.07A8,8,0,0,1,214.94,278.79Z"/><path class="cls-16" d="M173,275.2c-3.4-1.53-4.85-5.83-3.25-9.6s5.65-5.58,9-4,4.85,5.83,3.25,9.6S176.42,276.73,173,275.2Z"/><path class="cls-17" d="M172.88,272.41a6.68,6.68,0,0,1-.81-9.2A6.21,6.21,0,0,1,181,262a6.68,6.68,0,0,1,.81,9.2A6.21,6.21,0,0,1,172.88,272.41Z"/><path class="cls-17" d="M191.13,281c-3.37,3.46-8.52,3.76-11.51.67s-2.68-8.41.69-11.87,8.52-3.76,11.51-.67S194.5,277.56,191.13,281Z"/><path class="cls-17" d="M186,257.14c2.81-5.94,9.49-8.95,14.91-6.71s7.54,8.86,4.72,14.81-9.49,8.95-14.91,6.71S183.19,263.08,186,257.14Z"/><ellipse class="cls-8" cx="68.52" cy="430.7" rx="9.87" ry="7.25"/><rect class="cls-8" x="58.65" y="402.68" width="19.74" height="27.44"/><path class="cls-8" d="M58.92,430c-2.55,2.9-6.68,4.1-10.62,4.84-.64.12-1.44.4-1.43,1,0,.45.48.75.92.92,1.88.72,4,.38,6,.18a40.49,40.49,0,0,1,5.93-.15,2.35,2.35,0,0,1,1.22.29c1,.66.3,2.09-.43,3L57.32,444c3.84.41,7.19-2.4,11-3.17,4.49-.91,9,1.14,13.62,1.29.61,0,1.43-.19,1.4-.76a.91.91,0,0,0-.46-.63c-1.18-.82-3.09-1-3.54-2.28-.4-1.15.81-2.33,2.09-2.55a10.83,10.83,0,0,1,3.84.44,4.54,4.54,0,0,0,3.71-.52.56.56,0,0,0,.2-.25c.07-.23-.14-.44-.34-.58-2-1.41-4.64-1.51-6.93-2.4-1.88-.73-3.5-2-5.45-2.51a15.25,15.25,0,0,0-3.51-.36l-8-.2c-2.52-.06-2.65-.58-5,.2"/><path class="cls-9" d="M54.15,411c-6.37,6.2-17.09,5.82-23.94-.85s-7.25-17.12-.88-23.32,17.09-5.82,23.94.85S60.52,404.85,54.15,411Z"/><path class="cls-9" d="M78.39,412.77c-6.37,6.2-17.09,5.82-23.94-.85s-7.25-17.12-.88-23.32,17.09-5.82,23.94.85S84.76,406.56,78.39,412.77Z"/><path class="cls-10" d="M78.72,406.86a16.61,16.61,0,0,1-23.06-.21,15.6,15.6,0,0,1-.22-22.46,16.61,16.61,0,0,1,23.06.21A15.6,15.6,0,0,1,78.72,406.86Z"/><path class="cls-9" d="M106.16,411.48c-6.37,6.2-17.09,5.82-23.94-.85S75,393.51,81.34,387.3s17.09-5.82,23.94.85S112.53,405.27,106.16,411.48Z"/><path class="cls-9" d="M128.64,396c-6.37,6.2-17.09,5.82-23.94-.85s-7.25-17.12-.88-23.32,17.09-5.82,23.94.85S135,389.82,128.64,396Z"/><path class="cls-10" d="M122.4,394a15.61,15.61,0,0,1-20.9-5.9,14.78,14.78,0,0,1,5.21-20.58,15.61,15.61,0,0,1,20.9,5.9A14.78,14.78,0,0,1,122.4,394Z"/><path class="cls-9" d="M12.68,395.58c-8.25-3.52-11.79-13.38-7.9-22s13.73-12.81,22-9.29,11.79,13.38,7.9,22S20.93,399.1,12.68,395.58Z"/><path class="cls-10" d="M12.34,389.19a14.73,14.73,0,0,1-2-21.11c5.41-6.59,15.07-7.84,21.57-2.77a14.73,14.73,0,0,1,2,21.11C28.5,393,18.84,394.25,12.34,389.19Z"/><path class="cls-10" d="M54.48,405.14a16.61,16.61,0,0,1-23.06-.21,15.6,15.6,0,0,1-.22-22.46,16.61,16.61,0,0,1,23.06.21A15.6,15.6,0,0,1,54.48,405.14Z"/><path class="cls-10" d="M100.86,408.94a16.54,16.54,0,0,1-22.21-6,15.66,15.66,0,0,1,5.76-21.75,16.54,16.54,0,0,1,22.21,6A15.66,15.66,0,0,1,100.86,408.94Z"/><path class="cls-11" d="M111.28,343.5a13.7,13.7,0,0,1-12.8,14.43,13.49,13.49,0,0,1-13.84-13.25,13.7,13.7,0,0,1,12.8-14.43A13.49,13.49,0,0,1,111.28,343.5Z"/><path class="cls-12" d="M25.94,352.32A15.79,15.79,0,0,1,36,333.21a14.16,14.16,0,0,1,18.35,9.5,15.79,15.79,0,0,1-10.1,19.11A14.16,14.16,0,0,1,25.94,352.32Z"/><path class="cls-13" d="M30,348.13a13.7,13.7,0,0,1,12.8-14.43A13.49,13.49,0,0,1,56.59,347a13.7,13.7,0,0,1-12.8,14.43A13.49,13.49,0,0,1,30,348.13Z"/><path class="cls-12" d="M111.73,344a13.7,13.7,0,0,1-12.8,14.43,13.49,13.49,0,0,1-13.84-13.25,13.7,13.7,0,0,1,12.8-14.43A13.49,13.49,0,0,1,111.73,344Z"/><path class="cls-14" d="M56,387.65c-5.41,5.85-14.51,5.49-20.33-.81s-6.15-16.15-.75-22,14.51-5.49,20.33.81S61.44,381.79,56,387.65Z"/><path class="cls-14" d="M76.62,389.27c-5.41,5.85-14.51,5.49-20.33-.81s-6.15-16.15-.75-22,14.51-5.49,20.33.81S82,383.41,76.62,389.27Z"/><path class="cls-13" d="M76.9,383.7a13.12,13.12,0,0,1-19.58-.2,15.87,15.87,0,0,1-.18-21.19,13.12,13.12,0,0,1,19.58.2A15.87,15.87,0,0,1,76.9,383.7Z"/><path class="cls-14" d="M100.2,388.05c-5.41,5.85-14.51,5.49-20.33-.81s-6.15-16.15-.75-22,14.51-5.49,20.33.81S105.61,382.2,100.2,388.05Z"/><path class="cls-14" d="M119.29,373.47c-5.41,5.85-14.51,5.49-20.33-.81s-6.15-16.15-.75-22,14.51-5.49,20.33.81S124.7,367.61,119.29,373.47Z"/><path class="cls-13" d="M114,371.56c-6.12,3.83-14.07,1.33-17.75-5.57s-1.7-15.59,4.42-19.42,14.07-1.33,17.75,5.57S120.11,367.74,114,371.56Z"/><path class="cls-14" d="M20.81,373.05c-7-3.32-10-12.63-6.71-20.79s11.66-12.08,18.66-8.76,10,12.63,6.71,20.79S27.82,376.37,20.81,373.05Z"/><path class="cls-13" d="M20.52,367c-5.52-4.78-6.27-13.7-1.67-19.92s12.8-7.39,18.32-2.62,6.27,13.7,1.67,19.92S26,371.8,20.52,367Z"/><path class="cls-13" d="M56.31,382.08a13.12,13.12,0,0,1-19.58-.2,15.87,15.87,0,0,1-.18-21.19,13.12,13.12,0,0,1,19.58.2A15.87,15.87,0,0,1,56.31,382.08Z"/><path class="cls-13" d="M95.69,385.65c-6.56,4.1-15,1.56-18.87-5.68s-1.67-16.42,4.89-20.52,15-1.56,18.87,5.68S102.25,381.55,95.69,385.65Z"/><path class="cls-13" d="M111,344.55A13.7,13.7,0,0,1,98.23,359,13.49,13.49,0,0,1,84.4,345.73a13.7,13.7,0,0,1,12.8-14.43A13.49,13.49,0,0,1,111,344.55Z"/><path class="cls-14" d="M37.77,342.15c-1.86-5.62,1.83-11.7,8.26-13.58s13.14,1.14,15,6.75S59.2,347,52.77,348.9,39.63,347.77,37.77,342.15Z"/><path class="cls-15" d="M41.05,339.17c-.24-5.43,4.45-10,10.46-10.26s11.08,4,11.31,9.42-4.45,10-10.46,10.26S41.29,344.6,41.05,339.17Z"/><path class="cls-14" d="M104,336.86c2,5.49-2,11.43-9.05,13.27S80.55,349,78.5,343.53s2-11.43,9.05-13.27S102,331.38,104,336.86Z"/><path class="cls-15" d="M99.72,343.62c-3.22,5.32-10.6,7.61-16.49,5.12s-8-8.83-4.83-14.16S89,327,94.89,329.46,102.94,338.29,99.72,343.62Z"/><path class="cls-14" d="M62.77,368.59c-4.74,4.46-12.72,4.18-17.82-.61s-5.39-12.31-.65-16.77S57,347,62.12,351.83,67.51,364.13,62.77,368.59Z"/><path class="cls-14" d="M82.51,368.44c-4.76,4.48-12.78,4.21-17.91-.62s-5.42-12.37-.66-16.85,12.78-4.21,17.91.62S87.28,364,82.51,368.44Z"/><path class="cls-15" d="M82.76,364.17A12.75,12.75,0,0,1,65.51,364a11,11,0,0,1-.16-16.23,12.75,12.75,0,0,1,17.25.15A11,11,0,0,1,82.76,364.17Z"/><path class="cls-14" d="M102,362.53c-4.74,4.46-12.72,4.19-17.82-.61s-5.39-12.31-.65-16.77,12.72-4.19,17.82.61S106.74,358.07,102,362.53Z"/><path class="cls-15" d="M97.6,360.93a11.85,11.85,0,0,1-15.66-3.84,10.43,10.43,0,0,1,3.49-14.89A11.85,11.85,0,0,1,101.09,346,10.43,10.43,0,0,1,97.6,360.93Z"/><path class="cls-14" d="M34,356.12A9.69,9.69,0,0,1,29,342.87a10.8,10.8,0,0,1,13.68-5.59,9.69,9.69,0,0,1,4.92,13.25A10.8,10.8,0,0,1,34,356.12Z"/><path class="cls-15" d="M33.74,352.28a8.66,8.66,0,0,1-1.23-12.7,10,10,0,0,1,13.43-1.67,8.66,8.66,0,0,1,1.23,12.7A10,10,0,0,1,33.74,352.28Z"/><path class="cls-15" d="M63,364.33a12.68,12.68,0,0,1-17.16-.12,11,11,0,0,1-.19-16.15,12.68,12.68,0,0,1,17.16.12A11,11,0,0,1,63,364.33Z"/><path class="cls-16" d="M48.81,328.89A8.07,8.07,0,0,1,54.27,319a7.73,7.73,0,0,1,9.92,4.9,8.07,8.07,0,0,1-5.46,9.85A7.73,7.73,0,0,1,48.81,328.89Z"/><path class="cls-17" d="M51,326.73a7.21,7.21,0,1,1,7.48,6.83A7.19,7.19,0,0,1,51,326.73Z"/><path class="cls-16" d="M92.61,325.06c1.35,4-1.33,8.28-6,9.62s-9.53-.81-10.88-4.78,1.33-8.28,6-9.62S91.26,321.09,92.61,325.06Z"/><path class="cls-17" d="M89.78,330a8.56,8.56,0,0,1-10.9,3.71,7.25,7.25,0,0,1-3.19-10.26,8.56,8.56,0,0,1,10.9-3.71A7.25,7.25,0,0,1,89.78,330Z"/><path class="cls-16" d="M65.34,348.06c-3.13,3.23-8.41,3-11.78-.45s-3.57-8.92-.43-12.15,8.41-3,11.78.45S68.48,344.83,65.34,348.06Z"/><path class="cls-16" d="M78.4,348c-3.15,3.25-8.45,3-11.84-.45s-3.58-9-.43-12.22,8.45-3,11.84.45S81.55,344.7,78.4,348Z"/><path class="cls-17" d="M78.56,344.86a7.89,7.89,0,0,1-11.41-.11A8.51,8.51,0,0,1,67,333a7.89,7.89,0,0,1,11.41.11A8.51,8.51,0,0,1,78.56,344.86Z"/><path class="cls-16" d="M91.28,343.67c-3.13,3.23-8.41,3-11.78-.45s-3.57-8.92-.43-12.16,8.41-3,11.78.45S94.42,340.44,91.28,343.67Z"/><path class="cls-17" d="M88.21,342.62a7.46,7.46,0,0,1-10.29-3.07,8,8,0,0,1,2.56-10.73,7.46,7.46,0,0,1,10.29,3.07A8,8,0,0,1,88.21,342.62Z"/><path class="cls-16" d="M46.29,339c-3.4-1.53-4.85-5.83-3.25-9.6s5.65-5.58,9-4,4.85,5.83,3.25,9.6S49.69,340.56,46.29,339Z"/><path class="cls-17" d="M46.15,336.24a6.68,6.68,0,0,1-.81-9.2,6.21,6.21,0,0,1,8.88-1.21A6.68,6.68,0,0,1,55,335,6.21,6.21,0,0,1,46.15,336.24Z"/><path class="cls-17" d="M64.4,344.85c-3.37,3.46-8.52,3.76-11.51.67s-2.68-8.41.69-11.87,8.52-3.76,11.51-.67S67.77,341.38,64.4,344.85Z"/><path class="cls-17" d="M59.27,321c2.81-5.94,9.49-8.95,14.91-6.71s7.54,8.86,4.72,14.81S69.42,338,64,335.77,56.46,326.91,59.27,321Z"/><ellipse class="cls-8" cx="191.93" cy="430.7" rx="9.87" ry="7.25"/><rect class="cls-8" x="182.05" y="402.68" width="19.74" height="27.44"/><path class="cls-8" d="M182.32,430c-2.55,2.9-6.68,4.1-10.62,4.84-.64.12-1.44.4-1.43,1,0,.45.48.75.92.92,1.88.72,4,.38,6,.18a40.49,40.49,0,0,1,5.93-.15,2.35,2.35,0,0,1,1.22.29c1,.66.3,2.09-.43,3L180.72,444c3.84.41,7.19-2.4,11-3.17,4.49-.91,9,1.14,13.62,1.29.61,0,1.43-.19,1.4-.76a.91.91,0,0,0-.46-.63c-1.18-.82-3.09-1-3.54-2.28-.4-1.15.81-2.33,2.09-2.55a10.83,10.83,0,0,1,3.84.44,4.54,4.54,0,0,0,3.71-.52.56.56,0,0,0,.2-.25c.07-.23-.14-.44-.34-.58-2-1.41-4.64-1.51-6.93-2.4-1.88-.73-3.5-2-5.45-2.51a15.25,15.25,0,0,0-3.51-.36l-8-.2c-2.52-.06-2.65-.58-5,.2"/><path class="cls-9" d="M177.55,411c-6.37,6.2-17.09,5.82-23.94-.85s-7.25-17.12-.88-23.32,17.09-5.82,23.94.85S183.92,404.85,177.55,411Z"/><path class="cls-9" d="M201.79,412.77c-6.37,6.2-17.09,5.82-23.94-.85s-7.25-17.12-.88-23.32,17.09-5.82,23.94.85S208.16,406.56,201.79,412.77Z"/><path class="cls-10" d="M202.12,406.86a16.61,16.61,0,0,1-23.06-.21,15.6,15.6,0,0,1-.22-22.46,16.61,16.61,0,0,1,23.06.21A15.6,15.6,0,0,1,202.12,406.86Z"/><path class="cls-9" d="M229.56,411.48c-6.37,6.2-17.09,5.82-23.94-.85s-7.25-17.12-.88-23.32,17.09-5.82,23.94.85S235.93,405.27,229.56,411.48Z"/><path class="cls-9" d="M252,396c-6.37,6.2-17.09,5.82-23.94-.85s-7.25-17.12-.88-23.32,17.09-5.82,23.94.85S258.41,389.82,252,396Z"/><path class="cls-10" d="M245.8,394a15.61,15.61,0,0,1-20.9-5.9,14.78,14.78,0,0,1,5.21-20.58,15.61,15.61,0,0,1,20.9,5.9A14.78,14.78,0,0,1,245.8,394Z"/><path class="cls-9" d="M136.09,395.58c-8.25-3.52-11.79-13.38-7.9-22s13.73-12.81,22-9.29,11.79,13.38,7.9,22S144.34,399.1,136.09,395.58Z"/><path class="cls-10" d="M135.74,389.19a14.73,14.73,0,0,1-2-21.11c5.41-6.59,15.07-7.84,21.57-2.77a14.73,14.73,0,0,1,2,21.11C151.9,393,142.24,394.25,135.74,389.19Z"/><path class="cls-10" d="M177.88,405.14a16.61,16.61,0,0,1-23.06-.21,15.6,15.6,0,0,1-.22-22.46,16.61,16.61,0,0,1,23.06.21A15.6,15.6,0,0,1,177.88,405.14Z"/><path class="cls-10" d="M224.26,408.94a16.54,16.54,0,0,1-22.21-6,15.66,15.66,0,0,1,5.76-21.75,16.54,16.54,0,0,1,22.21,6A15.66,15.66,0,0,1,224.26,408.94Z"/><path class="cls-11" d="M234.68,343.5a13.7,13.7,0,0,1-12.8,14.43A13.49,13.49,0,0,1,208,344.67a13.7,13.7,0,0,1,12.8-14.43A13.49,13.49,0,0,1,234.68,343.5Z"/><path class="cls-12" d="M149.35,352.32a15.79,15.79,0,0,1,10.1-19.11,14.16,14.16,0,0,1,18.35,9.5,15.79,15.79,0,0,1-10.1,19.11A14.16,14.16,0,0,1,149.35,352.32Z"/><path class="cls-13" d="M153.36,348.13a13.7,13.7,0,0,1,12.8-14.43A13.49,13.49,0,0,1,180,347a13.7,13.7,0,0,1-12.8,14.43A13.49,13.49,0,0,1,153.36,348.13Z"/><path class="cls-12" d="M235.13,344a13.7,13.7,0,0,1-12.8,14.43,13.49,13.49,0,0,1-13.84-13.25,13.7,13.7,0,0,1,12.8-14.43A13.49,13.49,0,0,1,235.13,344Z"/><path class="cls-14" d="M179.43,387.65c-5.41,5.85-14.51,5.49-20.33-.81s-6.15-16.15-.75-22,14.51-5.49,20.33.81S184.84,381.79,179.43,387.65Z"/><path class="cls-14" d="M200,389.27c-5.41,5.85-14.51,5.49-20.33-.81s-6.15-16.15-.75-22,14.51-5.49,20.33.81S205.42,383.41,200,389.27Z"/><path class="cls-13" d="M200.3,383.7a13.12,13.12,0,0,1-19.58-.2,15.87,15.87,0,0,1-.18-21.19,13.12,13.12,0,0,1,19.58.2A15.87,15.87,0,0,1,200.3,383.7Z"/><path class="cls-14" d="M223.6,388.05c-5.41,5.85-14.51,5.49-20.33-.81s-6.15-16.15-.75-22,14.51-5.49,20.33.81S229,382.2,223.6,388.05Z"/><path class="cls-14" d="M242.69,373.47c-5.41,5.85-14.51,5.49-20.33-.81s-6.15-16.15-.75-22,14.51-5.49,20.33.81S248.1,367.61,242.69,373.47Z"/><path class="cls-13" d="M237.39,371.56c-6.12,3.83-14.07,1.33-17.75-5.57s-1.7-15.59,4.42-19.42,14.07-1.33,17.75,5.57S243.52,367.74,237.39,371.56Z"/><path class="cls-14" d="M144.21,373.05c-7-3.32-10-12.63-6.71-20.79s11.66-12.08,18.66-8.76,10,12.63,6.71,20.79S151.22,376.37,144.21,373.05Z"/><path class="cls-13" d="M143.92,367c-5.52-4.78-6.27-13.7-1.67-19.92s12.8-7.39,18.32-2.62,6.27,13.7,1.67,19.92S149.44,371.8,143.92,367Z"/><path class="cls-13" d="M179.71,382.08a13.12,13.12,0,0,1-19.58-.2,15.87,15.87,0,0,1-.18-21.19,13.12,13.12,0,0,1,19.58.2A15.87,15.87,0,0,1,179.71,382.08Z"/><path class="cls-13" d="M219.1,385.65c-6.56,4.1-15,1.56-18.87-5.68s-1.67-16.42,4.89-20.52,15-1.56,18.87,5.68S225.66,381.55,219.1,385.65Z"/><path class="cls-13" d="M234.43,344.55A13.7,13.7,0,0,1,221.64,359a13.49,13.49,0,0,1-13.84-13.25,13.7,13.7,0,0,1,12.8-14.43A13.49,13.49,0,0,1,234.43,344.55Z"/><path class="cls-14" d="M161.17,342.15c-1.86-5.62,1.83-11.7,8.26-13.58s13.14,1.14,15,6.75-1.83,11.7-8.26,13.58S163,347.77,161.17,342.15Z"/><path class="cls-15" d="M164.45,339.17c-.24-5.43,4.45-10,10.46-10.26s11.08,4,11.31,9.42-4.45,10-10.46,10.26S164.69,344.6,164.45,339.17Z"/><path class="cls-14" d="M227.41,336.86c2,5.49-2,11.43-9.05,13.27s-14.41-1.11-16.45-6.6,2-11.43,9.05-13.27S225.37,331.38,227.41,336.86Z"/><path class="cls-15" d="M223.12,343.62c-3.22,5.32-10.6,7.61-16.49,5.12s-8-8.83-4.83-14.16,10.6-7.61,16.49-5.12S226.34,338.29,223.12,343.62Z"/><path class="cls-14" d="M186.17,368.59c-4.74,4.46-12.72,4.18-17.82-.61s-5.39-12.31-.65-16.77,12.72-4.18,17.82.61S190.91,364.13,186.17,368.59Z"/><path class="cls-14" d="M205.91,368.44c-4.76,4.48-12.78,4.21-17.91-.62s-5.42-12.37-.66-16.85,12.78-4.21,17.91.62S210.68,364,205.91,368.44Z"/><path class="cls-15" d="M206.16,364.17a12.75,12.75,0,0,1-17.25-.15,11,11,0,0,1-.16-16.23,12.75,12.75,0,0,1,17.25.15A11,11,0,0,1,206.16,364.17Z"/><path class="cls-14" d="M225.4,362.53c-4.74,4.46-12.72,4.19-17.82-.61s-5.39-12.31-.65-16.77,12.72-4.19,17.82.61S230.14,358.07,225.4,362.53Z"/><path class="cls-15" d="M221,360.93a11.85,11.85,0,0,1-15.66-3.84,10.43,10.43,0,0,1,3.49-14.89A11.85,11.85,0,0,1,224.49,346,10.43,10.43,0,0,1,221,360.93Z"/><path class="cls-14" d="M157.36,356.12a9.69,9.69,0,0,1-4.92-13.25,10.8,10.8,0,0,1,13.68-5.59A9.69,9.69,0,0,1,171,350.53,10.8,10.8,0,0,1,157.36,356.12Z"/><path class="cls-15" d="M157.14,352.28a8.66,8.66,0,0,1-1.23-12.7,10,10,0,0,1,13.43-1.67,8.66,8.66,0,0,1,1.23,12.7A10,10,0,0,1,157.14,352.28Z"/><path class="cls-15" d="M186.43,364.33a12.68,12.68,0,0,1-17.16-.12,11,11,0,0,1-.19-16.15,12.68,12.68,0,0,1,17.16.12A11,11,0,0,1,186.43,364.33Z"/><path class="cls-16" d="M172.21,328.89a8.07,8.07,0,0,1,5.46-9.85,7.73,7.73,0,0,1,9.92,4.9,8.07,8.07,0,0,1-5.46,9.85A7.73,7.73,0,0,1,172.21,328.89Z"/><path class="cls-17" d="M174.38,326.73a7.21,7.21,0,1,1,7.48,6.83A7.19,7.19,0,0,1,174.38,326.73Z"/><path class="cls-16" d="M216,325.06c1.35,4-1.33,8.28-6,9.62s-9.53-.81-10.88-4.78,1.33-8.28,6-9.62S214.66,321.09,216,325.06Z"/><path class="cls-17" d="M213.18,330a8.56,8.56,0,0,1-10.9,3.71,7.25,7.25,0,0,1-3.19-10.26A8.56,8.56,0,0,1,210,319.7,7.25,7.25,0,0,1,213.18,330Z"/><path class="cls-16" d="M188.74,348.06c-3.13,3.23-8.41,3-11.78-.45s-3.57-8.92-.43-12.15,8.41-3,11.78.45S191.88,344.83,188.74,348.06Z"/><path class="cls-16" d="M201.8,348c-3.15,3.25-8.45,3-11.84-.45s-3.58-9-.43-12.22,8.45-3,11.84.45S204.95,344.7,201.8,348Z"/><path class="cls-17" d="M202,344.86a7.89,7.89,0,0,1-11.41-.11,8.51,8.51,0,0,1-.11-11.77,7.89,7.89,0,0,1,11.41.11A8.51,8.51,0,0,1,202,344.86Z"/><path class="cls-16" d="M214.68,343.67c-3.13,3.23-8.41,3-11.78-.45s-3.57-8.92-.43-12.16,8.41-3,11.78.45S217.82,340.44,214.68,343.67Z"/><path class="cls-17" d="M211.61,342.62a7.46,7.46,0,0,1-10.29-3.07,8,8,0,0,1,2.56-10.73,7.46,7.46,0,0,1,10.29,3.07A8,8,0,0,1,211.61,342.62Z"/><path class="cls-16" d="M169.69,339c-3.4-1.53-4.85-5.83-3.25-9.6s5.65-5.58,9-4,4.85,5.83,3.25,9.6S173.09,340.56,169.69,339Z"/><path class="cls-17" d="M169.55,336.24a6.68,6.68,0,0,1-.81-9.2,6.21,6.21,0,0,1,8.88-1.21,6.68,6.68,0,0,1,.81,9.2A6.21,6.21,0,0,1,169.55,336.24Z"/><path class="cls-17" d="M187.8,344.85c-3.37,3.46-8.52,3.76-11.51.67s-2.68-8.41.69-11.87,8.52-3.76,11.51-.67S191.17,341.38,187.8,344.85Z"/><path class="cls-17" d="M182.68,321c2.81-5.94,9.49-8.95,14.91-6.71s7.54,8.86,4.72,14.81-9.49,8.95-14.91,6.71S179.86,326.91,182.68,321Z"/><ellipse class="cls-8" cx="70.74" cy="491.21" rx="9.87" ry="7.25"/><rect class="cls-8" x="60.87" y="463.19" width="19.74" height="27.44"/><path class="cls-8" d="M61.14,490.49c-2.55,2.9-6.68,4.1-10.62,4.84-.64.12-1.44.4-1.43,1,0,.45.48.75.92.92,1.88.72,4,.38,6,.18A40.49,40.49,0,0,1,62,497.3a2.35,2.35,0,0,1,1.22.29c1,.66.3,2.09-.43,3l-3.21,3.92c3.84.41,7.19-2.4,11-3.17,4.49-.91,9,1.14,13.62,1.29.61,0,1.43-.19,1.4-.76a.91.91,0,0,0-.46-.63c-1.18-.82-3.09-1-3.54-2.28-.4-1.15.81-2.33,2.09-2.55a10.83,10.83,0,0,1,3.84.44,4.54,4.54,0,0,0,3.71-.52.56.56,0,0,0,.2-.25c.07-.23-.14-.44-.34-.58-2-1.41-4.64-1.51-6.93-2.4-1.88-.73-3.5-2-5.45-2.51a15.25,15.25,0,0,0-3.51-.36l-8-.2c-2.52-.06-2.65-.58-5,.2"/><path class="cls-9" d="M56.37,471.56c-6.37,6.2-17.09,5.82-23.94-.85s-7.25-17.12-.88-23.32,17.09-5.82,23.94.85S62.74,465.36,56.37,471.56Z"/><path class="cls-9" d="M80.61,473.28c-6.37,6.2-17.09,5.82-23.94-.85s-7.25-17.12-.88-23.32,17.09-5.82,23.94.85S87,467.07,80.61,473.28Z"/><path class="cls-10" d="M80.94,467.37a16.61,16.61,0,0,1-23.06-.21,15.6,15.6,0,0,1-.22-22.46,16.61,16.61,0,0,1,23.06.21A15.6,15.6,0,0,1,80.94,467.37Z"/><path class="cls-9" d="M108.38,472c-6.37,6.2-17.09,5.82-23.94-.85S77.2,454,83.57,447.81s17.09-5.82,23.94.85S114.75,465.78,108.38,472Z"/><path class="cls-9" d="M130.86,456.53c-6.37,6.2-17.09,5.82-23.94-.85s-7.25-17.12-.88-23.32,17.09-5.82,23.94.85S137.23,450.33,130.86,456.53Z"/><path class="cls-10" d="M124.62,454.52a15.61,15.61,0,0,1-20.9-5.9A14.78,14.78,0,0,1,108.93,428a15.61,15.61,0,0,1,20.9,5.9A14.78,14.78,0,0,1,124.62,454.52Z"/><path class="cls-9" d="M14.9,456.09c-8.25-3.52-11.79-13.38-7.9-22s13.73-12.81,22-9.29,11.79,13.38,7.9,22S23.15,459.61,14.9,456.09Z"/><path class="cls-10" d="M14.56,449.7a14.73,14.73,0,0,1-2-21.11c5.41-6.59,15.07-7.84,21.57-2.77a14.73,14.73,0,0,1,2,21.11C30.72,453.52,21.06,454.76,14.56,449.7Z"/><path class="cls-10" d="M56.7,465.66a16.61,16.61,0,0,1-23.06-.21A15.6,15.6,0,0,1,33.43,443a16.61,16.61,0,0,1,23.06.21A15.6,15.6,0,0,1,56.7,465.66Z"/><path class="cls-10" d="M103.08,469.45a16.54,16.54,0,0,1-22.21-6,15.66,15.66,0,0,1,5.76-21.75,16.54,16.54,0,0,1,22.21,6A15.66,15.66,0,0,1,103.08,469.45Z"/><path class="cls-11" d="M113.5,404a13.7,13.7,0,0,1-12.8,14.43,13.49,13.49,0,0,1-13.84-13.25,13.7,13.7,0,0,1,12.8-14.43A13.49,13.49,0,0,1,113.5,404Z"/><path class="cls-12" d="M28.16,412.83a15.79,15.79,0,0,1,10.1-19.11,14.16,14.16,0,0,1,18.35,9.5,15.79,15.79,0,0,1-10.1,19.11A14.16,14.16,0,0,1,28.16,412.83Z"/><path class="cls-13" d="M32.18,408.64A13.7,13.7,0,0,1,45,394.21a13.49,13.49,0,0,1,13.84,13.25A13.7,13.7,0,0,1,46,421.89,13.49,13.49,0,0,1,32.18,408.64Z"/><path class="cls-12" d="M113.95,404.5a13.7,13.7,0,0,1-12.8,14.43,13.49,13.49,0,0,1-13.84-13.25,13.7,13.7,0,0,1,12.8-14.43A13.49,13.49,0,0,1,113.95,404.5Z"/><path class="cls-14" d="M58.25,448.16c-5.41,5.85-14.51,5.49-20.33-.81s-6.15-16.15-.75-22,14.51-5.49,20.33.81S63.66,442.3,58.25,448.16Z"/><path class="cls-14" d="M78.84,449.78c-5.41,5.85-14.51,5.49-20.33-.81s-6.15-16.15-.75-22,14.51-5.49,20.33.81S84.24,443.92,78.84,449.78Z"/><path class="cls-13" d="M79.12,444.21a13.12,13.12,0,0,1-19.58-.2,15.87,15.87,0,0,1-.18-21.19,13.12,13.12,0,0,1,19.58.2A15.87,15.87,0,0,1,79.12,444.21Z"/><path class="cls-14" d="M102.42,448.56c-5.41,5.85-14.51,5.49-20.33-.81s-6.15-16.15-.75-22,14.51-5.49,20.33.81S107.83,442.71,102.42,448.56Z"/><path class="cls-14" d="M121.51,434c-5.41,5.85-14.51,5.49-20.33-.81s-6.15-16.15-.75-22,14.51-5.49,20.33.81S126.92,428.12,121.51,434Z"/><path class="cls-13" d="M116.21,432.08c-6.12,3.83-14.07,1.33-17.75-5.57s-1.7-15.59,4.42-19.42,14.07-1.33,17.75,5.57S122.33,428.25,116.21,432.08Z"/><path class="cls-14" d="M23,433.56c-7-3.32-10-12.63-6.71-20.79S28,400.69,35,404s10,12.63,6.71,20.79S30,436.88,23,433.56Z"/><path class="cls-13" d="M22.74,427.53c-5.52-4.78-6.27-13.7-1.67-19.92s12.8-7.39,18.32-2.62,6.27,13.7,1.67,19.92S28.26,432.31,22.74,427.53Z"/><path class="cls-13" d="M58.53,442.59a13.12,13.12,0,0,1-19.58-.2,15.87,15.87,0,0,1-.18-21.19,13.12,13.12,0,0,1,19.58.2A15.87,15.87,0,0,1,58.53,442.59Z"/><path class="cls-13" d="M97.91,446.16c-6.56,4.1-15,1.56-18.87-5.68S77.38,424.06,83.94,420s15-1.56,18.87,5.68S104.48,442.07,97.91,446.16Z"/><path class="cls-13" d="M113.25,405.06a13.7,13.7,0,0,1-12.8,14.43,13.49,13.49,0,0,1-13.84-13.25,13.7,13.7,0,0,1,12.8-14.43A13.49,13.49,0,0,1,113.25,405.06Z"/><path class="cls-14" d="M40,402.66c-1.86-5.62,1.83-11.7,8.26-13.58s13.14,1.14,15,6.75-1.83,11.7-8.26,13.58S41.85,408.28,40,402.66Z"/><path class="cls-15" d="M43.27,399.68c-.24-5.43,4.45-10,10.46-10.26s11.08,4,11.31,9.42-4.45,10-10.46,10.26S43.51,405.11,43.27,399.68Z"/><path class="cls-14" d="M106.23,397.37c2,5.49-2,11.43-9.05,13.27s-14.41-1.11-16.45-6.6,2-11.43,9.05-13.27S104.19,391.89,106.23,397.37Z"/><path class="cls-15" d="M101.94,404.13c-3.22,5.32-10.6,7.61-16.49,5.12s-8-8.83-4.83-14.16,10.6-7.61,16.49-5.12S105.16,398.8,101.94,404.13Z"/><path class="cls-14" d="M65,429.1c-4.74,4.46-12.72,4.18-17.82-.61s-5.39-12.31-.65-16.77,12.72-4.18,17.82.61S69.73,424.64,65,429.1Z"/><path class="cls-14" d="M84.73,428.95c-4.76,4.48-12.78,4.21-17.91-.62S61.4,416,66.17,411.48s12.78-4.21,17.91.62S89.5,424.47,84.73,428.95Z"/><path class="cls-15" d="M85,424.68a12.75,12.75,0,0,1-17.25-.15,11,11,0,0,1-.16-16.23,12.75,12.75,0,0,1,17.25.15A11,11,0,0,1,85,424.68Z"/><path class="cls-14" d="M104.22,423c-4.74,4.46-12.72,4.19-17.82-.61s-5.39-12.31-.65-16.77,12.72-4.19,17.82.61S109,418.58,104.22,423Z"/><path class="cls-15" d="M99.82,421.44a11.85,11.85,0,0,1-15.66-3.84,10.43,10.43,0,0,1,3.49-14.89,11.85,11.85,0,0,1,15.66,3.84A10.43,10.43,0,0,1,99.82,421.44Z"/><path class="cls-14" d="M36.17,416.63a9.69,9.69,0,0,1-4.92-13.25,10.8,10.8,0,0,1,13.68-5.59A9.69,9.69,0,0,1,49.86,411,10.8,10.8,0,0,1,36.17,416.63Z"/><path class="cls-15" d="M36,412.79a8.66,8.66,0,0,1-1.23-12.7,10,10,0,0,1,13.43-1.67,8.66,8.66,0,0,1,1.23,12.7A10,10,0,0,1,36,412.79Z"/><path class="cls-15" d="M65.25,424.84a12.68,12.68,0,0,1-17.16-.12,11,11,0,0,1-.19-16.15,12.68,12.68,0,0,1,17.16.12A11,11,0,0,1,65.25,424.84Z"/><path class="cls-16" d="M51,389.41a8.07,8.07,0,0,1,5.46-9.85,7.73,7.73,0,0,1,9.92,4.9A8.07,8.07,0,0,1,61,394.3,7.73,7.73,0,0,1,51,389.41Z"/><path class="cls-17" d="M53.2,387.24a7.21,7.21,0,1,1,7.48,6.83A7.19,7.19,0,0,1,53.2,387.24Z"/><path class="cls-16" d="M94.83,385.57c1.35,4-1.33,8.28-6,9.62s-9.53-.81-10.88-4.78,1.33-8.28,6-9.62S93.48,381.6,94.83,385.57Z"/><path class="cls-17" d="M92,390.47a8.56,8.56,0,0,1-10.9,3.71,7.25,7.25,0,0,1-3.19-10.26,8.56,8.56,0,0,1,10.9-3.71A7.25,7.25,0,0,1,92,390.47Z"/><path class="cls-16" d="M67.56,408.57c-3.13,3.23-8.41,3-11.78-.45s-3.57-8.92-.43-12.15,8.41-3,11.78.45S70.7,405.34,67.56,408.57Z"/><path class="cls-16" d="M80.62,408.46c-3.15,3.25-8.45,3-11.84-.45s-3.58-9-.43-12.22,8.45-3,11.84.45S83.77,405.21,80.62,408.46Z"/><path class="cls-17" d="M80.78,405.37a7.89,7.89,0,0,1-11.41-.11,8.51,8.51,0,0,1-.11-11.77,7.89,7.89,0,0,1,11.41.11A8.51,8.51,0,0,1,80.78,405.37Z"/><path class="cls-16" d="M93.5,404.18c-3.13,3.23-8.41,3-11.78-.45s-3.57-8.92-.43-12.16,8.41-3,11.78.45S96.64,400.95,93.5,404.18Z"/><path class="cls-17" d="M90.43,403.13a7.46,7.46,0,0,1-10.29-3.07,8,8,0,0,1,2.56-10.73A7.46,7.46,0,0,1,93,392.4,8,8,0,0,1,90.43,403.13Z"/><path class="cls-16" d="M48.51,399.53c-3.4-1.53-4.85-5.83-3.25-9.6s5.65-5.58,9-4,4.85,5.83,3.25,9.6S51.91,401.07,48.51,399.53Z"/><path class="cls-17" d="M48.37,396.75a6.68,6.68,0,0,1-.81-9.2,6.21,6.21,0,0,1,8.88-1.21,6.68,6.68,0,0,1,.81,9.2A6.21,6.21,0,0,1,48.37,396.75Z"/><path class="cls-17" d="M66.62,405.36c-3.37,3.46-8.52,3.76-11.51.67s-2.68-8.41.69-11.87,8.52-3.76,11.51-.67S70,401.89,66.62,405.36Z"/><path class="cls-17" d="M61.49,381.48c2.81-5.94,9.49-8.95,14.91-6.71s7.54,8.86,4.72,14.81-9.49,8.95-14.91,6.71S58.68,387.42,61.49,381.48Z"/><ellipse class="cls-8" cx="197.48" cy="491.21" rx="9.87" ry="7.25"/><rect class="cls-8" x="187.61" y="463.19" width="19.74" height="27.44"/><path class="cls-8" d="M187.87,490.49c-2.55,2.9-6.68,4.1-10.62,4.84-.64.12-1.44.4-1.43,1,0,.45.48.75.92.92,1.88.72,4,.38,6,.18a40.49,40.49,0,0,1,5.93-.15,2.35,2.35,0,0,1,1.22.29c1,.66.3,2.09-.43,3l-3.21,3.92c3.84.41,7.19-2.4,11-3.17,4.49-.91,9,1.14,13.62,1.29.61,0,1.43-.19,1.4-.76a.91.91,0,0,0-.46-.63c-1.18-.82-3.09-1-3.54-2.28-.4-1.15.81-2.33,2.09-2.55a10.83,10.83,0,0,1,3.84.44,4.54,4.54,0,0,0,3.71-.52.56.56,0,0,0,.2-.25c.07-.23-.14-.44-.34-.58-2-1.41-4.64-1.51-6.93-2.4-1.88-.73-3.5-2-5.45-2.51a15.25,15.25,0,0,0-3.51-.36l-8-.2c-2.52-.06-2.65-.58-5,.2"/><path class="cls-9" d="M183.1,471.56c-6.37,6.2-17.09,5.82-23.94-.85s-7.25-17.12-.88-23.32,17.09-5.82,23.94.85S189.47,465.36,183.1,471.56Z"/><path class="cls-9" d="M207.34,473.28c-6.37,6.2-17.09,5.82-23.94-.85s-7.25-17.12-.88-23.32,17.09-5.82,23.94.85S213.71,467.07,207.34,473.28Z"/><path class="cls-10" d="M207.68,467.37a16.61,16.61,0,0,1-23.06-.21,15.6,15.6,0,0,1-.22-22.46,16.61,16.61,0,0,1,23.06.21A15.6,15.6,0,0,1,207.68,467.37Z"/><path class="cls-9" d="M235.11,472c-6.37,6.2-17.09,5.82-23.94-.85s-7.25-17.12-.88-23.32,17.09-5.82,23.94.85S241.48,465.78,235.11,472Z"/><path class="cls-9" d="M257.59,456.53c-6.37,6.2-17.09,5.82-23.94-.85s-7.25-17.12-.88-23.32,17.09-5.82,23.94.85S264,450.33,257.59,456.53Z"/><path class="cls-10" d="M251.35,454.52a15.61,15.61,0,0,1-20.9-5.9A14.78,14.78,0,0,1,235.66,428a15.61,15.61,0,0,1,20.9,5.9A14.78,14.78,0,0,1,251.35,454.52Z"/><path class="cls-9" d="M141.64,456.09c-8.25-3.52-11.79-13.38-7.9-22s13.73-12.81,22-9.29,11.79,13.38,7.9,22S149.89,459.61,141.64,456.09Z"/><path class="cls-10" d="M141.29,449.7a14.73,14.73,0,0,1-2-21.11c5.41-6.59,15.07-7.84,21.57-2.77a14.73,14.73,0,0,1,2,21.11C157.45,453.52,147.79,454.76,141.29,449.7Z"/><path class="cls-10" d="M183.43,465.66a16.61,16.61,0,0,1-23.06-.21,15.6,15.6,0,0,1-.22-22.46,16.61,16.61,0,0,1,23.06.21A15.6,15.6,0,0,1,183.43,465.66Z"/><path class="cls-10" d="M229.81,469.45a16.54,16.54,0,0,1-22.21-6,15.66,15.66,0,0,1,5.76-21.75,16.54,16.54,0,0,1,22.21,6A15.66,15.66,0,0,1,229.81,469.45Z"/><path class="cls-11" d="M240.23,404a13.7,13.7,0,0,1-12.8,14.43,13.49,13.49,0,0,1-13.84-13.25,13.7,13.7,0,0,1,12.8-14.43A13.49,13.49,0,0,1,240.23,404Z"/><path class="cls-12" d="M154.9,412.83A15.79,15.79,0,0,1,165,393.72a14.16,14.16,0,0,1,18.35,9.5,15.79,15.79,0,0,1-10.1,19.11A14.16,14.16,0,0,1,154.9,412.83Z"/><path class="cls-13" d="M158.91,408.64a13.7,13.7,0,0,1,12.8-14.43,13.49,13.49,0,0,1,13.84,13.25,13.7,13.7,0,0,1-12.8,14.43A13.49,13.49,0,0,1,158.91,408.64Z"/><path class="cls-12" d="M240.68,404.5a13.7,13.7,0,0,1-12.8,14.43A13.49,13.49,0,0,1,214,405.67a13.7,13.7,0,0,1,12.8-14.43A13.49,13.49,0,0,1,240.68,404.5Z"/><path class="cls-14" d="M185,448.16c-5.41,5.85-14.51,5.49-20.33-.81s-6.15-16.15-.75-22,14.51-5.49,20.33.81S190.39,442.3,185,448.16Z"/><path class="cls-14" d="M205.57,449.78c-5.41,5.85-14.51,5.49-20.33-.81s-6.15-16.15-.75-22,14.51-5.49,20.33.81S211,443.92,205.57,449.78Z"/><path class="cls-13" d="M205.85,444.21a13.12,13.12,0,0,1-19.58-.2,15.87,15.87,0,0,1-.18-21.19,13.12,13.12,0,0,1,19.58.2A15.87,15.87,0,0,1,205.85,444.21Z"/><path class="cls-14" d="M229.15,448.56c-5.41,5.85-14.51,5.49-20.33-.81s-6.15-16.15-.75-22,14.51-5.49,20.33.81S234.56,442.71,229.15,448.56Z"/><path class="cls-14" d="M248.24,434c-5.41,5.85-14.51,5.49-20.33-.81s-6.15-16.15-.75-22,14.51-5.49,20.33.81S253.65,428.12,248.24,434Z"/><path class="cls-13" d="M242.94,432.08c-6.12,3.83-14.07,1.33-17.75-5.57s-1.7-15.59,4.42-19.42,14.07-1.33,17.75,5.57S249.07,428.25,242.94,432.08Z"/><path class="cls-14" d="M149.76,433.56c-7-3.32-10-12.63-6.71-20.79s11.66-12.08,18.66-8.76,10,12.63,6.71,20.79S156.77,436.88,149.76,433.56Z"/><path class="cls-13" d="M149.47,427.53c-5.52-4.78-6.27-13.7-1.67-19.92s12.8-7.39,18.32-2.62,6.27,13.7,1.67,19.92S155,432.31,149.47,427.53Z"/><path class="cls-13" d="M185.26,442.59a13.12,13.12,0,0,1-19.58-.2,15.87,15.87,0,0,1-.18-21.19,13.12,13.12,0,0,1,19.58.2A15.87,15.87,0,0,1,185.26,442.59Z"/><path class="cls-13" d="M224.65,446.16c-6.56,4.1-15,1.56-18.87-5.68s-1.67-16.42,4.89-20.52,15-1.56,18.87,5.68S231.21,442.07,224.65,446.16Z"/><path class="cls-13" d="M240,405.06a13.7,13.7,0,0,1-12.8,14.43,13.49,13.49,0,0,1-13.84-13.25,13.7,13.7,0,0,1,12.8-14.43A13.49,13.49,0,0,1,240,405.06Z"/><path class="cls-14" d="M166.72,402.66c-1.86-5.62,1.83-11.7,8.26-13.58s13.14,1.14,15,6.75-1.83,11.7-8.26,13.58S168.58,408.28,166.72,402.66Z"/><path class="cls-15" d="M170,399.68c-.24-5.43,4.45-10,10.46-10.26s11.08,4,11.31,9.42-4.45,10-10.46,10.26S170.24,405.11,170,399.68Z"/><path class="cls-14" d="M233,397.37c2,5.49-2,11.43-9.05,13.27s-14.41-1.11-16.45-6.6,2-11.43,9.05-13.27S230.92,391.89,233,397.37Z"/><path class="cls-15" d="M228.67,404.13c-3.22,5.32-10.6,7.61-16.49,5.12s-8-8.83-4.83-14.16,10.6-7.61,16.49-5.12S231.89,398.8,228.67,404.13Z"/><path class="cls-14" d="M191.72,429.1c-4.74,4.46-12.72,4.18-17.82-.61s-5.39-12.31-.65-16.77,12.72-4.18,17.82.61S196.46,424.64,191.72,429.1Z"/><path class="cls-14" d="M211.46,428.95c-4.76,4.48-12.78,4.21-17.91-.62s-5.42-12.37-.66-16.85,12.78-4.21,17.91.62S216.23,424.47,211.46,428.95Z"/><path class="cls-15" d="M211.71,424.68a12.75,12.75,0,0,1-17.25-.15,11,11,0,0,1-.16-16.23,12.75,12.75,0,0,1,17.25.15A11,11,0,0,1,211.71,424.68Z"/><path class="cls-14" d="M230.95,423c-4.74,4.46-12.72,4.19-17.82-.61s-5.39-12.31-.65-16.77,12.72-4.19,17.82.61S235.69,418.58,230.95,423Z"/><path class="cls-15" d="M226.55,421.44a11.85,11.85,0,0,1-15.66-3.84,10.43,10.43,0,0,1,3.49-14.89A11.85,11.85,0,0,1,230,406.54,10.43,10.43,0,0,1,226.55,421.44Z"/><path class="cls-14" d="M162.91,416.63A9.69,9.69,0,0,1,158,403.38a10.8,10.8,0,0,1,13.68-5.59A9.69,9.69,0,0,1,176.59,411,10.8,10.8,0,0,1,162.91,416.63Z"/><path class="cls-15" d="M162.69,412.79a8.66,8.66,0,0,1-1.23-12.7,10,10,0,0,1,13.43-1.67,8.66,8.66,0,0,1,1.23,12.7A10,10,0,0,1,162.69,412.79Z"/><path class="cls-15" d="M192,424.84a12.68,12.68,0,0,1-17.16-.12,11,11,0,0,1-.19-16.15,12.68,12.68,0,0,1,17.16.12A11,11,0,0,1,192,424.84Z"/><path class="cls-16" d="M177.76,389.41a8.07,8.07,0,0,1,5.46-9.85,7.73,7.73,0,0,1,9.92,4.9,8.07,8.07,0,0,1-5.46,9.85A7.73,7.73,0,0,1,177.76,389.41Z"/><path class="cls-17" d="M179.93,387.24a7.21,7.21,0,1,1,7.48,6.83A7.19,7.19,0,0,1,179.93,387.24Z"/><path class="cls-16" d="M221.56,385.57c1.35,4-1.33,8.28-6,9.62s-9.53-.81-10.88-4.78,1.33-8.28,6-9.62S220.21,381.6,221.56,385.57Z"/><path class="cls-17" d="M218.73,390.47a8.56,8.56,0,0,1-10.9,3.71,7.25,7.25,0,0,1-3.19-10.26,8.56,8.56,0,0,1,10.9-3.71A7.25,7.25,0,0,1,218.73,390.47Z"/><path class="cls-16" d="M194.29,408.57c-3.13,3.23-8.41,3-11.78-.45s-3.57-8.92-.43-12.15,8.41-3,11.78.45S197.43,405.34,194.29,408.57Z"/><path class="cls-16" d="M207.35,408.46c-3.15,3.25-8.45,3-11.84-.45s-3.58-9-.43-12.22,8.45-3,11.84.45S210.5,405.21,207.35,408.46Z"/><path class="cls-17" d="M207.51,405.37a7.89,7.89,0,0,1-11.41-.11,8.51,8.51,0,0,1-.11-11.77,7.89,7.89,0,0,1,11.41.11A8.51,8.51,0,0,1,207.51,405.37Z"/><path class="cls-16" d="M220.23,404.18c-3.13,3.23-8.41,3-11.78-.45s-3.57-8.92-.43-12.16,8.41-3,11.78.45S223.37,400.95,220.23,404.18Z"/><path class="cls-17" d="M217.16,403.13a7.46,7.46,0,0,1-10.29-3.07,8,8,0,0,1,2.56-10.73,7.46,7.46,0,0,1,10.29,3.07A8,8,0,0,1,217.16,403.13Z"/><path class="cls-16" d="M175.24,399.53c-3.4-1.53-4.85-5.83-3.25-9.6s5.65-5.58,9-4,4.85,5.83,3.25,9.6S178.64,401.07,175.24,399.53Z"/><path class="cls-17" d="M175.1,396.75a6.68,6.68,0,0,1-.81-9.2,6.21,6.21,0,0,1,8.88-1.21,6.68,6.68,0,0,1,.81,9.2A6.21,6.21,0,0,1,175.1,396.75Z"/><path class="cls-17" d="M193.35,405.36c-3.37,3.46-8.52,3.76-11.51.67s-2.68-8.41.69-11.87,8.52-3.76,11.51-.67S196.72,401.89,193.35,405.36Z"/><path class="cls-17" d="M188.23,381.48c2.81-5.94,9.49-8.95,14.91-6.71s7.54,8.86,4.72,14.81-9.49,8.95-14.91,6.71S185.41,387.42,188.23,381.48Z"/><ellipse class="cls-8" cx="70.74" cy="555.04" rx="9.87" ry="7.25"/><rect class="cls-8" x="60.87" y="527.01" width="19.74" height="27.44"/><path class="cls-8" d="M61.14,554.32c-2.55,2.9-6.68,4.1-10.62,4.84-.64.12-1.44.4-1.43,1,0,.45.48.75.92.92,1.88.72,4,.38,6,.18a40.49,40.49,0,0,1,5.93-.15,2.35,2.35,0,0,1,1.22.29c1,.66.3,2.09-.43,3l-3.21,3.92c3.84.41,7.19-2.4,11-3.17,4.49-.91,9,1.14,13.62,1.29.61,0,1.43-.19,1.4-.76a.91.91,0,0,0-.46-.63c-1.18-.82-3.09-1-3.54-2.28-.4-1.15.81-2.33,2.09-2.55a10.83,10.83,0,0,1,3.84.44,4.54,4.54,0,0,0,3.71-.52.56.56,0,0,0,.2-.25c.07-.23-.14-.44-.34-.58-2-1.41-4.64-1.51-6.93-2.4-1.88-.73-3.5-2-5.45-2.51a15.25,15.25,0,0,0-3.51-.36l-8-.2c-2.52-.06-2.65-.58-5,.2"/><path class="cls-9" d="M56.37,535.38c-6.37,6.2-17.09,5.82-23.94-.85s-7.25-17.12-.88-23.32,17.09-5.82,23.94.85S62.74,529.18,56.37,535.38Z"/><path class="cls-9" d="M80.61,537.1c-6.37,6.2-17.09,5.82-23.94-.85s-7.25-17.12-.88-23.32,17.09-5.82,23.94.85S87,530.9,80.61,537.1Z"/><path class="cls-10" d="M80.94,531.2A16.61,16.61,0,0,1,57.89,531a15.6,15.6,0,0,1-.22-22.46,16.61,16.61,0,0,1,23.06.21A15.6,15.6,0,0,1,80.94,531.2Z"/><path class="cls-9" d="M108.38,535.81C102,542,91.3,541.63,84.44,535s-7.25-17.12-.88-23.32,17.09-5.82,23.94.85S114.75,529.61,108.38,535.81Z"/><path class="cls-9" d="M130.86,520.36c-6.37,6.2-17.09,5.82-23.94-.85s-7.25-17.12-.88-23.32,17.09-5.82,23.94.85S137.23,514.15,130.86,520.36Z"/><path class="cls-10" d="M124.62,518.34a15.61,15.61,0,0,1-20.9-5.9,14.78,14.78,0,0,1,5.21-20.58,15.61,15.61,0,0,1,20.9,5.9A14.78,14.78,0,0,1,124.62,518.34Z"/><path class="cls-9" d="M14.9,519.92c-8.25-3.52-11.79-13.38-7.9-22s13.73-12.81,22-9.29,11.79,13.38,7.9,22S23.15,523.44,14.9,519.92Z"/><path class="cls-10" d="M14.56,513.53a14.73,14.73,0,0,1-2-21.11c5.41-6.59,15.07-7.84,21.57-2.77a14.73,14.73,0,0,1,2,21.11C30.72,517.35,21.06,518.59,14.56,513.53Z"/><path class="cls-10" d="M56.7,529.48a16.61,16.61,0,0,1-23.06-.21,15.6,15.6,0,0,1-.22-22.46,16.61,16.61,0,0,1,23.06.21A15.6,15.6,0,0,1,56.7,529.48Z"/><path class="cls-10" d="M103.08,533.27a16.54,16.54,0,0,1-22.21-6,15.66,15.66,0,0,1,5.76-21.75,16.54,16.54,0,0,1,22.21,6A15.66,15.66,0,0,1,103.08,533.27Z"/><path class="cls-11" d="M113.5,467.84a13.7,13.7,0,0,1-12.8,14.43A13.49,13.49,0,0,1,86.86,469a13.7,13.7,0,0,1,12.8-14.43A13.49,13.49,0,0,1,113.5,467.84Z"/><path class="cls-12" d="M28.16,476.66a15.79,15.79,0,0,1,10.1-19.11A14.16,14.16,0,0,1,56.62,467a15.79,15.79,0,0,1-10.1,19.11A14.16,14.16,0,0,1,28.16,476.66Z"/><path class="cls-13" d="M32.18,472.46A13.7,13.7,0,0,1,45,458a13.49,13.49,0,0,1,13.84,13.25A13.7,13.7,0,0,1,46,485.72,13.49,13.49,0,0,1,32.18,472.46Z"/><path class="cls-12" d="M113.95,468.32a13.7,13.7,0,0,1-12.8,14.43A13.49,13.49,0,0,1,87.31,469.5a13.7,13.7,0,0,1,12.8-14.43A13.49,13.49,0,0,1,113.95,468.32Z"/><path class="cls-14" d="M58.25,512c-5.41,5.85-14.51,5.49-20.33-.81s-6.15-16.15-.75-22,14.51-5.49,20.33.81S63.66,506.13,58.25,512Z"/><path class="cls-14" d="M78.84,513.6c-5.41,5.85-14.51,5.49-20.33-.81s-6.15-16.15-.75-22,14.51-5.49,20.33.81S84.24,507.75,78.84,513.6Z"/><path class="cls-13" d="M79.12,508a13.12,13.12,0,0,1-19.58-.2,15.87,15.87,0,0,1-.18-21.19,13.12,13.12,0,0,1,19.58.2A15.87,15.87,0,0,1,79.12,508Z"/><path class="cls-14" d="M102.42,512.39c-5.41,5.85-14.51,5.49-20.33-.81s-6.15-16.15-.75-22,14.51-5.49,20.33.81S107.83,506.53,102.42,512.39Z"/><path class="cls-14" d="M121.51,497.8c-5.41,5.85-14.51,5.49-20.33-.81s-6.15-16.15-.75-22,14.51-5.49,20.33.81S126.92,491.95,121.51,497.8Z"/><path class="cls-13" d="M116.21,495.9c-6.12,3.83-14.07,1.33-17.75-5.57s-1.7-15.59,4.42-19.42,14.07-1.33,17.75,5.57S122.33,492.08,116.21,495.9Z"/><path class="cls-14" d="M23,497.39c-7-3.32-10-12.63-6.71-20.79S28,464.52,35,467.84s10,12.63,6.71,20.79S30,500.71,23,497.39Z"/><path class="cls-13" d="M22.74,491.36c-5.52-4.78-6.27-13.7-1.67-19.92s12.8-7.39,18.32-2.62,6.27,13.7,1.67,19.92S28.26,496.14,22.74,491.36Z"/><path class="cls-13" d="M58.53,506.41a13.12,13.12,0,0,1-19.58-.2A15.87,15.87,0,0,1,38.76,485a13.12,13.12,0,0,1,19.58.2A15.87,15.87,0,0,1,58.53,506.41Z"/><path class="cls-13" d="M97.91,510c-6.56,4.1-15,1.56-18.87-5.68s-1.67-16.42,4.89-20.52,15-1.56,18.87,5.68S104.48,505.89,97.91,510Z"/><path class="cls-13" d="M113.25,468.89a13.7,13.7,0,0,1-12.8,14.43,13.49,13.49,0,0,1-13.84-13.25,13.7,13.7,0,0,1,12.8-14.43A13.49,13.49,0,0,1,113.25,468.89Z"/><path class="cls-14" d="M40,466.49c-1.86-5.62,1.83-11.7,8.26-13.58s13.14,1.14,15,6.75-1.83,11.7-8.26,13.58S41.85,472.1,40,466.49Z"/><path class="cls-15" d="M43.27,463.5c-.24-5.43,4.45-10,10.46-10.26s11.08,4,11.31,9.42-4.45,10-10.46,10.26S43.51,468.94,43.27,463.5Z"/><path class="cls-14" d="M106.23,461.2c2,5.49-2,11.43-9.05,13.27s-14.41-1.11-16.45-6.6,2-11.43,9.05-13.27S104.19,455.71,106.23,461.2Z"/><path class="cls-15" d="M101.94,468c-3.22,5.32-10.6,7.61-16.49,5.12s-8-8.83-4.83-14.16,10.6-7.61,16.49-5.12S105.16,462.63,101.94,468Z"/><path class="cls-14" d="M65,492.93c-4.74,4.46-12.72,4.18-17.82-.61s-5.39-12.31-.65-16.77,12.72-4.18,17.82.61S69.73,488.47,65,492.93Z"/><path class="cls-14" d="M84.73,492.77c-4.76,4.48-12.78,4.21-17.91-.62s-5.42-12.37-.66-16.85,12.78-4.21,17.91.62S89.5,488.29,84.73,492.77Z"/><path class="cls-15" d="M85,488.51a12.75,12.75,0,0,1-17.25-.15,11,11,0,0,1-.16-16.23,12.75,12.75,0,0,1,17.25.15A11,11,0,0,1,85,488.51Z"/><path class="cls-14" d="M104.22,486.87c-4.74,4.46-12.72,4.19-17.82-.61s-5.39-12.31-.65-16.77,12.72-4.19,17.82.61S109,482.41,104.22,486.87Z"/><path class="cls-15" d="M99.82,485.26a11.85,11.85,0,0,1-15.66-3.84,10.43,10.43,0,0,1,3.49-14.89,11.85,11.85,0,0,1,15.66,3.84A10.43,10.43,0,0,1,99.82,485.26Z"/><path class="cls-14" d="M36.17,480.46a9.69,9.69,0,0,1-4.92-13.25,10.8,10.8,0,0,1,13.68-5.59,9.69,9.69,0,0,1,4.92,13.25A10.8,10.8,0,0,1,36.17,480.46Z"/><path class="cls-15" d="M36,476.61a8.66,8.66,0,0,1-1.23-12.7,10,10,0,0,1,13.43-1.67,8.66,8.66,0,0,1,1.23,12.7A10,10,0,0,1,36,476.61Z"/><path class="cls-15" d="M65.25,488.67a12.68,12.68,0,0,1-17.16-.12,11,11,0,0,1-.19-16.15,12.68,12.68,0,0,1,17.16.12A11,11,0,0,1,65.25,488.67Z"/><path class="cls-16" d="M51,453.23a8.07,8.07,0,0,1,5.46-9.85,7.73,7.73,0,0,1,9.92,4.9A8.07,8.07,0,0,1,61,458.13,7.73,7.73,0,0,1,51,453.23Z"/><path class="cls-17" d="M53.2,451.07a7.21,7.21,0,1,1,7.48,6.83A7.19,7.19,0,0,1,53.2,451.07Z"/><path class="cls-16" d="M94.83,449.4c1.35,4-1.33,8.28-6,9.62s-9.53-.81-10.88-4.78,1.33-8.28,6-9.62S93.48,445.42,94.83,449.4Z"/><path class="cls-17" d="M92,454.29A8.56,8.56,0,0,1,81.09,458a7.25,7.25,0,0,1-3.19-10.26A8.56,8.56,0,0,1,88.8,444,7.25,7.25,0,0,1,92,454.29Z"/><path class="cls-16" d="M67.56,472.4c-3.13,3.23-8.41,3-11.78-.45s-3.57-8.92-.43-12.15,8.41-3,11.78.45S70.7,469.17,67.56,472.4Z"/><path class="cls-16" d="M80.62,472.29c-3.15,3.25-8.45,3-11.84-.45s-3.58-9-.43-12.22,8.45-3,11.84.45S83.77,469,80.62,472.29Z"/><path class="cls-17" d="M80.78,469.19a7.89,7.89,0,0,1-11.41-.11,8.51,8.51,0,0,1-.11-11.77,7.89,7.89,0,0,1,11.41.11A8.51,8.51,0,0,1,80.78,469.19Z"/><path class="cls-16" d="M93.5,468c-3.13,3.23-8.41,3-11.78-.45s-3.57-8.92-.43-12.16,8.41-3,11.78.45S96.64,464.77,93.5,468Z"/><path class="cls-17" d="M90.43,467a7.46,7.46,0,0,1-10.29-3.07,8,8,0,0,1,2.56-10.73A7.46,7.46,0,0,1,93,456.23,8,8,0,0,1,90.43,467Z"/><path class="cls-16" d="M48.51,463.36c-3.4-1.53-4.85-5.83-3.25-9.6s5.65-5.58,9-4,4.85,5.83,3.25,9.6S51.91,464.89,48.51,463.36Z"/><path class="cls-17" d="M48.37,460.57a6.68,6.68,0,0,1-.81-9.2,6.21,6.21,0,0,1,8.88-1.21,6.68,6.68,0,0,1,.81,9.2A6.21,6.21,0,0,1,48.37,460.57Z"/><path class="cls-17" d="M66.62,469.18c-3.37,3.46-8.52,3.76-11.51.67s-2.68-8.41.69-11.87,8.52-3.76,11.51-.67S70,465.72,66.62,469.18Z"/><path class="cls-17" d="M61.49,445.3c2.81-5.94,9.49-8.95,14.91-6.71s7.54,8.86,4.72,14.81-9.49,8.95-14.91,6.71S58.68,451.24,61.49,445.3Z"/><ellipse class="cls-8" cx="194.15" cy="555.04" rx="9.87" ry="7.25"/><rect class="cls-8" x="184.28" y="527.01" width="19.74" height="27.44"/><path class="cls-8" d="M184.54,554.32c-2.55,2.9-6.68,4.1-10.62,4.84-.64.12-1.44.4-1.43,1,0,.45.48.75.92.92,1.88.72,4,.38,6,.18a40.49,40.49,0,0,1,5.93-.15,2.35,2.35,0,0,1,1.22.29c1,.66.3,2.09-.43,3l-3.21,3.92c3.84.41,7.19-2.4,11-3.17,4.49-.91,9,1.14,13.62,1.29.61,0,1.43-.19,1.4-.76a.91.91,0,0,0-.46-.63c-1.18-.82-3.09-1-3.54-2.28-.4-1.15.81-2.33,2.09-2.55a10.83,10.83,0,0,1,3.84.44,4.54,4.54,0,0,0,3.71-.52.56.56,0,0,0,.2-.25c.07-.23-.14-.44-.34-.58-2-1.41-4.64-1.51-6.93-2.4-1.88-.73-3.5-2-5.45-2.51a15.25,15.25,0,0,0-3.51-.36l-8-.2c-2.52-.06-2.65-.58-5,.2"/><path class="cls-9" d="M179.77,535.38c-6.37,6.2-17.09,5.82-23.94-.85s-7.25-17.12-.88-23.32,17.09-5.82,23.94.85S186.14,529.18,179.77,535.38Z"/><path class="cls-9" d="M204,537.1c-6.37,6.2-17.09,5.82-23.94-.85s-7.25-17.12-.88-23.32,17.09-5.82,23.94.85S210.38,530.9,204,537.1Z"/><path class="cls-10" d="M204.34,531.2a16.61,16.61,0,0,1-23.06-.21,15.6,15.6,0,0,1-.22-22.46,16.61,16.61,0,0,1,23.06.21A15.6,15.6,0,0,1,204.34,531.2Z"/><path class="cls-9" d="M231.78,535.81c-6.37,6.2-17.09,5.82-23.94-.85s-7.25-17.12-.88-23.32,17.09-5.82,23.94.85S238.15,529.61,231.78,535.81Z"/><path class="cls-9" d="M254.26,520.36c-6.37,6.2-17.09,5.82-23.94-.85s-7.25-17.12-.88-23.32,17.09-5.82,23.94.85S260.63,514.15,254.26,520.36Z"/><path class="cls-10" d="M248,518.34a15.61,15.61,0,0,1-20.9-5.9,14.78,14.78,0,0,1,5.21-20.58,15.61,15.61,0,0,1,20.9,5.9A14.78,14.78,0,0,1,248,518.34Z"/><path class="cls-9" d="M138.31,519.92c-8.25-3.52-11.79-13.38-7.9-22s13.73-12.81,22-9.29,11.79,13.38,7.9,22S146.56,523.44,138.31,519.92Z"/><path class="cls-10" d="M138,513.53a14.73,14.73,0,0,1-2-21.11c5.41-6.59,15.07-7.84,21.57-2.77a14.73,14.73,0,0,1,2,21.11C154.12,517.35,144.46,518.59,138,513.53Z"/><path class="cls-10" d="M180.1,529.48a16.61,16.61,0,0,1-23.06-.21,15.6,15.6,0,0,1-.22-22.46,16.61,16.61,0,0,1,23.06.21A15.6,15.6,0,0,1,180.1,529.48Z"/><path class="cls-10" d="M226.48,533.27a16.54,16.54,0,0,1-22.21-6A15.66,15.66,0,0,1,210,505.51a16.54,16.54,0,0,1,22.21,6A15.66,15.66,0,0,1,226.48,533.27Z"/><path class="cls-11" d="M236.9,467.84a13.7,13.7,0,0,1-12.8,14.43A13.49,13.49,0,0,1,210.27,469a13.7,13.7,0,0,1,12.8-14.43A13.49,13.49,0,0,1,236.9,467.84Z"/><path class="cls-12" d="M151.57,476.66a15.79,15.79,0,0,1,10.1-19.11A14.16,14.16,0,0,1,180,467a15.79,15.79,0,0,1-10.1,19.11A14.16,14.16,0,0,1,151.57,476.66Z"/><path class="cls-13" d="M155.58,472.46A13.7,13.7,0,0,1,168.38,458a13.49,13.49,0,0,1,13.84,13.25,13.7,13.7,0,0,1-12.8,14.43A13.49,13.49,0,0,1,155.58,472.46Z"/><path class="cls-12" d="M237.35,468.32a13.7,13.7,0,0,1-12.8,14.43,13.49,13.49,0,0,1-13.84-13.25,13.7,13.7,0,0,1,12.8-14.43A13.49,13.49,0,0,1,237.35,468.32Z"/><path class="cls-14" d="M181.65,512c-5.41,5.85-14.51,5.49-20.33-.81s-6.15-16.15-.75-22,14.51-5.49,20.33.81S187.06,506.13,181.65,512Z"/><path class="cls-14" d="M202.24,513.6c-5.41,5.85-14.51,5.49-20.33-.81s-6.15-16.15-.75-22,14.51-5.49,20.33.81S207.65,507.75,202.24,513.6Z"/><path class="cls-13" d="M202.52,508a13.12,13.12,0,0,1-19.58-.2,15.87,15.87,0,0,1-.18-21.19,13.12,13.12,0,0,1,19.58.2A15.87,15.87,0,0,1,202.52,508Z"/><path class="cls-14" d="M225.82,512.39c-5.41,5.85-14.51,5.49-20.33-.81s-6.15-16.15-.75-22,14.51-5.49,20.33.81S231.23,506.53,225.82,512.39Z"/><path class="cls-14" d="M244.91,497.8c-5.41,5.85-14.51,5.49-20.33-.81s-6.15-16.15-.75-22,14.51-5.49,20.33.81S250.32,491.95,244.91,497.8Z"/><path class="cls-13" d="M239.61,495.9c-6.12,3.83-14.07,1.33-17.75-5.57s-1.7-15.59,4.42-19.42,14.07-1.33,17.75,5.57S245.74,492.08,239.61,495.9Z"/><path class="cls-14" d="M146.43,497.39c-7-3.32-10-12.63-6.71-20.79s11.66-12.08,18.66-8.76,10,12.63,6.71,20.79S153.44,500.71,146.43,497.39Z"/><path class="cls-13" d="M146.14,491.36c-5.52-4.78-6.27-13.7-1.67-19.92s12.8-7.39,18.32-2.62,6.27,13.7,1.67,19.92S151.66,496.14,146.14,491.36Z"/><path class="cls-13" d="M181.93,506.41a13.12,13.12,0,0,1-19.58-.2,15.87,15.87,0,0,1-.18-21.19,13.12,13.12,0,0,1,19.58.2A15.87,15.87,0,0,1,181.93,506.41Z"/><path class="cls-13" d="M221.32,510c-6.56,4.1-15,1.56-18.87-5.68s-1.67-16.42,4.89-20.52,15-1.56,18.87,5.68S227.88,505.89,221.32,510Z"/><path class="cls-13" d="M236.65,468.89a13.7,13.7,0,0,1-12.8,14.43A13.49,13.49,0,0,1,210,470.06a13.7,13.7,0,0,1,12.8-14.43A13.49,13.49,0,0,1,236.65,468.89Z"/><path class="cls-14" d="M163.39,466.49c-1.86-5.62,1.83-11.7,8.26-13.58s13.14,1.14,15,6.75-1.83,11.7-8.26,13.58S165.25,472.1,163.39,466.49Z"/><path class="cls-15" d="M166.67,463.5c-.24-5.43,4.45-10,10.46-10.26s11.08,4,11.31,9.42S184,472.7,178,472.93,166.91,468.94,166.67,463.5Z"/><path class="cls-14" d="M229.63,461.2c2,5.49-2,11.43-9.05,13.27s-14.41-1.11-16.45-6.6,2-11.43,9.05-13.27S227.59,455.71,229.63,461.2Z"/><path class="cls-15" d="M225.34,468c-3.22,5.32-10.6,7.61-16.49,5.12s-8-8.83-4.83-14.16,10.6-7.61,16.49-5.12S228.56,462.63,225.34,468Z"/><path class="cls-14" d="M188.39,492.93c-4.74,4.46-12.72,4.18-17.82-.61s-5.39-12.31-.65-16.77,12.72-4.18,17.82.61S193.13,488.47,188.39,492.93Z"/><path class="cls-14" d="M208.13,492.77c-4.76,4.48-12.78,4.21-17.91-.62s-5.42-12.37-.66-16.85,12.78-4.21,17.91.62S212.9,488.29,208.13,492.77Z"/><path class="cls-15" d="M208.38,488.51a12.75,12.75,0,0,1-17.25-.15,11,11,0,0,1-.16-16.23,12.75,12.75,0,0,1,17.25.15A11,11,0,0,1,208.38,488.51Z"/><path class="cls-14" d="M227.62,486.87c-4.74,4.46-12.72,4.19-17.82-.61s-5.39-12.31-.65-16.77,12.72-4.19,17.82.61S232.36,482.41,227.62,486.87Z"/><path class="cls-15" d="M223.22,485.26a11.85,11.85,0,0,1-15.66-3.84A10.43,10.43,0,0,1,211,466.53a11.85,11.85,0,0,1,15.66,3.84A10.43,10.43,0,0,1,223.22,485.26Z"/><path class="cls-14" d="M159.58,480.46a9.69,9.69,0,0,1-4.92-13.25,10.8,10.8,0,0,1,13.68-5.59,9.69,9.69,0,0,1,4.92,13.25A10.8,10.8,0,0,1,159.58,480.46Z"/><path class="cls-15" d="M159.36,476.61a8.66,8.66,0,0,1-1.23-12.7,10,10,0,0,1,13.43-1.67,8.66,8.66,0,0,1,1.23,12.7A10,10,0,0,1,159.36,476.61Z"/><path class="cls-15" d="M188.65,488.67a12.68,12.68,0,0,1-17.16-.12,11,11,0,0,1-.19-16.15,12.68,12.68,0,0,1,17.16.12A11,11,0,0,1,188.65,488.67Z"/><path class="cls-16" d="M174.43,453.23a8.07,8.07,0,0,1,5.46-9.85,7.73,7.73,0,0,1,9.92,4.9,8.07,8.07,0,0,1-5.46,9.85A7.73,7.73,0,0,1,174.43,453.23Z"/><path class="cls-17" d="M176.6,451.07a7.21,7.21,0,1,1,7.48,6.83A7.19,7.19,0,0,1,176.6,451.07Z"/><path class="cls-16" d="M218.23,449.4c1.35,4-1.33,8.28-6,9.62s-9.53-.81-10.88-4.78,1.33-8.28,6-9.62S216.88,445.42,218.23,449.4Z"/><path class="cls-17" d="M215.4,454.29a8.56,8.56,0,0,1-10.9,3.71,7.25,7.25,0,0,1-3.19-10.26A8.56,8.56,0,0,1,212.2,444,7.25,7.25,0,0,1,215.4,454.29Z"/><path class="cls-16" d="M191,472.4c-3.13,3.23-8.41,3-11.78-.45s-3.57-8.92-.43-12.15,8.41-3,11.78.45S194.1,469.17,191,472.4Z"/><path class="cls-16" d="M204,472.29c-3.15,3.25-8.45,3-11.84-.45s-3.58-9-.43-12.22,8.45-3,11.84.45S207.17,469,204,472.29Z"/><path class="cls-17" d="M204.18,469.19a7.89,7.89,0,0,1-11.41-.11,8.51,8.51,0,0,1-.11-11.77,7.89,7.89,0,0,1,11.41.11A8.51,8.51,0,0,1,204.18,469.19Z"/><path class="cls-16" d="M216.9,468c-3.13,3.23-8.41,3-11.78-.45s-3.57-8.92-.43-12.16,8.41-3,11.78.45S220,464.77,216.9,468Z"/><path class="cls-17" d="M213.83,467a7.46,7.46,0,0,1-10.29-3.07,8,8,0,0,1,2.56-10.73,7.46,7.46,0,0,1,10.29,3.07A8,8,0,0,1,213.83,467Z"/><path class="cls-16" d="M171.91,463.36c-3.4-1.53-4.85-5.83-3.25-9.6s5.65-5.58,9-4,4.85,5.83,3.25,9.6S175.31,464.89,171.91,463.36Z"/><path class="cls-17" d="M171.77,460.57a6.68,6.68,0,0,1-.81-9.2,6.21,6.21,0,0,1,8.88-1.21,6.68,6.68,0,0,1,.81,9.2A6.21,6.21,0,0,1,171.77,460.57Z"/><path class="cls-17" d="M190,469.18c-3.37,3.46-8.52,3.76-11.51.67s-2.68-8.41.69-11.87,8.52-3.76,11.51-.67S193.39,465.72,190,469.18Z"/><path class="cls-17" d="M184.9,445.3c2.81-5.94,9.49-8.95,14.91-6.71s7.54,8.86,4.72,14.81-9.49,8.95-14.91,6.71S182.08,451.24,184.9,445.3Z"/><ellipse class="cls-8" cx="313.48" cy="366.32" rx="9.87" ry="7.25"/><rect class="cls-8" x="303.61" y="338.3" width="19.74" height="27.44"/><path class="cls-8" d="M303.88,365.6c-2.55,2.9-6.68,4.1-10.62,4.84-.64.12-1.44.4-1.43,1,0,.45.48.75.92.92,1.88.72,4,.38,6,.18a40.49,40.49,0,0,1,5.93-.15,2.35,2.35,0,0,1,1.22.29c1,.66.3,2.09-.43,3l-3.21,3.92c3.84.41,7.19-2.4,11-3.17,4.49-.91,9,1.14,13.62,1.29.61,0,1.43-.19,1.4-.76a.91.91,0,0,0-.46-.63c-1.18-.82-3.09-1-3.54-2.28-.4-1.15.81-2.33,2.09-2.55a10.83,10.83,0,0,1,3.84.44,4.54,4.54,0,0,0,3.71-.52.56.56,0,0,0,.2-.25c.07-.23-.14-.44-.34-.58-2-1.41-4.64-1.51-6.93-2.4-1.88-.73-3.5-2-5.45-2.51a15.25,15.25,0,0,0-3.51-.36l-8-.2c-2.52-.06-2.65-.58-5,.2"/><path class="cls-9" d="M299.11,346.67c-6.37,6.2-17.09,5.82-23.94-.85s-7.25-17.12-.88-23.32,17.09-5.82,23.94.85S305.48,340.46,299.11,346.67Z"/><path class="cls-9" d="M323.35,348.39c-6.37,6.2-17.09,5.82-23.94-.85s-7.25-17.12-.88-23.32,17.09-5.82,23.94.85S329.72,342.18,323.35,348.39Z"/><path class="cls-10" d="M323.68,342.48a16.61,16.61,0,0,1-23.06-.21,15.6,15.6,0,0,1-.22-22.46,16.61,16.61,0,0,1,23.06.21A15.6,15.6,0,0,1,323.68,342.48Z"/><path class="cls-9" d="M351.12,347.1c-6.37,6.2-17.09,5.82-23.94-.85s-7.25-17.12-.88-23.32,17.09-5.82,23.94.85S357.49,340.89,351.12,347.1Z"/><path class="cls-9" d="M373.6,331.64c-6.37,6.2-17.09,5.82-23.94-.85s-7.25-17.12-.88-23.32,17.09-5.82,23.94.85S380,325.44,373.6,331.64Z"/><path class="cls-10" d="M367.36,329.62a15.61,15.61,0,0,1-20.9-5.9,14.78,14.78,0,0,1,5.21-20.58,15.61,15.61,0,0,1,20.9,5.9A14.78,14.78,0,0,1,367.36,329.62Z"/><path class="cls-9" d="M257.64,331.2c-8.25-3.52-11.79-13.38-7.9-22s13.73-12.81,22-9.29,11.79,13.38,7.9,22S265.89,334.72,257.64,331.2Z"/><path class="cls-10" d="M257.3,324.81a14.73,14.73,0,0,1-2-21.11c5.41-6.59,15.07-7.84,21.57-2.77a14.73,14.73,0,0,1,2,21.11C273.46,328.63,263.8,329.87,257.3,324.81Z"/><path class="cls-10" d="M299.44,340.76a16.61,16.61,0,0,1-23.06-.21,15.6,15.6,0,0,1-.22-22.46,16.61,16.61,0,0,1,23.06.21A15.6,15.6,0,0,1,299.44,340.76Z"/><path class="cls-10" d="M345.82,344.56a16.54,16.54,0,0,1-22.21-6,15.66,15.66,0,0,1,5.76-21.75,16.54,16.54,0,0,1,22.21,6A15.66,15.66,0,0,1,345.82,344.56Z"/><path class="cls-11" d="M356.23,279.12a13.7,13.7,0,0,1-12.8,14.43,13.49,13.49,0,0,1-13.84-13.25,13.7,13.7,0,0,1,12.8-14.43A13.49,13.49,0,0,1,356.23,279.12Z"/><path class="cls-12" d="M270.9,287.94A15.79,15.79,0,0,1,281,268.83a14.16,14.16,0,0,1,18.35,9.5,15.79,15.79,0,0,1-10.1,19.11A14.16,14.16,0,0,1,270.9,287.94Z"/><path class="cls-13" d="M274.92,283.74a13.7,13.7,0,0,1,12.8-14.43,13.49,13.49,0,0,1,13.84,13.25A13.7,13.7,0,0,1,288.75,297,13.49,13.49,0,0,1,274.92,283.74Z"/><path class="cls-12" d="M356.68,279.61A13.7,13.7,0,0,1,343.89,294a13.49,13.49,0,0,1-13.84-13.25,13.7,13.7,0,0,1,12.8-14.43A13.49,13.49,0,0,1,356.68,279.61Z"/><path class="cls-14" d="M301,323.27c-5.41,5.85-14.51,5.49-20.33-.81s-6.15-16.15-.75-22,14.51-5.49,20.33.81S306.39,317.41,301,323.27Z"/><path class="cls-14" d="M321.57,324.89c-5.41,5.85-14.51,5.49-20.33-.81s-6.15-16.15-.75-22,14.51-5.49,20.33.81S327,319,321.57,324.89Z"/><path class="cls-13" d="M321.85,319.32a13.12,13.12,0,0,1-19.58-.2,15.87,15.87,0,0,1-.18-21.19,13.12,13.12,0,0,1,19.58.2A15.87,15.87,0,0,1,321.85,319.32Z"/><path class="cls-14" d="M345.15,323.67c-5.41,5.85-14.51,5.49-20.33-.81s-6.15-16.15-.75-22,14.51-5.49,20.33.81S350.56,317.82,345.15,323.67Z"/><path class="cls-14" d="M364.24,309.09c-5.41,5.85-14.51,5.49-20.33-.81s-6.15-16.15-.75-22,14.51-5.49,20.33.81S369.65,303.23,364.24,309.09Z"/><path class="cls-13" d="M358.95,307.18c-6.12,3.83-14.07,1.33-17.75-5.57s-1.7-15.59,4.42-19.42,14.07-1.33,17.75,5.57S365.07,303.36,358.95,307.18Z"/><path class="cls-14" d="M265.77,308.67c-7-3.32-10-12.63-6.71-20.79s11.66-12.08,18.66-8.76,10,12.63,6.71,20.79S272.77,312,265.77,308.67Z"/><path class="cls-13" d="M265.48,302.64c-5.52-4.78-6.27-13.7-1.67-19.92s12.8-7.39,18.32-2.62,6.27,13.7,1.67,19.92S271,307.42,265.48,302.64Z"/><path class="cls-13" d="M301.27,317.7a13.12,13.12,0,0,1-19.58-.2,15.87,15.87,0,0,1-.18-21.19,13.12,13.12,0,0,1,19.58.2A15.87,15.87,0,0,1,301.27,317.7Z"/><path class="cls-13" d="M340.65,321.27c-6.56,4.1-15,1.56-18.87-5.68s-1.67-16.42,4.89-20.52,15-1.56,18.87,5.68S347.21,317.17,340.65,321.27Z"/><path class="cls-13" d="M356,280.17a13.7,13.7,0,0,1-12.8,14.43,13.49,13.49,0,0,1-13.84-13.25,13.7,13.7,0,0,1,12.8-14.43A13.49,13.49,0,0,1,356,280.17Z"/><path class="cls-14" d="M282.72,277.77c-1.86-5.62,1.83-11.7,8.26-13.58s13.14,1.14,15,6.75-1.83,11.7-8.26,13.58S284.59,283.39,282.72,277.77Z"/><path class="cls-15" d="M286,274.79c-.24-5.43,4.45-10,10.46-10.26s11.08,4,11.31,9.42-4.45,10-10.46,10.26S286.24,280.22,286,274.79Z"/><path class="cls-14" d="M349,272.48c2,5.49-2,11.43-9.05,13.27s-14.41-1.11-16.45-6.6,2-11.43,9.05-13.27S346.92,267,349,272.48Z"/><path class="cls-15" d="M344.68,279.24c-3.22,5.32-10.6,7.61-16.49,5.12s-8-8.83-4.83-14.16,10.6-7.61,16.49-5.12S347.9,273.91,344.68,279.24Z"/><path class="cls-14" d="M307.73,304.21c-4.74,4.46-12.72,4.18-17.82-.61s-5.39-12.31-.65-16.77,12.72-4.18,17.82.61S312.47,299.75,307.73,304.21Z"/><path class="cls-14" d="M327.47,304.06c-4.76,4.48-12.78,4.21-17.91-.62s-5.42-12.37-.66-16.85,12.78-4.21,17.91.62S332.23,299.57,327.47,304.06Z"/><path class="cls-15" d="M327.72,299.79a12.75,12.75,0,0,1-17.25-.15,11,11,0,0,1-.16-16.23,12.75,12.75,0,0,1,17.25.15A11,11,0,0,1,327.72,299.79Z"/><path class="cls-14" d="M347,298.15c-4.74,4.46-12.72,4.19-17.82-.61s-5.39-12.31-.65-16.77,12.72-4.19,17.82.61S351.7,293.69,347,298.15Z"/><path class="cls-15" d="M342.55,296.55a11.85,11.85,0,0,1-15.66-3.84,10.43,10.43,0,0,1,3.49-14.89A11.85,11.85,0,0,1,346,281.65,10.43,10.43,0,0,1,342.55,296.55Z"/><path class="cls-14" d="M278.91,291.74A9.69,9.69,0,0,1,274,278.49a10.8,10.8,0,0,1,13.68-5.59,9.69,9.69,0,0,1,4.92,13.25A10.8,10.8,0,0,1,278.91,291.74Z"/><path class="cls-15" d="M278.7,287.9a8.66,8.66,0,0,1-1.23-12.7,10,10,0,0,1,13.43-1.67,8.66,8.66,0,0,1,1.23,12.7A10,10,0,0,1,278.7,287.9Z"/><path class="cls-15" d="M308,299.95a12.68,12.68,0,0,1-17.16-.12,11,11,0,0,1-.19-16.15,12.68,12.68,0,0,1,17.16.12A11,11,0,0,1,308,299.95Z"/><path class="cls-16" d="M293.77,264.51a8.07,8.07,0,0,1,5.46-9.85,7.73,7.73,0,0,1,9.92,4.9,8.07,8.07,0,0,1-5.46,9.85A7.73,7.73,0,0,1,293.77,264.51Z"/><path class="cls-17" d="M295.94,262.35a7.21,7.21,0,1,1,7.48,6.83A7.19,7.19,0,0,1,295.94,262.35Z"/><path class="cls-16" d="M337.57,260.68c1.35,4-1.33,8.28-6,9.62s-9.53-.81-10.88-4.78,1.33-8.28,6-9.62S336.22,256.7,337.57,260.68Z"/><path class="cls-17" d="M334.73,265.58a8.56,8.56,0,0,1-10.9,3.71A7.25,7.25,0,0,1,320.64,259a8.56,8.56,0,0,1,10.9-3.71A7.25,7.25,0,0,1,334.73,265.58Z"/><path class="cls-16" d="M310.3,283.68c-3.13,3.23-8.41,3-11.78-.45s-3.57-8.92-.43-12.15,8.41-3,11.78.45S313.43,280.45,310.3,283.68Z"/><path class="cls-16" d="M323.35,283.57c-3.15,3.25-8.45,3-11.84-.45s-3.58-9-.43-12.22,8.45-3,11.84.45S326.5,280.32,323.35,283.57Z"/><path class="cls-17" d="M323.52,280.48a7.89,7.89,0,0,1-11.41-.11A8.51,8.51,0,0,1,312,268.6a7.89,7.89,0,0,1,11.41.11A8.51,8.51,0,0,1,323.52,280.48Z"/><path class="cls-16" d="M336.24,279.29c-3.13,3.23-8.41,3-11.78-.45s-3.57-8.92-.43-12.16,8.41-3,11.78.45S339.37,276.05,336.24,279.29Z"/><path class="cls-17" d="M333.17,278.24a7.46,7.46,0,0,1-10.29-3.07,8,8,0,0,1,2.56-10.73,7.46,7.46,0,0,1,10.29,3.07A8,8,0,0,1,333.17,278.24Z"/><path class="cls-16" d="M291.25,274.64c-3.4-1.53-4.85-5.83-3.25-9.6s5.65-5.58,9-4,4.85,5.83,3.25,9.6S294.64,276.18,291.25,274.64Z"/><path class="cls-17" d="M291.1,271.85a6.68,6.68,0,0,1-.81-9.2,6.21,6.21,0,0,1,8.88-1.21,6.68,6.68,0,0,1,.81,9.2A6.21,6.21,0,0,1,291.1,271.85Z"/><path class="cls-17" d="M309.35,280.47c-3.37,3.46-8.52,3.76-11.51.67s-2.68-8.41.69-11.87,8.52-3.76,11.51-.67S312.72,277,309.35,280.47Z"/><path class="cls-17" d="M304.23,256.58c2.81-5.94,9.49-8.95,14.91-6.71s7.54,8.86,4.72,14.81-9.49,8.95-14.91,6.71S301.42,262.53,304.23,256.58Z"/><ellipse class="cls-8" cx="310.15" cy="430.15" rx="9.87" ry="7.25"/><rect class="cls-8" x="300.28" y="402.12" width="19.74" height="27.44"/><path class="cls-8" d="M300.55,429.42c-2.55,2.9-6.68,4.1-10.62,4.84-.64.12-1.44.4-1.43,1,0,.45.48.75.92.92,1.88.72,4,.38,6,.18a40.49,40.49,0,0,1,5.93-.15,2.35,2.35,0,0,1,1.22.29c1,.66.3,2.09-.43,3l-3.21,3.92c3.84.41,7.19-2.4,11-3.17,4.49-.91,9,1.14,13.62,1.29.61,0,1.43-.19,1.4-.76a.91.91,0,0,0-.46-.63c-1.18-.82-3.09-1-3.54-2.28-.4-1.15.81-2.33,2.09-2.55a10.83,10.83,0,0,1,3.84.44,4.54,4.54,0,0,0,3.71-.52.56.56,0,0,0,.2-.25c.07-.23-.14-.44-.34-.58-2-1.41-4.64-1.51-6.93-2.4-1.88-.73-3.5-2-5.45-2.51a15.25,15.25,0,0,0-3.51-.36l-8-.2c-2.52-.06-2.65-.58-5,.2"/><path class="cls-9" d="M295.78,410.49c-6.37,6.2-17.09,5.82-23.94-.85s-7.25-17.12-.88-23.32,17.09-5.82,23.94.85S302.15,404.29,295.78,410.49Z"/><path class="cls-9" d="M320,412.21c-6.37,6.2-17.09,5.82-23.94-.85s-7.25-17.12-.88-23.32,17.09-5.82,23.94.85S326.39,406,320,412.21Z"/><path class="cls-10" d="M320.35,406.31a16.61,16.61,0,0,1-23.06-.21,15.6,15.6,0,0,1-.22-22.46,16.61,16.61,0,0,1,23.06.21A15.6,15.6,0,0,1,320.35,406.31Z"/><path class="cls-9" d="M347.79,410.92c-6.37,6.2-17.09,5.82-23.94-.85S316.6,393,323,386.75s17.09-5.82,23.94.85S354.15,404.72,347.79,410.92Z"/><path class="cls-9" d="M370.27,395.47c-6.37,6.2-17.09,5.82-23.94-.85s-7.25-17.12-.88-23.32,17.09-5.82,23.94.85S376.63,389.26,370.27,395.47Z"/><path class="cls-10" d="M364,393.45a15.61,15.61,0,0,1-20.9-5.9A14.78,14.78,0,0,1,348.34,367a15.61,15.61,0,0,1,20.9,5.9A14.78,14.78,0,0,1,364,393.45Z"/><path class="cls-9" d="M254.31,395c-8.25-3.52-11.79-13.38-7.9-22s13.73-12.81,22-9.29,11.79,13.38,7.9,22S262.56,398.55,254.31,395Z"/><path class="cls-10" d="M254,388.63a14.73,14.73,0,0,1-2-21.11c5.41-6.59,15.07-7.84,21.57-2.77a14.73,14.73,0,0,1,2,21.11C270.13,392.46,260.47,393.7,254,388.63Z"/><path class="cls-10" d="M296.11,404.59a16.61,16.61,0,0,1-23.06-.21,15.6,15.6,0,0,1-.22-22.46,16.61,16.61,0,0,1,23.06.21A15.6,15.6,0,0,1,296.11,404.59Z"/><path class="cls-10" d="M342.49,408.38a16.54,16.54,0,0,1-22.21-6A15.66,15.66,0,0,1,326,380.61a16.54,16.54,0,0,1,22.21,6A15.66,15.66,0,0,1,342.49,408.38Z"/><path class="cls-11" d="M352.9,342.95a13.7,13.7,0,0,1-12.8,14.43,13.49,13.49,0,0,1-13.84-13.25,13.7,13.7,0,0,1,12.8-14.43A13.49,13.49,0,0,1,352.9,342.95Z"/><path class="cls-12" d="M267.57,351.76a15.79,15.79,0,0,1,10.1-19.11,14.16,14.16,0,0,1,18.35,9.5,15.79,15.79,0,0,1-10.1,19.11A14.16,14.16,0,0,1,267.57,351.76Z"/><path class="cls-13" d="M271.59,347.57a13.7,13.7,0,0,1,12.8-14.43,13.49,13.49,0,0,1,13.84,13.25,13.7,13.7,0,0,1-12.8,14.43A13.49,13.49,0,0,1,271.59,347.57Z"/><path class="cls-12" d="M353.35,343.43a13.7,13.7,0,0,1-12.8,14.43,13.49,13.49,0,0,1-13.84-13.25,13.7,13.7,0,0,1,12.8-14.43A13.49,13.49,0,0,1,353.35,343.43Z"/><path class="cls-14" d="M297.65,387.09c-5.41,5.85-14.51,5.49-20.33-.81s-6.15-16.15-.75-22,14.51-5.49,20.33.81S303.06,381.24,297.65,387.09Z"/><path class="cls-14" d="M318.24,388.71c-5.41,5.85-14.51,5.49-20.33-.81s-6.15-16.15-.75-22,14.51-5.49,20.33.81S323.65,382.86,318.24,388.71Z"/><path class="cls-13" d="M318.52,383.14a13.12,13.12,0,0,1-19.58-.2,15.87,15.87,0,0,1-.18-21.19,13.12,13.12,0,0,1,19.58.2A15.87,15.87,0,0,1,318.52,383.14Z"/><path class="cls-14" d="M341.82,387.5c-5.41,5.85-14.51,5.49-20.33-.81s-6.15-16.15-.75-22,14.51-5.49,20.33.81S347.23,381.64,341.82,387.5Z"/><path class="cls-14" d="M360.91,372.91c-5.41,5.85-14.51,5.49-20.33-.81s-6.15-16.15-.75-22,14.51-5.49,20.33.81S366.32,367.06,360.91,372.91Z"/><path class="cls-13" d="M355.62,371c-6.12,3.83-14.07,1.33-17.75-5.57s-1.7-15.59,4.42-19.42,14.07-1.33,17.75,5.57S361.74,367.18,355.62,371Z"/><path class="cls-14" d="M262.44,372.5c-7-3.32-10-12.63-6.71-20.79s11.66-12.08,18.66-8.76,10,12.63,6.71,20.79S269.44,375.82,262.44,372.5Z"/><path class="cls-13" d="M262.15,366.47c-5.52-4.78-6.27-13.7-1.67-19.92s12.8-7.39,18.32-2.62,6.27,13.7,1.67,19.92S267.67,371.24,262.15,366.47Z"/><path class="cls-13" d="M297.94,381.52a13.12,13.12,0,0,1-19.58-.2,15.87,15.87,0,0,1-.18-21.19,13.12,13.12,0,0,1,19.58.2A15.87,15.87,0,0,1,297.94,381.52Z"/><path class="cls-13" d="M337.32,385.1c-6.56,4.1-15,1.56-18.87-5.68s-1.67-16.42,4.89-20.52,15-1.56,18.87,5.68S343.88,381,337.32,385.1Z"/><path class="cls-13" d="M352.66,344a13.7,13.7,0,0,1-12.8,14.43A13.49,13.49,0,0,1,326,345.17a13.7,13.7,0,0,1,12.8-14.43A13.49,13.49,0,0,1,352.66,344Z"/><path class="cls-14" d="M279.39,341.59c-1.86-5.62,1.83-11.7,8.26-13.58s13.14,1.14,15,6.75-1.83,11.7-8.26,13.58S281.26,347.21,279.39,341.59Z"/><path class="cls-15" d="M282.68,338.61c-.24-5.43,4.45-10,10.46-10.26s11.08,4,11.31,9.42S300,347.8,294,348,282.91,344,282.68,338.61Z"/><path class="cls-14" d="M345.64,336.31c2,5.49-2,11.43-9.05,13.27s-14.41-1.11-16.45-6.6,2-11.43,9.05-13.27S343.59,330.82,345.64,336.31Z"/><path class="cls-15" d="M341.35,343.06c-3.22,5.32-10.6,7.61-16.49,5.12s-8-8.83-4.83-14.16,10.6-7.61,16.49-5.12S344.57,337.74,341.35,343.06Z"/><path class="cls-14" d="M304.4,368c-4.74,4.46-12.72,4.18-17.82-.61s-5.39-12.31-.65-16.77,12.72-4.18,17.82.61S309.14,363.58,304.4,368Z"/><path class="cls-14" d="M324.14,367.88c-4.76,4.48-12.78,4.21-17.91-.62s-5.42-12.37-.66-16.85,12.78-4.21,17.91.62S328.9,363.4,324.14,367.88Z"/><path class="cls-15" d="M324.39,363.62a12.75,12.75,0,0,1-17.25-.15,11,11,0,0,1-.16-16.23,12.75,12.75,0,0,1,17.25.15A11,11,0,0,1,324.39,363.62Z"/><path class="cls-14" d="M343.62,362c-4.74,4.46-12.72,4.19-17.82-.61s-5.39-12.31-.65-16.77,12.72-4.19,17.82.61S348.36,357.52,343.62,362Z"/><path class="cls-15" d="M339.22,360.37a11.85,11.85,0,0,1-15.66-3.84,10.43,10.43,0,0,1,3.49-14.89,11.85,11.85,0,0,1,15.66,3.84A10.43,10.43,0,0,1,339.22,360.37Z"/><path class="cls-14" d="M275.58,355.57a9.69,9.69,0,0,1-4.92-13.25,10.8,10.8,0,0,1,13.68-5.59A9.69,9.69,0,0,1,289.27,350,10.8,10.8,0,0,1,275.58,355.57Z"/><path class="cls-15" d="M275.37,351.72a8.66,8.66,0,0,1-1.23-12.7,10,10,0,0,1,13.43-1.67,8.66,8.66,0,0,1,1.23,12.7A10,10,0,0,1,275.37,351.72Z"/><path class="cls-15" d="M304.66,363.77a12.68,12.68,0,0,1-17.16-.12,11,11,0,0,1-.19-16.15,12.68,12.68,0,0,1,17.16.12A11,11,0,0,1,304.66,363.77Z"/><path class="cls-16" d="M290.44,328.34a8.07,8.07,0,0,1,5.46-9.85,7.73,7.73,0,0,1,9.92,4.9,8.07,8.07,0,0,1-5.46,9.85A7.73,7.73,0,0,1,290.44,328.34Z"/><path class="cls-17" d="M292.61,326.18a7.21,7.21,0,1,1,7.48,6.83A7.19,7.19,0,0,1,292.61,326.18Z"/><path class="cls-16" d="M334.24,324.51c1.35,4-1.33,8.28-6,9.62s-9.53-.81-10.88-4.78,1.33-8.28,6-9.62S332.89,320.53,334.24,324.51Z"/><path class="cls-17" d="M331.4,329.4a8.56,8.56,0,0,1-10.9,3.71,7.25,7.25,0,0,1-3.19-10.26,8.56,8.56,0,0,1,10.9-3.71A7.25,7.25,0,0,1,331.4,329.4Z"/><path class="cls-16" d="M307,347.51c-3.13,3.23-8.41,3-11.78-.45s-3.57-8.92-.43-12.15,8.41-3,11.78.45S310.1,344.27,307,347.51Z"/><path class="cls-16" d="M320,347.4c-3.15,3.25-8.45,3-11.84-.45s-3.58-9-.43-12.22,8.45-3,11.84.45S323.17,344.15,320,347.4Z"/><path class="cls-17" d="M320.19,344.3a7.89,7.89,0,0,1-11.41-.11,8.51,8.51,0,0,1-.11-11.77,7.89,7.89,0,0,1,11.41.11A8.51,8.51,0,0,1,320.19,344.3Z"/><path class="cls-16" d="M332.91,343.11c-3.13,3.23-8.41,3-11.78-.45s-3.57-8.92-.43-12.16,8.41-3,11.78.45S336,339.88,332.91,343.11Z"/><path class="cls-17" d="M329.84,342.06A7.46,7.46,0,0,1,319.55,339a8,8,0,0,1,2.56-10.73,7.46,7.46,0,0,1,10.29,3.07A8,8,0,0,1,329.84,342.06Z"/><path class="cls-16" d="M287.92,338.47c-3.4-1.53-4.85-5.83-3.25-9.6s5.65-5.58,9-4,4.85,5.83,3.25,9.6S291.31,340,287.92,338.47Z"/><path class="cls-17" d="M287.77,335.68a6.68,6.68,0,0,1-.81-9.2,6.21,6.21,0,0,1,8.88-1.21,6.68,6.68,0,0,1,.81,9.2A6.21,6.21,0,0,1,287.77,335.68Z"/><path class="cls-17" d="M306,344.29c-3.37,3.46-8.52,3.76-11.51.67s-2.68-8.41.69-11.87,8.52-3.76,11.51-.67S309.39,340.83,306,344.29Z"/><path class="cls-17" d="M300.9,320.41c2.81-5.94,9.49-8.95,14.91-6.71s7.54,8.86,4.72,14.81-9.49,8.95-14.91,6.71S298.09,326.35,300.9,320.41Z"/><ellipse class="cls-8" cx="313.48" cy="489.55" rx="9.87" ry="7.25"/><rect class="cls-8" x="303.61" y="461.52" width="19.74" height="27.44"/><path class="cls-8" d="M303.88,488.83c-2.55,2.9-6.68,4.1-10.62,4.84-.64.12-1.44.4-1.43,1,0,.45.48.75.92.92,1.88.72,4,.38,6,.18a40.49,40.49,0,0,1,5.93-.15,2.35,2.35,0,0,1,1.22.29c1,.66.3,2.09-.43,3l-3.21,3.92c3.84.41,7.19-2.4,11-3.17,4.49-.91,9,1.14,13.62,1.29.61,0,1.43-.19,1.4-.76a.91.91,0,0,0-.46-.63c-1.18-.82-3.09-1-3.54-2.28-.4-1.15.81-2.33,2.09-2.55a10.83,10.83,0,0,1,3.84.44,4.54,4.54,0,0,0,3.71-.52.56.56,0,0,0,.2-.25c.07-.23-.14-.44-.34-.58-2-1.41-4.64-1.51-6.93-2.4-1.88-.73-3.5-2-5.45-2.51a15.25,15.25,0,0,0-3.51-.36l-8-.2c-2.52-.06-2.65-.58-5,.2"/><path class="cls-9" d="M299.11,469.89c-6.37,6.2-17.09,5.82-23.94-.85s-7.25-17.12-.88-23.32,17.09-5.82,23.94.85S305.48,463.69,299.11,469.89Z"/><path class="cls-9" d="M323.35,471.61c-6.37,6.2-17.09,5.82-23.94-.85s-7.25-17.12-.88-23.32,17.09-5.82,23.94.85S329.72,465.41,323.35,471.61Z"/><path class="cls-10" d="M323.68,465.71a16.61,16.61,0,0,1-23.06-.21,15.6,15.6,0,0,1-.22-22.46,16.61,16.61,0,0,1,23.06.21A15.6,15.6,0,0,1,323.68,465.71Z"/><path class="cls-9" d="M351.12,470.32c-6.37,6.2-17.09,5.82-23.94-.85s-7.25-17.12-.88-23.32,17.09-5.82,23.94.85S357.49,464.12,351.12,470.32Z"/><path class="cls-9" d="M373.6,454.87c-6.37,6.2-17.09,5.82-23.94-.85s-7.25-17.12-.88-23.32,17.09-5.82,23.94.85S380,448.66,373.6,454.87Z"/><path class="cls-10" d="M367.36,452.85a15.61,15.61,0,0,1-20.9-5.9,14.78,14.78,0,0,1,5.21-20.58,15.61,15.61,0,0,1,20.9,5.9A14.78,14.78,0,0,1,367.36,452.85Z"/><path class="cls-9" d="M257.64,454.43c-8.25-3.52-11.79-13.38-7.9-22s13.73-12.81,22-9.29,11.79,13.38,7.9,22S265.89,457.95,257.64,454.43Z"/><path class="cls-10" d="M257.3,448a14.73,14.73,0,0,1-2-21.11c5.41-6.59,15.07-7.84,21.57-2.77a14.73,14.73,0,0,1,2,21.11C273.46,451.86,263.8,453.1,257.3,448Z"/><path class="cls-10" d="M299.44,464a16.61,16.61,0,0,1-23.06-.21,15.6,15.6,0,0,1-.22-22.46,16.61,16.61,0,0,1,23.06.21A15.6,15.6,0,0,1,299.44,464Z"/><path class="cls-10" d="M345.82,467.78a16.54,16.54,0,0,1-22.21-6A15.66,15.66,0,0,1,329.36,440a16.54,16.54,0,0,1,22.21,6A15.66,15.66,0,0,1,345.82,467.78Z"/><path class="cls-11" d="M356.23,402.35a13.7,13.7,0,0,1-12.8,14.43,13.49,13.49,0,0,1-13.84-13.25,13.7,13.7,0,0,1,12.8-14.43A13.49,13.49,0,0,1,356.23,402.35Z"/><path class="cls-12" d="M270.9,411.16A15.79,15.79,0,0,1,281,392.05a14.16,14.16,0,0,1,18.35,9.5,15.79,15.79,0,0,1-10.1,19.11A14.16,14.16,0,0,1,270.9,411.16Z"/><path class="cls-13" d="M274.92,407a13.7,13.7,0,0,1,12.8-14.43,13.49,13.49,0,0,1,13.84,13.25,13.7,13.7,0,0,1-12.8,14.43A13.49,13.49,0,0,1,274.92,407Z"/><path class="cls-12" d="M356.68,402.83a13.7,13.7,0,0,1-12.8,14.43A13.49,13.49,0,0,1,330.05,404a13.7,13.7,0,0,1,12.8-14.43A13.49,13.49,0,0,1,356.68,402.83Z"/><path class="cls-14" d="M301,446.49c-5.41,5.85-14.51,5.49-20.33-.81s-6.15-16.15-.75-22,14.51-5.49,20.33.81S306.39,440.64,301,446.49Z"/><path class="cls-14" d="M321.57,448.11c-5.41,5.85-14.51,5.49-20.33-.81s-6.15-16.15-.75-22,14.51-5.49,20.33.81S327,442.26,321.57,448.11Z"/><path class="cls-13" d="M321.85,442.54a13.12,13.12,0,0,1-19.58-.2,15.87,15.87,0,0,1-.18-21.19,13.12,13.12,0,0,1,19.58.2A15.87,15.87,0,0,1,321.85,442.54Z"/><path class="cls-14" d="M345.15,446.9c-5.41,5.85-14.51,5.49-20.33-.81s-6.15-16.15-.75-22,14.51-5.49,20.33.81S350.56,441,345.15,446.9Z"/><path class="cls-14" d="M364.24,432.31c-5.41,5.85-14.51,5.49-20.33-.81s-6.15-16.15-.75-22,14.51-5.49,20.33.81S369.65,426.46,364.24,432.31Z"/><path class="cls-13" d="M358.95,430.41c-6.12,3.83-14.07,1.33-17.75-5.57s-1.7-15.59,4.42-19.42,14.07-1.33,17.75,5.57S365.07,426.58,358.95,430.41Z"/><path class="cls-14" d="M265.77,431.9c-7-3.32-10-12.63-6.71-20.79s11.66-12.08,18.66-8.76,10,12.63,6.71,20.79S272.77,435.22,265.77,431.9Z"/><path class="cls-13" d="M265.48,425.87c-5.52-4.78-6.27-13.7-1.67-19.92s12.8-7.39,18.32-2.62,6.27,13.7,1.67,19.92S271,430.64,265.48,425.87Z"/><path class="cls-13" d="M301.27,440.92a13.12,13.12,0,0,1-19.58-.2,15.87,15.87,0,0,1-.18-21.19,13.12,13.12,0,0,1,19.58.2A15.87,15.87,0,0,1,301.27,440.92Z"/><path class="cls-13" d="M340.65,444.5c-6.56,4.1-15,1.56-18.87-5.68s-1.67-16.42,4.89-20.52,15-1.56,18.87,5.68S347.21,440.4,340.65,444.5Z"/><path class="cls-13" d="M356,403.4a13.7,13.7,0,0,1-12.8,14.43,13.49,13.49,0,0,1-13.84-13.25,13.7,13.7,0,0,1,12.8-14.43A13.49,13.49,0,0,1,356,403.4Z"/><path class="cls-14" d="M282.72,401c-1.86-5.62,1.83-11.7,8.26-13.58s13.14,1.14,15,6.75-1.83,11.7-8.26,13.58S284.59,406.61,282.72,401Z"/><path class="cls-15" d="M286,398c-.24-5.43,4.45-10,10.46-10.26s11.08,4,11.31,9.42-4.45,10-10.46,10.26S286.24,403.45,286,398Z"/><path class="cls-14" d="M349,395.71c2,5.49-2,11.43-9.05,13.27s-14.41-1.11-16.45-6.6,2-11.43,9.05-13.27S346.92,390.22,349,395.71Z"/><path class="cls-15" d="M344.68,402.46c-3.22,5.32-10.6,7.61-16.49,5.12s-8-8.83-4.83-14.16,10.6-7.61,16.49-5.12S347.9,397.14,344.68,402.46Z"/><path class="cls-14" d="M307.73,427.44c-4.74,4.46-12.72,4.18-17.82-.61s-5.39-12.31-.65-16.77,12.72-4.18,17.82.61S312.47,423,307.73,427.44Z"/><path class="cls-14" d="M327.47,427.28c-4.76,4.48-12.78,4.21-17.91-.62s-5.42-12.37-.66-16.85,12.78-4.21,17.91.62S332.23,422.8,327.47,427.28Z"/><path class="cls-15" d="M327.72,423a12.75,12.75,0,0,1-17.25-.15,11,11,0,0,1-.16-16.23,12.75,12.75,0,0,1,17.25.15A11,11,0,0,1,327.72,423Z"/><path class="cls-14" d="M347,421.38c-4.74,4.46-12.72,4.19-17.82-.61s-5.39-12.31-.65-16.77,12.72-4.19,17.82.61S351.7,416.92,347,421.38Z"/><path class="cls-15" d="M342.55,419.77a11.85,11.85,0,0,1-15.66-3.84A10.43,10.43,0,0,1,330.38,401,11.85,11.85,0,0,1,346,404.88,10.43,10.43,0,0,1,342.55,419.77Z"/><path class="cls-14" d="M278.91,415A9.69,9.69,0,0,1,274,401.72a10.8,10.8,0,0,1,13.68-5.59,9.69,9.69,0,0,1,4.92,13.25A10.8,10.8,0,0,1,278.91,415Z"/><path class="cls-15" d="M278.7,411.12a8.66,8.66,0,0,1-1.23-12.7,10,10,0,0,1,13.43-1.67,8.66,8.66,0,0,1,1.23,12.7A10,10,0,0,1,278.7,411.12Z"/><path class="cls-15" d="M308,423.17a12.68,12.68,0,0,1-17.16-.12,11,11,0,0,1-.19-16.15,12.68,12.68,0,0,1,17.16.12A11,11,0,0,1,308,423.17Z"/><path class="cls-16" d="M293.77,387.74a8.07,8.07,0,0,1,5.46-9.85,7.73,7.73,0,0,1,9.92,4.9,8.07,8.07,0,0,1-5.46,9.85A7.73,7.73,0,0,1,293.77,387.74Z"/><path class="cls-17" d="M295.94,385.58a7.21,7.21,0,1,1,7.48,6.83A7.19,7.19,0,0,1,295.94,385.58Z"/><path class="cls-16" d="M337.57,383.91c1.35,4-1.33,8.28-6,9.62s-9.53-.81-10.88-4.78,1.33-8.28,6-9.62S336.22,379.93,337.57,383.91Z"/><path class="cls-17" d="M334.73,388.8a8.56,8.56,0,0,1-10.9,3.71,7.25,7.25,0,0,1-3.19-10.26,8.56,8.56,0,0,1,10.9-3.71A7.25,7.25,0,0,1,334.73,388.8Z"/><path class="cls-16" d="M310.3,406.91c-3.13,3.23-8.41,3-11.78-.45s-3.57-8.92-.43-12.15,8.41-3,11.78.45S313.43,403.67,310.3,406.91Z"/><path class="cls-16" d="M323.35,406.8c-3.15,3.25-8.45,3-11.84-.45s-3.58-9-.43-12.22,8.45-3,11.84.45S326.5,403.55,323.35,406.8Z"/><path class="cls-17" d="M323.52,403.7a7.89,7.89,0,0,1-11.41-.11,8.51,8.51,0,0,1-.11-11.77,7.89,7.89,0,0,1,11.41.11A8.51,8.51,0,0,1,323.52,403.7Z"/><path class="cls-16" d="M336.24,402.51c-3.13,3.23-8.41,3-11.78-.45s-3.57-8.92-.43-12.16,8.41-3,11.78.45S339.37,399.28,336.24,402.51Z"/><path class="cls-17" d="M333.17,401.46a7.46,7.46,0,0,1-10.29-3.07,8,8,0,0,1,2.56-10.73,7.46,7.46,0,0,1,10.29,3.07A8,8,0,0,1,333.17,401.46Z"/><path class="cls-16" d="M291.25,397.87c-3.4-1.53-4.85-5.83-3.25-9.6s5.65-5.58,9-4,4.85,5.83,3.25,9.6S294.64,399.4,291.25,397.87Z"/><path class="cls-17" d="M291.1,395.08a6.68,6.68,0,0,1-.81-9.2,6.21,6.21,0,0,1,8.88-1.21,6.68,6.68,0,0,1,.81,9.2A6.21,6.21,0,0,1,291.1,395.08Z"/><path class="cls-17" d="M309.35,403.69c-3.37,3.46-8.52,3.76-11.51.67s-2.68-8.41.69-11.87,8.52-3.76,11.51-.67S312.72,400.23,309.35,403.69Z"/><path class="cls-17" d="M304.23,379.81c2.81-5.94,9.49-8.95,14.91-6.71s7.54,8.86,4.72,14.81-9.49,8.95-14.91,6.71S301.42,385.75,304.23,379.81Z"/><ellipse class="cls-8" cx="310.15" cy="553.37" rx="9.87" ry="7.25"/><rect class="cls-8" x="300.28" y="525.35" width="19.74" height="27.44"/><path class="cls-8" d="M300.55,552.65c-2.55,2.9-6.68,4.1-10.62,4.84-.64.12-1.44.4-1.43,1,0,.45.48.75.92.92,1.88.72,4,.38,6,.18a40.49,40.49,0,0,1,5.93-.15,2.35,2.35,0,0,1,1.22.29c1,.66.3,2.09-.43,3l-3.21,3.92c3.84.41,7.19-2.4,11-3.17,4.49-.91,9,1.14,13.62,1.29.61,0,1.43-.19,1.4-.76a.91.91,0,0,0-.46-.63c-1.18-.82-3.09-1-3.54-2.28-.4-1.15.81-2.33,2.09-2.55a10.83,10.83,0,0,1,3.84.44,4.54,4.54,0,0,0,3.71-.52.56.56,0,0,0,.2-.25c.07-.23-.14-.44-.34-.58-2-1.41-4.64-1.51-6.93-2.4-1.88-.73-3.5-2-5.45-2.51a15.25,15.25,0,0,0-3.51-.36l-8-.2c-2.52-.06-2.65-.58-5,.2"/><path class="cls-9" d="M295.78,533.72c-6.37,6.2-17.09,5.82-23.94-.85s-7.25-17.12-.88-23.32,17.09-5.82,23.94.85S302.15,527.52,295.78,533.72Z"/><path class="cls-9" d="M320,535.44c-6.37,6.2-17.09,5.82-23.94-.85s-7.25-17.12-.88-23.32,17.09-5.82,23.94.85S326.39,529.23,320,535.44Z"/><path class="cls-10" d="M320.35,529.53a16.61,16.61,0,0,1-23.06-.21,15.6,15.6,0,0,1-.22-22.46,16.61,16.61,0,0,1,23.06.21A15.6,15.6,0,0,1,320.35,529.53Z"/><path class="cls-9" d="M347.79,534.15c-6.37,6.2-17.09,5.82-23.94-.85S316.6,516.18,323,510s17.09-5.82,23.94.85S354.15,527.95,347.79,534.15Z"/><path class="cls-9" d="M370.27,518.69c-6.37,6.2-17.09,5.82-23.94-.85s-7.25-17.12-.88-23.32,17.09-5.82,23.94.85S376.63,512.49,370.27,518.69Z"/><path class="cls-10" d="M364,516.68a15.61,15.61,0,0,1-20.9-5.9,14.78,14.78,0,0,1,5.21-20.58,15.61,15.61,0,0,1,20.9,5.9A14.78,14.78,0,0,1,364,516.68Z"/><path class="cls-9" d="M254.31,518.25c-8.25-3.52-11.79-13.38-7.9-22s13.73-12.81,22-9.29,11.79,13.38,7.9,22S262.56,521.77,254.31,518.25Z"/><path class="cls-10" d="M254,511.86a14.73,14.73,0,0,1-2-21.11c5.41-6.59,15.07-7.84,21.57-2.77a14.73,14.73,0,0,1,2,21.11C270.13,515.68,260.47,516.92,254,511.86Z"/><path class="cls-10" d="M296.11,527.82a16.61,16.61,0,0,1-23.06-.21,15.6,15.6,0,0,1-.22-22.46,16.61,16.61,0,0,1,23.06.21A15.6,15.6,0,0,1,296.11,527.82Z"/><path class="cls-10" d="M342.49,531.61a16.54,16.54,0,0,1-22.21-6A15.66,15.66,0,0,1,326,503.84a16.54,16.54,0,0,1,22.21,6A15.66,15.66,0,0,1,342.49,531.61Z"/><path class="cls-11" d="M352.9,466.17a13.7,13.7,0,0,1-12.8,14.43,13.49,13.49,0,0,1-13.84-13.25,13.7,13.7,0,0,1,12.8-14.43A13.49,13.49,0,0,1,352.9,466.17Z"/><path class="cls-12" d="M267.57,475a15.79,15.79,0,0,1,10.1-19.11,14.16,14.16,0,0,1,18.35,9.5,15.79,15.79,0,0,1-10.1,19.11A14.16,14.16,0,0,1,267.57,475Z"/><path class="cls-13" d="M271.59,470.8a13.7,13.7,0,0,1,12.8-14.43,13.49,13.49,0,0,1,13.84,13.25,13.7,13.7,0,0,1-12.8,14.43A13.49,13.49,0,0,1,271.59,470.8Z"/><path class="cls-12" d="M353.35,466.66a13.7,13.7,0,0,1-12.8,14.43,13.49,13.49,0,0,1-13.84-13.25,13.7,13.7,0,0,1,12.8-14.43A13.49,13.49,0,0,1,353.35,466.66Z"/><path class="cls-14" d="M297.65,510.32c-5.41,5.85-14.51,5.49-20.33-.81s-6.15-16.15-.75-22,14.51-5.49,20.33.81S303.06,504.46,297.65,510.32Z"/><path class="cls-14" d="M318.24,511.94c-5.41,5.85-14.51,5.49-20.33-.81s-6.15-16.15-.75-22,14.51-5.49,20.33.81S323.65,506.08,318.24,511.94Z"/><path class="cls-13" d="M318.52,506.37a13.12,13.12,0,0,1-19.58-.2,15.87,15.87,0,0,1-.18-21.19,13.12,13.12,0,0,1,19.58.2A15.87,15.87,0,0,1,318.52,506.37Z"/><path class="cls-14" d="M341.82,510.72c-5.41,5.85-14.51,5.49-20.33-.81s-6.15-16.15-.75-22,14.51-5.49,20.33.81S347.23,504.87,341.82,510.72Z"/><path class="cls-14" d="M360.91,496.14c-5.41,5.85-14.51,5.49-20.33-.81s-6.15-16.15-.75-22,14.51-5.49,20.33.81S366.32,490.28,360.91,496.14Z"/><path class="cls-13" d="M355.62,494.24c-6.12,3.83-14.07,1.33-17.75-5.57s-1.7-15.59,4.42-19.42,14.07-1.33,17.75,5.57S361.74,490.41,355.62,494.24Z"/><path class="cls-14" d="M262.44,495.72c-7-3.32-10-12.63-6.71-20.79s11.66-12.08,18.66-8.76,10,12.63,6.71,20.79S269.44,499,262.44,495.72Z"/><path class="cls-13" d="M262.15,489.69c-5.52-4.78-6.27-13.7-1.67-19.92s12.8-7.39,18.32-2.62,6.27,13.7,1.67,19.92S267.67,494.47,262.15,489.69Z"/><path class="cls-13" d="M297.94,504.75a13.12,13.12,0,0,1-19.58-.2,15.87,15.87,0,0,1-.18-21.19,13.12,13.12,0,0,1,19.58.2A15.87,15.87,0,0,1,297.94,504.75Z"/><path class="cls-13" d="M337.32,508.32c-6.56,4.1-15,1.56-18.87-5.68s-1.67-16.42,4.89-20.52,15-1.56,18.87,5.68S343.88,504.23,337.32,508.32Z"/><path class="cls-13" d="M352.66,467.22a13.7,13.7,0,0,1-12.8,14.43A13.49,13.49,0,0,1,326,468.4,13.7,13.7,0,0,1,338.82,454,13.49,13.49,0,0,1,352.66,467.22Z"/><path class="cls-14" d="M279.39,464.82c-1.86-5.62,1.83-11.7,8.26-13.58s13.14,1.14,15,6.75-1.83,11.7-8.26,13.58S281.26,470.44,279.39,464.82Z"/><path class="cls-15" d="M282.68,461.84c-.24-5.43,4.45-10,10.46-10.26s11.08,4,11.31,9.42S300,471,294,471.26,282.91,467.27,282.68,461.84Z"/><path class="cls-14" d="M345.64,459.53c2,5.49-2,11.43-9.05,13.27s-14.41-1.11-16.45-6.6,2-11.43,9.05-13.27S343.59,454,345.64,459.53Z"/><path class="cls-15" d="M341.35,466.29c-3.22,5.32-10.6,7.61-16.49,5.12s-8-8.83-4.83-14.16,10.6-7.61,16.49-5.12S344.57,461,341.35,466.29Z"/><path class="cls-14" d="M304.4,491.26c-4.74,4.46-12.72,4.18-17.82-.61s-5.39-12.31-.65-16.77,12.72-4.18,17.82.61S309.14,486.8,304.4,491.26Z"/><path class="cls-14" d="M324.14,491.11c-4.76,4.48-12.78,4.21-17.91-.62s-5.42-12.37-.66-16.85,12.78-4.21,17.91.62S328.9,486.63,324.14,491.11Z"/><path class="cls-15" d="M324.39,486.84a12.75,12.75,0,0,1-17.25-.15,11,11,0,0,1-.16-16.23,12.75,12.75,0,0,1,17.25.15A11,11,0,0,1,324.39,486.84Z"/><path class="cls-14" d="M343.62,485.2c-4.74,4.46-12.72,4.19-17.82-.61s-5.39-12.31-.65-16.77,12.72-4.19,17.82.61S348.36,480.74,343.62,485.2Z"/><path class="cls-15" d="M339.22,483.6a11.85,11.85,0,0,1-15.66-3.84,10.43,10.43,0,0,1,3.49-14.89,11.85,11.85,0,0,1,15.66,3.84A10.43,10.43,0,0,1,339.22,483.6Z"/><path class="cls-14" d="M275.58,478.79a9.69,9.69,0,0,1-4.92-13.25A10.8,10.8,0,0,1,284.35,460a9.69,9.69,0,0,1,4.92,13.25A10.8,10.8,0,0,1,275.58,478.79Z"/><path class="cls-15" d="M275.37,474.95a8.66,8.66,0,0,1-1.23-12.7,10,10,0,0,1,13.43-1.67,8.66,8.66,0,0,1,1.23,12.7A10,10,0,0,1,275.37,474.95Z"/><path class="cls-15" d="M304.66,487a12.68,12.68,0,0,1-17.16-.12,11,11,0,0,1-.19-16.15,12.68,12.68,0,0,1,17.16.12A11,11,0,0,1,304.66,487Z"/><path class="cls-16" d="M290.44,451.57a8.07,8.07,0,0,1,5.46-9.85,7.73,7.73,0,0,1,9.92,4.9,8.07,8.07,0,0,1-5.46,9.85A7.73,7.73,0,0,1,290.44,451.57Z"/><path class="cls-17" d="M292.61,449.4a7.21,7.21,0,1,1,7.48,6.83A7.19,7.19,0,0,1,292.61,449.4Z"/><path class="cls-16" d="M334.24,447.73c1.35,4-1.33,8.28-6,9.62s-9.53-.81-10.88-4.78,1.33-8.28,6-9.62S332.89,443.76,334.24,447.73Z"/><path class="cls-17" d="M331.4,452.63a8.56,8.56,0,0,1-10.9,3.71,7.25,7.25,0,0,1-3.19-10.26,8.56,8.56,0,0,1,10.9-3.71A7.25,7.25,0,0,1,331.4,452.63Z"/><path class="cls-16" d="M307,470.73c-3.13,3.23-8.41,3-11.78-.45s-3.57-8.92-.43-12.15,8.41-3,11.78.45S310.1,467.5,307,470.73Z"/><path class="cls-16" d="M320,470.62c-3.15,3.25-8.45,3-11.84-.45s-3.58-9-.43-12.22,8.45-3,11.84.45S323.17,467.37,320,470.62Z"/><path class="cls-17" d="M320.19,467.53a7.89,7.89,0,0,1-11.41-.11,8.51,8.51,0,0,1-.11-11.77,7.89,7.89,0,0,1,11.41.11A8.51,8.51,0,0,1,320.19,467.53Z"/><path class="cls-16" d="M332.91,466.34c-3.13,3.23-8.41,3-11.78-.45s-3.57-8.92-.43-12.16,8.41-3,11.78.45S336,463.11,332.91,466.34Z"/><path class="cls-17" d="M329.84,465.29a7.46,7.46,0,0,1-10.29-3.07,8,8,0,0,1,2.56-10.73,7.46,7.46,0,0,1,10.29,3.07A8,8,0,0,1,329.84,465.29Z"/><path class="cls-16" d="M287.92,461.69c-3.4-1.53-4.85-5.83-3.25-9.6s5.65-5.58,9-4,4.85,5.83,3.25,9.6S291.31,463.23,287.92,461.69Z"/><path class="cls-17" d="M287.77,458.91a6.68,6.68,0,0,1-.81-9.2,6.21,6.21,0,0,1,8.88-1.21,6.68,6.68,0,0,1,.81,9.2A6.21,6.21,0,0,1,287.77,458.91Z"/><path class="cls-17" d="M306,467.52c-3.37,3.46-8.52,3.76-11.51.67s-2.68-8.41.69-11.87,8.52-3.76,11.51-.67S309.39,464.05,306,467.52Z"/><path class="cls-17" d="M300.9,443.64c2.81-5.94,9.49-8.95,14.91-6.71s7.54,8.86,4.72,14.81-9.49,8.95-14.91,6.71S298.09,449.58,300.9,443.64Z"/></g></g></svg>