<svg xmlns="http://www.w3.org/2000/svg" viewBox="0 0 104.41 101.23"><defs><style>.cls-1{fill:#fb0125;}.cls-2{fill:#ba041f;}.cls-3{fill:#cc111e;}.cls-4{fill:#9a0314;}.cls-5{fill:#c7c5cb;}.cls-6{fill:#aeadb3;}.cls-7{fill:#fea921;}.cls-8{fill:#f2f2f2;}.cls-9{fill:#e58200;}.cls-10{fill:#ccc;}</style></defs><title>not1</title><g id="Capa_2" data-name="Capa 2"><g id="Capa_8" data-name="Capa 8"><path class="cls-1" d="M16.94,94.68h-9V1.73A1.73,1.73,0,0,1,9.67,0h5.55a1.73,1.73,0,0,1,1.73,1.73V94.68Z"/><path class="cls-1" d="M96.47,94.68h-9V1.73A1.73,1.73,0,0,1,89.2,0h5.55a1.73,1.73,0,0,1,1.73,1.73V94.68Z"/><rect class="cls-2" x="87.47" y="66.16" width="9.01" height="6.4"/><rect class="cls-2" x="7.94" y="66.16" width="9.01" height="6.4"/><path class="cls-3" d="M15.21,0H9.77A1.73,1.73,0,0,1,11.5,1.73V94.68h5.44V1.73A1.73,1.73,0,0,0,15.21,0Z"/><rect class="cls-4" x="11.5" y="66.16" width="5.44" height="6.4"/><path class="cls-5" d="M21.09,94.68H3.79a1.41,1.41,0,0,0-1.41,1.41v3.73a1.41,1.41,0,0,0,1.41,1.41H21.09a1.41,1.41,0,0,0,1.41-1.41V96.09A1.41,1.41,0,0,0,21.09,94.68Z"/><path class="cls-6" d="M16.94,94.68v6.55h4.14a1.41,1.41,0,0,0,1.41-1.41V96.09a1.41,1.41,0,0,0-1.41-1.41Z"/><path class="cls-3" d="M94.74,0H89.19a1.73,1.73,0,0,1,1.73,1.73V94.68h5.55V1.73A1.73,1.73,0,0,0,94.74,0Z"/><rect class="cls-4" x="90.92" y="66.16" width="5.55" height="6.4"/><path class="cls-5" d="M100.62,94.68H83.32a1.41,1.41,0,0,0-1.41,1.41v3.73a1.41,1.41,0,0,0,1.41,1.41h17.29A1.41,1.41,0,0,0,102,99.82V96.09A1.41,1.41,0,0,0,100.62,94.68Z"/><path class="cls-7" d="M102,66.16H2.41A2.41,2.41,0,0,1,0,63.76v-53A2.41,2.41,0,0,1,2.41,8.31H102a2.41,2.41,0,0,1,2.41,2.41v53A2.41,2.41,0,0,1,102,66.16Z"/><polygon class="cls-8" points="56.43 8.31 43.86 8.31 23.86 66.17 36.43 66.17 56.43 8.31"/><path class="cls-8" d="M0,17,3,8.31h-.6A2.41,2.41,0,0,0,0,10.71Z"/><path class="cls-8" d="M17.15,8.31,0,57.91v5.84a2.41,2.41,0,0,0,2.41,2.41H9.72l20-57.86Z"/><polygon class="cls-8" points="83.14 8.31 70.57 8.31 50.57 66.17 63.14 66.17 83.14 8.31"/><path class="cls-8" d="M104.41,24V10.71A2.41,2.41,0,0,0,102,8.31H97.28l-20,57.86H89.85Z"/><path class="cls-6" d="M96.47,94.68v6.55h4.14A1.41,1.41,0,0,0,102,99.82V96.09a1.41,1.41,0,0,0-1.41-1.41Z"/><path class="cls-9" d="M102,8.31H95.74a2.41,2.41,0,0,1,2.41,2.41v45a4.2,4.2,0,0,1-4.2,4.2H0v3.85a2.41,2.41,0,0,0,2.41,2.41H102a2.41,2.41,0,0,0,2.12-1.26,2.37,2.37,0,0,0,.18-.43c0-.08,0-.15.06-.23a2.41,2.41,0,0,0,0-.49h0v-53A2.41,2.41,0,0,0,102,8.31Z"/><path class="cls-10" d="M104.41,10.71a2.41,2.41,0,0,0-1.26-2.12,2.41,2.41,0,0,1,1.26,2.12V24h0Z"/><path class="cls-10" d="M0,63.76V59.9H0v3.85a2.41,2.41,0,0,0,2.41,2.41h0A2.41,2.41,0,0,1,0,63.76Z"/><path class="cls-10" d="M102,8.31a2.4,2.4,0,0,1,1.15.29A2.4,2.4,0,0,0,102,8.31H95.74a2.39,2.39,0,0,1,1.39.44l.15-.44Z"/><polygon class="cls-10" points="26.02 59.9 23.86 66.17 36.43 66.17 38.59 59.9 26.02 59.9"/><path class="cls-10" d="M0,59.9v3.85a2.41,2.41,0,0,0,2.41,2.41H9.72l2.17-6.26H0Z"/><polygon class="cls-10" points="52.73 59.9 50.57 66.17 63.14 66.17 65.3 59.9 52.73 59.9"/><path class="cls-10" d="M103.15,8.6A2.4,2.4,0,0,0,102,8.31H97.28l-.15.44a2.4,2.4,0,0,1,1,2V42.16L104.41,24V10.71A2.41,2.41,0,0,0,103.15,8.6Z"/><polygon class="cls-10" points="79.44 59.9 77.28 66.17 89.85 66.17 92.01 59.9 79.44 59.9"/></g></g></svg>