<svg xmlns="http://www.w3.org/2000/svg" xmlns:xlink="http://www.w3.org/1999/xlink" viewBox="0 0 136.6 226.46"><defs><style>.cls-1{fill:#2e4f68;}.cls-2{fill:#083863;}.cls-3{fill:#822293;}.cls-4{fill:#62146d;}.cls-5{fill:#5a5b5b;}.cls-6{fill:#5f6060;}.cls-7{fill:#c7c6c5;}.cls-8{fill:#b5b4b4;}.cls-9{fill:#424242;}.cls-10{fill:url(#Degradado_sin_nombre_5);}.cls-11,.cls-13{fill:none;stroke:#62146d;stroke-miterlimit:10;}.cls-11{stroke-width:4px;}.cls-12{fill:url(#Degradado_sin_nombre_5-2);}.cls-13{stroke-width:2.15px;}</style><linearGradient id="Degradado_sin_nombre_5" x1="43.91" y1="22.76" x2="89.42" y2="22.76" gradientUnits="userSpaceOnUse"><stop offset="0" stop-color="#f2f2f2"/><stop offset="0.24" stop-color="#f0f0ef"/><stop offset="0.44" stop-color="#ebe8e4"/><stop offset="0.63" stop-color="#e3dbd2"/><stop offset="0.82" stop-color="#d7caba"/><stop offset="1" stop-color="#c7b39a"/><stop offset="1" stop-color="#c7b299"/></linearGradient><linearGradient id="Degradado_sin_nombre_5-2" x1="59.45" y1="202.04" x2="83.87" y2="202.04" xlink:href="#Degradado_sin_nombre_5"/></defs><title>preguntas</title><g id="Capa_2" data-name="Capa 2"><g id="Capa_11" data-name="Capa 11"><rect class="cls-1" x="15.6" y="94.36" width="109.34" height="98.24"/><rect class="cls-2" x="7.57" y="98.26" width="9.35" height="84.16"/><rect class="cls-2" x="119.78" y="98.26" width="9.35" height="84.16"/><polygon class="cls-3" points="121.56 53.84 100.75 53.84 75.51 53.84 60.08 53.84 37.4 53.84 17.07 53.84 0 84.23 21.04 84.23 21.04 84.23 22.21 84.23 52.6 84.23 82.99 84.23 83.22 84.23 114.55 84.23 114.55 84.23 135.82 84.23 121.56 53.84"/><rect class="cls-4" x="3.94" y="177.62" width="132.66" height="48.84"/><rect class="cls-4" x="0.06" y="83.81" width="135.43" height="23.31"/><rect class="cls-5" x="63" y="59.81" width="8.46" height="13.99" rx="4.22" ry="4.22" transform="translate(0.1 -0.1) rotate(0.09)"/><rect class="cls-6" x="63.01" y="58.02" width="8.3" height="7.65" rx="3.82" ry="3.82" transform="translate(0.09 -0.1) rotate(0.09)"/><rect class="cls-5" x="65.07" y="30.7" width="3.74" height="30.91" rx="1.87" ry="1.87" transform="translate(133.8 92.4) rotate(-179.91)"/><ellipse class="cls-5" cx="66.63" cy="31.67" rx="6.83" ry="6.02" transform="translate(34.86 98.26) rotate(-89.91)"/><ellipse class="cls-7" cx="66.64" cy="29.4" rx="6.83" ry="6.02" transform="translate(37.14 95.99) rotate(-89.91)"/><ellipse class="cls-8" cx="66.64" cy="24.52" rx="6.83" ry="6.02" transform="translate(42.03 91.12) rotate(-89.91)"/><ellipse class="cls-9" cx="66.48" cy="23.86" rx="4.88" ry="7.32" transform="translate(42.52 90.31) rotate(-89.91)"/><ellipse class="cls-5" cx="66.48" cy="22.08" rx="4.88" ry="7.32" transform="matrix(0, -1, 1, 0, 44.31, 88.53)"/><circle class="cls-10" cx="66.66" cy="22.76" r="22.76"/><circle class="cls-11" cx="66.94" cy="23.03" r="18.59"/><circle class="cls-12" cx="71.66" cy="202.04" r="12.21"/><circle class="cls-13" cx="71.81" cy="202.19" r="9.98"/><path class="cls-3" d="M70,202.79V204a.41.41,0,0,1-.08.25.52.52,0,0,1-.19.16,2.32,2.32,0,0,1-.36.12l-.33.09a1.85,1.85,0,0,0-.7.33.83.83,0,0,0-.25.68.8.8,0,0,0,.14.46,1,1,0,0,0,.36.32,1,1,0,0,0,.48.12,1,1,0,0,0,.56-.15,2.65,2.65,0,0,0,.49-.45,4.1,4.1,0,0,1,.43-.43.64.64,0,0,1,.42-.14.66.66,0,0,1,.52.23.92.92,0,0,1,.2.62,1.44,1.44,0,0,1-.25.81,2.11,2.11,0,0,1-.65.63,3.39,3.39,0,0,1-.86.39,3.12,3.12,0,0,1-.87.13,3.26,3.26,0,0,1-1.42-.31,2.47,2.47,0,0,1-1-.89,2.38,2.38,0,0,1-.38-1.34,2.23,2.23,0,0,1,.55-1.56,2.91,2.91,0,0,1,1.5-.84v-.42a.78.78,0,0,1,.24-.59.85.85,0,0,1,.61-.23.84.84,0,0,1,.62.23A.8.8,0,0,1,70,202.79Zm-.85-3.37a.88.88,0,0,1,.65.27.9.9,0,0,1,.27.65.92.92,0,0,1-.92.92.9.9,0,0,1-.65-.27.88.88,0,0,1-.27-.65.93.93,0,0,1,.93-.93Z"/><path class="cls-3" d="M73.45,202.65v-1.19a.38.38,0,0,1,.21-.38,4.93,4.93,0,0,1,.75-.24,2,2,0,0,0,.7-.34.93.93,0,0,0,0-1.31,1.07,1.07,0,0,0-1.26-.1,2.45,2.45,0,0,0-.49.45,3.23,3.23,0,0,1-.42.43.67.67,0,0,1-.43.14.66.66,0,0,1-.52-.23.92.92,0,0,1-.2-.62,1.42,1.42,0,0,1,.25-.81,2.19,2.19,0,0,1,.65-.63,3.25,3.25,0,0,1,.87-.39,3.19,3.19,0,0,1,.86-.13,3.24,3.24,0,0,1,1.41.31,2.49,2.49,0,0,1,1,.89,2.38,2.38,0,0,1,.38,1.35,2.22,2.22,0,0,1-.54,1.54,2.94,2.94,0,0,1-1.5.85v.43a.78.78,0,0,1-.24.59.94.94,0,0,1-1.23,0A.79.79,0,0,1,73.45,202.65Zm.86,3.36a.92.92,0,1,1,0-1.84.88.88,0,0,1,.65.27.93.93,0,0,1,0,1.3A.88.88,0,0,1,74.31,206Z"/><path class="cls-3" d="M63.48,23.51v2.28a.8.8,0,0,1-.15.49,1,1,0,0,1-.37.31,4.49,4.49,0,0,1-.7.24l-.64.18a3.57,3.57,0,0,0-1.35.64A1.6,1.6,0,0,0,59.79,29a1.55,1.55,0,0,0,.27.89,1.9,1.9,0,0,0,.7.63,2,2,0,0,0,.92.22,1.92,1.92,0,0,0,1.08-.3,5.12,5.12,0,0,0,1-.87,7.93,7.93,0,0,1,.84-.84,1.24,1.24,0,0,1,.81-.27,1.27,1.27,0,0,1,1,.45,1.77,1.77,0,0,1,.39,1.2,2.79,2.79,0,0,1-.48,1.57A4.08,4.08,0,0,1,65,32.86a6.56,6.56,0,0,1-1.66.74,6,6,0,0,1-1.68.26A6.3,6.3,0,0,1,59,33.26a4.78,4.78,0,0,1-2-1.71A4.61,4.61,0,0,1,56.23,29a4.3,4.3,0,0,1,1.06-3,5.63,5.63,0,0,1,2.9-1.62v-.82a1.51,1.51,0,0,1,.47-1.14,1.65,1.65,0,0,1,1.18-.45,1.62,1.62,0,0,1,1.2.44A1.55,1.55,0,0,1,63.48,23.51ZM61.84,17a1.7,1.7,0,0,1,1.26.53,1.74,1.74,0,0,1,.51,1.26,1.77,1.77,0,0,1-1.78,1.78,1.74,1.74,0,0,1-1.26-.52,1.69,1.69,0,0,1-.53-1.26A1.79,1.79,0,0,1,61.84,17Z"/><path class="cls-3" d="M70.21,23.24V20.95a.74.74,0,0,1,.4-.74,9.53,9.53,0,0,1,1.46-.47,3.81,3.81,0,0,0,1.35-.65,1.8,1.8,0,0,0-.09-2.54,2.06,2.06,0,0,0-2.44-.19,4.74,4.74,0,0,0-.94.87,6.25,6.25,0,0,1-.82.82,1.29,1.29,0,0,1-.82.27,1.27,1.27,0,0,1-1-.45,1.77,1.77,0,0,1-.39-1.2,2.75,2.75,0,0,1,.48-1.56,4.23,4.23,0,0,1,1.26-1.21,6.27,6.27,0,0,1,1.68-.75A6.17,6.17,0,0,1,72,12.89a6.27,6.27,0,0,1,2.73.59,4.81,4.81,0,0,1,2,1.72,4.6,4.6,0,0,1,.74,2.6,4.28,4.28,0,0,1-1.05,3,5.67,5.67,0,0,1-2.9,1.63v.83A1.5,1.5,0,0,1,73,24.38a1.82,1.82,0,0,1-2.38,0A1.52,1.52,0,0,1,70.21,23.24Zm1.65,6.49a1.78,1.78,0,1,1,0-3.56,1.7,1.7,0,0,1,1.26.52,1.8,1.8,0,0,1,0,2.52A1.7,1.7,0,0,1,71.86,29.74Z"/></g></g></svg>