<svg xmlns="http://www.w3.org/2000/svg" xmlns:xlink="http://www.w3.org/1999/xlink" viewBox="0 0 136.6 226.47"><defs><style>.cls-1{fill:#2e4f68;}.cls-2{fill:#083863;}.cls-3{fill:#822293;}.cls-4{fill:#62146d;}.cls-5{fill:#5a5b5b;}.cls-6{fill:#5f6060;}.cls-7{fill:#c7c6c5;}.cls-8{fill:#b5b4b4;}.cls-9{fill:#424242;}.cls-10{fill:url(#Degradado_sin_nombre_5);}.cls-11,.cls-13{fill:none;stroke:#62146d;stroke-miterlimit:10;}.cls-11{stroke-width:4px;}.cls-12{fill:url(#Degradado_sin_nombre_5-2);}.cls-13{stroke-width:2.15px;}</style><linearGradient id="Degradado_sin_nombre_5" x1="43.91" y1="22.76" x2="89.42" y2="22.76" gradientUnits="userSpaceOnUse"><stop offset="0" stop-color="#f2f2f2"/><stop offset="0.24" stop-color="#f0f0ef"/><stop offset="0.44" stop-color="#ebe8e4"/><stop offset="0.63" stop-color="#e3dbd2"/><stop offset="0.82" stop-color="#d7caba"/><stop offset="1" stop-color="#c7b39a"/><stop offset="1" stop-color="#c7b299"/></linearGradient><linearGradient id="Degradado_sin_nombre_5-2" x1="59.45" y1="202.05" x2="83.87" y2="202.05" xlink:href="#Degradado_sin_nombre_5"/></defs><title>preguntas</title><g id="Capa_2" data-name="Capa 2"><g id="Capa_8" data-name="Capa 8"><rect class="cls-1" x="15.6" y="94.36" width="109.34" height="98.25"/><rect class="cls-2" x="7.57" y="98.26" width="9.35" height="84.16"/><rect class="cls-2" x="119.78" y="98.26" width="9.35" height="84.16"/><polygon class="cls-3" points="121.56 53.84 100.75 53.84 75.51 53.84 60.08 53.84 37.4 53.84 17.07 53.84 0 84.23 21.04 84.23 21.04 84.23 22.21 84.23 52.6 84.23 82.99 84.23 83.22 84.23 114.55 84.23 114.55 84.23 135.82 84.23 121.56 53.84"/><rect class="cls-4" x="3.94" y="177.62" width="132.66" height="48.85"/><rect class="cls-4" x="0.06" y="83.82" width="135.43" height="23.31"/><rect class="cls-5" x="60.24" y="62.58" width="13.99" height="8.46" rx="4.23" ry="4.23" transform="translate(0.32 133.94) rotate(-89.91)"/><rect class="cls-6" x="63.33" y="57.7" width="7.65" height="8.3" rx="3.1" ry="3.1" transform="translate(5.21 128.91) rotate(-89.91)"/><rect class="cls-5" x="51.48" y="44.28" width="30.91" height="3.74" rx="1.23" ry="1.23" transform="translate(20.68 113.02) rotate(-89.91)"/><ellipse class="cls-5" cx="66.63" cy="31.67" rx="6.83" ry="6.02" transform="translate(34.86 98.26) rotate(-89.91)"/><ellipse class="cls-7" cx="66.64" cy="29.4" rx="6.83" ry="6.02" transform="translate(37.14 95.99) rotate(-89.91)"/><ellipse class="cls-8" cx="66.64" cy="24.52" rx="6.83" ry="6.02" transform="translate(42.03 91.12) rotate(-89.91)"/><ellipse class="cls-9" cx="66.48" cy="23.87" rx="4.88" ry="7.32" transform="translate(42.52 90.31) rotate(-89.91)"/><ellipse class="cls-5" cx="66.48" cy="22.08" rx="4.88" ry="7.32" transform="translate(44.31 88.53) rotate(-89.91)"/><circle class="cls-10" cx="66.66" cy="22.76" r="22.76"/><circle class="cls-11" cx="66.94" cy="23.04" r="18.59"/><path class="cls-4" d="M67.16,10.6a2.37,2.37,0,0,1,1.25.35,2.75,2.75,0,0,1,.93.93,2.27,2.27,0,0,1,.35,1.2A2.56,2.56,0,0,1,69,14.91a2.42,2.42,0,0,1-3.57,0,2.52,2.52,0,0,1-.77-1.81,2.35,2.35,0,0,1,.77-1.72A2.46,2.46,0,0,1,67.16,10.6ZM64.91,31.9v-12a2.63,2.63,0,0,1,.62-1.81,2.08,2.08,0,0,1,1.63-.7,2.2,2.2,0,0,1,1.17.31,2.17,2.17,0,0,1,.8.89,2.84,2.84,0,0,1,.29,1.31v12a2.84,2.84,0,0,1-.29,1.31,2.13,2.13,0,0,1-.81.89,2.22,2.22,0,0,1-1.16.31,2.08,2.08,0,0,1-1.63-.7A2.63,2.63,0,0,1,64.91,31.9Z"/><circle class="cls-12" cx="71.66" cy="202.05" r="12.21"/><circle class="cls-13" cx="71.81" cy="202.19" r="9.98"/><path class="cls-4" d="M71.92,195.52a1.27,1.27,0,0,1,.67.19,1.48,1.48,0,0,1,.5.5,1.22,1.22,0,0,1,.19.64,1.37,1.37,0,0,1-.4,1,1.3,1.3,0,0,1-1.91,0,1.35,1.35,0,0,1-.41-1,1.26,1.26,0,0,1,.41-.92A1.32,1.32,0,0,1,71.92,195.52ZM70.72,207V200.5a1.41,1.41,0,0,1,.33-1,1.11,1.11,0,0,1,.87-.37,1.18,1.18,0,0,1,.63.17,1.16,1.16,0,0,1,.43.48,1.52,1.52,0,0,1,.16.7V207a1.52,1.52,0,0,1-.16.7,1.15,1.15,0,0,1-.44.48,1.19,1.19,0,0,1-.62.17,1.11,1.11,0,0,1-.87-.37A1.41,1.41,0,0,1,70.72,207Z"/></g></g></svg>