<svg xmlns="http://www.w3.org/2000/svg" xmlns:xlink="http://www.w3.org/1999/xlink" viewBox="0 0 555.47 535.07"><defs><style>.cls-1{isolation:isolate;}.cls-2{fill:#a3abaf;}.cls-3{fill:#b3bec6;}.cls-4{fill:#aab4ba;}.cls-5{fill:#cbdbeb;}.cls-6{fill:#96b5ed;}.cls-7{fill:#f73131;}.cls-8{fill:#6e9fe5;}.cls-9{fill:#528ac1;}.cls-10{fill:#7fadd3;}.cls-11{fill:#898888;}.cls-12{fill:#b2b1b1;}.cls-13{fill:#a0a0a0;}.cls-14,.cls-23{fill:#424242;}.cls-14{opacity:0.3;}.cls-15{fill:#827049;}.cls-16{fill:#9b9173;}.cls-17{fill:#87b5c4;}.cls-18{fill:#cbf1f7;}.cls-19{fill:#5a5b5b;}.cls-20{fill:#5f6060;}.cls-21{fill:#c7c6c5;}.cls-22{fill:#b5b4b4;}.cls-24{fill:#f4e3b8;}.cls-25{fill:#d8cc9c;}.cls-26{fill:#c7c5cb;}.cls-27{fill:#aeadb3;}.cls-28{fill:url(#Degradado_sin_nombre_5);}.cls-29{fill:#f2f2f2;}.cls-30{fill:#f2e3dd;opacity:0.28;mix-blend-mode:multiply;}.cls-31{fill:#ccc;}.cls-32{fill:#430d49;stroke:#430d49;stroke-width:3.46px;}.cls-32,.cls-33{stroke-miterlimit:10;}.cls-33{fill:#8f1e9b;stroke:#8f1e9b;stroke-width:1.43px;}.cls-34{fill:#edc10a;}.cls-35{fill:#2a4fb7;}.cls-36{fill:url(#Blanco_Negro);}.cls-37{fill:#fff;}.cls-38{fill:#324a5e;}.cls-39{fill:#ced5e0;}.cls-40{fill:#e6e9ee;}.cls-41{fill:#fcf4e6;}.cls-42{fill:#ffd400;}.cls-43{fill:#acb3ba;}</style><linearGradient id="Degradado_sin_nombre_5" x1="333.87" y1="312.05" x2="366.62" y2="520.75" gradientUnits="userSpaceOnUse"><stop offset="0" stop-color="#f2f2f2"/><stop offset="0.24" stop-color="#f0f0ef"/><stop offset="0.44" stop-color="#ebe8e4"/><stop offset="0.63" stop-color="#e3dbd2"/><stop offset="0.82" stop-color="#d7caba"/><stop offset="1" stop-color="#c7b39a"/><stop offset="1" stop-color="#c7b299"/></linearGradient><linearGradient id="Blanco_Negro" x1="113.9" y1="-17.63" x2="113.9" y2="58.35" gradientUnits="userSpaceOnUse"><stop offset="0" stop-color="#fff"/><stop offset="1"/></linearGradient></defs><title>twinbuild</title><g class="cls-1"><g id="Capa_2" data-name="Capa 2"><g id="Capa_11" data-name="Capa 11"><rect class="cls-2" y="367.64" width="68.23" height="21.09"/><rect class="cls-3" x="67.68" y="367.64" width="52.97" height="21.09"/><rect class="cls-4" x="120.09" y="367.64" width="52.97" height="21.09"/><rect class="cls-2" x="172.5" y="367.64" width="52.97" height="21.09"/><rect class="cls-2" x="330" y="367.64" width="68.23" height="21.09"/><rect class="cls-3" x="397.68" y="367.64" width="52.97" height="21.09"/><rect class="cls-4" x="450.09" y="367.64" width="52.97" height="21.09"/><rect class="cls-2" x="502.5" y="367.64" width="52.97" height="21.09"/><path class="cls-5" d="M144.48,368.25H217.4V277.82H21.06v90.43H88.88V362.6H144.4S144.48,368.67,144.48,368.25Z"/><rect class="cls-6" x="21.06" y="359.26" width="195.96" height="8.99"/><rect class="cls-6" x="143.68" y="359.08" width="73.94" height="9.17"/><path class="cls-5" d="M110.44,281H217.73V190.57H21.39V281h37v-5.65h51.91S110.44,281.41,110.44,281Z"/><rect class="cls-6" x="21.39" y="271.78" width="37.05" height="9.21"/><rect class="cls-7" x="20.44" y="270.63" width="197.49" height="10.36"/><path class="cls-8" d="M49.95,205H36.61a4.35,4.35,0,0,0-4.34,4.34v16a4.35,4.35,0,0,0,4.34,4.34H49.95Z"/><path class="cls-9" d="M49.13,205.85H37a4,4,0,0,0-3.94,3.94v15.15A4,4,0,0,0,37,228.87h12.1Z"/><rect class="cls-10" x="38.9" y="216.92" width="1.15" height="6.43" rx="0.58" ry="0.58" transform="translate(-138.04 84.1) rotate(-42.37)"/><rect class="cls-10" x="42.19" y="216.48" width="1.15" height="6.43" rx="0.58" ry="0.58" transform="translate(-136.89 86.2) rotate(-42.37)"/><path class="cls-8" d="M51.38,204.71H64.71a4.35,4.35,0,0,1,4.34,4.34v16a4.35,4.35,0,0,1-4.34,4.34H51.38Z"/><path class="cls-9" d="M52.2,205.61H64.3a4,4,0,0,1,3.94,3.94v15.15a4,4,0,0,1-3.94,3.94H52.2Z"/><rect class="cls-10" x="56.92" y="217.16" width="1.15" height="6.43" rx="0.58" ry="0.58" transform="translate(-133.5 96.31) rotate(-42.37)"/><rect class="cls-10" x="60.21" y="216.72" width="1.15" height="6.43" rx="0.58" ry="0.58" transform="translate(-132.34 98.41) rotate(-42.37)"/><path class="cls-8" d="M49.95,235.36H36.61a4.35,4.35,0,0,0-4.34,4.34v16a4.35,4.35,0,0,0,4.34,4.34H49.95Z"/><path class="cls-9" d="M49.13,236.25H37a4,4,0,0,0-3.94,3.94v15.15A4,4,0,0,0,37,259.27h12.1Z"/><rect class="cls-10" x="38.9" y="247.32" width="1.15" height="6.43" rx="0.58" ry="0.58" transform="translate(-158.53 92.04) rotate(-42.37)"/><rect class="cls-10" x="42.19" y="246.88" width="1.15" height="6.43" rx="0.58" ry="0.58" transform="translate(-157.37 94.14) rotate(-42.37)"/><path class="cls-8" d="M51.38,235.12H64.71a4.35,4.35,0,0,1,4.34,4.34v16a4.35,4.35,0,0,1-4.34,4.34H51.38Z"/><path class="cls-9" d="M52.2,236H64.3a4,4,0,0,1,3.94,3.94v15.15A4,4,0,0,1,64.3,259H52.2Z"/><rect class="cls-10" x="56.92" y="247.56" width="1.15" height="6.43" rx="0.58" ry="0.58" transform="translate(-153.98 104.25) rotate(-42.37)"/><rect class="cls-10" x="60.21" y="247.12" width="1.15" height="6.43" rx="0.58" ry="0.58" transform="translate(-152.83 106.35) rotate(-42.37)"/><path class="cls-8" d="M95.37,205H82a4.35,4.35,0,0,0-4.34,4.34v16A4.35,4.35,0,0,0,82,229.65H95.37Z"/><path class="cls-9" d="M94.55,205.85H82.45a4,4,0,0,0-3.94,3.94v15.15a4,4,0,0,0,3.94,3.94h12.1Z"/><rect class="cls-10" x="84.32" y="216.92" width="1.15" height="6.43" rx="0.58" ry="0.58" transform="translate(-126.18 114.71) rotate(-42.37)"/><rect class="cls-10" x="87.61" y="216.48" width="1.15" height="6.43" rx="0.58" ry="0.58" transform="translate(-125.02 116.81) rotate(-42.37)"/><path class="cls-8" d="M96.8,204.71h13.33a4.35,4.35,0,0,1,4.34,4.34v16a4.35,4.35,0,0,1-4.34,4.34H96.8Z"/><path class="cls-9" d="M97.62,205.61h12.1a4,4,0,0,1,3.94,3.94v15.15a4,4,0,0,1-3.94,3.94H97.62Z"/><rect class="cls-10" x="102.35" y="217.16" width="1.15" height="6.43" rx="0.58" ry="0.58" transform="translate(-121.63 126.92) rotate(-42.37)"/><rect class="cls-10" x="105.63" y="216.72" width="1.15" height="6.43" rx="0.58" ry="0.58" transform="translate(-120.48 129.02) rotate(-42.37)"/><path class="cls-8" d="M95.37,235.36H82a4.35,4.35,0,0,0-4.34,4.34v16A4.35,4.35,0,0,0,82,260.05H95.37Z"/><path class="cls-9" d="M94.55,236.25H82.45a4,4,0,0,0-3.94,3.94v15.15a4,4,0,0,0,3.94,3.94h12.1Z"/><rect class="cls-10" x="84.32" y="247.32" width="1.15" height="6.43" rx="0.58" ry="0.58" transform="translate(-146.67 122.65) rotate(-42.37)"/><rect class="cls-10" x="87.61" y="246.88" width="1.15" height="6.43" rx="0.58" ry="0.58" transform="translate(-145.51 124.75) rotate(-42.37)"/><path class="cls-8" d="M96.8,235.12h13.33a4.35,4.35,0,0,1,4.34,4.34v16a4.35,4.35,0,0,1-4.34,4.34H96.8Z"/><path class="cls-9" d="M97.62,236h12.1a4,4,0,0,1,3.94,3.94v15.15a4,4,0,0,1-3.94,3.94H97.62Z"/><rect class="cls-10" x="102.35" y="247.56" width="1.15" height="6.43" rx="0.58" ry="0.58" transform="translate(-142.12 134.86) rotate(-42.37)"/><rect class="cls-10" x="105.63" y="247.12" width="1.15" height="6.43" rx="0.58" ry="0.58" transform="translate(-140.96 136.96) rotate(-42.37)"/><path class="cls-8" d="M142.11,205H128.78a4.35,4.35,0,0,0-4.34,4.34v16a4.35,4.35,0,0,0,4.34,4.34h13.33Z"/><path class="cls-9" d="M141.3,205.85H129.2a4,4,0,0,0-3.94,3.94v15.15a4,4,0,0,0,3.94,3.94h12.1Z"/><rect class="cls-10" x="131.07" y="216.92" width="1.15" height="6.43" rx="0.58" ry="0.58" transform="translate(-113.97 146.21) rotate(-42.37)"/><rect class="cls-10" x="134.35" y="216.48" width="1.15" height="6.43" rx="0.58" ry="0.58" transform="translate(-112.81 148.31) rotate(-42.37)"/><path class="cls-8" d="M143.55,204.71h13.33a4.35,4.35,0,0,1,4.34,4.34v16a4.35,4.35,0,0,1-4.34,4.34H143.55Z"/><path class="cls-9" d="M144.36,205.61h12.1a4,4,0,0,1,3.94,3.94v15.15a4,4,0,0,1-3.94,3.94h-12.1Z"/><rect class="cls-10" x="149.09" y="217.16" width="1.15" height="6.43" rx="0.58" ry="0.58" transform="translate(-109.42 158.42) rotate(-42.37)"/><rect class="cls-10" x="152.38" y="216.72" width="1.15" height="6.43" rx="0.58" ry="0.58" transform="translate(-108.27 160.52) rotate(-42.37)"/><path class="cls-8" d="M142.11,235.36H128.78a4.35,4.35,0,0,0-4.34,4.34v16a4.35,4.35,0,0,0,4.34,4.34h13.33Z"/><path class="cls-9" d="M141.3,236.25H129.2a4,4,0,0,0-3.94,3.94v15.15a4,4,0,0,0,3.94,3.94h12.1Z"/><rect class="cls-10" x="131.07" y="247.32" width="1.15" height="6.43" rx="0.58" ry="0.58" transform="translate(-134.46 154.15) rotate(-42.37)"/><rect class="cls-10" x="134.35" y="246.88" width="1.15" height="6.43" rx="0.58" ry="0.58" transform="translate(-133.3 156.25) rotate(-42.37)"/><path class="cls-8" d="M143.55,235.12h13.33a4.35,4.35,0,0,1,4.34,4.34v16a4.35,4.35,0,0,1-4.34,4.34H143.55Z"/><path class="cls-9" d="M144.36,236h12.1a4,4,0,0,1,3.94,3.94v15.15a4,4,0,0,1-3.94,3.94h-12.1Z"/><rect class="cls-10" x="149.09" y="247.56" width="1.15" height="6.43" rx="0.58" ry="0.58" transform="translate(-129.91 166.36) rotate(-42.37)"/><rect class="cls-10" x="152.38" y="247.12" width="1.15" height="6.43" rx="0.58" ry="0.58" transform="translate(-128.76 168.47) rotate(-42.37)"/><path class="cls-8" d="M186.94,205H173.6a4.35,4.35,0,0,0-4.34,4.34v16a4.35,4.35,0,0,0,4.34,4.34h13.33Z"/><path class="cls-9" d="M186.12,205.85H174a4,4,0,0,0-3.94,3.94v15.15a4,4,0,0,0,3.94,3.94h12.1Z"/><rect class="cls-10" x="175.89" y="216.92" width="1.15" height="6.43" rx="0.58" ry="0.58" transform="translate(-102.26 176.42) rotate(-42.37)"/><rect class="cls-10" x="179.18" y="216.48" width="1.15" height="6.43" rx="0.58" ry="0.58" transform="translate(-101.11 178.52) rotate(-42.37)"/><path class="cls-8" d="M188.37,204.71H201.7a4.35,4.35,0,0,1,4.34,4.34v16a4.35,4.35,0,0,1-4.34,4.34H188.37Z"/><path class="cls-9" d="M189.18,205.61h12.1a4,4,0,0,1,3.94,3.94v15.15a4,4,0,0,1-3.94,3.94h-12.1Z"/><rect class="cls-10" x="193.91" y="217.16" width="1.15" height="6.43" rx="0.58" ry="0.58" transform="translate(-97.72 188.63) rotate(-42.37)"/><rect class="cls-10" x="197.2" y="216.72" width="1.15" height="6.43" rx="0.58" ry="0.58" transform="translate(-96.56 190.73) rotate(-42.37)"/><path class="cls-8" d="M186.94,235.36H173.6a4.35,4.35,0,0,0-4.34,4.34v16a4.35,4.35,0,0,0,4.34,4.34h13.33Z"/><path class="cls-9" d="M186.12,236.25H174a4,4,0,0,0-3.94,3.94v15.15a4,4,0,0,0,3.94,3.94h12.1Z"/><rect class="cls-10" x="175.89" y="247.32" width="1.15" height="6.43" rx="0.58" ry="0.58" transform="translate(-122.75 184.36) rotate(-42.37)"/><rect class="cls-10" x="179.18" y="246.88" width="1.15" height="6.43" rx="0.58" ry="0.58" transform="translate(-121.59 186.46) rotate(-42.37)"/><path class="cls-8" d="M188.37,235.12H201.7a4.35,4.35,0,0,1,4.34,4.34v16a4.35,4.35,0,0,1-4.34,4.34H188.37Z"/><path class="cls-9" d="M189.18,236h12.1a4,4,0,0,1,3.94,3.94v15.15a4,4,0,0,1-3.94,3.94h-12.1Z"/><rect class="cls-10" x="193.91" y="247.56" width="1.15" height="6.43" rx="0.58" ry="0.58" transform="translate(-118.2 196.57) rotate(-42.37)"/><rect class="cls-10" x="197.2" y="247.12" width="1.15" height="6.43" rx="0.58" ry="0.58" transform="translate(-117.05 198.67) rotate(-42.37)"/><path class="cls-8" d="M53.43,288.35H40.1a4.35,4.35,0,0,0-4.34,4.34v16A4.35,4.35,0,0,0,40.1,313H53.43Z"/><path class="cls-9" d="M52.62,289.24H40.51a4,4,0,0,0-3.94,3.94v15.15a4,4,0,0,0,3.94,3.94h12.1Z"/><rect class="cls-10" x="42.38" y="300.31" width="1.15" height="6.43" rx="0.58" ry="0.58" transform="translate(-193.33 108.23) rotate(-42.37)"/><rect class="cls-10" x="45.67" y="299.87" width="1.15" height="6.43" rx="0.58" ry="0.58" transform="translate(-192.18 110.33) rotate(-42.37)"/><path class="cls-8" d="M54.87,288.11H68.2a4.35,4.35,0,0,1,4.34,4.34v16a4.35,4.35,0,0,1-4.34,4.34H54.87Z"/><path class="cls-9" d="M55.68,289h12.1a4,4,0,0,1,3.94,3.94v15.15A4,4,0,0,1,67.78,312H55.68Z"/><rect class="cls-10" x="60.41" y="300.55" width="1.15" height="6.43" rx="0.58" ry="0.58" transform="translate(-188.79 120.44) rotate(-42.37)"/><rect class="cls-10" x="63.7" y="300.11" width="1.15" height="6.43" rx="0.58" ry="0.58" transform="translate(-187.63 122.54) rotate(-42.37)"/><path class="cls-8" d="M54.15,320.43H40.82a4.35,4.35,0,0,0-4.34,4.34v16a4.35,4.35,0,0,0,4.34,4.34H54.15Z"/><path class="cls-9" d="M53.34,321.32H41.23a4,4,0,0,0-3.94,3.94v15.15a4,4,0,0,0,3.94,3.94h12.1Z"/><rect class="cls-10" x="43.1" y="332.4" width="1.15" height="6.43" rx="0.58" ry="0.58" transform="translate(-214.76 117.09) rotate(-42.37)"/><rect class="cls-10" x="46.39" y="331.96" width="1.15" height="6.43" rx="0.58" ry="0.58" transform="translate(-213.61 119.2) rotate(-42.37)"/><path class="cls-8" d="M55.59,320.19H68.92a4.35,4.35,0,0,1,4.34,4.34v16a4.35,4.35,0,0,1-4.34,4.34H55.59Z"/><path class="cls-9" d="M56.4,321.08h12.1A4,4,0,0,1,72.44,325v15.15a4,4,0,0,1-3.94,3.94H56.4Z"/><rect class="cls-10" x="61.13" y="332.64" width="1.15" height="6.43" rx="0.58" ry="0.58" transform="translate(-210.22 129.31) rotate(-42.37)"/><rect class="cls-10" x="64.42" y="332.2" width="1.15" height="6.43" rx="0.58" ry="0.58" transform="translate(-209.07 131.41) rotate(-42.37)"/><path class="cls-8" d="M187.66,289.07H174.32a4.35,4.35,0,0,0-4.34,4.34v16a4.35,4.35,0,0,0,4.34,4.34h13.33Z"/><path class="cls-9" d="M186.84,290h-12.1a4,4,0,0,0-3.94,3.94V309a4,4,0,0,0,3.94,3.94h12.1Z"/><rect class="cls-10" x="176.61" y="301.03" width="1.15" height="6.43" rx="0.58" ry="0.58" transform="translate(-158.76 198.87) rotate(-42.37)"/><rect class="cls-10" x="179.9" y="300.59" width="1.15" height="6.43" rx="0.58" ry="0.58" transform="translate(-157.61 200.98) rotate(-42.37)"/><path class="cls-8" d="M189.09,288.83h13.33a4.35,4.35,0,0,1,4.34,4.34v16a4.35,4.35,0,0,1-4.34,4.34H189.09Z"/><path class="cls-9" d="M189.91,289.72H202a4,4,0,0,1,3.94,3.94v15.15a4,4,0,0,1-3.94,3.94h-12.1Z"/><rect class="cls-10" x="194.63" y="301.27" width="1.15" height="6.43" rx="0.58" ry="0.58" transform="translate(-154.21 211.08) rotate(-42.37)"/><rect class="cls-10" x="197.92" y="300.83" width="1.15" height="6.43" rx="0.58" ry="0.58" transform="translate(-153.06 213.19) rotate(-42.37)"/><path class="cls-8" d="M187.66,321.52H174.32a4.35,4.35,0,0,0-4.34,4.34v16a4.35,4.35,0,0,0,4.34,4.34h13.33Z"/><path class="cls-9" d="M186.84,322.41h-12.1a4,4,0,0,0-3.94,3.94v15.15a4,4,0,0,0,3.94,3.94h12.1Z"/><rect class="cls-10" x="176.61" y="333.48" width="1.15" height="6.43" rx="0.58" ry="0.58" transform="translate(-180.62 207.35) rotate(-42.37)"/><rect class="cls-10" x="179.9" y="333.04" width="1.15" height="6.43" rx="0.58" ry="0.58" transform="translate(-179.47 209.45) rotate(-42.37)"/><path class="cls-8" d="M189.09,321.28h13.33a4.35,4.35,0,0,1,4.34,4.34v16a4.35,4.35,0,0,1-4.34,4.34H189.09Z"/><path class="cls-9" d="M189.91,322.17H202a4,4,0,0,1,3.94,3.94v15.15a4,4,0,0,1-3.94,3.94h-12.1Z"/><rect class="cls-10" x="194.63" y="333.72" width="1.15" height="6.43" rx="0.58" ry="0.58" transform="translate(-176.08 219.56) rotate(-42.37)"/><rect class="cls-10" x="197.92" y="333.28" width="1.15" height="6.43" rx="0.58" ry="0.58" transform="translate(-174.92 221.66) rotate(-42.37)"/><path class="cls-11" d="M39.88,125.82s-18.56,8.27-18.56,15.05v57.4l195.38-.83V140.95c0-6.26-16.61-15.13-16.61-15.13"/><rect class="cls-12" x="39.37" y="125.97" width="160.68" height="51.5"/><path class="cls-13" d="M39.85,177.1c.23-.23,160.76,0,160.76,0s13.69,14.64,16,19.3c2.09,4.3-6.59,4-6.59,4H27.64c-9,.39-5.84-4.53-5.84-4.53S34.2,182.67,39.85,177.1Z"/><rect class="cls-14" x="24.69" y="369.95" width="65.23" height="14.93"/><rect class="cls-15" x="28.24" y="369.17" width="58.71" height="9.21" rx="3.31" ry="3.31"/><rect class="cls-16" x="28.79" y="367.82" width="57.72" height="7.94" rx="3.05" ry="3.05"/><rect class="cls-15" x="32.07" y="362.43" width="3.88" height="6.96" rx="1.94" ry="1.94"/><rect class="cls-15" x="32.33" y="376.35" width="3.88" height="6.96" rx="1.94" ry="1.94"/><rect class="cls-15" x="80.22" y="376.35" width="3.88" height="6.96" rx="1.94" ry="1.94"/><rect class="cls-15" x="79.7" y="362.43" width="3.88" height="6.96" rx="1.94" ry="1.94"/><rect class="cls-15" x="28.01" y="354.12" width="57.72" height="10.86" rx="3.56" ry="3.56"/><rect class="cls-16" x="28.37" y="354.28" width="57.05" height="1.64" rx="0.82" ry="0.82"/><rect class="cls-14" x="151.8" y="369.95" width="65.23" height="14.93"/><rect class="cls-15" x="155.34" y="369.17" width="58.71" height="9.21" rx="3.31" ry="3.31"/><rect class="cls-16" x="155.89" y="367.82" width="57.72" height="7.94" rx="3.05" ry="3.05"/><rect class="cls-15" x="159.18" y="362.43" width="3.88" height="6.96" rx="1.94" ry="1.94"/><rect class="cls-15" x="159.44" y="376.35" width="3.88" height="6.96" rx="1.94" ry="1.94"/><rect class="cls-15" x="207.32" y="376.35" width="3.88" height="6.96" rx="1.94" ry="1.94"/><rect class="cls-15" x="206.81" y="362.43" width="3.88" height="6.96" rx="1.94" ry="1.94"/><rect class="cls-15" x="155.12" y="354.12" width="57.72" height="10.86" rx="3.56" ry="3.56"/><rect class="cls-16" x="155.47" y="354.28" width="57.05" height="1.64" rx="0.82" ry="0.82"/><rect class="cls-17" x="122.14" y="304.09" width="27.96" height="63.71"/><rect class="cls-17" x="91.7" y="304.09" width="27.96" height="63.71"/><rect class="cls-18" x="108.35" y="318.54" width="2.05" height="16.15" rx="1.03" ry="1.03" transform="translate(245.78 10.33) rotate(41.84)"/><rect class="cls-18" x="109.02" y="309.92" width="2.05" height="16.15" rx="1.03" ry="1.03" transform="translate(240.2 7.69) rotate(41.84)"/><rect class="cls-18" x="135.56" y="318.54" width="2.05" height="16.15" rx="1.03" ry="1.03" transform="translate(252.72 -7.82) rotate(41.84)"/><rect class="cls-18" x="136.22" y="309.92" width="2.05" height="16.15" rx="1.03" ry="1.03" transform="translate(247.14 -10.46) rotate(41.84)"/><rect class="cls-19" x="219.78" y="364.36" width="11.59" height="19.16" rx="5.79" ry="5.79"/><rect class="cls-20" x="219.78" y="361.91" width="11.36" height="10.47" rx="5.23" ry="5.23"/><rect class="cls-19" x="222.57" y="324.47" width="5.12" height="42.33" rx="2.56" ry="2.56" transform="translate(450.26 691.28) rotate(180)"/><ellipse class="cls-19" cx="224.68" cy="325.81" rx="8.24" ry="9.36"/><ellipse class="cls-21" cx="224.68" cy="322.69" rx="8.24" ry="9.36"/><ellipse class="cls-22" cx="224.68" cy="316.01" rx="8.24" ry="9.36"/><ellipse class="cls-23" cx="224.46" cy="315.12" rx="10.03" ry="6.68"/><ellipse class="cls-19" cx="224.46" cy="312.67" rx="10.03" ry="6.68"/><rect class="cls-19" x="11.08" y="364.36" width="11.59" height="19.16" rx="5.79" ry="5.79"/><rect class="cls-20" x="11.08" y="361.91" width="11.36" height="10.47" rx="5.23" ry="5.23"/><rect class="cls-19" x="13.87" y="324.47" width="5.12" height="42.33" rx="2.56" ry="2.56" transform="translate(32.86 691.28) rotate(180)"/><ellipse class="cls-19" cx="15.99" cy="325.81" rx="8.24" ry="9.36"/><ellipse class="cls-21" cx="15.99" cy="322.69" rx="8.24" ry="9.36"/><ellipse class="cls-22" cx="15.99" cy="316.01" rx="8.24" ry="9.36"/><ellipse class="cls-23" cx="15.76" cy="315.12" rx="10.03" ry="6.68"/><ellipse class="cls-19" cx="15.76" cy="312.67" rx="10.03" ry="6.68"/><path class="cls-5" d="M462,366.58h72.92V276.16H338.55v90.43h67.81v-5.65h55.52S462,367,462,366.58Z"/><rect class="cls-6" x="338.55" y="357.59" width="195.96" height="8.99"/><rect class="cls-6" x="461.16" y="357.41" width="73.94" height="9.17"/><path class="cls-5" d="M427.92,279.33H535.22V188.9H338.88v90.43h37v-5.65h51.91S427.92,279.75,427.92,279.33Z"/><rect class="cls-6" x="338.88" y="270.12" width="37.05" height="9.21"/><rect class="cls-7" x="337.93" y="268.97" width="197.49" height="10.36"/><path class="cls-8" d="M367.43,203.29H354.1a4.35,4.35,0,0,0-4.34,4.34v16A4.35,4.35,0,0,0,354.1,228h13.33Z"/><path class="cls-9" d="M366.62,204.18h-12.1a4,4,0,0,0-3.94,3.94v15.15a4,4,0,0,0,3.94,3.94h12.1Z"/><rect class="cls-10" x="356.39" y="215.25" width="1.15" height="6.43" rx="0.58" ry="0.58" transform="translate(-53.99 297.62) rotate(-42.37)"/><rect class="cls-10" x="359.67" y="214.81" width="1.15" height="6.43" rx="0.58" ry="0.58" transform="translate(-52.84 299.73) rotate(-42.37)"/><path class="cls-8" d="M368.87,203H382.2a4.35,4.35,0,0,1,4.34,4.34v16a4.35,4.35,0,0,1-4.34,4.34H368.87Z"/><path class="cls-9" d="M369.68,203.94h12.1a4,4,0,0,1,3.94,3.94V223a4,4,0,0,1-3.94,3.94h-12.1Z"/><rect class="cls-10" x="374.41" y="215.49" width="1.15" height="6.43" rx="0.58" ry="0.58" transform="translate(-49.45 309.83) rotate(-42.37)"/><rect class="cls-10" x="377.7" y="215.05" width="1.15" height="6.43" rx="0.58" ry="0.58" transform="translate(-48.29 311.94) rotate(-42.37)"/><path class="cls-8" d="M367.43,233.69H354.1a4.35,4.35,0,0,0-4.34,4.34v16a4.35,4.35,0,0,0,4.34,4.34h13.33Z"/><path class="cls-9" d="M366.62,234.58h-12.1a4,4,0,0,0-3.94,3.94v15.15a4,4,0,0,0,3.94,3.94h12.1Z"/><rect class="cls-10" x="356.39" y="245.65" width="1.15" height="6.43" rx="0.58" ry="0.58" transform="translate(-74.48 305.57) rotate(-42.37)"/><rect class="cls-10" x="359.67" y="245.22" width="1.15" height="6.43" rx="0.58" ry="0.58" transform="translate(-73.33 307.67) rotate(-42.37)"/><path class="cls-8" d="M368.87,233.45H382.2a4.35,4.35,0,0,1,4.34,4.34v16a4.35,4.35,0,0,1-4.34,4.34H368.87Z"/><path class="cls-9" d="M369.68,234.34h12.1a4,4,0,0,1,3.94,3.94v15.15a4,4,0,0,1-3.94,3.94h-12.1Z"/><rect class="cls-10" x="374.41" y="245.89" width="1.15" height="6.43" rx="0.58" ry="0.58" transform="translate(-69.94 317.77) rotate(-42.37)"/><rect class="cls-10" x="377.7" y="245.46" width="1.15" height="6.43" rx="0.58" ry="0.58" transform="translate(-68.78 319.88) rotate(-42.37)"/><path class="cls-8" d="M412.86,203.29H399.52a4.35,4.35,0,0,0-4.34,4.34v16a4.35,4.35,0,0,0,4.34,4.34h13.33Z"/><path class="cls-9" d="M412,204.18h-12.1a4,4,0,0,0-3.94,3.94v15.15a4,4,0,0,0,3.94,3.94H412Z"/><rect class="cls-10" x="401.81" y="215.25" width="1.15" height="6.43" rx="0.58" ry="0.58" transform="translate(-42.13 328.23) rotate(-42.37)"/><rect class="cls-10" x="405.1" y="214.81" width="1.15" height="6.43" rx="0.58" ry="0.58" transform="translate(-40.98 330.34) rotate(-42.37)"/><path class="cls-8" d="M414.29,203h13.33a4.35,4.35,0,0,1,4.34,4.34v16a4.35,4.35,0,0,1-4.34,4.34H414.29Z"/><path class="cls-9" d="M415.11,203.94h12.1a4,4,0,0,1,3.94,3.94V223a4,4,0,0,1-3.94,3.94h-12.1Z"/><rect class="cls-10" x="419.83" y="215.49" width="1.15" height="6.43" rx="0.58" ry="0.58" transform="translate(-37.58 340.45) rotate(-42.37)"/><rect class="cls-10" x="423.12" y="215.05" width="1.15" height="6.43" rx="0.58" ry="0.58" transform="translate(-36.43 342.55) rotate(-42.37)"/><path class="cls-8" d="M412.86,233.69H399.52a4.35,4.35,0,0,0-4.34,4.34v16a4.35,4.35,0,0,0,4.34,4.34h13.33Z"/><path class="cls-9" d="M412,234.58h-12.1a4,4,0,0,0-3.94,3.94v15.15a4,4,0,0,0,3.94,3.94H412Z"/><rect class="cls-10" x="401.81" y="245.65" width="1.15" height="6.43" rx="0.58" ry="0.58" transform="translate(-62.62 336.18) rotate(-42.37)"/><rect class="cls-10" x="405.1" y="245.22" width="1.15" height="6.43" rx="0.58" ry="0.58" transform="translate(-61.46 338.28) rotate(-42.37)"/><path class="cls-8" d="M414.29,233.45h13.33a4.35,4.35,0,0,1,4.34,4.34v16a4.35,4.35,0,0,1-4.34,4.34H414.29Z"/><path class="cls-9" d="M415.11,234.34h12.1a4,4,0,0,1,3.94,3.94v15.15a4,4,0,0,1-3.94,3.94h-12.1Z"/><rect class="cls-10" x="419.83" y="245.89" width="1.15" height="6.43" rx="0.58" ry="0.58" transform="translate(-58.07 348.38) rotate(-42.37)"/><rect class="cls-10" x="423.12" y="245.46" width="1.15" height="6.43" rx="0.58" ry="0.58" transform="translate(-56.92 350.49) rotate(-42.37)"/><path class="cls-8" d="M459.6,203.29H446.27a4.35,4.35,0,0,0-4.34,4.34v16a4.35,4.35,0,0,0,4.34,4.34H459.6Z"/><path class="cls-9" d="M458.79,204.18h-12.1a4,4,0,0,0-3.94,3.94v15.15a4,4,0,0,0,3.94,3.94h12.1Z"/><rect class="cls-10" x="448.55" y="215.25" width="1.15" height="6.43" rx="0.58" ry="0.58" transform="translate(-29.92 359.73) rotate(-42.37)"/><rect class="cls-10" x="451.84" y="214.81" width="1.15" height="6.43" rx="0.58" ry="0.58" transform="translate(-28.77 361.84) rotate(-42.37)"/><path class="cls-8" d="M461,203h13.33a4.35,4.35,0,0,1,4.34,4.34v16a4.35,4.35,0,0,1-4.34,4.34H461Z"/><path class="cls-9" d="M461.85,203.94H474a4,4,0,0,1,3.94,3.94V223A4,4,0,0,1,474,227h-12.1Z"/><rect class="cls-10" x="466.58" y="215.49" width="1.15" height="6.43" rx="0.58" ry="0.58" transform="translate(-25.38 371.95) rotate(-42.37)"/><rect class="cls-10" x="469.87" y="215.05" width="1.15" height="6.43" rx="0.58" ry="0.58" transform="translate(-24.22 374.05) rotate(-42.37)"/><path class="cls-8" d="M459.6,233.69H446.27a4.35,4.35,0,0,0-4.34,4.34v16a4.35,4.35,0,0,0,4.34,4.34H459.6Z"/><path class="cls-9" d="M458.79,234.58h-12.1a4,4,0,0,0-3.94,3.94v15.15a4,4,0,0,0,3.94,3.94h12.1Z"/><rect class="cls-10" x="448.55" y="245.65" width="1.15" height="6.43" rx="0.58" ry="0.58" transform="translate(-50.41 367.68) rotate(-42.37)"/><rect class="cls-10" x="451.84" y="245.22" width="1.15" height="6.43" rx="0.58" ry="0.58" transform="translate(-49.25 369.78) rotate(-42.37)"/><path class="cls-8" d="M461,233.45h13.33a4.35,4.35,0,0,1,4.34,4.34v16a4.35,4.35,0,0,1-4.34,4.34H461Z"/><path class="cls-9" d="M461.85,234.34H474a4,4,0,0,1,3.94,3.94v15.15a4,4,0,0,1-3.94,3.94h-12.1Z"/><rect class="cls-10" x="466.58" y="245.89" width="1.15" height="6.43" rx="0.58" ry="0.58" transform="translate(-45.86 379.89) rotate(-42.37)"/><rect class="cls-10" x="469.87" y="245.46" width="1.15" height="6.43" rx="0.58" ry="0.58" transform="translate(-44.71 381.99) rotate(-42.37)"/><path class="cls-8" d="M504.42,203.29H491.09a4.35,4.35,0,0,0-4.34,4.34v16a4.35,4.35,0,0,0,4.34,4.34h13.33Z"/><path class="cls-9" d="M503.61,204.18H491.5a4,4,0,0,0-3.94,3.94v15.15a4,4,0,0,0,3.94,3.94h12.1Z"/><rect class="cls-10" x="493.37" y="215.25" width="1.15" height="6.43" rx="0.58" ry="0.58" transform="translate(-18.21 389.94) rotate(-42.37)"/><rect class="cls-10" x="496.66" y="214.81" width="1.15" height="6.43" rx="0.58" ry="0.58" transform="translate(-17.06 392.05) rotate(-42.37)"/><path class="cls-8" d="M505.86,203h13.33a4.35,4.35,0,0,1,4.34,4.34v16a4.35,4.35,0,0,1-4.34,4.34H505.86Z"/><path class="cls-9" d="M506.67,203.94h12.1a4,4,0,0,1,3.94,3.94V223a4,4,0,0,1-3.94,3.94h-12.1Z"/><rect class="cls-10" x="511.4" y="215.49" width="1.15" height="6.43" rx="0.58" ry="0.58" transform="translate(-13.67 402.15) rotate(-42.37)"/><rect class="cls-10" x="514.69" y="215.05" width="1.15" height="6.43" rx="0.58" ry="0.58" transform="translate(-12.51 404.25) rotate(-42.37)"/><path class="cls-8" d="M504.42,233.69H491.09a4.35,4.35,0,0,0-4.34,4.34v16a4.35,4.35,0,0,0,4.34,4.34h13.33Z"/><path class="cls-9" d="M503.61,234.58H491.5a4,4,0,0,0-3.94,3.94v15.15a4,4,0,0,0,3.94,3.94h12.1Z"/><rect class="cls-10" x="493.37" y="245.65" width="1.15" height="6.43" rx="0.58" ry="0.58" transform="translate(-38.7 397.88) rotate(-42.37)"/><rect class="cls-10" x="496.66" y="245.22" width="1.15" height="6.43" rx="0.58" ry="0.58" transform="translate(-37.55 399.99) rotate(-42.37)"/><path class="cls-8" d="M505.86,233.45h13.33a4.35,4.35,0,0,1,4.34,4.34v16a4.35,4.35,0,0,1-4.34,4.34H505.86Z"/><path class="cls-9" d="M506.67,234.34h12.1a4,4,0,0,1,3.94,3.94v15.15a4,4,0,0,1-3.94,3.94h-12.1Z"/><rect class="cls-10" x="511.4" y="245.89" width="1.15" height="6.43" rx="0.58" ry="0.58" transform="translate(-34.16 410.09) rotate(-42.37)"/><rect class="cls-10" x="514.69" y="245.46" width="1.15" height="6.43" rx="0.58" ry="0.58" transform="translate(-33 412.2) rotate(-42.37)"/><path class="cls-8" d="M370.92,286.68H357.59a4.35,4.35,0,0,0-4.34,4.34v16a4.35,4.35,0,0,0,4.34,4.34h13.33Z"/><path class="cls-9" d="M370.1,287.58H358a4,4,0,0,0-3.94,3.94v15.15A4,4,0,0,0,358,310.6h12.1Z"/><rect class="cls-10" x="359.87" y="298.65" width="1.15" height="6.43" rx="0.58" ry="0.58" transform="translate(-109.29 321.75) rotate(-42.37)"/><rect class="cls-10" x="363.16" y="298.21" width="1.15" height="6.43" rx="0.58" ry="0.58" transform="translate(-108.13 323.86) rotate(-42.37)"/><path class="cls-8" d="M372.35,286.44h13.33a4.35,4.35,0,0,1,4.34,4.34v16a4.35,4.35,0,0,1-4.34,4.34H372.35Z"/><path class="cls-9" d="M373.17,287.34h12.1a4,4,0,0,1,3.94,3.94v15.15a4,4,0,0,1-3.94,3.94h-12.1Z"/><rect class="cls-10" x="377.9" y="298.89" width="1.15" height="6.43" rx="0.58" ry="0.58" transform="translate(-104.74 333.96) rotate(-42.37)"/><rect class="cls-10" x="381.18" y="298.45" width="1.15" height="6.43" rx="0.58" ry="0.58" transform="translate(-103.58 336.07) rotate(-42.37)"/><path class="cls-8" d="M371.64,318.77H358.31a4.35,4.35,0,0,0-4.34,4.34v16a4.35,4.35,0,0,0,4.34,4.34h13.33Z"/><path class="cls-9" d="M370.83,319.66h-12.1a4,4,0,0,0-3.94,3.94v15.15a4,4,0,0,0,3.94,3.94h12.1Z"/><rect class="cls-10" x="360.59" y="330.73" width="1.15" height="6.43" rx="0.58" ry="0.58" transform="translate(-130.72 330.62) rotate(-42.37)"/><rect class="cls-10" x="363.88" y="330.29" width="1.15" height="6.43" rx="0.58" ry="0.58" transform="translate(-129.56 332.72) rotate(-42.37)"/><path class="cls-8" d="M373.07,318.53h13.33a4.35,4.35,0,0,1,4.34,4.34v16a4.35,4.35,0,0,1-4.34,4.34H373.07Z"/><path class="cls-9" d="M373.89,319.42H386a4,4,0,0,1,3.94,3.94v15.15a4,4,0,0,1-3.94,3.94h-12.1Z"/><rect class="cls-10" x="378.62" y="330.97" width="1.15" height="6.43" rx="0.58" ry="0.58" transform="translate(-126.17 342.83) rotate(-42.37)"/><rect class="cls-10" x="381.91" y="330.53" width="1.15" height="6.43" rx="0.58" ry="0.58" transform="translate(-125.02 344.93) rotate(-42.37)"/><path class="cls-8" d="M505.14,287.41H491.81a4.35,4.35,0,0,0-4.34,4.34v16a4.35,4.35,0,0,0,4.34,4.34h13.33Z"/><path class="cls-9" d="M504.33,288.3h-12.1a4,4,0,0,0-3.94,3.94v15.15a4,4,0,0,0,3.94,3.94h12.1Z"/><rect class="cls-10" x="494.1" y="299.37" width="1.15" height="6.43" rx="0.58" ry="0.58" transform="translate(-74.71 412.4) rotate(-42.37)"/><rect class="cls-10" x="497.38" y="298.93" width="1.15" height="6.43" rx="0.58" ry="0.58" transform="translate(-73.56 414.5) rotate(-42.37)"/><path class="cls-8" d="M506.58,287.17h13.33a4.35,4.35,0,0,1,4.34,4.34v16a4.35,4.35,0,0,1-4.34,4.34H506.58Z"/><path class="cls-9" d="M507.39,288.06h12.1a4,4,0,0,1,3.94,3.94v15.15a4,4,0,0,1-3.94,3.94h-12.1Z"/><rect class="cls-10" x="512.12" y="299.61" width="1.15" height="6.43" rx="0.58" ry="0.58" transform="translate(-70.17 424.61) rotate(-42.37)"/><rect class="cls-10" x="515.41" y="299.17" width="1.15" height="6.43" rx="0.58" ry="0.58" transform="translate(-69.01 426.71) rotate(-42.37)"/><path class="cls-8" d="M505.14,319.85H491.81a4.35,4.35,0,0,0-4.34,4.34v16a4.35,4.35,0,0,0,4.34,4.34h13.33Z"/><path class="cls-9" d="M504.33,320.74h-12.1a4,4,0,0,0-3.94,3.94v15.15a4,4,0,0,0,3.94,3.94h12.1Z"/><rect class="cls-10" x="494.1" y="331.81" width="1.15" height="6.43" rx="0.58" ry="0.58" transform="translate(-96.58 420.87) rotate(-42.37)"/><rect class="cls-10" x="497.38" y="331.37" width="1.15" height="6.43" rx="0.58" ry="0.58" transform="translate(-95.42 422.98) rotate(-42.37)"/><path class="cls-8" d="M506.58,319.61h13.33a4.35,4.35,0,0,1,4.34,4.34v16a4.35,4.35,0,0,1-4.34,4.34H506.58Z"/><path class="cls-9" d="M507.39,320.5h12.1a4,4,0,0,1,3.94,3.94v15.15a4,4,0,0,1-3.94,3.94h-12.1Z"/><rect class="cls-10" x="512.12" y="332.05" width="1.15" height="6.43" rx="0.58" ry="0.58" transform="translate(-92.03 433.08) rotate(-42.37)"/><rect class="cls-10" x="515.41" y="331.61" width="1.15" height="6.43" rx="0.58" ry="0.58" transform="translate(-90.88 435.19) rotate(-42.37)"/><path class="cls-11" d="M357.37,124.15s-17.17,7.44-17.17,14.22v57.4h194V139.28c0-6.26-16.61-15.13-16.61-15.13"/><rect class="cls-12" x="356.85" y="124.3" width="160.68" height="51.5"/><path class="cls-13" d="M357.34,175.44c.23-.23,160.76,0,160.76,0s13.69,14.64,16,19.3c2.09,4.3-6.59,4-6.59,4H346.79c-9,.39-5.84-4.53-5.84-4.53S351.69,181,357.34,175.44Z"/><rect class="cls-14" x="342.18" y="368.29" width="65.23" height="14.93"/><rect class="cls-15" x="345.73" y="367.5" width="58.71" height="9.21" rx="3.31" ry="3.31"/><rect class="cls-16" x="346.28" y="366.15" width="57.72" height="7.94" rx="3.05" ry="3.05"/><rect class="cls-15" x="349.56" y="360.77" width="3.88" height="6.96" rx="1.94" ry="1.94"/><rect class="cls-15" x="349.82" y="374.69" width="3.88" height="6.96" rx="1.94" ry="1.94"/><rect class="cls-15" x="397.71" y="374.69" width="3.88" height="6.96" rx="1.94" ry="1.94"/><rect class="cls-15" x="397.19" y="360.77" width="3.88" height="6.96" rx="1.94" ry="1.94"/><rect class="cls-15" x="345.5" y="352.46" width="57.72" height="10.86" rx="3.56" ry="3.56"/><rect class="cls-16" x="345.86" y="352.61" width="57.05" height="1.64" rx="0.82" ry="0.82"/><rect class="cls-14" x="469.28" y="368.29" width="65.23" height="14.93"/><rect class="cls-15" x="472.83" y="367.5" width="58.71" height="9.21" rx="3.31" ry="3.31"/><rect class="cls-16" x="473.38" y="366.15" width="57.72" height="7.94" rx="3.05" ry="3.05"/><rect class="cls-15" x="476.67" y="360.77" width="3.88" height="6.96" rx="1.94" ry="1.94"/><rect class="cls-15" x="476.93" y="374.69" width="3.88" height="6.96" rx="1.94" ry="1.94"/><rect class="cls-15" x="524.81" y="374.69" width="3.88" height="6.96" rx="1.94" ry="1.94"/><rect class="cls-15" x="524.29" y="360.77" width="3.88" height="6.96" rx="1.94" ry="1.94"/><rect class="cls-15" x="472.61" y="352.46" width="57.72" height="10.86" rx="3.56" ry="3.56"/><rect class="cls-16" x="472.96" y="352.61" width="57.05" height="1.64" rx="0.82" ry="0.82"/><rect class="cls-17" x="439.63" y="302.42" width="27.96" height="63.71"/><rect class="cls-17" x="409.19" y="302.42" width="27.96" height="63.71"/><rect class="cls-18" x="425.84" y="316.88" width="2.05" height="16.15" rx="1.03" ry="1.03" transform="translate(325.64 -201.89) rotate(41.84)"/><rect class="cls-18" x="426.5" y="308.25" width="2.05" height="16.15" rx="1.03" ry="1.03" transform="translate(320.06 -204.53) rotate(41.84)"/><rect class="cls-18" x="453.05" y="316.88" width="2.05" height="16.15" rx="1.03" ry="1.03" transform="translate(332.58 -220.04) rotate(41.84)"/><rect class="cls-18" x="453.71" y="308.25" width="2.05" height="16.15" rx="1.03" ry="1.03" transform="translate(326.99 -222.68) rotate(41.84)"/><rect class="cls-19" x="537.27" y="362.69" width="11.59" height="19.16" rx="5.79" ry="5.79"/><rect class="cls-20" x="537.27" y="360.24" width="11.36" height="10.47" rx="5.23" ry="5.23"/><rect class="cls-19" x="540.06" y="322.81" width="5.12" height="42.33" rx="2.56" ry="2.56" transform="translate(1085.23 687.95) rotate(-180)"/><ellipse class="cls-19" cx="542.17" cy="324.15" rx="8.24" ry="9.36"/><ellipse class="cls-21" cx="542.17" cy="321.03" rx="8.24" ry="9.36"/><ellipse class="cls-22" cx="542.17" cy="314.34" rx="8.24" ry="9.36"/><ellipse class="cls-23" cx="541.95" cy="313.45" rx="10.03" ry="6.68"/><ellipse class="cls-19" cx="541.95" cy="311" rx="10.03" ry="6.68"/><rect class="cls-19" x="328.57" y="362.69" width="11.59" height="19.16" rx="5.79" ry="5.79"/><rect class="cls-20" x="328.57" y="360.24" width="11.36" height="10.47" rx="5.23" ry="5.23"/><rect class="cls-19" x="331.36" y="322.81" width="5.12" height="42.33" rx="2.56" ry="2.56" transform="translate(667.84 687.95) rotate(180)"/><ellipse class="cls-19" cx="333.47" cy="324.15" rx="8.24" ry="9.36"/><ellipse class="cls-21" cx="333.47" cy="321.03" rx="8.24" ry="9.36"/><ellipse class="cls-22" cx="333.47" cy="314.34" rx="8.24" ry="9.36"/><ellipse class="cls-23" cx="333.25" cy="313.45" rx="10.03" ry="6.68"/><ellipse class="cls-19" cx="333.25" cy="311" rx="10.03" ry="6.68"/><path class="cls-24" d="M278.91,522.05H261V342.94a3.39,3.39,0,0,1,3.44-3.33h11a3.39,3.39,0,0,1,3.44,3.33V522.05Z"/><path class="cls-24" d="M436.82,522.05H418.94V342.94a3.39,3.39,0,0,1,3.44-3.33h11a3.39,3.39,0,0,1,3.44,3.33V522.05Z"/><rect class="cls-24" x="418.94" y="465.44" width="17.88" height="12.71"/><rect class="cls-24" x="261.02" y="465.44" width="17.88" height="12.71"/><path class="cls-25" d="M275.47,339.61H264.66a3.39,3.39,0,0,1,3.44,3.33V522.05h10.81V342.94A3.39,3.39,0,0,0,275.47,339.61Z"/><rect class="cls-25" x="268.1" y="465.44" width="10.81" height="12.71"/><path class="cls-26" d="M287.13,522.05H252.79a2.8,2.8,0,0,0-2.8,2.8v7.41a2.8,2.8,0,0,0,2.8,2.8h34.34a2.8,2.8,0,0,0,2.8-2.8v-7.41A2.8,2.8,0,0,0,287.13,522.05Z"/><path class="cls-27" d="M278.91,522.05v13h8.23a2.8,2.8,0,0,0,2.8-2.8v-7.41a2.8,2.8,0,0,0-2.8-2.8Z"/><path class="cls-25" d="M433.39,339.61h-11a3.38,3.38,0,0,1,3.43,3.33V522.05h11V342.94A3.38,3.38,0,0,0,433.39,339.61Z"/><rect class="cls-25" x="425.8" y="465.44" width="11.03" height="12.71"/><path class="cls-26" d="M445.05,522.05H410.71a2.8,2.8,0,0,0-2.8,2.8v7.41a2.8,2.8,0,0,0,2.8,2.8h34.34a2.8,2.8,0,0,0,2.8-2.8v-7.41A2.8,2.8,0,0,0,445.05,522.05Z"/><path class="cls-28" d="M447.8,465.44H250a4.78,4.78,0,0,1-4.78-4.78V355.33a4.78,4.78,0,0,1,4.78-4.78H447.8a4.78,4.78,0,0,1,4.78,4.78V460.66A4.78,4.78,0,0,1,447.8,465.44Z"/><path class="cls-29" d="M245.26,367.84l6-17.29H250a4.78,4.78,0,0,0-4.78,4.78Z"/><path class="cls-27" d="M436.82,522.05v13h8.23a2.8,2.8,0,0,0,2.8-2.8v-7.41a2.8,2.8,0,0,0-2.8-2.8Z"/><path class="cls-30" d="M447.8,465.44H435.37a4.78,4.78,0,0,0,4.78-4.78V371.32a8.33,8.33,0,0,0-8.33-8.33H245.26v-7.65a4.78,4.78,0,0,1,4.78-4.78H447.8a4.78,4.78,0,0,1,4.2,2.5,4.71,4.71,0,0,1,.36.86c0,.15.09.3.12.46a4.78,4.78,0,0,1,.1,1h0V460.66A4.78,4.78,0,0,1,447.8,465.44Z"/><path class="cls-31" d="M245.26,460.66a4.78,4.78,0,0,0,2.5,4.2,4.78,4.78,0,0,1-2.5-4.2V434.18h0Z"/><path class="cls-31" d="M452.58,355.33V363h0v-7.65a4.78,4.78,0,0,0-4.78-4.78h0A4.78,4.78,0,0,1,452.58,355.33Z"/><path class="cls-31" d="M250,465.44a4.76,4.76,0,0,1-2.28-.58,4.76,4.76,0,0,0,2.28.58h12.44a4.75,4.75,0,0,1-2.76-.88l-.3.88Z"/><ellipse class="cls-25" cx="269.2" cy="339.33" rx="11.1" ry="6.94"/><ellipse class="cls-24" cx="264.76" cy="339.89" rx="7.19" ry="7.49"/><ellipse class="cls-25" cx="427.39" cy="339.89" rx="11.1" ry="6.94"/><ellipse class="cls-24" cx="422.95" cy="340.44" rx="7.19" ry="7.49"/><path class="cls-32" d="M273.4,390.51a7.55,7.55,0,0,1,1.34.66A5.25,5.25,0,0,1,276,392.3a6.25,6.25,0,0,1,1,1.73,7.9,7.9,0,0,1,.49,2.43,8.31,8.31,0,0,1-.2,2.53,7.43,7.43,0,0,1-.77,1.94,6.54,6.54,0,0,1-1.13,1.44,9,9,0,0,1-1.25,1,7.59,7.59,0,0,1-1.26.7,11.38,11.38,0,0,1-1.12.42,7.24,7.24,0,0,1-.8.2l-.34.06-5.14.66.24,4.05,2-.25.13,2.17-6.23.8-.13-2.17,2.1-.27-1-16.55-2,.26-.13-2.17,2-.26,4.21-.54,3.1-.4.34,0a6.9,6.9,0,0,1,.82,0,10.2,10.2,0,0,1,1.15.12A6.55,6.55,0,0,1,273.4,390.51Zm-.24,11a5,5,0,0,0,2.18-4.77q-.19-3.2-2.71-4.14a4.94,4.94,0,0,0-1-.27,6.1,6.1,0,0,0-.89-.09,7.35,7.35,0,0,0-.86,0l-3.1.4-2,.26.61,10.33,5.14-.66a4.75,4.75,0,0,0,.85-.2,5.67,5.67,0,0,0,.87-.33A6.65,6.65,0,0,0,273.15,401.5Z"/><path class="cls-32" d="M295.52,394.09a8.47,8.47,0,0,1-.19,2.54,7.39,7.39,0,0,1-.77,2,6.48,6.48,0,0,1-1.13,1.44,8.88,8.88,0,0,1-1.24,1,7,7,0,0,1-1.25.68q-.61.25-1.12.4a8.43,8.43,0,0,0,.28.81,6.13,6.13,0,0,0,.42.85q1.36,2.33,4.6,1.91l.77-.1.13,2.17-.77.1a8,8,0,0,1-2.5,0,6.23,6.23,0,0,1-1.88-.65,5.64,5.64,0,0,1-1.36-1,6.11,6.11,0,0,1-.91-1.2,7.09,7.09,0,0,1-.6-1.27,7,7,0,0,1-.31-1.14l-4.17.54.24,4.08,1.93-.25.13,2.17-6.22.8-.13-2.17,2.13-.28-1-16.61-2.07.27-.13-2.17,2.07-.27,4.17-.54,3.12-.4.36,0a6.52,6.52,0,0,1,.83,0c.34,0,.72,0,1.15.11a5.85,5.85,0,0,1,1.32.35,7.53,7.53,0,0,1,1.34.66,5.24,5.24,0,0,1,1.28,1.13,6.21,6.21,0,0,1,1,1.73A8,8,0,0,1,295.52,394.09Zm-7,6.14a4.65,4.65,0,0,0,.85-.2,6.81,6.81,0,0,0,.87-.31,5.73,5.73,0,0,0,.94-.52,5,5,0,0,0,2.18-4.81q-.19-3.21-2.71-4.18a4.87,4.87,0,0,0-1-.28,6,6,0,0,0-.89-.09,4.7,4.7,0,0,0-.86,0l-3.13.4-2,.26.61,10.36Z"/><path class="cls-32" d="M305,406.59l-4.21.54-2,.26-.13-2.17,2-.26-1-16.58-2,.26-.13-2.17,2-.26,4.21-.54,10.4-1.34.48,8.13-2.16.28-.35-6-8.24,1.06-2,.26.42,7.22,4.06-.53-.12-2.05,2.16-.28.37,6.25-2.16.28-.12-2-4.06.53.42,7.19,2-.26,8.24-1.06-.3-5.17,2.16-.28.43,7.33Z"/><path class="cls-32" d="M330.61,382.17l6.23-.8.13,2.17-2.3.3-3.86,17.23,1.68-.22.13,2.17-9.35,1.21-.13-2.17,1.68-.22-5.81-16-2.3.3-.13-2.17,6.22-.8.13,2.17-1.68.22,5.81,16,1.51-.19,3.86-17.23-1.68.22Z"/><path class="cls-32" d="M346.71,401.2l-4.21.54-2,.26-.13-2.17,2-.26-1-16.58-2,.26-.13-2.17,2-.26,4.21-.54,10.4-1.34.48,8.13-2.16.28-.35-6-8.24,1.06-2,.26.42,7.22,4.06-.53-.12-2.05,2.16-.28.37,6.25-2.16.28-.12-2-4.06.53.42,7.19,2-.26,8.24-1.06-.3-5.17,2.16-.28.43,7.33Z"/><path class="cls-32" d="M370.86,377l6.22-.8.13,2.17-2.13.28,1,16.55,2-.26.13,2.17-6.22.8-.13-2.17,1.08-.14-10.15-12.84.82,14,2-.26.13,2.17-6.23.8-.13-2.17,2-.26-1-16.55-2,.26-.13-2.17,6.22-.8.13,2.17-1.08.14L373.75,393l-.83-14.07-1.93.25Z"/><path class="cls-32" d="M386.7,396a8,8,0,0,1-2.51,0,6.25,6.25,0,0,1-1.89-.65,5.45,5.45,0,0,1-1.35-1,7,7,0,0,1-.9-1.18,6,6,0,0,1-.59-1.23q-.21-.62-.32-1.11A6.62,6.62,0,0,1,379,390c0-.22,0-.34,0-.35l-.37-6.25s0-.13,0-.34a7.08,7.08,0,0,1,.05-.83q.06-.51.19-1.17a6.84,6.84,0,0,1,.43-1.36,9.05,9.05,0,0,1,.75-1.4,6.43,6.43,0,0,1,1.21-1.38,7.35,7.35,0,0,1,1.78-1.12,8.53,8.53,0,0,1,2.47-.66,7.22,7.22,0,0,1,3.12.17,6.76,6.76,0,0,1,2.14,1.1l-.1-1.63,2.16-.28.41,7-2.16.28a7.49,7.49,0,0,0-.16-.84,5.63,5.63,0,0,0-.25-.85,5,5,0,0,0-.45-.9q-1.4-2.32-4.58-1.91a5,5,0,0,0-4.32,3.06,5.82,5.82,0,0,0-.34,1,6.28,6.28,0,0,0-.15.9,4.78,4.78,0,0,0,0,.87l.37,6.25a4.57,4.57,0,0,0,.13.85,6.12,6.12,0,0,0,.25.86,4.89,4.89,0,0,0,.46.92q1.42,2.29,4.61,1.88a5,5,0,0,0,4.29-3,5.62,5.62,0,0,0,.34-1,6.66,6.66,0,0,0,.15-.91,7.85,7.85,0,0,0,.06-.87l2.16-.28s0,.14,0,.36a7.15,7.15,0,0,1-.05.84,11.36,11.36,0,0,1-.2,1.18,7.64,7.64,0,0,1-.45,1.37,8.42,8.42,0,0,1-.75,1.39,6.62,6.62,0,0,1-1.21,1.36,7.36,7.36,0,0,1-1.78,1.12A8.39,8.39,0,0,1,386.7,396Z"/><path class="cls-32" d="M395.19,373.86l6.22-.8.13,2.17-2,.26,1,16.58,2-.26.13,2.17-6.22.8-.13-2.17,2-.26-1-16.58-2,.26Z"/><path class="cls-32" d="M403.8,372.71l14.64-1.89.43,7.33-2.16.28-.3-5.17-4.09.53,1,16.61,2-.26.13,2.17-6.22.8-.13-2.17,2-.26-1-16.61-4.06.52.3,5.17-2.16.28Z"/><path class="cls-32" d="M431.74,369.13l6.22-.8.13,2.17-2.36.31-3.24,10.66-1.28.16.38,6.42,2-.26.13,2.17-6.22.8-.13-2.17,2-.26-.38-6.42-1.17.15-4.55-9.65-2.36.31-.13-2.17,6.22-.8.13,2.17-1.53.2,3.57,7.59,1.62-.21,2.57-8.38-1.56.2Z"/><path class="cls-33" d="M273.32,388a7.48,7.48,0,0,1,1.33.66,5.2,5.2,0,0,1,1.27,1.12,6.2,6.2,0,0,1,1,1.71,7.83,7.83,0,0,1,.48,2.41,8.25,8.25,0,0,1-.19,2.51,7.37,7.37,0,0,1-.77,1.93,6.49,6.49,0,0,1-1.12,1.43,8.89,8.89,0,0,1-1.24,1,7.53,7.53,0,0,1-1.25.69,11.29,11.29,0,0,1-1.11.42,7.18,7.18,0,0,1-.8.2l-.34.06-5.1.66.24,4,1.95-.25.13,2.15-6.18.8-.13-2.15,2.09-.27-1-16.42-2,.26-.13-2.15,2-.26,4.17-.54,3.07-.4.34,0a6.84,6.84,0,0,1,.81,0,10.12,10.12,0,0,1,1.14.12A6.49,6.49,0,0,1,273.32,388Zm-.24,10.9a4.91,4.91,0,0,0,2.17-4.73q-.19-3.17-2.68-4.1a4.9,4.9,0,0,0-1-.27,6,6,0,0,0-.89-.09,7.29,7.29,0,0,0-.85,0l-3.07.4-2,.26.6,10.25,5.1-.66a4.71,4.71,0,0,0,.84-.19,5.63,5.63,0,0,0,.86-.32A6.59,6.59,0,0,0,273.08,398.86Z"/><path class="cls-33" d="M295.27,391.52a8.41,8.41,0,0,1-.19,2.52,7.33,7.33,0,0,1-.76,1.94,6.43,6.43,0,0,1-1.12,1.43,8.8,8.8,0,0,1-1.23,1,7,7,0,0,1-1.24.67q-.61.25-1.11.4a8.37,8.37,0,0,0,.27.81,6.08,6.08,0,0,0,.42.84q1.35,2.31,4.56,1.89l.76-.1.13,2.15-.76.1a7.91,7.91,0,0,1-2.48,0,6.18,6.18,0,0,1-1.87-.64,5.6,5.6,0,0,1-1.35-1,6.06,6.06,0,0,1-.91-1.2,7,7,0,0,1-.6-1.26,6.91,6.91,0,0,1-.31-1.13l-4.14.53.24,4,1.92-.25.13,2.15-6.17.8-.13-2.15,2.11-.27-1-16.48-2.06.27-.13-2.15,2.05-.27,4.14-.54,3.1-.4.35,0a6.46,6.46,0,0,1,.82,0c.33,0,.71,0,1.14.11a5.8,5.8,0,0,1,1.31.34,7.47,7.47,0,0,1,1.33.66,5.2,5.2,0,0,1,1.27,1.12,6.16,6.16,0,0,1,1,1.71A7.92,7.92,0,0,1,295.27,391.52Zm-6.94,6.09a4.61,4.61,0,0,0,.84-.2,6.76,6.76,0,0,0,.86-.31,5.68,5.68,0,0,0,.94-.52,5,5,0,0,0,2.16-4.77q-.19-3.18-2.69-4.14a4.83,4.83,0,0,0-1-.27,5.9,5.9,0,0,0-.89-.09,4.66,4.66,0,0,0-.85,0l-3.1.4-2,.26.6,10.28Z"/><path class="cls-33" d="M304.66,403.91l-4.17.54-2,.26-.13-2.15,2-.26-1-16.45-2,.26-.13-2.15,2-.26,4.17-.54,10.32-1.33.47,8.07-2.14.28-.35-5.92-8.18,1.06-2,.26.42,7.16,4-.52-.12-2,2.14-.28.36,6.2-2.14.28-.12-2-4,.52.42,7.13,2-.26,8.18-1.06-.3-5.12,2.14-.28.43,7.28Z"/><path class="cls-33" d="M330.08,379.69l6.18-.8.13,2.15-2.28.29-3.83,17.1,1.66-.21.13,2.15-9.28,1.2-.13-2.15,1.66-.21-5.76-15.86-2.28.29-.13-2.15,6.17-.8.13,2.15-1.66.21,5.76,15.86,1.49-.19,3.83-17.1-1.66.21Z"/><path class="cls-33" d="M346,398.57l-4.17.54-2,.26-.13-2.15,2-.26-1-16.45-2,.26-.13-2.15,2-.26,4.17-.54,10.32-1.33.47,8.07-2.14.28-.35-5.92L345,380l-2,.26.42,7.16,4-.52-.12-2,2.14-.28.36,6.2-2.14.28-.12-2-4,.52.42,7.13,2-.26,8.18-1.06-.3-5.12,2.14-.28.43,7.28Z"/><path class="cls-33" d="M370,374.56l6.17-.8.13,2.15-2.12.27,1,16.42,2-.26.13,2.15-6.18.8-.13-2.15,1.07-.14L362,380.27l.82,13.93,2-.26.13,2.15-6.18.8-.13-2.15,2-.26-1-16.42-2,.26-.13-2.15,6.18-.8.13,2.15-1.07.14,10.07,12.76-.82-14-1.92.25Z"/><path class="cls-33" d="M385.72,393.44a8,8,0,0,1-2.49,0,6.2,6.2,0,0,1-1.87-.64,5.4,5.4,0,0,1-1.34-1,6.94,6.94,0,0,1-.89-1.17,5.9,5.9,0,0,1-.58-1.22q-.21-.62-.32-1.1a6.57,6.57,0,0,1-.15-.81l0-.35-.36-6.2s0-.13,0-.34a7,7,0,0,1,.05-.82q.06-.5.19-1.16a6.79,6.79,0,0,1,.43-1.35,9,9,0,0,1,.74-1.39,6.38,6.38,0,0,1,1.2-1.37,7.29,7.29,0,0,1,1.77-1.11,8.46,8.46,0,0,1,2.45-.66,7.16,7.16,0,0,1,3.09.17,6.71,6.71,0,0,1,2.12,1.09l-.09-1.61,2.14-.28.41,7-2.14.28a7.43,7.43,0,0,0-.16-.83,5.59,5.59,0,0,0-.25-.84,5,5,0,0,0-.45-.9q-1.38-2.3-4.54-1.89a5,5,0,0,0-4.28,3,5.77,5.77,0,0,0-.34,1,6.23,6.23,0,0,0-.15.89,4.74,4.74,0,0,0,0,.86l.36,6.2a4.53,4.53,0,0,0,.13.84,6.08,6.08,0,0,0,.25.85,4.85,4.85,0,0,0,.45.91q1.41,2.27,4.57,1.86a4.92,4.92,0,0,0,4.26-3,5.57,5.57,0,0,0,.34-1,6.61,6.61,0,0,0,.15-.9,7.79,7.79,0,0,0,.06-.86l2.14-.28s0,.14,0,.36a7.1,7.1,0,0,1-.05.83,11.27,11.27,0,0,1-.2,1.17,7.58,7.58,0,0,1-.45,1.36,8.36,8.36,0,0,1-.74,1.38,6.56,6.56,0,0,1-1.2,1.35,7.3,7.3,0,0,1-1.77,1.11A8.33,8.33,0,0,1,385.72,393.44Z"/><path class="cls-33" d="M394.14,371.44l6.18-.8.13,2.15-2,.26,1,16.45,2-.26.13,2.15-6.18.8-.13-2.15,2-.26-1-16.45-2,.26Z"/><path class="cls-33" d="M402.68,370.31l14.52-1.88.43,7.28-2.14.28-.3-5.12-4.06.53,1,16.48,2-.26.13,2.15-6.17.8L408,388.4l2-.26-1-16.48-4,.52.3,5.12-2.14.28Z"/><path class="cls-33" d="M430.4,366.76l6.18-.8.13,2.15-2.34.3L431.15,379l-1.27.16.37,6.37,2-.26.13,2.15-6.18.8-.13-2.15,2-.26-.37-6.37-1.16.15L422.07,370l-2.34.3-.13-2.15,6.18-.8.13,2.15-1.52.2,3.54,7.53,1.61-.21,2.55-8.32-1.55.2Z"/><polygon class="cls-34" points="443.78 374.08 445.09 377.23 448.48 377.97 445.82 380.14 446.15 383.51 443.21 381.71 440.02 383.05 440.86 379.77 438.56 377.22 442.02 376.99 443.78 374.08"/><polygon class="cls-34" points="251.41 396.95 254.14 398.99 257.43 397.9 256.26 401.12 258.27 403.85 254.81 403.81 252.76 406.58 251.8 403.33 248.52 402.32 251.38 400.36 251.41 396.95"/><polygon class="cls-34" points="406.36 354.68 407.88 355.82 409.73 355.21 409.07 357.01 410.2 358.55 408.26 358.52 407.11 360.08 406.57 358.26 404.74 357.69 406.34 356.59 406.36 354.68"/><polygon class="cls-34" points="303.61 412.31 305.14 413.46 306.99 412.85 306.33 414.65 307.46 416.18 305.52 416.16 304.37 417.72 303.83 415.89 301.99 415.33 303.6 414.22 303.61 412.31"/><polygon class="cls-34" points="280.99 383.18 282.52 384.32 284.37 383.71 283.7 385.52 284.83 387.05 282.89 387.02 281.74 388.58 281.2 386.76 279.37 386.19 280.97 385.09 280.99 383.18"/><polygon class="cls-34" points="314.17 369.04 315.7 370.19 317.55 369.57 316.89 371.38 318.02 372.91 316.08 372.89 314.93 374.45 314.39 372.62 312.55 372.06 314.16 370.95 314.17 369.04"/><polygon class="cls-34" points="420.74 423.99 422.27 425.14 424.12 424.52 423.46 426.33 424.59 427.86 422.65 427.84 421.5 429.4 420.96 427.57 419.12 427.01 420.73 425.9 420.74 423.99"/><polygon class="cls-34" points="365.32 388.7 366.74 389.76 368.45 389.19 367.84 390.87 368.88 392.29 367.09 392.26 366.02 393.71 365.52 392.02 363.82 391.49 365.31 390.47 365.32 388.7"/><path class="cls-35" d="M303,417l.13,0a1.17,1.17,0,0,1,1.33,1,23.13,23.13,0,0,1,1.29,7.54v.85a24.71,24.71,0,0,1-.21,3.24,7.4,7.4,0,0,1,2-.52l.6-.07a9.67,9.67,0,0,1,4.22.33,1.85,1.85,0,0,1,.91,1.55v.23q-.12.58-.48.63l-.21,0a12.85,12.85,0,0,0-5.17-.59q-2.33.41-2.33.9t-.91.58h-.08q-1,.13-1.25-.64v0a31,31,0,0,0,.48-5.21v-.42a2,2,0,0,1,0-.44,16.36,16.36,0,0,0-1.08-6.57h0a7.42,7.42,0,0,0-1.2,4.29,15.34,15.34,0,0,0,.6,3.8v0a.5.5,0,0,1-.43.39,3,3,0,0,1-2.15-1.06,3.79,3.79,0,0,1-.43-2v-.9a8.5,8.5,0,0,1,2-5.67A4.43,4.43,0,0,1,303,417Z"/><path class="cls-35" d="M312.37,419.19q1.17.33,1.17,1-.24,1.27-.93,4-.28,1.6-.07,1.76l0,0q.46,0,1-1a21.76,21.76,0,0,0,1.16-2.62q.67-.07.67,0v.07a14,14,0,0,1-1.67,4q-.87,1.23-1.34,1.29h-.07q-.85.1-1.5-1.14h0q-1,1.28-1.34,1.33-1.32.16-1.89-1.52a5.58,5.58,0,0,1-.17-1.27v-.39a10.36,10.36,0,0,1,.71-3.63q.42-1.05.89-1.11a5.13,5.13,0,0,1,1.1-.23l.22,0a3.73,3.73,0,0,1,1.56.81A6.83,6.83,0,0,1,312.37,419.19Zm-2.68,6.19q0,1.08.15,1.06a4.91,4.91,0,0,0,1-1.32q.25-1.37.68-2.94s.12-.33.3-.94a3.63,3.63,0,0,0-1-.47h0Q309.88,420.87,309.69,425.38Z"/><path class="cls-35" d="M324.73,417.67l.18,0q1,0,1.11.84a1.11,1.11,0,0,1-.44,1.2q-.57.38-.69-.19c0-.09,0-.13-.07-.12l-.13,0q-.68.29-1.48,2.77a8,8,0,0,0-.18,1.55v.23q0,1.14.6,1.06.79,0,2-1.48a7.5,7.5,0,0,0,1.38-2.32q.24-.4.45-.43l.25,0a.22.22,0,0,1,.15.21,10.8,10.8,0,0,1-2.1,3.76,3.56,3.56,0,0,1-2.57,1.47l-.25,0a1.44,1.44,0,0,1-1.67-1,2.63,2.63,0,0,1-.18-1.05v-.33a10.24,10.24,0,0,1,.75-3.34,5.12,5.12,0,0,1,2.41-2.73A2.06,2.06,0,0,1,324.73,417.67Z"/><path class="cls-35" d="M328,418.63q1.41.47,1.41,1v.11a10.37,10.37,0,0,1-.34,2.19,10.28,10.28,0,0,0-.34,2.1h0a5.67,5.67,0,0,0,2.27-3.39.47.47,0,0,1,.3-.22c.28,0,.42,0,.42.05v.15a13.1,13.1,0,0,1-1.7,3.57q-.95,1.3-1.52,1.36l-.24,0q-.91.11-1.2-1.07a4.93,4.93,0,0,1,0-.56v-.37a17.08,17.08,0,0,1,.81-4.06,4,4,0,0,0,.11-.79Zm.35-2q1.43.42,1.43,1a1.33,1.33,0,0,1-.16.54,2.28,2.28,0,0,0,0,.29v.11s0,.07-.11.12h0a1.73,1.73,0,0,1-1.38-.58.41.41,0,0,1,0-.18,9.21,9.21,0,0,1,.24-1C328.32,416.76,328.35,416.67,328.38,416.67Z"/><path class="cls-35" d="M332.48,416.72q1.76.41,1.76.88-.22.92-1.2,4.4a4.63,4.63,0,0,0-.22,1.12h0a19,19,0,0,0,1.89-1.9,31.64,31.64,0,0,1,1-3.49,11.31,11.31,0,0,1,.56-1.42q1.2.33,1.2,1-.22,1.06-1,3.61a6.26,6.26,0,0,0-.2,1.41v.37a9,9,0,0,0,.07.9,10.35,10.35,0,0,0,2.28-4.12,1.24,1.24,0,0,1,.35-.14H339q.32,0,.32.21v0a9.22,9.22,0,0,1-1.26,3.16q-1,1.72-1.81,1.82l-.15,0q-.68.08-1.23-1.39a.3.3,0,0,1,0-.16h0q-1.75,2-2.38,2.06l-.23,0q-.85.1-1.22-.92a3.29,3.29,0,0,1-.1-.7v-.28a36.58,36.58,0,0,1,1.57-6.45Z"/><path class="cls-35" d="M344.37,411.53q1.59.61,1.59,1.19,0,.24-1.41,9.09-.11.5-.21,1.13,1.28-.74,2.74-4.42a1,1,0,0,1,.58-.22h0c.07,0,.11,0,.11.13a14.36,14.36,0,0,1-1.57,3.68q-1.11,1.9-2.08,2h-.07q-.67.08-1.49-.91a.29.29,0,0,1,0-.14V423a1.73,1.73,0,0,1,.07-.55q-1.15,1.63-1.56,1.68-1.4.17-2-1.63a6.4,6.4,0,0,1-.14-1.37v-.28a8.63,8.63,0,0,1,1.2-4.54,2.52,2.52,0,0,1,1.38-.45l.43-.05q.33,0,1.59.86h0a42.07,42.07,0,0,0,.7-4.95v-.07C344.31,411.56,344.33,411.54,344.37,411.53Zm-3.15,9.86v.07a1.79,1.79,0,0,0,.15,1,8.1,8.1,0,0,0,1.41-2.16,2.31,2.31,0,0,0,.42-1.33l.25-1.53a2.44,2.44,0,0,0-1.32-.55q-.55.07-.85,3.12A10.48,10.48,0,0,0,341.22,421.39Z"/><path class="cls-35" d="M352.24,414.3q1.17.33,1.17,1-.24,1.27-.93,4-.28,1.6-.07,1.77l0,0q.46,0,1-1a21.76,21.76,0,0,0,1.16-2.62q.67-.07.67,0v.07a14.05,14.05,0,0,1-1.67,4q-.87,1.23-1.34,1.29h-.07q-.85.1-1.5-1.14h0q-1,1.28-1.34,1.33-1.32.16-1.89-1.52a5.61,5.61,0,0,1-.17-1.27v-.39a10.36,10.36,0,0,1,.71-3.63q.42-1.05.89-1.11a5.13,5.13,0,0,1,1.1-.23l.22,0a3.73,3.73,0,0,1,1.56.81A6.87,6.87,0,0,1,352.24,414.3Zm-2.68,6.19q0,1.08.15,1.06a4.89,4.89,0,0,0,1-1.32q.25-1.37.67-2.94s.12-.33.3-.94a3.6,3.6,0,0,0-1-.47h0Q349.75,416,349.56,420.49Z"/><path class="cls-35" d="M360.37,409.57q1.59.61,1.59,1.19,0,.24-1.41,9.09-.11.5-.21,1.13,1.28-.74,2.74-4.42a1,1,0,0,1,.58-.22h0c.07,0,.11,0,.11.13a14.36,14.36,0,0,1-1.57,3.68q-1.11,1.9-2.08,2h-.07q-.67.08-1.49-.91a.29.29,0,0,1,0-.14V421a1.73,1.73,0,0,1,.07-.55q-1.15,1.63-1.56,1.68-1.4.17-2-1.63a6.36,6.36,0,0,1-.14-1.36v-.28a8.63,8.63,0,0,1,1.2-4.54,2.52,2.52,0,0,1,1.38-.45l.43-.05q.33,0,1.59.86h0a42,42,0,0,0,.7-4.95v-.07C360.31,409.6,360.34,409.57,360.37,409.57Zm-3.15,9.86v.07a1.79,1.79,0,0,0,.15,1,8.1,8.1,0,0,0,1.41-2.16,2.31,2.31,0,0,0,.42-1.33l.25-1.53a2.43,2.43,0,0,0-1.32-.55q-.55.07-.85,3.12A10.56,10.56,0,0,0,357.23,419.42Z"/><path class="cls-35" d="M375,407.77q1.59.61,1.59,1.19,0,.24-1.41,9.09-.11.5-.21,1.13,1.28-.74,2.74-4.42a1,1,0,0,1,.58-.22h0c.07,0,.11,0,.11.13a14.38,14.38,0,0,1-1.57,3.68q-1.11,1.9-2.08,2h-.07q-.67.08-1.49-.91a.29.29,0,0,1,0-.14v-.07a1.74,1.74,0,0,1,.07-.55q-1.15,1.63-1.56,1.68-1.4.17-2-1.63a6.37,6.37,0,0,1-.14-1.37v-.28a8.63,8.63,0,0,1,1.2-4.54,2.52,2.52,0,0,1,1.38-.45l.43-.05q.33,0,1.59.86h0a42,42,0,0,0,.7-4.95v-.07S375,407.77,375,407.77Zm-3.15,9.86v.07a1.79,1.79,0,0,0,.15,1,8.09,8.09,0,0,0,1.41-2.16,2.31,2.31,0,0,0,.42-1.33l.25-1.53a2.43,2.43,0,0,0-1.32-.55q-.55.07-.85,3.12A10.56,10.56,0,0,0,371.87,417.63Z"/><path class="cls-35" d="M380.77,410.79l.22,0q.52-.06,1,.89l0,.14c-.08.05-.12.09-.12.11q.93-.11,1.1.69v.12q0,1.28-3,4.47l-.29.28a.86.86,0,0,0,.8.48,3.66,3.66,0,0,0,1.7-1,6.71,6.71,0,0,0,1.71-2.62.68.68,0,0,1,.46-.25h.07c.16,0,.24,0,.24.07v.07a7.1,7.1,0,0,1-1,2.23,7,7,0,0,1-1.78,2,3.73,3.73,0,0,1-1.49.76l-.22,0a1.75,1.75,0,0,1-1.94-1.36,4.48,4.48,0,0,1-.34-1.65v-.51a8.64,8.64,0,0,1,.61-3,3.79,3.79,0,0,1,1.58-1.63A2,2,0,0,1,380.77,410.79Zm-1.09,5a5.76,5.76,0,0,0,1.89-2.58,2.6,2.6,0,0,0,.07-.38.39.39,0,0,0-.27-.37h0a5.68,5.68,0,0,0-1.6,2.78A3.76,3.76,0,0,0,379.68,415.77Z"/><path class="cls-35" d="M392,406q1.51.55,1.51,1.17a47.64,47.64,0,0,1-.85,5.22,22.92,22.92,0,0,0-.33,3.22V416a3.19,3.19,0,0,0,.13.83h0q1-1.61,1.59-2.8a12.58,12.58,0,0,1,.84-1.53c.14,0,.2.1.2.18v0q.5-.25-.66,2.32t-2,2.61l-.26,0a1.53,1.53,0,0,1-1.48-.92,3,3,0,0,1-.28-1.3v-.26a45.64,45.64,0,0,1,1.31-7.79q.13-.7.23-1.46Z"/><path class="cls-35" d="M399.59,408.48q1.17.33,1.17,1-.24,1.27-.93,4-.28,1.6-.07,1.77l0,0q.46,0,1-1A21.72,21.72,0,0,0,402,411.6q.67-.07.67,0v.07a14.05,14.05,0,0,1-1.67,4q-.87,1.23-1.34,1.29h-.07q-.85.1-1.5-1.14h0q-1,1.28-1.34,1.33-1.32.16-1.89-1.52a5.61,5.61,0,0,1-.17-1.27V414a10.36,10.36,0,0,1,.71-3.63q.42-1.05.89-1.11a5.13,5.13,0,0,1,1.1-.23l.22,0a3.74,3.74,0,0,1,1.56.81A6.87,6.87,0,0,1,399.59,408.48Zm-2.68,6.19q0,1.08.15,1.06a4.88,4.88,0,0,0,1-1.32q.25-1.37.67-2.94s.12-.33.3-.94a3.61,3.61,0,0,0-1-.47h0Q397.1,410.16,396.9,414.67Z"/><path class="cls-35" d="M317.69,430.09l.2,0a3.07,3.07,0,0,1,2.2.88,2.48,2.48,0,0,1,1.16,2.05v.17a4.6,4.6,0,0,1-.74,2,.51.51,0,0,1-.21.11h-.11q-.34,0-.88-1.41-.63-1.3-1.05-1.25t-1.34,2.05a8.69,8.69,0,0,0-1.12,3.15q-.08,1.18.64,1.23a.25.25,0,0,1,.13,0,3.8,3.8,0,0,0,1.46-.75,1.71,1.71,0,0,1,.57-.21q1.09.24,1.53,2.09a5.77,5.77,0,0,1,.07,1.49,7.93,7.93,0,0,1-1.4,3.91,3.35,3.35,0,0,1-2.9,1.79l-.25,0a2.61,2.61,0,0,1-2.95-1.45,3.63,3.63,0,0,1-.24-1.51l0-.33a4.13,4.13,0,0,1,.9-2.32.92.92,0,0,1,.22-.07,3.49,3.49,0,0,1,1.84.48q.34.25.32.4a15.59,15.59,0,0,0-.42,2.31v.15q0,.6.16.58,1.4-.11,1.93-2.49t.55-2.74q0-.33-.26-.3s-.51.21-1.39.61a2.17,2.17,0,0,1-.59.13h0q-1.94.24-2.59-1.95a6.24,6.24,0,0,1-.12-1.66,8.85,8.85,0,0,1,1.48-4.11,11.45,11.45,0,0,1,2.93-3Z"/><path class="cls-35" d="M325.66,434.21l.26,0q.62-.08,1.25,1.07l0,.17c-.09.06-.14.11-.15.14q1.11-.14,1.32.82v.15q0,1.53-3.61,5.36a3.81,3.81,0,0,1-.35.34,1,1,0,0,0,1,.58,4.4,4.4,0,0,0,2-1.25,8.06,8.06,0,0,0,2-3.14.81.81,0,0,1,.55-.3h.09c.19,0,.29,0,.29.08v.09a8.55,8.55,0,0,1-1.2,2.68,8.42,8.42,0,0,1-2.13,2.4,4.46,4.46,0,0,1-1.78.91l-.26,0a2.1,2.1,0,0,1-2.33-1.63,5.36,5.36,0,0,1-.41-2v-.61a10.37,10.37,0,0,1,.73-3.64,4.55,4.55,0,0,1,1.89-1.95A2.42,2.42,0,0,1,325.66,434.21Zm-1.31,6a6.92,6.92,0,0,0,2.27-3.1,3.22,3.22,0,0,0,.09-.45.46.46,0,0,0-.32-.45h0a6.81,6.81,0,0,0-1.92,3.34A4.42,4.42,0,0,0,324.35,440.19Z"/><path class="cls-35" d="M335.73,433h.09a3.48,3.48,0,0,1,1.77,0q-.44,7.89-1,11.16a20.87,20.87,0,0,1-1.33,5q-1.14,2.2-2.34,2.35l-.48.06q-2.75-.2-2.75-3.13t1.54-3.91a1.81,1.81,0,0,1,.93-.44h.09q1.32-.16,1.14.43a9.09,9.09,0,0,1-.87,1.76,4.18,4.18,0,0,0-.67,2.22q0,1,.67,1.26h.12q1.37-.17,1.94-7.13.08-1,.12-2.07v0h0a8.2,8.2,0,0,1-2.06,2.71l-.24.07a2,2,0,0,1-2-1.21,6,6,0,0,1-.45-2.48,10.68,10.68,0,0,1,1.34-5.32q0-.37,1.69-.65l.41-.05a2.69,2.69,0,0,1,1.44.67h0v-.73Q335,433.09,335.73,433Zm-3.1,7.44q0,.85.17.83h0a13.74,13.74,0,0,0,1.65-2.51,2.51,2.51,0,0,0,.36-.84v-1.38q0-.42,0-1.29a2.09,2.09,0,0,0-1.2-.42q-.81.3-1.05,4.69Z"/><path class="cls-35" d="M340.37,432.4q2.12.49,2.12,1.06-.26,1.1-1.43,5.28a5.55,5.55,0,0,0-.26,1.35h0a22.78,22.78,0,0,0,2.26-2.28,37.94,37.94,0,0,1,1.17-4.18,13.43,13.43,0,0,1,.67-1.7q1.43.39,1.43,1.14-.26,1.27-1.24,4.34a7.5,7.5,0,0,0-.23,1.7v.45q0,.36.08,1.08a12.42,12.42,0,0,0,2.74-4.94,1.49,1.49,0,0,1,.42-.17h.07c.25,0,.38.05.38.26v0a11.08,11.08,0,0,1-1.51,3.79q-1.23,2.06-2.18,2.18l-.19,0q-.81.1-1.47-1.66a.37.37,0,0,1,0-.19h0q-2.1,2.37-2.86,2.47l-.27,0q-1,.12-1.46-1.11a3.94,3.94,0,0,1-.12-.84v-.34q0-1.37,1.88-7.74Z"/><path class="cls-35" d="M349.12,430.91q.4-.12,1.23.76a1.4,1.4,0,0,1,.41.7,8.53,8.53,0,0,1-.12,1.55v0h0a10,10,0,0,1,1.05-2.2q.59-.78,1-.84l.26,0q1-.13,1.05.25v.06a5.19,5.19,0,0,1-.33,1.35,12.6,12.6,0,0,0-.5,2.5q0,.84-.34.88l-.57.11q-.56,0-.58-.27c-.07-.36-.13-.54-.18-.53h0q-.39,0-1,2.37A19,19,0,0,0,350,442v0a.18.18,0,0,1-.17.19l-.19,0a2.78,2.78,0,0,1-1.58-.29,1,1,0,0,1-.36-.71l0-.45a72.29,72.29,0,0,1,.89-7.65q.08-.84.16-2Q348.72,431,349.12,430.91Z"/><path class="cls-35" d="M355.42,432.18q1.69.56,1.69,1.2v.13a12.42,12.42,0,0,1-.41,2.63,12.38,12.38,0,0,0-.41,2.52h0a6.8,6.8,0,0,0,2.72-4.07.56.56,0,0,1,.36-.27c.34,0,.51,0,.51.06v.19a15.75,15.75,0,0,1-2,4.28q-1.14,1.55-1.82,1.64l-.28,0q-1.09.13-1.43-1.29a5.9,5.9,0,0,1-.06-.68v-.44a20.51,20.51,0,0,1,1-4.87,4.81,4.81,0,0,0,.13-1Zm.42-2.35q1.72.5,1.72,1.16a1.61,1.61,0,0,1-.2.65,2.72,2.72,0,0,0,0,.34v.13s0,.08-.13.14h0a2.08,2.08,0,0,1-1.66-.69.5.5,0,0,1-.06-.22,11.13,11.13,0,0,1,.29-1.19C355.77,429.94,355.8,429.84,355.84,429.83Z"/><path class="cls-35" d="M366,424.78q1.91.73,1.91,1.42,0,.28-1.69,10.91-.13.6-.25,1.36,1.54-.88,3.29-5.3a1.16,1.16,0,0,1,.69-.26h0c.08,0,.13,0,.13.16a17.22,17.22,0,0,1-1.88,4.42q-1.33,2.28-2.49,2.36h-.09q-.8.1-1.78-1.1a.35.35,0,0,1,0-.17v-.08a2.1,2.1,0,0,1,.09-.66q-1.39,2-1.87,2-1.68.21-2.39-2a7.72,7.72,0,0,1-.17-1.64v-.34a10.37,10.37,0,0,1,1.44-5.45,3,3,0,0,1,1.66-.55l.52-.06q.39,0,1.91,1h0a50.42,50.42,0,0,0,.84-5.94v-.08C365.93,424.82,366,424.78,366,424.78Zm-3.78,11.83v.09a2.16,2.16,0,0,0,.18,1.17,9.74,9.74,0,0,0,1.7-2.59,2.78,2.78,0,0,0,.51-1.59l.3-1.83a2.92,2.92,0,0,0-1.58-.65q-.66.08-1,3.74A12.46,12.46,0,0,0,362.23,436.61Z"/><path class="cls-35" d="M375.45,428.1q1.4.39,1.4,1.14-.29,1.52-1.11,4.86-.33,1.92-.09,2.12l.06,0q.56,0,1.21-1.25a26.15,26.15,0,0,0,1.39-3.15q.8-.08.8,0v.09a16.87,16.87,0,0,1-2,4.77q-1,1.47-1.61,1.54h-.09q-1,.13-1.8-1.37h0q-1.14,1.54-1.61,1.59-1.58.19-2.27-1.82a6.7,6.7,0,0,1-.2-1.53v-.47a12.43,12.43,0,0,1,.85-4.36q.51-1.26,1.07-1.33a6.15,6.15,0,0,1,1.32-.28l.26,0a4.48,4.48,0,0,1,1.87,1A8.22,8.22,0,0,1,375.45,428.1Zm-3.22,7.43q0,1.29.19,1.27a5.87,5.87,0,0,0,1.17-1.59q.3-1.65.81-3.53s.14-.39.36-1.13a4.34,4.34,0,0,0-1.26-.57h0Q372.46,430.11,372.23,435.53Z"/><path class="cls-35" d="M385.21,422.42q1.91.73,1.91,1.42,0,.28-1.69,10.91-.13.6-.25,1.36,1.54-.88,3.29-5.3a1.16,1.16,0,0,1,.69-.26h0c.08,0,.13,0,.13.16a17.22,17.22,0,0,1-1.88,4.42q-1.33,2.28-2.49,2.36h-.09q-.8.1-1.78-1.1a.35.35,0,0,1,0-.17v-.08a2.1,2.1,0,0,1,.09-.66q-1.39,2-1.87,2-1.68.21-2.39-2a7.71,7.71,0,0,1-.17-1.64v-.34a10.37,10.37,0,0,1,1.44-5.45,3,3,0,0,1,1.66-.55l.52-.06q.39,0,1.91,1h0a50.55,50.55,0,0,0,.84-5.94v-.08C385.13,422.46,385.16,422.43,385.21,422.42Zm-3.78,11.83v.09a2.15,2.15,0,0,0,.18,1.17,9.73,9.73,0,0,0,1.7-2.59,2.78,2.78,0,0,0,.51-1.59l.3-1.83a2.93,2.93,0,0,0-1.58-.65q-.66.08-1,3.74A12.58,12.58,0,0,0,381.43,434.25Z"/><polygon class="cls-34" points="309.18 450.08 310.71 451.22 312.56 450.61 311.89 452.42 313.02 453.95 311.08 453.93 309.93 455.48 309.4 453.66 307.56 453.09 309.16 451.99 309.18 450.08"/><polygon class="cls-34" points="294.19 442.31 295.72 443.45 297.57 442.84 296.91 444.65 298.04 446.18 296.1 446.15 294.95 447.71 294.41 445.89 292.57 445.32 294.18 444.22 294.19 442.31"/><path class="cls-36" d="M166.31,88.19H61.6a7.3,7.3,0,0,1-7.38-7.38V17.6a7.3,7.3,0,0,1,7.38-7.38h1.55l5.37-8.54a3.6,3.6,0,0,1,3-1.68H107.4A10.11,10.11,0,0,1,114,2.41,10.11,10.11,0,0,1,120.52,0h35.83a3.6,3.6,0,0,1,3,1.68l5.37,8.54h1.42a7.3,7.3,0,0,1,7.38,7.38V80.72a7.13,7.13,0,0,1-1.95,5.15A7.33,7.33,0,0,1,166.31,88.19Zm.07-7.16h0Z"/><rect class="cls-19" x="104.5" y="131.01" width="15.3" height="25.3" rx="7.64" ry="7.64"/><rect class="cls-20" x="104.5" y="125.79" width="15" height="13.83" rx="6.91" ry="6.91"/><rect class="cls-19" x="108.17" y="76.36" width="6.77" height="55.9" rx="3.38" ry="3.38" transform="translate(223.12 208.62) rotate(180)"/><ellipse class="cls-19" cx="110.97" cy="78.13" rx="10.89" ry="12.36"/><ellipse class="cls-21" cx="110.97" cy="74.01" rx="10.89" ry="12.36"/><ellipse class="cls-22" cx="110.97" cy="65.18" rx="10.89" ry="12.36"/><ellipse class="cls-23" cx="110.68" cy="64" rx="13.24" ry="8.83"/><ellipse class="cls-19" cx="110.68" cy="60.77" rx="13.24" ry="8.83"/><path class="cls-37" d="M166.31,91.42H61.6A7.3,7.3,0,0,1,54.21,84V20.83a7.3,7.3,0,0,1,7.38-7.38h1.55l5.37-8.54a3.6,3.6,0,0,1,3-1.68H107.4A10.11,10.11,0,0,1,114,5.63a10.11,10.11,0,0,1,6.56-2.41h35.83a3.6,3.6,0,0,1,3,1.68l5.37,8.54h1.42a7.3,7.3,0,0,1,7.38,7.38V83.95a7.13,7.13,0,0,1-1.95,5.15A7.33,7.33,0,0,1,166.31,91.42Zm.07-7.16h0Z"/><path class="cls-38" d="M166.56,87.57H61.85a3.72,3.72,0,0,1-3.78-3.78V20.58a3.72,3.72,0,0,1,3.78-3.78H166.44a3.72,3.72,0,0,1,3.78,3.78V83.79A3.69,3.69,0,0,1,166.56,87.57Z"/><polygon class="cls-39" points="165.81 21.21 165.81 83.16 62.6 83.16 62.6 21.21 71.81 6.58 71.81 21.21 156.6 21.21 156.6 6.58 165.81 21.21"/><path class="cls-40" d="M156.6,6.58V72.43H120.77a6.71,6.71,0,0,0-6.56,6.18h0a6.61,6.61,0,0,0-6.56-6.18H71.81V6.58h35.83a6.52,6.52,0,0,1,6.56,6.56,6.52,6.52,0,0,1,6.56-6.56Z"/><path class="cls-41" d="M114.2,12.88v.25a6.52,6.52,0,0,0-6.56-6.56H71.81V72.43h35.83a6.71,6.71,0,0,1,6.56,6.18h0Z"/><rect class="cls-42" x="76.73" y="15.91" width="32.3" height="8.83"/><rect class="cls-42" x="76.73" y="24.74" width="32.3" height="3.03"/><rect class="cls-31" x="76.73" y="33.45" width="32.3" height="3.03"/><rect class="cls-31" x="76.73" y="42.28" width="32.3" height="3.03"/><rect class="cls-31" x="76.73" y="51.11" width="32.3" height="3.03"/><rect class="cls-31" x="76.73" y="59.94" width="32.3" height="3.03"/><rect class="cls-43" x="119.38" y="15.91" width="32.3" height="3.03"/><rect class="cls-43" x="119.38" y="24.74" width="32.3" height="3.03"/><rect class="cls-43" x="119.38" y="33.45" width="32.3" height="3.03"/><rect class="cls-43" x="119.38" y="42.28" width="32.3" height="3.03"/><rect class="cls-43" x="119.38" y="51.11" width="32.3" height="3.03"/><rect class="cls-43" x="119.38" y="59.94" width="32.3" height="3.03"/><path class="cls-39" d="M114.71,33.83c-.13-3.78-.13-7.44-.13-10.47-.13-6.18-.25-10.22-.25-10.22s-.13,4-.25,10.22c0,3-.13,6.69-.13,10.47s0,7.95-.13,12,0,8.2.13,12,.13,7.44.13,10.47c0,6.18.13,10.35.13,10.35s.13-4,.25-10.22c0-3,.13-6.69.13-10.47s0-7.95.13-12S114.71,37.74,114.71,33.83Z"/><polygon class="cls-40" points="71.81 72.43 62.6 83.16 62.6 21.21 71.81 6.58 71.81 72.43"/><polygon class="cls-43" points="156.6 6.58 165.81 21.21 165.81 83.16 156.6 72.43 156.6 6.58"/><path class="cls-43" d="M114.71,80a1.6,1.6,0,0,1-.13-.76,6.55,6.55,0,0,1-.38-.63,4.07,4.07,0,0,0-.25.76c0,.25-.13.5-.13.76a2.46,2.46,0,0,1-.13.88,2.46,2.46,0,0,0,.13.88,1.6,1.6,0,0,1,.13.76,3.73,3.73,0,0,0,.38.76,4.07,4.07,0,0,0,.25-.76c0-.25.13-.5.13-.76a2.46,2.46,0,0,1,.13-.88A3.14,3.14,0,0,1,114.71,80Z"/></g></g></g></svg>