<svg xmlns="http://www.w3.org/2000/svg" xmlns:xlink="http://www.w3.org/1999/xlink" viewBox="0 0 555.05 410.93"><defs><style>.cls-1{isolation:isolate;}.cls-2{fill:#a3abaf;}.cls-3{fill:#b3bec6;}.cls-4{fill:#aab4ba;}.cls-5{fill:#cbdbeb;}.cls-6{fill:#96b5ed;}.cls-7{fill:#f73131;}.cls-8{fill:#6e9fe5;}.cls-9{fill:#528ac1;}.cls-10{fill:#7fadd3;}.cls-11{fill:#898888;}.cls-12{fill:#b2b1b1;}.cls-13{fill:#a0a0a0;}.cls-14,.cls-23{fill:#424242;}.cls-14{opacity:0.3;}.cls-15{fill:#827049;}.cls-16{fill:#9b9173;}.cls-17{fill:#87b5c4;}.cls-18{fill:#cbf1f7;}.cls-19{fill:#5a5b5b;}.cls-20{fill:#5f6060;}.cls-21{fill:#c7c6c5;}.cls-22{fill:#b5b4b4;}.cls-24{fill:#f4e3b8;}.cls-25{fill:#d8cc9c;}.cls-26{fill:#c7c5cb;}.cls-27{fill:#aeadb3;}.cls-28{fill:url(#Degradado_sin_nombre_5);}.cls-29{fill:#f2f2f2;}.cls-30{fill:#f2e3dd;opacity:0.28;mix-blend-mode:multiply;}.cls-31{fill:#ccc;}.cls-32{fill:#430d49;stroke:#430d49;stroke-width:3.46px;}.cls-32,.cls-33{stroke-miterlimit:10;}.cls-33{fill:#8f1e9b;stroke:#8f1e9b;stroke-width:1.43px;}.cls-34{fill:#edc10a;}.cls-35{fill:#2a4fb7;}</style><linearGradient id="Degradado_sin_nombre_5" x1="333.87" y1="187.91" x2="366.62" y2="396.62" gradientUnits="userSpaceOnUse"><stop offset="0" stop-color="#f2f2f2"/><stop offset="0.24" stop-color="#f0f0ef"/><stop offset="0.44" stop-color="#ebe8e4"/><stop offset="0.63" stop-color="#e3dbd2"/><stop offset="0.82" stop-color="#d7caba"/><stop offset="1" stop-color="#c7b39a"/><stop offset="1" stop-color="#c7b299"/></linearGradient></defs><title>twinbuild</title><g class="cls-1"><g id="Capa_2" data-name="Capa 2"><g id="Capa_8" data-name="Capa 8"><rect class="cls-2" y="243.5" width="68.23" height="21.09"/><rect class="cls-3" x="67.68" y="243.5" width="52.97" height="21.09"/><rect class="cls-4" x="120.09" y="243.5" width="52.97" height="21.09"/><rect class="cls-2" x="172.5" y="243.5" width="52.97" height="21.09"/><rect class="cls-2" x="319.71" y="242.11" width="50.46" height="22.48"/><rect class="cls-3" x="369.63" y="242.11" width="51.57" height="22.48"/><rect class="cls-4" x="420.66" y="242.11" width="51.57" height="22.48"/><rect class="cls-2" x="471.69" y="242.11" width="51.57" height="22.48"/><rect class="cls-3" x="523.26" y="242.11" width="31.78" height="22.48"/><path class="cls-5" d="M144.48,244.11H217.4V153.68H21.06v90.43H88.88v-5.65H144.4S144.48,244.53,144.48,244.11Z"/><rect class="cls-6" x="21.06" y="235.12" width="195.96" height="8.99"/><rect class="cls-6" x="143.68" y="234.94" width="73.94" height="9.17"/><path class="cls-5" d="M110.44,156.85H217.73V66.42H21.39v90.43h37V151.2h51.91S110.44,157.27,110.44,156.85Z"/><rect class="cls-6" x="21.39" y="147.64" width="37.05" height="9.21"/><rect class="cls-7" x="20.44" y="146.49" width="197.49" height="10.36"/><path class="cls-8" d="M49.95,80.81H36.61a4.35,4.35,0,0,0-4.34,4.34v16a4.35,4.35,0,0,0,4.34,4.34H49.95Z"/><path class="cls-9" d="M49.13,81.7H37a4,4,0,0,0-3.94,3.94v15.15A4,4,0,0,0,37,104.72h12.1Z"/><rect class="cls-10" x="38.9" y="92.77" width="1.15" height="6.43" rx="0.58" ry="0.58" transform="translate(-54.38 51.68) rotate(-42.37)"/><rect class="cls-10" x="42.19" y="92.33" width="1.15" height="6.43" rx="0.58" ry="0.58" transform="translate(-53.22 53.78) rotate(-42.37)"/><path class="cls-8" d="M51.38,80.57H64.71a4.35,4.35,0,0,1,4.34,4.34v16a4.35,4.35,0,0,1-4.34,4.34H51.38Z"/><path class="cls-9" d="M52.2,81.46H64.3a4,4,0,0,1,3.94,3.94v15.15a4,4,0,0,1-3.94,3.94H52.2Z"/><rect class="cls-10" x="56.92" y="93.01" width="1.15" height="6.43" rx="0.58" ry="0.58" transform="translate(-49.83 63.89) rotate(-42.37)"/><rect class="cls-10" x="60.21" y="92.57" width="1.15" height="6.43" rx="0.58" ry="0.58" transform="translate(-48.68 65.99) rotate(-42.37)"/><path class="cls-8" d="M49.95,111.21H36.61a4.35,4.35,0,0,0-4.34,4.34v16a4.35,4.35,0,0,0,4.34,4.34H49.95Z"/><path class="cls-9" d="M49.13,112.1H37A4,4,0,0,0,33.09,116v15.15A4,4,0,0,0,37,135.13h12.1Z"/><rect class="cls-10" x="38.9" y="123.17" width="1.15" height="6.43" rx="0.58" ry="0.58" transform="translate(-74.87 59.62) rotate(-42.37)"/><rect class="cls-10" x="42.19" y="122.74" width="1.15" height="6.43" rx="0.58" ry="0.58" transform="translate(-73.71 61.72) rotate(-42.37)"/><path class="cls-8" d="M51.38,111H64.71a4.35,4.35,0,0,1,4.34,4.34v16a4.35,4.35,0,0,1-4.34,4.34H51.38Z"/><path class="cls-9" d="M52.2,111.86H64.3a4,4,0,0,1,3.94,3.94v15.15a4,4,0,0,1-3.94,3.94H52.2Z"/><rect class="cls-10" x="56.92" y="123.41" width="1.15" height="6.43" rx="0.58" ry="0.58" transform="translate(-70.32 71.83) rotate(-42.37)"/><rect class="cls-10" x="60.21" y="122.98" width="1.15" height="6.43" rx="0.58" ry="0.58" transform="translate(-69.17 73.93) rotate(-42.37)"/><path class="cls-8" d="M95.37,80.81H82a4.35,4.35,0,0,0-4.34,4.34v16A4.35,4.35,0,0,0,82,105.5H95.37Z"/><path class="cls-9" d="M94.55,81.7H82.45a4,4,0,0,0-3.94,3.94v15.15a4,4,0,0,0,3.94,3.94h12.1Z"/><rect class="cls-10" x="84.32" y="92.77" width="1.15" height="6.43" rx="0.58" ry="0.58" transform="translate(-42.51 82.29) rotate(-42.37)"/><rect class="cls-10" x="87.61" y="92.33" width="1.15" height="6.43" rx="0.58" ry="0.58" transform="translate(-41.36 84.39) rotate(-42.37)"/><path class="cls-8" d="M96.8,80.57h13.33a4.35,4.35,0,0,1,4.34,4.34v16a4.35,4.35,0,0,1-4.34,4.34H96.8Z"/><path class="cls-9" d="M97.62,81.46h12.1a4,4,0,0,1,3.94,3.94v15.15a4,4,0,0,1-3.94,3.94H97.62Z"/><rect class="cls-10" x="102.35" y="93.01" width="1.15" height="6.43" rx="0.58" ry="0.58" transform="translate(-37.97 94.5) rotate(-42.37)"/><rect class="cls-10" x="105.63" y="92.57" width="1.15" height="6.43" rx="0.58" ry="0.58" transform="translate(-36.81 96.6) rotate(-42.37)"/><path class="cls-8" d="M95.37,111.21H82a4.35,4.35,0,0,0-4.34,4.34v16A4.35,4.35,0,0,0,82,135.91H95.37Z"/><path class="cls-9" d="M94.55,112.1H82.45A4,4,0,0,0,78.51,116v15.15a4,4,0,0,0,3.94,3.94h12.1Z"/><rect class="cls-10" x="84.32" y="123.17" width="1.15" height="6.43" rx="0.58" ry="0.58" transform="translate(-63 90.23) rotate(-42.37)"/><rect class="cls-10" x="87.61" y="122.74" width="1.15" height="6.43" rx="0.58" ry="0.58" transform="translate(-61.85 92.33) rotate(-42.37)"/><path class="cls-8" d="M96.8,111h13.33a4.35,4.35,0,0,1,4.34,4.34v16a4.35,4.35,0,0,1-4.34,4.34H96.8Z"/><path class="cls-9" d="M97.62,111.86h12.1a4,4,0,0,1,3.94,3.94v15.15a4,4,0,0,1-3.94,3.94H97.62Z"/><rect class="cls-10" x="102.35" y="123.41" width="1.15" height="6.43" rx="0.58" ry="0.58" transform="translate(-58.46 102.44) rotate(-42.37)"/><rect class="cls-10" x="105.63" y="122.98" width="1.15" height="6.43" rx="0.58" ry="0.58" transform="translate(-57.3 104.54) rotate(-42.37)"/><path class="cls-8" d="M142.11,80.81H128.78a4.35,4.35,0,0,0-4.34,4.34v16a4.35,4.35,0,0,0,4.34,4.34h13.33Z"/><path class="cls-9" d="M141.3,81.7H129.2a4,4,0,0,0-3.94,3.94v15.15a4,4,0,0,0,3.94,3.94h12.1Z"/><rect class="cls-10" x="131.07" y="92.77" width="1.15" height="6.43" rx="0.58" ry="0.58" transform="translate(-30.3 113.79) rotate(-42.37)"/><rect class="cls-10" x="134.35" y="92.33" width="1.15" height="6.43" rx="0.58" ry="0.58" transform="translate(-29.15 115.89) rotate(-42.37)"/><path class="cls-8" d="M143.55,80.57h13.33a4.35,4.35,0,0,1,4.34,4.34v16a4.35,4.35,0,0,1-4.34,4.34H143.55Z"/><path class="cls-9" d="M144.36,81.46h12.1a4,4,0,0,1,3.94,3.94v15.15a4,4,0,0,1-3.94,3.94h-12.1Z"/><rect class="cls-10" x="149.09" y="93.01" width="1.15" height="6.43" rx="0.58" ry="0.58" transform="translate(-25.76 126) rotate(-42.37)"/><rect class="cls-10" x="152.38" y="92.57" width="1.15" height="6.43" rx="0.58" ry="0.58" transform="translate(-24.6 128.1) rotate(-42.37)"/><path class="cls-8" d="M142.11,111.21H128.78a4.35,4.35,0,0,0-4.34,4.34v16a4.35,4.35,0,0,0,4.34,4.34h13.33Z"/><path class="cls-9" d="M141.3,112.1H129.2a4,4,0,0,0-3.94,3.94v15.15a4,4,0,0,0,3.94,3.94h12.1Z"/><rect class="cls-10" x="131.07" y="123.17" width="1.15" height="6.43" rx="0.58" ry="0.58" transform="translate(-50.79 121.73) rotate(-42.37)"/><rect class="cls-10" x="134.35" y="122.74" width="1.15" height="6.43" rx="0.58" ry="0.58" transform="translate(-49.64 123.83) rotate(-42.37)"/><path class="cls-8" d="M143.55,111h13.33a4.35,4.35,0,0,1,4.34,4.34v16a4.35,4.35,0,0,1-4.34,4.34H143.55Z"/><path class="cls-9" d="M144.36,111.86h12.1a4,4,0,0,1,3.94,3.94v15.15a4,4,0,0,1-3.94,3.94h-12.1Z"/><rect class="cls-10" x="149.09" y="123.41" width="1.15" height="6.43" rx="0.58" ry="0.58" transform="translate(-46.25 133.94) rotate(-42.37)"/><rect class="cls-10" x="152.38" y="122.98" width="1.15" height="6.43" rx="0.58" ry="0.58" transform="translate(-45.09 136.04) rotate(-42.37)"/><path class="cls-8" d="M186.94,80.81H173.6a4.35,4.35,0,0,0-4.34,4.34v16a4.35,4.35,0,0,0,4.34,4.34h13.33Z"/><path class="cls-9" d="M186.12,81.7H174a4,4,0,0,0-3.94,3.94v15.15a4,4,0,0,0,3.94,3.94h12.1Z"/><rect class="cls-10" x="175.89" y="92.77" width="1.15" height="6.43" rx="0.58" ry="0.58" transform="translate(-18.6 144) rotate(-42.37)"/><rect class="cls-10" x="179.18" y="92.33" width="1.15" height="6.43" rx="0.58" ry="0.58" transform="translate(-17.44 146.1) rotate(-42.37)"/><path class="cls-8" d="M188.37,80.57H201.7A4.35,4.35,0,0,1,206,84.91v16a4.35,4.35,0,0,1-4.34,4.34H188.37Z"/><path class="cls-9" d="M189.18,81.46h12.1a4,4,0,0,1,3.94,3.94v15.15a4,4,0,0,1-3.94,3.94h-12.1Z"/><rect class="cls-10" x="193.91" y="93.01" width="1.15" height="6.43" rx="0.58" ry="0.58" transform="translate(-14.05 156.21) rotate(-42.37)"/><rect class="cls-10" x="197.2" y="92.57" width="1.15" height="6.43" rx="0.58" ry="0.58" transform="translate(-12.89 158.31) rotate(-42.37)"/><path class="cls-8" d="M186.94,111.21H173.6a4.35,4.35,0,0,0-4.34,4.34v16a4.35,4.35,0,0,0,4.34,4.34h13.33Z"/><path class="cls-9" d="M186.12,112.1H174a4,4,0,0,0-3.94,3.94v15.15a4,4,0,0,0,3.94,3.94h12.1Z"/><rect class="cls-10" x="175.89" y="123.17" width="1.15" height="6.43" rx="0.58" ry="0.58" transform="translate(-39.09 151.94) rotate(-42.37)"/><rect class="cls-10" x="179.18" y="122.74" width="1.15" height="6.43" rx="0.58" ry="0.58" transform="translate(-37.93 154.04) rotate(-42.37)"/><path class="cls-8" d="M188.37,111H201.7a4.35,4.35,0,0,1,4.34,4.34v16a4.35,4.35,0,0,1-4.34,4.34H188.37Z"/><path class="cls-9" d="M189.18,111.86h12.1a4,4,0,0,1,3.94,3.94v15.15a4,4,0,0,1-3.94,3.94h-12.1Z"/><rect class="cls-10" x="193.91" y="123.41" width="1.15" height="6.43" rx="0.58" ry="0.58" transform="translate(-34.54 164.15) rotate(-42.37)"/><rect class="cls-10" x="197.2" y="122.98" width="1.15" height="6.43" rx="0.58" ry="0.58" transform="translate(-33.38 166.25) rotate(-42.37)"/><path class="cls-8" d="M53.43,164.21H40.1a4.35,4.35,0,0,0-4.34,4.34v16a4.35,4.35,0,0,0,4.34,4.34H53.43Z"/><path class="cls-9" d="M52.62,165.1H40.51A4,4,0,0,0,36.57,169v15.15a4,4,0,0,0,3.94,3.94h12.1Z"/><rect class="cls-10" x="42.38" y="176.17" width="1.15" height="6.43" rx="0.58" ry="0.58" transform="translate(-109.67 75.81) rotate(-42.37)"/><rect class="cls-10" x="45.67" y="175.73" width="1.15" height="6.43" rx="0.58" ry="0.58" transform="translate(-108.52 77.91) rotate(-42.37)"/><path class="cls-8" d="M54.87,164H68.2a4.35,4.35,0,0,1,4.34,4.34v16a4.35,4.35,0,0,1-4.34,4.34H54.87Z"/><path class="cls-9" d="M55.68,164.86h12.1a4,4,0,0,1,3.94,3.94v15.15a4,4,0,0,1-3.94,3.94H55.68Z"/><rect class="cls-10" x="60.41" y="176.41" width="1.15" height="6.43" rx="0.58" ry="0.58" transform="translate(-105.13 88.02) rotate(-42.37)"/><rect class="cls-10" x="63.7" y="175.97" width="1.15" height="6.43" rx="0.58" ry="0.58" transform="translate(-103.97 90.12) rotate(-42.37)"/><path class="cls-8" d="M54.15,196.29H40.82a4.35,4.35,0,0,0-4.34,4.34v16A4.35,4.35,0,0,0,40.82,221H54.15Z"/><path class="cls-9" d="M53.34,197.18H41.23a4,4,0,0,0-3.94,3.94v15.15a4,4,0,0,0,3.94,3.94h12.1Z"/><rect class="cls-10" x="43.1" y="208.25" width="1.15" height="6.43" rx="0.58" ry="0.58" transform="translate(-131.11 84.67) rotate(-42.37)"/><rect class="cls-10" x="46.39" y="207.82" width="1.15" height="6.43" rx="0.58" ry="0.58" transform="translate(-129.95 86.78) rotate(-42.37)"/><path class="cls-8" d="M55.59,196.05H68.92a4.35,4.35,0,0,1,4.34,4.34v16a4.35,4.35,0,0,1-4.34,4.34H55.59Z"/><path class="cls-9" d="M56.4,196.94h12.1a4,4,0,0,1,3.94,3.94V216A4,4,0,0,1,68.51,220H56.4Z"/><rect class="cls-10" x="61.13" y="208.49" width="1.15" height="6.43" rx="0.58" ry="0.58" transform="translate(-126.56 96.89) rotate(-42.37)"/><rect class="cls-10" x="64.42" y="208.06" width="1.15" height="6.43" rx="0.58" ry="0.58" transform="translate(-125.41 98.99) rotate(-42.37)"/><path class="cls-8" d="M187.66,164.93H174.32a4.35,4.35,0,0,0-4.34,4.34v16a4.35,4.35,0,0,0,4.34,4.34h13.33Z"/><path class="cls-9" d="M186.84,165.82h-12.1a4,4,0,0,0-3.94,3.94V184.9a4,4,0,0,0,3.94,3.94h12.1Z"/><rect class="cls-10" x="176.61" y="176.89" width="1.15" height="6.43" rx="0.58" ry="0.58" transform="translate(-75.1 166.45) rotate(-42.37)"/><rect class="cls-10" x="179.9" y="176.45" width="1.15" height="6.43" rx="0.58" ry="0.58" transform="translate(-73.94 168.56) rotate(-42.37)"/><path class="cls-8" d="M189.09,164.69h13.33a4.35,4.35,0,0,1,4.34,4.34v16a4.35,4.35,0,0,1-4.34,4.34H189.09Z"/><path class="cls-9" d="M189.91,165.58H202a4,4,0,0,1,3.94,3.94v15.15A4,4,0,0,1,202,188.6h-12.1Z"/><rect class="cls-10" x="194.63" y="177.13" width="1.15" height="6.43" rx="0.58" ry="0.58" transform="translate(-70.55 178.66) rotate(-42.37)"/><rect class="cls-10" x="197.92" y="176.69" width="1.15" height="6.43" rx="0.58" ry="0.58" transform="translate(-69.4 180.77) rotate(-42.37)"/><path class="cls-8" d="M187.66,197.37H174.32a4.35,4.35,0,0,0-4.34,4.34v16a4.35,4.35,0,0,0,4.34,4.34h13.33Z"/><path class="cls-9" d="M186.84,198.26h-12.1a4,4,0,0,0-3.94,3.94v15.15a4,4,0,0,0,3.94,3.94h12.1Z"/><rect class="cls-10" x="176.61" y="209.34" width="1.15" height="6.43" rx="0.58" ry="0.58" transform="translate(-96.96 174.93) rotate(-42.37)"/><rect class="cls-10" x="179.9" y="208.9" width="1.15" height="6.43" rx="0.58" ry="0.58" transform="translate(-95.81 177.03) rotate(-42.37)"/><path class="cls-8" d="M189.09,197.13h13.33a4.35,4.35,0,0,1,4.34,4.34v16a4.35,4.35,0,0,1-4.34,4.34H189.09Z"/><path class="cls-9" d="M189.91,198H202a4,4,0,0,1,3.94,3.94v15.15A4,4,0,0,1,202,221h-12.1Z"/><rect class="cls-10" x="194.63" y="209.58" width="1.15" height="6.43" rx="0.58" ry="0.58" transform="translate(-92.42 187.14) rotate(-42.37)"/><rect class="cls-10" x="197.92" y="209.14" width="1.15" height="6.43" rx="0.58" ry="0.58" transform="translate(-91.26 189.24) rotate(-42.37)"/><path class="cls-11" d="M39.88,1.67S21.32,9.93,21.32,16.72V74.13l195.38-.83V16.8c0-6.26-16.61-15.13-16.61-15.13"/><rect class="cls-12" x="39.37" y="1.82" width="160.68" height="51.5"/><path class="cls-13" d="M39.85,53c.23-.23,160.76,0,160.76,0s13.69,14.64,16,19.3c2.09,4.3-6.59,4-6.59,4H27.64c-9,.39-5.84-4.53-5.84-4.53S34.2,58.53,39.85,53Z"/><rect class="cls-14" x="24.69" y="245.81" width="65.23" height="14.93"/><rect class="cls-15" x="28.24" y="245.03" width="58.71" height="9.21" rx="3.31" ry="3.31"/><rect class="cls-16" x="28.79" y="243.68" width="57.72" height="7.94" rx="3.05" ry="3.05"/><rect class="cls-15" x="32.07" y="238.29" width="3.88" height="6.96" rx="1.94" ry="1.94"/><rect class="cls-15" x="32.33" y="252.21" width="3.88" height="6.96" rx="1.94" ry="1.94"/><rect class="cls-15" x="80.22" y="252.21" width="3.88" height="6.96" rx="1.94" ry="1.94"/><rect class="cls-15" x="79.7" y="238.29" width="3.88" height="6.96" rx="1.94" ry="1.94"/><rect class="cls-15" x="28.01" y="229.98" width="57.72" height="10.86" rx="3.56" ry="3.56"/><rect class="cls-16" x="28.37" y="230.13" width="57.05" height="1.64" rx="0.82" ry="0.82"/><rect class="cls-14" x="151.8" y="245.81" width="65.23" height="14.93"/><rect class="cls-15" x="155.34" y="245.03" width="58.71" height="9.21" rx="3.31" ry="3.31"/><rect class="cls-16" x="155.89" y="243.68" width="57.72" height="7.94" rx="3.05" ry="3.05"/><rect class="cls-15" x="159.18" y="238.29" width="3.88" height="6.96" rx="1.94" ry="1.94"/><rect class="cls-15" x="159.44" y="252.21" width="3.88" height="6.96" rx="1.94" ry="1.94"/><rect class="cls-15" x="207.32" y="252.21" width="3.88" height="6.96" rx="1.94" ry="1.94"/><rect class="cls-15" x="206.81" y="238.29" width="3.88" height="6.96" rx="1.94" ry="1.94"/><rect class="cls-15" x="155.12" y="229.98" width="57.72" height="10.86" rx="3.56" ry="3.56"/><rect class="cls-16" x="155.47" y="230.13" width="57.05" height="1.64" rx="0.82" ry="0.82"/><rect class="cls-17" x="122.14" y="179.94" width="27.96" height="63.71"/><rect class="cls-17" x="91.7" y="179.94" width="27.96" height="63.71"/><rect class="cls-18" x="101.3" y="201.45" width="16.15" height="2.05" rx="0.89" ry="0.89" transform="translate(-114.43 148.88) rotate(-48.16)"/><rect class="cls-18" x="101.97" y="192.82" width="16.15" height="2.05" rx="0.89" ry="0.89" transform="translate(-107.78 146.51) rotate(-48.16)"/><rect class="cls-18" x="128.51" y="201.45" width="16.15" height="2.05" rx="0.89" ry="0.89" transform="translate(-105.37 169.15) rotate(-48.16)"/><rect class="cls-18" x="129.18" y="192.82" width="16.15" height="2.05" rx="0.89" ry="0.89" transform="translate(-98.72 166.78) rotate(-48.16)"/><rect class="cls-19" x="219.78" y="240.22" width="11.59" height="19.16" rx="5.78" ry="5.78"/><rect class="cls-20" x="219.78" y="237.77" width="11.36" height="10.47" rx="5.24" ry="5.24"/><rect class="cls-19" x="222.57" y="200.33" width="5.12" height="42.34" rx="2.56" ry="2.56" transform="translate(450.26 443) rotate(180)"/><ellipse class="cls-19" cx="224.68" cy="201.67" rx="8.24" ry="9.36"/><ellipse class="cls-21" cx="224.68" cy="198.55" rx="8.24" ry="9.36"/><ellipse class="cls-22" cx="224.68" cy="191.86" rx="8.24" ry="9.36"/><ellipse class="cls-23" cx="224.46" cy="190.97" rx="10.03" ry="6.68"/><ellipse class="cls-19" cx="224.46" cy="188.52" rx="10.03" ry="6.68"/><rect class="cls-19" x="11.08" y="240.22" width="11.59" height="19.16" rx="5.78" ry="5.78"/><rect class="cls-20" x="11.08" y="237.77" width="11.36" height="10.47" rx="5.24" ry="5.24"/><rect class="cls-19" x="13.87" y="200.33" width="5.12" height="42.34" rx="2.56" ry="2.56" transform="translate(32.86 443) rotate(180)"/><ellipse class="cls-19" cx="15.99" cy="201.67" rx="8.24" ry="9.36"/><ellipse class="cls-21" cx="15.99" cy="198.55" rx="8.24" ry="9.36"/><ellipse class="cls-22" cx="15.99" cy="191.86" rx="8.24" ry="9.36"/><ellipse class="cls-23" cx="15.76" cy="190.97" rx="10.03" ry="6.68"/><ellipse class="cls-19" cx="15.76" cy="188.52" rx="10.03" ry="6.68"/><path class="cls-5" d="M462,242.44h72.92V152H338.55v90.43h67.81v-5.65h55.52S462,242.86,462,242.44Z"/><rect class="cls-6" x="338.55" y="233.45" width="195.96" height="8.99"/><rect class="cls-6" x="461.16" y="233.27" width="73.94" height="9.17"/><path class="cls-5" d="M427.92,155.18H535.22V64.76H338.88v90.43h37v-5.65h51.91S427.92,155.6,427.92,155.18Z"/><rect class="cls-6" x="338.88" y="145.97" width="37.05" height="9.21"/><rect class="cls-7" x="337.93" y="144.83" width="197.49" height="10.36"/><path class="cls-8" d="M367.43,79.14H354.1a4.35,4.35,0,0,0-4.34,4.34v16a4.35,4.35,0,0,0,4.34,4.34h13.33Z"/><path class="cls-9" d="M366.62,80h-12.1A4,4,0,0,0,350.58,84V99.12a4,4,0,0,0,3.94,3.94h12.1Z"/><rect class="cls-10" x="356.39" y="91.11" width="1.15" height="6.43" rx="0.58" ry="0.58" transform="translate(29.67 265.2) rotate(-42.37)"/><rect class="cls-10" x="359.67" y="90.67" width="1.15" height="6.43" rx="0.58" ry="0.58" transform="translate(30.83 267.31) rotate(-42.37)"/><path class="cls-8" d="M368.87,78.9H382.2a4.35,4.35,0,0,1,4.34,4.34v16a4.35,4.35,0,0,1-4.34,4.34H368.87Z"/><path class="cls-9" d="M369.68,79.79h12.1a4,4,0,0,1,3.94,3.94V98.88a4,4,0,0,1-3.94,3.94h-12.1Z"/><rect class="cls-10" x="374.41" y="91.35" width="1.15" height="6.43" rx="0.58" ry="0.58" transform="translate(34.22 277.42) rotate(-42.37)"/><rect class="cls-10" x="377.7" y="90.91" width="1.15" height="6.43" rx="0.58" ry="0.58" transform="translate(35.37 279.52) rotate(-42.37)"/><path class="cls-8" d="M367.43,109.55H354.1a4.35,4.35,0,0,0-4.34,4.34v16a4.35,4.35,0,0,0,4.34,4.34h13.33Z"/><path class="cls-9" d="M366.62,110.44h-12.1a4,4,0,0,0-3.94,3.94v15.15a4,4,0,0,0,3.94,3.94h12.1Z"/><rect class="cls-10" x="356.39" y="121.51" width="1.15" height="6.43" rx="0.58" ry="0.58" transform="translate(9.18 273.15) rotate(-42.37)"/><rect class="cls-10" x="359.67" y="121.07" width="1.15" height="6.43" rx="0.58" ry="0.58" transform="translate(10.34 275.25) rotate(-42.37)"/><path class="cls-8" d="M368.87,109.31H382.2a4.35,4.35,0,0,1,4.34,4.34v16A4.35,4.35,0,0,1,382.2,134H368.87Z"/><path class="cls-9" d="M369.68,110.2h12.1a4,4,0,0,1,3.94,3.94v15.15a4,4,0,0,1-3.94,3.94h-12.1Z"/><rect class="cls-10" x="374.41" y="121.75" width="1.15" height="6.43" rx="0.58" ry="0.58" transform="translate(13.73 285.36) rotate(-42.37)"/><rect class="cls-10" x="377.7" y="121.31" width="1.15" height="6.43" rx="0.58" ry="0.58" transform="translate(14.88 287.46) rotate(-42.37)"/><path class="cls-8" d="M412.86,79.14H399.52a4.35,4.35,0,0,0-4.34,4.34v16a4.35,4.35,0,0,0,4.34,4.34h13.33Z"/><path class="cls-9" d="M412,80h-12.1A4,4,0,0,0,396,84V99.12a4,4,0,0,0,3.94,3.94H412Z"/><rect class="cls-10" x="401.81" y="91.11" width="1.15" height="6.43" rx="0.58" ry="0.58" transform="translate(41.54 295.82) rotate(-42.37)"/><rect class="cls-10" x="405.1" y="90.67" width="1.15" height="6.43" rx="0.58" ry="0.58" transform="translate(42.69 297.92) rotate(-42.37)"/><path class="cls-8" d="M414.29,78.9h13.33A4.35,4.35,0,0,1,432,83.24v16a4.35,4.35,0,0,1-4.34,4.34H414.29Z"/><path class="cls-9" d="M415.11,79.79h12.1a4,4,0,0,1,3.94,3.94V98.88a4,4,0,0,1-3.94,3.94h-12.1Z"/><rect class="cls-10" x="419.83" y="91.35" width="1.15" height="6.43" rx="0.58" ry="0.58" transform="translate(46.08 308.03) rotate(-42.37)"/><rect class="cls-10" x="423.12" y="90.91" width="1.15" height="6.43" rx="0.58" ry="0.58" transform="translate(47.24 310.13) rotate(-42.37)"/><path class="cls-8" d="M412.86,109.55H399.52a4.35,4.35,0,0,0-4.34,4.34v16a4.35,4.35,0,0,0,4.34,4.34h13.33Z"/><path class="cls-9" d="M412,110.44h-12.1a4,4,0,0,0-3.94,3.94v15.15a4,4,0,0,0,3.94,3.94H412Z"/><rect class="cls-10" x="401.81" y="121.51" width="1.15" height="6.43" rx="0.58" ry="0.58" transform="translate(21.05 303.76) rotate(-42.37)"/><rect class="cls-10" x="405.1" y="121.07" width="1.15" height="6.43" rx="0.58" ry="0.58" transform="translate(22.2 305.86) rotate(-42.37)"/><path class="cls-8" d="M414.29,109.31h13.33a4.35,4.35,0,0,1,4.34,4.34v16a4.35,4.35,0,0,1-4.34,4.34H414.29Z"/><path class="cls-9" d="M415.11,110.2h12.1a4,4,0,0,1,3.94,3.94v15.15a4,4,0,0,1-3.94,3.94h-12.1Z"/><rect class="cls-10" x="419.83" y="121.75" width="1.15" height="6.43" rx="0.58" ry="0.58" transform="translate(25.59 315.97) rotate(-42.37)"/><rect class="cls-10" x="423.12" y="121.31" width="1.15" height="6.43" rx="0.58" ry="0.58" transform="translate(26.75 318.07) rotate(-42.37)"/><path class="cls-8" d="M459.6,79.14H446.27a4.35,4.35,0,0,0-4.34,4.34v16a4.35,4.35,0,0,0,4.34,4.34H459.6Z"/><path class="cls-9" d="M458.79,80h-12.1A4,4,0,0,0,442.74,84V99.12a4,4,0,0,0,3.94,3.94h12.1Z"/><rect class="cls-10" x="448.55" y="91.11" width="1.15" height="6.43" rx="0.58" ry="0.58" transform="translate(53.75 327.32) rotate(-42.37)"/><rect class="cls-10" x="451.84" y="90.67" width="1.15" height="6.43" rx="0.58" ry="0.58" transform="translate(54.9 329.42) rotate(-42.37)"/><path class="cls-8" d="M461,78.9h13.33a4.35,4.35,0,0,1,4.34,4.34v16a4.35,4.35,0,0,1-4.34,4.34H461Z"/><path class="cls-9" d="M461.85,79.79H474a4,4,0,0,1,3.94,3.94V98.88a4,4,0,0,1-3.94,3.94h-12.1Z"/><rect class="cls-10" x="466.58" y="91.35" width="1.15" height="6.43" rx="0.58" ry="0.58" transform="translate(58.29 339.53) rotate(-42.37)"/><rect class="cls-10" x="469.87" y="90.91" width="1.15" height="6.43" rx="0.58" ry="0.58" transform="translate(59.45 341.63) rotate(-42.37)"/><path class="cls-8" d="M459.6,109.55H446.27a4.35,4.35,0,0,0-4.34,4.34v16a4.35,4.35,0,0,0,4.34,4.34H459.6Z"/><path class="cls-9" d="M458.79,110.44h-12.1a4,4,0,0,0-3.94,3.94v15.15a4,4,0,0,0,3.94,3.94h12.1Z"/><rect class="cls-10" x="448.55" y="121.51" width="1.15" height="6.43" rx="0.58" ry="0.58" transform="translate(33.26 335.26) rotate(-42.37)"/><rect class="cls-10" x="451.84" y="121.07" width="1.15" height="6.43" rx="0.58" ry="0.58" transform="translate(34.41 337.36) rotate(-42.37)"/><path class="cls-8" d="M461,109.31h13.33a4.35,4.35,0,0,1,4.34,4.34v16a4.35,4.35,0,0,1-4.34,4.34H461Z"/><path class="cls-9" d="M461.85,110.2H474a4,4,0,0,1,3.94,3.94v15.15a4,4,0,0,1-3.94,3.94h-12.1Z"/><rect class="cls-10" x="466.58" y="121.75" width="1.15" height="6.43" rx="0.58" ry="0.58" transform="translate(37.8 347.47) rotate(-42.37)"/><rect class="cls-10" x="469.87" y="121.31" width="1.15" height="6.43" rx="0.58" ry="0.58" transform="translate(38.96 349.57) rotate(-42.37)"/><path class="cls-8" d="M504.42,79.14H491.09a4.35,4.35,0,0,0-4.34,4.34v16a4.35,4.35,0,0,0,4.34,4.34h13.33Z"/><path class="cls-9" d="M503.61,80H491.5A4,4,0,0,0,487.57,84V99.12a4,4,0,0,0,3.94,3.94h12.1Z"/><rect class="cls-10" x="493.37" y="91.11" width="1.15" height="6.43" rx="0.58" ry="0.58" transform="translate(65.46 357.53) rotate(-42.37)"/><rect class="cls-10" x="496.66" y="90.67" width="1.15" height="6.43" rx="0.58" ry="0.58" transform="translate(66.61 359.63) rotate(-42.37)"/><path class="cls-8" d="M505.86,78.9h13.33a4.35,4.35,0,0,1,4.34,4.34v16a4.35,4.35,0,0,1-4.34,4.34H505.86Z"/><path class="cls-9" d="M506.67,79.79h12.1a4,4,0,0,1,3.94,3.94V98.88a4,4,0,0,1-3.94,3.94h-12.1Z"/><rect class="cls-10" x="511.4" y="91.35" width="1.15" height="6.43" rx="0.58" ry="0.58" transform="translate(70 369.74) rotate(-42.37)"/><rect class="cls-10" x="514.69" y="90.91" width="1.15" height="6.43" rx="0.58" ry="0.58" transform="translate(71.16 371.84) rotate(-42.37)"/><path class="cls-8" d="M504.42,109.55H491.09a4.35,4.35,0,0,0-4.34,4.34v16a4.35,4.35,0,0,0,4.34,4.34h13.33Z"/><path class="cls-9" d="M503.61,110.44H491.5a4,4,0,0,0-3.94,3.94v15.15a4,4,0,0,0,3.94,3.94h12.1Z"/><rect class="cls-10" x="493.37" y="121.51" width="1.15" height="6.43" rx="0.58" ry="0.58" transform="translate(44.97 365.47) rotate(-42.37)"/><rect class="cls-10" x="496.66" y="121.07" width="1.15" height="6.43" rx="0.58" ry="0.58" transform="translate(46.12 367.57) rotate(-42.37)"/><path class="cls-8" d="M505.86,109.31h13.33a4.35,4.35,0,0,1,4.34,4.34v16a4.35,4.35,0,0,1-4.34,4.34H505.86Z"/><path class="cls-9" d="M506.67,110.2h12.1a4,4,0,0,1,3.94,3.94v15.15a4,4,0,0,1-3.94,3.94h-12.1Z"/><rect class="cls-10" x="511.4" y="121.75" width="1.15" height="6.43" rx="0.58" ry="0.58" transform="translate(49.51 377.68) rotate(-42.37)"/><rect class="cls-10" x="514.69" y="121.31" width="1.15" height="6.43" rx="0.58" ry="0.58" transform="translate(50.67 379.78) rotate(-42.37)"/><path class="cls-8" d="M370.92,162.54H357.59a4.35,4.35,0,0,0-4.34,4.34v16a4.35,4.35,0,0,0,4.34,4.34h13.33Z"/><path class="cls-9" d="M370.1,163.43H358a4,4,0,0,0-3.94,3.94v15.15a4,4,0,0,0,3.94,3.94h12.1Z"/><rect class="cls-10" x="359.87" y="174.5" width="1.15" height="6.43" rx="0.58" ry="0.58" transform="translate(-25.62 289.34) rotate(-42.37)"/><rect class="cls-10" x="363.16" y="174.07" width="1.15" height="6.43" rx="0.58" ry="0.58" transform="translate(-24.47 291.44) rotate(-42.37)"/><path class="cls-8" d="M372.35,162.3h13.33a4.35,4.35,0,0,1,4.34,4.34v16a4.35,4.35,0,0,1-4.34,4.34H372.35Z"/><path class="cls-9" d="M373.17,163.19h12.1a4,4,0,0,1,3.94,3.94v15.15a4,4,0,0,1-3.94,3.94h-12.1Z"/><rect class="cls-10" x="377.9" y="174.74" width="1.15" height="6.43" rx="0.58" ry="0.58" transform="translate(-21.08 301.55) rotate(-42.37)"/><rect class="cls-10" x="381.18" y="174.31" width="1.15" height="6.43" rx="0.58" ry="0.58" transform="translate(-19.92 303.65) rotate(-42.37)"/><path class="cls-8" d="M371.64,194.63H358.31A4.35,4.35,0,0,0,354,199v16a4.35,4.35,0,0,0,4.34,4.34h13.33Z"/><path class="cls-9" d="M370.83,195.52h-12.1a4,4,0,0,0-3.94,3.94V214.6a4,4,0,0,0,3.94,3.94h12.1Z"/><rect class="cls-10" x="360.59" y="206.59" width="1.15" height="6.43" rx="0.58" ry="0.58" transform="translate(-47.06 298.2) rotate(-42.37)"/><rect class="cls-10" x="363.88" y="206.15" width="1.15" height="6.43" rx="0.58" ry="0.58" transform="translate(-45.9 300.31) rotate(-42.37)"/><path class="cls-8" d="M373.07,194.39h13.33a4.35,4.35,0,0,1,4.34,4.34v16a4.35,4.35,0,0,1-4.34,4.34H373.07Z"/><path class="cls-9" d="M373.89,195.28H386a4,4,0,0,1,3.94,3.94v15.15A4,4,0,0,1,386,218.3h-12.1Z"/><rect class="cls-10" x="378.62" y="206.83" width="1.15" height="6.43" rx="0.58" ry="0.58" transform="translate(-42.51 310.42) rotate(-42.37)"/><rect class="cls-10" x="381.91" y="206.39" width="1.15" height="6.43" rx="0.58" ry="0.58" transform="translate(-41.36 312.52) rotate(-42.37)"/><path class="cls-8" d="M505.14,163.26H491.81a4.35,4.35,0,0,0-4.34,4.34v16a4.35,4.35,0,0,0,4.34,4.34h13.33Z"/><path class="cls-9" d="M504.33,164.15h-12.1a4,4,0,0,0-3.94,3.94v15.15a4,4,0,0,0,3.94,3.94h12.1Z"/><rect class="cls-10" x="494.1" y="175.22" width="1.15" height="6.43" rx="0.58" ry="0.58" transform="translate(8.95 379.98) rotate(-42.37)"/><rect class="cls-10" x="497.38" y="174.79" width="1.15" height="6.43" rx="0.58" ry="0.58" transform="translate(10.11 382.09) rotate(-42.37)"/><path class="cls-8" d="M506.58,163h13.33a4.35,4.35,0,0,1,4.34,4.34v16a4.35,4.35,0,0,1-4.34,4.34H506.58Z"/><path class="cls-9" d="M507.39,163.91h12.1a4,4,0,0,1,3.94,3.94V183a4,4,0,0,1-3.94,3.94h-12.1Z"/><rect class="cls-10" x="512.12" y="175.47" width="1.15" height="6.43" rx="0.58" ry="0.58" transform="translate(13.5 392.19) rotate(-42.37)"/><rect class="cls-10" x="515.41" y="175.03" width="1.15" height="6.43" rx="0.58" ry="0.58" transform="translate(14.65 394.3) rotate(-42.37)"/><path class="cls-8" d="M505.14,195.71H491.81a4.35,4.35,0,0,0-4.34,4.34v16a4.35,4.35,0,0,0,4.34,4.34h13.33Z"/><path class="cls-9" d="M504.33,196.6h-12.1a4,4,0,0,0-3.94,3.94v15.15a4,4,0,0,0,3.94,3.94h12.1Z"/><rect class="cls-10" x="494.1" y="207.67" width="1.15" height="6.43" rx="0.58" ry="0.58" transform="translate(-12.91 388.46) rotate(-42.37)"/><rect class="cls-10" x="497.38" y="207.23" width="1.15" height="6.43" rx="0.58" ry="0.58" transform="translate(-11.76 390.56) rotate(-42.37)"/><path class="cls-8" d="M506.58,195.47h13.33a4.35,4.35,0,0,1,4.34,4.34v16a4.35,4.35,0,0,1-4.34,4.34H506.58Z"/><path class="cls-9" d="M507.39,196.36h12.1a4,4,0,0,1,3.94,3.94v15.15a4,4,0,0,1-3.94,3.94h-12.1Z"/><rect class="cls-10" x="512.12" y="207.91" width="1.15" height="6.43" rx="0.58" ry="0.58" transform="translate(-8.37 400.67) rotate(-42.37)"/><rect class="cls-10" x="515.41" y="207.47" width="1.15" height="6.43" rx="0.58" ry="0.58" transform="translate(-7.21 402.77) rotate(-42.37)"/><path class="cls-11" d="M357.37,0s-17.17,7.44-17.17,14.22V71.63h194V15.13C534.19,8.87,517.58,0,517.58,0"/><rect class="cls-12" x="356.85" y="0.15" width="160.68" height="51.5"/><path class="cls-13" d="M357.34,51.29c.23-.23,160.76,0,160.76,0s13.69,14.64,16,19.3c2.09,4.3-6.59,4-6.59,4H346.79c-9,.39-5.84-4.53-5.84-4.53S351.69,56.86,357.34,51.29Z"/><rect class="cls-14" x="342.18" y="244.15" width="65.23" height="14.93"/><rect class="cls-15" x="345.73" y="243.36" width="58.71" height="9.21" rx="3.31" ry="3.31"/><rect class="cls-16" x="346.28" y="242.01" width="57.72" height="7.94" rx="3.05" ry="3.05"/><rect class="cls-15" x="349.56" y="236.63" width="3.88" height="6.96" rx="1.94" ry="1.94"/><rect class="cls-15" x="349.82" y="250.55" width="3.88" height="6.96" rx="1.94" ry="1.94"/><rect class="cls-15" x="397.71" y="250.55" width="3.88" height="6.96" rx="1.94" ry="1.94"/><rect class="cls-15" x="397.19" y="236.63" width="3.88" height="6.96" rx="1.94" ry="1.94"/><rect class="cls-15" x="345.5" y="228.32" width="57.72" height="10.86" rx="3.56" ry="3.56"/><rect class="cls-16" x="345.86" y="228.47" width="57.05" height="1.64" rx="0.82" ry="0.82"/><rect class="cls-14" x="469.28" y="244.15" width="65.23" height="14.93"/><rect class="cls-15" x="472.83" y="243.36" width="58.71" height="9.21" rx="3.31" ry="3.31"/><rect class="cls-16" x="473.38" y="242.01" width="57.72" height="7.94" rx="3.05" ry="3.05"/><rect class="cls-15" x="476.67" y="236.63" width="3.88" height="6.96" rx="1.94" ry="1.94"/><rect class="cls-15" x="476.93" y="250.55" width="3.88" height="6.96" rx="1.94" ry="1.94"/><rect class="cls-15" x="524.81" y="250.55" width="3.88" height="6.96" rx="1.94" ry="1.94"/><rect class="cls-15" x="524.29" y="236.63" width="3.88" height="6.96" rx="1.94" ry="1.94"/><rect class="cls-15" x="472.61" y="228.32" width="57.72" height="10.86" rx="3.56" ry="3.56"/><rect class="cls-16" x="472.96" y="228.47" width="57.05" height="1.64" rx="0.82" ry="0.82"/><rect class="cls-17" x="439.63" y="178.28" width="27.96" height="63.71"/><rect class="cls-17" x="409.19" y="178.28" width="27.96" height="63.71"/><rect class="cls-18" x="418.79" y="199.78" width="16.15" height="2.05" rx="0.89" ry="0.89" transform="translate(-7.5 384.84) rotate(-48.16)"/><rect class="cls-18" x="419.46" y="191.16" width="16.15" height="2.05" rx="0.89" ry="0.89" transform="translate(-0.85 382.47) rotate(-48.16)"/><rect class="cls-18" x="446" y="199.78" width="16.15" height="2.05" rx="0.89" ry="0.89" transform="translate(1.56 405.11) rotate(-48.16)"/><rect class="cls-18" x="446.66" y="191.16" width="16.15" height="2.05" rx="0.89" ry="0.89" transform="translate(8.21 402.73) rotate(-48.16)"/><rect class="cls-19" x="537.27" y="238.55" width="11.59" height="19.16" rx="5.78" ry="5.78"/><rect class="cls-20" x="537.27" y="236.1" width="11.36" height="10.47" rx="5.24" ry="5.24"/><rect class="cls-19" x="540.06" y="198.67" width="5.12" height="42.34" rx="2.56" ry="2.56" transform="translate(1085.23 439.67) rotate(-180)"/><ellipse class="cls-19" cx="542.17" cy="200" rx="8.24" ry="9.36"/><ellipse class="cls-21" cx="542.17" cy="196.88" rx="8.24" ry="9.36"/><ellipse class="cls-22" cx="542.17" cy="190.2" rx="8.24" ry="9.36"/><ellipse class="cls-23" cx="541.95" cy="189.31" rx="10.03" ry="6.68"/><ellipse class="cls-19" cx="541.95" cy="186.86" rx="10.03" ry="6.68"/><rect class="cls-19" x="328.57" y="238.55" width="11.59" height="19.16" rx="5.78" ry="5.78"/><rect class="cls-20" x="328.57" y="236.1" width="11.36" height="10.47" rx="5.24" ry="5.24"/><rect class="cls-19" x="331.36" y="198.67" width="5.12" height="42.34" rx="2.56" ry="2.56" transform="translate(667.84 439.67) rotate(-180)"/><ellipse class="cls-19" cx="333.47" cy="200" rx="8.24" ry="9.36"/><ellipse class="cls-21" cx="333.47" cy="196.88" rx="8.24" ry="9.36"/><ellipse class="cls-22" cx="333.47" cy="190.2" rx="8.24" ry="9.36"/><ellipse class="cls-23" cx="333.25" cy="189.31" rx="10.03" ry="6.68"/><ellipse class="cls-19" cx="333.25" cy="186.86" rx="10.03" ry="6.68"/><path class="cls-24" d="M278.91,397.92H261V218.8a3.39,3.39,0,0,1,3.44-3.33h11a3.39,3.39,0,0,1,3.44,3.33V397.92Z"/><path class="cls-24" d="M436.82,397.92H418.94V218.8a3.39,3.39,0,0,1,3.44-3.33h11a3.39,3.39,0,0,1,3.44,3.33V397.92Z"/><rect class="cls-24" x="418.94" y="341.3" width="17.88" height="12.71"/><rect class="cls-24" x="261.02" y="341.3" width="17.88" height="12.71"/><path class="cls-25" d="M275.47,215.47H264.66a3.39,3.39,0,0,1,3.44,3.33V397.92h10.81V218.8A3.39,3.39,0,0,0,275.47,215.47Z"/><rect class="cls-25" x="268.1" y="341.3" width="10.81" height="12.71"/><path class="cls-26" d="M287.13,397.92H252.79a2.8,2.8,0,0,0-2.8,2.8v7.41a2.8,2.8,0,0,0,2.8,2.8h34.34a2.8,2.8,0,0,0,2.8-2.8v-7.41A2.8,2.8,0,0,0,287.13,397.92Z"/><path class="cls-27" d="M278.91,397.92v13h8.23a2.8,2.8,0,0,0,2.8-2.8v-7.41a2.8,2.8,0,0,0-2.8-2.8Z"/><path class="cls-25" d="M433.39,215.47h-11a3.38,3.38,0,0,1,3.43,3.33V397.92h11V218.8A3.38,3.38,0,0,0,433.39,215.47Z"/><rect class="cls-25" x="425.8" y="341.3" width="11.03" height="12.71"/><path class="cls-26" d="M445.05,397.92H410.71a2.8,2.8,0,0,0-2.8,2.8v7.41a2.8,2.8,0,0,0,2.8,2.8h34.34a2.8,2.8,0,0,0,2.8-2.8v-7.41A2.8,2.8,0,0,0,445.05,397.92Z"/><path class="cls-28" d="M447.8,341.3H250a4.78,4.78,0,0,1-4.78-4.78V231.19a4.78,4.78,0,0,1,4.78-4.78H447.8a4.78,4.78,0,0,1,4.78,4.78V336.52A4.78,4.78,0,0,1,447.8,341.3Z"/><path class="cls-29" d="M245.26,243.7l6-17.29H250a4.78,4.78,0,0,0-4.78,4.78Z"/><path class="cls-27" d="M436.82,397.92v13h8.23a2.8,2.8,0,0,0,2.8-2.8v-7.41a2.8,2.8,0,0,0-2.8-2.8Z"/><path class="cls-30" d="M447.8,341.3H435.37a4.78,4.78,0,0,0,4.78-4.78V247.18a8.33,8.33,0,0,0-8.33-8.33H245.26v-7.65a4.78,4.78,0,0,1,4.78-4.78H447.8a4.78,4.78,0,0,1,4.2,2.5,4.71,4.71,0,0,1,.36.86c0,.15.09.3.12.46a4.78,4.78,0,0,1,.1,1h0V336.52A4.78,4.78,0,0,1,447.8,341.3Z"/><path class="cls-31" d="M245.26,336.52a4.78,4.78,0,0,0,2.5,4.2,4.78,4.78,0,0,1-2.5-4.2V310h0Z"/><path class="cls-31" d="M452.58,231.19v7.65h0v-7.65a4.78,4.78,0,0,0-4.78-4.78h0A4.78,4.78,0,0,1,452.58,231.19Z"/><path class="cls-31" d="M250,341.3a4.76,4.76,0,0,1-2.28-.58,4.76,4.76,0,0,0,2.28.58h12.44a4.75,4.75,0,0,1-2.76-.88l-.3.88Z"/><ellipse class="cls-25" cx="269.2" cy="215.19" rx="11.1" ry="6.94"/><ellipse class="cls-24" cx="264.76" cy="215.75" rx="7.19" ry="7.49"/><ellipse class="cls-25" cx="427.39" cy="215.75" rx="11.1" ry="6.94"/><ellipse class="cls-24" cx="422.95" cy="216.3" rx="7.19" ry="7.49"/><path class="cls-32" d="M273.4,266.37a7.55,7.55,0,0,1,1.34.66,5.25,5.25,0,0,1,1.28,1.13,6.25,6.25,0,0,1,1,1.73,7.9,7.9,0,0,1,.49,2.43,8.32,8.32,0,0,1-.2,2.53,7.43,7.43,0,0,1-.77,1.94,6.54,6.54,0,0,1-1.13,1.44,9,9,0,0,1-1.25,1,7.59,7.59,0,0,1-1.26.7,11.38,11.38,0,0,1-1.12.42,7.24,7.24,0,0,1-.8.2l-.34.06-5.14.66.24,4.05,2-.25.13,2.17-6.23.8-.13-2.17,2.1-.27-1-16.55-2,.26-.13-2.17,2-.26,4.21-.54,3.1-.4.34,0a6.9,6.9,0,0,1,.82,0,10.2,10.2,0,0,1,1.15.12A6.55,6.55,0,0,1,273.4,266.37Zm-.24,11a5,5,0,0,0,2.18-4.77q-.19-3.2-2.71-4.14a4.94,4.94,0,0,0-1-.27,6.1,6.1,0,0,0-.89-.09,7.35,7.35,0,0,0-.86,0l-3.1.4-2,.26.61,10.33,5.14-.66a4.75,4.75,0,0,0,.85-.2,5.67,5.67,0,0,0,.87-.33A6.65,6.65,0,0,0,273.15,277.36Z"/><path class="cls-32" d="M295.52,270a8.48,8.48,0,0,1-.19,2.54,7.39,7.39,0,0,1-.77,2,6.48,6.48,0,0,1-1.13,1.44,8.88,8.88,0,0,1-1.24,1,7,7,0,0,1-1.25.68q-.61.25-1.12.4a8.43,8.43,0,0,0,.28.81,6.13,6.13,0,0,0,.42.85q1.36,2.33,4.6,1.91l.77-.1.13,2.17-.77.1a8,8,0,0,1-2.5,0,6.23,6.23,0,0,1-1.88-.65,5.64,5.64,0,0,1-1.36-1,6.11,6.11,0,0,1-.91-1.2,7.09,7.09,0,0,1-.6-1.27,7,7,0,0,1-.31-1.14l-4.17.54.24,4.08,1.93-.25.13,2.17-6.22.8-.13-2.17,2.13-.28-1-16.61-2.07.27-.13-2.17,2.07-.27,4.17-.54,3.12-.4.36,0a6.52,6.52,0,0,1,.83,0c.34,0,.72,0,1.15.11a5.85,5.85,0,0,1,1.32.35,7.53,7.53,0,0,1,1.34.66,5.24,5.24,0,0,1,1.28,1.13,6.21,6.21,0,0,1,1,1.73A8,8,0,0,1,295.52,270Zm-7,6.14a4.65,4.65,0,0,0,.85-.2,6.81,6.81,0,0,0,.87-.31,5.73,5.73,0,0,0,.94-.53,5,5,0,0,0,2.18-4.81q-.19-3.21-2.71-4.18a4.87,4.87,0,0,0-1-.28,6,6,0,0,0-.89-.09,4.7,4.7,0,0,0-.86,0l-3.13.4-2,.26.61,10.36Z"/><path class="cls-32" d="M305,282.45l-4.21.54-2,.26-.13-2.17,2-.26-1-16.58-2,.26-.13-2.17,2-.26,4.21-.54,10.4-1.34.48,8.13-2.16.28-.35-6-8.24,1.06-2,.26.42,7.22,4.06-.53-.12-2.05,2.16-.28.37,6.25-2.16.28-.12-2-4.06.53.42,7.19,2-.26,8.24-1.06-.3-5.17,2.16-.28.43,7.34Z"/><path class="cls-32" d="M330.61,258l6.23-.8.13,2.17-2.3.3-3.86,17.23,1.68-.22.13,2.17-9.35,1.21-.13-2.17,1.68-.22-5.81-16-2.3.3-.13-2.17,6.22-.8.13,2.17-1.68.22,5.81,16,1.51-.19L332.42,260l-1.68.22Z"/><path class="cls-32" d="M346.71,277.06l-4.21.54-2,.26-.13-2.17,2-.26-1-16.58-2,.26-.13-2.17,2-.26,4.21-.54,10.4-1.34.48,8.13-2.16.28-.35-6-8.24,1.06-2,.26.42,7.22,4.06-.53-.12-2.05,2.16-.28.37,6.25-2.16.28-.12-2-4.06.53.42,7.19,2-.26,8.24-1.06-.3-5.17,2.16-.28.43,7.34Z"/><path class="cls-32" d="M370.86,252.86l6.22-.8.13,2.17-2.13.28,1,16.55,2-.26.13,2.17-6.22.8-.13-2.17,1.08-.14-10.15-12.84.82,14,2-.26.13,2.17-6.23.8-.13-2.17,2-.26-1-16.55-2,.26-.13-2.17,6.22-.8.13,2.17-1.08.14,10.15,12.87-.83-14.07L371,255Z"/><path class="cls-32" d="M386.7,271.89a8,8,0,0,1-2.51,0,6.25,6.25,0,0,1-1.89-.65,5.45,5.45,0,0,1-1.35-1,7,7,0,0,1-.9-1.18,6,6,0,0,1-.59-1.23q-.21-.62-.32-1.11a6.62,6.62,0,0,1-.15-.82c0-.22,0-.34,0-.35l-.37-6.25s0-.13,0-.34a7.08,7.08,0,0,1,.05-.83q.06-.51.19-1.17a6.84,6.84,0,0,1,.43-1.36,9.05,9.05,0,0,1,.75-1.41,6.43,6.43,0,0,1,1.21-1.38,7.35,7.35,0,0,1,1.78-1.12,8.53,8.53,0,0,1,2.47-.66,7.22,7.22,0,0,1,3.12.17,6.76,6.76,0,0,1,2.14,1.1l-.1-1.63,2.16-.28.41,7-2.16.28a7.49,7.49,0,0,0-.16-.84,5.63,5.63,0,0,0-.25-.85,5,5,0,0,0-.45-.9q-1.4-2.32-4.58-1.91a5,5,0,0,0-4.32,3.06,5.82,5.82,0,0,0-.34,1,6.28,6.28,0,0,0-.15.9,4.78,4.78,0,0,0,0,.87l.37,6.25a4.57,4.57,0,0,0,.13.85,6.12,6.12,0,0,0,.25.86,4.89,4.89,0,0,0,.46.92q1.42,2.29,4.61,1.88a5,5,0,0,0,4.29-3,5.62,5.62,0,0,0,.34-1,6.66,6.66,0,0,0,.15-.91,7.86,7.86,0,0,0,.06-.87l2.16-.28s0,.14,0,.36a7.16,7.16,0,0,1-.05.84,11.36,11.36,0,0,1-.2,1.18,7.64,7.64,0,0,1-.45,1.37,8.42,8.42,0,0,1-.75,1.39,6.62,6.62,0,0,1-1.21,1.36,7.36,7.36,0,0,1-1.78,1.12A8.39,8.39,0,0,1,386.7,271.89Z"/><path class="cls-32" d="M395.19,249.72l6.22-.8.13,2.17-2,.26,1,16.58,2-.26.13,2.17-6.22.8-.13-2.17,2-.26-1-16.58-2,.26Z"/><path class="cls-32" d="M403.8,248.57l14.64-1.89.43,7.34-2.16.28-.3-5.17-4.09.53,1,16.61,2-.26.13,2.17-6.22.8-.13-2.17,2-.26-1-16.61-4.06.52.3,5.17-2.16.28Z"/><path class="cls-32" d="M431.74,245l6.22-.8.13,2.17-2.36.31-3.24,10.66-1.28.16.38,6.42,2-.26.13,2.17-6.22.8-.13-2.17,2-.26-.38-6.42-1.17.15-4.55-9.65-2.36.31-.13-2.17,6.22-.8.13,2.17-1.53.2,3.57,7.59,1.62-.21,2.57-8.38-1.56.2Z"/><path class="cls-33" d="M273.32,263.83a7.48,7.48,0,0,1,1.33.66,5.2,5.2,0,0,1,1.27,1.12,6.2,6.2,0,0,1,1,1.71,7.83,7.83,0,0,1,.48,2.41,8.25,8.25,0,0,1-.19,2.51,7.37,7.37,0,0,1-.77,1.93,6.49,6.49,0,0,1-1.12,1.43,8.89,8.89,0,0,1-1.24,1,7.53,7.53,0,0,1-1.25.69,11.29,11.29,0,0,1-1.11.42,7.18,7.18,0,0,1-.8.2l-.34.06-5.1.66.24,4,1.95-.25.13,2.15-6.18.8-.13-2.15,2.09-.27-1-16.42-2,.26-.13-2.15,2-.26,4.17-.54,3.07-.4.34,0a6.84,6.84,0,0,1,.81,0,10.12,10.12,0,0,1,1.14.12A6.49,6.49,0,0,1,273.32,263.83Zm-.24,10.9a4.91,4.91,0,0,0,2.17-4.73q-.19-3.17-2.68-4.1a4.9,4.9,0,0,0-1-.27,6,6,0,0,0-.89-.09,7.29,7.29,0,0,0-.85,0l-3.07.4-2,.26.6,10.25,5.1-.66a4.71,4.71,0,0,0,.84-.19,5.63,5.63,0,0,0,.86-.32A6.59,6.59,0,0,0,273.08,274.73Z"/><path class="cls-33" d="M295.27,267.38a8.41,8.41,0,0,1-.19,2.52,7.33,7.33,0,0,1-.76,1.94,6.43,6.43,0,0,1-1.12,1.43,8.8,8.8,0,0,1-1.23,1,7,7,0,0,1-1.24.67q-.61.25-1.11.4a8.37,8.37,0,0,0,.27.81,6.08,6.08,0,0,0,.42.84q1.35,2.31,4.56,1.89l.76-.1.13,2.15-.76.1a7.91,7.91,0,0,1-2.48,0,6.18,6.18,0,0,1-1.87-.64,5.6,5.6,0,0,1-1.35-1,6.06,6.06,0,0,1-.91-1.2,7,7,0,0,1-.6-1.26,6.91,6.91,0,0,1-.31-1.13l-4.14.53.24,4,1.92-.25.13,2.15-6.17.8-.13-2.15,2.11-.27-1-16.48-2.06.27-.13-2.15,2.05-.27,4.14-.54,3.1-.4.35,0a6.46,6.46,0,0,1,.82,0c.33,0,.71,0,1.14.11a5.8,5.8,0,0,1,1.31.34,7.47,7.47,0,0,1,1.33.66,5.2,5.2,0,0,1,1.27,1.12,6.16,6.16,0,0,1,1,1.71A7.92,7.92,0,0,1,295.27,267.38Zm-6.94,6.09a4.61,4.61,0,0,0,.84-.2A6.76,6.76,0,0,0,290,273a5.68,5.68,0,0,0,.94-.52,5,5,0,0,0,2.16-4.77q-.19-3.18-2.69-4.14a4.83,4.83,0,0,0-1-.27,5.9,5.9,0,0,0-.89-.09,4.66,4.66,0,0,0-.85,0l-3.1.4-2,.26.6,10.28Z"/><path class="cls-33" d="M304.66,279.77l-4.17.54-2,.26-.13-2.15,2-.26-1-16.45-2,.26-.13-2.15,2-.26,4.17-.54,10.32-1.33.47,8.07-2.14.28-.35-5.92-8.18,1.06-2,.26.42,7.16,4-.52-.12-2,2.14-.28.36,6.2-2.14.28-.12-2-4,.52.42,7.13,2-.26,8.18-1.06-.3-5.12,2.14-.28.43,7.28Z"/><path class="cls-33" d="M330.08,255.55l6.18-.8.13,2.15-2.28.29-3.83,17.1,1.66-.21.13,2.15-9.28,1.2-.13-2.15,1.66-.21-5.76-15.86-2.28.29-.13-2.15,6.17-.8.13,2.15-1.66.21,5.76,15.86,1.49-.19,3.83-17.1-1.66.21Z"/><path class="cls-33" d="M346,274.43l-4.17.54-2,.26-.13-2.15,2-.26-1-16.45-2,.26-.13-2.15,2-.26,4.17-.54,10.32-1.33.47,8.07-2.14.28-.35-5.92L345,255.83l-2,.26.42,7.16,4-.52-.12-2,2.14-.28.36,6.2-2.14.28-.12-2-4,.52.42,7.13,2-.26,8.18-1.06-.3-5.12,2.14-.28.43,7.28Z"/><path class="cls-33" d="M370,250.42l6.17-.8.13,2.15-2.12.27,1,16.42,2-.26.13,2.15-6.18.8L371,269l1.07-.14L362,256.13l.82,13.93,2-.26L365,272l-6.18.8-.13-2.15,2-.26-1-16.42-2,.26-.13-2.15,6.18-.8.13,2.15-1.07.14,10.07,12.76-.82-14-1.92.25Z"/><path class="cls-33" d="M385.72,269.3a8,8,0,0,1-2.49,0,6.2,6.2,0,0,1-1.87-.64,5.41,5.41,0,0,1-1.34-1,6.94,6.94,0,0,1-.89-1.17,5.9,5.9,0,0,1-.58-1.22q-.21-.62-.32-1.1a6.57,6.57,0,0,1-.15-.81l0-.35-.36-6.2s0-.13,0-.34a7,7,0,0,1,.05-.82q.06-.5.19-1.16a6.79,6.79,0,0,1,.43-1.35,9,9,0,0,1,.74-1.39,6.38,6.38,0,0,1,1.2-1.37,7.29,7.29,0,0,1,1.77-1.11,8.46,8.46,0,0,1,2.45-.66,7.16,7.16,0,0,1,3.09.17,6.71,6.71,0,0,1,2.12,1.09l-.09-1.61,2.14-.28.41,7-2.14.28a7.43,7.43,0,0,0-.16-.83,5.59,5.59,0,0,0-.25-.84,5,5,0,0,0-.45-.9q-1.38-2.3-4.54-1.89a5,5,0,0,0-4.28,3,5.77,5.77,0,0,0-.34,1,6.23,6.23,0,0,0-.15.89,4.74,4.74,0,0,0,0,.86l.36,6.2a4.53,4.53,0,0,0,.13.84,6.08,6.08,0,0,0,.25.85,4.85,4.85,0,0,0,.45.91q1.41,2.27,4.57,1.86a4.92,4.92,0,0,0,4.26-3,5.57,5.57,0,0,0,.34-1,6.61,6.61,0,0,0,.15-.9,7.79,7.79,0,0,0,.06-.86l2.14-.28s0,.14,0,.36a7.1,7.1,0,0,1-.05.83,11.27,11.27,0,0,1-.2,1.17,7.58,7.58,0,0,1-.45,1.36,8.36,8.36,0,0,1-.74,1.38,6.56,6.56,0,0,1-1.2,1.35,7.3,7.3,0,0,1-1.77,1.11A8.33,8.33,0,0,1,385.72,269.3Z"/><path class="cls-33" d="M394.14,247.3l6.18-.8.13,2.15-2,.26,1,16.45,2-.26.13,2.15-6.18.8-.13-2.15,2-.26-1-16.45-2,.26Z"/><path class="cls-33" d="M402.68,246.17l14.52-1.88.43,7.28-2.14.28-.3-5.12-4.06.53,1,16.48,2-.26.13,2.15-6.17.8-.13-2.15,2-.26-1-16.48-4,.52.3,5.12-2.14.28Z"/><path class="cls-33" d="M430.4,242.62l6.18-.8.13,2.15-2.34.3-3.21,10.57-1.27.16.37,6.37,2-.26.13,2.15-6.18.8-.13-2.15,2-.26-.37-6.37-1.16.15-4.51-9.57-2.34.3L419.6,244l6.18-.8.13,2.15-1.52.2,3.54,7.53,1.61-.21,2.55-8.32-1.55.2Z"/><polygon class="cls-34" points="443.78 249.94 445.09 253.09 448.48 253.83 445.82 256 446.15 259.37 443.21 257.57 440.02 258.91 440.86 255.63 438.56 253.08 442.02 252.85 443.78 249.94"/><polygon class="cls-34" points="251.41 272.81 254.14 274.85 257.43 273.76 256.26 276.98 258.27 279.71 254.81 279.67 252.76 282.45 251.8 279.19 248.52 278.18 251.38 276.22 251.41 272.81"/><polygon class="cls-34" points="406.36 230.54 407.88 231.68 409.73 231.07 409.07 232.88 410.2 234.41 408.26 234.38 407.11 235.94 406.57 234.12 404.74 233.55 406.34 232.45 406.36 230.54"/><polygon class="cls-34" points="303.61 288.18 305.14 289.32 306.99 288.71 306.33 290.51 307.46 292.05 305.52 292.02 304.37 293.58 303.83 291.76 301.99 291.19 303.6 290.09 303.61 288.18"/><polygon class="cls-34" points="280.99 259.04 282.52 260.18 284.37 259.57 283.7 261.38 284.83 262.91 282.89 262.88 281.74 264.44 281.2 262.62 279.37 262.05 280.97 260.95 280.99 259.04"/><polygon class="cls-34" points="314.17 244.9 315.7 246.05 317.55 245.43 316.89 247.24 318.02 248.77 316.08 248.75 314.93 250.31 314.39 248.48 312.55 247.92 314.16 246.81 314.17 244.9"/><polygon class="cls-34" points="420.74 299.86 422.27 301 424.12 300.39 423.46 302.19 424.59 303.73 422.65 303.7 421.5 305.26 420.96 303.44 419.12 302.87 420.73 301.76 420.74 299.86"/><polygon class="cls-34" points="365.32 264.56 366.74 265.62 368.45 265.06 367.84 266.73 368.88 268.15 367.09 268.13 366.02 269.57 365.52 267.88 363.82 267.36 365.31 266.33 365.32 264.56"/><path class="cls-35" d="M303,292.9l.13,0a1.17,1.17,0,0,1,1.33,1,23.13,23.13,0,0,1,1.29,7.54v.85a24.71,24.71,0,0,1-.21,3.24,7.4,7.4,0,0,1,2-.52l.6-.07a9.67,9.67,0,0,1,4.22.33,1.85,1.85,0,0,1,.91,1.55V307q-.12.58-.48.63l-.21,0a12.85,12.85,0,0,0-5.17-.59q-2.33.41-2.33.9t-.91.58h-.08q-1,.13-1.25-.64v0a31,31,0,0,0,.48-5.21v-.42a2,2,0,0,1,0-.44,16.36,16.36,0,0,0-1.08-6.57h0a7.42,7.42,0,0,0-1.2,4.29,15.35,15.35,0,0,0,.6,3.8v0a.5.5,0,0,1-.43.39,3,3,0,0,1-2.15-1.06,3.79,3.79,0,0,1-.43-2v-.9a8.5,8.5,0,0,1,2-5.67A4.43,4.43,0,0,1,303,292.9Z"/><path class="cls-35" d="M312.37,295.05q1.17.33,1.17,1-.24,1.27-.93,4-.28,1.6-.07,1.76l0,0q.46,0,1-1a21.76,21.76,0,0,0,1.16-2.62q.67-.07.67,0v.07a14,14,0,0,1-1.67,4q-.87,1.23-1.34,1.29h-.07q-.85.1-1.5-1.14h0q-1,1.28-1.34,1.33-1.32.16-1.89-1.52a5.58,5.58,0,0,1-.17-1.27v-.39a10.36,10.36,0,0,1,.71-3.63q.42-1.05.89-1.11a5.13,5.13,0,0,1,1.1-.23l.22,0a3.73,3.73,0,0,1,1.56.81A6.83,6.83,0,0,1,312.37,295.05Zm-2.68,6.19q0,1.08.15,1.06a4.91,4.91,0,0,0,1-1.32q.25-1.37.68-2.95s.12-.33.3-.94a3.63,3.63,0,0,0-1-.47h0Q309.88,296.73,309.69,301.25Z"/><path class="cls-35" d="M324.73,293.54l.18,0q1,0,1.11.84a1.11,1.11,0,0,1-.44,1.2q-.57.38-.69-.19c0-.09,0-.13-.07-.12l-.13,0q-.68.29-1.48,2.77a8,8,0,0,0-.18,1.55v.23q0,1.14.6,1.06.79,0,2-1.48a7.5,7.5,0,0,0,1.38-2.32q.24-.4.45-.43l.25,0a.22.22,0,0,1,.15.21,10.81,10.81,0,0,1-2.1,3.76,3.56,3.56,0,0,1-2.57,1.47l-.25,0a1.44,1.44,0,0,1-1.67-1,2.63,2.63,0,0,1-.18-1.05v-.33a10.24,10.24,0,0,1,.75-3.34,5.12,5.12,0,0,1,2.41-2.73A2.06,2.06,0,0,1,324.73,293.54Z"/><path class="cls-35" d="M328,294.49q1.41.47,1.41,1v.11a10.37,10.37,0,0,1-.34,2.19,10.28,10.28,0,0,0-.34,2.1h0a5.67,5.67,0,0,0,2.27-3.39.47.47,0,0,1,.3-.22c.28,0,.42,0,.42.05v.15a13.1,13.1,0,0,1-1.7,3.57q-.95,1.3-1.52,1.36l-.24,0q-.91.11-1.2-1.07a4.93,4.93,0,0,1,0-.56v-.37a17.08,17.08,0,0,1,.81-4.06,4,4,0,0,0,.11-.79Zm.35-2q1.43.42,1.43,1a1.33,1.33,0,0,1-.16.54,2.28,2.28,0,0,0,0,.29v.11s0,.07-.11.12h0a1.73,1.73,0,0,1-1.38-.58.41.41,0,0,1,0-.18,9.21,9.21,0,0,1,.24-1C328.32,292.62,328.35,292.53,328.38,292.53Z"/><path class="cls-35" d="M332.48,292.58q1.76.41,1.76.88-.22.92-1.2,4.4a4.63,4.63,0,0,0-.22,1.12h0a19,19,0,0,0,1.89-1.9,31.64,31.64,0,0,1,1-3.49,11.31,11.31,0,0,1,.56-1.42q1.2.33,1.2,1-.22,1.06-1,3.61a6.26,6.26,0,0,0-.2,1.41v.37a9,9,0,0,0,.07.9,10.35,10.35,0,0,0,2.28-4.12,1.24,1.24,0,0,1,.35-.14H339q.32,0,.32.21v0a9.22,9.22,0,0,1-1.26,3.16q-1,1.72-1.81,1.82l-.15,0q-.68.08-1.23-1.39a.3.3,0,0,1,0-.16h0q-1.75,2-2.38,2.06l-.23,0q-.85.1-1.22-.92a3.29,3.29,0,0,1-.1-.7V299a36.58,36.58,0,0,1,1.57-6.45Z"/><path class="cls-35" d="M344.37,287.39q1.59.61,1.59,1.19,0,.24-1.41,9.09-.11.5-.21,1.13,1.28-.74,2.74-4.42a1,1,0,0,1,.58-.22h0c.07,0,.11,0,.11.13a14.36,14.36,0,0,1-1.57,3.68q-1.11,1.9-2.08,2h-.07q-.67.08-1.49-.92a.29.29,0,0,1,0-.14v-.07a1.73,1.73,0,0,1,.07-.55q-1.15,1.63-1.56,1.68-1.4.17-2-1.63A6.4,6.4,0,0,1,339,297v-.28a8.63,8.63,0,0,1,1.2-4.54,2.52,2.52,0,0,1,1.38-.45l.43-.05q.33,0,1.59.86h0a42.07,42.07,0,0,0,.7-4.95v-.07C344.31,287.42,344.33,287.4,344.37,287.39Zm-3.15,9.86v.07a1.79,1.79,0,0,0,.15,1,8.1,8.1,0,0,0,1.41-2.16,2.31,2.31,0,0,0,.42-1.33l.25-1.53a2.44,2.44,0,0,0-1.32-.55q-.55.07-.85,3.12A10.48,10.48,0,0,0,341.22,297.25Z"/><path class="cls-35" d="M352.24,290.16q1.17.33,1.17,1-.24,1.27-.93,4-.28,1.6-.07,1.77l0,0q.46,0,1-1a21.76,21.76,0,0,0,1.16-2.62q.67-.07.67,0v.07a14.05,14.05,0,0,1-1.67,4q-.87,1.23-1.34,1.29h-.07q-.85.1-1.5-1.14h0q-1,1.28-1.34,1.33-1.32.16-1.89-1.52a5.61,5.61,0,0,1-.17-1.27v-.39A10.36,10.36,0,0,1,348,292q.42-1.05.89-1.11a5.13,5.13,0,0,1,1.1-.23l.22,0a3.73,3.73,0,0,1,1.56.81A6.87,6.87,0,0,1,352.24,290.16Zm-2.68,6.19q0,1.08.15,1.06a4.89,4.89,0,0,0,1-1.32q.25-1.37.67-2.95s.12-.33.3-.94a3.6,3.6,0,0,0-1-.47h0Q349.75,291.84,349.56,296.35Z"/><path class="cls-35" d="M360.37,285.43q1.59.61,1.59,1.19,0,.24-1.41,9.09-.11.5-.21,1.13,1.28-.74,2.74-4.42a1,1,0,0,1,.58-.22h0c.07,0,.11,0,.11.13a14.36,14.36,0,0,1-1.57,3.68q-1.11,1.9-2.08,2h-.07q-.67.08-1.49-.92a.29.29,0,0,1,0-.14v-.07a1.73,1.73,0,0,1,.07-.55q-1.15,1.63-1.56,1.68-1.4.17-2-1.63A6.36,6.36,0,0,1,355,295v-.28a8.63,8.63,0,0,1,1.2-4.54,2.52,2.52,0,0,1,1.38-.45l.43-.05q.33,0,1.59.86h0a42,42,0,0,0,.7-4.95v-.07C360.31,285.46,360.34,285.43,360.37,285.43Zm-3.15,9.86v.07a1.79,1.79,0,0,0,.15,1,8.1,8.1,0,0,0,1.41-2.16,2.31,2.31,0,0,0,.42-1.33l.25-1.53a2.43,2.43,0,0,0-1.32-.55q-.55.07-.85,3.12A10.57,10.57,0,0,0,357.23,295.29Z"/><path class="cls-35" d="M375,283.63q1.59.61,1.59,1.19,0,.24-1.41,9.09-.11.5-.21,1.13,1.28-.74,2.74-4.42a1,1,0,0,1,.58-.22h0c.07,0,.11,0,.11.13a14.38,14.38,0,0,1-1.57,3.68q-1.11,1.9-2.08,2h-.07q-.67.08-1.49-.92a.29.29,0,0,1,0-.14v-.07a1.74,1.74,0,0,1,.07-.55q-1.15,1.63-1.56,1.68-1.4.17-2-1.63a6.37,6.37,0,0,1-.14-1.37v-.28a8.63,8.63,0,0,1,1.2-4.54,2.52,2.52,0,0,1,1.38-.45l.43-.05q.33,0,1.59.86h0a42,42,0,0,0,.7-4.95v-.07S375,283.63,375,283.63Zm-3.15,9.86v.07a1.79,1.79,0,0,0,.15,1,8.09,8.09,0,0,0,1.41-2.16,2.31,2.31,0,0,0,.42-1.33l.25-1.53a2.43,2.43,0,0,0-1.32-.55q-.55.07-.85,3.12A10.56,10.56,0,0,0,371.87,293.49Z"/><path class="cls-35" d="M380.77,286.66l.22,0q.52-.06,1,.89l0,.14c-.08.05-.12.09-.12.11q.93-.11,1.1.69v.12q0,1.28-3,4.47l-.29.28a.86.86,0,0,0,.8.48,3.66,3.66,0,0,0,1.7-1,6.71,6.71,0,0,0,1.71-2.62.68.68,0,0,1,.46-.25h.07c.16,0,.24,0,.24.07V290a7.1,7.1,0,0,1-1,2.23,7,7,0,0,1-1.78,2,3.72,3.72,0,0,1-1.49.76l-.22,0a1.75,1.75,0,0,1-1.94-1.36,4.48,4.48,0,0,1-.34-1.65v-.51a8.64,8.64,0,0,1,.61-3,3.79,3.79,0,0,1,1.58-1.63A2,2,0,0,1,380.77,286.66Zm-1.09,5a5.76,5.76,0,0,0,1.89-2.58,2.61,2.61,0,0,0,.07-.38.39.39,0,0,0-.27-.37h0a5.68,5.68,0,0,0-1.6,2.78A3.76,3.76,0,0,0,379.68,291.64Z"/><path class="cls-35" d="M392,281.86q1.51.55,1.51,1.17a47.65,47.65,0,0,1-.85,5.22,22.92,22.92,0,0,0-.33,3.22v.43a3.2,3.2,0,0,0,.13.83h0q1-1.61,1.59-2.8a12.58,12.58,0,0,1,.84-1.53c.14,0,.2.1.2.18v0q.5-.25-.66,2.32t-2,2.61l-.26,0a1.53,1.53,0,0,1-1.48-.92,3,3,0,0,1-.28-1.3v-.26a45.64,45.64,0,0,1,1.31-7.79q.13-.7.23-1.46Z"/><path class="cls-35" d="M399.59,284.34q1.17.33,1.17,1-.24,1.27-.93,4-.28,1.6-.07,1.77l0,0q.46,0,1-1a21.72,21.72,0,0,0,1.16-2.62q.67-.07.67,0v.07a14.05,14.05,0,0,1-1.67,4q-.87,1.23-1.34,1.29h-.07q-.85.1-1.5-1.14h0q-1,1.28-1.34,1.33-1.32.16-1.89-1.52a5.61,5.61,0,0,1-.17-1.27v-.39a10.36,10.36,0,0,1,.71-3.63q.42-1.05.89-1.11a5.13,5.13,0,0,1,1.1-.23l.22,0a3.74,3.74,0,0,1,1.56.81A6.87,6.87,0,0,1,399.59,284.34Zm-2.68,6.19q0,1.08.15,1.06a4.88,4.88,0,0,0,1-1.32q.25-1.37.67-2.95s.12-.33.3-.94a3.61,3.61,0,0,0-1-.47h0Q397.1,286,396.9,290.54Z"/><path class="cls-35" d="M317.69,305.95l.2,0a3.07,3.07,0,0,1,2.2.88,2.48,2.48,0,0,1,1.16,2.05V309a4.6,4.6,0,0,1-.74,2,.51.51,0,0,1-.21.11h-.11q-.34,0-.88-1.41-.63-1.3-1.05-1.25t-1.34,2.05a8.7,8.7,0,0,0-1.12,3.15q-.08,1.18.64,1.23a.25.25,0,0,1,.13,0,3.8,3.8,0,0,0,1.46-.75,1.71,1.71,0,0,1,.57-.21q1.09.24,1.53,2.1a5.77,5.77,0,0,1,.07,1.49,7.93,7.93,0,0,1-1.4,3.91,3.35,3.35,0,0,1-2.9,1.79l-.25,0a2.61,2.61,0,0,1-2.95-1.45,3.63,3.63,0,0,1-.24-1.51l0-.33a4.13,4.13,0,0,1,.9-2.32.92.92,0,0,1,.22-.07,3.49,3.49,0,0,1,1.84.48q.34.25.32.4a15.59,15.59,0,0,0-.42,2.31v.15q0,.6.16.58,1.4-.11,1.93-2.49t.55-2.74q0-.33-.26-.3s-.51.21-1.39.61a2.17,2.17,0,0,1-.59.13h0q-1.94.24-2.59-1.95a6.24,6.24,0,0,1-.12-1.66,8.85,8.85,0,0,1,1.48-4.11,11.45,11.45,0,0,1,2.93-3Z"/><path class="cls-35" d="M325.66,310.07l.26,0q.62-.08,1.25,1.07l0,.17c-.09.06-.14.11-.15.14q1.11-.14,1.32.82v.15q0,1.53-3.61,5.36a3.81,3.81,0,0,1-.35.34,1,1,0,0,0,1,.58,4.4,4.4,0,0,0,2-1.25,8.06,8.06,0,0,0,2-3.14.81.81,0,0,1,.55-.3h.09c.19,0,.29,0,.29.08v.09a8.55,8.55,0,0,1-1.2,2.68,8.42,8.42,0,0,1-2.13,2.4,4.46,4.46,0,0,1-1.78.91l-.26,0a2.1,2.1,0,0,1-2.33-1.63,5.36,5.36,0,0,1-.41-2v-.61a10.37,10.37,0,0,1,.73-3.64,4.55,4.55,0,0,1,1.89-1.95A2.42,2.42,0,0,1,325.66,310.07Zm-1.31,6a6.92,6.92,0,0,0,2.27-3.1,3.22,3.22,0,0,0,.09-.45.46.46,0,0,0-.32-.45h0a6.81,6.81,0,0,0-1.92,3.34A4.42,4.42,0,0,0,324.35,316Z"/><path class="cls-35" d="M335.73,308.87h.09a3.48,3.48,0,0,1,1.77,0q-.44,7.89-1,11.16a20.87,20.87,0,0,1-1.33,5q-1.14,2.2-2.34,2.35l-.48.06q-2.75-.2-2.75-3.13t1.54-3.91a1.81,1.81,0,0,1,.93-.44h.09q1.32-.16,1.14.43a9.09,9.09,0,0,1-.87,1.76,4.18,4.18,0,0,0-.67,2.22q0,1,.67,1.26h.12q1.37-.17,1.94-7.13.08-1,.12-2.07v0h0a8.2,8.2,0,0,1-2.06,2.71l-.24.07a2,2,0,0,1-2-1.21,6,6,0,0,1-.45-2.48,10.68,10.68,0,0,1,1.34-5.33q0-.37,1.69-.65l.41-.05a2.69,2.69,0,0,1,1.44.67h0v-.73Q335,309,335.73,308.87Zm-3.1,7.44q0,.85.17.83h0a13.74,13.74,0,0,0,1.65-2.51,2.51,2.51,0,0,0,.36-.84V312.4q0-.42,0-1.29a2.09,2.09,0,0,0-1.2-.42q-.81.3-1.05,4.69Z"/><path class="cls-35" d="M340.37,308.27q2.12.49,2.12,1.06-.26,1.1-1.43,5.28a5.55,5.55,0,0,0-.26,1.35h0a22.78,22.78,0,0,0,2.26-2.28,38,38,0,0,1,1.17-4.18,13.43,13.43,0,0,1,.67-1.7q1.43.39,1.43,1.14-.26,1.27-1.24,4.34a7.5,7.5,0,0,0-.23,1.7v.45q0,.36.08,1.08a12.42,12.42,0,0,0,2.74-4.94,1.49,1.49,0,0,1,.42-.17h.07c.25,0,.38.05.38.26v0a11.08,11.08,0,0,1-1.51,3.79q-1.23,2.06-2.18,2.18l-.19,0q-.81.1-1.47-1.66a.37.37,0,0,1,0-.19h0q-2.1,2.38-2.86,2.47l-.27,0q-1,.12-1.46-1.11a3.94,3.94,0,0,1-.12-.84V316q0-1.37,1.88-7.74Z"/><path class="cls-35" d="M349.12,306.77q.4-.12,1.23.76a1.4,1.4,0,0,1,.41.7,8.53,8.53,0,0,1-.12,1.55v0h0a10,10,0,0,1,1.05-2.2q.59-.78,1-.84l.26,0q1-.13,1.05.25V307a5.19,5.19,0,0,1-.33,1.35,12.6,12.6,0,0,0-.5,2.5q0,.84-.34.88l-.57.11q-.56,0-.58-.27c-.07-.36-.13-.54-.18-.54h0q-.39,0-1,2.37a19,19,0,0,0-.5,4.42v0a.18.18,0,0,1-.17.19l-.19,0a2.78,2.78,0,0,1-1.58-.29,1,1,0,0,1-.36-.71l0-.45a72.29,72.29,0,0,1,.89-7.65q.08-.84.16-2Q348.72,306.89,349.12,306.77Z"/><path class="cls-35" d="M355.42,308q1.69.56,1.69,1.2v.13a12.42,12.42,0,0,1-.41,2.63,12.38,12.38,0,0,0-.41,2.52h0a6.8,6.8,0,0,0,2.72-4.07.56.56,0,0,1,.36-.27c.34,0,.51,0,.51.06v.19a15.75,15.75,0,0,1-2,4.28q-1.14,1.55-1.82,1.64l-.28,0q-1.09.13-1.43-1.29a5.9,5.9,0,0,1-.06-.68V314a20.51,20.51,0,0,1,1-4.87,4.82,4.82,0,0,0,.13-1Zm.42-2.35q1.72.5,1.72,1.16a1.61,1.61,0,0,1-.2.65,2.72,2.72,0,0,0,0,.34V308s0,.08-.13.14h0a2.08,2.08,0,0,1-1.66-.69.5.5,0,0,1-.06-.22,11.13,11.13,0,0,1,.29-1.19C355.77,305.81,355.8,305.7,355.84,305.69Z"/><path class="cls-35" d="M366,300.64q1.91.73,1.91,1.42,0,.28-1.69,10.91-.13.6-.25,1.36,1.54-.88,3.29-5.3a1.16,1.16,0,0,1,.69-.26h0c.08,0,.13,0,.13.16a17.22,17.22,0,0,1-1.88,4.42q-1.33,2.28-2.49,2.36h-.09q-.8.1-1.78-1.1a.35.35,0,0,1,0-.17v-.08a2.1,2.1,0,0,1,.09-.66q-1.39,2-1.87,2-1.68.21-2.39-2a7.72,7.72,0,0,1-.17-1.64v-.34a10.37,10.37,0,0,1,1.44-5.45,3,3,0,0,1,1.66-.55l.52-.06q.39,0,1.91,1h0a50.43,50.43,0,0,0,.84-5.94v-.08C365.93,300.68,366,300.65,366,300.64Zm-3.78,11.83v.09a2.16,2.16,0,0,0,.18,1.17,9.74,9.74,0,0,0,1.7-2.59,2.78,2.78,0,0,0,.51-1.59l.3-1.83a2.92,2.92,0,0,0-1.58-.65q-.66.08-1,3.74A12.46,12.46,0,0,0,362.23,312.47Z"/><path class="cls-35" d="M375.45,304q1.4.39,1.4,1.14-.29,1.52-1.11,4.86-.33,1.92-.09,2.12l.06,0q.56,0,1.21-1.25a26.16,26.16,0,0,0,1.39-3.15q.8-.08.8,0v.09a16.87,16.87,0,0,1-2,4.77q-1,1.47-1.61,1.54h-.09q-1,.13-1.8-1.37h0q-1.14,1.54-1.61,1.59-1.58.19-2.27-1.82a6.7,6.7,0,0,1-.2-1.53v-.47a12.43,12.43,0,0,1,.85-4.36q.51-1.26,1.07-1.33a6.15,6.15,0,0,1,1.32-.28l.26,0a4.48,4.48,0,0,1,1.87,1A8.22,8.22,0,0,1,375.45,304Zm-3.22,7.43q0,1.29.19,1.27a5.87,5.87,0,0,0,1.17-1.59q.3-1.65.81-3.53s.14-.39.36-1.13a4.34,4.34,0,0,0-1.26-.57h0Q372.46,306,372.23,311.39Z"/><path class="cls-35" d="M385.21,298.28q1.91.73,1.91,1.42,0,.28-1.69,10.91-.13.6-.25,1.36,1.54-.88,3.29-5.3a1.16,1.16,0,0,1,.69-.26h0c.08,0,.13,0,.13.16a17.22,17.22,0,0,1-1.88,4.42q-1.33,2.28-2.49,2.36h-.09q-.8.1-1.78-1.1a.35.35,0,0,1,0-.17V312a2.1,2.1,0,0,1,.09-.66q-1.39,2-1.87,2-1.68.21-2.39-2a7.71,7.71,0,0,1-.17-1.64v-.34a10.37,10.37,0,0,1,1.44-5.45,3,3,0,0,1,1.66-.55l.52-.06q.39,0,1.91,1h0a50.55,50.55,0,0,0,.84-5.94v-.08C385.13,298.32,385.16,298.29,385.21,298.28Zm-3.78,11.83v.09a2.15,2.15,0,0,0,.18,1.17,9.73,9.73,0,0,0,1.7-2.59,2.78,2.78,0,0,0,.51-1.59l.3-1.83a2.93,2.93,0,0,0-1.58-.65q-.66.08-1,3.74A12.58,12.58,0,0,0,381.43,310.11Z"/><polygon class="cls-34" points="314.17 244.9 315.7 246.05 317.55 245.43 316.89 247.24 318.02 248.77 316.08 248.75 314.93 250.31 314.39 248.48 312.55 247.92 314.16 246.81 314.17 244.9"/><polygon class="cls-34" points="309.18 325.94 310.71 327.09 312.56 326.47 311.89 328.28 313.02 329.81 311.08 329.79 309.93 331.35 309.4 329.52 307.56 328.96 309.16 327.85 309.18 325.94"/><polygon class="cls-34" points="294.19 318.17 295.72 319.32 297.57 318.7 296.91 320.51 298.04 322.04 296.1 322.02 294.95 323.58 294.41 321.75 292.57 321.19 294.18 320.08 294.19 318.17"/></g></g></g></svg>