<svg xmlns="http://www.w3.org/2000/svg" viewBox="0 0 340.91 797.69"><defs><style>.cls-1{fill:#4a362e;}.cls-2{fill:#eaeaea;}.cls-3{fill:#daa284;}.cls-4{fill:#3fb539;}.cls-5{fill:#e2e2e2;}.cls-6{fill:#f4f9f6;}.cls-7{fill:#edefee;}.cls-8{fill:#eaefec;}.cls-9{fill:#e8af95;}.cls-10{fill:#efb49a;}.cls-11{fill:#383d46;}.cls-12{fill:#fff;}.cls-13{fill:#57453f;}.cls-14{fill:#fc8080;}.cls-15{fill:#c7e2de;}.cls-16{fill:#fcd268;}.cls-17{fill:#683321;}.cls-18,.cls-21{fill:#f6f6f7;}.cls-18{stroke:#1e120d;stroke-miterlimit:10;stroke-width:0.88px;}.cls-19{fill:#5059ff;}.cls-20{fill:#ffa733;}.cls-22{fill:#f97432;}.cls-23{fill:#f98653;}.cls-24{fill:#e85a28;}.cls-25{fill:#f46437;}.cls-26{fill:#bc4622;}</style></defs><title>alcalde</title><g id="Capa_2" data-name="Capa 2"><g id="personaje"><path class="cls-1" d="M207.12,35.36c-15.47-11.09-23.2-16.15-53.8-15.2s-49.38,13.19-62.52,57C75.55,128,70.62,168.86,76.48,185.93c12.44,36.26,60.82,41.94,101.67,41.78s50.19-6,58.87-27.85c7.16-18,4.28-41.15,1.21-64.39-3.59-27.15,5.59-67.33-4.19-82.36C222.22,34.94,207.12,35.36,207.12,35.36Z"/><path class="cls-2" d="M124.26,280s-21.58-16.48-36.72,5.14-41,81.88-47.36,93.43-7,31.34,2.12,37.72c6.84,4.78,26.72.76,36-8.05s40-68.77,45.91-81.15C135.73,302.8,130,287.11,124.26,280Z"/><path class="cls-3" d="M128.66,258.26s29.15-7.88,29.66-26.17,0-30,0-30,.51-12.2,18.3-12.2,17.28,12.71,17.28,12.71.25,15.78.06,25.4-.25,21.09,29.27,23.74c5.11.46-7.08,71.08-67.54,67C112.58,315.78,128.66,258.26,128.66,258.26Z"/><path class="cls-4" d="M242.48,407s6.1,16.21,15.89,69.25c8.5,46.09,32.09,63.9,31.41,146.27-.51,62.69-37.69,167.1-37.69,167.1s-22,8.05-69.1,8.05c-33.5,0-77.48-8.05-77.48-8.05S71.19,682.55,71.19,613.74c0-53.77,22.69-100.94,26.44-140.16,3.08-32.21,9.49-49.69,1.3-79.23-5-18-13.43-33.94-5.47-65.45,4.49-17.77,21.36-70.42,21.36-70.42l21.37-6.57s-22.31,62.51,25,62.51c42.59,0,59.45-65.32,59.45-65.32l50.61,12.41S261,333.41,242.48,407Z"/><path class="cls-5" d="M220,249.1s-27.3,85.51-32.42,137.55S194,465,200,477.8s21.86,26.88,38.07,29.44,25.46-2,30.58-3.71,4.27-7.68,3.41-11.09S250.4,447.2,252,419.27c1.84-32.54,30.39-92.1,33.76-114.4s11-35.78-11.14-44.82S220,249.1,220,249.1Z"/><path class="cls-6" d="M209,342.61l6.21,21.9a10.16,10.16,0,0,1,0,6.15c-1.12,2.83-28.64,50.88-28.64,50.88s-2.23-15.37,2-43,6.75-40.94,6.75-40.94Z"/><path class="cls-6" d="M189.66,370.66S219,340.61,224.28,336s2.75-7.7,3.27-14.37.18-70.77.18-70.77,3.41-3.13-6.34-5.19-26.15-6.89-26.15-6.89a13.3,13.3,0,0,0,4.27,5.76,25.34,25.34,0,0,0,9,4.56C219,252,212,264.92,209,276.33S192.46,345.88,189.66,370.66Z"/><path class="cls-7" d="M339.28,395.07s-18-41.48-25.24-61.43-18.3-48-23.2-54.29-14.54-11.23-26.37-8.12-19.21,34.13-11.24,53.53,30,69.21,40.77,80.79,23.06,12.93,31.58,10.86S341.78,412.12,339.28,395.07Z"/><path class="cls-3" d="M283.48,472l-11.15,33.48c-1.72,5.16-4.68,17.91,6,21.34,8.45,2.71,15.62-6,17.69-11s13.89-35.63,13.89-35.63Z"/><path class="cls-8" d="M319.64,389.48c-8.07,0-21.73,10.2-25.36,23.09s-19.68,58.21-19.68,58.21-3.28,7.3,2.63,8.91,30.08,10.2,30.08,10.2,7.52,4.83,10.74-3.76,18.66-59.77,22.21-71.5S332.52,389.48,319.64,389.48Z"/><path class="cls-5" d="M93.4,498.25c9.59-10.79,17.17-29.75,17.76-63.92s-7.66-47.12-5.3-85.41,29-92.81,29-92.81,10.26-6.94,1.31-4.19-41.41,10.38-41.41,10.38-12.92,1.63-11.53,12.14c1.45,10.92-.4,36.8-4.95,63.18s17,69.78,15.16,102.75C91.73,471.44,72.69,521.52,93.4,498.25Z"/><path class="cls-6" d="M155.79,240.65s-1-.08-9.36,2.73-17.57,7.33-18.63,11-33.56,62.86-33.56,62.86a10.22,10.22,0,0,0,.76,9.25c2.73,4.14,16.63,24.3,16.63,24.3s3.89-31.92,23-86.35c3.5-10,11.29-11.5,15.3-16.29S155.79,240.65,155.79,240.65Z"/><path class="cls-6" d="M110.67,419.27s.34-31.62,0-45,2-34.57,2-34.57L104.46,326l-9.18,32.67a22.23,22.23,0,0,0,0,12C97.11,377.06,110.67,419.27,110.67,419.27Z"/><path class="cls-3" d="M45.26,331.69l-.56-2.13-9-34.33s-1-10.87-11.29-10.8-17.64,6.71-14.27,17.91,8.54,38.84,8.54,38.84,6.51,11.81,16.69,8S45.26,331.69,45.26,331.69Z"/><path class="cls-5" d="M78.76,385.09c2.91,10.2,4.8,24.74-4.83,33.78s-33.63,6.23-38.25-10.52c-4.12-14.93-22.31-69.13-22.31-69.13s-3.77-9,.36-12.7c3.13-2.8,31.53-14.6,31.53-14.6s8.2-6.7,11.41,3.43S75.85,374.89,78.76,385.09Z"/><path class="cls-9" d="M23.57,297.4S38.16,296.22,43,277,53.15,248.9,53.15,248.9l-6-4.8L33.86,262s-5.18-12.51-4.6-19.44S20,221.69,20,221.69l-6.33,5.64L11,223.88,4,230.8l2.46,5.84L3,241.72l1.1,9.22L0,255.42s2.3,10.93,3.42,19.88S5.84,300.74,23.57,297.4Z"/><path class="cls-3" d="M281.79,510.38s-10-2.14-15.61,3.38-8.52,12.43-13.17,17.59-6.48,5.56-6.48,5.56l2.93,4.94s4.72-.47,11.17-5.35c5.48-4.15,4.4-4.4,4.4-4.4s-4.28,15.1-4.44,26.24c-.12,8,1.59,19.74,1.59,19.74l9,0,1,5.88,8.26-1.79,1-6.23,5.81-1,1.15-5.05,3.06-.66s1-14.63,4.26-21.75S299.5,512.31,281.79,510.38Z"/><path class="cls-10" d="M210.45,135.83s-7.52-12.59-10.64-41c-2.3-20.92-30.52-26.14-39.07-25.74,0,0-10.22-6.31-29.11-2.61C109.3,70.82,96.48,93.27,95.9,103.61c-1.34,24.31.19,37.88-.09,55.72s13.83,54.26,51.34,65.48c0,0,36.48-9.28,49.8-25.1C197,199.71,215,185.22,210.45,135.83Z"/><path class="cls-11" d="M166.65,137a8.06,8.06,0,0,0,10.8,1.77,7,7,0,0,0,1.88-10.17,8.06,8.06,0,0,0-10.79-1.77A7,7,0,0,0,166.65,137Z"/><path class="cls-12" d="M170.49,134.5a2.5,2.5,0,0,0,.67-3.61,2.86,2.86,0,0,0-3.83-.63,2.5,2.5,0,0,0-.67,3.61A2.86,2.86,0,0,0,170.49,134.5Z"/><path class="cls-11" d="M110.71,138.4a8.06,8.06,0,0,0,10.8,1.77A7,7,0,0,0,123.39,130a8.06,8.06,0,0,0-10.79-1.77A7,7,0,0,0,110.71,138.4Z"/><path class="cls-12" d="M114.55,135.86a2.5,2.5,0,0,0,.67-3.61,2.86,2.86,0,0,0-3.83-.63,2.5,2.5,0,0,0-.67,3.61A2.86,2.86,0,0,0,114.55,135.86Z"/><path class="cls-13" d="M153.64,109.23c13.82-5.84,28.17-3.87,34,1.18s.33-4.19-4.36-6.17c-11.21-4.73-20.41-3.77-28-1C142.8,107.68,149.9,110.81,153.64,109.23Z"/><path class="cls-13" d="M123.24,108.74c-11.21-4.76-23-2.42-27.78,2.4s-.21-3.79,3.64-5.77c9.21-4.74,16.72-4.22,22.91-2C132.12,106.91,126.28,110,123.24,108.74Z"/><path class="cls-14" d="M140.29,171.4a1.71,1.71,0,0,1-.44-.23L129.63,164a1.77,1.77,0,0,1,1-3.23l19.12-.18a1.78,1.78,0,0,1,1.06,3.21l-10.09,7.4A1.74,1.74,0,0,1,140.29,171.4Z"/><path class="cls-12" d="M126.84,183.23s11.28,1.65,20,.94,15.6-1.89,15.6-1.89S154,193.14,143,193.61,126.84,183.23,126.84,183.23Z"/><circle class="cls-15" cx="156.31" cy="283.61" r="5.35"/><circle class="cls-15" cx="167.01" cy="285.44" r="5.35"/><circle class="cls-15" cx="177.71" cy="283.61" r="5.35"/><circle class="cls-15" cx="186.72" cy="277.75" r="5.35"/><circle class="cls-15" cx="195.01" cy="270.86" r="5.35"/><circle class="cls-15" cx="200.36" cy="262.09" r="5.35"/><circle class="cls-15" cx="202.94" cy="251.98" r="5.35"/><circle class="cls-15" cx="145.2" cy="266.69" r="5.35"/><circle class="cls-15" cx="146.29" cy="256.62" r="5.35"/><circle class="cls-15" cx="147.91" cy="277.39" r="5.35"/><path class="cls-16" d="M36.32,290.29s-2,3.93-11.15,4.7a43.23,43.23,0,0,1-16.41-1.81l.34,5.57a49,49,0,0,0,16.9.17c8.92-1.56,10.67-4,10.67-4Z"/><path class="cls-17" d="M270,511.24l1.91-4.61,12.57,2.3,5.74,1.87,6.48,5.6-2.1,4.33s-5.43-4-10.12-5.49C277.75,513,270,511.24,270,511.24Z"/><ellipse class="cls-18" cx="286.42" cy="512.78" rx="5.93" ry="5.66"/><path class="cls-19" d="M87.51,477.1s114.58-156,145.77-186.31S272,259,272,259s1-2.17-1.66-3.28-21.73-4.92-25.39-5.46c-2.65-.39-6.47-.53-8.34,1-4.94,4-51.36,44.85-80.78,82.55s-61.33,87.71-61.33,87.71a39.66,39.66,0,0,0-4.69,10.16c-1.4,5.23-5,41.1-5,41.1S83.14,480.36,87.51,477.1Z"/><polygon class="cls-20" points="194.35 294.13 186.11 293.04 188.07 301.14 182.63 305.81 188.82 311.22 187.56 319.13 195.56 318.34 200.36 324.72 205.21 318.59 213.54 319.13 212.35 311.29 218.09 305.81 211.73 301.7 214.37 293.44 206.29 294.22 199.99 287.34 194.35 294.13"/><circle class="cls-21" cx="200.34" cy="305.81" r="10.95"/><path class="cls-3" d="M210.45,135.83s7.25-13.65,14.46-10.75c16.29,6.55,4.68,48.95-14.46,36.15Z"/><path class="cls-13" d="M81.51,188.92c25.83-18.6,33.14-69.88,29.16-112.38,0,0-45-15-35.84,59.53,0,0-.87,17.38,1.21,23.08C76,159.16,88.49,178,81.51,188.92Z"/><path class="cls-22" d="M69.66,104.54S75.94,78,81.72,62.31c.32-.88,2.17-5.92,2.49-6.79,4-10.85,8.57-15.47,10.66-19,5.26-9,32.31-29.56,32.31-29.56S165-13.33,203.92,15.45c17.23,13.4,22.79,20.34,22.79,20.34l12.72,23.53,5.57,14,2.87,40.06-9-2.09s-26-56.95-85.25-55.62c-23.88,3.31-44.68,17-62.23,29.06C85.92,88.52,74.63,99.21,69.66,104.54Z"/><polygon class="cls-22" points="95.24 76.08 119.66 72.1 181.91 72.1 218.67 77.47 214.02 61.16 170.34 67.25 173.4 57.08 95.24 76.08"/><polygon class="cls-23" points="239.23 73.75 237.3 95.04 244.14 100.43 242.91 75.59 239.23 73.75"/><path class="cls-24" d="M85.7,108.51s9.48-27.68,28-32.32c7.66-4.59,27.84-7.33,27.84-7.33l43.59,5.4s29.78,17.23,33.57,20.68,10.94,17,10.94,17l9.22,15.16L246.29,139,257,116.37l-1-4s-41.68-40-61.73-46.75c-26.58-16.82-69-9.14-80.94-1A291.47,291.47,0,0,0,89.21,81.52C77.28,91.43,67.1,100.43,67.1,100.43L64.86,105l9.37,34.58Z"/><path class="cls-25" d="M204,15.26s-13,23-18.35,44.17l28.64,20.81S217.7,52,230.85,42.94C230.85,42.94,229.14,32.21,204,15.26Z"/><path class="cls-26" d="M231.49,42.26s-21,26.37-15.62,44.83h-.57S206.72,73,229.58,40.75C229.58,40.75,231.11,40.37,231.49,42.26Z"/><path class="cls-25" d="M101.38,28.25S90.81,63.85,98,78c0,0-2,4,22.29-11.3,0,0-.86-54.25,8.29-60.46Z"/><path class="cls-26" d="M104,26.28s-7.43,16.1-6.29,47.18l-1.14,4s-5.14-22,4.57-49.16Z"/><path class="cls-24" d="M64.51,105.1s38.3-33.72,53.73-40.31c0,0,38.68-20.91,86.89,12.05l52,39.55-1.14-4L201.7,68.18s-27.44-23.54-74.31-11.11c0,0-7.43,1.13-32,19.21l-28.58,22Z"/><path class="cls-26" d="M83.95,119.23S100.33,92.85,117.1,80.8c7.66-4.59,24.58-9.61,24.58-9.61l40.58,3.39S212.78,96,216.56,99.45s12.67,15.83,12.67,15.83l7.34,11.29,2.88,19.83,14.23-13.26,3.38-16.86s-59.32-49.06-79.37-55.82-52.76-.72-64.7,7.47A291.47,291.47,0,0,0,88.81,84.82c-11.94,9.91-25.29,20.92-24,20.05l-3.32,25.31,12.77,11.08Z"/></g></g></svg>