<svg xmlns="http://www.w3.org/2000/svg" xmlns:xlink="http://www.w3.org/1999/xlink" viewBox="0 0 970.73 486.55"><defs><style>.cls-1{fill:none;}.cls-2{fill:#1d1d1b;}.cls-3{isolation:isolate;}.cls-4{fill:url(#Degradado_sin_nombre_58);}.cls-5{clip-path:url(#clip-path);}.cls-6{mix-blend-mode:screen;fill:url(#_10_ppp_60_);}.cls-7{fill:#ffd43c;}.cls-8{font-size:36.45px;fill:#fff;font-family:Campton-BoldDEMO, Campton;font-weight:700;}.cls-9{letter-spacing:-0.01em;}.cls-10{font-size:58.38px;}.cls-11{letter-spacing:-0.01em;}.cls-12{letter-spacing:-0.01em;}.cls-13{letter-spacing:-0.01em;}.cls-14{letter-spacing:-0.01em;}.cls-15{letter-spacing:-0.01em;}</style><linearGradient id="Degradado_sin_nombre_58" x1="950.56" y1="450.38" x2="-283.78" y2="-142.29" gradientUnits="userSpaceOnUse"><stop offset="0.24" stop-color="#662d91"/><stop offset="0.75" stop-color="#301b71"/><stop offset="1" stop-color="#1b1464"/></linearGradient><clipPath id="clip-path"><rect class="cls-1" x="71.07" y="1.22" width="748.4" height="410.65" rx="42.44" ry="42.44"/></clipPath><pattern id="_10_ppp_60_" data-name="10 ppp 60%" width="28.8" height="28.8" patternTransform="translate(-43.86 -42.37) scale(0.61 0.55)" patternUnits="userSpaceOnUse" viewBox="0 0 28.8 28.8"><rect class="cls-1" width="28.8" height="28.8"/><circle class="cls-2" cx="28.8" cy="28.8" r="4.32"/><circle class="cls-2" cx="14.4" cy="28.8" r="4.32"/><circle class="cls-2" cx="28.8" cy="14.4" r="4.32"/><circle class="cls-2" cx="14.4" cy="14.4" r="4.32"/><circle class="cls-2" cx="7.2" cy="21.6" r="4.32"/><circle class="cls-2" cx="21.6" cy="21.6" r="4.32"/><circle class="cls-2" cx="7.2" cy="7.2" r="4.32"/><circle class="cls-2" cx="21.6" cy="7.2" r="4.32"/><circle class="cls-2" cy="28.8" r="4.32"/><circle class="cls-2" cy="14.4" r="4.32"/><circle class="cls-2" cx="28.8" r="4.32"/><circle class="cls-2" cx="14.4" r="4.32"/><circle class="cls-2" r="4.32"/></pattern></defs><title>back</title><g class="cls-3"><g id="Capa_2" data-name="Capa 2"><g id="cuadro"><rect class="cls-4" x="71.07" y="2.44" width="748.4" height="410.65" rx="42.44" ry="42.44"/><g class="cls-5"><rect class="cls-6" width="970.73" height="486.55"/></g><rect class="cls-7" x="634.55" y="119.91" width="166.09" height="10.14" rx="4.72" ry="4.72"/><path class="cls-7" d="M233.86,119.07H70.47v11H233.86a5.14,5.14,0,0,0,5.13-5.13v-.73A5.14,5.14,0,0,0,233.86,119.07Z"/><text></text></g><g id="titulo"><text class="cls-8" transform="translate(292.65 96.53)">BIEN<tspan class="cls-9" x="85.21" y="0">V</tspan><tspan x="113.39" y="0" xml:space="preserve">ENIDO  A</tspan><tspan class="cls-10"><tspan x="-58.62" y="49.2"> </tspan><tspan class="cls-11" x="-43.62" y="49.2">P</tspan><tspan class="cls-12" x="-6.72" y="49.2">R</tspan><tspan class="cls-13" x="33.38" y="49.2">E</tspan><tspan class="cls-14" x="68.23" y="49.2">V</tspan><tspan x="113.36" y="49.2">ENC</tspan><tspan class="cls-15" x="238.52" y="49.2">I</tspan><tspan x="254.98" y="49.2">TY</tspan></tspan></text></g></g></g></svg>