<svg xmlns="http://www.w3.org/2000/svg" viewBox="0 0 249.6 237.66"><defs><style>.cls-1{fill:#ec300a;}.cls-2{fill:#e76001;}.cls-3{fill:#dc9900;}.cls-4{fill:#fab800;}</style></defs><title>fireworks</title><g id="Capa_2" data-name="Capa 2"><g id="Capa_10" data-name="Capa 10"><path class="cls-1" d="M111.75,100.87s-6.94-22.39-13-18S111.75,100.87,111.75,100.87Z"/><path class="cls-1" d="M103.69,112s-18.78-14-21.11-6.86S103.69,112,103.69,112Z"/><path class="cls-1" d="M103.69,125.69s-23.44-.32-21.11,6.86S103.69,125.69,103.69,125.69Z"/><path class="cls-1" d="M111.75,136.79s-19.15,13.52-13,18S111.75,136.79,111.75,136.79Z"/><path class="cls-1" d="M124.8,141s-7.55,22.2,0,22.2S124.8,141,124.8,141Z"/><path class="cls-1" d="M137.85,136.79s6.94,22.39,13,18S137.85,136.79,137.85,136.79Z"/><path class="cls-1" d="M145.91,125.69s18.78,14,21.11,6.86S145.91,125.69,145.91,125.69Z"/><path class="cls-1" d="M145.91,112s23.44.32,21.11-6.86S145.91,112,145.91,112Z"/><path class="cls-1" d="M137.85,100.87s19.15-13.52,13-18S137.85,100.87,137.85,100.87Z"/><path class="cls-1" d="M124.8,96.63s7.55-22.2,0-22.2S124.8,96.63,124.8,96.63Z"/></g><g id="Capa_12" data-name="Capa 12"><path class="cls-2" d="M94.79,77.52s-6.94-22.39-13-18S94.79,77.52,94.79,77.52Z"/><path class="cls-2" d="M76.24,103.05S57.47,89,55.13,96.19,76.24,103.05,76.24,103.05Z"/><path class="cls-2" d="M76.24,134.61s-23.44-.32-21.11,6.86S76.24,134.61,76.24,134.61Z"/><path class="cls-2" d="M94.79,160.13s-19.15,13.52-13,18S94.79,160.13,94.79,160.13Z"/><path class="cls-2" d="M124.8,169.88s-7.55,22.2,0,22.2S124.8,169.88,124.8,169.88Z"/><path class="cls-2" d="M154.81,160.13s6.94,22.39,13,18S154.81,160.13,154.81,160.13Z"/><path class="cls-2" d="M173.36,134.61s18.78,14,21.11,6.86S173.36,134.61,173.36,134.61Z"/><path class="cls-2" d="M173.36,103.05s23.44.32,21.11-6.86S173.36,103.05,173.36,103.05Z"/><path class="cls-2" d="M154.81,77.52s19.15-13.52,13-18S154.81,77.52,154.81,77.52Z"/><path class="cls-2" d="M124.8,67.77s7.55-22.2,0-22.2S124.8,67.77,124.8,67.77Z"/></g><g id="Capa_6" data-name="Capa 6"><path class="cls-3" d="M105.52,59.48s-1.2-28.13-8.38-25.8S105.52,59.48,105.52,59.48Z"/><path class="cls-3" d="M74.32,82.15S56.8,60.1,52.37,66.2,74.32,82.15,74.32,82.15Z"/><path class="cls-3" d="M62.4,118.83s-27.13-7.55-27.13,0S62.4,118.83,62.4,118.83Z"/><path class="cls-3" d="M74.32,155.51s-26.39,9.84-21.95,15.95S74.32,155.51,74.32,155.51Z"/><path class="cls-3" d="M105.52,178.18S90,201.65,97.13,204,105.52,178.18,105.52,178.18Z"/><path class="cls-3" d="M144.08,178.18s1.21,28.13,8.38,25.8S144.08,178.18,144.08,178.18Z"/><path class="cls-3" d="M175.28,155.51s17.51,22.05,21.95,15.95S175.28,155.51,175.28,155.51Z"/><path class="cls-3" d="M187.2,118.83s27.13,7.55,27.13,0S187.2,118.83,187.2,118.83Z"/><path class="cls-3" d="M175.28,82.15s26.39-9.84,21.95-15.95S175.28,82.15,175.28,82.15Z"/><path class="cls-3" d="M144.08,59.48s15.56-23.47,8.38-25.8S144.08,59.48,144.08,59.48Z"/></g><g id="Capa_7" data-name="Capa 7"><path class="cls-4" d="M77.83,54.18s-6.94-22.4-13-18S77.83,54.18,77.83,54.18Z"/><path class="cls-4" d="M48.8,94.14S30,80.1,27.69,87.28,48.8,94.14,48.8,94.14Z"/><path class="cls-4" d="M48.8,143.52s-23.44-.32-21.11,6.86S48.8,143.52,48.8,143.52Z"/><path class="cls-4" d="M77.83,183.48s-19.15,13.52-13,18S77.83,183.48,77.83,183.48Z"/><path class="cls-4" d="M124.8,198.74s-7.55,22.2,0,22.2S124.8,198.74,124.8,198.74Z"/><path class="cls-4" d="M171.77,183.48s6.94,22.39,13,18S171.77,183.48,171.77,183.48Z"/><path class="cls-4" d="M200.8,143.52s18.78,14,21.11,6.86S200.8,143.52,200.8,143.52Z"/><path class="cls-4" d="M200.8,94.14s23.44.32,21.11-6.86S200.8,94.14,200.8,94.14Z"/><path class="cls-4" d="M171.77,54.18s19.15-13.52,13-18S171.77,54.18,171.77,54.18Z"/><path class="cls-4" d="M124.8,38.92s7.55-22.2,0-22.2S124.8,38.92,124.8,38.92Z"/></g><g id="Capa_8" data-name="Capa 8"><path class="cls-4" d="M94.62,25.94S93.41-2.2,86.23.14,94.62,25.94,94.62,25.94Z"/><path class="cls-4" d="M45.78,61.42S28.27,39.37,23.83,45.47,45.78,61.42,45.78,61.42Z"/><path class="cls-4" d="M27.13,118.83S0,111.28,0,118.83,27.13,118.83,27.13,118.83Z"/><path class="cls-4" d="M45.78,176.24s-26.39,9.84-21.95,15.95S45.78,176.24,45.78,176.24Z"/><path class="cls-4" d="M94.62,211.72s-15.56,23.47-8.38,25.8S94.62,211.72,94.62,211.72Z"/><path class="cls-4" d="M155,211.72s1.21,28.13,8.38,25.8S155,211.72,155,211.72Z"/><path class="cls-4" d="M203.82,176.24s17.51,22.05,21.95,15.95S203.82,176.24,203.82,176.24Z"/><path class="cls-4" d="M222.47,118.83s27.13,7.55,27.13,0S222.47,118.83,222.47,118.83Z"/><path class="cls-4" d="M203.82,61.42s26.39-9.84,21.95-15.95S203.82,61.42,203.82,61.42Z"/><path class="cls-4" d="M155,25.94S170.54,2.47,163.37.14,155,25.94,155,25.94Z"/></g></g></svg>