<svg xmlns="http://www.w3.org/2000/svg" viewBox="0 0 50.42 50.43"><defs><style>.cls-1{fill:#fff;}</style></defs><title>circular</title><g id="Capa_2" data-name="Capa 2"><g id="_14" data-name="14"><path class="cls-1" d="M48.38,15.41c-2.74-6-6.75-10.24-12-12.76A24.1,24.1,0,0,0,24.15,0a23.17,23.17,0,0,0-3.37.32,24.76,24.76,0,0,0-8.5,3c-.33.19-.5.37-.5.57C3.41,9.41-.59,17.3.07,27.36a25.16,25.16,0,0,0,.47,3.42c-.11.13-.12.35,0,.71A25.08,25.08,0,0,0,7,43a23.35,23.35,0,0,0,8.48,5.6l.46.16a26.34,26.34,0,0,0,2.73.9,1.42,1.42,0,0,0,.51.06c7.95,1.89,15.35.16,22.06-5.3a23.51,23.51,0,0,0,5.17-5.84c.15,0,.3-.18.47-.47a25.09,25.09,0,0,0,3.51-12.73A23.35,23.35,0,0,0,48.38,15.41ZM36.22,43.14A21.23,21.23,0,0,1,19,45.53a2.91,2.91,0,0,0-.44-.18A21,21,0,0,1,4,25.29a20.9,20.9,0,0,1,.27-3.66,21.22,21.22,0,0,1,25.61-17l.65.16a21.06,21.06,0,0,1,9.34,5.45A20.87,20.87,0,0,1,42.29,13,21.22,21.22,0,0,1,36.22,43.14Z"/><path class="cls-1" d="M33.51,14.47a14.87,14.87,0,0,0-2.32-1.41l-.35-.16-.2-.09A13.45,13.45,0,0,0,22,12,13.61,13.61,0,0,0,11.7,27.16a13.15,13.15,0,0,0,4.35,8.17c.3.28.68.58,1.07.88A13.61,13.61,0,1,0,33.51,14.47ZM19,32.4a7.63,7.63,0,0,0-1.21-1.06,8.91,8.91,0,0,1-2.17-5.61,9.46,9.46,0,0,1,8.51-10,2.41,2.41,0,0,0,.51,0,9.44,9.44,0,0,1,4.62.76l.48.24.2.11a9.92,9.92,0,0,1,1.39,1l.06.05q.3.25.58.52l.14.14a8.52,8.52,0,0,1,2.57,6.17,7.2,7.2,0,0,0,.17,1.87,10.1,10.1,0,0,1-3.06,5.82C28.34,35.74,22.24,35.86,19,32.4Z"/></g></g></svg>