<svg xmlns="http://www.w3.org/2000/svg" viewBox="0 0 228.64 93.59"><defs><style>.cls-1{isolation:isolate;}.cls-2{opacity:0.6;mix-blend-mode:overlay;}.cls-3{fill:#fff;}.cls-4{fill:#8f8f8f;}.cls-5{fill:#3764cb;}</style></defs><title>a_11</title><g class="cls-1"><g id="Capa_2" data-name="Capa 2"><g id="Capa_1-2" data-name="Capa 1"><g class="cls-2"><rect y="14.97" width="224.84" height="78.63" rx="10.15" ry="10.15"/></g><rect class="cls-3" width="228.64" height="88.73" rx="10.39" ry="10.39"/><path class="cls-4" d="M19.7,30.6a3.31,3.31,0,0,0-2.93-1.42A3.51,3.51,0,0,0,13,32.9a3.46,3.46,0,0,0,3.63,3.62,3.39,3.39,0,0,0,3-1.34l.95.45a4.62,4.62,0,0,1-3.86,2,4.42,4.42,0,0,1-4.78-4.65,4.51,4.51,0,0,1,4.86-4.75,4.41,4.41,0,0,1,3.89,2Z"/><path class="cls-4" d="M27.2,37.46l0-1.24h0a2.43,2.43,0,0,1-2.36,1.38,2.35,2.35,0,0,1-2.63-2.5V30.87h1V35A1.6,1.6,0,0,0,25,36.67a2,2,0,0,0,2.12-2.16V30.87h1v6.59Z"/><path class="cls-4" d="M31.35,36.11c0,.24,0,.46,0,.69s0,.45,0,.66h-1V28.31h1v2.94c0,.3,0,.88,0,.88a2.92,2.92,0,0,1,2.58-1.42c2.07,0,3.21,1.44,3.21,3.46a3.13,3.13,0,0,1-3.27,3.42A2.81,2.81,0,0,1,31.35,36.11Zm0-1.93a2.32,2.32,0,0,0,2.39,2.5,2.29,2.29,0,0,0,2.28-2.53,2.34,2.34,0,1,0-4.67,0Z"/><path class="cls-4" d="M42.33,31.71c-2,0-2.36,1.58-2.36,3.13v2.62h-1V30.87h1c0,.58,0,1.12-.05,1.66a2.57,2.57,0,0,1,2.43-1.81Z"/><path class="cls-4" d="M43.68,28.79a.51.51,0,0,1,.54-.53.5.5,0,0,1,.53.53v.62a.5.5,0,0,1-.53.51.51.51,0,0,1-.54-.51Zm0,8.67V30.87h1v6.59Z"/><path class="cls-4" d="M50.33,31.71c-2,0-2.36,1.58-2.36,3.13v2.62h-1V30.87h1c0,.58,0,1.12-.05,1.66a2.57,2.57,0,0,1,2.43-1.81Z"/><path class="cls-4" d="M54.52,38.18A4.37,4.37,0,0,0,57,39a2.21,2.21,0,0,0,2.53-2.32V35.9a2.85,2.85,0,0,1-2.54,1.5,3.08,3.08,0,0,1-3.2-3.28,3.17,3.17,0,0,1,3.32-3.4,2.66,2.66,0,0,1,2.43,1.47s0-.88,0-1.31h1v5.91c0,1.92-1.27,3.11-3.39,3.11a5.11,5.11,0,0,1-2.89-.9C54.27,38.72,54.43,38.45,54.52,38.18Zm.28-4.08A2.21,2.21,0,0,0,57,36.51a2.26,2.26,0,0,0,2.34-2.38,2.3,2.3,0,1,0-4.58,0Z"/><path class="cls-4" d="M68,37.46V36.1a2.65,2.65,0,0,1-2.52,1.49,3.16,3.16,0,0,1-3.25-3.4,3.22,3.22,0,0,1,3.33-3.47,2.85,2.85,0,0,1,2.49,1.44s0-.84,0-1.28h1v6.59Zm-4.74-3.28a2.26,2.26,0,0,0,2.29,2.5,2.35,2.35,0,0,0,2.4-2.5,2.27,2.27,0,0,0-2.4-2.54A2.34,2.34,0,0,0,63.28,34.18Z"/><path class="cls-4" d="M70.81,35.38l1.05,0c0,.9.69,1.43,1.93,1.43.8,0,1.73-.36,1.73-1.16,0-1.73-4.55-.24-4.55-3,0-1.2,1.28-1.93,2.65-1.93,1.86,0,2.75.84,2.86,2.19L75.43,33c-.07-.89-.67-1.38-1.84-1.38-.84,0-1.62.42-1.62,1.11,0,1.63,4.58.27,4.58,2.92,0,1.36-1.4,2-2.81,2C71.83,37.59,70.87,36.79,70.81,35.38Z"/><path class="cls-4" d="M83.79,37.46V36.1a2.65,2.65,0,0,1-2.52,1.49A3.16,3.16,0,0,1,78,34.18a3.22,3.22,0,0,1,3.34-3.47,2.85,2.85,0,0,1,2.48,1.44s0-.84,0-1.28h1v6.59Zm-4.74-3.28a2.26,2.26,0,0,0,2.3,2.5,2.35,2.35,0,0,0,2.4-2.5,2.27,2.27,0,0,0-2.4-2.54A2.34,2.34,0,0,0,79.05,34.18Z"/><path class="cls-4" d="M86.58,35.38l1.05,0c0,.9.69,1.43,1.93,1.43.8,0,1.73-.36,1.73-1.16,0-1.73-4.55-.24-4.55-3,0-1.2,1.28-1.93,2.65-1.93,1.86,0,2.75.84,2.86,2.19L91.2,33c-.07-.89-.67-1.38-1.84-1.38-.84,0-1.62.42-1.62,1.11,0,1.63,4.58.27,4.58,2.92,0,1.36-1.4,2-2.81,2C87.6,37.59,86.65,36.79,86.58,35.38Z"/><path class="cls-4" d="M94.64,39.45l-1-.35c.22-.51.42-1,.62-1.55a2.76,2.76,0,0,0,.12-1.09V36h1.12v.54a3,3,0,0,1-.17,1.22Z"/><path class="cls-4" d="M105.79,37.46V36.1a2.65,2.65,0,0,1-2.52,1.49,3.16,3.16,0,0,1-3.25-3.4,3.22,3.22,0,0,1,3.34-3.47,2.85,2.85,0,0,1,2.48,1.44s0-.84,0-1.28h1v6.59ZM101,34.18a2.26,2.26,0,0,0,2.3,2.5,2.35,2.35,0,0,0,2.4-2.5,2.27,2.27,0,0,0-2.4-2.54A2.34,2.34,0,0,0,101,34.18Z"/><path class="cls-4" d="M109.91,36.15c0,.51,0,1,0,1.54v2.08h-1v-8.9h1v.61c0,.24,0,.73,0,.73a2.93,2.93,0,0,1,2.57-1.5,3.13,3.13,0,0,1,3.23,3.46,3.14,3.14,0,0,1-3.27,3.46A2.69,2.69,0,0,1,109.91,36.15Zm.05-2a2.26,2.26,0,0,0,2.38,2.58,2.31,2.31,0,0,0,2.3-2.54,2.31,2.31,0,0,0-2.28-2.54A2.34,2.34,0,0,0,110,34.14Z"/><path class="cls-4" d="M117.13,34.17a3.42,3.42,0,1,1,6.85,0,3.42,3.42,0,1,1-6.85,0Zm1,0a2.32,2.32,0,0,0,2.42,2.53A2.36,2.36,0,0,0,123,34.17a2.43,2.43,0,1,0-4.85,0ZM122,27.48c.23.24.43.5.65.74l-2.24,1.94c-.19-.2-.37-.42-.54-.62Z"/><path class="cls-4" d="M125.4,35.38l1.05,0c0,.9.69,1.43,1.93,1.43.8,0,1.73-.36,1.73-1.16,0-1.73-4.55-.24-4.55-3,0-1.2,1.28-1.93,2.65-1.93,1.86,0,2.75.84,2.86,2.19L130,33c-.07-.89-.67-1.38-1.84-1.38-.84,0-1.62.42-1.62,1.11,0,1.63,4.58.27,4.58,2.92,0,1.36-1.4,2-2.81,2C126.43,37.59,125.47,36.79,125.4,35.38Z"/><path class="cls-4" d="M133,28.79a.51.51,0,0,1,.54-.53.5.5,0,0,1,.53.53v.62a.5.5,0,0,1-.53.51.51.51,0,0,1-.54-.51Zm0,8.67V30.87h1v6.59Z"/><path class="cls-4" d="M137.91,31.74v4.39c0,.31.19.57.74.57a1.88,1.88,0,0,0,.77-.16v.77a2.55,2.55,0,0,1-1.27.3,1.15,1.15,0,0,1-1.28-1.11V31.74h-1.27v-.86h1.27v-1.7h1v1.7h1.51v.86Z"/><path class="cls-4" d="M140.47,34.17a3.42,3.42,0,1,1,6.85,0,3.42,3.42,0,1,1-6.85,0Zm1,0a2.32,2.32,0,0,0,2.42,2.53,2.36,2.36,0,0,0,2.43-2.53,2.43,2.43,0,1,0-4.85,0Z"/><path class="cls-4" d="M148.74,35.38l1.05,0c0,.9.69,1.43,1.93,1.43.8,0,1.73-.36,1.73-1.16,0-1.73-4.55-.24-4.55-3,0-1.2,1.28-1.93,2.65-1.93,1.86,0,2.75.84,2.86,2.19l-1.05.07c-.07-.89-.67-1.38-1.84-1.38-.84,0-1.62.42-1.62,1.11,0,1.63,4.58.27,4.58,2.92,0,1.36-1.4,2-2.81,2C149.77,37.59,148.81,36.79,148.74,35.38Z"/><path class="cls-4" d="M158.63,34.17a3.42,3.42,0,1,1,6.85,0,3.42,3.42,0,1,1-6.85,0Zm1,0A2.32,2.32,0,0,0,162,36.69a2.36,2.36,0,0,0,2.43-2.53,2.43,2.43,0,1,0-4.85,0Z"/><path class="cls-4" d="M12.43,42.29a.51.51,0,0,1,.54-.53.5.5,0,0,1,.53.53v.62a.5.5,0,0,1-.53.51.51.51,0,0,1-.54-.51Zm0,8.67V44.37h1V51Z"/><path class="cls-4" d="M20.68,51V46.75c0-1-.68-1.63-1.85-1.63a2,2,0,0,0-2.11,2.05V51h-1V44.37h1c0,.39,0,.78,0,1.17h0a2.51,2.51,0,0,1,2.39-1.35,2.33,2.33,0,0,1,2.62,2.28V51Z"/><path class="cls-4" d="M32.74,51V46.75a1.42,1.42,0,0,0-1.58-1.63,1.76,1.76,0,0,0-1.82,1.76V51h-1V46.75a1.45,1.45,0,0,0-1.63-1.63,1.43,1.43,0,0,0-.65.16c-.95.3-1.12,1.27-1.12,2.16V51h-1V44.37h1c0,.39,0,.8,0,1.19h0A2,2,0,0,1,27,44.25a2.08,2.08,0,0,1,2.13,1.35,2.32,2.32,0,0,1,2.28-1.39,2.08,2.08,0,0,1,2.36,2.28V51Z"/><path class="cls-4" d="M35.52,47.67a3.25,3.25,0,0,1,3.42-3.46,3.44,3.44,0,0,1,0,6.89A3.25,3.25,0,0,1,35.52,47.67Zm1,0a2.32,2.32,0,0,0,2.42,2.53,2.36,2.36,0,0,0,2.43-2.53,2.43,2.43,0,1,0-4.85,0Z"/><path class="cls-4" d="M47.08,51h-1L43,44.37h1.23l2.39,5.47,2.19-5.47h1.12Z"/><path class="cls-4" d="M51.29,42.29a.51.51,0,0,1,.54-.53.5.5,0,0,1,.53.53v.62a.5.5,0,0,1-.53.51.51.51,0,0,1-.54-.51Zm0,8.67V44.37h1V51Z"/><path class="cls-4" d="M54.52,51V41.81h1V51Z"/><path class="cls-4" d="M57.72,42.29a.51.51,0,0,1,.54-.53.5.5,0,0,1,.53.53v.62a.5.5,0,0,1-.53.51.51.51,0,0,1-.54-.51Zm0,8.67V44.37h1V51Z"/><path class="cls-4" d="M60.37,51v-.8l4.35-4.9h-4v-.89h5.5v.78l-4.36,4.92h4.56V51Z"/><path class="cls-4" d="M73.08,51V49.6a2.65,2.65,0,0,1-2.52,1.49,3.16,3.16,0,0,1-3.25-3.4,3.22,3.22,0,0,1,3.33-3.47,2.85,2.85,0,0,1,2.49,1.44s0-.84,0-1.28h1V51Zm-4.74-3.28a2.26,2.26,0,0,0,2.29,2.5,2.35,2.35,0,0,0,2.4-2.5,2.27,2.27,0,0,0-2.4-2.54A2.34,2.34,0,0,0,68.34,47.68Z"/><path class="cls-4" d="M79.6,45.21c-2,0-2.36,1.58-2.36,3.13V51h-1V44.37h1c0,.58,0,1.12-.05,1.66a2.57,2.57,0,0,1,2.43-1.81Z"/><path class="cls-4" d="M88.79,51V49.6a2.65,2.65,0,0,1-2.52,1.49A3.16,3.16,0,0,1,83,47.68a3.22,3.22,0,0,1,3.33-3.47,2.85,2.85,0,0,1,2.49,1.44s0-.84,0-1.28h1V51Zm-4.74-3.28a2.26,2.26,0,0,0,2.29,2.5,2.35,2.35,0,0,0,2.4-2.5,2.27,2.27,0,0,0-2.4-2.54A2.34,2.34,0,0,0,84.05,47.68Z"/><path class="cls-4" d="M91.9,51V41.81h1V51Z"/><path class="cls-4" d="M95.51,51.68a4.37,4.37,0,0,0,2.43.81,2.21,2.21,0,0,0,2.53-2.32v-.77a2.85,2.85,0,0,1-2.54,1.5,3.08,3.08,0,0,1-3.2-3.28,3.17,3.17,0,0,1,3.32-3.4,2.66,2.66,0,0,1,2.43,1.47s0-.88,0-1.31h1v5.91c0,1.92-1.27,3.11-3.39,3.11a5.11,5.11,0,0,1-2.89-.9C95.26,52.22,95.42,51.95,95.51,51.68Zm.28-4.08A2.21,2.21,0,0,0,98,50a2.26,2.26,0,0,0,2.34-2.38,2.3,2.3,0,1,0-4.58,0Z"/><path class="cls-4" d="M108.64,51l0-1.24h0a2.43,2.43,0,0,1-2.36,1.38,2.35,2.35,0,0,1-2.63-2.5V44.37h1v4.1a1.6,1.6,0,0,0,1.82,1.69A2,2,0,0,0,108.58,48V44.37h1V51Z"/><path class="cls-4" d="M116.78,51V46.75c0-1-.68-1.63-1.85-1.63a2,2,0,0,0-2.11,2.05V51h-1V44.37h1c0,.39,0,.78,0,1.17h0a2.51,2.51,0,0,1,2.39-1.35,2.33,2.33,0,0,1,2.62,2.28V51Z"/><path class="cls-4" d="M125.32,51V49.6a2.65,2.65,0,0,1-2.52,1.49,3.16,3.16,0,0,1-3.25-3.4,3.22,3.22,0,0,1,3.34-3.47,2.85,2.85,0,0,1,2.48,1.44s0-.84,0-1.28h1V51Zm-4.74-3.28a2.26,2.26,0,0,0,2.3,2.5,2.35,2.35,0,0,0,2.4-2.5,2.27,2.27,0,0,0-2.4-2.54A2.34,2.34,0,0,0,120.58,47.68Z"/><path class="cls-4" d="M130.48,51v-.8l4.35-4.9h-4v-.89h5.5v.78l-4.36,4.92h4.56V51Z"/><path class="cls-4" d="M137.4,47.67a3.42,3.42,0,1,1,3.4,3.43A3.25,3.25,0,0,1,137.4,47.67Zm1,0a2.32,2.32,0,0,0,2.42,2.53,2.36,2.36,0,0,0,2.43-2.53,2.43,2.43,0,1,0-4.85,0Z"/><path class="cls-4" d="M151.07,51V46.75c0-1-.68-1.63-1.85-1.63a2,2,0,0,0-2.11,2.05V51h-1V44.37h1c0,.39,0,.78,0,1.17h0a2.51,2.51,0,0,1,2.39-1.35,2.33,2.33,0,0,1,2.62,2.28V51Z"/><path class="cls-4" d="M159.62,51V49.6a2.65,2.65,0,0,1-2.52,1.49,3.16,3.16,0,0,1-3.25-3.4,3.22,3.22,0,0,1,3.34-3.47,2.85,2.85,0,0,1,2.48,1.44s0-.84,0-1.28h1V51Zm-4.74-3.28a2.26,2.26,0,0,0,2.3,2.5,2.35,2.35,0,0,0,2.4-2.5,2.27,2.27,0,0,0-2.4-2.54A2.34,2.34,0,0,0,154.88,47.68Z"/><path class="cls-4" d="M170.63,51V49.61a2.83,2.83,0,0,1-2.57,1.49,3.14,3.14,0,0,1-3.21-3.44,3.17,3.17,0,0,1,3.25-3.47,2.91,2.91,0,0,1,2.57,1.44s0-1,0-1.54V41.81h1V51Zm-4.73-3.31a2.27,2.27,0,0,0,2.29,2.54,2.38,2.38,0,0,0,2.4-2.54,2.28,2.28,0,0,0-2.4-2.55A2.34,2.34,0,0,0,165.9,47.65Z"/><path class="cls-4" d="M174.48,47.94a2.13,2.13,0,0,0,2.35,2.24,2.24,2.24,0,0,0,2.23-1.43L180,49a3.41,3.41,0,0,1-6.55-1.31,3.26,3.26,0,0,1,3.4-3.47c2.27,0,3.29,1.53,3.29,3.71Zm0-.68h4.66a2.13,2.13,0,0,0-2.31-2.12A2.22,2.22,0,0,0,174.48,47.26Z"/><path class="cls-4" d="M181.95,51V41.81h1V51Z"/><path class="cls-4" d="M12,61.23a3.27,3.27,0,0,1,3.48-3.52,2.85,2.85,0,0,1,3,2.16l-.95.28a1.93,1.93,0,0,0-2.11-1.51A2.34,2.34,0,0,0,13,61.23a2.22,2.22,0,0,0,2.34,2.44,2.46,2.46,0,0,0,2.28-1.54l.92.2a3,3,0,0,1-3.19,2.24A3.15,3.15,0,0,1,12,61.23Z"/><path class="cls-4" d="M25.24,64.46l0-1.24h0a2.43,2.43,0,0,1-2.36,1.38,2.35,2.35,0,0,1-2.63-2.5V57.87h1V62A1.6,1.6,0,0,0,23,63.66a2,2,0,0,0,2.12-2.16V57.87h1v6.59Z"/><path class="cls-4" d="M29,61.43a2.13,2.13,0,0,0,2.35,2.24,2.24,2.24,0,0,0,2.23-1.43l.95.24a3.12,3.12,0,0,1-3.2,2.09A3.13,3.13,0,0,1,28,61.18a3.26,3.26,0,0,1,3.4-3.47c2.27,0,3.29,1.53,3.29,3.71Zm0-.68h4.66a2.13,2.13,0,0,0-2.31-2.12A2.22,2.22,0,0,0,29,60.76Z"/><path class="cls-4" d="M39.86,58.7c-2,0-2.36,1.58-2.36,3.13v2.62h-1V57.87h1c0,.58,0,1.12-.05,1.66a2.57,2.57,0,0,1,2.43-1.81Z"/><path class="cls-4" d="M42.23,63.15c0,.51,0,1,0,1.54v2.08h-1v-8.9h1v.61c0,.24,0,.73,0,.73a2.93,2.93,0,0,1,2.57-1.5A3.13,3.13,0,0,1,48,61.16a3.14,3.14,0,0,1-3.27,3.46A2.69,2.69,0,0,1,42.23,63.15Zm.05-2a2.26,2.26,0,0,0,2.38,2.58,2.55,2.55,0,0,0,0-5.08A2.34,2.34,0,0,0,42.28,61.14Z"/><path class="cls-4" d="M49.44,61.16a3.42,3.42,0,1,1,3.4,3.43A3.25,3.25,0,0,1,49.44,61.16Zm1,0a2.32,2.32,0,0,0,2.42,2.53,2.36,2.36,0,0,0,2.43-2.53,2.43,2.43,0,1,0-4.85,0Z"/><path class="cls-4" d="M66,66.77V64c0-.28,0-.85,0-.85a2.87,2.87,0,0,1-2.59,1.49,3.47,3.47,0,0,1,0-6.91,2.82,2.82,0,0,1,2.58,1.5c0-.42,0-.88,0-1.34h1v8.9Zm-4.7-5.59a2.31,2.31,0,0,0,2.27,2.54A2.39,2.39,0,0,0,66,61.18a2.34,2.34,0,0,0-2.42-2.54A2.3,2.3,0,0,0,61.33,61.18Z"/><path class="cls-4" d="M74.29,64.46l0-1.24h0a2.43,2.43,0,0,1-2.36,1.38,2.35,2.35,0,0,1-2.63-2.5V57.87h1V62a1.6,1.6,0,0,0,1.82,1.69,2,2,0,0,0,2.12-2.16V57.87h1v6.59Z"/><path class="cls-4" d="M78.05,61.43a2.13,2.13,0,0,0,2.35,2.24,2.24,2.24,0,0,0,2.23-1.43l.95.24A3.41,3.41,0,0,1,77,61.18a3.26,3.26,0,0,1,3.4-3.47c2.27,0,3.29,1.53,3.29,3.71Zm0-.68h4.66a2.13,2.13,0,0,0-2.31-2.12A2.22,2.22,0,0,0,78.05,60.76Z"/><path class="cls-4" d="M87.85,62.38l1.05,0c0,.9.69,1.43,1.93,1.43.8,0,1.73-.36,1.73-1.16,0-1.73-4.55-.24-4.55-3,0-1.2,1.28-1.93,2.65-1.93,1.86,0,2.75.84,2.86,2.19L92.47,60c-.07-.89-.67-1.38-1.84-1.38-.84,0-1.62.42-1.62,1.11,0,1.63,4.58.27,4.58,2.92,0,1.36-1.4,2-2.81,2C88.88,64.58,87.92,63.78,87.85,62.38Z"/><path class="cls-4" d="M96.08,61.43a2.13,2.13,0,0,0,2.35,2.24,2.24,2.24,0,0,0,2.23-1.43l.95.24a3.41,3.41,0,0,1-6.55-1.31,3.26,3.26,0,0,1,3.4-3.47c2.27,0,3.29,1.53,3.29,3.71Zm0-.68h4.66a2.13,2.13,0,0,0-2.31-2.12A2.22,2.22,0,0,0,96.08,60.76Z"/><path class="cls-4" d="M105.88,62.38l1.05,0c0,.9.69,1.43,1.93,1.43.8,0,1.73-.36,1.73-1.16,0-1.73-4.55-.24-4.55-3,0-1.2,1.28-1.93,2.65-1.93,1.86,0,2.75.84,2.86,2.19L110.5,60c-.07-.89-.67-1.38-1.84-1.38-.84,0-1.62.42-1.62,1.11,0,1.63,4.58.27,4.58,2.92,0,1.36-1.4,2-2.81,2C106.9,64.58,105.95,63.78,105.88,62.38Z"/><path class="cls-4" d="M113.09,61.16a3.42,3.42,0,1,1,3.4,3.43A3.25,3.25,0,0,1,113.09,61.16Zm1,0a2.32,2.32,0,0,0,2.42,2.53,2.36,2.36,0,0,0,2.43-2.53,2.43,2.43,0,1,0-4.85,0Z"/><path class="cls-4" d="M121.37,62.38l1.05,0c0,.9.69,1.43,1.93,1.43.8,0,1.73-.36,1.73-1.16,0-1.73-4.55-.24-4.55-3,0-1.2,1.28-1.93,2.65-1.93,1.86,0,2.75.84,2.86,2.19L126,60c-.07-.89-.67-1.38-1.84-1.38-.84,0-1.62.42-1.62,1.11,0,1.63,4.58.27,4.58,2.92,0,1.36-1.4,2-2.81,2C122.39,64.58,121.43,63.78,121.37,62.38Z"/><path class="cls-4" d="M130,63.15c0,.51,0,1,0,1.54v2.08h-1v-8.9h1v.61c0,.24,0,.73,0,.73a2.93,2.93,0,0,1,2.57-1.5,3.13,3.13,0,0,1,3.23,3.46,3.14,3.14,0,0,1-3.27,3.46A2.69,2.69,0,0,1,130,63.15Zm.05-2a2.26,2.26,0,0,0,2.38,2.58,2.55,2.55,0,0,0,0-5.08A2.34,2.34,0,0,0,130.06,61.14Z"/><path class="cls-4" d="M138.25,61.43a2.13,2.13,0,0,0,2.35,2.24,2.24,2.24,0,0,0,2.23-1.43l.95.24a3.41,3.41,0,0,1-6.55-1.31,3.26,3.26,0,0,1,3.4-3.47c2.27,0,3.29,1.53,3.29,3.71Zm0-.68h4.66a2.13,2.13,0,0,0-2.31-2.12A2.22,2.22,0,0,0,138.25,60.76Z"/><path class="cls-4" d="M145.36,61.23a3.27,3.27,0,0,1,3.48-3.52,2.85,2.85,0,0,1,3,2.16l-.95.28a1.93,1.93,0,0,0-2.11-1.51,2.34,2.34,0,0,0-2.42,2.59,2.22,2.22,0,0,0,2.34,2.44A2.46,2.46,0,0,0,151,62.13l.92.2a3,3,0,0,1-3.19,2.24A3.15,3.15,0,0,1,145.36,61.23Z"/><path class="cls-4" d="M158.61,64.46v-4.2a1.65,1.65,0,0,0-1.85-1.65c-1.55,0-2.11,1-2.11,2.4v3.44h-1V55.3h1V58c0,.55,0,.58,0,1.05h0A2.55,2.55,0,0,1,157,57.71,2.36,2.36,0,0,1,159.64,60v4.44Z"/><path class="cls-4" d="M162.4,61.43a2.13,2.13,0,0,0,2.35,2.24A2.24,2.24,0,0,0,167,62.24l.95.24a3.41,3.41,0,0,1-6.55-1.31,3.26,3.26,0,0,1,3.4-3.47c2.27,0,3.29,1.53,3.29,3.71Zm0-.68h4.66a2.13,2.13,0,0,0-2.31-2.12A2.22,2.22,0,0,0,162.4,60.76Z"/><path class="cls-4" d="M177.84,64.46V63.11a2.83,2.83,0,0,1-2.57,1.49,3.14,3.14,0,0,1-3.21-3.44,3.17,3.17,0,0,1,3.25-3.47,2.91,2.91,0,0,1,2.57,1.44s0-1,0-1.54V55.3h1v9.16Zm-4.73-3.31a2.27,2.27,0,0,0,2.29,2.54,2.38,2.38,0,0,0,2.4-2.54,2.28,2.28,0,0,0-2.4-2.55A2.34,2.34,0,0,0,173.11,61.15Z"/><path class="cls-4" d="M181.69,61.43A2.13,2.13,0,0,0,184,63.67a2.24,2.24,0,0,0,2.23-1.43l.95.24a3.41,3.41,0,0,1-6.55-1.31,3.26,3.26,0,0,1,3.4-3.47c2.27,0,3.29,1.53,3.29,3.71Zm0-.68h4.66A2.13,2.13,0,0,0,184,58.64,2.22,2.22,0,0,0,181.69,60.76Z"/><path class="cls-4" d="M13.46,76.64c0,.51,0,1,0,1.54v2.08h-1v-8.9h1V72c0,.24,0,.73,0,.73A2.93,2.93,0,0,1,16,71.2a3.46,3.46,0,0,1,0,6.91A2.69,2.69,0,0,1,13.46,76.64Zm.05-2a2.26,2.26,0,0,0,2.38,2.58,2.55,2.55,0,0,0,0-5.08A2.34,2.34,0,0,0,13.51,74.63Z"/><path class="cls-4" d="M20.68,74.66a3.25,3.25,0,0,1,3.42-3.46,3.44,3.44,0,0,1,0,6.89A3.25,3.25,0,0,1,20.68,74.66Zm1,0a2.32,2.32,0,0,0,2.42,2.53,2.36,2.36,0,0,0,2.43-2.53,2.29,2.29,0,0,0-2.43-2.54A2.31,2.31,0,0,0,21.68,74.66Z"/><path class="cls-4" d="M29,75.87l1.05,0c0,.9.69,1.43,1.93,1.43.8,0,1.73-.36,1.73-1.16,0-1.73-4.55-.24-4.55-3,0-1.2,1.28-1.93,2.65-1.93,1.86,0,2.75.84,2.86,2.19l-1.05.07c-.07-.89-.67-1.38-1.84-1.38-.84,0-1.62.42-1.62,1.11,0,1.63,4.58.27,4.58,2.92,0,1.36-1.4,2-2.81,2C30,78.08,29,77.28,29,75.87Z"/><path class="cls-4" d="M36.58,69.28a.51.51,0,0,1,.54-.53.5.5,0,0,1,.53.53v.62a.5.5,0,0,1-.53.51.51.51,0,0,1-.54-.51Zm0,8.67V71.36h1V78Z"/><path class="cls-4" d="M40.84,76.6c0,.24,0,.46,0,.69s0,.45,0,.66h-1V68.8h1v2.94c0,.3,0,.88,0,.88a2.92,2.92,0,0,1,2.58-1.42c2.07,0,3.21,1.44,3.21,3.46a3.13,3.13,0,0,1-3.27,3.42A2.81,2.81,0,0,1,40.84,76.6Zm0-1.93a2.32,2.32,0,0,0,2.39,2.5,2.29,2.29,0,0,0,2.28-2.53,2.34,2.34,0,1,0-4.67,0Z"/><path class="cls-4" d="M48.42,78V68.8h1V78Z"/><path class="cls-4" d="M52.28,74.93a2.13,2.13,0,0,0,2.35,2.24,2.24,2.24,0,0,0,2.23-1.43l.95.24a3.41,3.41,0,0,1-6.55-1.31,3.26,3.26,0,0,1,3.4-3.47c2.27,0,3.29,1.53,3.29,3.71Zm0-.68h4.66a2.13,2.13,0,0,0-2.31-2.12A2.22,2.22,0,0,0,52.28,74.25Z"/><path class="cls-4" d="M63.78,71.36h1.75v.86H63.78V78h-1V72.23h-.95v-.86h.95v-.28c0-1.38.95-2.38,2.69-2.38a7,7,0,0,1,.88.07v.89a6.8,6.8,0,0,0-.82-.05c-1.12,0-1.7.58-1.7,1.53Z"/><path class="cls-4" d="M70.43,72.2c-2,0-2.36,1.58-2.36,3.13V78H67V71.36h1c0,.58,0,1.12-.05,1.66a2.57,2.57,0,0,1,2.43-1.81Z"/><path class="cls-4" d="M77,78V76.59a2.65,2.65,0,0,1-2.52,1.49,3.16,3.16,0,0,1-3.25-3.4,3.22,3.22,0,0,1,3.34-3.47,2.85,2.85,0,0,1,2.48,1.44s0-.84,0-1.28h1V78Zm-4.74-3.28a2.26,2.26,0,0,0,2.3,2.5,2.35,2.35,0,0,0,2.4-2.5,2.27,2.27,0,0,0-2.4-2.54A2.34,2.34,0,0,0,72.27,74.67Z"/><path class="cls-4" d="M79.73,74.73a3.27,3.27,0,0,1,3.48-3.52,2.85,2.85,0,0,1,3,2.16l-.95.28a1.93,1.93,0,0,0-2.11-1.51,2.34,2.34,0,0,0-2.42,2.59,2.22,2.22,0,0,0,2.34,2.44,2.46,2.46,0,0,0,2.28-1.54l.92.2a3,3,0,0,1-3.19,2.24A3.15,3.15,0,0,1,79.73,74.73Z"/><path class="cls-4" d="M89.65,72.23v4.39c0,.31.19.57.74.57a1.88,1.88,0,0,0,.77-.16v.77a2.55,2.55,0,0,1-1.27.3A1.15,1.15,0,0,1,88.61,77V72.23H87.34v-.86h1.27v-1.7h1v1.7h1.51v.86Z"/><path class="cls-4" d="M97.78,78l0-1.24h0a2.43,2.43,0,0,1-2.36,1.38,2.35,2.35,0,0,1-2.63-2.5V71.36h1v4.1a1.6,1.6,0,0,0,1.82,1.69A2,2,0,0,0,97.72,75V71.36h1V78Z"/><path class="cls-4" d="M104.32,72.2c-2,0-2.36,1.58-2.36,3.13V78h-1V71.36h1c0,.58,0,1.12-.05,1.66a2.57,2.57,0,0,1,2.43-1.81Z"/><path class="cls-4" d="M110.9,78V76.59a2.65,2.65,0,0,1-2.52,1.49,3.16,3.16,0,0,1-3.25-3.4,3.22,3.22,0,0,1,3.34-3.47,2.85,2.85,0,0,1,2.48,1.44s0-.84,0-1.28h1V78Zm-4.74-3.28a2.26,2.26,0,0,0,2.3,2.5,2.35,2.35,0,0,0,2.4-2.5,2.27,2.27,0,0,0-2.4-2.54A2.34,2.34,0,0,0,106.16,74.67Z"/><path class="cls-5" d="M13.7,21.93,12,12.17H13.5l1.23,7.61L16,12.17H17.5l-1.78,9.76Z"/><path class="cls-5" d="M20.16,21.93V12.17h4.19v1.48H21.63v2.66h2v1.48h-2v2.66h2.72v1.48Z"/><path class="cls-5" d="M28.66,12.17l2,6.56V12.17h1.47v9.77H30.51l-2-6.25v6.25H27V12.17Z"/><path class="cls-5" d="M39.4,19.6a2.27,2.27,0,0,1-.68,1.65,2.22,2.22,0,0,1-1.64.69H34.77V12.17h2.31a2.21,2.21,0,0,1,1.64.69,2.26,2.26,0,0,1,.67,1.64Zm-3.15.88h.89a.79.79,0,0,0,.59-.25.83.83,0,0,0,.24-.6V14.52a.82.82,0,0,0-.25-.6.8.8,0,0,0-.59-.25h-.89Z"/><path class="cls-5" d="M43.8,19.69l-.36,2.24H41.91l1.66-9.76h2l1.63,9.76H45.68l-.34-2.24Zm.77-5.28L44,18.26h1.09Z"/><path class="cls-5" d="M52.45,21.93V12.17h4.19v1.48H53.93v2.66h2v1.48h-2v2.66h2.72v1.48Z"/><path class="cls-5" d="M63.32,21.93h-4V12.17h1.47v8.29h2.54Z"/><path class="cls-5" d="M67.87,19.69l-.36,2.24H66l1.66-9.76h2l1.63,9.76H69.76l-.34-2.24Zm.77-5.28-.54,3.85h1.09Z"/><path class="cls-5" d="M78.65,19.5a2.74,2.74,0,0,1-.53,1.74,1.91,1.91,0,0,1-1,.69,2.76,2.76,0,0,1-.82.11,2.31,2.31,0,0,1-1.43-.43,2.4,2.4,0,0,1-.75-1,3.87,3.87,0,0,1-.32-1.38l1.4-.1a2.13,2.13,0,0,0,.45,1.24.75.75,0,0,0,.61.27.91.91,0,0,0,.77-.48,1.18,1.18,0,0,0,.15-.65,1.8,1.8,0,0,0-.55-1.21L75.3,17.12a5.58,5.58,0,0,1-1-1.27,2.94,2.94,0,0,1-.33-1.37,2.39,2.39,0,0,1,.9-2A2.23,2.23,0,0,1,76.21,12a2.49,2.49,0,0,1,1.35.35,2,2,0,0,1,.71.76,2.81,2.81,0,0,1,.32,1.13l-1.41.26a1.7,1.7,0,0,0-.34-.93.72.72,0,0,0-.58-.24.67.67,0,0,0-.62.36,1.38,1.38,0,0,0-.17.72A2.15,2.15,0,0,0,76,15.81a4.88,4.88,0,0,0,.65.62q.51.43.68.6a5,5,0,0,1,.84,1.07,4.21,4.21,0,0,1,.23.46A2.68,2.68,0,0,1,78.65,19.5Z"/><path class="cls-5" d="M82.81,13.65H81.24V12.17h4.6v1.48H84.28v8.28H82.81Z"/><path class="cls-5" d="M90,21.93H88.5V12.17H90Z"/><path class="cls-5" d="M95,22.06a2.33,2.33,0,0,1-2.34-2.33V14.4a2.33,2.33,0,1,1,4.67,0v1.11H95.79V14.37a.85.85,0,0,0-.85-.85.81.81,0,0,0-.6.25.82.82,0,0,0-.25.6v5.34a.84.84,0,0,0,.84.84.82.82,0,0,0,.6-.25.8.8,0,0,0,.25-.6V18.37h1.53v1.36A2.33,2.33,0,0,1,95,22.06Z"/><path class="cls-5" d="M101.72,19.69l-.36,2.24H99.83l1.66-9.76h2l1.63,9.76H103.6l-.34-2.24Zm.77-5.28-.54,3.85H103Z"/><path class="cls-5" d="M115,19.6a2.27,2.27,0,0,1-.68,1.65,2.22,2.22,0,0,1-1.64.69h-2.31V12.17h2.31a2.21,2.21,0,0,1,1.64.69,2.26,2.26,0,0,1,.67,1.64Zm-3.15.88h.89a.79.79,0,0,0,.59-.25.83.83,0,0,0,.24-.6V14.52a.82.82,0,0,0-.25-.6.8.8,0,0,0-.59-.25h-.89Z"/><path class="cls-5" d="M117.67,21.93V12.17h4.19v1.48h-2.72v2.66h2v1.48h-2v2.66h2.72v1.48Z"/><path class="cls-5" d="M127.09,18.34l2.6-6.18h1.47v6.18h.94v1.48h-.94v2.1h-1.47v-2.1h-2.6Zm2.6,0V15.29l-1.22,3.05Z"/><path class="cls-5" d="M137.09,12.17a2.24,2.24,0,0,1,1.71.68,2.35,2.35,0,0,1,.59,1.65v1.42a2.27,2.27,0,0,1-.67,1.65,2.2,2.2,0,0,1-1.63.69h-.85v3.68h-1.47V12.17Zm.88,2.35a.84.84,0,0,0-.23-.62.82.82,0,0,0-.61-.23h-.89V16.8h.89a.8.8,0,0,0,.6-.25A.82.82,0,0,0,138,16Z"/><path class="cls-5" d="M146.06,21.93h-4V12.17h1.47v8.29h2.54Z"/><path class="cls-5" d="M151,22.06a2.33,2.33,0,0,1-2.34-2.33V14.4a2.33,2.33,0,1,1,4.67,0v1.11h-1.53V14.37a.85.85,0,0,0-.85-.85.81.81,0,0,0-.6.25.82.82,0,0,0-.25.6v5.34a.84.84,0,0,0,.84.84.83.83,0,0,0,.6-.24.8.8,0,0,0,.25-.59V17.8H151V16.32h2.34v3.41A2.33,2.33,0,0,1,151,22.06Z"/><path class="cls-5" d="M164,21.93h-1.58l-1.13-3.11-1.14,3.11h-1.58L160.5,17l-1.92-4.85h1.63l1.09,3,1.08-3H164L162.1,17Z"/><path class="cls-5" d="M170.86,13.64v2.09a1.42,1.42,0,0,1,.62-.48,1.3,1.3,0,0,1,.49-.09,1.61,1.61,0,0,1,1.43.68,2.91,2.91,0,0,1,.4,1.65v2.1a2.42,2.42,0,0,1-.69,1.78,2.21,2.21,0,0,1-1.65.67,2.08,2.08,0,0,1-1.6-.7,2.33,2.33,0,0,1-.62-1.64v-.23l1.41-.11,0,.33a.87.87,0,0,0,.47.78.59.59,0,0,0,.26.06q.9,0,.9-.94V17.21a.91.91,0,0,0-.31-.71.61.61,0,0,0-.42-.13.63.63,0,0,0-.58.3,1.09,1.09,0,0,0-.16.56v.26h-1.47V12.16h4.31v1.48Z"/><path class="cls-5" d="M181,17.84l-2-5.68h1.62l1.09,3.5,1.08-3.5h1.63l-2,5.68v4.09H181Z"/><path class="cls-5" d="M188.2,19.69l-.36,2.24h-1.53L188,12.17h2l1.63,9.76h-1.55l-.34-2.24Zm.77-5.28-.54,3.85h1.09Z"/><path class="cls-5" d="M196.62,12.17a2.24,2.24,0,0,1,1.81.68,2.46,2.46,0,0,1,.51,1.65v1.42a2.28,2.28,0,0,1-.79,1.75l1.09,4.26h-1.59l-.89-3.68h-1v3.68H194.3V12.17Zm.88,2.35a.75.75,0,0,0-.84-.85h-.89V16.8h.89a.8.8,0,0,0,.6-.25.82.82,0,0,0,.25-.6Z"/><path class="cls-5" d="M206.53,19.6a2.27,2.27,0,0,1-.68,1.65,2.22,2.22,0,0,1-1.64.69H201.9V12.17h2.31a2.21,2.21,0,0,1,1.64.69,2.26,2.26,0,0,1,.67,1.64Zm-3.15.88h.89a.79.79,0,0,0,.59-.25.83.83,0,0,0,.24-.6V14.52a.82.82,0,0,0-.25-.6.8.8,0,0,0-.59-.25h-.89Z"/><path class="cls-5" d="M210.92,19.69l-.36,2.24H209l1.66-9.76h2l1.63,9.76h-1.55l-.34-2.24Zm.77-5.28-.54,3.85h1.09Z"/><path class="cls-5" d="M221.7,19.5a2.74,2.74,0,0,1-.53,1.74,1.91,1.91,0,0,1-1,.69,2.76,2.76,0,0,1-.82.11,2.31,2.31,0,0,1-1.43-.43,2.4,2.4,0,0,1-.75-1,3.87,3.87,0,0,1-.32-1.38l1.4-.1a2.13,2.13,0,0,0,.45,1.24.75.75,0,0,0,.61.27.91.91,0,0,0,.77-.48,1.18,1.18,0,0,0,.15-.65,1.8,1.8,0,0,0-.55-1.21l-1.31-1.24a5.58,5.58,0,0,1-1-1.27,2.94,2.94,0,0,1-.33-1.37,2.39,2.39,0,0,1,.9-2,2.23,2.23,0,0,1,1.37-.41,2.49,2.49,0,0,1,1.35.35,2,2,0,0,1,.71.76,2.81,2.81,0,0,1,.32,1.13l-1.41.26a1.7,1.7,0,0,0-.34-.93.72.72,0,0,0-.58-.24.67.67,0,0,0-.62.36,1.38,1.38,0,0,0-.17.72,2.15,2.15,0,0,0,.58,1.36,4.88,4.88,0,0,0,.65.62q.51.43.68.6a5,5,0,0,1,.84,1.07,4.21,4.21,0,0,1,.23.46A2.68,2.68,0,0,1,221.7,19.5Z"/></g></g></g></svg>