<svg xmlns="http://www.w3.org/2000/svg" viewBox="0 0 228.64 57.59"><defs><style>.cls-1{isolation:isolate;}.cls-2{opacity:0.6;mix-blend-mode:overlay;}.cls-3{fill:#fff;}.cls-4{fill:#8f8f8f;}.cls-5{fill:#3764cb;}</style></defs><title>a_12</title><g class="cls-1"><g id="Capa_2" data-name="Capa 2"><g id="Capa_1-2" data-name="Capa 1"><g class="cls-2"><rect y="14.97" width="224.84" height="42.63" rx="10.15" ry="10.15"/></g><rect class="cls-3" width="228.64" height="52.73" rx="10.39" ry="10.39"/><path class="cls-4" d="M11.09,38.2V29h1.05v8.24h5.47v.92Z"/><path class="cls-4" d="M24.07,38.2V36.83a2.65,2.65,0,0,1-2.52,1.49,3.16,3.16,0,0,1-3.25-3.4,3.22,3.22,0,0,1,3.34-3.47,2.85,2.85,0,0,1,2.48,1.44s0-.84,0-1.28h1V38.2Zm-4.74-3.28a2.26,2.26,0,0,0,2.3,2.5,2.35,2.35,0,0,0,2.4-2.5,2.27,2.27,0,0,0-2.4-2.54A2.34,2.34,0,0,0,19.33,34.92Z"/><path class="cls-4" d="M30.24,38.2h-1l-3.11-6.59H27.4l2.39,5.47L32,31.61H33.1Z"/><path class="cls-4" d="M39.37,38.2V36.83a2.65,2.65,0,0,1-2.52,1.49,3.16,3.16,0,0,1-3.25-3.4,3.22,3.22,0,0,1,3.33-3.47,2.85,2.85,0,0,1,2.49,1.44s0-.84,0-1.28h1V38.2Zm-4.74-3.28a2.26,2.26,0,0,0,2.29,2.5,2.35,2.35,0,0,0,2.4-2.5,2.27,2.27,0,0,0-2.4-2.54A2.34,2.34,0,0,0,34.63,34.92Z"/><path class="cls-4" d="M47.72,38.2V36.85a2.83,2.83,0,0,1-2.57,1.49,3.14,3.14,0,0,1-3.21-3.44,3.17,3.17,0,0,1,3.25-3.47,2.91,2.91,0,0,1,2.57,1.44s0-1,0-1.54V29h1V38.2ZM43,34.89a2.27,2.27,0,0,0,2.29,2.54,2.38,2.38,0,0,0,2.4-2.54,2.28,2.28,0,0,0-2.4-2.55A2.34,2.34,0,0,0,43,34.89Z"/><path class="cls-4" d="M50.37,34.9a3.42,3.42,0,1,1,6.85,0,3.42,3.42,0,1,1-6.85,0Zm1,0a2.32,2.32,0,0,0,2.42,2.53,2.36,2.36,0,0,0,2.43-2.53,2.43,2.43,0,1,0-4.85,0Z"/><path class="cls-4" d="M67,38.2V36.85a2.83,2.83,0,0,1-2.57,1.49,3.14,3.14,0,0,1-3.21-3.44,3.17,3.17,0,0,1,3.25-3.47A2.91,2.91,0,0,1,67,32.86s0-1,0-1.54V29h1V38.2Zm-4.73-3.31a2.27,2.27,0,0,0,2.29,2.54,2.38,2.38,0,0,0,2.4-2.54,2.28,2.28,0,0,0-2.4-2.55A2.34,2.34,0,0,0,62.25,34.89Z"/><path class="cls-4" d="M70.65,35.17A2.13,2.13,0,0,0,73,37.41,2.24,2.24,0,0,0,75.23,36l.95.24a3.41,3.41,0,0,1-6.55-1.31A3.26,3.26,0,0,1,73,31.44c2.27,0,3.29,1.53,3.29,3.71Zm0-.68h4.66A2.13,2.13,0,0,0,73,32.38,2.22,2.22,0,0,0,70.65,34.5Z"/><path class="cls-4" d="M89.66,38.2V34a1.42,1.42,0,0,0-1.58-1.63,1.76,1.76,0,0,0-1.82,1.76V38.2h-1V34a1.45,1.45,0,0,0-1.63-1.63,1.43,1.43,0,0,0-.65.16c-.95.3-1.12,1.27-1.12,2.16V38.2h-1V31.61h1c0,.39,0,.8,0,1.19h0a2,2,0,0,1,2.12-1.31,2.08,2.08,0,0,1,2.13,1.35,2.32,2.32,0,0,1,2.28-1.39,2.08,2.08,0,0,1,2.36,2.28V38.2Z"/><path class="cls-4" d="M98,38.2V36.83a2.65,2.65,0,0,1-2.52,1.49,3.16,3.16,0,0,1-3.25-3.4,3.22,3.22,0,0,1,3.34-3.47,2.85,2.85,0,0,1,2.48,1.44s0-.84,0-1.28h1V38.2ZM93.3,34.92a2.26,2.26,0,0,0,2.3,2.5,2.35,2.35,0,0,0,2.4-2.5,2.27,2.27,0,0,0-2.4-2.54A2.34,2.34,0,0,0,93.3,34.92Z"/><path class="cls-4" d="M106,38.2V34c0-1-.68-1.63-1.85-1.63A2,2,0,0,0,102,34.4V38.2h-1V31.61h1c0,.39,0,.78,0,1.17h0a2.51,2.51,0,0,1,2.39-1.35A2.33,2.33,0,0,1,107,33.73V38.2Z"/><path class="cls-4" d="M108.57,34.9a3.42,3.42,0,1,1,6.85,0,3.42,3.42,0,1,1-6.85,0Zm1,0A2.32,2.32,0,0,0,112,37.43a2.36,2.36,0,0,0,2.43-2.53,2.43,2.43,0,1,0-4.85,0Z"/><path class="cls-4" d="M116.67,36.12l1.05,0c0,.9.69,1.43,1.93,1.43.8,0,1.73-.36,1.73-1.16,0-1.73-4.55-.24-4.55-3,0-1.2,1.28-1.93,2.65-1.93,1.86,0,2.75.84,2.86,2.19l-1.05.07c-.07-.89-.67-1.38-1.84-1.38-.84,0-1.62.42-1.62,1.11,0,1.63,4.58.27,4.58,2.92,0,1.36-1.4,2-2.81,2C117.7,38.32,116.74,37.52,116.67,36.12Z"/><path class="cls-4" d="M126.85,39.78c.11-.28.24-.57.35-.84a4.69,4.69,0,0,0,2.44.77c1.54,0,2.34-.74,2.34-2.88a2.49,2.49,0,0,1-2.4,1.39,2.36,2.36,0,0,1-2.66-2.51v-4.1h1v4a1.63,1.63,0,0,0,1.86,1.69,2,2,0,0,0,2.07-2.17V31.61h1.05V36.9c0,2.19-1.11,3.73-3.25,3.73A5.2,5.2,0,0,1,126.85,39.78Z"/><path class="cls-4" d="M135,38.2h-1.05l4.52-9.37h1Z"/><path class="cls-4" d="M139.17,34.9a3.42,3.42,0,1,1,6.85,0,3.42,3.42,0,1,1-6.85,0Zm1,0a2.32,2.32,0,0,0,2.42,2.53A2.36,2.36,0,0,0,145,34.9a2.43,2.43,0,1,0-4.85,0Z"/><path class="cls-4" d="M155.45,38.2V34a1.65,1.65,0,0,0-1.85-1.65c-1.55,0-2.11,1-2.11,2.4V38.2h-1V29h1v2.67c0,.55,0,.58,0,1.05h0a2.55,2.55,0,0,1,2.39-1.34,2.36,2.36,0,0,1,2.62,2.31V38.2Z"/><path class="cls-4" d="M159.06,35.17a2.13,2.13,0,0,0,2.35,2.24A2.24,2.24,0,0,0,163.64,36l.95.24A3.41,3.41,0,0,1,158,34.92a3.26,3.26,0,0,1,3.4-3.47c2.27,0,3.29,1.53,3.29,3.71Zm0-.68h4.66a2.13,2.13,0,0,0-2.31-2.12A2.22,2.22,0,0,0,159.06,34.5Z"/><path class="cls-4" d="M169.75,32.44c-2,0-2.36,1.58-2.36,3.13V38.2h-1V31.61h1c0,.58,0,1.12-.05,1.66a2.57,2.57,0,0,1,2.43-1.81Z"/><path class="cls-4" d="M170.92,29.53a.51.51,0,0,1,.54-.53.5.5,0,0,1,.53.53v.62a.5.5,0,0,1-.53.51.51.51,0,0,1-.54-.51Zm0,8.67V31.61h1V38.2Z"/><path class="cls-4" d="M179.37,38.2V36.85a2.83,2.83,0,0,1-2.57,1.49,3.14,3.14,0,0,1-3.21-3.44,3.17,3.17,0,0,1,3.25-3.47,2.91,2.91,0,0,1,2.57,1.44s0-1,0-1.54V29h1V38.2Zm-4.73-3.31a2.27,2.27,0,0,0,2.29,2.54,2.38,2.38,0,0,0,2.4-2.54,2.28,2.28,0,0,0-2.4-2.55A2.34,2.34,0,0,0,174.65,34.89Z"/><path class="cls-4" d="M187.8,38.2V36.83a2.65,2.65,0,0,1-2.52,1.49,3.16,3.16,0,0,1-3.25-3.4,3.22,3.22,0,0,1,3.34-3.47,2.85,2.85,0,0,1,2.48,1.44s0-.84,0-1.28h1V38.2Zm-4.74-3.28a2.26,2.26,0,0,0,2.3,2.5,2.35,2.35,0,0,0,2.4-2.5,2.27,2.27,0,0,0-2.4-2.54A2.34,2.34,0,0,0,183.06,34.92Z"/><path class="cls-4" d="M190.41,36.12l1.05,0c0,.9.69,1.43,1.93,1.43.8,0,1.73-.36,1.73-1.16,0-1.73-4.55-.24-4.55-3,0-1.2,1.28-1.93,2.65-1.93,1.86,0,2.75.84,2.86,2.19L195,33.7c-.07-.89-.67-1.38-1.84-1.38-.84,0-1.62.42-1.62,1.11,0,1.63,4.58.27,4.58,2.92,0,1.36-1.4,2-2.81,2C191.44,38.32,190.48,37.52,190.41,36.12Z"/><path class="cls-5" d="M14,21.61a2.23,2.23,0,0,1-.68,1.65,2.26,2.26,0,0,1-1.65.67,3,3,0,0,1-.91-.12L11,22.44a2.36,2.36,0,0,0,.43,0h.31a.93.93,0,0,0,.6-.26.77.77,0,0,0,.25-.58V14.08H14Z"/><path class="cls-5" d="M18.4,21.58,18,23.82H16.51l1.66-9.76h2l1.63,9.76H20.28l-.34-2.24Zm.77-5.28-.54,3.85h1.09Z"/><path class="cls-5" d="M24.49,23.82V14.06h2.2a2.81,2.81,0,0,1,1.57.46,2.14,2.14,0,0,1,.86,1.21,3.43,3.43,0,0,1,.14,1,2.29,2.29,0,0,1-.52,1.57,1.48,1.48,0,0,1-.51.38,1.71,1.71,0,0,1,.83.74,2.89,2.89,0,0,1,.33,1,3.87,3.87,0,0,1,.05.68,3.26,3.26,0,0,1-.35,1.57,2.1,2.1,0,0,1-.77.81,2.12,2.12,0,0,1-1.11.34ZM26.08,18h.62a.9.9,0,0,0,.92-.67,1.89,1.89,0,0,0,.09-.62,1.29,1.29,0,0,0-.3-.92.93.93,0,0,0-.71-.29h-.62Zm0,4.32h.62a1,1,0,0,0,1-.77,1.69,1.69,0,0,0,.1-.61,1.85,1.85,0,0,0-.31-1.19,1,1,0,0,0-.83-.34h-.62Z"/><path class="cls-5" d="M34.45,13.94a2.33,2.33,0,0,1,2.34,2.34V21.6a2.33,2.33,0,1,1-4.67,0V16.28a2.33,2.33,0,0,1,2.33-2.34Zm.8,2.31a.84.84,0,0,0-.84-.84.82.82,0,0,0-.6.25.81.81,0,0,0-.25.6v5.34a.8.8,0,0,0,.25.6.82.82,0,0,0,.6.25.84.84,0,0,0,.84-.84Z"/><path class="cls-5" d="M41.11,14.06l2,6.56V14.06h1.47v9.77H43l-2-6.25v6.25H39.46V14.06Z"/><path class="cls-5" d="M51.65,21.58l-.36,2.24H49.76l1.66-9.76h2l1.63,9.76H53.53l-.34-2.24Zm.77-5.28-.54,3.85H53Z"/><path class="cls-5" d="M59.4,14.06l2,6.56V14.06h1.47v9.77H61.24l-2-6.25v6.25H57.75V14.06Z"/><path class="cls-5" d="M67.05,15.54H65.49V14.06h4.6v1.48H68.53v8.28H67.05Z"/><path class="cls-5" d="M74.22,23.82H72.75V14.06h1.47Z"/><path class="cls-5" d="M81.75,21.39a2.74,2.74,0,0,1-.53,1.74,1.91,1.91,0,0,1-1,.69,2.76,2.76,0,0,1-.82.11A2.31,2.31,0,0,1,78,23.51a2.4,2.4,0,0,1-.75-1,3.87,3.87,0,0,1-.32-1.38l1.4-.1a2.13,2.13,0,0,0,.45,1.24.75.75,0,0,0,.61.27.91.91,0,0,0,.77-.48,1.18,1.18,0,0,0,.15-.65,1.8,1.8,0,0,0-.55-1.21L78.4,19a5.58,5.58,0,0,1-1-1.27A2.94,2.94,0,0,1,77,16.37a2.39,2.39,0,0,1,.9-2,2.23,2.23,0,0,1,1.37-.41,2.49,2.49,0,0,1,1.35.35,2,2,0,0,1,.71.76,2.81,2.81,0,0,1,.32,1.13l-1.41.26a1.7,1.7,0,0,0-.34-.93.72.72,0,0,0-.58-.24.67.67,0,0,0-.62.36,1.38,1.38,0,0,0-.17.72,2.15,2.15,0,0,0,.58,1.36,4.88,4.88,0,0,0,.65.62q.51.43.68.6A5,5,0,0,1,81.31,20a4.21,4.21,0,0,1,.23.46A2.68,2.68,0,0,1,81.75,21.39Z"/><path class="cls-5" d="M84.41,23.82V14.06H88.6v1.48H85.89V18.2h2v1.48h-2v2.66H88.6v1.48Z"/><path class="cls-5" d="M93.59,14.06a2.24,2.24,0,0,1,1.71.68,2.35,2.35,0,0,1,.59,1.65v1.42a2.27,2.27,0,0,1-.67,1.65,2.2,2.2,0,0,1-1.63.69h-.85v3.68H91.27V14.06Zm.88,2.35a.84.84,0,0,0-.23-.62.82.82,0,0,0-.61-.23h-.89v3.12h.89a.8.8,0,0,0,.6-.25.82.82,0,0,0,.25-.6Z"/><path class="cls-5" d="M100.08,15.54H98.52V14.06h4.6v1.48h-1.56v8.28h-1.47Z"/><path class="cls-5" d="M107.25,23.82h-1.47V14.06h1.47Z"/><path class="cls-5" d="M112.26,23.95a2.33,2.33,0,0,1-2.34-2.33V16.29a2.33,2.33,0,1,1,4.67,0V17.4h-1.53V16.26a.85.85,0,0,0-.85-.85.81.81,0,0,0-.6.25.82.82,0,0,0-.25.6V21.6a.84.84,0,0,0,.84.84.82.82,0,0,0,.6-.25.8.8,0,0,0,.25-.6V20.26h1.53v1.36a2.33,2.33,0,0,1-2.33,2.33Z"/><path class="cls-5" d="M119.58,13.94a2.33,2.33,0,0,1,2.34,2.34V21.6a2.33,2.33,0,1,1-4.67,0V16.28a2.33,2.33,0,0,1,2.33-2.34Zm.8,2.31a.84.84,0,0,0-.84-.84.82.82,0,0,0-.6.25.81.81,0,0,0-.25.6v5.34a.8.8,0,0,0,.25.6.82.82,0,0,0,.6.25.84.84,0,0,0,.84-.84Z"/></g></g></g></svg>