<svg xmlns="http://www.w3.org/2000/svg" viewBox="0 0 228.64 75.59"><defs><style>.cls-1{isolation:isolate;}.cls-2{opacity:0.6;mix-blend-mode:overlay;}.cls-3{fill:#fff;}.cls-4{fill:#8f8f8f;}.cls-5{fill:#3764cb;}</style></defs><title>a_4</title><g class="cls-1"><g id="Capa_2" data-name="Capa 2"><g id="Capa_1-2" data-name="Capa 1"><g class="cls-2"><rect y="14.97" width="224.84" height="60.63" rx="10.15" ry="10.15"/></g><rect class="cls-3" width="228.64" height="70.73" rx="10.39" ry="10.39"/><path class="cls-4" d="M13.53,37.75l1.09-.08c.05,1.58,1.27,2.19,2.92,2.19,1.26,0,2.54-.62,2.54-1.74,0-2.67-6.39-.58-6.39-4.32,0-1.51,1.31-2.44,3.74-2.44s3.54.9,3.63,2.67l-1.13.09c-.11-1.39-1.09-1.82-2.55-1.82-1.75,0-2.54.63-2.54,1.53,0,2.73,6.41.54,6.41,4.27a.79.79,0,0,1-.07.31c-.16,1.66-2,2.35-3.65,2.35C15.3,40.75,13.61,40,13.53,37.75Z"/><path class="cls-4" d="M23.7,37.6a2.13,2.13,0,0,0,2.35,2.24,2.24,2.24,0,0,0,2.23-1.43l.95.24A3.12,3.12,0,0,1,26,40.75a3.13,3.13,0,0,1-3.35-3.4,3.26,3.26,0,0,1,3.4-3.47c2.27,0,3.29,1.53,3.29,3.71Zm0-.68h4.66a2.13,2.13,0,0,0-2.31-2.12A2.22,2.22,0,0,0,23.7,36.93Z"/><path class="cls-4" d="M38.82,40.63l0-1.24h0a2.43,2.43,0,0,1-2.36,1.38,2.35,2.35,0,0,1-2.63-2.5V34h1v4.1a1.6,1.6,0,0,0,1.82,1.69,2,2,0,0,0,2.12-2.16V34h1v6.59Z"/><path class="cls-4" d="M43.59,34.9v4.39c0,.31.19.57.74.57a1.88,1.88,0,0,0,.77-.16v.77a2.55,2.55,0,0,1-1.27.3,1.15,1.15,0,0,1-1.28-1.11V34.9H41.28V34h1.27v-1.7h1V34H45.1v.86Z"/><path class="cls-4" d="M46.68,32a.51.51,0,0,1,.54-.53.5.5,0,0,1,.53.53v.62a.5.5,0,0,1-.53.51.51.51,0,0,1-.54-.51Zm0,8.67V34h1v6.59Z"/><path class="cls-4" d="M49.92,40.63V31.47h1v9.16Z"/><path class="cls-4" d="M53.12,32a.51.51,0,0,1,.54-.53.5.5,0,0,1,.53.53v.62a.5.5,0,0,1-.53.51.51.51,0,0,1-.54-.51Zm0,8.67V34h1v6.59Z"/><path class="cls-4" d="M55.77,40.63v-.8l4.35-4.9h-4V34h5.5v.78l-4.36,4.92h4.56v.89Z"/><path class="cls-4" d="M68.48,40.63V39.27A2.65,2.65,0,0,1,66,40.75a3.16,3.16,0,0,1-3.25-3.4A3.22,3.22,0,0,1,66,33.88a2.85,2.85,0,0,1,2.48,1.44s0-.84,0-1.28h1v6.59Zm-4.74-3.28a2.26,2.26,0,0,0,2.3,2.5,2.35,2.35,0,0,0,2.4-2.5A2.27,2.27,0,0,0,66,34.81,2.34,2.34,0,0,0,63.74,37.35Z"/><path class="cls-4" d="M76.59,40.63V36.42c0-1-.68-1.63-1.85-1.63a2,2,0,0,0-2.11,2.05v3.79h-1V34h1c0,.39,0,.78,0,1.17h0A2.51,2.51,0,0,1,75,33.88a2.33,2.33,0,0,1,2.62,2.28v4.47Z"/><path class="cls-4" d="M83.41,39.32c0,.51,0,1,0,1.54v2.08h-1V34h1v.61c0,.24,0,.73,0,.73A2.93,2.93,0,0,1,86,33.88a3.13,3.13,0,0,1,3.23,3.46,3.14,3.14,0,0,1-3.27,3.46A2.69,2.69,0,0,1,83.41,39.32Zm.05-2a2.26,2.26,0,0,0,2.38,2.58,2.31,2.31,0,0,0,2.3-2.54,2.31,2.31,0,0,0-2.28-2.54A2.34,2.34,0,0,0,83.46,37.31Z"/><path class="cls-4" d="M96.4,40.63V39.27a2.65,2.65,0,0,1-2.52,1.49,3.16,3.16,0,0,1-3.25-3.4A3.22,3.22,0,0,1,94,33.88a2.85,2.85,0,0,1,2.48,1.44s0-.84,0-1.28h1v6.59Zm-4.74-3.28a2.26,2.26,0,0,0,2.3,2.5,2.35,2.35,0,0,0,2.4-2.5A2.27,2.27,0,0,0,94,34.81,2.34,2.34,0,0,0,91.66,37.35Z"/><path class="cls-4" d="M102.92,34.88c-2,0-2.36,1.58-2.36,3.13v2.62h-1V34h1c0,.58,0,1.12-.05,1.66a2.57,2.57,0,0,1,2.43-1.81Z"/><path class="cls-4" d="M109.5,40.63V39.27A2.65,2.65,0,0,1,107,40.75a3.16,3.16,0,0,1-3.25-3.4,3.22,3.22,0,0,1,3.34-3.47,2.85,2.85,0,0,1,2.48,1.44s0-.84,0-1.28h1v6.59Zm-4.74-3.28a2.26,2.26,0,0,0,2.3,2.5,2.35,2.35,0,0,0,2.4-2.5,2.27,2.27,0,0,0-2.4-2.54A2.34,2.34,0,0,0,104.76,37.35Z"/><path class="cls-4" d="M114.74,37.4a3.27,3.27,0,0,1,3.48-3.52,2.85,2.85,0,0,1,3,2.16l-.95.28a1.93,1.93,0,0,0-2.11-1.51,2.34,2.34,0,0,0-2.42,2.59,2.22,2.22,0,0,0,2.34,2.44,2.46,2.46,0,0,0,2.28-1.54l.92.2a3,3,0,0,1-3.19,2.24A3.15,3.15,0,0,1,114.74,37.4Z"/><path class="cls-4" d="M128,40.63l0-1.24h0a2.43,2.43,0,0,1-2.36,1.38,2.35,2.35,0,0,1-2.63-2.5V34h1v4.1a1.6,1.6,0,0,0,1.82,1.69,2,2,0,0,0,2.12-2.16V34h1v6.59Z"/><path class="cls-4" d="M132.11,39.28c0,.24,0,.46,0,.69s0,.45,0,.66h-1V31.47h1v2.94c0,.3,0,.88,0,.88a2.92,2.92,0,0,1,2.58-1.42c2.07,0,3.21,1.44,3.21,3.46a3.13,3.13,0,0,1-3.27,3.42A2.81,2.81,0,0,1,132.11,39.28Zm0-1.93a2.32,2.32,0,0,0,2.39,2.5,2.29,2.29,0,0,0,2.28-2.53,2.34,2.34,0,1,0-4.67,0Z"/><path class="cls-4" d="M143.09,34.88c-2,0-2.36,1.58-2.36,3.13v2.62h-1V34h1c0,.58,0,1.12-.05,1.66a2.57,2.57,0,0,1,2.43-1.81Z"/><path class="cls-4" d="M144.44,32a.51.51,0,0,1,.54-.53.5.5,0,0,1,.53.53v.62a.5.5,0,0,1-.53.51.51.51,0,0,1-.54-.51Zm0,8.67V34h1v6.59Z"/><path class="cls-4" d="M151.09,34.88c-2,0-2.36,1.58-2.36,3.13v2.62h-1V34h1c0,.58,0,1.12-.05,1.66a2.57,2.57,0,0,1,2.43-1.81Z"/><path class="cls-4" d="M160,40.63v-4.2a1.65,1.65,0,0,0-1.85-1.65c-1.55,0-2.11,1-2.11,2.4v3.44h-1V31.47h1v2.67c0,.55,0,.58,0,1.05h0a2.55,2.55,0,0,1,2.39-1.34A2.36,2.36,0,0,1,161,36.19v4.44Z"/><path class="cls-4" d="M163.74,37.6a2.13,2.13,0,0,0,2.35,2.24,2.24,2.24,0,0,0,2.23-1.43l.95.24a3.41,3.41,0,0,1-6.55-1.31,3.26,3.26,0,0,1,3.4-3.47c2.27,0,3.29,1.53,3.29,3.71Zm0-.68h4.66a2.13,2.13,0,0,0-2.31-2.12A2.22,2.22,0,0,0,163.74,36.93Z"/><path class="cls-4" d="M174.61,34.88c-2,0-2.36,1.58-2.36,3.13v2.62h-1V34h1c0,.58,0,1.12-.05,1.66a2.57,2.57,0,0,1,2.43-1.81Z"/><path class="cls-4" d="M176,32a.51.51,0,0,1,.54-.53A.5.5,0,0,1,177,32v.62a.5.5,0,0,1-.53.51.51.51,0,0,1-.54-.51Zm0,8.67V34h1v6.59Z"/><path class="cls-4" d="M184.58,40.63V39.28A2.83,2.83,0,0,1,182,40.76a3.14,3.14,0,0,1-3.21-3.44,3.17,3.17,0,0,1,3.25-3.47,2.91,2.91,0,0,1,2.57,1.44s0-1,0-1.54V31.47h1v9.16Zm-4.73-3.31a2.27,2.27,0,0,0,2.29,2.54,2.38,2.38,0,0,0,2.4-2.54,2.28,2.28,0,0,0-2.4-2.55A2.34,2.34,0,0,0,179.86,37.32Z"/><path class="cls-4" d="M193.19,40.63V39.27a2.65,2.65,0,0,1-2.52,1.49,3.16,3.16,0,0,1-3.25-3.4,3.22,3.22,0,0,1,3.34-3.47,2.85,2.85,0,0,1,2.48,1.44s0-.84,0-1.28h1v6.59Zm-4.74-3.28a2.26,2.26,0,0,0,2.3,2.5,2.35,2.35,0,0,0,2.4-2.5,2.27,2.27,0,0,0-2.4-2.54A2.34,2.34,0,0,0,188.45,37.35Z"/><path class="cls-4" d="M196,38.55l1.05,0c0,.9.69,1.43,1.93,1.43.8,0,1.73-.36,1.73-1.16,0-1.73-4.55-.24-4.55-3,0-1.2,1.28-1.93,2.65-1.93,1.86,0,2.75.84,2.86,2.19l-1.05.07c-.07-.89-.67-1.38-1.84-1.38-.84,0-1.62.42-1.62,1.11,0,1.63,4.58.27,4.58,2.92,0,1.36-1.4,2-2.81,2C197,40.75,196,40,196,38.55Z"/><path class="cls-4" d="M13.7,52l1.05,0c0,.9.69,1.43,1.93,1.43.8,0,1.73-.36,1.73-1.16,0-1.73-4.55-.24-4.55-3,0-1.2,1.28-1.93,2.65-1.93,1.86,0,2.75.84,2.86,2.19l-1.05.07c-.07-.89-.67-1.38-1.84-1.38-.84,0-1.62.42-1.62,1.11,0,1.63,4.58.27,4.58,2.92,0,1.36-1.4,2-2.81,2C14.73,54.25,13.77,53.45,13.7,52Z"/><path class="cls-4" d="M26.33,54.13l0-1.24h0a2.43,2.43,0,0,1-2.36,1.38,2.35,2.35,0,0,1-2.63-2.5V47.54h1v4.1a1.6,1.6,0,0,0,1.82,1.69,2,2,0,0,0,2.12-2.16V47.54h1v6.59Z"/><path class="cls-4" d="M30.46,52.82c0,.51,0,1,0,1.54v2.08h-1v-8.9h1v.61c0,.24,0,.73,0,.73A2.93,2.93,0,0,1,33,47.37a3.13,3.13,0,0,1,3.23,3.46A3.14,3.14,0,0,1,33,54.29,2.69,2.69,0,0,1,30.46,52.82Zm.05-2a2.26,2.26,0,0,0,2.38,2.58,2.55,2.55,0,0,0,0-5.08A2.34,2.34,0,0,0,30.51,50.8Z"/><path class="cls-4" d="M38.7,51.1A2.13,2.13,0,0,0,41,53.34a2.24,2.24,0,0,0,2.23-1.43l.95.24A3.12,3.12,0,0,1,41,54.25a3.13,3.13,0,0,1-3.35-3.4,3.26,3.26,0,0,1,3.4-3.47c2.27,0,3.29,1.53,3.29,3.71Zm0-.68h4.66A2.13,2.13,0,0,0,41,48.31,2.22,2.22,0,0,0,38.7,50.43Z"/><path class="cls-4" d="M49.56,48.37c-2,0-2.36,1.58-2.36,3.13v2.62h-1V47.54h1c0,.58,0,1.12-.05,1.66a2.57,2.57,0,0,1,2.43-1.81Z"/><path class="cls-4" d="M52.61,47.54h1.75v.86H52.61v5.73h-1V48.4h-.95v-.86h.95v-.28c0-1.38.95-2.38,2.69-2.38a7,7,0,0,1,.88.07v.89a6.8,6.8,0,0,0-.82-.05c-1.12,0-1.7.58-1.7,1.53Z"/><path class="cls-4" d="M56.24,45.46a.51.51,0,0,1,.54-.53.5.5,0,0,1,.53.53v.62a.5.5,0,0,1-.53.51.51.51,0,0,1-.54-.51Zm0,8.67V47.54h1v6.59Z"/><path class="cls-4" d="M59.09,50.9a3.27,3.27,0,0,1,3.48-3.52,2.85,2.85,0,0,1,3,2.16l-.95.28a1.93,1.93,0,0,0-2.11-1.51,2.34,2.34,0,0,0-2.42,2.59,2.22,2.22,0,0,0,2.34,2.44,2.46,2.46,0,0,0,2.28-1.54l.92.2a3,3,0,0,1-3.19,2.24A3.15,3.15,0,0,1,59.09,50.9Z"/><path class="cls-4" d="M67.33,45.46a.51.51,0,0,1,.54-.53.5.5,0,0,1,.53.53v.62a.5.5,0,0,1-.53.51.51.51,0,0,1-.54-.51Zm0,8.67V47.54h1v6.59Z"/><path class="cls-4" d="M76,54.13V52.76a2.65,2.65,0,0,1-2.52,1.49,3.16,3.16,0,0,1-3.25-3.4,3.22,3.22,0,0,1,3.33-3.47A2.85,2.85,0,0,1,76,48.82s0-.84,0-1.28h1v6.59Zm-4.74-3.28a2.26,2.26,0,0,0,2.29,2.5,2.35,2.35,0,0,0,2.4-2.5,2.27,2.27,0,0,0-2.4-2.54A2.34,2.34,0,0,0,71.22,50.84Z"/><path class="cls-4" d="M79.07,54.13V45h1v9.16Z"/><path class="cls-4" d="M82.92,51.1a2.13,2.13,0,0,0,2.35,2.24,2.24,2.24,0,0,0,2.23-1.43l.95.24a3.41,3.41,0,0,1-6.55-1.31,3.26,3.26,0,0,1,3.4-3.47c2.27,0,3.29,1.53,3.29,3.71Zm0-.68h4.66a2.13,2.13,0,0,0-2.31-2.12A2.22,2.22,0,0,0,82.92,50.43Z"/><path class="cls-4" d="M90,52l1.05,0c0,.9.69,1.43,1.93,1.43.8,0,1.73-.36,1.73-1.16,0-1.73-4.55-.24-4.55-3,0-1.2,1.28-1.93,2.65-1.93,1.86,0,2.75.84,2.86,2.19l-1.05.07c-.07-.89-.67-1.38-1.84-1.38-.84,0-1.62.42-1.62,1.11,0,1.63,4.58.27,4.58,2.92,0,1.36-1.4,2-2.81,2C91,54.25,90.09,53.45,90,52Z"/><path class="cls-4" d="M98.08,56.11l-1-.35c.22-.51.42-1,.62-1.55a2.76,2.76,0,0,0,.12-1.09v-.45H99v.54a3,3,0,0,1-.17,1.22Z"/><path class="cls-4" d="M104.47,51.1a2.13,2.13,0,0,0,2.35,2.24,2.24,2.24,0,0,0,2.23-1.43l.95.24a3.41,3.41,0,0,1-6.55-1.31,3.26,3.26,0,0,1,3.4-3.47c2.27,0,3.29,1.53,3.29,3.71Zm0-.68h4.66a2.13,2.13,0,0,0-2.31-2.12A2.22,2.22,0,0,0,104.47,50.43Z"/><path class="cls-4" d="M111.57,52l1.05,0c0,.9.69,1.43,1.93,1.43.8,0,1.73-.36,1.73-1.16,0-1.73-4.55-.24-4.55-3,0-1.2,1.28-1.93,2.65-1.93,1.86,0,2.75.84,2.86,2.19l-1.05.07c-.07-.89-.67-1.38-1.84-1.38-.84,0-1.62.42-1.62,1.11,0,1.63,4.58.27,4.58,2.92,0,1.36-1.4,2-2.81,2C112.59,54.25,111.63,53.45,111.57,52Z"/><path class="cls-4" d="M118.78,50.9a3.27,3.27,0,0,1,3.48-3.52,2.85,2.85,0,0,1,3,2.16l-.95.28a1.93,1.93,0,0,0-2.11-1.51,2.34,2.34,0,0,0-2.42,2.59,2.22,2.22,0,0,0,2.34,2.44,2.46,2.46,0,0,0,2.28-1.54l.92.2a3,3,0,0,1-3.19,2.24A3.15,3.15,0,0,1,118.78,50.9Z"/><path class="cls-4" d="M126.67,50.83a3.42,3.42,0,1,1,3.4,3.43A3.25,3.25,0,0,1,126.67,50.83Zm1,0a2.32,2.32,0,0,0,2.42,2.53,2.36,2.36,0,0,0,2.43-2.53,2.43,2.43,0,1,0-4.85,0Z"/><path class="cls-4" d="M138.74,48.37c-2,0-2.36,1.58-2.36,3.13v2.62h-1V47.54h1c0,.58,0,1.12-.05,1.66a2.57,2.57,0,0,1,2.43-1.81Z"/><path class="cls-4" d="M140.09,45.46a.51.51,0,0,1,.54-.53.5.5,0,0,1,.53.53v.62a.5.5,0,0,1-.53.51.51.51,0,0,1-.54-.51Zm0,8.67V47.54h1v6.59Z"/><path class="cls-4" d="M148.72,54.13V52.76a2.65,2.65,0,0,1-2.52,1.49,3.16,3.16,0,0,1-3.25-3.4,3.22,3.22,0,0,1,3.34-3.47,2.85,2.85,0,0,1,2.48,1.44s0-.84,0-1.28h1v6.59ZM144,50.84a2.26,2.26,0,0,0,2.3,2.5,2.35,2.35,0,0,0,2.4-2.5,2.27,2.27,0,0,0-2.4-2.54A2.34,2.34,0,0,0,144,50.84Z"/><path class="cls-4" d="M151.44,50.9a3.27,3.27,0,0,1,3.48-3.52,2.85,2.85,0,0,1,3,2.16l-.95.28a1.93,1.93,0,0,0-2.11-1.51,2.34,2.34,0,0,0-2.42,2.59,2.22,2.22,0,0,0,2.34,2.44,2.46,2.46,0,0,0,2.28-1.54l.92.2a3,3,0,0,1-3.19,2.24A3.15,3.15,0,0,1,151.44,50.9Z"/><path class="cls-4" d="M159.68,45.46a.51.51,0,0,1,.54-.53.5.5,0,0,1,.53.53v.62a.5.5,0,0,1-.53.51.51.51,0,0,1-.54-.51Zm0,8.67V47.54h1v6.59Z"/><path class="cls-4" d="M162.52,50.83a3.42,3.42,0,1,1,3.4,3.43A3.25,3.25,0,0,1,162.52,50.83Zm1,0a2.32,2.32,0,0,0,2.42,2.53,2.36,2.36,0,0,0,2.43-2.53,2.43,2.43,0,1,0-4.85,0Z"/><path class="cls-4" d="M176.19,54.13V49.91c0-1-.68-1.63-1.85-1.63a2,2,0,0,0-2.11,2.05v3.79h-1V47.54h1c0,.39,0,.78,0,1.17h0a2.51,2.51,0,0,1,2.39-1.35,2.33,2.33,0,0,1,2.62,2.28v4.47Z"/><path class="cls-4" d="M180,51.1a2.13,2.13,0,0,0,2.35,2.24,2.24,2.24,0,0,0,2.23-1.43l.95.24A3.41,3.41,0,0,1,179,50.84a3.26,3.26,0,0,1,3.4-3.47c2.27,0,3.29,1.53,3.29,3.71Zm0-.68h4.66a2.13,2.13,0,0,0-2.31-2.12A2.22,2.22,0,0,0,180,50.43Z"/><path class="cls-4" d="M187.07,52l1.05,0c0,.9.69,1.43,1.93,1.43.8,0,1.73-.36,1.73-1.16,0-1.73-4.55-.24-4.55-3,0-1.2,1.28-1.93,2.65-1.93,1.86,0,2.75.84,2.86,2.19l-1.05.07c-.07-.89-.67-1.38-1.84-1.38-.84,0-1.62.42-1.62,1.11,0,1.63,4.58.27,4.58,2.92,0,1.36-1.4,2-2.81,2C188.1,54.25,187.14,53.45,187.07,52Z"/><path class="cls-4" d="M194.77,54.13V52.67h1.11v1.46Z"/><path class="cls-5" d="M15.86,25.58a2.33,2.33,0,0,1-2.34-2.33V17.92a2.33,2.33,0,1,1,4.67,0V19H16.66V17.89a.85.85,0,0,0-.85-.85.81.81,0,0,0-.6.25.82.82,0,0,0-.25.6v5.34a.84.84,0,0,0,.84.84.82.82,0,0,0,.6-.25.8.8,0,0,0,.25-.6V21.89h1.53v1.36a2.33,2.33,0,0,1-2.33,2.33Z"/><path class="cls-5" d="M23.18,25.56a2.31,2.31,0,0,1-2.33-2.32V15.69h1.44v7.53a.8.8,0,0,0,.25.6.82.82,0,0,0,.6.25.84.84,0,0,0,.84-.84V15.69h1.54v7.55a2.22,2.22,0,0,1-.69,1.65A2.28,2.28,0,0,1,23.18,25.56Z"/><path class="cls-5" d="M30.51,15.69a2.24,2.24,0,0,1,1.81.68A2.46,2.46,0,0,1,32.82,18v1.42A2.28,2.28,0,0,1,32,21.19l1.09,4.26H31.53l-.89-3.68h-1v3.68H28.19V15.69ZM31.39,18a.75.75,0,0,0-.84-.85h-.89v3.12h.89a.8.8,0,0,0,.6-.25.82.82,0,0,0,.25-.6Z"/><path class="cls-5" d="M37.26,25.45H35.79V15.69h1.47Z"/><path class="cls-5" d="M41.49,17.17H39.92V15.69h4.6v1.48H43v8.28H41.49Z"/><path class="cls-5" d="M48.4,23.21,48,25.45H46.51l1.66-9.76h2l1.63,9.76H50.28l-.34-2.24Zm.77-5.28-.54,3.85h1.09Z"/><path class="cls-5" d="M59.18,23a2.74,2.74,0,0,1-.53,1.74,1.91,1.91,0,0,1-1,.69,2.76,2.76,0,0,1-.82.11,2.31,2.31,0,0,1-1.43-.43,2.4,2.4,0,0,1-.75-1,3.87,3.87,0,0,1-.32-1.38l1.4-.1a2.13,2.13,0,0,0,.45,1.24.75.75,0,0,0,.61.27.91.91,0,0,0,.77-.48,1.18,1.18,0,0,0,.15-.65,1.8,1.8,0,0,0-.55-1.21l-1.31-1.24a5.58,5.58,0,0,1-1-1.27A2.94,2.94,0,0,1,54.46,18a2.39,2.39,0,0,1,.9-2,2.23,2.23,0,0,1,1.37-.41,2.49,2.49,0,0,1,1.35.35,2,2,0,0,1,.71.76,2.81,2.81,0,0,1,.32,1.13l-1.41.26a1.7,1.7,0,0,0-.34-.93.72.72,0,0,0-.58-.24.67.67,0,0,0-.62.36A1.38,1.38,0,0,0,56,18a2.15,2.15,0,0,0,.58,1.36,4.88,4.88,0,0,0,.65.62q.51.43.68.6a5,5,0,0,1,.84,1.07,4.21,4.21,0,0,1,.23.46A2.68,2.68,0,0,1,59.18,23Z"/></g></g></g></svg>