<svg xmlns="http://www.w3.org/2000/svg" viewBox="0 0 228.64 100.59"><defs><style>.cls-1{isolation:isolate;}.cls-2{opacity:0.6;mix-blend-mode:overlay;}.cls-3{fill:#fff;}.cls-4{fill:#8f8f8f;}.cls-5{fill:#3764cb;}</style></defs><title>a_5</title><g class="cls-1"><g id="Capa_2" data-name="Capa 2"><g id="Capa_1-2" data-name="Capa 1"><g class="cls-2"><rect y="14.97" width="224.84" height="85.63" rx="10.15" ry="10.15"/></g><rect class="cls-3" width="228.64" height="95.73" rx="10.39" ry="10.39"/><path class="cls-4" d="M12.84,41.06V31.9h1.05v8.24h5.47v.92Z"/><path class="cls-4" d="M20.6,32.39a.51.51,0,0,1,.54-.53.5.5,0,0,1,.53.53V33a.5.5,0,0,1-.53.51A.51.51,0,0,1,20.6,33Zm0,8.67V34.47h1v6.59Z"/><path class="cls-4" d="M32.55,41.06V36.85A1.42,1.42,0,0,0,31,35.21,1.76,1.76,0,0,0,29.15,37v4.09h-1V36.85a1.45,1.45,0,0,0-1.63-1.63,1.43,1.43,0,0,0-.65.16c-.95.3-1.12,1.27-1.12,2.16v3.52h-1V34.47h1c0,.39,0,.8,0,1.19h0a2,2,0,0,1,2.12-1.31,2.08,2.08,0,0,1,2.13,1.35,2.32,2.32,0,0,1,2.28-1.39,2.08,2.08,0,0,1,2.36,2.28v4.47Z"/><path class="cls-4" d="M36.57,39.75c0,.51,0,1,0,1.54v2.08h-1v-8.9h1v.61c0,.24,0,.73,0,.73a2.93,2.93,0,0,1,2.57-1.5,3.13,3.13,0,0,1,3.23,3.46,3.14,3.14,0,0,1-3.27,3.46A2.69,2.69,0,0,1,36.57,39.75Zm.05-2A2.26,2.26,0,0,0,39,40.32a2.31,2.31,0,0,0,2.3-2.54A2.31,2.31,0,0,0,39,35.24,2.34,2.34,0,0,0,36.63,37.74Z"/><path class="cls-4" d="M44,32.39a.51.51,0,0,1,.54-.53.5.5,0,0,1,.53.53V33a.5.5,0,0,1-.53.51A.51.51,0,0,1,44,33Zm0,8.67V34.47h1v6.59Z"/><path class="cls-4" d="M47.67,38A2.13,2.13,0,0,0,50,40.28a2.24,2.24,0,0,0,2.23-1.43l.95.24a3.41,3.41,0,0,1-6.55-1.31,3.26,3.26,0,0,1,3.4-3.47c2.27,0,3.29,1.53,3.29,3.71Zm0-.68h4.66A2.13,2.13,0,0,0,50,35.24,2.22,2.22,0,0,0,47.67,37.36Z"/><path class="cls-4" d="M54.26,41.06v-.8l4.35-4.9h-4v-.89h5.5v.78L55.7,40.17h4.56v.89Z"/><path class="cls-4" d="M66.78,41.06V39.7a2.65,2.65,0,0,1-2.52,1.49A3.16,3.16,0,0,1,61,37.78a3.22,3.22,0,0,1,3.33-3.47,2.85,2.85,0,0,1,2.49,1.44s0-.84,0-1.28h1v6.59ZM62,37.78a2.26,2.26,0,0,0,2.29,2.5,2.35,2.35,0,0,0,2.4-2.5,2.27,2.27,0,0,0-2.4-2.54A2.34,2.34,0,0,0,62,37.78Z"/><path class="cls-4" d="M77.82,41.06V39.71a2.83,2.83,0,0,1-2.57,1.49A3.14,3.14,0,0,1,72,37.75a3.17,3.17,0,0,1,3.25-3.47,2.91,2.91,0,0,1,2.57,1.44s0-1,0-1.54V31.9h1v9.16ZM73.1,37.75a2.27,2.27,0,0,0,2.29,2.54,2.38,2.38,0,0,0,2.4-2.54,2.28,2.28,0,0,0-2.4-2.55A2.34,2.34,0,0,0,73.1,37.75Z"/><path class="cls-4" d="M81.5,38a2.13,2.13,0,0,0,2.35,2.24,2.24,2.24,0,0,0,2.23-1.43l.95.24a3.41,3.41,0,0,1-6.55-1.31,3.26,3.26,0,0,1,3.4-3.47c2.27,0,3.29,1.53,3.29,3.71Zm0-.68h4.66a2.13,2.13,0,0,0-2.31-2.12A2.22,2.22,0,0,0,81.5,37.36Z"/><path class="cls-4" d="M96.65,41.06v-4.2a1.65,1.65,0,0,0-1.85-1.65c-1.55,0-2.11,1-2.11,2.4v3.44h-1V31.9h1v2.67c0,.55,0,.58,0,1.05h0a2.55,2.55,0,0,1,2.39-1.34,2.36,2.36,0,0,1,2.62,2.31v4.44Z"/><path class="cls-4" d="M100.26,38a2.13,2.13,0,0,0,2.35,2.24,2.24,2.24,0,0,0,2.23-1.43l.95.24a3.41,3.41,0,0,1-6.55-1.31,3.26,3.26,0,0,1,3.4-3.47c2.27,0,3.29,1.53,3.29,3.71Zm0-.68h4.66a2.13,2.13,0,0,0-2.31-2.12A2.22,2.22,0,0,0,100.26,37.36Z"/><path class="cls-4" d="M111,35.31c-2,0-2.36,1.58-2.36,3.13v2.62h-1V34.47h1c0,.58,0,1.12-.05,1.66A2.57,2.57,0,0,1,111,34.32Z"/><path class="cls-4" d="M112.12,32.39a.51.51,0,0,1,.54-.53.5.5,0,0,1,.53.53V33a.5.5,0,0,1-.53.51.51.51,0,0,1-.54-.51Zm0,8.67V34.47h1v6.59Z"/><path class="cls-4" d="M120.57,41.06V39.71A2.83,2.83,0,0,1,118,41.2a3.14,3.14,0,0,1-3.21-3.44A3.17,3.17,0,0,1,118,34.28a2.91,2.91,0,0,1,2.57,1.44s0-1,0-1.54V31.9h1v9.16Zm-4.73-3.31a2.27,2.27,0,0,0,2.29,2.54,2.38,2.38,0,0,0,2.4-2.54,2.28,2.28,0,0,0-2.4-2.55A2.34,2.34,0,0,0,115.85,37.75Z"/><path class="cls-4" d="M129,41.06V39.7a2.65,2.65,0,0,1-2.52,1.49,3.16,3.16,0,0,1-3.25-3.4,3.22,3.22,0,0,1,3.34-3.47A2.85,2.85,0,0,1,129,35.75s0-.84,0-1.28h1v6.59Zm-4.74-3.28a2.26,2.26,0,0,0,2.3,2.5,2.35,2.35,0,0,0,2.4-2.5,2.27,2.27,0,0,0-2.4-2.54A2.34,2.34,0,0,0,124.26,37.78Z"/><path class="cls-4" d="M131.61,39l1.05,0c0,.9.69,1.43,1.93,1.43.8,0,1.73-.36,1.73-1.16,0-1.73-4.55-.24-4.55-3,0-1.2,1.28-1.93,2.65-1.93,1.86,0,2.75.84,2.86,2.19l-1.05.07c-.07-.89-.67-1.38-1.84-1.38-.84,0-1.62.42-1.62,1.11,0,1.63,4.58.27,4.58,2.92,0,1.36-1.4,2-2.81,2C132.64,41.18,131.68,40.38,131.61,39Z"/><path class="cls-4" d="M141.64,39l1.05,0c0,.9.69,1.43,1.93,1.43.8,0,1.73-.36,1.73-1.16,0-1.73-4.55-.24-4.55-3,0-1.2,1.28-1.93,2.65-1.93,1.86,0,2.75.84,2.86,2.19l-1.05.07c-.07-.89-.67-1.38-1.84-1.38-.84,0-1.62.42-1.62,1.11,0,1.63,4.58.27,4.58,2.92,0,1.36-1.4,2-2.81,2C142.67,41.18,141.71,40.38,141.64,39Z"/><path class="cls-4" d="M154.45,41.06V39.7a2.65,2.65,0,0,1-2.52,1.49,3.16,3.16,0,0,1-3.25-3.4A3.22,3.22,0,0,1,152,34.31a2.85,2.85,0,0,1,2.49,1.44s0-.84,0-1.28h1v6.59Zm-4.74-3.28a2.26,2.26,0,0,0,2.29,2.5,2.35,2.35,0,0,0,2.4-2.5,2.27,2.27,0,0,0-2.4-2.54A2.34,2.34,0,0,0,149.71,37.78Z"/><path class="cls-4" d="M162.39,41.06V36.85c0-1-.68-1.63-1.85-1.63a2,2,0,0,0-2.11,2.05v3.79h-1V34.47h1c0,.39,0,.78,0,1.17h0a2.51,2.51,0,0,1,2.39-1.35,2.33,2.33,0,0,1,2.62,2.28v4.47Z"/><path class="cls-4" d="M165.76,41.78a4.37,4.37,0,0,0,2.43.81,2.21,2.21,0,0,0,2.53-2.32v-.77a2.85,2.85,0,0,1-2.54,1.5,3.08,3.08,0,0,1-3.2-3.28,3.17,3.17,0,0,1,3.32-3.4,2.66,2.66,0,0,1,2.43,1.47s0-.88,0-1.31h1v5.91c0,1.92-1.27,3.11-3.39,3.11a5.11,5.11,0,0,1-2.89-.9C165.51,42.32,165.67,42,165.76,41.78ZM166,37.7a2.21,2.21,0,0,0,2.24,2.4,2.26,2.26,0,0,0,2.34-2.38,2.3,2.3,0,1,0-4.58,0Z"/><path class="cls-4" d="M177.12,35.31c-2,0-2.36,1.58-2.36,3.13v2.62h-1V34.47h1c0,.58,0,1.12-.05,1.66a2.57,2.57,0,0,1,2.43-1.81Z"/><path class="cls-4" d="M183.52,41.06V39.7A2.65,2.65,0,0,1,181,41.18a3.16,3.16,0,0,1-3.25-3.4,3.22,3.22,0,0,1,3.33-3.47,2.85,2.85,0,0,1,2.49,1.44s0-.84,0-1.28h1v6.59Zm-4.74-3.28a2.26,2.26,0,0,0,2.29,2.5,2.35,2.35,0,0,0,2.4-2.5,2.27,2.27,0,0,0-2.4-2.54A2.34,2.34,0,0,0,178.78,37.78Z"/><path class="cls-4" d="M191.46,41.06V36.85c0-1-.68-1.63-1.85-1.63a2,2,0,0,0-2.11,2.05v3.79h-1V34.47h1c0,.39,0,.78,0,1.17h0a2.51,2.51,0,0,1,2.39-1.35,2.33,2.33,0,0,1,2.62,2.28v4.47Z"/><path class="cls-4" d="M196,35.33v4.39c0,.31.19.57.74.57a1.88,1.88,0,0,0,.77-.16v.77a2.55,2.55,0,0,1-1.27.3A1.15,1.15,0,0,1,195,40.09V35.33h-1.27v-.86H195v-1.7h1v1.7h1.51v.86Z"/><path class="cls-4" d="M199.4,38a2.13,2.13,0,0,0,2.35,2.24A2.24,2.24,0,0,0,204,38.85l.95.24a3.41,3.41,0,0,1-6.55-1.31,3.26,3.26,0,0,1,3.4-3.47c2.27,0,3.29,1.53,3.29,3.71Zm0-.68h4.66a2.13,2.13,0,0,0-2.31-2.12A2.22,2.22,0,0,0,199.4,37.36Z"/><path class="cls-4" d="M206.31,39l1.05,0c0,.9.69,1.43,1.93,1.43.8,0,1.73-.36,1.73-1.16,0-1.73-4.55-.24-4.55-3,0-1.2,1.28-1.93,2.65-1.93,1.86,0,2.75.84,2.86,2.19l-1.05.07c-.07-.89-.67-1.38-1.84-1.38-.84,0-1.62.42-1.62,1.11,0,1.63,4.58.27,4.58,2.92,0,1.36-1.4,2-2.81,2C207.34,41.18,206.38,40.38,206.31,39Z"/><path class="cls-4" d="M214.2,43l-1-.35c.22-.51.42-1,.62-1.55A2.76,2.76,0,0,0,214,40V39.6h1.12v.54a3,3,0,0,1-.17,1.22Z"/><path class="cls-4" d="M12.69,52.48l1.05,0c0,.9.69,1.43,1.93,1.43.8,0,1.73-.36,1.73-1.16,0-1.73-4.55-.24-4.55-3,0-1.2,1.28-1.93,2.65-1.93,1.86,0,2.75.84,2.86,2.19l-1.05.07c-.07-.89-.67-1.38-1.84-1.38-.84,0-1.62.42-1.62,1.11,0,1.63,4.58.27,4.58,2.92,0,1.36-1.4,2-2.81,2C13.72,54.68,12.76,53.88,12.69,52.48Z"/><path class="cls-4" d="M20.75,51.53a2.13,2.13,0,0,0,2.35,2.24,2.24,2.24,0,0,0,2.23-1.43l.95.24a3.12,3.12,0,0,1-3.2,2.09,3.13,3.13,0,0,1-3.35-3.4,3.26,3.26,0,0,1,3.4-3.47c2.27,0,3.29,1.53,3.29,3.71Zm0-.68h4.66a2.13,2.13,0,0,0-2.31-2.12A2.22,2.22,0,0,0,20.75,50.86Z"/><path class="cls-4" d="M27.68,51.33a3.27,3.27,0,0,1,3.48-3.52,2.85,2.85,0,0,1,3,2.16l-.95.28a1.93,1.93,0,0,0-2.11-1.51,2.34,2.34,0,0,0-2.42,2.59A2.22,2.22,0,0,0,31,53.77a2.46,2.46,0,0,0,2.28-1.54l.92.2A3,3,0,0,1,31,54.68,3.15,3.15,0,0,1,27.68,51.33Z"/><path class="cls-4" d="M39.16,48.8c-2,0-2.36,1.58-2.36,3.13v2.62h-1V48h1c0,.58,0,1.12-.05,1.66a2.57,2.57,0,0,1,2.43-1.81Z"/><path class="cls-4" d="M40.8,51.53a2.13,2.13,0,0,0,2.35,2.24,2.24,2.24,0,0,0,2.23-1.43l.95.24a3.12,3.12,0,0,1-3.2,2.09,3.13,3.13,0,0,1-3.35-3.4,3.26,3.26,0,0,1,3.4-3.47c2.27,0,3.29,1.53,3.29,3.71Zm0-.68h4.66a2.13,2.13,0,0,0-2.31-2.12A2.22,2.22,0,0,0,40.8,50.86Z"/><path class="cls-4" d="M47.74,51.33a3.27,3.27,0,0,1,3.48-3.52,2.85,2.85,0,0,1,3,2.16l-.95.28a1.93,1.93,0,0,0-2.11-1.51,2.34,2.34,0,0,0-2.42,2.59,2.22,2.22,0,0,0,2.34,2.44,2.46,2.46,0,0,0,2.28-1.54l.92.2a3,3,0,0,1-3.19,2.24A3.15,3.15,0,0,1,47.74,51.33Z"/><path class="cls-4" d="M55.8,45.89a.51.51,0,0,1,.54-.53.5.5,0,0,1,.53.53v.62a.5.5,0,0,1-.53.51.51.51,0,0,1-.54-.51Zm0,8.67V48h1v6.59Z"/><path class="cls-4" d="M58.46,51.26a3.42,3.42,0,1,1,3.4,3.43A3.25,3.25,0,0,1,58.46,51.26Zm1,0a2.32,2.32,0,0,0,2.42,2.53,2.36,2.36,0,0,0,2.43-2.53,2.43,2.43,0,1,0-4.85,0Z"/><path class="cls-4" d="M72,54.56V50.34c0-1-.68-1.63-1.85-1.63A2,2,0,0,0,68,50.76v3.79H67V48h1c0,.39,0,.78,0,1.17h0a2.51,2.51,0,0,1,2.39-1.35A2.33,2.33,0,0,1,73,50.09v4.47Z"/><path class="cls-4" d="M75.57,51.53a2.13,2.13,0,0,0,2.35,2.24,2.24,2.24,0,0,0,2.23-1.43l.95.24a3.41,3.41,0,0,1-6.55-1.31,3.26,3.26,0,0,1,3.4-3.47c2.27,0,3.29,1.53,3.29,3.71Zm0-.68h4.66a2.13,2.13,0,0,0-2.31-2.12A2.22,2.22,0,0,0,75.57,50.86Z"/><path class="cls-4" d="M82.48,52.48l1.05,0c0,.9.69,1.43,1.93,1.43.8,0,1.73-.36,1.73-1.16,0-1.73-4.55-.24-4.55-3,0-1.2,1.28-1.93,2.65-1.93,1.86,0,2.75.84,2.86,2.19l-1.05.07c-.07-.89-.67-1.38-1.84-1.38-.84,0-1.62.42-1.62,1.11,0,1.63,4.58.27,4.58,2.92,0,1.36-1.4,2-2.81,2C83.51,54.68,82.55,53.88,82.48,52.48Z"/><path class="cls-4" d="M92.39,51.33a3.27,3.27,0,0,1,3.48-3.52,2.85,2.85,0,0,1,3,2.16l-.95.28a1.93,1.93,0,0,0-2.11-1.51,2.34,2.34,0,0,0-2.42,2.59,2.22,2.22,0,0,0,2.34,2.44A2.46,2.46,0,0,0,98,52.23l.92.2a3,3,0,0,1-3.19,2.24A3.15,3.15,0,0,1,92.39,51.33Z"/><path class="cls-4" d="M100.1,51.26a3.42,3.42,0,1,1,3.4,3.43A3.25,3.25,0,0,1,100.1,51.26Zm1,0a2.32,2.32,0,0,0,2.42,2.53,2.36,2.36,0,0,0,2.43-2.53,2.43,2.43,0,1,0-4.85,0Z"/><path class="cls-4" d="M112,48.8c-2,0-2.36,1.58-2.36,3.13v2.62h-1V48h1c0,.58,0,1.12-.05,1.66A2.57,2.57,0,0,1,112,47.82Z"/><path class="cls-4" d="M114.19,53.25c0,.51,0,1,0,1.54v2.08h-1V48h1v.61c0,.24,0,.73,0,.73a2.93,2.93,0,0,1,2.57-1.5A3.13,3.13,0,0,1,120,51.26a3.14,3.14,0,0,1-3.27,3.46A2.69,2.69,0,0,1,114.19,53.25Zm.05-2a2.26,2.26,0,0,0,2.38,2.58,2.55,2.55,0,0,0,0-5.08A2.34,2.34,0,0,0,114.25,51.24Z"/><path class="cls-4" d="M121.23,51.26a3.42,3.42,0,1,1,3.4,3.43A3.25,3.25,0,0,1,121.23,51.26Zm1,0a2.32,2.32,0,0,0,2.42,2.53,2.36,2.36,0,0,0,2.43-2.53,2.43,2.43,0,1,0-4.85,0Z"/><path class="cls-4" d="M133.14,48.8c-2,0-2.36,1.58-2.36,3.13v2.62h-1V48h1c0,.58,0,1.12-.05,1.66a2.57,2.57,0,0,1,2.43-1.81Z"/><path class="cls-4" d="M139.54,54.56V53.19A2.65,2.65,0,0,1,137,54.68a3.16,3.16,0,0,1-3.25-3.4,3.22,3.22,0,0,1,3.34-3.47,2.85,2.85,0,0,1,2.48,1.44s0-.84,0-1.28h1v6.59Zm-4.74-3.28a2.26,2.26,0,0,0,2.3,2.5,2.35,2.35,0,0,0,2.4-2.5,2.27,2.27,0,0,0-2.4-2.54A2.34,2.34,0,0,0,134.8,51.28Z"/><path class="cls-4" d="M142.47,54.56V45.4h1v9.16Z"/><path class="cls-4" d="M146.15,51.53a2.13,2.13,0,0,0,2.35,2.24,2.24,2.24,0,0,0,2.23-1.43l.95.24a3.41,3.41,0,0,1-6.55-1.31,3.26,3.26,0,0,1,3.4-3.47c2.27,0,3.29,1.53,3.29,3.71Zm0-.68h4.66a2.13,2.13,0,0,0-2.31-2.12A2.22,2.22,0,0,0,146.15,50.86Z"/><path class="cls-4" d="M153.07,52.48l1.05,0c0,.9.69,1.43,1.93,1.43.8,0,1.73-.36,1.73-1.16,0-1.73-4.55-.24-4.55-3,0-1.2,1.28-1.93,2.65-1.93,1.86,0,2.75.84,2.86,2.19l-1.05.07c-.07-.89-.67-1.38-1.84-1.38-.84,0-1.62.42-1.62,1.11,0,1.63,4.58.27,4.58,2.92,0,1.36-1.4,2-2.81,2C154.09,54.68,153.13,53.88,153.07,52.48Z"/><path class="cls-4" d="M161,56.54l-1-.35c.22-.51.42-1,.62-1.55a2.77,2.77,0,0,0,.12-1.09V53.1h1.12v.54a3,3,0,0,1-.17,1.22Z"/><path class="cls-4" d="M21.9,68.05V63.84a1.42,1.42,0,0,0-1.58-1.63A1.76,1.76,0,0,0,18.5,64v4.09h-1V63.84a1.45,1.45,0,0,0-1.63-1.63,1.43,1.43,0,0,0-.65.16c-.95.3-1.12,1.27-1.12,2.16v3.52H13V61.46h1c0,.39,0,.8,0,1.19h0a2,2,0,0,1,2.12-1.31,2.08,2.08,0,0,1,2.13,1.35,2.32,2.32,0,0,1,2.28-1.39,2.08,2.08,0,0,1,2.36,2.28v4.47Z"/><path class="cls-4" d="M30.28,68.05V66.69a2.65,2.65,0,0,1-2.52,1.49,3.16,3.16,0,0,1-3.25-3.4,3.22,3.22,0,0,1,3.34-3.47,2.85,2.85,0,0,1,2.48,1.44s0-.84,0-1.28h1v6.59Zm-4.74-3.28a2.26,2.26,0,0,0,2.3,2.5,2.35,2.35,0,0,0,2.4-2.5,2.27,2.27,0,0,0-2.4-2.54A2.34,2.34,0,0,0,25.54,64.77Z"/><path class="cls-4" d="M38.22,68.05V63.84c0-1-.68-1.63-1.85-1.63a2,2,0,0,0-2.11,2.05v3.79h-1V61.46h1c0,.39,0,.78,0,1.17h0a2.51,2.51,0,0,1,2.39-1.35,2.33,2.33,0,0,1,2.62,2.28v4.47Z"/><path class="cls-4" d="M41.2,59.38a.51.51,0,0,1,.54-.53.5.5,0,0,1,.53.53V60a.5.5,0,0,1-.53.51A.51.51,0,0,1,41.2,60Zm0,8.67V61.46h1v6.59Z"/><path class="cls-4" d="M45.27,66.74c0,.51,0,1,0,1.54v2.08h-1v-8.9h1v.61c0,.24,0,.73,0,.73a2.93,2.93,0,0,1,2.57-1.5A3.13,3.13,0,0,1,51,64.76a3.14,3.14,0,0,1-3.27,3.46A2.69,2.69,0,0,1,45.27,66.74Zm.05-2a2.26,2.26,0,0,0,2.38,2.58,2.55,2.55,0,0,0,0-5.08A2.34,2.34,0,0,0,45.32,64.73Z"/><path class="cls-4" d="M57.69,68.05l0-1.24h0a2.43,2.43,0,0,1-2.36,1.38,2.35,2.35,0,0,1-2.63-2.5V61.46h1v4.1a1.6,1.6,0,0,0,1.82,1.69,2,2,0,0,0,2.12-2.16V61.46h1v6.59Z"/><path class="cls-4" d="M60.63,68.05V58.9h1v9.16Z"/><path class="cls-4" d="M69.06,68.05V66.69a2.65,2.65,0,0,1-2.52,1.49,3.16,3.16,0,0,1-3.25-3.4,3.22,3.22,0,0,1,3.33-3.47,2.85,2.85,0,0,1,2.49,1.44s0-.84,0-1.28h1v6.59Zm-4.74-3.28a2.26,2.26,0,0,0,2.29,2.5,2.35,2.35,0,0,0,2.4-2.5,2.27,2.27,0,0,0-2.4-2.54A2.34,2.34,0,0,0,64.33,64.77Z"/><path class="cls-4" d="M71.61,64.83A3.27,3.27,0,0,1,75.1,61.3a2.85,2.85,0,0,1,3,2.16l-.95.28A1.93,1.93,0,0,0,75,62.23a2.34,2.34,0,0,0-2.42,2.59A2.22,2.22,0,0,0,75,67.27a2.46,2.46,0,0,0,2.28-1.54l.92.2A3,3,0,0,1,75,68.17,3.15,3.15,0,0,1,71.61,64.83Z"/><path class="cls-4" d="M79.68,59.38a.51.51,0,0,1,.54-.53.5.5,0,0,1,.53.53V60a.5.5,0,0,1-.53.51.51.51,0,0,1-.54-.51Zm0,8.67V61.46h1v6.59Z"/><path class="cls-4" d="M82.33,64.76a3.42,3.42,0,1,1,3.4,3.43A3.25,3.25,0,0,1,82.33,64.76Zm1,0a2.32,2.32,0,0,0,2.42,2.53,2.36,2.36,0,0,0,2.43-2.53,2.43,2.43,0,1,0-4.85,0Zm3.83-6.68c.23.24.43.5.65.74l-2.24,1.94c-.19-.2-.37-.42-.54-.62Z"/><path class="cls-4" d="M95.83,68.05V63.84c0-1-.68-1.63-1.85-1.63a2,2,0,0,0-2.11,2.05v3.79h-1V61.46h1c0,.39,0,.78,0,1.17h0a2.51,2.51,0,0,1,2.39-1.35,2.33,2.33,0,0,1,2.62,2.28v4.47Z"/><path class="cls-4" d="M107,68.05V66.7a2.83,2.83,0,0,1-2.57,1.49,3.46,3.46,0,0,1,0-6.91A2.91,2.91,0,0,1,107,62.72s0-1,0-1.54V58.9h1v9.16Zm-4.73-3.31a2.27,2.27,0,0,0,2.29,2.54,2.38,2.38,0,0,0,2.4-2.54,2.28,2.28,0,0,0-2.4-2.55A2.34,2.34,0,0,0,102.26,64.74Z"/><path class="cls-4" d="M110.67,65A2.13,2.13,0,0,0,113,67.27a2.24,2.24,0,0,0,2.23-1.43l.95.24a3.41,3.41,0,0,1-6.55-1.31A3.26,3.26,0,0,1,113,61.3c2.27,0,3.29,1.53,3.29,3.71Zm0-.68h4.66A2.13,2.13,0,0,0,113,62.23,2.22,2.22,0,0,0,110.67,64.35Z"/><path class="cls-4" d="M121.82,66.74c0,.51,0,1,0,1.54v2.08h-1v-8.9h1v.61c0,.24,0,.73,0,.73a2.93,2.93,0,0,1,2.57-1.5,3.13,3.13,0,0,1,3.23,3.46,3.14,3.14,0,0,1-3.27,3.46A2.69,2.69,0,0,1,121.82,66.74Zm.05-2a2.26,2.26,0,0,0,2.38,2.58,2.55,2.55,0,0,0,0-5.08A2.34,2.34,0,0,0,121.87,64.73Z"/><path class="cls-4" d="M129.88,65a2.13,2.13,0,0,0,2.35,2.24,2.24,2.24,0,0,0,2.23-1.43l.95.24a3.41,3.41,0,0,1-6.55-1.31,3.26,3.26,0,0,1,3.4-3.47c2.27,0,3.29,1.53,3.29,3.71Zm0-.68h4.66a2.13,2.13,0,0,0-2.31-2.12A2.22,2.22,0,0,0,129.88,64.35Z"/><path class="cls-4" d="M140.57,62.3c-2,0-2.36,1.58-2.36,3.13v2.62h-1V61.46h1c0,.58,0,1.12-.05,1.66a2.57,2.57,0,0,1,2.43-1.81Z"/><path class="cls-4" d="M141.44,66l1.05,0c0,.9.69,1.43,1.93,1.43.8,0,1.73-.36,1.73-1.16,0-1.73-4.55-.24-4.55-3,0-1.2,1.28-1.93,2.65-1.93,1.86,0,2.75.84,2.86,2.19l-1.05.07c-.07-.89-.67-1.38-1.84-1.38-.84,0-1.62.42-1.62,1.11,0,1.63,4.58.27,4.58,2.92,0,1.36-1.4,2-2.81,2C142.47,68.17,141.51,67.38,141.44,66Z"/><path class="cls-4" d="M148.48,64.76a3.42,3.42,0,1,1,3.4,3.43A3.25,3.25,0,0,1,148.48,64.76Zm1,0a2.32,2.32,0,0,0,2.42,2.53,2.36,2.36,0,0,0,2.43-2.53,2.43,2.43,0,1,0-4.85,0Z"/><path class="cls-4" d="M162,68.05V63.84c0-1-.68-1.63-1.85-1.63A2,2,0,0,0,158,64.26v3.79h-1V61.46h1c0,.39,0,.78,0,1.17h0a2.51,2.51,0,0,1,2.39-1.35A2.33,2.33,0,0,1,163,63.58v4.47Z"/><path class="cls-4" d="M170.34,68.05V66.69a2.65,2.65,0,0,1-2.52,1.49,3.16,3.16,0,0,1-3.25-3.4,3.22,3.22,0,0,1,3.34-3.47,2.85,2.85,0,0,1,2.48,1.44s0-.84,0-1.28h1v6.59Zm-4.74-3.28a2.26,2.26,0,0,0,2.3,2.5,2.35,2.35,0,0,0,2.4-2.5,2.27,2.27,0,0,0-2.4-2.54A2.34,2.34,0,0,0,165.6,64.77Z"/><path class="cls-4" d="M172.95,66l1.05,0c0,.9.69,1.43,1.93,1.43.8,0,1.73-.36,1.73-1.16,0-1.73-4.55-.24-4.55-3,0-1.2,1.28-1.93,2.65-1.93,1.86,0,2.75.84,2.86,2.19l-1.05.07c-.07-.89-.67-1.38-1.84-1.38-.84,0-1.62.42-1.62,1.11,0,1.63,4.58.27,4.58,2.92,0,1.36-1.4,2-2.81,2C174,68.17,173,67.38,172.95,66Z"/><path class="cls-4" d="M188.61,70.36V67.58c0-.28,0-.85,0-.85A2.87,2.87,0,0,1,186,68.22a3.47,3.47,0,0,1,0-6.91,2.82,2.82,0,0,1,2.58,1.5c0-.42,0-.88,0-1.34h1v8.9Zm-4.7-5.59a2.31,2.31,0,0,0,2.27,2.54,2.39,2.39,0,0,0,2.4-2.54,2.34,2.34,0,0,0-2.42-2.54A2.3,2.3,0,0,0,183.91,64.77Z"/><path class="cls-4" d="M196.69,68.05l0-1.24h0a2.43,2.43,0,0,1-2.36,1.38,2.35,2.35,0,0,1-2.63-2.5V61.46h1v4.1a1.6,1.6,0,0,0,1.82,1.69,2,2,0,0,0,2.12-2.16V61.46h1v6.59Z"/><path class="cls-4" d="M200.28,65a2.13,2.13,0,0,0,2.35,2.24,2.24,2.24,0,0,0,2.23-1.43l.95.24a3.41,3.41,0,0,1-6.55-1.31,3.26,3.26,0,0,1,3.4-3.47c2.27,0,3.29,1.53,3.29,3.71Zm0-.68h4.66a2.13,2.13,0,0,0-2.31-2.12A2.22,2.22,0,0,0,200.28,64.35Z"/><path class="cls-4" d="M18,81.55v-4.2a1.65,1.65,0,0,0-1.85-1.65c-1.55,0-2.11,1-2.11,2.4v3.44H13V72.39h1v2.67c0,.55,0,.58,0,1.05h0a2.55,2.55,0,0,1,2.39-1.34,2.36,2.36,0,0,1,2.62,2.31v4.44Z"/><path class="cls-4" d="M26.38,81.55V80.19a2.65,2.65,0,0,1-2.52,1.49,3.16,3.16,0,0,1-3.25-3.4,3.22,3.22,0,0,1,3.33-3.47,2.85,2.85,0,0,1,2.49,1.44s0-.84,0-1.28h1v6.59Zm-4.74-3.28a2.26,2.26,0,0,0,2.29,2.5,2.35,2.35,0,0,0,2.4-2.5,2.27,2.27,0,0,0-2.4-2.54A2.34,2.34,0,0,0,21.64,78.27Z"/><path class="cls-4" d="M29.18,83.13c.11-.28.24-.57.35-.84a4.69,4.69,0,0,0,2.44.77c1.54,0,2.34-.74,2.34-2.88a2.49,2.49,0,0,1-2.4,1.39,2.36,2.36,0,0,1-2.66-2.51V75h1v4a1.63,1.63,0,0,0,1.86,1.69,2,2,0,0,0,2.07-2.17V75h1.05v5.29C35.27,82.44,34.16,84,32,84A5.2,5.2,0,0,1,29.18,83.13Z"/><path class="cls-4" d="M42.67,81.55V80.19a2.65,2.65,0,0,1-2.52,1.49,3.16,3.16,0,0,1-3.25-3.4,3.22,3.22,0,0,1,3.34-3.47,2.85,2.85,0,0,1,2.48,1.44s0-.84,0-1.28h1v6.59Zm-4.74-3.28a2.26,2.26,0,0,0,2.3,2.5,2.35,2.35,0,0,0,2.4-2.5,2.27,2.27,0,0,0-2.4-2.54A2.34,2.34,0,0,0,37.94,78.27Z"/><path class="cls-4" d="M50.62,81.55V77.34c0-1-.68-1.63-1.85-1.63a2,2,0,0,0-2.11,2.05v3.79h-1V75h1c0,.39,0,.78,0,1.17h0A2.51,2.51,0,0,1,49,74.8a2.33,2.33,0,0,1,2.62,2.28v4.47Z"/><path class="cls-4" d="M56.13,79.47l1.05,0c0,.9.69,1.43,1.93,1.43.8,0,1.73-.36,1.73-1.16,0-1.73-4.55-.24-4.55-3,0-1.2,1.28-1.93,2.65-1.93,1.86,0,2.75.84,2.86,2.19l-1.05.07c-.07-.89-.67-1.38-1.84-1.38-.84,0-1.62.42-1.62,1.11,0,1.63,4.58.27,4.58,2.92,0,1.36-1.4,2-2.81,2C57.16,81.67,56.2,80.87,56.13,79.47Z"/><path class="cls-4" d="M68.58,81.55l0-1.24h0a2.43,2.43,0,0,1-2.36,1.38,2.35,2.35,0,0,1-2.63-2.5V75h1v4.1a1.6,1.6,0,0,0,1.82,1.69,2,2,0,0,0,2.12-2.16V75h1v6.59Z"/><path class="cls-4" d="M72.89,75h1.75v.86H72.89v5.73h-1V75.82h-.95V75h.95v-.28c0-1.38.95-2.38,2.69-2.38a7,7,0,0,1,.88.07v.89a6.8,6.8,0,0,0-.82-.05c-1.12,0-1.7.58-1.7,1.53Z"/><path class="cls-4" d="M79.37,75.8c-2,0-2.36,1.58-2.36,3.13v2.62H76V75h1c0,.58,0,1.12-.05,1.66a2.57,2.57,0,0,1,2.43-1.81Z"/><path class="cls-4" d="M80.54,72.88a.51.51,0,0,1,.54-.53.5.5,0,0,1,.53.53v.62a.5.5,0,0,1-.53.51.51.51,0,0,1-.54-.51Zm0,8.67V75h1v6.59Z"/><path class="cls-4" d="M89,81.55V80.2a2.83,2.83,0,0,1-2.57,1.49,3.46,3.46,0,0,1,0-6.91A2.91,2.91,0,0,1,89,76.22s0-1,0-1.54V72.39h1v9.16Zm-4.73-3.31a2.27,2.27,0,0,0,2.29,2.54A2.38,2.38,0,0,0,89,78.24a2.28,2.28,0,0,0-2.4-2.55A2.34,2.34,0,0,0,84.27,78.24Z"/><path class="cls-4" d="M91.65,78.26a3.42,3.42,0,1,1,3.4,3.43A3.25,3.25,0,0,1,91.65,78.26Zm1,0a2.32,2.32,0,0,0,2.42,2.53,2.36,2.36,0,0,0,2.43-2.53,2.43,2.43,0,1,0-4.85,0Z"/><path class="cls-4" d="M108.28,81.55V80.19a2.65,2.65,0,0,1-2.52,1.49,3.16,3.16,0,0,1-3.25-3.4,3.22,3.22,0,0,1,3.34-3.47,2.85,2.85,0,0,1,2.48,1.44s0-.84,0-1.28h1v6.59Zm-4.74-3.28a2.26,2.26,0,0,0,2.3,2.5,2.35,2.35,0,0,0,2.4-2.5,2.27,2.27,0,0,0-2.4-2.54A2.34,2.34,0,0,0,103.54,78.27Z"/><path class="cls-4" d="M111.21,81.55V72.39h1v9.16Z"/><path class="cls-4" d="M114.65,82.27a4.37,4.37,0,0,0,2.43.81,2.21,2.21,0,0,0,2.53-2.32V80a2.85,2.85,0,0,1-2.54,1.5,3.08,3.08,0,0,1-3.2-3.28,3.17,3.17,0,0,1,3.32-3.4,2.66,2.66,0,0,1,2.43,1.47s0-.88,0-1.31h1v5.91c0,1.92-1.27,3.11-3.39,3.11a5.11,5.11,0,0,1-2.89-.9C114.4,82.81,114.56,82.54,114.65,82.27Zm.28-4.08a2.21,2.21,0,0,0,2.24,2.4,2.26,2.26,0,0,0,2.34-2.38,2.3,2.3,0,1,0-4.58,0Z"/><path class="cls-4" d="M127.61,81.55l0-1.24h0a2.43,2.43,0,0,1-2.36,1.38,2.35,2.35,0,0,1-2.63-2.5V75h1v4.1a1.6,1.6,0,0,0,1.82,1.69,2,2,0,0,0,2.12-2.16V75h1v6.59Zm-.54-10c.23.24.43.5.65.74l-2.24,1.94c-.19-.2-.36-.42-.54-.62Z"/><path class="cls-4" d="M135.57,81.55V77.34c0-1-.68-1.63-1.85-1.63a2,2,0,0,0-2.11,2.05v3.79h-1V75h1c0,.39,0,.78,0,1.17h0A2.51,2.51,0,0,1,134,74.8a2.33,2.33,0,0,1,2.62,2.28v4.47Z"/><path class="cls-4" d="M143,75.82v4.39c0,.31.19.57.74.57a1.88,1.88,0,0,0,.77-.16v.77a2.55,2.55,0,0,1-1.27.3A1.15,1.15,0,0,1,142,80.58V75.82h-1.27V75H142v-1.7h1V75h1.51v.86Z"/><path class="cls-4" d="M149.38,75.8c-2,0-2.36,1.58-2.36,3.13v2.62h-1V75h1c0,.58,0,1.12-.05,1.66a2.57,2.57,0,0,1,2.43-1.81Z"/><path class="cls-4" d="M155.78,81.55V80.19a2.65,2.65,0,0,1-2.52,1.49,3.16,3.16,0,0,1-3.25-3.4,3.22,3.22,0,0,1,3.34-3.47,2.85,2.85,0,0,1,2.48,1.44s0-.84,0-1.28h1v6.59ZM151,78.27a2.26,2.26,0,0,0,2.3,2.5,2.35,2.35,0,0,0,2.4-2.5,2.27,2.27,0,0,0-2.4-2.54A2.34,2.34,0,0,0,151,78.27Z"/><path class="cls-4" d="M163.73,81.55l0-1.24h0a2.43,2.43,0,0,1-2.36,1.38,2.35,2.35,0,0,1-2.63-2.5V75h1v4.1a1.6,1.6,0,0,0,1.82,1.69,2,2,0,0,0,2.12-2.16V75h1v6.59Z"/><path class="cls-4" d="M175.57,81.55V77.34A1.42,1.42,0,0,0,174,75.7a1.76,1.76,0,0,0-1.82,1.76v4.09h-1V77.34a1.45,1.45,0,0,0-1.63-1.63,1.43,1.43,0,0,0-.65.16c-.95.3-1.12,1.27-1.12,2.16v3.52h-1V75h1c0,.39,0,.8,0,1.19h0a2,2,0,0,1,2.12-1.31A2.08,2.08,0,0,1,172,76.19a2.32,2.32,0,0,1,2.28-1.39,2.08,2.08,0,0,1,2.36,2.28v4.47Z"/><path class="cls-4" d="M184,81.55V80.19a2.65,2.65,0,0,1-2.52,1.49,3.16,3.16,0,0,1-3.25-3.4,3.22,3.22,0,0,1,3.34-3.47A2.85,2.85,0,0,1,184,76.24s0-.84,0-1.28h1v6.59Zm-4.74-3.28a2.26,2.26,0,0,0,2.3,2.5,2.35,2.35,0,0,0,2.4-2.5,2.27,2.27,0,0,0-2.4-2.54A2.34,2.34,0,0,0,179.21,78.27Z"/><path class="cls-5" d="M14.85,24.64a2.33,2.33,0,0,1-2.34-2.33V17a2.34,2.34,0,0,1,4-1.65A2.27,2.27,0,0,1,17.18,17V18.1H15.65V17a.85.85,0,0,0-.85-.85.81.81,0,0,0-.6.25A.82.82,0,0,0,14,17V22.3a.84.84,0,0,0,.84.84.83.83,0,0,0,.6-.24.8.8,0,0,0,.25-.59V20.38h-.82V18.9h2.34v3.41a2.33,2.33,0,0,1-2.33,2.33Z"/><path class="cls-5" d="M22.17,24.63a2.31,2.31,0,0,1-2.33-2.32V14.76h1.44v7.53a.8.8,0,0,0,.25.6.82.82,0,0,0,.6.25.84.84,0,0,0,.84-.84V14.76H24.5V22.3A2.22,2.22,0,0,1,23.82,24,2.28,2.28,0,0,1,22.17,24.63Z"/><path class="cls-5" d="M28.91,22.27l-.36,2.24H27l1.66-9.76h2l1.63,9.76H30.79l-.34-2.24ZM29.68,17l-.54,3.85h1.09Z"/><path class="cls-5" d="M36.65,14.75l2,6.56V14.75h1.47v9.77H38.5l-2-6.25v6.25H35V14.75Z"/><path class="cls-5" d="M44.31,16.24H42.74V14.76h4.6v1.48H45.78v8.28H44.31Z"/><path class="cls-5" d="M50,24.52V14.75h4.19v1.48H51.47v2.66h2v1.48h-2V23h2.72v1.48Z"/><path class="cls-5" d="M61.64,22.09a2.74,2.74,0,0,1-.53,1.74,1.91,1.91,0,0,1-1,.69,2.76,2.76,0,0,1-.82.11,2.31,2.31,0,0,1-1.43-.43,2.4,2.4,0,0,1-.75-1,3.87,3.87,0,0,1-.32-1.38l1.4-.1A2.13,2.13,0,0,0,58.62,23a.75.75,0,0,0,.61.27A.91.91,0,0,0,60,22.8a1.18,1.18,0,0,0,.15-.65,1.8,1.8,0,0,0-.55-1.21l-1.31-1.24a5.58,5.58,0,0,1-1-1.27,2.94,2.94,0,0,1-.33-1.37,2.39,2.39,0,0,1,.9-2,2.23,2.23,0,0,1,1.37-.41,2.49,2.49,0,0,1,1.35.35,2,2,0,0,1,.71.76,2.81,2.81,0,0,1,.32,1.13l-1.41.26a1.7,1.7,0,0,0-.34-.93.72.72,0,0,0-.58-.24.67.67,0,0,0-.62.36,1.38,1.38,0,0,0-.17.72A2.15,2.15,0,0,0,59,18.4a4.88,4.88,0,0,0,.65.62q.51.43.68.6a5,5,0,0,1,.84,1.07,4.21,4.21,0,0,1,.23.46A2.68,2.68,0,0,1,61.64,22.09Z"/><path class="cls-5" d="M71.49,22.18a2.27,2.27,0,0,1-.68,1.65,2.22,2.22,0,0,1-1.64.69H66.86V14.75h2.31a2.21,2.21,0,0,1,1.64.69,2.26,2.26,0,0,1,.67,1.64Zm-3.15.88h.89a.79.79,0,0,0,.59-.25.83.83,0,0,0,.24-.6V17.1a.82.82,0,0,0-.25-.6.8.8,0,0,0-.59-.25h-.89Z"/><path class="cls-5" d="M74.16,24.52V14.75h4.19v1.48H75.63v2.66h2v1.48h-2V23h2.72v1.48Z"/><path class="cls-5" d="M85.8,22.09a2.74,2.74,0,0,1-.53,1.74,1.91,1.91,0,0,1-1,.69,2.76,2.76,0,0,1-.82.11A2.31,2.31,0,0,1,82,24.21a2.4,2.4,0,0,1-.75-1,3.87,3.87,0,0,1-.32-1.38l1.4-.1A2.13,2.13,0,0,0,82.78,23a.75.75,0,0,0,.61.27.91.91,0,0,0,.77-.48,1.18,1.18,0,0,0,.15-.65,1.8,1.8,0,0,0-.55-1.21l-1.31-1.24a5.58,5.58,0,0,1-1-1.27,2.94,2.94,0,0,1-.33-1.37,2.39,2.39,0,0,1,.9-2,2.23,2.23,0,0,1,1.37-.41A2.49,2.49,0,0,1,84.7,15a2,2,0,0,1,.71.76,2.81,2.81,0,0,1,.32,1.13l-1.41.26A1.7,1.7,0,0,0,84,16.2a.72.72,0,0,0-.58-.24.67.67,0,0,0-.62.36,1.38,1.38,0,0,0-.17.72,2.15,2.15,0,0,0,.58,1.36,4.88,4.88,0,0,0,.65.62q.51.43.68.6a5,5,0,0,1,.84,1.07,4.21,4.21,0,0,1,.23.46A2.68,2.68,0,0,1,85.8,22.09Z"/><path class="cls-5" d="M90.8,24.64a2.33,2.33,0,0,1-2.34-2.33V17a2.33,2.33,0,1,1,4.67,0V18.1H91.6V17a.85.85,0,0,0-.85-.85.81.81,0,0,0-.6.25.82.82,0,0,0-.25.6V22.3a.84.84,0,0,0,.84.84.82.82,0,0,0,.6-.25.8.8,0,0,0,.25-.6V20.95h1.53v1.36a2.33,2.33,0,0,1-2.33,2.33Z"/><path class="cls-5" d="M97.53,22.27l-.36,2.24H95.64l1.66-9.76h2L101,24.52H99.41l-.34-2.24ZM98.31,17l-.54,3.85h1.09Z"/><path class="cls-5" d="M105.95,14.76a2.24,2.24,0,0,1,1.81.68,2.46,2.46,0,0,1,.51,1.65V18.5a2.28,2.28,0,0,1-.79,1.75l1.09,4.26H107l-.89-3.68h-1v3.68h-1.47V14.76Zm.88,2.35a.75.75,0,0,0-.84-.85h-.89v3.12H106a.8.8,0,0,0,.6-.25.82.82,0,0,0,.25-.6Z"/><path class="cls-5" d="M112.61,16.24H111V14.76h4.6v1.48h-1.56v8.28h-1.47Z"/><path class="cls-5" d="M119.52,22.27l-.36,2.24h-1.53l1.66-9.76h2L123,24.52h-1.55l-.34-2.24ZM120.3,17l-.54,3.85h1.09Z"/><path class="cls-5" d="M125.62,24.52V14.75h2.2a2.81,2.81,0,0,1,1.57.46,2.14,2.14,0,0,1,.86,1.21,3.43,3.43,0,0,1,.14,1,2.29,2.29,0,0,1-.52,1.57,1.48,1.48,0,0,1-.51.38,1.71,1.71,0,0,1,.83.74,2.89,2.89,0,0,1,.33,1,3.87,3.87,0,0,1,.05.68,3.26,3.26,0,0,1-.35,1.57,2.1,2.1,0,0,1-.77.81,2.12,2.12,0,0,1-1.11.34Zm1.59-5.78h.62a.9.9,0,0,0,.92-.67,1.89,1.89,0,0,0,.09-.62,1.29,1.29,0,0,0-.3-.92.93.93,0,0,0-.71-.29h-.62Zm0,4.32h.62a1,1,0,0,0,1-.77,1.69,1.69,0,0,0,.1-.61,1.85,1.85,0,0,0-.31-1.19,1,1,0,0,0-.83-.34h-.62Z"/><path class="cls-5" d="M137.25,24.52h-4V14.76h1.47v8.29h2.54Z"/><path class="cls-5" d="M139.92,24.52V14.75h4.19v1.48h-2.72v2.66h2v1.48h-2V23h2.72v1.48Z"/><path class="cls-5" d="M151.55,22.09a2.74,2.74,0,0,1-.53,1.74,1.91,1.91,0,0,1-1,.69,2.76,2.76,0,0,1-.82.11,2.31,2.31,0,0,1-1.43-.43,2.4,2.4,0,0,1-.75-1,3.87,3.87,0,0,1-.32-1.38l1.4-.1a2.13,2.13,0,0,0,.45,1.24.75.75,0,0,0,.61.27.91.91,0,0,0,.77-.48,1.18,1.18,0,0,0,.15-.65,1.8,1.8,0,0,0-.55-1.21l-1.31-1.24a5.58,5.58,0,0,1-1-1.27,2.94,2.94,0,0,1-.33-1.37,2.39,2.39,0,0,1,.9-2,2.23,2.23,0,0,1,1.37-.41,2.49,2.49,0,0,1,1.35.35,2,2,0,0,1,.71.76,2.81,2.81,0,0,1,.32,1.13l-1.41.26a1.7,1.7,0,0,0-.34-.93.72.72,0,0,0-.58-.24.67.67,0,0,0-.62.36,1.38,1.38,0,0,0-.17.72,2.15,2.15,0,0,0,.58,1.36,4.88,4.88,0,0,0,.65.62q.51.43.68.6a5,5,0,0,1,.84,1.07,4.21,4.21,0,0,1,.23.46A2.68,2.68,0,0,1,151.55,22.09Z"/></g></g></g></svg>