<svg xmlns="http://www.w3.org/2000/svg" viewBox="0 0 228.64 88.59"><defs><style>.cls-1{isolation:isolate;}.cls-2{opacity:0.6;mix-blend-mode:overlay;}.cls-3{fill:#fff;}.cls-4{fill:#8f8f8f;}.cls-5{fill:#3764cb;}</style></defs><title>a_7</title><g class="cls-1"><g id="Capa_2" data-name="Capa 2"><g id="Capa_1-2" data-name="Capa 1"><g class="cls-2"><rect y="14.97" width="224.84" height="73.63" rx="10.15" ry="10.15"/></g><rect class="cls-3" width="228.64" height="83.73" rx="10.39" ry="10.39"/><path class="cls-4" d="M13.09,32.81v3.9H12V27.56h3.64c2.11,0,3.38.86,3.38,2.57s-1.44,2.69-3.34,2.69Zm0-4.33v3.44h2.62c1.21,0,2.22-.63,2.22-1.73s-.84-1.71-2.28-1.71Z"/><path class="cls-4" d="M25.65,36.72V35.35a2.67,2.67,0,0,1-2.55,1.49,3.17,3.17,0,0,1-3.28-3.4A3.23,3.23,0,0,1,23.19,30a2.88,2.88,0,0,1,2.51,1.44s0-.84,0-1.28h1v6.59Zm-4.78-3.28a2.27,2.27,0,0,0,2.32,2.5,2.36,2.36,0,0,0,2.42-2.5,2.28,2.28,0,0,0-2.42-2.54A2.35,2.35,0,0,0,20.87,33.44Z"/><path class="cls-4" d="M32.06,31c-2,0-2.38,1.58-2.38,3.13v2.62h-1V30.13h1c0,.58,0,1.12-.05,1.66A2.59,2.59,0,0,1,32.06,30Z"/><path class="cls-4" d="M38.53,36.72V35.35A2.67,2.67,0,0,1,36,36.84a3.17,3.17,0,0,1-3.28-3.4A3.23,3.23,0,0,1,36.06,30a2.88,2.88,0,0,1,2.51,1.44s0-.84,0-1.28h1v6.59Zm-4.78-3.28a2.27,2.27,0,0,0,2.32,2.5,2.36,2.36,0,0,0,2.43-2.5,2.28,2.28,0,0,0-2.43-2.54A2.35,2.35,0,0,0,33.74,33.44Z"/><path class="cls-4" d="M43.83,33.49A3.29,3.29,0,0,1,47.35,30a2.87,2.87,0,0,1,3,2.16l-1,.28a1.94,1.94,0,0,0-2.13-1.51,2.35,2.35,0,0,0-2.44,2.59,2.23,2.23,0,0,0,2.36,2.44,2.48,2.48,0,0,0,2.3-1.54l.93.2a3.05,3.05,0,0,1-3.22,2.24A3.16,3.16,0,0,1,43.83,33.49Z"/><path class="cls-4" d="M57,36.72l0-1.24h0a2.45,2.45,0,0,1-2.38,1.38,2.36,2.36,0,0,1-2.66-2.5V30.13h1v4.1a1.61,1.61,0,0,0,1.84,1.69,2,2,0,0,0,2.14-2.16V30.13h1v6.59Z"/><path class="cls-4" d="M63.43,31c-2,0-2.38,1.58-2.38,3.13v2.62H60V30.13h1c0,.58,0,1.12-.05,1.66A2.59,2.59,0,0,1,63.43,30Z"/><path class="cls-4" d="M69.89,36.72V35.35a2.67,2.67,0,0,1-2.55,1.49,3.17,3.17,0,0,1-3.28-3.4A3.23,3.23,0,0,1,67.42,30a2.88,2.88,0,0,1,2.51,1.44s0-.84,0-1.28h1v6.59ZM65.1,33.44a2.27,2.27,0,0,0,2.32,2.5,2.36,2.36,0,0,0,2.43-2.5,2.28,2.28,0,0,0-2.43-2.54A2.35,2.35,0,0,0,65.1,33.44Z"/><path class="cls-4" d="M72.47,33.49A3.29,3.29,0,0,1,76,30a2.87,2.87,0,0,1,3,2.16l-1,.28a1.94,1.94,0,0,0-2.13-1.51,2.35,2.35,0,0,0-2.44,2.59,2.23,2.23,0,0,0,2.36,2.44,2.48,2.48,0,0,0,2.3-1.54l.93.2a3.05,3.05,0,0,1-3.22,2.24A3.16,3.16,0,0,1,72.47,33.49Z"/><path class="cls-4" d="M80.61,28a.52.52,0,0,1,.54-.53.5.5,0,0,1,.53.53v.62a.5.5,0,0,1-.53.51.51.51,0,0,1-.54-.51Zm0,8.67V30.13h1v6.59Z"/><path class="cls-4" d="M83.29,33.42A3.26,3.26,0,0,1,86.74,30a3.23,3.23,0,0,1,3.46,3.46,3.45,3.45,0,0,1-6.91,0Zm1,0a2.33,2.33,0,0,0,2.44,2.53,2.37,2.37,0,0,0,2.45-2.53,2.45,2.45,0,1,0-4.89,0Zm3.87-6.68c.23.24.44.5.65.74l-2.26,1.95c-.19-.2-.37-.42-.54-.62Z"/><path class="cls-4" d="M96.91,36.72V32.5c0-1-.68-1.63-1.87-1.63a2,2,0,0,0-2.13,2.05v3.79h-1V30.13h1c0,.39,0,.78,0,1.17h0A2.53,2.53,0,0,1,95.32,30,2.34,2.34,0,0,1,98,32.25v4.47Z"/><path class="cls-4" d="M108.16,36.72V35.37a2.86,2.86,0,0,1-2.59,1.49,3.15,3.15,0,0,1-3.24-3.44,3.18,3.18,0,0,1,3.28-3.47,2.93,2.93,0,0,1,2.59,1.45s0-1,0-1.54V27.56h1v9.16Zm-4.77-3.31a2.28,2.28,0,0,0,2.32,2.54,2.39,2.39,0,0,0,2.43-2.54,2.29,2.29,0,0,0-2.43-2.55A2.35,2.35,0,0,0,103.39,33.41Z"/><path class="cls-4" d="M111.88,33.69a2.14,2.14,0,0,0,2.37,2.24,2.26,2.26,0,0,0,2.25-1.43l1,.24a3.44,3.44,0,0,1-6.61-1.31A3.27,3.27,0,0,1,114.27,30c2.29,0,3.33,1.53,3.33,3.71Zm0-.67h4.7a2.14,2.14,0,0,0-2.33-2.12A2.23,2.23,0,0,0,111.88,33Z"/><path class="cls-4" d="M127.14,36.72v-4.2a1.66,1.66,0,0,0-1.87-1.65c-1.57,0-2.13,1-2.13,2.4v3.44h-1V27.56h1v2.67c0,.55,0,.58,0,1.05h0A2.58,2.58,0,0,1,125.55,30a2.38,2.38,0,0,1,2.64,2.31v4.44Z"/><path class="cls-4" d="M130.79,33.69a2.14,2.14,0,0,0,2.37,2.24,2.26,2.26,0,0,0,2.25-1.43l1,.24a3.44,3.44,0,0,1-6.61-1.31A3.27,3.27,0,0,1,133.19,30c2.29,0,3.33,1.53,3.33,3.71Zm0-.67h4.7a2.14,2.14,0,0,0-2.33-2.12A2.23,2.23,0,0,0,130.79,33Z"/><path class="cls-4" d="M141.59,31c-2,0-2.38,1.58-2.38,3.13v2.62h-1V30.13h1c0,.58,0,1.12-.05,1.66A2.59,2.59,0,0,1,141.59,30Z"/><path class="cls-4" d="M142.77,28a.52.52,0,0,1,.54-.53.5.5,0,0,1,.53.53v.62a.5.5,0,0,1-.53.51.51.51,0,0,1-.54-.51Zm0,8.67V30.13h1v6.59Z"/><path class="cls-4" d="M151.3,36.72V35.37a2.86,2.86,0,0,1-2.59,1.49,3.15,3.15,0,0,1-3.24-3.44,3.18,3.18,0,0,1,3.28-3.47,2.93,2.93,0,0,1,2.59,1.45s0-1,0-1.54V27.56h1v9.16Zm-4.77-3.31a2.28,2.28,0,0,0,2.32,2.54,2.39,2.39,0,0,0,2.43-2.54,2.29,2.29,0,0,0-2.43-2.55A2.35,2.35,0,0,0,146.53,33.41Z"/><path class="cls-4" d="M159.81,36.72V35.35a2.67,2.67,0,0,1-2.55,1.49,3.17,3.17,0,0,1-3.28-3.4A3.23,3.23,0,0,1,157.35,30a2.88,2.88,0,0,1,2.51,1.44s0-.84,0-1.28h1v6.59ZM155,33.44a2.27,2.27,0,0,0,2.32,2.5,2.36,2.36,0,0,0,2.42-2.5,2.28,2.28,0,0,0-2.42-2.54A2.35,2.35,0,0,0,155,33.44Z"/><path class="cls-4" d="M162.45,34.64l1.06,0c0,.9.7,1.43,1.95,1.43.8,0,1.74-.37,1.74-1.16,0-1.73-4.59-.24-4.59-3,0-1.2,1.29-1.93,2.67-1.93,1.88,0,2.78.84,2.89,2.19l-1.06.07c-.07-.89-.68-1.38-1.85-1.38-.84,0-1.63.42-1.63,1.11,0,1.63,4.62.27,4.62,2.92,0,1.36-1.42,2-2.83,2C163.49,36.84,162.52,36,162.45,34.64Z"/><path class="cls-4" d="M172.73,38.3c.11-.28.25-.57.35-.84a4.76,4.76,0,0,0,2.47.77c1.55,0,2.36-.74,2.36-2.88a2.51,2.51,0,0,1-2.42,1.39,2.38,2.38,0,0,1-2.68-2.51v-4.1h1v4c0,1.08.72,1.69,1.88,1.69a2,2,0,0,0,2.08-2.17V30.13h1.06v5.29c0,2.19-1.12,3.73-3.28,3.73A5.27,5.27,0,0,1,172.73,38.3Z"/><path class="cls-4" d="M184.82,35.41c0,.51,0,1,0,1.54V39h-1v-8.9h1v.61c0,.24,0,.73,0,.73a3,3,0,0,1,2.59-1.5,3.15,3.15,0,0,1,3.26,3.46,3.15,3.15,0,0,1-3.3,3.46A2.72,2.72,0,0,1,184.82,35.41Zm.05-2a2.27,2.27,0,0,0,2.4,2.58,2.32,2.32,0,0,0,2.32-2.54,2.32,2.32,0,0,0-2.3-2.54A2.35,2.35,0,0,0,184.87,33.4Z"/><path class="cls-4" d="M197.75,36.72V35.35a2.67,2.67,0,0,1-2.55,1.49,3.17,3.17,0,0,1-3.28-3.4A3.23,3.23,0,0,1,195.29,30a2.88,2.88,0,0,1,2.51,1.44s0-.84,0-1.28h1v6.59ZM193,33.44a2.27,2.27,0,0,0,2.32,2.5,2.36,2.36,0,0,0,2.42-2.5,2.28,2.28,0,0,0-2.42-2.54A2.35,2.35,0,0,0,193,33.44Z"/><path class="cls-4" d="M204.17,31c-2,0-2.38,1.58-2.38,3.13v2.62h-1V30.13h1c0,.58,0,1.12-.05,1.66A2.59,2.59,0,0,1,204.17,30Z"/><path class="cls-4" d="M210.63,36.72V35.35a2.67,2.67,0,0,1-2.55,1.49,3.17,3.17,0,0,1-3.28-3.4A3.23,3.23,0,0,1,208.16,30a2.88,2.88,0,0,1,2.51,1.44s0-.84,0-1.28h1v6.59Zm-4.78-3.28a2.27,2.27,0,0,0,2.32,2.5,2.36,2.36,0,0,0,2.43-2.5,2.28,2.28,0,0,0-2.43-2.54A2.35,2.35,0,0,0,205.84,33.44Z"/><path class="cls-4" d="M17.59,48.53V47.18A2.86,2.86,0,0,1,15,48.66a3.15,3.15,0,0,1-3.24-3.44A3.18,3.18,0,0,1,15,41.75a2.93,2.93,0,0,1,2.59,1.45s0-1,0-1.54V39.37h1v9.16Zm-4.77-3.31a2.28,2.28,0,0,0,2.32,2.54,2.39,2.39,0,0,0,2.43-2.54,2.29,2.29,0,0,0-2.43-2.55A2.35,2.35,0,0,0,12.82,45.22Z"/><path class="cls-4" d="M21.31,45.5a2.14,2.14,0,0,0,2.37,2.24,2.26,2.26,0,0,0,2.25-1.43l1,.24a3.14,3.14,0,0,1-3.23,2.09,3.15,3.15,0,0,1-3.38-3.4,3.27,3.27,0,0,1,3.43-3.47C26,41.78,27,43.3,27,45.49Zm0-.67H26a2.14,2.14,0,0,0-2.33-2.12A2.23,2.23,0,0,0,21.31,44.83Z"/><path class="cls-4" d="M30.19,42.8v4.39c0,.31.19.57.75.57a1.92,1.92,0,0,0,.78-.16v.77a2.6,2.6,0,0,1-1.28.3,1.15,1.15,0,0,1-1.29-1.11V42.8H27.86v-.86h1.28v-1.7h1v1.7h1.53v.86Z"/><path class="cls-4" d="M33.63,45.5A2.14,2.14,0,0,0,36,47.74a2.26,2.26,0,0,0,2.25-1.43l1,.24A3.14,3.14,0,0,1,36,48.65a3.15,3.15,0,0,1-3.38-3.4A3.27,3.27,0,0,1,36,41.78c2.29,0,3.33,1.53,3.33,3.71Zm0-.67h4.7A2.14,2.14,0,0,0,36,42.71,2.23,2.23,0,0,0,33.63,44.83Z"/><path class="cls-4" d="M46,48.53V44.31c0-1-.68-1.63-1.87-1.63A2,2,0,0,0,42,44.73v3.79H41V41.94h1c0,.39,0,.78,0,1.17h0a2.53,2.53,0,0,1,2.41-1.35,2.34,2.34,0,0,1,2.64,2.28v4.47Z"/><path class="cls-4" d="M49.68,45.5a2.14,2.14,0,0,0,2.37,2.24,2.26,2.26,0,0,0,2.25-1.43l1,.24a3.44,3.44,0,0,1-6.61-1.31,3.27,3.27,0,0,1,3.43-3.47c2.29,0,3.33,1.53,3.33,3.71Zm0-.67h4.7a2.14,2.14,0,0,0-2.33-2.12A2.23,2.23,0,0,0,49.68,44.83Z"/><path class="cls-4" d="M60.48,42.77c-2,0-2.38,1.58-2.38,3.13v2.62H57V41.94h1c0,.58,0,1.12-.05,1.66a2.59,2.59,0,0,1,2.45-1.81Z"/><path class="cls-4" d="M64.06,46.45l1.06,0c0,.9.7,1.43,1.95,1.43.8,0,1.74-.37,1.74-1.16,0-1.73-4.59-.24-4.59-3,0-1.2,1.29-1.93,2.67-1.93,1.88,0,2.78.84,2.89,2.19L68.72,44c-.07-.89-.68-1.38-1.85-1.38-.84,0-1.63.42-1.63,1.11,0,1.63,4.62.27,4.62,2.92,0,1.36-1.42,2-2.83,2C65.1,48.65,64.13,47.85,64.06,46.45Z"/><path class="cls-4" d="M77,48.53V47.16a2.67,2.67,0,0,1-2.55,1.49,3.17,3.17,0,0,1-3.28-3.4,3.23,3.23,0,0,1,3.37-3.47A2.88,2.88,0,0,1,77,43.22s0-.84,0-1.28h1v6.59Zm-4.78-3.28a2.27,2.27,0,0,0,2.32,2.5A2.36,2.36,0,0,0,77,45.25a2.28,2.28,0,0,0-2.42-2.54A2.35,2.35,0,0,0,72.21,45.25Z"/><path class="cls-4" d="M85,48.53V44.31c0-1-.68-1.63-1.87-1.63A2,2,0,0,0,81,44.73v3.79H80V41.94h1c0,.39,0,.78,0,1.17h0a2.53,2.53,0,0,1,2.41-1.35,2.34,2.34,0,0,1,2.64,2.28v4.47Z"/><path class="cls-4" d="M88.42,49.24a4.45,4.45,0,0,0,2.45.81c1.51,0,2.55-.74,2.55-2.32V47a2.87,2.87,0,0,1-2.56,1.5,3.09,3.09,0,0,1-3.23-3.28A3.18,3.18,0,0,1,91,41.78a2.68,2.68,0,0,1,2.45,1.47s0-.88,0-1.31h1v5.91C94.39,49.77,93.11,51,91,51a5.18,5.18,0,0,1-2.92-.91C88.16,49.78,88.33,49.51,88.42,49.24Zm.29-4.08A2.22,2.22,0,0,0,91,47.57a2.27,2.27,0,0,0,2.36-2.38,2.31,2.31,0,1,0-4.62,0Z"/><path class="cls-4" d="M99.89,42.77c-2,0-2.38,1.58-2.38,3.13v2.62h-1V41.94h1c0,.58,0,1.12-.05,1.66a2.59,2.59,0,0,1,2.45-1.81Z"/><path class="cls-4" d="M106.35,48.53V47.16a2.67,2.67,0,0,1-2.55,1.49,3.17,3.17,0,0,1-3.28-3.4,3.23,3.23,0,0,1,3.37-3.47,2.88,2.88,0,0,1,2.51,1.44s0-.84,0-1.28h1v6.59Zm-4.78-3.28a2.27,2.27,0,0,0,2.32,2.5,2.36,2.36,0,0,0,2.42-2.5,2.28,2.28,0,0,0-2.42-2.54A2.35,2.35,0,0,0,101.56,45.25Z"/><path class="cls-4" d="M114.77,48.53V47.18a2.86,2.86,0,0,1-2.59,1.49,3.15,3.15,0,0,1-3.24-3.44,3.18,3.18,0,0,1,3.28-3.47,2.93,2.93,0,0,1,2.59,1.45s0-1,0-1.54V39.37h1v9.16ZM110,45.22a2.28,2.28,0,0,0,2.32,2.54,2.39,2.39,0,0,0,2.43-2.54,2.29,2.29,0,0,0-2.43-2.55A2.35,2.35,0,0,0,110,45.22Z"/><path class="cls-4" d="M117.46,45.23a3.26,3.26,0,0,1,3.45-3.46,3.44,3.44,0,1,1,0,6.89A3.27,3.27,0,0,1,117.46,45.23Zm1,0a2.33,2.33,0,0,0,2.44,2.53,2.37,2.37,0,0,0,2.45-2.53,2.45,2.45,0,1,0-4.89,0Z"/><path class="cls-4" d="M125.64,46.45l1.06,0c0,.9.7,1.43,1.95,1.43.8,0,1.74-.37,1.74-1.16,0-1.73-4.59-.24-4.59-3,0-1.2,1.29-1.93,2.67-1.93,1.88,0,2.78.84,2.89,2.19L130.3,44c-.07-.89-.68-1.38-1.85-1.38-.84,0-1.63.42-1.63,1.11,0,1.63,4.62.27,4.62,2.92,0,1.36-1.42,2-2.83,2C126.67,48.65,125.71,47.85,125.64,46.45Z"/><path class="cls-4" d="M137.07,47.22c0,.51,0,1,0,1.54v2.08h-1v-8.9h1v.61c0,.24,0,.73,0,.73a3,3,0,0,1,2.59-1.5,3.15,3.15,0,0,1,3.26,3.46,3.15,3.15,0,0,1-3.3,3.46A2.72,2.72,0,0,1,137.07,47.22Zm.05-2a2.27,2.27,0,0,0,2.4,2.58,2.55,2.55,0,0,0,0-5.08A2.35,2.35,0,0,0,137.13,45.2Z"/><path class="cls-4" d="M145.21,45.5a2.14,2.14,0,0,0,2.37,2.24,2.26,2.26,0,0,0,2.25-1.43l1,.24a3.44,3.44,0,0,1-6.61-1.31,3.27,3.27,0,0,1,3.43-3.47c2.29,0,3.33,1.53,3.33,3.71Zm0-.67h4.7a2.14,2.14,0,0,0-2.33-2.12A2.23,2.23,0,0,0,145.21,44.83Z"/><path class="cls-4" d="M158,50.84V48.05c0-.28,0-.85,0-.85a2.9,2.9,0,0,1-2.62,1.49,3.17,3.17,0,0,1-3.23-3.46,3.18,3.18,0,0,1,3.26-3.46,2.84,2.84,0,0,1,2.6,1.5c0-.42,0-.88,0-1.34h1v8.9Zm-4.74-5.59a2.32,2.32,0,0,0,2.29,2.54A2.4,2.4,0,0,0,158,45.25a2.35,2.35,0,0,0-2.44-2.54A2.31,2.31,0,0,0,153.28,45.25Z"/><path class="cls-4" d="M166.19,48.53l0-1.24h0a2.45,2.45,0,0,1-2.38,1.38,2.36,2.36,0,0,1-2.66-2.5V41.94h1V46A1.61,1.61,0,0,0,164,47.73a2,2,0,0,0,2.14-2.16V41.94h1v6.59Z"/><path class="cls-4" d="M169.81,45.5a2.14,2.14,0,0,0,2.37,2.24,2.26,2.26,0,0,0,2.25-1.43l1,.24a3.44,3.44,0,0,1-6.61-1.31,3.27,3.27,0,0,1,3.43-3.47c2.29,0,3.33,1.53,3.33,3.71Zm0-.67h4.7a2.14,2.14,0,0,0-2.33-2.12A2.23,2.23,0,0,0,169.81,44.83Z"/><path class="cls-4" d="M182.21,48.53V44.31c0-1-.68-1.63-1.87-1.63a2,2,0,0,0-2.13,2.05v3.79h-1V41.94h1c0,.39,0,.78,0,1.17h0a2.53,2.53,0,0,1,2.41-1.35,2.34,2.34,0,0,1,2.64,2.28v4.47Zm-4.4-7.66a.82.82,0,0,1,0-.26.94.94,0,0,1,1-.94c.84.08,1.73.28,2.58.43h.12a.25.25,0,0,0,.29-.27v-.08h.83a1.81,1.81,0,0,1,0,.27.89.89,0,0,1-.91.92,2.86,2.86,0,0,1-.46,0l-2.17-.38h-.11a.3.3,0,0,0-.33.28s0,0,0,.07Z"/><path class="cls-4" d="M184.84,45.23a3.26,3.26,0,0,1,3.45-3.46,3.44,3.44,0,1,1,0,6.89A3.27,3.27,0,0,1,184.84,45.23Zm1,0a2.33,2.33,0,0,0,2.44,2.53,2.37,2.37,0,0,0,2.45-2.53,2.45,2.45,0,1,0-4.89,0Z"/><path class="cls-4" d="M193,46.45l1.06,0c0,.9.7,1.43,1.95,1.43.8,0,1.74-.37,1.74-1.16,0-1.73-4.59-.24-4.59-3,0-1.2,1.29-1.93,2.67-1.93,1.88,0,2.78.84,2.89,2.19l-1.06.07c-.07-.89-.68-1.38-1.85-1.38-.84,0-1.63.42-1.63,1.11,0,1.63,4.62.27,4.62,2.92,0,1.36-1.42,2-2.83,2C194.05,48.65,193.08,47.85,193,46.45Z"/><path class="cls-4" d="M201,50.51l-1-.35c.22-.51.42-1,.63-1.55a2.75,2.75,0,0,0,.12-1.09v-.45h1.13v.54a3,3,0,0,1-.18,1.22Z"/><path class="cls-4" d="M17.59,60.34V59A2.86,2.86,0,0,1,15,60.47,3.15,3.15,0,0,1,11.76,57,3.18,3.18,0,0,1,15,53.56,2.93,2.93,0,0,1,17.63,55s0-1,0-1.54V51.18h1v9.16ZM12.82,57a2.28,2.28,0,0,0,2.32,2.54A2.39,2.39,0,0,0,17.56,57a2.29,2.29,0,0,0-2.43-2.55A2.35,2.35,0,0,0,12.82,57Z"/><path class="cls-4" d="M21.31,57.31a2.14,2.14,0,0,0,2.37,2.24,2.26,2.26,0,0,0,2.25-1.43l1,.24a3.14,3.14,0,0,1-3.23,2.09,3.15,3.15,0,0,1-3.38-3.4,3.27,3.27,0,0,1,3.43-3.47C26,53.58,27,55.11,27,57.3Zm0-.67H26a2.14,2.14,0,0,0-2.33-2.12A2.23,2.23,0,0,0,21.31,56.64Z"/><path class="cls-4" d="M29.69,59c0,.24,0,.46,0,.69s0,.45,0,.66h-1V51.18h1v2.94c0,.3,0,.88,0,.88a3,3,0,0,1,2.6-1.42A3.13,3.13,0,0,1,35.5,57a3.14,3.14,0,0,1-3.3,3.42A2.84,2.84,0,0,1,29.69,59Zm0-1.93a2.33,2.33,0,0,0,2.41,2.5A2.3,2.3,0,0,0,34.44,57a2.36,2.36,0,1,0-4.71,0Z"/><path class="cls-4" d="M37.81,57.31a2.14,2.14,0,0,0,2.37,2.24,2.26,2.26,0,0,0,2.25-1.43l1,.24a3.14,3.14,0,0,1-3.23,2.09,3.15,3.15,0,0,1-3.38-3.4,3.27,3.27,0,0,1,3.43-3.47c2.29,0,3.33,1.53,3.33,3.71Zm0-.67h4.7a2.14,2.14,0,0,0-2.33-2.12A2.23,2.23,0,0,0,37.81,56.64Z"/><path class="cls-4" d="M47.71,58.26l1.06,0c0,.9.7,1.43,1.95,1.43.8,0,1.74-.37,1.74-1.16,0-1.73-4.59-.24-4.59-3,0-1.2,1.29-1.93,2.67-1.93,1.88,0,2.78.84,2.89,2.19l-1.06.07c-.07-.89-.68-1.38-1.85-1.38-.84,0-1.63.42-1.63,1.11,0,1.63,4.62.27,4.62,2.92,0,1.36-1.42,2-2.83,2C48.74,60.46,47.77,59.66,47.71,58.26Z"/><path class="cls-4" d="M55.84,57.31a2.14,2.14,0,0,0,2.37,2.24,2.26,2.26,0,0,0,2.25-1.43l1,.24a3.44,3.44,0,0,1-6.61-1.31,3.27,3.27,0,0,1,3.43-3.47c2.29,0,3.33,1.53,3.33,3.71Zm0-.67h4.7a2.14,2.14,0,0,0-2.33-2.12A2.23,2.23,0,0,0,55.84,56.64Z"/><path class="cls-4" d="M66.63,54.58c-2,0-2.38,1.58-2.38,3.13v2.62h-1V53.75h1c0,.58,0,1.12-.05,1.66a2.59,2.59,0,0,1,2.45-1.81Z"/><path class="cls-4" d="M75.59,60.34l0-1.24h0a2.45,2.45,0,0,1-2.38,1.38A2.36,2.36,0,0,1,70.49,58V53.75h1v4.1a1.61,1.61,0,0,0,1.84,1.69,2,2,0,0,0,2.14-2.16V53.75h1v6.59Z"/><path class="cls-4" d="M78.24,58.26l1.06,0c0,.9.7,1.43,1.95,1.43.8,0,1.74-.37,1.74-1.16,0-1.73-4.59-.24-4.59-3,0-1.2,1.29-1.93,2.67-1.93,1.88,0,2.78.84,2.89,2.19l-1.06.07c-.07-.89-.68-1.38-1.85-1.38-.84,0-1.63.42-1.63,1.11,0,1.63,4.62.27,4.62,2.92,0,1.36-1.42,2-2.83,2C79.27,60.46,78.31,59.66,78.24,58.26Z"/><path class="cls-4" d="M91.17,60.34V59a2.67,2.67,0,0,1-2.55,1.49,3.17,3.17,0,0,1-3.28-3.4,3.23,3.23,0,0,1,3.37-3.47A2.88,2.88,0,0,1,91.21,55s0-.84,0-1.28h1v6.59Zm-4.78-3.28a2.27,2.27,0,0,0,2.32,2.5,2.36,2.36,0,0,0,2.43-2.5,2.28,2.28,0,0,0-2.43-2.54A2.35,2.35,0,0,0,86.39,57.06Z"/><path class="cls-4" d="M99.6,60.34V59A2.86,2.86,0,0,1,97,60.47,3.15,3.15,0,0,1,93.76,57,3.18,3.18,0,0,1,97,53.56,2.93,2.93,0,0,1,99.64,55s0-1,0-1.54V51.18h1v9.16ZM94.83,57a2.28,2.28,0,0,0,2.32,2.54A2.39,2.39,0,0,0,99.57,57a2.29,2.29,0,0,0-2.43-2.55A2.35,2.35,0,0,0,94.83,57Z"/><path class="cls-4" d="M102.28,57a3.26,3.26,0,0,1,3.45-3.46,3.44,3.44,0,1,1,0,6.89A3.27,3.27,0,0,1,102.28,57Zm1,0a2.33,2.33,0,0,0,2.44,2.53A2.37,2.37,0,0,0,108.18,57a2.45,2.45,0,1,0-4.89,0Z"/><path class="cls-4" d="M114.68,59c0,.51,0,1,0,1.54v2.08h-1v-8.9h1v.61c0,.24,0,.73,0,.73a3,3,0,0,1,2.59-1.5A3.15,3.15,0,0,1,120.52,57a3.15,3.15,0,0,1-3.3,3.46A2.72,2.72,0,0,1,114.68,59Zm.05-2a2.27,2.27,0,0,0,2.4,2.58,2.55,2.55,0,0,0,0-5.08A2.35,2.35,0,0,0,114.74,57Z"/><path class="cls-4" d="M121.8,57a3.26,3.26,0,0,1,3.45-3.46,3.44,3.44,0,1,1,0,6.89A3.27,3.27,0,0,1,121.8,57Zm1,0a2.33,2.33,0,0,0,2.44,2.53A2.37,2.37,0,0,0,127.7,57a2.45,2.45,0,1,0-4.89,0Z"/><path class="cls-4" d="M133.81,54.58c-2,0-2.38,1.58-2.38,3.13v2.62h-1V53.75h1c0,.58,0,1.12-.05,1.66a2.59,2.59,0,0,1,2.45-1.81Z"/><path class="cls-4" d="M138.73,59c0,.51,0,1,0,1.54v2.08h-1v-8.9h1v.61c0,.24,0,.73,0,.73a3,3,0,0,1,2.59-1.5A3.15,3.15,0,0,1,144.56,57a3.15,3.15,0,0,1-3.3,3.46A2.72,2.72,0,0,1,138.73,59Zm.05-2a2.27,2.27,0,0,0,2.4,2.58,2.55,2.55,0,0,0,0-5.08A2.35,2.35,0,0,0,138.79,57Z"/><path class="cls-4" d="M146.87,57.31a2.14,2.14,0,0,0,2.37,2.24,2.26,2.26,0,0,0,2.25-1.43l1,.24a3.44,3.44,0,0,1-6.61-1.31,3.27,3.27,0,0,1,3.43-3.47c2.29,0,3.33,1.53,3.33,3.71Zm0-.67h4.7a2.14,2.14,0,0,0-2.33-2.12A2.23,2.23,0,0,0,146.87,56.64Z"/><path class="cls-4" d="M157.66,54.58c-2,0-2.38,1.58-2.38,3.13v2.62h-1V53.75h1c0,.58,0,1.12-.05,1.66a2.59,2.59,0,0,1,2.45-1.81Z"/><path class="cls-4" d="M158.55,58.26l1.06,0c0,.9.7,1.43,1.95,1.43.8,0,1.74-.37,1.74-1.16,0-1.73-4.59-.24-4.59-3,0-1.2,1.29-1.93,2.67-1.93,1.88,0,2.78.84,2.89,2.19l-1.06.07c-.07-.89-.68-1.38-1.85-1.38-.84,0-1.63.42-1.63,1.11,0,1.63,4.62.27,4.62,2.92,0,1.36-1.42,2-2.83,2C159.58,60.46,158.61,59.66,158.55,58.26Z"/><path class="cls-4" d="M165.65,57a3.26,3.26,0,0,1,3.45-3.46,3.44,3.44,0,1,1,0,6.89A3.27,3.27,0,0,1,165.65,57Zm1,0a2.33,2.33,0,0,0,2.44,2.53A2.37,2.37,0,0,0,171.55,57a2.45,2.45,0,1,0-4.89,0Z"/><path class="cls-4" d="M179.27,60.34V56.12c0-1-.68-1.63-1.87-1.63a2,2,0,0,0-2.13,2.05v3.79h-1V53.75h1c0,.39,0,.78,0,1.17h0a2.53,2.53,0,0,1,2.41-1.35,2.34,2.34,0,0,1,2.64,2.28v4.47Z"/><path class="cls-4" d="M187.72,60.34V59a2.67,2.67,0,0,1-2.55,1.49,3.17,3.17,0,0,1-3.28-3.4,3.23,3.23,0,0,1,3.37-3.47A2.88,2.88,0,0,1,187.77,55s0-.84,0-1.28h1v6.59Zm-4.78-3.28a2.27,2.27,0,0,0,2.32,2.5,2.36,2.36,0,0,0,2.43-2.5,2.28,2.28,0,0,0-2.43-2.54A2.35,2.35,0,0,0,182.94,57.06Z"/><path class="cls-4" d="M190.69,60.34V51.18h1v9.16Z"/><path class="cls-4" d="M11.77,68.92a3.29,3.29,0,0,1,3.52-3.52,2.87,2.87,0,0,1,3,2.16l-1,.28a1.94,1.94,0,0,0-2.13-1.51,2.35,2.35,0,0,0-2.44,2.59,2.23,2.23,0,0,0,2.36,2.44,2.48,2.48,0,0,0,2.3-1.54l.93.2a3.05,3.05,0,0,1-3.22,2.24A3.16,3.16,0,0,1,11.77,68.92Z"/><path class="cls-4" d="M25.38,72.15V70.78a2.67,2.67,0,0,1-2.55,1.49,3.17,3.17,0,0,1-3.28-3.4,3.23,3.23,0,0,1,3.37-3.47,2.88,2.88,0,0,1,2.51,1.44s0-.84,0-1.28h1v6.59ZM20.6,68.87a2.27,2.27,0,0,0,2.32,2.5,2.36,2.36,0,0,0,2.43-2.5,2.28,2.28,0,0,0-2.43-2.54A2.35,2.35,0,0,0,20.6,68.87Z"/><path class="cls-4" d="M29.37,70.84c0,.51,0,1,0,1.54v2.08h-1v-8.9h1v.61c0,.24,0,.73,0,.73a3,3,0,0,1,2.59-1.5,3.46,3.46,0,0,1,0,6.91A2.72,2.72,0,0,1,29.37,70.84Zm.05-2a2.27,2.27,0,0,0,2.4,2.58,2.55,2.55,0,0,0,0-5.08A2.35,2.35,0,0,0,29.42,68.82Z"/><path class="cls-4" d="M42.3,72.15V70.78a2.67,2.67,0,0,1-2.55,1.49,3.17,3.17,0,0,1-3.28-3.4,3.23,3.23,0,0,1,3.37-3.47,2.88,2.88,0,0,1,2.51,1.44s0-.84,0-1.28h1v6.59Zm-4.78-3.28a2.27,2.27,0,0,0,2.32,2.5,2.36,2.36,0,0,0,2.42-2.5,2.28,2.28,0,0,0-2.42-2.54A2.35,2.35,0,0,0,37.52,68.87Z"/><path class="cls-4" d="M44.88,68.92a3.29,3.29,0,0,1,3.52-3.52,2.87,2.87,0,0,1,3,2.16l-1,.28a1.94,1.94,0,0,0-2.13-1.51,2.35,2.35,0,0,0-2.44,2.59,2.23,2.23,0,0,0,2.36,2.44,2.48,2.48,0,0,0,2.3-1.54l.93.2a3.05,3.05,0,0,1-3.22,2.24A3.16,3.16,0,0,1,44.88,68.92Z"/><path class="cls-4" d="M53,63.48a.52.52,0,0,1,.54-.53.5.5,0,0,1,.53.53v.62a.5.5,0,0,1-.53.51A.51.51,0,0,1,53,64.1Zm0,8.67V65.56h1v6.59Z"/><path class="cls-4" d="M57.78,66.42v4.39c0,.31.19.57.75.57a1.92,1.92,0,0,0,.78-.16V72a2.6,2.6,0,0,1-1.28.3,1.15,1.15,0,0,1-1.29-1.11V66.42H55.45v-.86h1.28v-1.7h1v1.7H59.3v.86Z"/><path class="cls-4" d="M66,72.15V70.78a2.67,2.67,0,0,1-2.55,1.49,3.17,3.17,0,0,1-3.28-3.4,3.23,3.23,0,0,1,3.37-3.47A2.88,2.88,0,0,1,66,66.84s0-.84,0-1.28h1v6.59Zm-4.78-3.28a2.27,2.27,0,0,0,2.32,2.5A2.36,2.36,0,0,0,66,68.87a2.28,2.28,0,0,0-2.43-2.54A2.35,2.35,0,0,0,61.22,68.87Z"/><path class="cls-4" d="M74.43,72.15V70.8a2.86,2.86,0,0,1-2.59,1.49,3.46,3.46,0,0,1,0-6.91,2.93,2.93,0,0,1,2.59,1.45s0-1,0-1.54V63h1v9.16Zm-4.77-3.31A2.28,2.28,0,0,0,72,71.38a2.39,2.39,0,0,0,2.43-2.54A2.29,2.29,0,0,0,72,66.29,2.35,2.35,0,0,0,69.66,68.84Z"/><path class="cls-4" d="M77.11,68.85a3.26,3.26,0,0,1,3.45-3.46,3.44,3.44,0,1,1,0,6.89A3.27,3.27,0,0,1,77.11,68.85Zm1,0a2.33,2.33,0,0,0,2.44,2.53A2.37,2.37,0,0,0,83,68.85a2.45,2.45,0,1,0-4.89,0Z"/><path class="cls-4" d="M85.52,72.15V70.69h1.12v1.46Z"/><path class="cls-5" d="M13.6,20.94l-.36,2.24H11.7l1.66-9.76h2L17,23.19H15.48l-.34-2.24Zm.77-5.28-.54,3.85h1.09Z"/><path class="cls-5" d="M21.88,23.31A2.33,2.33,0,0,1,19.54,21V15.66a2.33,2.33,0,1,1,4.67,0v1.11H22.68V15.62a.85.85,0,0,0-.85-.85.81.81,0,0,0-.6.25.82.82,0,0,0-.25.6V21a.84.84,0,0,0,.84.84.82.82,0,0,0,.6-.24.8.8,0,0,0,.25-.59V19.05h-.82V17.57h2.34V21a2.33,2.33,0,0,1-2.33,2.33Z"/><path class="cls-5" d="M29.2,23.29A2.31,2.31,0,0,1,26.87,21V13.43h1.44V21a.81.81,0,0,0,.25.6.83.83,0,0,0,.6.25A.84.84,0,0,0,30,21V13.43h1.54V21a2.22,2.22,0,0,1-.69,1.65A2.28,2.28,0,0,1,29.2,23.29Z"/><path class="cls-5" d="M35.94,20.94l-.36,2.24H34.05l1.66-9.76h2l1.63,9.76H37.82l-.34-2.24Zm.77-5.28-.54,3.85h1.09Z"/><path class="cls-5" d="M46.93,13.3a2.33,2.33,0,0,1,2.34,2.34V21a2.33,2.33,0,1,1-4.67,0V15.64a2.33,2.33,0,0,1,2.33-2.34Zm.8,2.31a.84.84,0,0,0-.84-.84.82.82,0,0,0-.6.25.8.8,0,0,0-.25.6V21a.81.81,0,0,0,.25.6.83.83,0,0,0,.6.25.84.84,0,0,0,.84-.84Z"/><path class="cls-5" d="M57.06,23.19H55.48l-1.13-3.11-1.14,3.11H51.63l1.92-4.91-1.92-4.85h1.63l1.09,3,1.08-3h1.63l-1.92,4.85Z"/><path class="cls-5" d="M61.2,23.19H59.72V13.43H61.2Z"/><path class="cls-5" d="M66.21,23.31A2.33,2.33,0,0,1,63.87,21V15.66a2.33,2.33,0,1,1,4.67,0v1.11H67V15.62a.85.85,0,0,0-.85-.85.81.81,0,0,0-.6.25.82.82,0,0,0-.25.6V21a.84.84,0,0,0,.84.84.82.82,0,0,0,.6-.24A.8.8,0,0,0,67,21V19.05h-.82V17.57h2.34V21a2.33,2.33,0,0,1-2.33,2.33Z"/><path class="cls-5" d="M71.2,23.19V13.42h4.19V14.9H72.67v2.66h2V19h-2v2.66h2.72v1.48Z"/><path class="cls-5" d="M79.7,13.42l2,6.56V13.42h1.47v9.77H81.55l-2-6.25v6.25H78.05V13.42Z"/><path class="cls-5" d="M87.68,20.94l-.36,2.24H85.79l1.66-9.76h2l1.63,9.76H89.56l-.34-2.24Zm.77-5.28-.54,3.85H89Z"/><path class="cls-5" d="M98.4,20.85a2.27,2.27,0,0,1-.68,1.65,2.22,2.22,0,0,1-1.64.69H93.77V13.42h2.31a2.21,2.21,0,0,1,1.64.69,2.26,2.26,0,0,1,.67,1.64Zm-3.15.88h.89a.79.79,0,0,0,.59-.25.83.83,0,0,0,.24-.6V15.77a.82.82,0,0,0-.25-.6.8.8,0,0,0-.59-.25h-.89Z"/><path class="cls-5" d="M102.8,20.94l-.36,2.24h-1.53l1.66-9.76h2l1.63,9.76h-1.55l-.34-2.24Zm.77-5.28L103,19.51h1.09Z"/><path class="cls-5" d="M116.08,20.85a2.27,2.27,0,0,1-.68,1.65,2.22,2.22,0,0,1-1.64.69h-2.31V13.42h2.31a2.21,2.21,0,0,1,1.64.69,2.26,2.26,0,0,1,.67,1.64Zm-3.15.88h.89a.79.79,0,0,0,.59-.25.83.83,0,0,0,.24-.6V15.77a.82.82,0,0,0-.25-.6.8.8,0,0,0-.59-.25h-.89Z"/><path class="cls-5" d="M118.75,23.19V13.42h4.19V14.9h-2.72v2.66h2V19h-2v2.66h2.72v1.48Z"/><path class="cls-5" d="M129.42,23.19V15.67h-1.25v-1a2.18,2.18,0,0,0,1-.4,2,2,0,0,0,.69-.82h1v9.77Z"/><path class="cls-5" d="M138.23,21a2.33,2.33,0,0,1-4.67,0V15.63a2.33,2.33,0,1,1,4.67,0ZM136.7,15.6a.85.85,0,0,0-.85-.85.81.81,0,0,0-.6.25.83.83,0,0,0-.25.6v5.33a.83.83,0,0,0,.25.6.81.81,0,0,0,.6.25.85.85,0,0,0,.85-.85Z"/><path class="cls-5" d="M145.56,21a2.33,2.33,0,0,1-4.67,0V15.63a2.33,2.33,0,1,1,4.67,0ZM144,15.6a.85.85,0,0,0-.85-.85.81.81,0,0,0-.6.25.83.83,0,0,0-.25.6v5.33a.83.83,0,0,0,.25.6.81.81,0,0,0,.6.25.85.85,0,0,0,.85-.85Z"/><path class="cls-5" d="M152.89,21a2.33,2.33,0,0,1-4.67,0V15.63a2.33,2.33,0,1,1,4.67,0Zm-1.53-5.36a.85.85,0,0,0-.85-.85.81.81,0,0,0-.6.25.83.83,0,0,0-.25.6v5.33a.83.83,0,0,0,.25.6.81.81,0,0,0,.6.25.85.85,0,0,0,.85-.85Z"/><path class="cls-5" d="M157,23.19h-1.47V13.42h2.11l1.37,7,1.32-7h2v9.77h-1.47V17l-1.28,6.14h-1.18L157,17.06Z"/><path class="cls-5" d="M169.08,23.19h-4V13.43h1.47v8.29h2.54Z"/></g></g></g></svg>