<svg xmlns="http://www.w3.org/2000/svg" viewBox="0 0 228.64 85.59"><defs><style>.cls-1{isolation:isolate;}.cls-2{opacity:0.6;mix-blend-mode:overlay;}.cls-3{fill:#fff;}.cls-4{fill:#8f8f8f;}.cls-5{fill:#3764cb;}</style></defs><title>a_8</title><g class="cls-1"><g id="Capa_2" data-name="Capa 2"><g id="Capa_1-2" data-name="Capa 1"><g class="cls-2"><rect y="14.97" width="224.84" height="70.63" rx="10.15" ry="10.15"/></g><rect class="cls-3" width="228.64" height="80.73" rx="10.39" ry="10.39"/><path class="cls-4" d="M10,50.57v3.9H9V45.32h3.61c2.09,0,3.35.86,3.35,2.57s-1.43,2.69-3.31,2.69Zm0-4.33v3.44h2.59c1.2,0,2.2-.63,2.2-1.73s-.84-1.71-2.25-1.71Z"/><path class="cls-4" d="M22.64,54.48V53.11a2.65,2.65,0,0,1-2.52,1.49,3.16,3.16,0,0,1-3.25-3.4,3.22,3.22,0,0,1,3.33-3.47,2.85,2.85,0,0,1,2.49,1.45s0-.84,0-1.28h1v6.59ZM17.9,51.19a2.26,2.26,0,0,0,2.29,2.5,2.35,2.35,0,0,0,2.4-2.5,2.27,2.27,0,0,0-2.4-2.54A2.34,2.34,0,0,0,17.9,51.19Z"/><path class="cls-4" d="M29.17,48.72c-2,0-2.36,1.58-2.36,3.13v2.62h-1V47.89h1c0,.58,0,1.12-.05,1.66a2.57,2.57,0,0,1,2.43-1.81Z"/><path class="cls-4" d="M35.74,54.48V53.11a2.65,2.65,0,0,1-2.52,1.49A3.16,3.16,0,0,1,30,51.19a3.22,3.22,0,0,1,3.34-3.47,2.85,2.85,0,0,1,2.48,1.45s0-.84,0-1.28h1v6.59ZM31,51.19a2.26,2.26,0,0,0,2.3,2.5,2.35,2.35,0,0,0,2.4-2.5,2.27,2.27,0,0,0-2.4-2.54A2.34,2.34,0,0,0,31,51.19Z"/><path class="cls-4" d="M46.75,54.48V53.13a2.83,2.83,0,0,1-2.57,1.49A3.14,3.14,0,0,1,41,51.17a3.17,3.17,0,0,1,3.25-3.47,2.91,2.91,0,0,1,2.57,1.44s0-1,0-1.54V45.32h1v9.16ZM42,51.17a2.27,2.27,0,0,0,2.29,2.54,2.38,2.38,0,0,0,2.4-2.54,2.28,2.28,0,0,0-2.4-2.55A2.34,2.34,0,0,0,42,51.17Z"/><path class="cls-4" d="M50.61,51.45A2.13,2.13,0,0,0,53,53.69a2.24,2.24,0,0,0,2.23-1.43l.95.24a3.41,3.41,0,0,1-6.55-1.31A3.26,3.26,0,0,1,53,47.72c2.27,0,3.29,1.53,3.29,3.71Zm0-.68h4.66A2.13,2.13,0,0,0,53,48.66,2.22,2.22,0,0,0,50.61,50.78Z"/><path class="cls-4" d="M57.7,52.4l1.05,0c0,.91.69,1.43,1.93,1.43.8,0,1.73-.36,1.73-1.16,0-1.73-4.55-.24-4.55-3,0-1.2,1.28-1.93,2.65-1.93,1.86,0,2.75.84,2.86,2.19L62.32,50c-.07-.89-.67-1.38-1.84-1.38-.84,0-1.62.42-1.62,1.11,0,1.63,4.58.27,4.58,2.92,0,1.36-1.4,2-2.81,2C58.73,54.6,57.77,53.8,57.7,52.4Z"/><path class="cls-4" d="M65.33,45.81a.51.51,0,0,1,.54-.53.5.5,0,0,1,.53.53v.62a.5.5,0,0,1-.53.51.51.51,0,0,1-.54-.51Zm0,8.67V47.89h1v6.59Z"/><path class="cls-4" d="M73.57,54.48V50.26c0-1-.68-1.63-1.85-1.63a2,2,0,0,0-2.11,2.05v3.79h-1V47.89h1c0,.39,0,.78,0,1.17h0A2.51,2.51,0,0,1,72,47.72,2.33,2.33,0,0,1,74.61,50v4.47Z"/><path class="cls-4" d="M78,47.89h1.75v.86H78v5.73H77V48.75H76v-.86H77V47.6c0-1.38.95-2.38,2.69-2.38a7,7,0,0,1,.88.07v.89a6.76,6.76,0,0,0-.82-.05c-1.12,0-1.7.58-1.7,1.53Z"/><path class="cls-4" d="M81.73,51.45a2.13,2.13,0,0,0,2.35,2.24,2.24,2.24,0,0,0,2.23-1.43l.95.24a3.41,3.41,0,0,1-6.55-1.31,3.26,3.26,0,0,1,3.4-3.47c2.27,0,3.29,1.53,3.29,3.71Zm0-.68h4.66a2.13,2.13,0,0,0-2.31-2.12A2.22,2.22,0,0,0,81.73,50.78Z"/><path class="cls-4" d="M88.84,51.25a3.27,3.27,0,0,1,3.48-3.52,2.85,2.85,0,0,1,3,2.16l-.95.28a1.93,1.93,0,0,0-2.11-1.51,2.34,2.34,0,0,0-2.42,2.59,2.22,2.22,0,0,0,2.34,2.44,2.46,2.46,0,0,0,2.28-1.54l.92.2A3,3,0,0,1,92.2,54.6,3.15,3.15,0,0,1,88.84,51.25Z"/><path class="cls-4" d="M98.75,48.75v4.39c0,.31.19.57.74.57a1.88,1.88,0,0,0,.77-.16v.77a2.54,2.54,0,0,1-1.27.3,1.15,1.15,0,0,1-1.28-1.11V48.75H96.44v-.86h1.27v-1.7h1v1.7h1.51v.86Z"/><path class="cls-4" d="M107.07,54.48V53.11a2.65,2.65,0,0,1-2.52,1.49,3.16,3.16,0,0,1-3.25-3.4,3.22,3.22,0,0,1,3.34-3.47,2.85,2.85,0,0,1,2.48,1.45s0-.84,0-1.28h1v6.59Zm-4.74-3.28a2.26,2.26,0,0,0,2.3,2.5,2.35,2.35,0,0,0,2.4-2.5,2.27,2.27,0,0,0-2.4-2.54A2.34,2.34,0,0,0,102.34,51.19Z"/><path class="cls-4" d="M113.6,48.72c-2,0-2.36,1.58-2.36,3.13v2.62h-1V47.89h1c0,.58,0,1.12-.05,1.66a2.57,2.57,0,0,1,2.43-1.81Z"/><path class="cls-4" d="M122.79,54.48V53.11a2.65,2.65,0,0,1-2.52,1.49,3.16,3.16,0,0,1-3.25-3.4,3.22,3.22,0,0,1,3.34-3.47,2.85,2.85,0,0,1,2.48,1.45s0-.84,0-1.28h1v6.59Zm-4.74-3.28a2.26,2.26,0,0,0,2.3,2.5,2.35,2.35,0,0,0,2.4-2.5,2.27,2.27,0,0,0-2.4-2.54A2.34,2.34,0,0,0,118.05,51.19Zm3.89-6.7c.23.24.43.5.65.74l-2.24,1.94c-.19-.2-.37-.42-.54-.62Z"/><path class="cls-4" d="M129.42,48.72c-2,0-2.36,1.58-2.36,3.13v2.62h-1V47.89h1c0,.58,0,1.12-.05,1.66a2.57,2.57,0,0,1,2.43-1.81Z"/><path class="cls-4" d="M131.24,51.45a2.13,2.13,0,0,0,2.35,2.24,2.24,2.24,0,0,0,2.23-1.43l.95.24a3.41,3.41,0,0,1-6.55-1.31,3.26,3.26,0,0,1,3.4-3.47c2.27,0,3.29,1.53,3.29,3.71Zm0-.68h4.66a2.13,2.13,0,0,0-2.31-2.12A2.22,2.22,0,0,0,131.24,50.78Z"/><path class="cls-4" d="M144.12,54.48V53.11a2.65,2.65,0,0,1-2.52,1.49,3.16,3.16,0,0,1-3.25-3.4,3.22,3.22,0,0,1,3.34-3.47,2.85,2.85,0,0,1,2.48,1.45s0-.84,0-1.28h1v6.59Zm-4.74-3.28a2.26,2.26,0,0,0,2.3,2.5,2.35,2.35,0,0,0,2.4-2.5,2.27,2.27,0,0,0-2.4-2.54A2.34,2.34,0,0,0,139.38,51.19Z"/><path class="cls-4" d="M149.37,51.25a3.27,3.27,0,0,1,3.48-3.52,2.85,2.85,0,0,1,3,2.16l-.95.28a1.93,1.93,0,0,0-2.11-1.51,2.34,2.34,0,0,0-2.42,2.59,2.22,2.22,0,0,0,2.34,2.44A2.46,2.46,0,0,0,155,52.15l.92.2a3,3,0,0,1-3.19,2.24A3.15,3.15,0,0,1,149.37,51.25Z"/><path class="cls-4" d="M158.28,51.45a2.13,2.13,0,0,0,2.35,2.24,2.24,2.24,0,0,0,2.23-1.43l.95.24a3.41,3.41,0,0,1-6.55-1.31,3.26,3.26,0,0,1,3.4-3.47c2.27,0,3.29,1.53,3.29,3.71Zm0-.68h4.66a2.13,2.13,0,0,0-2.31-2.12A2.22,2.22,0,0,0,158.28,50.78Z"/><path class="cls-4" d="M169.15,48.72c-2,0-2.36,1.58-2.36,3.13v2.62h-1V47.89h1c0,.58,0,1.12-.05,1.66a2.57,2.57,0,0,1,2.43-1.81Z"/><path class="cls-4" d="M169.94,51.25a3.27,3.27,0,0,1,3.48-3.52,2.85,2.85,0,0,1,3,2.16l-.95.28a1.93,1.93,0,0,0-2.11-1.51A2.34,2.34,0,0,0,171,51.25a2.22,2.22,0,0,0,2.34,2.44,2.46,2.46,0,0,0,2.28-1.54l.92.2a3,3,0,0,1-3.19,2.24A3.15,3.15,0,0,1,169.94,51.25Z"/><path class="cls-4" d="M183.6,54.48V53.11a2.65,2.65,0,0,1-2.52,1.49,3.16,3.16,0,0,1-3.25-3.4,3.22,3.22,0,0,1,3.34-3.47,2.85,2.85,0,0,1,2.48,1.45s0-.84,0-1.28h1v6.59Zm-4.74-3.28a2.26,2.26,0,0,0,2.3,2.5,2.35,2.35,0,0,0,2.4-2.5,2.27,2.27,0,0,0-2.4-2.54A2.34,2.34,0,0,0,178.86,51.19Z"/><path class="cls-4" d="M191.72,54.48V50.26c0-1-.68-1.63-1.85-1.63a2,2,0,0,0-2.11,2.05v3.79h-1V47.89h1c0,.39,0,.78,0,1.17h0a2.51,2.51,0,0,1,2.39-1.35A2.33,2.33,0,0,1,192.76,50v4.47Z"/><path class="cls-4" d="M200.26,54.48V53.11a2.65,2.65,0,0,1-2.52,1.49,3.16,3.16,0,0,1-3.25-3.4,3.22,3.22,0,0,1,3.33-3.47,2.85,2.85,0,0,1,2.49,1.45s0-.84,0-1.28h1v6.59Zm-4.74-3.28a2.26,2.26,0,0,0,2.29,2.5,2.35,2.35,0,0,0,2.4-2.5,2.27,2.27,0,0,0-2.4-2.54A2.34,2.34,0,0,0,195.52,51.19Z"/><path class="cls-4" d="M14.48,69.66V68.3A2.65,2.65,0,0,1,12,69.78a3.16,3.16,0,0,1-3.25-3.4A3.22,3.22,0,0,1,12,62.91a2.85,2.85,0,0,1,2.49,1.45s0-.84,0-1.28h1v6.59ZM9.74,66.38A2.26,2.26,0,0,0,12,68.88a2.35,2.35,0,0,0,2.4-2.5A2.27,2.27,0,0,0,12,63.84,2.34,2.34,0,0,0,9.74,66.38Z"/><path class="cls-4" d="M20.14,69.66V60.5h1v9.16Z"/><path class="cls-4" d="M28.75,69.66V68.3a2.65,2.65,0,0,1-2.52,1.49A3.16,3.16,0,0,1,23,66.38a3.22,3.22,0,0,1,3.33-3.47,2.85,2.85,0,0,1,2.49,1.45s0-.84,0-1.28h1v6.59ZM24,66.38a2.26,2.26,0,0,0,2.29,2.5,2.35,2.35,0,0,0,2.4-2.5,2.27,2.27,0,0,0-2.4-2.54A2.34,2.34,0,0,0,24,66.38Z"/><path class="cls-4" d="M39.44,69.66v-4.2a1.65,1.65,0,0,0-1.85-1.65c-1.55,0-2.11,1-2.11,2.4v3.44h-1V60.5h1v2.67c0,.55,0,.58,0,1.05h0a2.55,2.55,0,0,1,2.39-1.34,2.36,2.36,0,0,1,2.62,2.31v4.44Z"/><path class="cls-4" d="M43.23,66.63a2.13,2.13,0,0,0,2.35,2.24,2.24,2.24,0,0,0,2.23-1.43l.95.24a3.12,3.12,0,0,1-3.2,2.09,3.13,3.13,0,0,1-3.35-3.4,3.26,3.26,0,0,1,3.4-3.47c2.27,0,3.29,1.53,3.29,3.71Zm0-.68h4.66a2.13,2.13,0,0,0-2.31-2.12A2.22,2.22,0,0,0,43.23,66Z"/><path class="cls-4" d="M54.1,63.91c-2,0-2.36,1.58-2.36,3.13v2.62h-1V63.07h1c0,.58,0,1.12-.05,1.66a2.57,2.57,0,0,1,2.43-1.81Z"/><path class="cls-4" d="M55.44,61a.51.51,0,0,1,.54-.53.5.5,0,0,1,.53.53v.62a.5.5,0,0,1-.53.51.51.51,0,0,1-.54-.51Zm0,8.67V63.07h1v6.59Z"/><path class="cls-4" d="M64.07,69.66V68.31a2.83,2.83,0,0,1-2.57,1.49,3.46,3.46,0,0,1,0-6.91,2.91,2.91,0,0,1,2.57,1.44s0-1,0-1.54V60.5h1v9.16Zm-4.73-3.31a2.27,2.27,0,0,0,2.29,2.54A2.38,2.38,0,0,0,64,66.35a2.28,2.28,0,0,0-2.4-2.55A2.34,2.34,0,0,0,59.35,66.35Z"/><path class="cls-4" d="M72.68,69.66V68.3a2.65,2.65,0,0,1-2.52,1.49,3.16,3.16,0,0,1-3.25-3.4,3.22,3.22,0,0,1,3.34-3.47,2.85,2.85,0,0,1,2.48,1.45s0-.84,0-1.28h1v6.59Zm-4.74-3.28a2.26,2.26,0,0,0,2.3,2.5,2.35,2.35,0,0,0,2.4-2.5,2.27,2.27,0,0,0-2.4-2.54A2.34,2.34,0,0,0,67.94,66.38Z"/><path class="cls-5" d="M10.54,19.69l-.36,2.24H8.65l1.66-9.76h2L14,21.93H12.43l-.34-2.24Zm.77-5.28-.54,3.85h1.09Z"/><path class="cls-5" d="M20.65,21.93h-4V12.18h1.47v8.29h2.54Z"/><path class="cls-5" d="M25.62,22.06a2.33,2.33,0,0,1-2.34-2.33V14.4a2.33,2.33,0,1,1,4.67,0v1.11H26.42V14.37a.85.85,0,0,0-.85-.85.81.81,0,0,0-.6.25.83.83,0,0,0-.25.6v5.34a.84.84,0,0,0,.84.84.82.82,0,0,0,.6-.25.8.8,0,0,0,.25-.6V18.37h1.53v1.36a2.33,2.33,0,0,1-2.33,2.33Z"/><path class="cls-5" d="M32.94,12.05a2.33,2.33,0,0,1,2.34,2.34v5.33a2.33,2.33,0,1,1-4.67,0V14.39a2.33,2.33,0,0,1,2.33-2.34Zm.8,2.3a.84.84,0,0,0-.84-.84.83.83,0,0,0-.6.25.81.81,0,0,0-.25.6V19.7a.8.8,0,0,0,.25.6.82.82,0,0,0,.6.25.84.84,0,0,0,.84-.84Z"/><path class="cls-5" d="M39.42,17.8v4.14H37.94V12.18h1.47v4.14h1.78V12.18h1.47v9.76H41.19V17.8Z"/><path class="cls-5" d="M47.67,12.05A2.33,2.33,0,0,1,50,14.39v5.33a2.33,2.33,0,1,1-4.67,0V14.39a2.33,2.33,0,0,1,2.33-2.34Zm.8,2.3a.84.84,0,0,0-.84-.84.83.83,0,0,0-.6.25.81.81,0,0,0-.25.6V19.7a.8.8,0,0,0,.25.6.82.82,0,0,0,.6.25.84.84,0,0,0,.84-.84Z"/><path class="cls-5" d="M56.69,21.93h-4V12.18h1.47v8.29h2.54Z"/><path class="cls-5" d="M66.34,12.16v1.48l-2.06,8.29H62.83l2.06-8.29h-3V12.16Z"/><path class="cls-5" d="M73.64,19.71a2.33,2.33,0,0,1-4.67,0V14.38a2.33,2.33,0,1,1,4.67,0Zm-1.53-5.36a.85.85,0,0,0-.85-.85.81.81,0,0,0-.6.25.83.83,0,0,0-.25.6v5.33a.82.82,0,0,0,.25.6.8.8,0,0,0,.6.25.85.85,0,0,0,.85-.85Z"/><path class="cls-5" d="M79.2,15.85a1.46,1.46,0,0,1-1.47,1.47A1.4,1.4,0,0,1,76.3,15.9a1.44,1.44,0,0,1,1.46-1.48A1.4,1.4,0,0,1,79.2,15.85Zm-2.32.05a.87.87,0,0,0,.86.9.89.89,0,0,0,.87-.94.86.86,0,0,0-.87-.92A.89.89,0,0,0,76.89,15.9Z"/><path class="cls-5" d="M85.44,21.93V14.42H84.18v-1a2.17,2.17,0,0,0,1-.4,2,2,0,0,0,.69-.82h1v9.77Z"/><path class="cls-5" d="M94.25,19.71a2.33,2.33,0,0,1-4.67,0V14.38a2.33,2.33,0,1,1,4.67,0Zm-1.53-5.36a.85.85,0,0,0-.85-.85.81.81,0,0,0-.6.25.83.83,0,0,0-.25.6v5.33a.82.82,0,0,0,.25.6.8.8,0,0,0,.6.25.85.85,0,0,0,.85-.85Z"/><path class="cls-5" d="M101.58,19.71a2.33,2.33,0,0,1-4.67,0V14.38a2.33,2.33,0,1,1,4.67,0ZM100,14.35a.85.85,0,0,0-.85-.85.81.81,0,0,0-.6.25.83.83,0,0,0-.25.6v5.33a.82.82,0,0,0,.25.6.8.8,0,0,0,.6.25.85.85,0,0,0,.85-.85Z"/><path class="cls-5" d="M108.9,19.71a2.33,2.33,0,0,1-4.67,0V14.38a2.33,2.33,0,1,1,4.67,0Zm-1.53-5.36a.85.85,0,0,0-.85-.85.81.81,0,0,0-.6.25.83.83,0,0,0-.25.6v5.33a.82.82,0,0,0,.25.6.8.8,0,0,0,.6.25.85.85,0,0,0,.85-.85Z"/><path class="cls-5" d="M115.6,21.93h-1.47V12.17h2.11l1.37,7,1.32-7h2v9.77h-1.47V15.8l-1.28,6.14H117l-1.42-6.12Z"/><path class="cls-5" d="M127.66,21.93h-4V12.18h1.47v8.29h2.54Z"/><path class="cls-5" d="M130.33,20.47h1.47v1.47h-1.47Z"/><path class="cls-5" d="M11.55,24.42a18.48,18.48,0,0,0-.75,1.78,13.28,13.28,0,0,0-.68,2.63,6.77,6.77,0,0,0-.06.9,12.08,12.08,0,0,0,.76,3.67q.33,1,.75,1.92l-1,.48a15,15,0,0,1-1-1.92,10.61,10.61,0,0,1-1-4.14,9,9,0,0,1,.62-3.12q.16-.41.37-.86a12.27,12.27,0,0,1,1-1.77Z"/><path class="cls-5" d="M15.86,25.33l2,6.56V25.33h1.47v9.77H17.71l-2-6.25v6.25H14.21V25.33Z"/><path class="cls-5" d="M24.29,25.21a2.33,2.33,0,0,1,2.34,2.34v5.33a2.33,2.33,0,1,1-4.67,0V27.55a2.33,2.33,0,0,1,2.33-2.34Zm.8,2.3a.84.84,0,0,0-.84-.84.83.83,0,0,0-.6.25.81.81,0,0,0-.25.6v5.34a.8.8,0,0,0,.25.6.82.82,0,0,0,.6.25.84.84,0,0,0,.84-.84Z"/><path class="cls-5" d="M34.18,25.34a2.24,2.24,0,0,1,1.71.68,2.35,2.35,0,0,1,.59,1.65v1.42a2.27,2.27,0,0,1-.67,1.65,2.2,2.2,0,0,1-1.63.69h-.85v3.68H31.85V25.34Zm.88,2.35a.84.84,0,0,0-.23-.62.82.82,0,0,0-.61-.23h-.89V30h.89a.8.8,0,0,0,.6-.25.82.82,0,0,0,.25-.6Z"/><path class="cls-5" d="M39.14,35.09V25.33h4.19v1.48H40.62v2.66h2V31h-2v2.66h2.72v1.48Z"/><path class="cls-5" d="M48.32,25.34a2.24,2.24,0,0,1,1.81.68,2.46,2.46,0,0,1,.51,1.65v1.42a2.28,2.28,0,0,1-.79,1.75l1.09,4.26H49.35l-.89-3.68h-1v3.68H46V25.34Zm.88,2.35a.75.75,0,0,0-.84-.85h-.89V30h.89a.8.8,0,0,0,.6-.25.82.82,0,0,0,.25-.6Z"/><path class="cls-5" d="M55.08,35.09H53.6V25.33h4.19v1.48H55.08v2.66h2V31h-2Z"/><path class="cls-5" d="M62.79,35.2a2.31,2.31,0,0,1-2.33-2.32V25.34H61.9v7.53a.8.8,0,0,0,.25.6.82.82,0,0,0,.6.25.84.84,0,0,0,.84-.84V25.34h1.54v7.55a2.22,2.22,0,0,1-.69,1.65A2.28,2.28,0,0,1,62.79,35.2Z"/><path class="cls-5" d="M69.27,35.09H67.8V25.33h2.11l1.37,7,1.32-7h2v9.77H73.15V29l-1.28,6.14H70.69L69.27,29Z"/><path class="cls-5" d="M79.18,32.85l-.36,2.24H77.29L79,25.34h2l1.63,9.76H81.06l-.34-2.24ZM80,27.57l-.54,3.85H80.5Z"/><path class="cls-5" d="M89.9,32.76a2.26,2.26,0,0,1-.68,1.65,2.22,2.22,0,0,1-1.64.69H85.28V25.33h2.31a2.21,2.21,0,0,1,1.64.69,2.26,2.26,0,0,1,.67,1.64Zm-3.15.88h.89a.79.79,0,0,0,.59-.25.83.83,0,0,0,.24-.6V27.68a.82.82,0,0,0-.25-.6.8.8,0,0,0-.59-.25h-.89Z"/><path class="cls-5" d="M94.9,25.21a2.33,2.33,0,0,1,2.34,2.34v5.33a2.33,2.33,0,1,1-4.67,0V27.55a2.33,2.33,0,0,1,2.33-2.34Zm.8,2.3a.84.84,0,0,0-.84-.84.83.83,0,0,0-.6.25.81.81,0,0,0-.25.6v5.34a.8.8,0,0,0,.25.6.82.82,0,0,0,.6.25.84.84,0,0,0,.84-.84Z"/><path class="cls-5" d="M100.49,24a12.73,12.73,0,0,1,1,1.77,9.59,9.59,0,0,1,1,4,10.61,10.61,0,0,1-1,4.14,15.14,15.14,0,0,1-1,1.92l-1-.48q.43-1,.76-1.91a15.37,15.37,0,0,0,.69-2.76,7.1,7.1,0,0,0,.06-.91,10.81,10.81,0,0,0-.75-3.54q-.33-.91-.74-1.78Z"/></g></g></g></svg>