<svg xmlns="http://www.w3.org/2000/svg" viewBox="0 0 228.64 75.59"><defs><style>.cls-1{isolation:isolate;}.cls-2{opacity:0.6;mix-blend-mode:overlay;}.cls-3{fill:#fff;}.cls-4{fill:#8f8f8f;}.cls-5{fill:#3764cb;}</style></defs><title>a_9</title><g class="cls-1"><g id="Capa_2" data-name="Capa 2"><g id="Capa_1-2" data-name="Capa 1"><g class="cls-2"><rect y="14.97" width="224.84" height="60.63" rx="10.15" ry="10.15"/></g><rect class="cls-3" width="228.64" height="70.73" rx="10.39" ry="10.39"/><path class="cls-4" d="M14.76,34.43v3.9H13.7V29.17h3.61c2.09,0,3.35.86,3.35,2.57s-1.43,2.69-3.31,2.69Zm0-4.33v3.44h2.59c1.2,0,2.2-.63,2.2-1.73s-.84-1.71-2.25-1.71Z"/><path class="cls-4" d="M27.37,38.33V37a2.65,2.65,0,0,1-2.52,1.49A3.16,3.16,0,0,1,21.6,35a3.22,3.22,0,0,1,3.33-3.47A2.85,2.85,0,0,1,27.42,33s0-.84,0-1.28h1v6.59ZM22.64,35a2.26,2.26,0,0,0,2.29,2.5,2.35,2.35,0,0,0,2.4-2.5,2.27,2.27,0,0,0-2.4-2.54A2.34,2.34,0,0,0,22.64,35Z"/><path class="cls-4" d="M33.9,32.58c-2,0-2.36,1.58-2.36,3.13v2.62h-1V31.74h1c0,.58,0,1.12-.05,1.66a2.57,2.57,0,0,1,2.43-1.81Z"/><path class="cls-4" d="M40.47,38.33V37A2.65,2.65,0,0,1,38,38.45,3.16,3.16,0,0,1,34.7,35,3.22,3.22,0,0,1,38,31.58,2.85,2.85,0,0,1,40.52,33s0-.84,0-1.28h1v6.59ZM35.74,35a2.26,2.26,0,0,0,2.3,2.5,2.35,2.35,0,0,0,2.4-2.5A2.27,2.27,0,0,0,38,32.51,2.34,2.34,0,0,0,35.74,35Z"/><path class="cls-4" d="M47.54,31.74H49.3v.86H47.54v5.73h-1V32.6h-.95v-.86h.95v-.28c0-1.38.95-2.38,2.69-2.38a7,7,0,0,1,.88.07V30a6.8,6.8,0,0,0-.82-.05c-1.12,0-1.7.58-1.7,1.53Z"/><path class="cls-4" d="M51.17,29.66a.51.51,0,0,1,.54-.53.5.5,0,0,1,.53.53v.62a.5.5,0,0,1-.53.51.51.51,0,0,1-.54-.51Zm0,8.67V31.74h1v6.59Z"/><path class="cls-4" d="M52.73,40c1.31-.11,1.78-.67,1.78-1.88V31.74h1v6.4A2.47,2.47,0,0,1,53,40.9ZM54.5,29.66a.5.5,0,0,1,.53-.51.51.51,0,0,1,.54.51v.62a.51.51,0,0,1-.54.51.5.5,0,0,1-.53-.51Z"/><path class="cls-4" d="M63.13,38.33V37a2.65,2.65,0,0,1-2.52,1.49A3.16,3.16,0,0,1,57.35,35a3.22,3.22,0,0,1,3.33-3.47A2.85,2.85,0,0,1,63.17,33s0-.84,0-1.28h1v6.59ZM58.39,35a2.26,2.26,0,0,0,2.29,2.5,2.35,2.35,0,0,0,2.4-2.5,2.27,2.27,0,0,0-2.4-2.54A2.34,2.34,0,0,0,58.39,35Z"/><path class="cls-4" d="M69.66,32.58c-2,0-2.36,1.58-2.36,3.13v2.62h-1V31.74h1c0,.58,0,1.12-.05,1.66a2.57,2.57,0,0,1,2.43-1.81Z"/><path class="cls-4" d="M82.41,38.33V34.12a1.42,1.42,0,0,0-1.58-1.63A1.76,1.76,0,0,0,79,34.24v4.09H78V34.12a1.45,1.45,0,0,0-1.63-1.63,1.43,1.43,0,0,0-.65.16c-.95.3-1.12,1.27-1.12,2.16v3.52h-1V31.74h1c0,.39,0,.8,0,1.19h0a2,2,0,0,1,2.12-1.31A2.08,2.08,0,0,1,78.81,33a2.32,2.32,0,0,1,2.28-1.39,2.08,2.08,0,0,1,2.36,2.28v4.47Z"/><path class="cls-4" d="M91,38.33V37a2.65,2.65,0,0,1-2.52,1.49A3.16,3.16,0,0,1,85.19,35a3.22,3.22,0,0,1,3.34-3.47A2.85,2.85,0,0,1,91,33s0-.84,0-1.28h1v6.59ZM86.23,35a2.26,2.26,0,0,0,2.3,2.5,2.35,2.35,0,0,0,2.4-2.5,2.27,2.27,0,0,0-2.4-2.54A2.34,2.34,0,0,0,86.23,35Z"/><path class="cls-4" d="M95.73,32.6V37c0,.31.19.57.74.57a1.88,1.88,0,0,0,.77-.16v.77a2.55,2.55,0,0,1-1.27.3,1.15,1.15,0,0,1-1.28-1.11V32.6H93.42v-.86h1.27V30h1v1.7h1.51v.86Z"/><path class="cls-4" d="M99.31,35.31a2.13,2.13,0,0,0,2.35,2.24,2.24,2.24,0,0,0,2.23-1.43l.95.24A3.41,3.41,0,0,1,98.28,35a3.26,3.26,0,0,1,3.4-3.47c2.27,0,3.29,1.53,3.29,3.71Zm0-.68H104a2.13,2.13,0,0,0-2.31-2.12A2.22,2.22,0,0,0,99.31,34.63Z"/><path class="cls-4" d="M110.17,32.58c-2,0-2.36,1.58-2.36,3.13v2.62h-1V31.74h1c0,.58,0,1.12-.05,1.66a2.57,2.57,0,0,1,2.43-1.81Z"/><path class="cls-4" d="M111.52,29.66a.51.51,0,0,1,.54-.53.5.5,0,0,1,.53.53v.62a.5.5,0,0,1-.53.51.51.51,0,0,1-.54-.51Zm0,8.67V31.74h1v6.59Z"/><path class="cls-4" d="M120.15,38.33V37a2.65,2.65,0,0,1-2.52,1.49,3.16,3.16,0,0,1-3.25-3.4,3.22,3.22,0,0,1,3.33-3.47A2.85,2.85,0,0,1,120.19,33s0-.84,0-1.28h1v6.59ZM115.41,35a2.26,2.26,0,0,0,2.29,2.5,2.35,2.35,0,0,0,2.4-2.5,2.27,2.27,0,0,0-2.4-2.54A2.34,2.34,0,0,0,115.41,35Z"/><path class="cls-4" d="M123.25,38.33V29.17h1v9.16Z"/><path class="cls-4" d="M134.47,38.33V37a2.65,2.65,0,0,1-2.52,1.49,3.16,3.16,0,0,1-3.25-3.4A3.22,3.22,0,0,1,132,31.58,2.85,2.85,0,0,1,134.51,33s0-.84,0-1.28h1v6.59ZM129.73,35a2.26,2.26,0,0,0,2.3,2.5,2.35,2.35,0,0,0,2.4-2.5,2.27,2.27,0,0,0-2.4-2.54A2.34,2.34,0,0,0,129.73,35Z"/><path class="cls-4" d="M137.58,38.33V29.17h1v9.16Z"/><path class="cls-4" d="M143,35.1a3.27,3.27,0,0,1,3.48-3.52,2.85,2.85,0,0,1,3,2.16l-.95.28a1.93,1.93,0,0,0-2.11-1.51A2.34,2.34,0,0,0,144,35.1a2.22,2.22,0,0,0,2.34,2.44A2.46,2.46,0,0,0,148.66,36l.92.2a3,3,0,0,1-3.19,2.24A3.15,3.15,0,0,1,143,35.1Z"/><path class="cls-4" d="M156.25,38.33l0-1.24h0a2.43,2.43,0,0,1-2.36,1.38A2.35,2.35,0,0,1,151.2,36V31.74h1v4.1a1.6,1.6,0,0,0,1.82,1.69,2,2,0,0,0,2.12-2.16V31.74h1v6.59Z"/><path class="cls-4" d="M160,35.31a2.13,2.13,0,0,0,2.35,2.24,2.24,2.24,0,0,0,2.23-1.43l.95.24A3.41,3.41,0,0,1,159,35a3.26,3.26,0,0,1,3.4-3.47c2.27,0,3.29,1.53,3.29,3.71Zm0-.68h4.66a2.13,2.13,0,0,0-2.31-2.12A2.22,2.22,0,0,0,160,34.63Z"/><path class="cls-4" d="M170.87,32.58c-2,0-2.36,1.58-2.36,3.13v2.62h-1V31.74h1c0,.58,0,1.12-.05,1.66a2.57,2.57,0,0,1,2.43-1.81Z"/><path class="cls-4" d="M173.24,37c0,.51,0,1,0,1.54v2.08h-1v-8.9h1v.61c0,.24,0,.73,0,.73a2.93,2.93,0,0,1,2.57-1.5A3.13,3.13,0,0,1,179,35a3.14,3.14,0,0,1-3.27,3.46A2.69,2.69,0,0,1,173.24,37Zm.05-2a2.26,2.26,0,0,0,2.38,2.58A2.31,2.31,0,0,0,178,35a2.31,2.31,0,0,0-2.28-2.54A2.34,2.34,0,0,0,173.29,35Z"/><path class="cls-4" d="M180.46,35a3.42,3.42,0,1,1,6.85,0,3.42,3.42,0,1,1-6.85,0Zm1,0a2.32,2.32,0,0,0,2.42,2.53A2.36,2.36,0,0,0,186.3,35a2.43,2.43,0,1,0-4.85,0Z"/><path class="cls-4" d="M197.06,38.33V37a2.83,2.83,0,0,1-2.57,1.49A3.14,3.14,0,0,1,191.28,35a3.17,3.17,0,0,1,3.25-3.47A2.91,2.91,0,0,1,197.1,33s0-1,0-1.54V29.17h1v9.16ZM192.33,35a2.27,2.27,0,0,0,2.29,2.54A2.38,2.38,0,0,0,197,35a2.28,2.28,0,0,0-2.4-2.55A2.34,2.34,0,0,0,192.33,35Z"/><path class="cls-4" d="M200.91,35.31a2.13,2.13,0,0,0,2.35,2.24,2.24,2.24,0,0,0,2.23-1.43l.95.24A3.41,3.41,0,0,1,199.88,35a3.26,3.26,0,0,1,3.4-3.47c2.27,0,3.29,1.53,3.29,3.71Zm0-.68h4.66a2.13,2.13,0,0,0-2.31-2.12A2.22,2.22,0,0,0,200.91,34.63Z"/><path class="cls-4" d="M208.38,38.33V29.17h1v9.16Z"/><path class="cls-4" d="M14.89,50.52c0,.51,0,1,0,1.54v2.08h-1v-8.9h1v.61c0,.24,0,.73,0,.73a2.93,2.93,0,0,1,2.57-1.5,3.13,3.13,0,0,1,3.23,3.46A3.14,3.14,0,0,1,17.4,52,2.69,2.69,0,0,1,14.89,50.52Zm.05-2a2.26,2.26,0,0,0,2.38,2.58,2.55,2.55,0,0,0,0-5.08A2.34,2.34,0,0,0,14.95,48.51Z"/><path class="cls-4" d="M27.88,51.83V50.46a2.65,2.65,0,0,1-2.52,1.49,3.16,3.16,0,0,1-3.25-3.4,3.22,3.22,0,0,1,3.34-3.47,2.85,2.85,0,0,1,2.48,1.44s0-.84,0-1.28h1v6.59Zm-4.74-3.28a2.26,2.26,0,0,0,2.3,2.5,2.35,2.35,0,0,0,2.4-2.5A2.27,2.27,0,0,0,25.44,46,2.34,2.34,0,0,0,23.14,48.55Z"/><path class="cls-4" d="M30.61,48.6a3.27,3.27,0,0,1,3.48-3.52,2.85,2.85,0,0,1,3,2.16l-.95.28A1.93,1.93,0,0,0,34,46a2.34,2.34,0,0,0-2.42,2.59A2.22,2.22,0,0,0,34,51a2.46,2.46,0,0,0,2.28-1.54l.92.2A3,3,0,0,1,34,51.95,3.15,3.15,0,0,1,30.61,48.6Z"/><path class="cls-4" d="M38.85,43.16a.51.51,0,0,1,.54-.53.5.5,0,0,1,.53.53v.62a.5.5,0,0,1-.53.51.51.51,0,0,1-.54-.51Zm0,8.67V45.24h1v6.59Z"/><path class="cls-4" d="M42.72,48.8A2.13,2.13,0,0,0,45.07,51a2.24,2.24,0,0,0,2.23-1.43l.95.24A3.12,3.12,0,0,1,45,51.95a3.13,3.13,0,0,1-3.35-3.4,3.26,3.26,0,0,1,3.4-3.47c2.27,0,3.29,1.53,3.29,3.71Zm0-.68h4.66A2.13,2.13,0,0,0,45.07,46,2.22,2.22,0,0,0,42.72,48.13Z"/><path class="cls-4" d="M55.18,51.83V47.61c0-1-.68-1.63-1.85-1.63A2,2,0,0,0,51.22,48v3.79h-1V45.24h1c0,.39,0,.78,0,1.17h0a2.51,2.51,0,0,1,2.39-1.35,2.33,2.33,0,0,1,2.62,2.28v4.47Z"/><path class="cls-4" d="M59.89,46.1v4.39c0,.31.19.57.74.57a1.88,1.88,0,0,0,.77-.16v.77a2.55,2.55,0,0,1-1.27.3,1.15,1.15,0,0,1-1.28-1.11V46.1H57.58v-.86h1.27v-1.7h1v1.7H61.4v.86Z"/><path class="cls-4" d="M63.47,48.8A2.13,2.13,0,0,0,65.82,51,2.24,2.24,0,0,0,68,49.61l.95.24a3.41,3.41,0,0,1-6.55-1.31,3.26,3.26,0,0,1,3.4-3.47c2.27,0,3.29,1.53,3.29,3.71Zm0-.68h4.66A2.13,2.13,0,0,0,65.82,46,2.22,2.22,0,0,0,63.47,48.13Z"/><path class="cls-4" d="M75,54.1a11.59,11.59,0,0,1,0-12.18h1.15a11.52,11.52,0,0,0,0,12.18Z"/><path class="cls-4" d="M76.81,47.28a4.51,4.51,0,0,1,4.85-4.75c2.31,0,3.86,1.16,4.31,3-.35.07-.72.13-1.07.22a3.05,3.05,0,0,0-3.27-2.24,3.49,3.49,0,0,0-3.73,3.74A3.5,3.5,0,0,0,81.69,51,3,3,0,0,0,85,48.06l-3.35,0V47.2h4.46v.57c0,2.65-1.92,4.2-4.44,4.2C78.7,52,76.81,50.11,76.81,47.28Z"/><path class="cls-4" d="M93.35,51.83V50.46a2.65,2.65,0,0,1-2.52,1.49,3.16,3.16,0,0,1-3.25-3.4,3.22,3.22,0,0,1,3.33-3.47,2.85,2.85,0,0,1,2.49,1.44s0-.84,0-1.28h1v6.59Zm-4.74-3.28A2.26,2.26,0,0,0,90.91,51a2.35,2.35,0,0,0,2.4-2.5A2.27,2.27,0,0,0,90.91,46,2.34,2.34,0,0,0,88.61,48.55Z"/><path class="cls-4" d="M96.14,49.75l1.05,0c0,.9.69,1.43,1.93,1.43.8,0,1.73-.36,1.73-1.16,0-1.73-4.55-.24-4.55-3,0-1.2,1.28-1.93,2.65-1.93,1.86,0,2.75.84,2.86,2.19l-1.05.07c-.07-.89-.67-1.38-1.84-1.38-.84,0-1.62.42-1.62,1.11,0,1.63,4.58.27,4.58,2.92,0,1.36-1.4,2-2.81,2C97.16,51.95,96.21,51.15,96.14,49.75Z"/><path class="cls-4" d="M109.12,51.83V50.46a2.65,2.65,0,0,1-2.52,1.49,3.16,3.16,0,0,1-3.25-3.4,3.22,3.22,0,0,1,3.34-3.47,2.85,2.85,0,0,1,2.48,1.44s0-.84,0-1.28h1v6.59Zm-4.74-3.28a2.26,2.26,0,0,0,2.3,2.5,2.35,2.35,0,0,0,2.4-2.5,2.27,2.27,0,0,0-2.4-2.54A2.34,2.34,0,0,0,104.38,48.55Z"/><path class="cls-4" d="M111.91,49.75l1.05,0c0,.9.69,1.43,1.93,1.43.8,0,1.73-.36,1.73-1.16,0-1.73-4.55-.24-4.55-3,0-1.2,1.28-1.93,2.65-1.93,1.86,0,2.75.84,2.86,2.19l-1.05.07c-.07-.89-.67-1.38-1.84-1.38-.84,0-1.62.42-1.62,1.11,0,1.63,4.58.27,4.58,2.92,0,1.36-1.4,2-2.81,2C112.93,51.95,112,51.15,111.91,49.75Z"/><path class="cls-4" d="M120,53.81l-1-.35c.22-.51.42-1,.62-1.55a2.76,2.76,0,0,0,.12-1.09v-.45h1.12v.54a3,3,0,0,1-.17,1.22Z"/><path class="cls-4" d="M131.12,51.83V50.46a2.65,2.65,0,0,1-2.52,1.49,3.16,3.16,0,0,1-3.25-3.4,3.22,3.22,0,0,1,3.34-3.47,2.85,2.85,0,0,1,2.48,1.44s0-.84,0-1.28h1v6.59Zm-4.74-3.28a2.26,2.26,0,0,0,2.3,2.5,2.35,2.35,0,0,0,2.4-2.5,2.27,2.27,0,0,0-2.4-2.54A2.34,2.34,0,0,0,126.38,48.55Z"/><path class="cls-4" d="M135.24,50.52c0,.51,0,1,0,1.54v2.08h-1v-8.9h1v.61c0,.24,0,.73,0,.73a2.93,2.93,0,0,1,2.57-1.5A3.13,3.13,0,0,1,141,48.53,3.14,3.14,0,0,1,137.75,52,2.69,2.69,0,0,1,135.24,50.52Zm.05-2a2.26,2.26,0,0,0,2.38,2.58,2.55,2.55,0,0,0,0-5.08A2.34,2.34,0,0,0,135.29,48.51Z"/><path class="cls-4" d="M142.45,48.53a3.42,3.42,0,1,1,3.4,3.43A3.25,3.25,0,0,1,142.45,48.53Zm1,0a2.32,2.32,0,0,0,2.42,2.53,2.36,2.36,0,0,0,2.43-2.53,2.43,2.43,0,1,0-4.85,0Zm3.83-6.68c.23.24.43.5.65.74l-2.24,1.94c-.19-.2-.37-.42-.54-.62Z"/><path class="cls-4" d="M150.73,49.75l1.05,0c0,.9.69,1.43,1.93,1.43.8,0,1.73-.36,1.73-1.16,0-1.73-4.55-.24-4.55-3,0-1.2,1.28-1.93,2.65-1.93,1.86,0,2.75.84,2.86,2.19l-1.05.07c-.07-.89-.67-1.38-1.84-1.38-.84,0-1.62.42-1.62,1.11,0,1.63,4.58.27,4.58,2.92,0,1.36-1.4,2-2.81,2C151.76,51.95,150.8,51.15,150.73,49.75Z"/><path class="cls-4" d="M158.36,43.16a.51.51,0,0,1,.54-.53.5.5,0,0,1,.53.53v.62a.5.5,0,0,1-.53.51.51.51,0,0,1-.54-.51Zm0,8.67V45.24h1v6.59Z"/><path class="cls-4" d="M163.24,46.1v4.39c0,.31.19.57.74.57a1.88,1.88,0,0,0,.77-.16v.77a2.55,2.55,0,0,1-1.27.3,1.15,1.15,0,0,1-1.28-1.11V46.1h-1.27v-.86h1.27v-1.7h1v1.7h1.51v.86Z"/><path class="cls-4" d="M165.79,48.53a3.42,3.42,0,1,1,3.4,3.43A3.25,3.25,0,0,1,165.79,48.53Zm1,0a2.32,2.32,0,0,0,2.42,2.53,2.36,2.36,0,0,0,2.43-2.53,2.43,2.43,0,1,0-4.85,0Z"/><path class="cls-4" d="M174.07,49.75l1.05,0c0,.9.69,1.43,1.93,1.43.8,0,1.73-.36,1.73-1.16,0-1.73-4.55-.24-4.55-3,0-1.2,1.28-1.93,2.65-1.93,1.86,0,2.75.84,2.86,2.19l-1.05.07c-.07-.89-.67-1.38-1.84-1.38-.84,0-1.62.42-1.62,1.11,0,1.63,4.58.27,4.58,2.92,0,1.36-1.4,2-2.81,2C175.1,51.95,174.14,51.15,174.07,49.75Z"/><path class="cls-4" d="M185,48.8A2.13,2.13,0,0,0,187.31,51a2.24,2.24,0,0,0,2.23-1.43l.95.24a3.41,3.41,0,0,1-6.55-1.31,3.26,3.26,0,0,1,3.4-3.47c2.27,0,3.29,1.53,3.29,3.71Zm0-.68h4.66A2.13,2.13,0,0,0,187.31,46,2.22,2.22,0,0,0,185,48.13Z"/><path class="cls-4" d="M193.94,46.1v4.39c0,.31.19.57.74.57a1.88,1.88,0,0,0,.77-.16v.77a2.55,2.55,0,0,1-1.27.3,1.15,1.15,0,0,1-1.28-1.11V46.1h-1.27v-.86h1.27v-1.7h1v1.7h1.51v.86Z"/><path class="cls-4" d="M196.49,48.6A3.27,3.27,0,0,1,200,45.08a2.85,2.85,0,0,1,3,2.16l-.95.28A1.93,1.93,0,0,0,199.92,46a2.34,2.34,0,0,0-2.42,2.59A2.22,2.22,0,0,0,199.84,51a2.46,2.46,0,0,0,2.28-1.54l.92.2a3,3,0,0,1-3.19,2.24A3.15,3.15,0,0,1,196.49,48.6Z"/><path class="cls-4" d="M204.75,51.83V50.37h1.11v1.46Z"/><path class="cls-4" d="M206.85,54.1a11.3,11.3,0,0,0,0-12.18H208a11.37,11.37,0,0,1,0,12.18Z"/><path class="cls-5" d="M13.39,22.83V13.07h4.19v1.48H14.86v2.66h2v1.48h-2v2.66h2.72v1.48Z"/><path class="cls-5" d="M25,20.4a2.74,2.74,0,0,1-.53,1.74,1.91,1.91,0,0,1-1,.69,2.76,2.76,0,0,1-.82.11,2.31,2.31,0,0,1-1.43-.43,2.4,2.4,0,0,1-.75-1,3.87,3.87,0,0,1-.32-1.38l1.4-.1A2.13,2.13,0,0,0,22,21.32a.75.75,0,0,0,.61.27.91.91,0,0,0,.77-.48,1.18,1.18,0,0,0,.15-.65A1.8,1.8,0,0,0,23,19.26L21.67,18a5.58,5.58,0,0,1-1-1.27,2.94,2.94,0,0,1-.33-1.37,2.39,2.39,0,0,1,.9-2,2.23,2.23,0,0,1,1.37-.41,2.49,2.49,0,0,1,1.35.35,2,2,0,0,1,.71.76A2.81,2.81,0,0,1,25,15.19l-1.41.26a1.7,1.7,0,0,0-.34-.93.72.72,0,0,0-.58-.24.67.67,0,0,0-.62.36,1.38,1.38,0,0,0-.17.72,2.15,2.15,0,0,0,.58,1.36,4.88,4.88,0,0,0,.65.62q.51.43.68.6A5,5,0,0,1,24.58,19a4.21,4.21,0,0,1,.23.46A2.68,2.68,0,0,1,25,20.4Z"/><path class="cls-5" d="M30,13.07a2.24,2.24,0,0,1,1.71.68,2.35,2.35,0,0,1,.59,1.65v1.42a2.27,2.27,0,0,1-.67,1.65,2.2,2.2,0,0,1-1.63.69h-.85v3.68H27.68V13.07Zm.88,2.35a.84.84,0,0,0-.23-.62.82.82,0,0,0-.61-.23h-.89V17.7H30a.8.8,0,0,0,.6-.25.82.82,0,0,0,.25-.6Z"/><path class="cls-5" d="M36.4,20.59,36,22.83H34.51l1.66-9.76h2l1.63,9.76H38.28l-.34-2.24Zm.77-5.28-.54,3.85h1.09Z"/><path class="cls-5" d="M44.82,13.07a2.24,2.24,0,0,1,1.81.68,2.46,2.46,0,0,1,.51,1.65v1.42a2.28,2.28,0,0,1-.79,1.75l1.09,4.26H45.84l-.89-3.68H44v3.68H42.5V13.07Zm.88,2.35a.75.75,0,0,0-.84-.85H44V17.7h.89a.8.8,0,0,0,.6-.25.82.82,0,0,0,.25-.6Z"/><path class="cls-5" d="M52,20.59l-.36,2.24H50.1l1.66-9.76h2l1.63,9.76H53.87l-.34-2.24Zm.77-5.28-.54,3.85h1.09Z"/><path class="cls-5" d="M62.71,20.5A2.27,2.27,0,0,1,62,22.15a2.22,2.22,0,0,1-1.64.69H58.08V13.07h2.31a2.21,2.21,0,0,1,1.64.69,2.26,2.26,0,0,1,.67,1.64Zm-3.15.88h.89a.79.79,0,0,0,.59-.25.83.83,0,0,0,.24-.6V15.42a.82.82,0,0,0-.25-.6.8.8,0,0,0-.59-.25h-.89Z"/><path class="cls-5" d="M67.7,13.07a2.24,2.24,0,0,1,1.81.68A2.46,2.46,0,0,1,70,15.4v1.42a2.28,2.28,0,0,1-.79,1.75l1.09,4.26H68.72l-.89-3.68h-1v3.68H65.38V13.07Zm.88,2.35a.75.75,0,0,0-.84-.85h-.89V17.7h.89a.8.8,0,0,0,.6-.25.82.82,0,0,0,.25-.6Z"/><path class="cls-5" d="M74.87,20.59l-.36,2.24H73l1.66-9.76h2l1.63,9.76H76.75l-.34-2.24Zm.77-5.28-.54,3.85h1.09Z"/><path class="cls-5" d="M83.28,13.07a2.24,2.24,0,0,1,1.71.68,2.35,2.35,0,0,1,.59,1.65v1.42a2.27,2.27,0,0,1-.67,1.65,2.2,2.2,0,0,1-1.63.69h-.85v3.68H81V13.07Zm.88,2.35a.84.84,0,0,0-.23-.62.82.82,0,0,0-.61-.23h-.89V17.7h.89a.8.8,0,0,0,.6-.25.82.82,0,0,0,.25-.6Z"/><path class="cls-5" d="M90.58,12.95a2.33,2.33,0,0,1,2.34,2.34v5.33a2.33,2.33,0,1,1-4.67,0V15.29a2.33,2.33,0,0,1,2.33-2.34Zm.8,2.31a.84.84,0,0,0-.84-.84.82.82,0,0,0-.6.25.81.81,0,0,0-.25.6V20.6a.8.8,0,0,0,.25.6.82.82,0,0,0,.6.25.84.84,0,0,0,.84-.84Z"/><path class="cls-5" d="M99.76,14.54v2.09a1.42,1.42,0,0,1,.62-.48,1.3,1.3,0,0,1,.49-.09,1.61,1.61,0,0,1,1.43.68,2.91,2.91,0,0,1,.4,1.65v2.1a2.42,2.42,0,0,1-.69,1.78,2.21,2.21,0,0,1-1.65.67,2.08,2.08,0,0,1-1.6-.7,2.33,2.33,0,0,1-.62-1.64v-.23l1.41-.11,0,.33a.87.87,0,0,0,.47.78.59.59,0,0,0,.26.06q.9,0,.9-.94V18.1a.91.91,0,0,0-.31-.71.61.61,0,0,0-.42-.13.63.63,0,0,0-.58.3,1.09,1.09,0,0,0-.16.56v.26H98.29V13.06h4.31v1.48Z"/><path class="cls-5" d="M107.7,23a2.33,2.33,0,0,1-2.34-2.33V15.3a2.33,2.33,0,1,1,4.67,0v1.11H108.5V15.27a.85.85,0,0,0-.85-.85.81.81,0,0,0-.6.25.82.82,0,0,0-.25.6v5.34a.84.84,0,0,0,.84.84.82.82,0,0,0,.6-.25.8.8,0,0,0,.25-.6V19.27H110v1.36A2.33,2.33,0,0,1,107.7,23Z"/><path class="cls-5" d="M114.16,22.83h-1.47V13.07h2.11l1.37,7,1.32-7h2v9.77H118V16.69l-1.28,6.14h-1.18l-1.42-6.12Z"/><path class="cls-5" d="M130.17,22.83h-1.58l-1.13-3.11-1.14,3.11h-1.58l1.92-4.91-1.92-4.85h1.63l1.09,3,1.08-3h1.63l-1.92,4.85Z"/><path class="cls-5" d="M135.4,19.24l2.6-6.18h1.47v6.18h.94v1.48h-.94v2.1H138v-2.1h-2.6Zm2.6,0V16.19l-1.22,3.05Z"/><path class="cls-5" d="M142.95,21.37h1.47v1.47h-1.47Z"/><path class="cls-5" d="M148.68,14.54v2.09a1.42,1.42,0,0,1,.62-.48,1.3,1.3,0,0,1,.49-.09,1.61,1.61,0,0,1,1.43.68,2.91,2.91,0,0,1,.4,1.65v2.1a2.42,2.42,0,0,1-.69,1.78,2.21,2.21,0,0,1-1.65.67,2.08,2.08,0,0,1-1.6-.7,2.33,2.33,0,0,1-.62-1.64v-.23l1.41-.11,0,.33a.87.87,0,0,0,.47.78.59.59,0,0,0,.26.06q.9,0,.9-.94V18.1a.91.91,0,0,0-.31-.71.61.61,0,0,0-.42-.13.63.63,0,0,0-.58.3,1.09,1.09,0,0,0-.16.56v.26H147.2V13.06h4.31v1.48Z"/><path class="cls-5" d="M155.75,22.83h-1.47V13.07h2.11l1.37,7,1.32-7h2v9.77h-1.47V16.69l-1.28,6.14h-1.18l-1.42-6.12Z"/></g></g></g></svg>