<svg xmlns="http://www.w3.org/2000/svg" viewBox="0 0 109.82 109.82"><defs><style>.cls-1{fill:#eb0632;}.cls-2{opacity:0.15;}</style></defs><title>bad</title><g id="Capa_2" data-name="Capa 2"><g id="Capa_1-2" data-name="Capa 1"><path class="cls-1" d="M54.91,109.82a54.91,54.91,0,1,1,54.91-54.91A55,55,0,0,1,54.91,109.82Zm0-99.82A44.91,44.91,0,1,0,99.82,54.91,45,45,0,0,0,54.91,10Z"/><g class="cls-2"><circle class="cls-1" cx="54.91" cy="54.91" r="49.91"/></g><path class="cls-1" d="M36.61,76.55a5,5,0,0,1-3.36-8.7l36.6-33.27A5,5,0,0,1,76.57,42L40,75.25A5,5,0,0,1,36.61,76.55Z"/><path class="cls-1" d="M73.21,76.55a5,5,0,0,1-3.36-1.3L33.25,42A5,5,0,0,1,40,34.57l36.6,33.27a5,5,0,0,1-3.36,8.7Z"/></g></g></svg>