<svg xmlns="http://www.w3.org/2000/svg" viewBox="0 0 290.95 271.53"><defs><style>.cls-1{fill:#3a3a3a;}.cls-2{fill:#de4e13;}.cls-3{fill:#cc2800;}.cls-4{fill:#e4e4e5;}.cls-5{fill:#b8b8bc;}.cls-6{fill:#fff;}.cls-7{fill:#606060;}.cls-8{fill:#444;}.cls-9{fill:#c5011c;}.cls-10{fill:#a50319;}</style></defs><title>botiquin</title><g id="Capa_2" data-name="Capa 2"><g id="_4" data-name="4"><path class="cls-1" d="M259.71,60a17,17,0,0,0-16.5-12.89H227.94a17,17,0,0,0-16.47,12.77h-7.53V52.16A22,22,0,0,0,216,32.43V22.11a22.2,22.2,0,0,0-10.91-19c-.21-.13-.43-.26-.72-.42L204,2.43A22.11,22.11,0,0,0,193.93,0H97A22.13,22.13,0,0,0,74.91,22.11V32.44A22,22,0,0,0,87,52.16v7.77H79.49A17,17,0,0,0,63,47.16H47.74A17,17,0,0,0,31.24,60,34.1,34.1,0,0,0,0,94v143.5a34.09,34.09,0,0,0,34,34H256.91a33.89,33.89,0,0,0,32.51-23.93c.13-.4.24-.81.32-1.13,0-.16.09-.32.13-.48h0a34.15,34.15,0,0,0,1.07-8.5V94A34.1,34.1,0,0,0,259.71,60Zm-94.39-5.5v5.38h-39.7V54.54Z"/><path class="cls-2" d="M70.52,70.12H40.23v-6a7.5,7.5,0,0,1,7.51-7.51H63a7.5,7.5,0,0,1,7.51,7.51v6Z"/><path class="cls-3" d="M250.72,70.12H220.43v-6a7.51,7.51,0,0,1,7.51-7.51h15.27a7.5,7.5,0,0,1,7.51,7.51v6Z"/><rect class="cls-4" x="96.52" y="32.56" width="19.61" height="40.59"/><rect class="cls-5" x="174.83" y="32.56" width="19.61" height="40.59"/><path class="cls-6" d="M256.9,262H34A24.55,24.55,0,0,1,9.5,237.48V94A24.55,24.55,0,0,1,34,69.43H256.9A24.55,24.55,0,0,1,281.45,94v143.5A24.55,24.55,0,0,1,256.9,262Z"/><path class="cls-4" d="M281.45,94v143.5A24.55,24.55,0,0,1,256.91,262H145.48V69.43H256.91A24.55,24.55,0,0,1,281.45,94Z"/><path class="cls-7" d="M193.94,45H97A12.64,12.64,0,0,1,84.41,32.44V22.11A12.64,12.64,0,0,1,97,9.5h96.92a12.64,12.64,0,0,1,12.61,12.61V32.44A12.64,12.64,0,0,1,193.94,45Z"/><path class="cls-8" d="M206.54,22.11V32.43A12.65,12.65,0,0,1,193.93,45H145.48V9.5h48.46A12.65,12.65,0,0,1,206.54,22.11Z"/><polygon class="cls-9" points="199.83 146.08 165.13 146.08 165.13 111.37 125.83 111.37 125.83 146.08 91.12 146.08 91.12 185.38 125.83 185.38 125.83 220.08 165.13 220.08 165.13 185.38 199.83 185.38 199.83 146.08"/><polygon class="cls-10" points="199.83 146.08 199.83 185.38 165.12 185.38 165.12 220.08 145.48 220.08 145.48 111.37 165.12 111.37 165.12 146.08 199.83 146.08"/></g></g></svg>