<svg xmlns="http://www.w3.org/2000/svg" viewBox="0 0 109.82 109.82"><defs><style>.cls-1{fill:#3764cb;}.cls-2{opacity:0.15;}</style></defs><title>good</title><g id="Capa_2" data-name="Capa 2"><g id="Capa_1-2" data-name="Capa 1"><path class="cls-1" d="M54.91,109.82a54.91,54.91,0,1,1,54.91-54.91A55,55,0,0,1,54.91,109.82Zm0-99.82A44.91,44.91,0,1,0,99.82,54.91,45,45,0,0,0,54.91,10Z"/><g class="cls-2"><circle class="cls-1" cx="54.91" cy="54.91" r="49.91"/></g><path class="cls-1" d="M43.27,78.21l-.4,0a5,5,0,0,1-3.51-1.86L26.05,59.7a5,5,0,1,1,7.81-6.25l10,12.48L76.5,36.24a5,5,0,0,1,6.73,7.4L46.63,76.91A5,5,0,0,1,43.27,78.21Z"/></g></g></svg>