<svg xmlns="http://www.w3.org/2000/svg" viewBox="0 0 295.47 96.92"><defs><style>.cls-1{isolation:isolate;}.cls-2{opacity:0.6;mix-blend-mode:overlay;}.cls-3{fill:#fff;}.cls-4{fill:#909090;}.cls-5{fill:#ed0531;}</style></defs><title>a1</title><g class="cls-1"><g id="Capa_2" data-name="Capa 2"><g id="Capa_6" data-name="Capa 6"><g class="cls-2"><rect y="23.26" width="290.97" height="73.66" rx="12.04" ry="12.04"/></g><rect class="cls-3" width="295.47" height="89.36" rx="12.32" ry="12.32"/><path class="cls-4" d="M38.3,48.37v3H37v-2.9c0-1.5-1.1-1.92-2.82-1.92h-3v4.82H30V40.48h4.64c2.34,0,3.81,1,3.81,2.8a2.81,2.81,0,0,1-2.24,2.64v0A2.48,2.48,0,0,1,38.3,48.37Zm-7.07-6.83v4h3.15c1.42,0,2.69-.66,2.69-2s-1-1.9-2.51-1.9Z"/><path class="cls-4" d="M41.1,47.74a2.52,2.52,0,0,0,2.79,2.66,2.65,2.65,0,0,0,2.64-1.7l1.12.29a3.69,3.69,0,0,1-3.79,2.48,3.72,3.72,0,0,1-4-4,3.86,3.86,0,0,1,4-4.11c2.69,0,3.91,1.81,3.91,4.4Zm0-.8h5.52a2.52,2.52,0,0,0-2.74-2.51A2.63,2.63,0,0,0,41.1,46.94Z"/><path class="cls-4" d="M49.31,47.5a3.88,3.88,0,0,1,4.13-4.18A3.37,3.37,0,0,1,57,45.89l-1.12.34a2.28,2.28,0,0,0-2.5-1.79,2.77,2.77,0,0,0-2.87,3.07,2.63,2.63,0,0,0,2.77,2.9A2.92,2.92,0,0,0,56,48.58l1.09.24a3.59,3.59,0,0,1-3.78,2.66A3.73,3.73,0,0,1,49.31,47.5Z"/><path class="cls-4" d="M58.85,41.05a.61.61,0,0,1,.64-.62.6.6,0,0,1,.62.62v.74a.59.59,0,0,1-.62.61.6.6,0,0,1-.64-.61Zm0,10.28V43.52H60.1v7.81Z"/><path class="cls-4" d="M63.66,49.78c0,.61,0,1.17,0,1.83v2.46h-1.2V43.52h1.2v.72c0,.29,0,.86,0,.86a3.47,3.47,0,0,1,3-1.78c2.43,0,3.83,1.71,3.83,4.1s-1.47,4.1-3.87,4.1A3.19,3.19,0,0,1,63.66,49.78Zm.06-2.38c0,1.86.94,3.06,2.82,3.06a2.73,2.73,0,0,0,2.72-3,2.73,2.73,0,0,0-2.71-3A2.77,2.77,0,0,0,63.73,47.39Z"/><path class="cls-4" d="M72.43,41.05a.61.61,0,0,1,.64-.62.6.6,0,0,1,.62.62v.74a.59.59,0,0,1-.62.61.6.6,0,0,1-.64-.61Zm0,10.28V43.52h1.23v7.81Z"/><path class="cls-4" d="M76.8,47.74a2.52,2.52,0,0,0,2.79,2.66,2.65,2.65,0,0,0,2.64-1.7l1.12.29a4,4,0,0,1-7.76-1.55,3.86,3.86,0,0,1,4-4.11c2.69,0,3.91,1.81,3.91,4.4Zm0-.8h5.52a2.52,2.52,0,0,0-2.74-2.51A2.63,2.63,0,0,0,76.8,46.94Z"/><path class="cls-4" d="M91.35,51.33v-5c0-1.22-.8-1.94-2.19-1.94a2.37,2.37,0,0,0-2.5,2.43v4.5H85.43V43.52h1.22c0,.46,0,.93,0,1.39l0,0a3,3,0,0,1,2.83-1.6c1.89,0,3.11,1.1,3.11,2.71v5.3Z"/><path class="cls-4" d="M96.72,44.54v5.2c0,.37.22.67.88.67a2.23,2.23,0,0,0,.91-.19v.91a3,3,0,0,1-1.5.35,1.36,1.36,0,0,1-1.52-1.31V44.54H94v-1h1.5v-2h1.23v2h1.79v1Z"/><path class="cls-4" d="M100.74,47.74a2.52,2.52,0,0,0,2.79,2.66,2.65,2.65,0,0,0,2.64-1.7l1.12.29a4,4,0,0,1-7.76-1.55,3.86,3.86,0,0,1,4-4.11c2.69,0,3.91,1.81,3.91,4.4Zm0-.8h5.52a2.52,2.52,0,0,0-2.74-2.51A2.63,2.63,0,0,0,100.74,46.94Z"/><path class="cls-4" d="M119,51.33v-1.6a3.36,3.36,0,0,1-3,1.76c-2.42,0-3.81-1.75-3.81-4.08s1.5-4.11,3.86-4.11a3.44,3.44,0,0,1,3,1.71s0-1.2,0-1.83V40.48h1.22V51.33Zm-5.6-3.92c0,1.75,1,3,2.72,3a2.83,2.83,0,0,0,2.85-3,2.7,2.7,0,0,0-2.85-3A2.77,2.77,0,0,0,113.44,47.41Z"/><path class="cls-4" d="M122.18,47.42a4.06,4.06,0,1,1,8.12,0,4.06,4.06,0,1,1-8.12,0Zm1.18,0a2.75,2.75,0,0,0,2.86,3,2.79,2.79,0,0,0,2.88-3,2.88,2.88,0,1,0-5.75,0Z"/><path class="cls-4" d="M138.16,51.33v-5c0-1.22-.8-1.94-2.19-1.94a2.37,2.37,0,0,0-2.5,2.43v4.5h-1.23V43.52h1.22c0,.46,0,.93,0,1.39l0,0a3,3,0,0,1,2.83-1.6c1.89,0,3.11,1.1,3.11,2.71v5.3Z"/><path class="cls-4" d="M148.07,51.33v-1.6a3.36,3.36,0,0,1-3,1.76c-2.42,0-3.81-1.75-3.81-4.08s1.5-4.11,3.86-4.11a3.44,3.44,0,0,1,3,1.71s0-1.2,0-1.83V40.48h1.22V51.33Zm-5.6-3.92c0,1.75,1,3,2.72,3a2.83,2.83,0,0,0,2.85-3,2.7,2.7,0,0,0-2.85-3A2.77,2.77,0,0,0,142.47,47.41Z"/><path class="cls-4" d="M152.42,47.74a2.52,2.52,0,0,0,2.79,2.66,2.65,2.65,0,0,0,2.64-1.7L159,49a4,4,0,0,1-7.76-1.55,3.86,3.86,0,0,1,4-4.11c2.69,0,3.91,1.81,3.91,4.4Zm0-.8h5.52a2.52,2.52,0,0,0-2.74-2.51A2.63,2.63,0,0,0,152.42,46.94Z"/><path class="cls-4" d="M164,48.87l1.25,0c0,1.07.82,1.7,2.29,1.7.94,0,2-.43,2-1.38,0-2-5.39-.29-5.39-3.52,0-1.42,1.52-2.29,3.14-2.29,2.21,0,3.27,1,3.39,2.59-.42,0-.83.06-1.25.08-.08-1.06-.8-1.63-2.18-1.63-1,0-1.92.5-1.92,1.31,0,1.94,5.43.32,5.43,3.46,0,1.62-1.66,2.34-3.33,2.34C165.25,51.47,164.11,50.53,164,48.87Z"/><path class="cls-4" d="M173.57,47.74a2.52,2.52,0,0,0,2.79,2.66,2.65,2.65,0,0,0,2.64-1.7l1.12.29a4,4,0,0,1-7.76-1.55,3.86,3.86,0,0,1,4-4.11c2.69,0,3.91,1.81,3.91,4.4Zm0-.8h5.52a2.52,2.52,0,0,0-2.74-2.51A2.63,2.63,0,0,0,173.57,46.94Z"/><path class="cls-4" d="M191.87,51.33V49.71a3.14,3.14,0,0,1-3,1.76,3.74,3.74,0,0,1-3.86-4,3.82,3.82,0,0,1,4-4.11A3.38,3.38,0,0,1,191.92,45s0-1,0-1.52h1.2v7.81Zm-5.62-3.89a2.68,2.68,0,0,0,2.72,3,2.79,2.79,0,0,0,2.85-3,2.69,2.69,0,0,0-2.85-3A2.77,2.77,0,0,0,186.26,47.44Z"/><path class="cls-4" d="M195.34,51.33V40.48h1.23V51.33Z"/><path class="cls-4" d="M209.46,51.33v-5a1.69,1.69,0,0,0-1.87-1.94,2.08,2.08,0,0,0-2.16,2.08v4.85H204.2v-5a1.72,1.72,0,0,0-1.94-1.94,1.7,1.7,0,0,0-.77.19c-1.12.35-1.33,1.5-1.33,2.56v4.18h-1.23V43.52h1.22c0,.46,0,.94,0,1.41h0a2.41,2.41,0,0,1,2.51-1.55,2.46,2.46,0,0,1,2.53,1.6,2.75,2.75,0,0,1,2.71-1.65A2.46,2.46,0,0,1,210.7,46v5.3Z"/><path class="cls-4" d="M219.38,51.33V49.71a3.14,3.14,0,0,1-3,1.76,3.74,3.74,0,0,1-3.86-4,3.82,3.82,0,0,1,4-4.11A3.38,3.38,0,0,1,219.43,45s0-1,0-1.52h1.2v7.81Zm-5.62-3.89a2.68,2.68,0,0,0,2.72,3,2.79,2.79,0,0,0,2.85-3,2.69,2.69,0,0,0-2.85-3A2.77,2.77,0,0,0,213.77,47.44Z"/><path class="cls-4" d="M222.4,47.5a3.88,3.88,0,0,1,4.13-4.18,3.37,3.37,0,0,1,3.55,2.56l-1.12.34a2.28,2.28,0,0,0-2.5-1.79,2.77,2.77,0,0,0-2.87,3.07,2.63,2.63,0,0,0,2.77,2.9,2.92,2.92,0,0,0,2.71-1.82l1.09.24a3.59,3.59,0,0,1-3.78,2.66A3.73,3.73,0,0,1,222.4,47.5Z"/><path class="cls-4" d="M232.74,47.74a2.52,2.52,0,0,0,2.79,2.66,2.65,2.65,0,0,0,2.64-1.7l1.12.29a4,4,0,0,1-7.76-1.55,3.86,3.86,0,0,1,4-4.11c2.69,0,3.91,1.81,3.91,4.4Zm0-.8h5.52a2.52,2.52,0,0,0-2.74-2.51A2.63,2.63,0,0,0,232.74,46.94Z"/><path class="cls-4" d="M247.29,51.33v-5c0-1.22-.8-1.94-2.19-1.94a2.37,2.37,0,0,0-2.5,2.43v4.5h-1.23V43.52h1.22c0,.46,0,.93,0,1.39l0,0a3,3,0,0,1,2.83-1.6c1.89,0,3.11,1.1,3.11,2.71v5.3Z"/><path class="cls-4" d="M257.19,51.33V49.71a3.14,3.14,0,0,1-3,1.76,3.74,3.74,0,0,1-3.86-4,3.82,3.82,0,0,1,4-4.11A3.38,3.38,0,0,1,257.24,45s0-1,0-1.52h1.2v7.81Zm-5.62-3.89a2.68,2.68,0,0,0,2.72,3,2.79,2.79,0,0,0,2.85-3,2.69,2.69,0,0,0-2.85-3A2.77,2.77,0,0,0,251.58,47.44Z"/><path class="cls-4" d="M30.87,65.74a2.52,2.52,0,0,0,2.79,2.66,2.65,2.65,0,0,0,2.64-1.7l1.12.29a3.69,3.69,0,0,1-3.79,2.48,3.72,3.72,0,0,1-4-4,3.86,3.86,0,0,1,4-4.11c2.69,0,3.91,1.81,3.91,4.4Zm0-.8h5.52a2.52,2.52,0,0,0-2.74-2.51A2.63,2.63,0,0,0,30.87,64.94Z"/><path class="cls-4" d="M39.5,69.33V58.48h1.23V69.33Z"/><path class="cls-4" d="M52.79,69.33V67.71a3.14,3.14,0,0,1-3,1.76,3.74,3.74,0,0,1-3.86-4,3.82,3.82,0,0,1,4-4.11A3.38,3.38,0,0,1,52.84,63s0-1,0-1.52H54v7.81Zm-5.62-3.89a2.68,2.68,0,0,0,2.72,3,2.79,2.79,0,0,0,2.85-3,2.69,2.69,0,0,0-2.85-3A2.77,2.77,0,0,0,47.18,65.44Z"/><path class="cls-4" d="M56.73,70.18a5.19,5.19,0,0,0,2.88,1c1.78,0,3-.88,3-2.75v-.91a3.37,3.37,0,0,1-3,1.78,3.65,3.65,0,0,1-3.79-3.89,3.76,3.76,0,0,1,3.94-4,3.15,3.15,0,0,1,2.88,1.74s0-1,0-1.55h1.17v7c0,2.27-1.5,3.68-4,3.68a6.06,6.06,0,0,1-3.43-1.07C56.42,70.82,56.61,70.5,56.73,70.18Zm.34-4.83a2.62,2.62,0,0,0,2.66,2.85,2.68,2.68,0,0,0,2.77-2.82,2.72,2.72,0,1,0-5.43,0Z"/><path class="cls-4" d="M66.88,65.74a2.52,2.52,0,0,0,2.79,2.66,2.65,2.65,0,0,0,2.64-1.7l1.12.29a4,4,0,0,1-7.76-1.55,3.86,3.86,0,0,1,4-4.11c2.69,0,3.91,1.81,3.91,4.4Zm0-.8H72.4a2.52,2.52,0,0,0-2.74-2.51A2.63,2.63,0,0,0,66.88,64.94Z"/><path class="cls-4" d="M81.43,69.33v-5c0-1.22-.8-1.94-2.19-1.94a2.37,2.37,0,0,0-2.5,2.43v4.5H75.5V61.52h1.22c0,.46,0,.93,0,1.39l0,0a3,3,0,0,1,2.83-1.6c1.89,0,3.11,1.1,3.11,2.71v5.3Z"/><path class="cls-4" d="M86.79,62.54v5.2c0,.37.22.67.88.67a2.23,2.23,0,0,0,.91-.19v.91a3,3,0,0,1-1.5.35,1.36,1.36,0,0,1-1.52-1.31V62.54h-1.5v-1h1.5v-2h1.23v2h1.79v1Z"/><path class="cls-4" d="M90.81,65.74a2.52,2.52,0,0,0,2.79,2.66,2.65,2.65,0,0,0,2.64-1.7l1.12.29a4,4,0,0,1-7.76-1.55,3.86,3.86,0,0,1,4-4.11c2.69,0,3.91,1.81,3.91,4.4Zm0-.8h5.52a2.52,2.52,0,0,0-2.74-2.51A2.63,2.63,0,0,0,90.81,64.94Z"/><path class="cls-4" d="M103.48,65.74a2.52,2.52,0,0,0,2.79,2.66,2.65,2.65,0,0,0,2.64-1.7L110,67a4,4,0,0,1-7.76-1.55,3.86,3.86,0,0,1,4-4.11c2.69,0,3.91,1.81,3.91,4.4Zm0-.8H109a2.52,2.52,0,0,0-2.74-2.51A2.63,2.63,0,0,0,103.48,64.94Z"/><path class="cls-4" d="M117.43,69.33l-2.66-3.2-2.58,3.2h-1.58c1.12-1.33,2.26-2.67,3.36-4-1-1.26-2-2.54-3.07-3.81h1.57c.77,1,1.55,2,2.32,3l2.35-3h1.57c-1,1.25-2.08,2.51-3.14,3.76l3.44,4Z"/><path class="cls-4" d="M122.55,62.54v5.2c0,.37.22.67.88.67a2.23,2.23,0,0,0,.91-.19v.91a3,3,0,0,1-1.5.35,1.36,1.36,0,0,1-1.52-1.31V62.54h-1.5v-1h1.5v-2h1.23v2h1.79v1Z"/><path class="cls-4" d="M126,59.05a.61.61,0,0,1,.64-.62.6.6,0,0,1,.62.62v.74a.59.59,0,0,1-.62.61.6.6,0,0,1-.64-.61Zm0,10.28V61.52h1.23v7.81Z"/><path class="cls-4" d="M135.55,69.33v-5c0-1.22-.8-1.94-2.19-1.94a2.37,2.37,0,0,0-2.5,2.43v4.5h-1.23V61.52h1.22c0,.46,0,.93,0,1.39l0,0a3,3,0,0,1,2.83-1.6c1.89,0,3.11,1.1,3.11,2.71v5.3Z"/><path class="cls-4" d="M140.91,62.54v5.2c0,.37.22.67.88.67a2.23,2.23,0,0,0,.91-.19v.91a3,3,0,0,1-1.5.35,1.36,1.36,0,0,1-1.52-1.31V62.54h-1.5v-1h1.5v-2h1.23v2h1.79v1Z"/><path class="cls-4" d="M143.72,65.42a4.06,4.06,0,1,1,4,4.07A3.85,3.85,0,0,1,143.72,65.42Zm1.18,0a2.75,2.75,0,0,0,2.86,3,2.79,2.79,0,0,0,2.88-3,2.88,2.88,0,1,0-5.75,0Z"/><path class="cls-4" d="M157.81,62.51c-2.32,0-2.8,1.87-2.8,3.71v3.11h-1.23V61.52H155c0,.69,0,1.33-.06,2a3.05,3.05,0,0,1,2.88-2.14Z"/><path class="cls-4" d="M158.28,69.33V67.6h1.31v1.73Z"/><path class="cls-5" d="M32.37,33.4a2.76,2.76,0,0,1-2.77-2.76V24.33a2.77,2.77,0,1,1,5.53,0v1.32H33.32V24.29a1,1,0,0,0-1-1,1,1,0,0,0-.71.3,1,1,0,0,0-.29.71v6.33a1,1,0,0,0,1,1,1,1,0,0,0,.71-.29,1,1,0,0,0,.3-.71V29h1.81v1.62a2.76,2.76,0,0,1-2.76,2.76Z"/><path class="cls-5" d="M40,33.25H38.22V21.69H40Z"/><path class="cls-5" d="M47.83,33.25H43.08V21.69h1.74v9.83h3Z"/><path class="cls-5" d="M52.67,33.25H50.92V21.69h1.74Z"/><path class="cls-5" d="M57.74,21.68l2.32,7.78V21.68H61.8V33.25H59.93l-2.4-7.41v7.41H55.78V21.68Z"/><path class="cls-5" d="M70.41,30.49a2.69,2.69,0,0,1-.8,2,2.62,2.62,0,0,1-1.94.81H64.92V21.68h2.74a2.62,2.62,0,0,1,1.94.81,2.68,2.68,0,0,1,.8,1.95Zm-3.74,1h1.05a.93.93,0,0,0,.7-.3,1,1,0,0,0,.29-.71V24.46a1,1,0,0,0-.29-.71.94.94,0,0,0-.7-.29H66.67Z"/><path class="cls-5" d="M76.26,21.69a2.66,2.66,0,0,1,2.14.8,2.92,2.92,0,0,1,.6,2v1.68a2.7,2.7,0,0,1-.93,2.08l1.29,5.05H77.48L76.42,28.9H75.25v4.36H73.51V21.69Zm1,2.79a.89.89,0,0,0-1-1H75.25v3.7h1.05a1,1,0,0,0,.71-.29,1,1,0,0,0,.29-.71Z"/><path class="cls-5" d="M85,21.54a2.77,2.77,0,0,1,2.77,2.77v6.31a2.77,2.77,0,1,1-5.53,0V24.31A2.77,2.77,0,0,1,85,21.54Zm1,2.73a1,1,0,0,0-1-1,1,1,0,0,0-.71.29,1,1,0,0,0-.29.71v6.33a1,1,0,0,0,.29.71,1,1,0,0,0,.71.29,1,1,0,0,0,1-1Z"/></g></g></g></svg>