<svg xmlns="http://www.w3.org/2000/svg" viewBox="0 0 275.47 110.92"><defs><style>.cls-1{isolation:isolate;}.cls-2{opacity:0.6;mix-blend-mode:overlay;}.cls-3{fill:#fff;}.cls-4{fill:#909090;}.cls-5{fill:#ed0531;}</style></defs><title>a2</title><g class="cls-1"><g id="Capa_2" data-name="Capa 2"><g id="Capa_6" data-name="Capa 6"><g class="cls-2"><rect y="23.26" width="270.97" height="87.66" rx="12.04" ry="12.04"/></g><rect class="cls-3" width="275.47" height="103.36" rx="12.32" ry="12.32"/><path class="cls-4" d="M31.22,47.67v4.63H30V41.44h4.27c2.48,0,4,1,4,3s-1.7,3.19-3.92,3.19Zm0-5.14v4.08h3.07c1.42,0,2.61-.75,2.61-2s-1-2-2.67-2Z"/><path class="cls-4" d="M46,52.29V50.68a3.14,3.14,0,0,1-3,1.76,3.74,3.74,0,0,1-3.86-4,3.82,3.82,0,0,1,4-4.11A3.38,3.38,0,0,1,46,46s0-1,0-1.52h1.2v7.81Zm-5.62-3.89a2.68,2.68,0,0,0,2.72,3,2.79,2.79,0,0,0,2.85-3,2.69,2.69,0,0,0-2.85-3A2.77,2.77,0,0,0,40.34,48.41Z"/><path class="cls-4" d="M53.47,45.48c-2.32,0-2.8,1.87-2.8,3.71v3.11H49.44V44.48h1.22c0,.69,0,1.33-.06,2a3.05,3.05,0,0,1,2.88-2.14Z"/><path class="cls-4" d="M57.2,45.51v5.2c0,.37.22.67.88.67a2.23,2.23,0,0,0,.91-.19v.91a3,3,0,0,1-1.5.35A1.36,1.36,0,0,1,56,51.14V45.51h-1.5v-1H56v-2H57.2v2H59v1Z"/><path class="cls-4" d="M61.22,48.71A2.52,2.52,0,0,0,64,51.37a2.65,2.65,0,0,0,2.64-1.7l1.12.29A4,4,0,0,1,60,48.41a3.86,3.86,0,0,1,4-4.11c2.69,0,3.91,1.81,3.91,4.4Zm0-.8h5.52A2.52,2.52,0,0,0,64,45.4,2.63,2.63,0,0,0,61.22,47.91Z"/><path class="cls-4" d="M83.75,52.29v-5a1.69,1.69,0,0,0-1.87-1.94,2.08,2.08,0,0,0-2.16,2.08v4.85H78.49v-5a1.72,1.72,0,0,0-1.94-1.94,1.7,1.7,0,0,0-.77.19c-1.12.35-1.33,1.5-1.33,2.56v4.18H73.22V44.48h1.22c0,.46,0,.94,0,1.41h0a2.41,2.41,0,0,1,2.51-1.55,2.46,2.46,0,0,1,2.53,1.6,2.75,2.75,0,0,1,2.71-1.65A2.46,2.46,0,0,1,85,47v5.3Z"/><path class="cls-4" d="M88,48.71a2.52,2.52,0,0,0,2.79,2.66,2.65,2.65,0,0,0,2.64-1.7l1.12.29a4,4,0,0,1-7.76-1.55,3.86,3.86,0,0,1,4-4.11c2.69,0,3.91,1.81,3.91,4.4Zm0-.8h5.52a2.52,2.52,0,0,0-2.74-2.51A2.63,2.63,0,0,0,88,47.91Z"/><path class="cls-4" d="M98.46,45.51v5.2c0,.37.22.67.88.67a2.23,2.23,0,0,0,.91-.19v.91a3,3,0,0,1-1.5.35,1.36,1.36,0,0,1-1.52-1.31V45.51h-1.5v-1h1.5v-2h1.23v2h1.79v1Z"/><path class="cls-4" d="M108.1,52.29V50.68a3.14,3.14,0,0,1-3,1.76,3.74,3.74,0,0,1-3.86-4,3.82,3.82,0,0,1,4-4.11A3.38,3.38,0,0,1,108.15,46s0-1,0-1.52h1.2v7.81Zm-5.62-3.89a2.68,2.68,0,0,0,2.72,3,2.79,2.79,0,0,0,2.85-3,2.69,2.69,0,0,0-2.85-3A2.77,2.77,0,0,0,102.49,48.41Zm4.61-7.94c.27.29.51.59.77.88l-2.66,2.3c-.22-.24-.43-.5-.64-.74Z"/><path class="cls-4" d="M111.7,52.29V41.44h1.23V52.29Z"/><path class="cls-4" d="M115.27,42a.61.61,0,0,1,.64-.62.6.6,0,0,1,.62.62v.74a.59.59,0,0,1-.62.61.6.6,0,0,1-.64-.61Zm0,10.28V44.48h1.23v7.81Z"/><path class="cls-4" d="M118.43,48.47a3.88,3.88,0,0,1,4.13-4.18,3.37,3.37,0,0,1,3.55,2.56l-1.12.34a2.28,2.28,0,0,0-2.5-1.79,2.77,2.77,0,0,0-2.87,3.07,2.63,2.63,0,0,0,2.77,2.9,2.92,2.92,0,0,0,2.71-1.82l1.09.24a3.59,3.59,0,0,1-3.78,2.66A3.73,3.73,0,0,1,118.43,48.47Z"/><path class="cls-4" d="M134.4,52.29V50.68a3.14,3.14,0,0,1-3,1.76,3.74,3.74,0,0,1-3.86-4,3.82,3.82,0,0,1,4-4.11A3.38,3.38,0,0,1,134.45,46s0-1,0-1.52h1.2v7.81Zm-5.62-3.89a2.68,2.68,0,0,0,2.72,3,2.79,2.79,0,0,0,2.85-3,2.69,2.69,0,0,0-2.85-3A2.77,2.77,0,0,0,128.78,48.41Z"/><path class="cls-4" d="M142.78,44.48h2.08v1h-2.08v6.79h-1.23V45.51h-1.12v-1h1.12v-.34c0-1.63,1.12-2.82,3.19-2.82a8.33,8.33,0,0,1,1,.08v1.06a8.25,8.25,0,0,0-1-.06c-1.33,0-2,.69-2,1.81Z"/><path class="cls-4" d="M146.86,42a.61.61,0,0,1,.64-.62.6.6,0,0,1,.62.62v.74a.59.59,0,0,1-.62.61.6.6,0,0,1-.64-.61Zm0,10.28V44.48h1.23v7.81Z"/><path class="cls-4" d="M148.49,54.28c1.55-.13,2.11-.8,2.11-2.22V44.48h1.23v7.59a2.93,2.93,0,0,1-3,3.26ZM150.59,42a.59.59,0,0,1,.62-.61.6.6,0,0,1,.64.61v.74a.6.6,0,0,1-.64.61.59.59,0,0,1-.62-.61Z"/><path class="cls-4" d="M160.6,52.29V50.68a3.14,3.14,0,0,1-3,1.76,3.74,3.74,0,0,1-3.86-4,3.82,3.82,0,0,1,4-4.11A3.38,3.38,0,0,1,160.65,46s0-1,0-1.52h1.2v7.81ZM155,48.41a2.68,2.68,0,0,0,2.72,3,2.79,2.79,0,0,0,2.85-3,2.69,2.69,0,0,0-2.85-3A2.77,2.77,0,0,0,155,48.41Z"/><path class="cls-4" d="M168.54,50.74c0,.61,0,1.17,0,1.83V55h-1.2V44.48h1.2v.72c0,.29,0,.86,0,.86a3.47,3.47,0,0,1,3-1.78c2.43,0,3.83,1.71,3.83,4.1s-1.47,4.1-3.87,4.1A3.19,3.19,0,0,1,168.54,50.74Zm.06-2.38c0,1.86.94,3.06,2.82,3.06a2.73,2.73,0,0,0,2.72-3,2.73,2.73,0,0,0-2.71-3A2.77,2.77,0,0,0,168.6,48.36Z"/><path class="cls-4" d="M176.87,48.39a4.06,4.06,0,1,1,8.12,0,4.06,4.06,0,1,1-8.12,0Zm1.18,0a2.75,2.75,0,0,0,2.86,3,2.79,2.79,0,0,0,2.88-3,2.88,2.88,0,1,0-5.75,0Z"/><path class="cls-4" d="M191,45.48c-2.32,0-2.8,1.87-2.8,3.71v3.11h-1.23V44.48h1.22c0,.69,0,1.33-.06,2A3.05,3.05,0,0,1,191,44.31Z"/><path class="cls-4" d="M195.52,52.29V41.44h1.23V52.29Z"/><path class="cls-4" d="M205.51,52.29V50.68a3.14,3.14,0,0,1-3,1.76,3.74,3.74,0,0,1-3.86-4,3.82,3.82,0,0,1,4-4.11A3.38,3.38,0,0,1,205.56,46s0-1,0-1.52h1.2v7.81Zm-5.62-3.89a2.68,2.68,0,0,0,2.72,3,2.79,2.79,0,0,0,2.85-3,2.69,2.69,0,0,0-2.85-3A2.77,2.77,0,0,0,199.89,48.41Z"/><path class="cls-4" d="M211.73,48.47a3.88,3.88,0,0,1,4.13-4.18,3.37,3.37,0,0,1,3.55,2.56l-1.12.34a2.28,2.28,0,0,0-2.5-1.79,2.77,2.77,0,0,0-2.87,3.07,2.63,2.63,0,0,0,2.77,2.9,2.92,2.92,0,0,0,2.71-1.82l1.09.24a3.59,3.59,0,0,1-3.78,2.66A3.73,3.73,0,0,1,211.73,48.47Z"/><path class="cls-4" d="M227.18,52.29l0-1.47h0a2.88,2.88,0,0,1-2.8,1.63,2.79,2.79,0,0,1-3.12-3v-5h1.23v4.87a1.9,1.9,0,0,0,2.16,2,2.4,2.4,0,0,0,2.51-2.56V44.48h1.23v7.81Z"/><path class="cls-4" d="M237,52.29V50.68a3.14,3.14,0,0,1-3,1.76,3.74,3.74,0,0,1-3.86-4,3.82,3.82,0,0,1,4-4.11A3.38,3.38,0,0,1,237.1,46s0-1,0-1.52h1.2v7.81Zm-5.62-3.89a2.68,2.68,0,0,0,2.72,3,2.79,2.79,0,0,0,2.85-3,2.69,2.69,0,0,0-2.85-3A2.77,2.77,0,0,0,231.43,48.41Z"/><path class="cls-4" d="M240.51,52.29V41.44h1.23V52.29Z"/><path class="cls-4" d="M29.81,67.83l1.25,0c0,1.07.82,1.7,2.29,1.7.94,0,2-.43,2-1.38,0-2-5.39-.29-5.39-3.52,0-1.42,1.52-2.29,3.14-2.29,2.21,0,3.27,1,3.39,2.59-.42,0-.83.06-1.25.08-.08-1.06-.8-1.63-2.18-1.63-1,0-1.92.5-1.92,1.31,0,1.94,5.43.32,5.43,3.46,0,1.62-1.66,2.34-3.33,2.34C31,70.44,29.89,69.49,29.81,67.83Z"/><path class="cls-4" d="M39.35,66.71a2.52,2.52,0,0,0,2.79,2.66,2.65,2.65,0,0,0,2.64-1.7L45.9,68a3.69,3.69,0,0,1-3.79,2.48,3.72,3.72,0,0,1-4-4,3.86,3.86,0,0,1,4-4.11c2.69,0,3.91,1.81,3.91,4.4Zm0-.8h5.52a2.52,2.52,0,0,0-2.74-2.51A2.63,2.63,0,0,0,39.35,65.91Z"/><path class="cls-4" d="M57.66,70.29V68.68a3.14,3.14,0,0,1-3,1.76,3.74,3.74,0,0,1-3.86-4,3.82,3.82,0,0,1,4-4.11A3.38,3.38,0,0,1,57.7,64s0-1,0-1.52h1.2v7.81ZM52,66.41a2.68,2.68,0,0,0,2.72,3,2.79,2.79,0,0,0,2.85-3,2.69,2.69,0,0,0-2.85-3A2.77,2.77,0,0,0,52,66.41Z"/><path class="cls-4" d="M61.59,71.14a5.19,5.19,0,0,0,2.88,1c1.78,0,3-.88,3-2.75v-.91a3.37,3.37,0,0,1-3,1.78,3.65,3.65,0,0,1-3.79-3.89,3.76,3.76,0,0,1,3.94-4A3.15,3.15,0,0,1,67.48,64s0-1,0-1.55H68.6v7c0,2.27-1.5,3.68-4,3.68a6.06,6.06,0,0,1-3.43-1.07C61.28,71.78,61.48,71.46,61.59,71.14Zm.34-4.83a2.62,2.62,0,0,0,2.66,2.85,2.68,2.68,0,0,0,2.77-2.82,2.72,2.72,0,1,0-5.43,0Z"/><path class="cls-4" d="M77.37,70.29V68.68a3.14,3.14,0,0,1-3,1.76,3.74,3.74,0,0,1-3.86-4,3.82,3.82,0,0,1,4-4.11A3.38,3.38,0,0,1,77.42,64s0-1,0-1.52h1.2v7.81Zm-5.62-3.89a2.68,2.68,0,0,0,2.72,3,2.79,2.79,0,0,0,2.85-3,2.69,2.69,0,0,0-2.85-3A2.77,2.77,0,0,0,71.75,66.41Z"/><path class="cls-4" d="M84.89,63.48c-2.32,0-2.8,1.87-2.8,3.71v3.11H80.85V62.48h1.22c0,.69,0,1.33-.06,2a3.05,3.05,0,0,1,2.88-2.14Z"/><path class="cls-4" d="M90.32,63.48c-2.32,0-2.8,1.87-2.8,3.71v3.11H86.28V62.48H87.5c0,.69,0,1.33-.06,2a3.05,3.05,0,0,1,2.88-2.14Z"/><path class="cls-4" d="M97.89,70.29V68.68a3.14,3.14,0,0,1-3,1.76,3.74,3.74,0,0,1-3.86-4,3.82,3.82,0,0,1,4-4.11A3.38,3.38,0,0,1,97.94,64s0-1,0-1.52h1.2v7.81Zm-5.62-3.89a2.68,2.68,0,0,0,2.72,3,2.79,2.79,0,0,0,2.85-3,2.69,2.69,0,0,0-2.85-3A2.77,2.77,0,0,0,92.27,66.41Z"/><path class="cls-4" d="M105.31,66.71a2.52,2.52,0,0,0,2.79,2.66,2.65,2.65,0,0,0,2.64-1.7l1.12.29a4,4,0,0,1-7.76-1.55,3.86,3.86,0,0,1,4-4.11c2.69,0,3.91,1.81,3.91,4.4Zm0-.8h5.52a2.52,2.52,0,0,0-2.74-2.51A2.63,2.63,0,0,0,105.31,65.91Z"/><path class="cls-4" d="M113.94,70.29V59.44h1.23V70.29Z"/><path class="cls-4" d="M121.6,66.71a2.52,2.52,0,0,0,2.79,2.66,2.65,2.65,0,0,0,2.64-1.7l1.12.29a4,4,0,0,1-7.76-1.55,3.86,3.86,0,0,1,4-4.11c2.69,0,3.91,1.81,3.91,4.4Zm0-.8h5.52a2.52,2.52,0,0,0-2.74-2.51A2.63,2.63,0,0,0,121.6,65.91Z"/><path class="cls-4" d="M135.55,70.29l-2.66-3.2-2.58,3.2h-1.58c1.12-1.33,2.26-2.67,3.36-4-1-1.26-2-2.54-3.07-3.81h1.57c.77,1,1.55,2,2.32,3l2.35-3h1.57c-1,1.25-2.08,2.51-3.14,3.76l3.44,4Z"/><path class="cls-4" d="M140.68,63.51v5.2c0,.37.22.67.88.67a2.23,2.23,0,0,0,.91-.19v.91a3,3,0,0,1-1.5.35,1.36,1.36,0,0,1-1.52-1.31V63.51h-1.5v-1h1.5v-2h1.23v2h1.79v1Z"/><path class="cls-4" d="M144.12,60a.61.61,0,0,1,.64-.62.6.6,0,0,1,.62.62v.74a.59.59,0,0,1-.62.61.6.6,0,0,1-.64-.61Zm0,10.28V62.48h1.23v7.81Z"/><path class="cls-4" d="M153.67,70.29v-5c0-1.22-.8-1.94-2.19-1.94A2.37,2.37,0,0,0,149,65.8v4.5h-1.23V62.48H149c0,.46,0,.93,0,1.39l0,0a3,3,0,0,1,2.83-1.6c1.89,0,3.11,1.1,3.11,2.71v5.3Z"/><path class="cls-4" d="M159,63.51v5.2c0,.37.22.67.88.67a2.23,2.23,0,0,0,.91-.19v.91a3,3,0,0,1-1.5.35,1.36,1.36,0,0,1-1.52-1.31V63.51h-1.5v-1h1.5v-2H159v2h1.79v1Z"/><path class="cls-4" d="M161.84,66.39a4.06,4.06,0,1,1,4,4.07A3.85,3.85,0,0,1,161.84,66.39Zm1.18,0a2.75,2.75,0,0,0,2.86,3,2.79,2.79,0,0,0,2.88-3,2.88,2.88,0,1,0-5.75,0Z"/><path class="cls-4" d="M175.93,63.48c-2.32,0-2.8,1.87-2.8,3.71v3.11H171.9V62.48h1.22c0,.69,0,1.33-.06,2a3.05,3.05,0,0,1,2.88-2.14Z"/><path class="cls-4" d="M180,66.47a3.88,3.88,0,0,1,4.13-4.18,3.37,3.37,0,0,1,3.55,2.56l-1.12.34a2.28,2.28,0,0,0-2.5-1.79,2.77,2.77,0,0,0-2.87,3.07,2.63,2.63,0,0,0,2.77,2.9,2.92,2.92,0,0,0,2.71-1.82l1.09.24A3.59,3.59,0,0,1,184,70.44,3.73,3.73,0,0,1,180,66.47Z"/><path class="cls-4" d="M195.45,70.29l0-1.47h0a2.88,2.88,0,0,1-2.8,1.63,2.79,2.79,0,0,1-3.12-3v-5h1.23v4.87a1.9,1.9,0,0,0,2.16,2,2.4,2.4,0,0,0,2.51-2.56V62.48h1.23v7.81Z"/><path class="cls-4" d="M205.32,70.29V68.68a3.14,3.14,0,0,1-3,1.76,3.74,3.74,0,0,1-3.86-4,3.82,3.82,0,0,1,4-4.11A3.38,3.38,0,0,1,205.37,64s0-1,0-1.52h1.2v7.81Zm-5.62-3.89a2.68,2.68,0,0,0,2.72,3,2.79,2.79,0,0,0,2.85-3,2.69,2.69,0,0,0-2.85-3A2.77,2.77,0,0,0,199.7,66.41Z"/><path class="cls-4" d="M214.72,70.29v-5c0-1.22-.8-1.94-2.19-1.94A2.37,2.37,0,0,0,210,65.8v4.5H208.8V62.48H210c0,.46,0,.93,0,1.39l0,0a3,3,0,0,1,2.83-1.6c1.89,0,3.11,1.1,3.11,2.71v5.3Z"/><path class="cls-4" d="M224.63,70.29v-1.6a3.36,3.36,0,0,1-3,1.76c-2.42,0-3.81-1.75-3.81-4.08s1.5-4.11,3.86-4.11a3.44,3.44,0,0,1,3,1.71s0-1.2,0-1.83V59.44h1.22V70.29ZM219,66.37c0,1.75,1,3,2.72,3a2.83,2.83,0,0,0,2.85-3,2.7,2.7,0,0,0-2.85-3A2.77,2.77,0,0,0,219,66.37Z"/><path class="cls-4" d="M227.77,66.39a4.06,4.06,0,1,1,4,4.07A3.85,3.85,0,0,1,227.77,66.39Zm1.18,0a2.75,2.75,0,0,0,2.86,3,2.79,2.79,0,0,0,2.88-3,2.88,2.88,0,1,0-5.75,0Z"/><path class="cls-4" d="M29.81,85.83l1.25,0c0,1.07.82,1.7,2.29,1.7.94,0,2-.43,2-1.38,0-2-5.39-.29-5.39-3.52,0-1.42,1.52-2.29,3.14-2.29,2.21,0,3.27,1,3.39,2.59-.42,0-.83.06-1.25.08-.08-1.06-.8-1.63-2.18-1.63-1,0-1.92.5-1.92,1.31,0,1.94,5.43.32,5.43,3.46,0,1.62-1.66,2.34-3.33,2.34C31,88.44,29.89,87.49,29.81,85.83Z"/><path class="cls-4" d="M39.35,84.71a2.52,2.52,0,0,0,2.79,2.66,2.65,2.65,0,0,0,2.64-1.7L45.9,86a3.69,3.69,0,0,1-3.79,2.48,3.72,3.72,0,0,1-4-4,3.86,3.86,0,0,1,4-4.11c2.69,0,3.91,1.81,3.91,4.4Zm0-.8h5.52a2.52,2.52,0,0,0-2.74-2.51A2.63,2.63,0,0,0,39.35,83.91Z"/><path class="cls-4" d="M57.27,88.29l0-1.47h0a2.88,2.88,0,0,1-2.8,1.63,2.79,2.79,0,0,1-3.12-3v-5h1.23v4.87a1.9,1.9,0,0,0,2.16,2,2.4,2.4,0,0,0,2.51-2.56V80.48h1.23v7.81Z"/><path class="cls-4" d="M62.71,81.51v5.2c0,.37.22.67.88.67a2.23,2.23,0,0,0,.91-.19v.91a3,3,0,0,1-1.5.35,1.36,1.36,0,0,1-1.52-1.31V81.51H60v-1h1.5v-2h1.23v2H64.5v1Z"/><path class="cls-4" d="M66.16,78a.61.61,0,0,1,.64-.62.6.6,0,0,1,.62.62v.74a.59.59,0,0,1-.62.61.6.6,0,0,1-.64-.61Zm0,10.28V80.48H67.4v7.81Z"/><path class="cls-4" d="M69.77,88.29V77.44H71V88.29Z"/><path class="cls-4" d="M73.34,78a.61.61,0,0,1,.64-.62.6.6,0,0,1,.62.62v.74a.59.59,0,0,1-.62.61.6.6,0,0,1-.64-.61Zm0,10.28V80.48h1.23v7.81Z"/><path class="cls-4" d="M76.26,88.29v-.94l5.15-5.81H76.63V80.48h6.51v.93L78,87.24h5.41v1.06Z"/><path class="cls-4" d="M91.1,88.29V86.68a3.14,3.14,0,0,1-3,1.76,3.74,3.74,0,0,1-3.86-4,3.82,3.82,0,0,1,4-4.11A3.38,3.38,0,0,1,91.15,82s0-1,0-1.52h1.2v7.81Zm-5.62-3.89a2.68,2.68,0,0,0,2.72,3,2.79,2.79,0,0,0,2.85-3,2.69,2.69,0,0,0-2.85-3A2.77,2.77,0,0,0,85.48,84.41Z"/><path class="cls-5" d="M31.34,34.25H29.6V22.68h2.5L33.73,31l1.56-8.32h2.41V34.25H35.95V27l-1.51,7.28H33L31.34,27Z"/><path class="cls-5" d="M43,31.6l-.42,2.66H40.79l2-11.57h2.4L47.1,34.25H45.26l-.41-2.66Zm.92-6.26L43.3,29.9H44.6Z"/><path class="cls-5" d="M52.16,22.68l2.32,7.78V22.68h1.75V34.25H54.34l-2.4-7.41v7.41H50.2V22.68Z"/><path class="cls-5" d="M62.09,34.4a2.77,2.77,0,0,1-2.77-2.76V25.33a2.77,2.77,0,1,1,5.53,0v1.32H63V25.29a1,1,0,0,0-1-1,1,1,0,0,0-.71.3,1,1,0,0,0-.29.71v6.33a1,1,0,0,0,1,1,1,1,0,0,0,.71-.29,1,1,0,0,0,.3-.71V29.35h-1V27.6h2.78v4a2.76,2.76,0,0,1-2.76,2.76Z"/><path class="cls-5" d="M70.71,22.54a2.77,2.77,0,0,1,2.77,2.77v6.31a2.77,2.77,0,1,1-5.53,0V25.31a2.77,2.77,0,0,1,2.76-2.77Zm1,2.73a1,1,0,0,0-1-1,1,1,0,0,0-.71.29,1,1,0,0,0-.29.71v6.33a1,1,0,0,0,.29.71,1,1,0,0,0,.71.29,1,1,0,0,0,1-1Z"/></g></g></g></svg>