<svg xmlns="http://www.w3.org/2000/svg" viewBox="0 0 383.47 170.92"><defs><style>.cls-1{isolation:isolate;}.cls-2{opacity:0.6;mix-blend-mode:overlay;}.cls-3{fill:#fff;}.cls-4{fill:#ed0531;}.cls-5{fill:#909090;}</style></defs><title>a3</title><g class="cls-1"><g id="Capa_2" data-name="Capa 2"><g id="Capa_6" data-name="Capa 6"><g class="cls-2"><rect y="23.26" width="378.97" height="147.66" rx="12.04" ry="12.04"/></g><rect class="cls-3" width="383.47" height="163.36" rx="12.32" ry="12.32"/><path class="cls-4" d="M29,33H27.3V21.43h2.5l1.63,8.32L33,21.43H35.4V33H33.66V25.73L32.14,33h-1.4L29,25.75Z"/><path class="cls-4" d="M40.74,30.35,40.32,33H38.5l2-11.57h2.4L44.81,33H43l-.41-2.66Zm.92-6.26L41,28.65H42.3Z"/><path class="cls-4" d="M49.86,21.43l2.32,7.78V21.43h1.75V33H52l-2.4-7.41V33H47.9V21.43Z"/><path class="cls-4" d="M59.79,21.29a2.77,2.77,0,0,1,2.77,2.77v6.31a2.77,2.77,0,1,1-5.53,0V24.06a2.77,2.77,0,0,1,2.76-2.77Zm1,2.73a1,1,0,0,0-1-1,1,1,0,0,0-.71.29,1,1,0,0,0-.29.71v6.33a1,1,0,0,0,.29.71,1,1,0,0,0,.71.29,1,1,0,0,0,1-1Z"/><path class="cls-4" d="M67.42,33H65.67V21.43h2.5l1.63,8.32,1.56-8.32h2.41V33H72V25.73L70.51,33h-1.4l-1.69-7.26Z"/><path class="cls-4" d="M76.89,33V21.43h5v1.75H78.63v3.16H81v1.75H78.63v3.16h3.22V33Z"/><path class="cls-4" d="M86.81,23.19H85V21.44H90.4v1.75H88.56V33H86.81Z"/><path class="cls-4" d="M96.25,21.44a2.66,2.66,0,0,1,2.14.8,2.92,2.92,0,0,1,.6,2v1.68A2.7,2.7,0,0,1,98.06,28L99.35,33H97.47l-1.06-4.36H95.25V33H93.5V21.44Zm1,2.79a.89.89,0,0,0-1-1H95.25v3.7H96.3a1,1,0,0,0,.71-.29,1,1,0,0,0,.29-.71Z"/><path class="cls-4" d="M105,21.29a2.77,2.77,0,0,1,2.77,2.77v6.31a2.77,2.77,0,1,1-5.53,0V24.06A2.77,2.77,0,0,1,105,21.29ZM106,24a1,1,0,0,0-1-1,1,1,0,0,0-.71.29A1,1,0,0,0,104,24v6.33a1,1,0,0,0,.29.71,1,1,0,0,0,.71.29,1,1,0,0,0,1-1Z"/><path class="cls-5" d="M27.7,52.54V41.69h8.15v1.09H28.93V46.4H35v1.07H28.93v4h7v1.1Z"/><path class="cls-5" d="M37.21,50.08l1.25,0c0,1.07.82,1.7,2.29,1.7.94,0,2-.43,2-1.38,0-2-5.39-.29-5.39-3.52,0-1.42,1.52-2.29,3.14-2.29,2.21,0,3.27,1,3.39,2.59-.42,0-.83.06-1.25.08-.08-1.06-.8-1.63-2.18-1.63-1,0-1.92.5-1.92,1.31,0,1.94,5.43.32,5.43,3.46,0,1.62-1.66,2.34-3.33,2.34C38.42,52.69,37.29,51.74,37.21,50.08Z"/><path class="cls-5" d="M55.37,52.54l0-1.47h0a2.88,2.88,0,0,1-2.8,1.63,2.79,2.79,0,0,1-3.12-3v-5h1.23V49.6a1.9,1.9,0,0,0,2.16,2A2.4,2.4,0,0,0,55.29,49V44.73h1.23v7.81Z"/><path class="cls-5" d="M64.79,52.54v-5c0-1.22-.8-1.94-2.19-1.94A2.37,2.37,0,0,0,60.1,48v4.5H58.86V44.73h1.22c0,.46,0,.93,0,1.39l0,0a3,3,0,0,1,2.83-1.6c1.89,0,3.11,1.1,3.11,2.71v5.3Z"/><path class="cls-5" d="M71.65,42.27a.61.61,0,0,1,.64-.62.6.6,0,0,1,.62.62V43a.59.59,0,0,1-.62.61.6.6,0,0,1-.64-.61Zm0,10.28V44.73h1.23v7.81Z"/><path class="cls-5" d="M81.2,52.54v-5c0-1.22-.8-1.94-2.19-1.94A2.37,2.37,0,0,0,76.51,48v4.5H75.27V44.73h1.22c0,.46,0,.93,0,1.39l0,0a3,3,0,0,1,2.83-1.6c1.89,0,3.11,1.1,3.11,2.71v5.3Z"/><path class="cls-5" d="M91.1,52.54v-1.6a3.36,3.36,0,0,1-3,1.76c-2.42,0-3.81-1.75-3.81-4.08s1.5-4.11,3.86-4.11a3.44,3.44,0,0,1,3,1.71s0-1.2,0-1.83V41.69h1.22V52.54Zm-5.6-3.92c0,1.75,1,3,2.72,3a2.83,2.83,0,0,0,2.85-3,2.7,2.7,0,0,0-2.85-3A2.77,2.77,0,0,0,85.5,48.62Z"/><path class="cls-5" d="M94.69,42.27a.61.61,0,0,1,.64-.62.6.6,0,0,1,.62.62V43a.59.59,0,0,1-.62.61.6.6,0,0,1-.64-.61Zm0,10.28V44.73h1.23v7.81Z"/><path class="cls-5" d="M97.85,48.72A3.88,3.88,0,0,1,102,44.54a3.37,3.37,0,0,1,3.55,2.56l-1.12.34a2.28,2.28,0,0,0-2.5-1.79,2.77,2.77,0,0,0-2.87,3.07,2.63,2.63,0,0,0,2.77,2.9,2.92,2.92,0,0,0,2.71-1.82l1.09.24a3.59,3.59,0,0,1-3.78,2.66A3.73,3.73,0,0,1,97.85,48.72Z"/><path class="cls-5" d="M113.82,52.54V50.93a3.14,3.14,0,0,1-3,1.76,3.74,3.74,0,0,1-3.86-4,3.82,3.82,0,0,1,4-4.11,3.38,3.38,0,0,1,2.95,1.71s0-1,0-1.52H115v7.81Zm-5.62-3.89a2.68,2.68,0,0,0,2.72,3,2.79,2.79,0,0,0,2.85-3,2.69,2.69,0,0,0-2.85-3A2.77,2.77,0,0,0,108.2,48.65Z"/><path class="cls-5" d="M123.7,52.54v-1.6a3.36,3.36,0,0,1-3,1.76c-2.42,0-3.81-1.75-3.81-4.08s1.5-4.11,3.86-4.11a3.44,3.44,0,0,1,3,1.71s0-1.2,0-1.83V41.69h1.22V52.54Zm-5.6-3.92c0,1.75,1,3,2.72,3a2.83,2.83,0,0,0,2.85-3,2.7,2.7,0,0,0-2.85-3A2.77,2.77,0,0,0,118.1,48.62Z"/><path class="cls-5" d="M126.84,48.64a4.06,4.06,0,1,1,8.12,0,4.06,4.06,0,1,1-8.12,0Zm1.18,0a2.75,2.75,0,0,0,2.86,3,2.79,2.79,0,0,0,2.88-3,2.88,2.88,0,1,0-5.75,0Z"/><path class="cls-5" d="M140.94,45.72c-2.32,0-2.8,1.87-2.8,3.71v3.11H136.9V44.73h1.22c0,.69,0,1.33-.06,2a3.05,3.05,0,0,1,2.88-2.14Z"/><path class="cls-5" d="M151.83,52.54v-1.6a3.36,3.36,0,0,1-3,1.76c-2.42,0-3.81-1.75-3.81-4.08s1.5-4.11,3.86-4.11a3.44,3.44,0,0,1,3,1.71s0-1.2,0-1.83V41.69H153V52.54Zm-5.6-3.92c0,1.75,1,3,2.72,3a2.83,2.83,0,0,0,2.85-3,2.7,2.7,0,0,0-2.85-3A2.77,2.77,0,0,0,146.23,48.62Z"/><path class="cls-5" d="M156.18,49A2.52,2.52,0,0,0,159,51.61a2.65,2.65,0,0,0,2.64-1.7l1.12.29A4,4,0,0,1,155,48.65a3.86,3.86,0,0,1,4-4.11c2.69,0,3.91,1.81,3.91,4.4Zm0-.8h5.52A2.52,2.52,0,0,0,159,45.64,2.63,2.63,0,0,0,156.18,48.16Z"/><path class="cls-5" d="M169.36,51c0,.61,0,1.17,0,1.83v2.46h-1.2V44.73h1.2v.72c0,.29,0,.86,0,.86a3.47,3.47,0,0,1,3-1.78c2.43,0,3.83,1.71,3.83,4.1s-1.47,4.1-3.87,4.1A3.19,3.19,0,0,1,169.36,51Zm.06-2.38c0,1.86.94,3.06,2.82,3.06a2.73,2.73,0,0,0,2.72-3,2.73,2.73,0,0,0-2.71-3A2.77,2.77,0,0,0,169.42,48.6Z"/><path class="cls-5" d="M182.2,45.72c-2.32,0-2.8,1.87-2.8,3.71v3.11h-1.23V44.73h1.22c0,.69,0,1.33-.06,2a3.05,3.05,0,0,1,2.88-2.14Z"/><path class="cls-5" d="M184.13,49a2.52,2.52,0,0,0,2.79,2.66,2.65,2.65,0,0,0,2.64-1.7l1.12.29a4,4,0,0,1-7.76-1.55,3.86,3.86,0,0,1,4-4.11c2.69,0,3.91,1.81,3.91,4.4Zm0-.8h5.52a2.52,2.52,0,0,0-2.74-2.51A2.63,2.63,0,0,0,184.13,48.16Z"/><path class="cls-5" d="M192.32,50.08l1.25,0c0,1.07.82,1.7,2.29,1.7.94,0,2-.43,2-1.38,0-2-5.39-.29-5.39-3.52,0-1.42,1.52-2.29,3.14-2.29,2.21,0,3.27,1,3.39,2.59-.42,0-.83.06-1.25.08-.08-1.06-.8-1.63-2.18-1.63-1,0-1.92.5-1.92,1.31,0,1.94,5.43.32,5.43,3.46,0,1.62-1.66,2.34-3.33,2.34C193.54,52.69,192.4,51.74,192.32,50.08Z"/><path class="cls-5" d="M201.14,42.27a.61.61,0,0,1,.64-.62.6.6,0,0,1,.62.62V43a.59.59,0,0,1-.62.61.6.6,0,0,1-.64-.61Zm0,10.28V44.73h1.23v7.81Z"/><path class="cls-5" d="M204.28,48.64a4.06,4.06,0,1,1,8.12,0,4.06,4.06,0,1,1-8.12,0Zm1.18,0a2.75,2.75,0,0,0,2.86,3,2.79,2.79,0,0,0,2.88-3,2.88,2.88,0,1,0-5.75,0ZM210,40.71c.27.29.51.59.77.88l-2.66,2.3c-.22-.24-.43-.5-.64-.74Z"/><path class="cls-5" d="M220.27,52.54v-5c0-1.22-.8-1.94-2.19-1.94a2.37,2.37,0,0,0-2.5,2.43v4.5h-1.23V44.73h1.22c0,.46,0,.93,0,1.39l0,0a3,3,0,0,1,2.83-1.6c1.89,0,3.11,1.1,3.11,2.71v5.3Z"/><path class="cls-5" d="M227.83,49a2.52,2.52,0,0,0,2.79,2.66,2.65,2.65,0,0,0,2.64-1.7l1.12.29a4,4,0,0,1-7.76-1.55,3.86,3.86,0,0,1,4-4.11c2.69,0,3.91,1.81,3.91,4.4Zm0-.8h5.52a2.52,2.52,0,0,0-2.74-2.51A2.63,2.63,0,0,0,227.83,48.16Z"/><path class="cls-5" d="M242.38,52.54v-5c0-1.22-.8-1.94-2.19-1.94a2.37,2.37,0,0,0-2.5,2.43v4.5h-1.23V44.73h1.22c0,.46,0,.93,0,1.39l0,0a3,3,0,0,1,2.83-1.6c1.89,0,3.11,1.1,3.11,2.71v5.3Z"/><path class="cls-5" d="M249.94,49a2.52,2.52,0,0,0,2.79,2.66,2.65,2.65,0,0,0,2.64-1.7l1.12.29a4,4,0,0,1-7.76-1.55,3.86,3.86,0,0,1,4-4.11c2.69,0,3.91,1.81,3.91,4.4Zm0-.8h5.52a2.52,2.52,0,0,0-2.74-2.51A2.63,2.63,0,0,0,249.94,48.16Z"/><path class="cls-5" d="M258.57,52.54V41.69h1.23V52.54Z"/><path class="cls-5" d="M266.24,49A2.52,2.52,0,0,0,269,51.61a2.65,2.65,0,0,0,2.64-1.7l1.12.29A4,4,0,0,1,265,48.65a3.86,3.86,0,0,1,4-4.11c2.69,0,3.91,1.81,3.91,4.4Zm0-.8h5.52A2.52,2.52,0,0,0,269,45.64,2.63,2.63,0,0,0,266.24,48.16Z"/><path class="cls-5" d="M280.18,52.54l-2.66-3.2-2.58,3.2h-1.58c1.12-1.33,2.26-2.67,3.36-4-1-1.26-2-2.54-3.07-3.81h1.57c.77,1,1.55,2,2.32,3l2.35-3h1.57c-1,1.25-2.08,2.51-3.14,3.76l3.44,4Z"/><path class="cls-5" d="M285.31,45.75V51c0,.37.22.67.88.67a2.23,2.23,0,0,0,.91-.19v.91a3,3,0,0,1-1.5.35,1.36,1.36,0,0,1-1.52-1.31V45.75h-1.5v-1h1.5v-2h1.23v2h1.79v1Z"/><path class="cls-5" d="M288.75,42.27a.61.61,0,0,1,.64-.62.6.6,0,0,1,.62.62V43a.59.59,0,0,1-.62.61.6.6,0,0,1-.64-.61Zm0,10.28V44.73H290v7.81Z"/><path class="cls-5" d="M298.3,52.54v-5c0-1.22-.8-1.94-2.19-1.94a2.37,2.37,0,0,0-2.5,2.43v4.5h-1.23V44.73h1.22c0,.46,0,.93,0,1.39l0,0a3,3,0,0,1,2.83-1.6c1.89,0,3.11,1.1,3.11,2.71v5.3Z"/><path class="cls-5" d="M303.67,45.75V51c0,.37.22.67.88.67a2.23,2.23,0,0,0,.91-.19v.91a3,3,0,0,1-1.5.35,1.36,1.36,0,0,1-1.52-1.31V45.75h-1.5v-1h1.5v-2h1.23v2h1.79v1Z"/><path class="cls-5" d="M306.47,48.64a4.06,4.06,0,1,1,8.12,0,4.06,4.06,0,1,1-8.12,0Zm1.18,0a2.75,2.75,0,0,0,2.86,3,2.79,2.79,0,0,0,2.88-3,2.88,2.88,0,1,0-5.75,0Z"/><path class="cls-5" d="M320.57,45.72c-2.32,0-2.8,1.87-2.8,3.71v3.11h-1.23V44.73h1.22c0,.69,0,1.33-.06,2a3.05,3.05,0,0,1,2.88-2.14Z"/><path class="cls-5" d="M321,52.54V50.81h1.31v1.73Z"/><path class="cls-5" d="M27.74,70.54V59.69H29V70.54Z"/><path class="cls-5" d="M37.53,70.54v-5c0-1.22-.8-1.94-2.19-1.94A2.37,2.37,0,0,0,32.84,66v4.5H31.61V62.73h1.22c0,.46,0,.93,0,1.39l0,0a3,3,0,0,1,2.83-1.6c1.89,0,3.11,1.1,3.11,2.71v5.3Z"/><path class="cls-5" d="M47.64,70.54v-1.6a3.36,3.36,0,0,1-3,1.76c-2.42,0-3.81-1.75-3.81-4.08s1.5-4.11,3.86-4.11a3.44,3.44,0,0,1,3,1.71s0-1.2,0-1.83V59.69h1.22V70.54ZM42,66.62c0,1.75,1,3,2.72,3a2.83,2.83,0,0,0,2.85-3,2.7,2.7,0,0,0-2.85-3A2.77,2.77,0,0,0,42,66.62Z"/><path class="cls-5" d="M51.44,60.27a.61.61,0,0,1,.64-.62.6.6,0,0,1,.62.62V61a.59.59,0,0,1-.62.61.6.6,0,0,1-.64-.61Zm0,10.28V62.73h1.23v7.81Z"/><path class="cls-5" d="M54.81,66.72a3.88,3.88,0,0,1,4.13-4.18,3.37,3.37,0,0,1,3.55,2.56l-1.12.34a2.28,2.28,0,0,0-2.5-1.79A2.77,2.77,0,0,0,56,66.72a2.63,2.63,0,0,0,2.77,2.9,2.92,2.92,0,0,0,2.71-1.82l1.09.24a3.59,3.59,0,0,1-3.78,2.66A3.73,3.73,0,0,1,54.81,66.72Z"/><path class="cls-5" d="M71,70.54V68.93a3.14,3.14,0,0,1-3,1.76,3.74,3.74,0,0,1-3.86-4,3.82,3.82,0,0,1,4-4.11A3.38,3.38,0,0,1,71,64.25s0-1,0-1.52h1.2v7.81Zm-5.62-3.89a2.68,2.68,0,0,0,2.72,3,2.79,2.79,0,0,0,2.85-3,2.69,2.69,0,0,0-2.85-3A2.77,2.77,0,0,0,65.37,66.65Z"/><path class="cls-5" d="M77.21,66.72a3.88,3.88,0,0,1,4.13-4.18,3.37,3.37,0,0,1,3.55,2.56l-1.12.34a2.28,2.28,0,0,0-2.5-1.79,2.77,2.77,0,0,0-2.87,3.07,2.63,2.63,0,0,0,2.77,2.9,2.92,2.92,0,0,0,2.71-1.82L85,68a3.59,3.59,0,0,1-3.78,2.66A3.73,3.73,0,0,1,77.21,66.72Z"/><path class="cls-5" d="M92.87,70.54l0-1.47h0A2.88,2.88,0,0,1,90,70.7a2.79,2.79,0,0,1-3.12-3v-5h1.23V67.6a1.9,1.9,0,0,0,2.16,2A2.4,2.4,0,0,0,92.79,67V62.73H94v7.81Z"/><path class="cls-5" d="M102.95,70.54V68.93a3.14,3.14,0,0,1-3,1.76,3.74,3.74,0,0,1-3.86-4,3.82,3.82,0,0,1,4-4.11A3.38,3.38,0,0,1,103,64.25s0-1,0-1.52h1.2v7.81Zm-5.62-3.89a2.68,2.68,0,0,0,2.72,3,2.79,2.79,0,0,0,2.85-3,2.69,2.69,0,0,0-2.85-3A2.77,2.77,0,0,0,97.33,66.65Z"/><path class="cls-5" d="M112.56,70.54v-5c0-1.22-.8-1.94-2.19-1.94a2.37,2.37,0,0,0-2.5,2.43v4.5h-1.23V62.73h1.22c0,.46,0,.93,0,1.39l0,0a3,3,0,0,1,2.83-1.6c1.89,0,3.11,1.1,3.11,2.71v5.3Z"/><path class="cls-5" d="M119.42,70.54V59.69h1.23V70.54Z"/><path class="cls-5" d="M123.2,70.54V59.69h1.23V70.54Z"/><path class="cls-5" d="M127.76,67a2.52,2.52,0,0,0,2.79,2.66,2.65,2.65,0,0,0,2.64-1.7l1.12.29a4,4,0,0,1-7.76-1.55,3.86,3.86,0,0,1,4-4.11c2.69,0,3.91,1.81,3.91,4.4Zm0-.8h5.52a2.52,2.52,0,0,0-2.74-2.51A2.63,2.63,0,0,0,127.76,66.16Z"/><path class="cls-5" d="M142.52,70.54v-5c0-1.22-.8-1.94-2.19-1.94a2.37,2.37,0,0,0-2.5,2.43v4.5H136.6V62.73h1.22c0,.46,0,.93,0,1.39l0,0a3,3,0,0,1,2.83-1.6c1.89,0,3.11,1.1,3.11,2.71v5.3Z"/><path class="cls-5" d="M145.79,66.64a4.06,4.06,0,1,1,4,4.07A3.85,3.85,0,0,1,145.79,66.64Zm1.18,0a2.75,2.75,0,0,0,2.86,3,2.79,2.79,0,0,0,2.88-3,2.88,2.88,0,1,0-5.75,0Z"/><path class="cls-5" d="M158.64,66.64a4.06,4.06,0,1,1,4,4.07A3.85,3.85,0,0,1,158.64,66.64Zm1.18,0a2.75,2.75,0,0,0,2.86,3,2.79,2.79,0,0,0,2.88-3,2.88,2.88,0,1,0-5.75,0Z"/><path class="cls-5" d="M175.6,70.54h-1.14l-3.68-7.81h1.46l2.83,6.48,2.59-6.48H179Z"/><path class="cls-5" d="M186.62,70.54V68.93a3.14,3.14,0,0,1-3,1.76,3.74,3.74,0,0,1-3.86-4,3.82,3.82,0,0,1,4-4.11,3.38,3.38,0,0,1,2.95,1.71s0-1,0-1.52h1.2v7.81ZM181,66.65a2.68,2.68,0,0,0,2.72,3,2.79,2.79,0,0,0,2.85-3,2.69,2.69,0,0,0-2.85-3A2.77,2.77,0,0,0,181,66.65Z"/><path class="cls-5" d="M189.84,66.72A3.88,3.88,0,0,1,194,62.54a3.37,3.37,0,0,1,3.55,2.56l-1.12.34a2.28,2.28,0,0,0-2.5-1.79A2.77,2.77,0,0,0,191,66.72a2.63,2.63,0,0,0,2.77,2.9,2.92,2.92,0,0,0,2.71-1.82l1.09.24a3.59,3.59,0,0,1-3.78,2.66A3.73,3.73,0,0,1,189.84,66.72Z"/><path class="cls-5" d="M201.79,58.71c.27.29.51.59.77.88l-2.66,2.3c-.22-.24-.43-.5-.64-.74Zm-2.34,11.83V62.73h1.23v7.81Z"/><path class="cls-5" d="M202.55,66.64a4.06,4.06,0,1,1,4,4.07A3.85,3.85,0,0,1,202.55,66.64Zm1.18,0a2.75,2.75,0,0,0,2.86,3,2.79,2.79,0,0,0,2.88-3,2.88,2.88,0,1,0-5.75,0Z"/><path class="cls-5" d="M216.59,67a2.52,2.52,0,0,0,2.79,2.66,2.65,2.65,0,0,0,2.64-1.7l1.12.29a4,4,0,0,1-7.76-1.55,3.86,3.86,0,0,1,4-4.11c2.69,0,3.91,1.81,3.91,4.4Zm0-.8h5.52a2.52,2.52,0,0,0-2.74-2.51A2.63,2.63,0,0,0,216.59,66.16Z"/><path class="cls-5" d="M225,68.08l1.25,0c0,1.07.82,1.7,2.29,1.7.94,0,2-.43,2-1.38,0-2-5.39-.29-5.39-3.52,0-1.42,1.52-2.29,3.14-2.29,2.21,0,3.27,1,3.39,2.59-.42,0-.83.06-1.25.08-.08-1.06-.8-1.63-2.18-1.63-1,0-1.92.5-1.92,1.31,0,1.94,5.43.32,5.43,3.46,0,1.62-1.66,2.34-3.33,2.34C226.21,70.69,225.07,69.74,225,68.08Z"/><path class="cls-5" d="M236,63.75V69c0,.37.22.67.88.67a2.23,2.23,0,0,0,.91-.19v.91a3,3,0,0,1-1.5.35,1.36,1.36,0,0,1-1.52-1.31V63.75h-1.5v-1h1.5v-2H236v2h1.79v1Z"/><path class="cls-5" d="M245.83,70.54V68.93a3.14,3.14,0,0,1-3,1.76,3.74,3.74,0,0,1-3.86-4,3.82,3.82,0,0,1,4-4.11,3.38,3.38,0,0,1,2.95,1.71s0-1,0-1.52H247v7.81Zm-5.62-3.89a2.68,2.68,0,0,0,2.72,3,2.79,2.79,0,0,0,2.85-3,2.69,2.69,0,0,0-2.85-3A2.77,2.77,0,0,0,240.21,66.65Zm4.61-7.94c.27.29.51.59.77.88l-2.66,2.3c-.22-.24-.43-.5-.64-.74Z"/><path class="cls-5" d="M249.69,70.54V68.81H251v1.73Z"/><path class="cls-5" d="M265.46,62.41A3.92,3.92,0,0,0,262,60.73a4.16,4.16,0,0,0-4.43,4.4,4.11,4.11,0,0,0,4.31,4.29,4,4,0,0,0,3.52-1.58l1.12.53a5.48,5.48,0,0,1-4.58,2.32c-3.55,0-5.67-2.27-5.67-5.51,0-3.49,2.34-5.63,5.76-5.63a5.23,5.23,0,0,1,4.61,2.4Z"/><path class="cls-5" d="M268,66.64a4.06,4.06,0,1,1,4,4.07A3.85,3.85,0,0,1,268,66.64Zm1.18,0a2.75,2.75,0,0,0,2.86,3,2.79,2.79,0,0,0,2.88-3,2.88,2.88,0,1,0-5.75,0Z"/><path class="cls-5" d="M284.21,70.54v-5c0-1.22-.8-1.94-2.19-1.94a2.37,2.37,0,0,0-2.5,2.43v4.5h-1.23V62.73h1.22c0,.46,0,.93,0,1.39l0,0a3,3,0,0,1,2.83-1.6c1.89,0,3.11,1.1,3.11,2.71v5.3Z"/><path class="cls-5" d="M289.78,63.75V69c0,.37.22.67.88.67a2.23,2.23,0,0,0,.91-.19v.91a3,3,0,0,1-1.5.35,1.36,1.36,0,0,1-1.52-1.31V63.75H287v-1h1.5v-2h1.23v2h1.79v1Z"/><path class="cls-5" d="M293.44,60.27a.61.61,0,0,1,.64-.62.6.6,0,0,1,.62.62V61a.59.59,0,0,1-.62.61.6.6,0,0,1-.64-.61Zm0,10.28V62.73h1.23v7.81Z"/><path class="cls-5" d="M298,67a2.52,2.52,0,0,0,2.79,2.66,2.65,2.65,0,0,0,2.64-1.7l1.12.29a4,4,0,0,1-7.76-1.55,3.86,3.86,0,0,1,4-4.11c2.69,0,3.91,1.81,3.91,4.4Zm0-.8h5.52a2.52,2.52,0,0,0-2.74-2.51A2.63,2.63,0,0,0,298,66.16Z"/><path class="cls-5" d="M312.78,70.54v-5c0-1.22-.8-1.94-2.19-1.94a2.37,2.37,0,0,0-2.5,2.43v4.5h-1.23V62.73h1.22c0,.46,0,.93,0,1.39l0,0a3,3,0,0,1,2.83-1.6c1.89,0,3.11,1.1,3.11,2.71v5.3Z"/><path class="cls-5" d="M317.26,67A2.52,2.52,0,0,0,320,69.61a2.65,2.65,0,0,0,2.64-1.7l1.12.29A4,4,0,0,1,316,66.65a3.86,3.86,0,0,1,4-4.11c2.69,0,3.91,1.81,3.91,4.4Zm0-.8h5.52A2.52,2.52,0,0,0,320,63.64,2.63,2.63,0,0,0,317.26,66.16Z"/><path class="cls-5" d="M331.18,63.75V69c0,.37.22.67.88.67a2.23,2.23,0,0,0,.91-.19v.91a3,3,0,0,1-1.5.35,1.36,1.36,0,0,1-1.52-1.31V63.75h-1.5v-1h1.5v-2h1.23v2H333v1Z"/><path class="cls-5" d="M338.89,63.72c-2.32,0-2.8,1.87-2.8,3.71v3.11h-1.23V62.73h1.22c0,.69,0,1.33-.06,2a3.05,3.05,0,0,1,2.88-2.14Z"/><path class="cls-5" d="M341,67a2.52,2.52,0,0,0,2.79,2.66,2.65,2.65,0,0,0,2.64-1.7l1.12.29a4,4,0,0,1-7.76-1.55,3.86,3.86,0,0,1,4-4.11c2.69,0,3.91,1.81,3.91,4.4Zm0-.8h5.52a2.52,2.52,0,0,0-2.74-2.51A2.63,2.63,0,0,0,341,66.16Z"/><path class="cls-5" d="M349.43,68.08l1.25,0c0,1.07.82,1.7,2.29,1.7.94,0,2-.43,2-1.38,0-2-5.39-.29-5.39-3.52,0-1.42,1.52-2.29,3.14-2.29,2.21,0,3.27,1,3.39,2.59-.42,0-.83.06-1.25.08-.08-1.06-.8-1.63-2.18-1.63-1,0-1.92.5-1.92,1.31,0,1.94,5.43.32,5.43,3.46,0,1.62-1.66,2.34-3.33,2.34C350.65,70.69,349.51,69.74,349.43,68.08Z"/><path class="cls-5" d="M27.52,86.08l1.25,0c0,1.07.82,1.7,2.29,1.7.94,0,2-.43,2-1.38,0-2-5.39-.29-5.39-3.52,0-1.42,1.52-2.29,3.14-2.29,2.21,0,3.27,1,3.39,2.59-.42,0-.83.06-1.25.08-.08-1.06-.8-1.63-2.18-1.63-1,0-1.92.5-1.92,1.31,0,1.94,5.43.32,5.43,3.46,0,1.62-1.66,2.34-3.33,2.34C28.74,88.69,27.6,87.74,27.52,86.08Z"/><path class="cls-5" d="M37.27,85a2.52,2.52,0,0,0,2.79,2.66,2.65,2.65,0,0,0,2.64-1.7l1.12.29A3.69,3.69,0,0,1,40,88.69a3.72,3.72,0,0,1-4-4,3.86,3.86,0,0,1,4-4.11c2.69,0,3.91,1.81,3.91,4.4Zm0-.8h5.52a2.52,2.52,0,0,0-2.74-2.51A2.63,2.63,0,0,0,37.27,84.16Z"/><path class="cls-5" d="M45.68,84.72a3.88,3.88,0,0,1,4.13-4.18,3.37,3.37,0,0,1,3.55,2.56l-1.12.34a2.28,2.28,0,0,0-2.5-1.79,2.77,2.77,0,0,0-2.87,3.07,2.63,2.63,0,0,0,2.77,2.9,2.92,2.92,0,0,0,2.71-1.82l1.09.24a3.59,3.59,0,0,1-3.78,2.66A3.73,3.73,0,0,1,45.68,84.72Z"/><path class="cls-5" d="M55,84.72a3.88,3.88,0,0,1,4.13-4.18,3.37,3.37,0,0,1,3.55,2.56l-1.12.34a2.28,2.28,0,0,0-2.5-1.79,2.77,2.77,0,0,0-2.87,3.07A2.63,2.63,0,0,0,59,87.61a2.92,2.92,0,0,0,2.71-1.82l1.09.24A3.59,3.59,0,0,1,59,88.69,3.73,3.73,0,0,1,55,84.72Z"/><path class="cls-5" d="M64.78,78.27a.61.61,0,0,1,.64-.62.6.6,0,0,1,.62.62V79a.59.59,0,0,1-.62.61.6.6,0,0,1-.64-.61Zm0,10.28V80.73H66v7.81Z"/><path class="cls-5" d="M68.13,84.64a4.06,4.06,0,1,1,4,4.07A3.85,3.85,0,0,1,68.13,84.64Zm1.18,0a2.75,2.75,0,0,0,2.86,3,2.79,2.79,0,0,0,2.88-3,2.88,2.88,0,1,0-5.75,0Z"/><path class="cls-5" d="M84.32,88.54v-5c0-1.22-.8-1.94-2.19-1.94A2.37,2.37,0,0,0,79.63,84v4.5H78.4V80.73h1.22c0,.46,0,.93,0,1.39l0,0a3,3,0,0,1,2.83-1.6c1.89,0,3.11,1.1,3.11,2.71v5.3Z"/><path class="cls-5" d="M88.8,85a2.52,2.52,0,0,0,2.79,2.66,2.65,2.65,0,0,0,2.64-1.7l1.12.29a4,4,0,0,1-7.76-1.55,3.86,3.86,0,0,1,4-4.11c2.69,0,3.91,1.81,3.91,4.4Zm0-.8h5.52a2.52,2.52,0,0,0-2.74-2.51A2.63,2.63,0,0,0,88.8,84.16Z"/><path class="cls-5" d="M97.2,86.08l1.25,0c0,1.07.82,1.7,2.29,1.7.94,0,2-.43,2-1.38,0-2-5.39-.29-5.39-3.52,0-1.42,1.52-2.29,3.14-2.29,2.21,0,3.27,1,3.39,2.59-.42,0-.83.06-1.25.08-.08-1.06-.8-1.63-2.18-1.63-1,0-1.92.5-1.92,1.31,0,1.94,5.43.32,5.43,3.46,0,1.62-1.66,2.34-3.33,2.34C98.42,88.69,97.28,87.74,97.2,86.08Z"/><path class="cls-5" d="M115.75,88.54V86.93a3.14,3.14,0,0,1-3,1.76,3.74,3.74,0,0,1-3.86-4,3.82,3.82,0,0,1,4-4.11,3.38,3.38,0,0,1,2.95,1.71s0-1,0-1.52H117v7.81Zm-5.62-3.89a2.68,2.68,0,0,0,2.72,3,2.79,2.79,0,0,0,2.85-3,2.69,2.69,0,0,0-2.85-3A2.77,2.77,0,0,0,110.13,84.65Z"/><path class="cls-5" d="M122.11,86.08l1.25,0c0,1.07.82,1.7,2.29,1.7.94,0,2-.43,2-1.38,0-2-5.39-.29-5.39-3.52,0-1.42,1.52-2.29,3.14-2.29,2.21,0,3.27,1,3.39,2.59-.42,0-.83.06-1.25.08-.08-1.06-.8-1.63-2.18-1.63-1,0-1.92.5-1.92,1.31,0,1.94,5.43.32,5.43,3.46,0,1.62-1.66,2.34-3.33,2.34C123.33,88.69,122.19,87.74,122.11,86.08Z"/><path class="cls-5" d="M137.49,88.54V86.93a3.14,3.14,0,0,1-3,1.76,3.74,3.74,0,0,1-3.86-4,3.82,3.82,0,0,1,4-4.11,3.38,3.38,0,0,1,2.95,1.71s0-1,0-1.52h1.2v7.81Zm-5.62-3.89a2.68,2.68,0,0,0,2.72,3,2.79,2.79,0,0,0,2.85-3,2.69,2.69,0,0,0-2.85-3A2.77,2.77,0,0,0,131.87,84.65Z"/><path class="cls-5" d="M142.38,86.94c0,.29,0,.54,0,.82s0,.53,0,.78h-1.2V77.69h1.2v3.49c0,.35,0,1,0,1a3.46,3.46,0,0,1,3.06-1.68c2.45,0,3.81,1.71,3.81,4.1a3.7,3.7,0,0,1-3.87,4A3.33,3.33,0,0,1,142.38,86.94Zm0-2.29a2.75,2.75,0,0,0,2.83,3,2.72,2.72,0,0,0,2.71-3,2.68,2.68,0,0,0-2.72-3C143.31,81.63,142.43,82.94,142.43,84.65Z"/><path class="cls-5" d="M152.12,85a2.52,2.52,0,0,0,2.79,2.66,2.65,2.65,0,0,0,2.64-1.7l1.12.29a4,4,0,0,1-7.76-1.55,3.86,3.86,0,0,1,4-4.11c2.69,0,3.91,1.81,3.91,4.4Zm0-.8h5.52a2.52,2.52,0,0,0-2.74-2.51A2.63,2.63,0,0,0,152.12,84.16Z"/><path class="cls-5" d="M165,81.72c-2.32,0-2.8,1.87-2.8,3.71v3.11H161V80.73h1.22c0,.69,0,1.33-.06,2A3.05,3.05,0,0,1,165,80.55Z"/><path class="cls-5" d="M166.65,82.48V80.73H168v1.75Zm0,6.07V86.81H168v1.73Z"/><path class="cls-5" d="M27.36,102.89v-1h5.25v1Z"/><path class="cls-5" d="M38.61,103a2.52,2.52,0,0,0,2.79,2.66,2.65,2.65,0,0,0,2.64-1.7l1.12.29a3.69,3.69,0,0,1-3.79,2.48,3.72,3.72,0,0,1-4-4,3.86,3.86,0,0,1,4-4.11c2.69,0,3.91,1.81,3.91,4.4Zm0-.8h5.52a2.52,2.52,0,0,0-2.74-2.51A2.63,2.63,0,0,0,38.61,102.16Z"/><path class="cls-5" d="M57.77,106.54v-5a1.69,1.69,0,0,0-1.87-1.94,2.08,2.08,0,0,0-2.16,2.08v4.85H52.5v-5a1.72,1.72,0,0,0-1.94-1.94,1.7,1.7,0,0,0-.77.19c-1.12.35-1.33,1.5-1.33,2.56v4.18H47.23V98.73h1.22c0,.46,0,.94,0,1.41h0A2.41,2.41,0,0,1,51,98.59a2.46,2.46,0,0,1,2.53,1.6,2.75,2.75,0,0,1,2.71-1.65,2.46,2.46,0,0,1,2.8,2.71v5.3Z"/><path class="cls-5" d="M62.52,105c0,.61,0,1.17,0,1.83v2.46h-1.2V98.73h1.2v.72c0,.29,0,.86,0,.86a3.47,3.47,0,0,1,3-1.78c2.43,0,3.83,1.71,3.83,4.1s-1.47,4.1-3.87,4.1A3.19,3.19,0,0,1,62.52,105Zm.06-2.38c0,1.86.94,3.06,2.82,3.06a3,3,0,0,0,0-6A2.77,2.77,0,0,0,62.58,102.6Z"/><path class="cls-5" d="M73.07,99.75V105c0,.37.22.67.88.67a2.23,2.23,0,0,0,.91-.19v.91a3,3,0,0,1-1.5.35,1.36,1.36,0,0,1-1.52-1.31V99.75h-1.5v-1h1.5v-2h1.23v2h1.79v1Z"/><path class="cls-5" d="M76.41,108.42c.13-.34.29-.67.42-1a5.56,5.56,0,0,0,2.9.91c1.82,0,2.77-.88,2.77-3.41a3,3,0,0,1-2.85,1.65c-1.87,0-3.15-1-3.15-3V98.73h1.23v4.75a1.94,1.94,0,0,0,2.21,2,2.33,2.33,0,0,0,2.45-2.58V98.73h1.25V105c0,2.59-1.31,4.42-3.86,4.42A6.16,6.16,0,0,1,76.41,108.42Z"/><path class="cls-5" d="M88.87,102.89v-1h5.25v1Z"/><path class="cls-5" d="M103,106.54h-1.14l-3.68-7.81h1.46l2.83,6.48,2.59-6.48h1.33Z"/><path class="cls-5" d="M113.85,106.54v-1.62a3.14,3.14,0,0,1-3,1.76,3.74,3.74,0,0,1-3.86-4,3.82,3.82,0,0,1,4-4.11,3.38,3.38,0,0,1,2.95,1.71s0-1,0-1.52h1.2v7.81Zm-5.62-3.89a2.68,2.68,0,0,0,2.72,3,2.79,2.79,0,0,0,2.85-3,2.69,2.69,0,0,0-2.85-3A2.77,2.77,0,0,0,108.23,102.65Z"/><path class="cls-5" d="M116.86,102.72A3.88,3.88,0,0,1,121,98.54a3.37,3.37,0,0,1,3.55,2.56l-1.12.34a2.28,2.28,0,0,0-2.5-1.79,2.77,2.77,0,0,0-2.87,3.07,2.63,2.63,0,0,0,2.77,2.9,2.92,2.92,0,0,0,2.71-1.82l1.09.24a3.59,3.59,0,0,1-3.78,2.66A3.73,3.73,0,0,1,116.86,102.72Z"/><path class="cls-5" d="M128.59,94.71c.27.29.51.59.77.88l-2.66,2.3c-.22-.24-.43-.5-.64-.74Zm-2.34,11.83V98.73h1.23v7.81Z"/><path class="cls-5" d="M129.15,102.64a4.06,4.06,0,1,1,4,4.07A3.85,3.85,0,0,1,129.15,102.64Zm1.18,0a2.75,2.75,0,0,0,2.86,3,2.79,2.79,0,0,0,2.88-3,2.88,2.88,0,1,0-5.75,0Z"/><path class="cls-5" d="M139.4,108.89l-1.17-.42c.26-.61.5-1.23.74-1.84a3.28,3.28,0,0,0,.14-1.3v-.53h1.33v.64a3.61,3.61,0,0,1-.21,1.44Z"/><path class="cls-5" d="M152.62,106.54v-1.6a3.36,3.36,0,0,1-3,1.76c-2.42,0-3.81-1.75-3.81-4.08s1.5-4.11,3.86-4.11a3.44,3.44,0,0,1,3,1.71s0-1.2,0-1.83V95.69h1.22v10.85Zm-5.6-3.92c0,1.75,1,3,2.72,3a2.83,2.83,0,0,0,2.85-3,2.7,2.7,0,0,0-2.85-3A2.77,2.77,0,0,0,147,102.62Z"/><path class="cls-5" d="M157,103a2.52,2.52,0,0,0,2.79,2.66,2.65,2.65,0,0,0,2.64-1.7l1.12.29a4,4,0,0,1-7.76-1.55,3.86,3.86,0,0,1,4-4.11c2.69,0,3.91,1.81,3.91,4.4Zm0-.8h5.52a2.52,2.52,0,0,0-2.74-2.51A2.63,2.63,0,0,0,157,102.16Z"/><path class="cls-5" d="M165.16,104.08l1.25,0c0,1.07.82,1.7,2.29,1.7.94,0,2-.43,2-1.38,0-2-5.39-.29-5.39-3.52,0-1.42,1.52-2.29,3.14-2.29,2.21,0,3.27,1,3.39,2.59-.42,0-.83.06-1.25.08-.08-1.06-.8-1.63-2.18-1.63-1,0-1.92.5-1.92,1.31,0,1.94,5.43.32,5.43,3.46,0,1.62-1.66,2.34-3.33,2.34C166.37,106.69,165.24,105.74,165.16,104.08Z"/><path class="cls-5" d="M173.49,102.72a3.88,3.88,0,0,1,4.13-4.18,3.37,3.37,0,0,1,3.55,2.56l-1.12.34a2.28,2.28,0,0,0-2.5-1.79,2.77,2.77,0,0,0-2.87,3.07,2.63,2.63,0,0,0,2.77,2.9,2.92,2.92,0,0,0,2.71-1.82l1.09.24a3.59,3.59,0,0,1-3.78,2.66A3.73,3.73,0,0,1,173.49,102.72Z"/><path class="cls-5" d="M189.46,106.54v-1.62a3.14,3.14,0,0,1-3,1.76,3.74,3.74,0,0,1-3.86-4,3.82,3.82,0,0,1,4-4.11,3.38,3.38,0,0,1,2.95,1.71s0-1,0-1.52h1.2v7.81Zm-5.62-3.89a2.68,2.68,0,0,0,2.72,3,2.79,2.79,0,0,0,2.85-3,2.69,2.69,0,0,0-2.85-3A2.77,2.77,0,0,0,183.84,102.65Z"/><path class="cls-5" d="M197,99.72c-2.32,0-2.8,1.87-2.8,3.71v3.11h-1.23V98.73h1.22c0,.69,0,1.33-.06,2A3.05,3.05,0,0,1,197,98.55Z"/><path class="cls-5" d="M198.65,107.39a5.19,5.19,0,0,0,2.88,1c1.78,0,3-.88,3-2.75v-.91a3.37,3.37,0,0,1-3,1.78,3.65,3.65,0,0,1-3.79-3.89,3.76,3.76,0,0,1,3.94-4,3.15,3.15,0,0,1,2.88,1.74s0-1,0-1.55h1.17v7c0,2.27-1.5,3.68-4,3.68a6.06,6.06,0,0,1-3.43-1.07C198.35,108,198.54,107.71,198.65,107.39Zm.34-4.83a2.62,2.62,0,0,0,2.66,2.85,2.68,2.68,0,0,0,2.77-2.82,2.72,2.72,0,1,0-5.43,0Z"/><path class="cls-5" d="M214.43,106.54v-1.62a3.14,3.14,0,0,1-3,1.76,3.74,3.74,0,0,1-3.86-4,3.82,3.82,0,0,1,4-4.11,3.38,3.38,0,0,1,2.95,1.71s0-1,0-1.52h1.2v7.81Zm-5.62-3.89a2.68,2.68,0,0,0,2.72,3,2.79,2.79,0,0,0,2.85-3,2.69,2.69,0,0,0-2.85-3A2.77,2.77,0,0,0,208.82,102.65Z"/><path class="cls-5" d="M224.31,106.54v-1.6a3.36,3.36,0,0,1-3,1.76c-2.42,0-3.81-1.75-3.81-4.08s1.5-4.11,3.86-4.11a3.44,3.44,0,0,1,3,1.71s0-1.2,0-1.83V95.69h1.22v10.85Zm-5.6-3.92c0,1.75,1,3,2.72,3a2.83,2.83,0,0,0,2.85-3,2.7,2.7,0,0,0-2.85-3A2.77,2.77,0,0,0,218.71,102.62Z"/><path class="cls-5" d="M227.45,102.64a4.06,4.06,0,1,1,4,4.07A3.85,3.85,0,0,1,227.45,102.64Zm1.18,0a2.75,2.75,0,0,0,2.86,3,2.79,2.79,0,0,0,2.88-3,2.88,2.88,0,1,0-5.75,0Z"/><path class="cls-5" d="M27.36,120.89v-1h5.25v1Z"/><path class="cls-5" d="M39.57,116.73h2.08v1H39.57v6.79H38.33v-6.79H37.21v-1h1.12v-.34c0-1.63,1.12-2.82,3.19-2.82a8.33,8.33,0,0,1,1,.08v1.06a8.25,8.25,0,0,0-1-.06c-1.33,0-2,.69-2,1.81Z"/><path class="cls-5" d="M49.16,124.54l0-1.47h0a2.88,2.88,0,0,1-2.8,1.63,2.79,2.79,0,0,1-3.12-3v-5h1.23v4.87a1.9,1.9,0,0,0,2.16,2A2.4,2.4,0,0,0,49.08,121v-4.31h1.23v7.81Z"/><path class="cls-5" d="M52.64,124.54V113.69h1.23v10.85Z"/><path class="cls-5" d="M56.21,124.54V113.69h1.23v10.85Z"/><path class="cls-5" d="M62.66,120.89v-1h5.25v1Z"/><path class="cls-5" d="M73.2,124.54V113.69h1.23v10.85Z"/><path class="cls-5" d="M76.78,124.54V113.69H78v10.85Z"/><path class="cls-5" d="M81.13,121a2.52,2.52,0,0,0,2.79,2.66,2.65,2.65,0,0,0,2.64-1.7l1.12.29a4,4,0,0,1-7.76-1.55,3.86,3.86,0,0,1,4-4.11c2.69,0,3.91,1.81,3.91,4.4Zm0-.8h5.52a2.52,2.52,0,0,0-2.74-2.51A2.63,2.63,0,0,0,81.13,120.16Z"/><path class="cls-5" d="M95.68,124.54v-5c0-1.22-.8-1.94-2.19-1.94A2.37,2.37,0,0,0,91,120v4.5H89.76v-7.81H91c0,.46,0,.93,0,1.39l0,0a3,3,0,0,1,2.83-1.6c1.89,0,3.11,1.1,3.11,2.71v5.3Z"/><path class="cls-5" d="M98.74,120.64a4.06,4.06,0,1,1,4,4.07A3.85,3.85,0,0,1,98.74,120.64Zm1.18,0a2.75,2.75,0,0,0,2.86,3,2.79,2.79,0,0,0,2.88-3,2.88,2.88,0,1,0-5.75,0Z"/><path class="cls-5" d="M109,126.89l-1.17-.42c.26-.61.5-1.23.74-1.84a3.28,3.28,0,0,0,.14-1.3v-.53H110v.64a3.61,3.61,0,0,1-.21,1.44Z"/><path class="cls-5" d="M115.38,120.72a3.88,3.88,0,0,1,4.13-4.18,3.37,3.37,0,0,1,3.55,2.56l-1.12.34a2.28,2.28,0,0,0-2.5-1.79,2.77,2.77,0,0,0-2.87,3.07,2.63,2.63,0,0,0,2.77,2.9,2.92,2.92,0,0,0,2.71-1.82l1.09.24a3.59,3.59,0,0,1-3.78,2.66A3.73,3.73,0,0,1,115.38,120.72Z"/><path class="cls-5" d="M131.35,124.54v-1.62a3.14,3.14,0,0,1-3,1.76,3.74,3.74,0,0,1-3.86-4,3.82,3.82,0,0,1,4-4.11,3.38,3.38,0,0,1,2.95,1.71s0-1,0-1.52h1.2v7.81Zm-5.62-3.89a2.68,2.68,0,0,0,2.72,3,2.79,2.79,0,0,0,2.85-3,2.69,2.69,0,0,0-2.85-3A2.77,2.77,0,0,0,125.73,120.65Z"/><path class="cls-5" d="M138.86,117.72c-2.32,0-2.8,1.87-2.8,3.71v3.11h-1.23v-7.81H136c0,.69,0,1.33-.06,2a3.05,3.05,0,0,1,2.88-2.14Z"/><path class="cls-5" d="M140.54,125.39a5.19,5.19,0,0,0,2.88,1c1.78,0,3-.88,3-2.75v-.91a3.37,3.37,0,0,1-3,1.78,3.65,3.65,0,0,1-3.79-3.89,3.76,3.76,0,0,1,3.94-4,3.15,3.15,0,0,1,2.88,1.74s0-1,0-1.55h1.17v7c0,2.27-1.5,3.68-4,3.68a6.06,6.06,0,0,1-3.43-1.07C140.24,126,140.43,125.71,140.54,125.39Zm.34-4.83a2.62,2.62,0,0,0,2.66,2.85,2.68,2.68,0,0,0,2.77-2.82,2.72,2.72,0,1,0-5.43,0Z"/><path class="cls-5" d="M156.33,124.54v-1.62a3.14,3.14,0,0,1-3,1.76,3.74,3.74,0,0,1-3.86-4,3.82,3.82,0,0,1,4-4.11,3.38,3.38,0,0,1,2.95,1.71s0-1,0-1.52h1.2v7.81Zm-5.62-3.89a2.68,2.68,0,0,0,2.72,3,2.79,2.79,0,0,0,2.85-3,2.69,2.69,0,0,0-2.85-3A2.77,2.77,0,0,0,150.71,120.65Z"/><path class="cls-5" d="M166.2,124.54v-1.6a3.36,3.36,0,0,1-3,1.76c-2.42,0-3.81-1.75-3.81-4.08s1.5-4.11,3.86-4.11a3.44,3.44,0,0,1,3,1.71s0-1.2,0-1.83v-2.71h1.22v10.85Zm-5.6-3.92c0,1.75,1,3,2.72,3a2.83,2.83,0,0,0,2.85-3,2.7,2.7,0,0,0-2.85-3A2.77,2.77,0,0,0,160.6,120.62Z"/><path class="cls-5" d="M169.34,120.64a4.06,4.06,0,1,1,4,4.07A3.85,3.85,0,0,1,169.34,120.64Zm1.18,0a2.75,2.75,0,0,0,2.86,3,2.79,2.79,0,0,0,2.88-3,2.88,2.88,0,1,0-5.75,0Z"/><path class="cls-5" d="M27.36,138.89v-1h5.25v1Z"/><path class="cls-5" d="M37.41,138.64a3.85,3.85,0,0,1,4-4.1,4.08,4.08,0,0,1,0,8.16A3.86,3.86,0,0,1,37.41,138.64Zm1.18,0a2.75,2.75,0,0,0,2.86,3,2.79,2.79,0,0,0,2.88-3,2.88,2.88,0,1,0-5.75,0Z"/><path class="cls-5" d="M50.89,142.54H49.75l-3.68-7.81h1.46l2.83,6.48L53,134.73h1.33Z"/><path class="cls-5" d="M56.06,139a2.52,2.52,0,0,0,2.79,2.66,2.65,2.65,0,0,0,2.64-1.7l1.12.29a4,4,0,0,1-7.76-1.55,3.86,3.86,0,0,1,4-4.11c2.69,0,3.91,1.81,3.91,4.4Zm0-.8h5.52a2.52,2.52,0,0,0-2.74-2.51A2.63,2.63,0,0,0,56.06,138.16Z"/><path class="cls-5" d="M68.72,135.72c-2.32,0-2.8,1.87-2.8,3.71v3.11H64.69v-7.81H65.9c0,.69,0,1.33-.06,2a3.05,3.05,0,0,1,2.88-2.14Z"/><path class="cls-5" d="M69.44,138.72a3.88,3.88,0,0,1,4.13-4.18,3.37,3.37,0,0,1,3.55,2.56l-1.12.34a2.28,2.28,0,0,0-2.5-1.79,2.77,2.77,0,0,0-2.87,3.07,2.63,2.63,0,0,0,2.77,2.9,2.92,2.92,0,0,0,2.71-1.82l1.09.24a3.59,3.59,0,0,1-3.78,2.66A3.73,3.73,0,0,1,69.44,138.72Z"/><path class="cls-5" d="M84.93,142.54v-5a2,2,0,0,0-2.19-2c-1.84,0-2.5,1.22-2.5,2.85v4.08H79V131.69h1.22v3.17c0,.66,0,.69,0,1.25l0,0a3,3,0,0,1,2.83-1.58,2.8,2.8,0,0,1,3.11,2.74v5.27Z"/><path class="cls-5" d="M94.83,142.54v-1.62a3.14,3.14,0,0,1-3,1.76,3.74,3.74,0,0,1-3.86-4,3.82,3.82,0,0,1,4-4.11,3.38,3.38,0,0,1,2.95,1.71s0-1,0-1.52h1.2v7.81Zm-5.62-3.89a2.68,2.68,0,0,0,2.72,3,2.79,2.79,0,0,0,2.85-3,2.69,2.69,0,0,0-2.85-3A2.77,2.77,0,0,0,89.22,138.65Z"/><path class="cls-5" d="M102.35,135.72c-2.32,0-2.8,1.87-2.8,3.71v3.11H98.31v-7.81h1.22c0,.69,0,1.33-.06,2a3.05,3.05,0,0,1,2.88-2.14Z"/><path class="cls-5" d="M104,143.39a5.19,5.19,0,0,0,2.88,1c1.78,0,3-.88,3-2.75v-.91a3.37,3.37,0,0,1-3,1.78,3.65,3.65,0,0,1-3.79-3.89,3.76,3.76,0,0,1,3.94-4,3.15,3.15,0,0,1,2.88,1.74s0-1,0-1.55H111v7c0,2.27-1.5,3.68-4,3.68a6.06,6.06,0,0,1-3.43-1.07C103.72,144,103.91,143.71,104,143.39Zm.34-4.83a2.62,2.62,0,0,0,2.66,2.85,2.68,2.68,0,0,0,2.77-2.82,2.72,2.72,0,1,0-5.43,0Z"/><path class="cls-5" d="M114.17,139a2.52,2.52,0,0,0,2.79,2.66,2.65,2.65,0,0,0,2.64-1.7l1.12.29a4,4,0,0,1-7.76-1.55,3.86,3.86,0,0,1,4-4.11c2.69,0,3.91,1.81,3.91,4.4Zm0-.8h5.52a2.52,2.52,0,0,0-2.74-2.51A2.63,2.63,0,0,0,114.17,138.16Z"/><path class="cls-5" d="M129.22,142.54v-1.6a3.36,3.36,0,0,1-3,1.76c-2.42,0-3.81-1.75-3.81-4.08s1.5-4.11,3.86-4.11a3.44,3.44,0,0,1,3,1.71s0-1.2,0-1.83v-2.71h1.22v10.85Zm-5.6-3.92c0,1.75,1,3,2.72,3a2.83,2.83,0,0,0,2.85-3,2.7,2.7,0,0,0-2.85-3A2.77,2.77,0,0,0,123.62,138.62Z"/><path class="cls-5" d="M135.68,138.89v-1h5.25v1Z"/><path class="cls-5" d="M145.87,140.08l1.25,0c0,1.07.82,1.7,2.29,1.7.94,0,2-.43,2-1.38,0-2-5.39-.29-5.39-3.52,0-1.42,1.52-2.29,3.14-2.29,2.21,0,3.27,1,3.39,2.59-.42,0-.83.06-1.25.08-.08-1.06-.8-1.63-2.18-1.63-1,0-1.92.5-1.92,1.31,0,1.94,5.43.32,5.43,3.46,0,1.62-1.66,2.34-3.33,2.34C147.09,142.69,146,141.74,145.87,140.08Z"/><path class="cls-5" d="M154.2,138.64a4.06,4.06,0,1,1,4,4.07A3.85,3.85,0,0,1,154.2,138.64Zm1.18,0a2.75,2.75,0,0,0,2.86,3,2.79,2.79,0,0,0,2.88-3,2.88,2.88,0,1,0-5.75,0Z"/><path class="cls-5" d="M165.47,140.94c0,.29,0,.54,0,.82s0,.53,0,.78h-1.2V131.69h1.2v3.49c0,.35,0,1,0,1a3.46,3.46,0,0,1,3.06-1.68c2.45,0,3.81,1.71,3.81,4.1a3.7,3.7,0,0,1-3.87,4A3.33,3.33,0,0,1,165.47,140.94Zm0-2.29a2.75,2.75,0,0,0,2.83,3,2.72,2.72,0,0,0,2.71-3,2.68,2.68,0,0,0-2.72-3C166.4,135.63,165.52,136.94,165.52,138.65Z"/><path class="cls-5" d="M178.27,135.72c-2.32,0-2.8,1.87-2.8,3.71v3.11h-1.23v-7.81h1.22c0,.69,0,1.33-.06,2a3.05,3.05,0,0,1,2.88-2.14Z"/><path class="cls-5" d="M180.2,139a2.52,2.52,0,0,0,2.79,2.66,2.65,2.65,0,0,0,2.64-1.7l1.12.29a4,4,0,0,1-7.76-1.55,3.86,3.86,0,0,1,4-4.11c2.69,0,3.91,1.81,3.91,4.4Zm0-.8h5.52a2.52,2.52,0,0,0-2.74-2.51A2.63,2.63,0,0,0,180.2,138.16Z"/><path class="cls-5" d="M188.41,138.72a3.88,3.88,0,0,1,4.13-4.18,3.37,3.37,0,0,1,3.55,2.56l-1.12.34a2.28,2.28,0,0,0-2.5-1.79,2.77,2.77,0,0,0-2.87,3.07,2.63,2.63,0,0,0,2.77,2.9,2.92,2.92,0,0,0,2.71-1.82l1.09.24a3.59,3.59,0,0,1-3.78,2.66A3.73,3.73,0,0,1,188.41,138.72Z"/><path class="cls-5" d="M204.38,142.54v-1.62a3.14,3.14,0,0,1-3,1.76,3.74,3.74,0,0,1-3.86-4,3.82,3.82,0,0,1,4-4.11,3.38,3.38,0,0,1,2.95,1.71s0-1,0-1.52h1.2v7.81Zm-5.62-3.89a2.68,2.68,0,0,0,2.72,3,2.79,2.79,0,0,0,2.85-3,2.69,2.69,0,0,0-2.85-3A2.77,2.77,0,0,0,198.76,138.65Z"/><path class="cls-5" d="M211.89,135.72c-2.32,0-2.8,1.87-2.8,3.71v3.11h-1.23v-7.81h1.22c0,.69,0,1.33-.06,2a3.05,3.05,0,0,1,2.88-2.14Z"/><path class="cls-5" d="M213.57,143.39a5.19,5.19,0,0,0,2.88,1c1.78,0,3-.88,3-2.75v-.91a3.37,3.37,0,0,1-3,1.78,3.65,3.65,0,0,1-3.79-3.89,3.76,3.76,0,0,1,3.94-4,3.15,3.15,0,0,1,2.88,1.74s0-1,0-1.55h1.17v7c0,2.27-1.5,3.68-4,3.68a6.06,6.06,0,0,1-3.43-1.07C213.26,144,213.46,143.71,213.57,143.39Zm.34-4.83a2.62,2.62,0,0,0,2.66,2.85,2.68,2.68,0,0,0,2.77-2.82,2.72,2.72,0,1,0-5.43,0Z"/><path class="cls-5" d="M229.35,142.54v-1.62a3.14,3.14,0,0,1-3,1.76,3.74,3.74,0,0,1-3.86-4,3.82,3.82,0,0,1,4-4.11,3.38,3.38,0,0,1,2.95,1.71s0-1,0-1.52h1.2v7.81Zm-5.62-3.89a2.68,2.68,0,0,0,2.72,3,2.79,2.79,0,0,0,2.85-3,2.69,2.69,0,0,0-2.85-3A2.77,2.77,0,0,0,223.73,138.65Z"/><path class="cls-5" d="M239.23,142.54v-1.6a3.36,3.36,0,0,1-3,1.76c-2.42,0-3.81-1.75-3.81-4.08s1.5-4.11,3.86-4.11a3.44,3.44,0,0,1,3,1.71s0-1.2,0-1.83v-2.71h1.22v10.85Zm-5.6-3.92c0,1.75,1,3,2.72,3a2.83,2.83,0,0,0,2.85-3,2.7,2.7,0,0,0-2.85-3A2.77,2.77,0,0,0,233.63,138.62Z"/><path class="cls-5" d="M242.37,138.64a4.06,4.06,0,1,1,4,4.07A3.85,3.85,0,0,1,242.37,138.64Zm1.18,0a2.75,2.75,0,0,0,2.86,3,2.79,2.79,0,0,0,2.88-3,2.88,2.88,0,1,0-5.75,0Z"/><path class="cls-5" d="M252.23,142.54v-1.73h1.31v1.73Z"/><polygon class="cls-4" points="60.32 20.85 62.19 19.44 61.36 18.37 59.66 20 60.32 20.85"/></g></g></g></svg>