<svg xmlns="http://www.w3.org/2000/svg" viewBox="0 0 425.47 110.92"><defs><style>.cls-1{isolation:isolate;}.cls-2{opacity:0.6;mix-blend-mode:overlay;}.cls-3{fill:#fff;}.cls-4{fill:#909090;}.cls-5{fill:#ed0531;}</style></defs><title>a4</title><g class="cls-1"><g id="Capa_2" data-name="Capa 2"><g id="Capa_6" data-name="Capa 6"><g class="cls-2"><rect y="23.26" width="420.97" height="87.66" rx="12.04" ry="12.04"/></g><rect class="cls-3" width="425.47" height="103.36" rx="12.32" ry="12.32"/><path class="cls-4" d="M44.93,45.91v4.63H43.68V39.69H48c2.48,0,4,1,4,3s-1.7,3.19-3.92,3.19Zm0-5.14v4.08H48c1.42,0,2.61-.75,2.61-2s-1-2-2.67-2Z"/><path class="cls-4" d="M59.72,50.54V48.92a3.14,3.14,0,0,1-3,1.76,3.74,3.74,0,0,1-3.86-4,3.82,3.82,0,0,1,4-4.11,3.38,3.38,0,0,1,2.95,1.71s0-1,0-1.52h1.2v7.81ZM54.1,46.65a2.68,2.68,0,0,0,2.72,3,2.79,2.79,0,0,0,2.85-3,2.69,2.69,0,0,0-2.85-3A2.77,2.77,0,0,0,54.1,46.65Z"/><path class="cls-4" d="M67.28,43.72c-2.32,0-2.8,1.87-2.8,3.71v3.11H63.25V42.73h1.22c0,.69,0,1.33-.06,2a3.05,3.05,0,0,1,2.88-2.14Z"/><path class="cls-4" d="M71.07,43.75V49c0,.37.22.67.88.67a2.23,2.23,0,0,0,.91-.19v.91a3,3,0,0,1-1.5.35,1.36,1.36,0,0,1-1.52-1.31V43.75h-1.5v-1h1.5v-2h1.23v2h1.79v1Z"/><path class="cls-4" d="M75.14,47a2.52,2.52,0,0,0,2.79,2.66,2.65,2.65,0,0,0,2.64-1.7l1.12.29a4,4,0,0,1-7.76-1.55,3.86,3.86,0,0,1,4-4.11c2.69,0,3.91,1.81,3.91,4.4Zm0-.8h5.52a2.52,2.52,0,0,0-2.74-2.51A2.63,2.63,0,0,0,75.14,46.16Z"/><path class="cls-4" d="M88.32,49c0,.61,0,1.17,0,1.83v2.46h-1.2V42.73h1.2v.72c0,.29,0,.86,0,.86a3.47,3.47,0,0,1,3-1.78c2.43,0,3.83,1.71,3.83,4.1s-1.47,4.1-3.87,4.1A3.19,3.19,0,0,1,88.32,49Zm.06-2.38c0,1.86.94,3.06,2.82,3.06a2.73,2.73,0,0,0,2.72-3,2.73,2.73,0,0,0-2.71-3A2.77,2.77,0,0,0,88.38,46.6Z"/><path class="cls-4" d="M96.71,46.64a4.06,4.06,0,1,1,8.12,0,4.06,4.06,0,1,1-8.12,0Zm1.18,0a2.75,2.75,0,0,0,2.86,3,2.79,2.79,0,0,0,2.88-3,2.88,2.88,0,1,0-5.75,0Z"/><path class="cls-4" d="M110.85,43.72c-2.32,0-2.8,1.87-2.8,3.71v3.11h-1.23V42.73H108c0,.69,0,1.33-.06,2a3.05,3.05,0,0,1,2.88-2.14Z"/><path class="cls-4" d="M115.41,50.54V39.69h1.23V50.54Z"/><path class="cls-4" d="M125.45,50.54V48.92a3.14,3.14,0,0,1-3,1.76,3.74,3.74,0,0,1-3.86-4,3.82,3.82,0,0,1,4-4.11,3.38,3.38,0,0,1,2.95,1.71s0-1,0-1.52h1.2v7.81Zm-5.62-3.89a2.68,2.68,0,0,0,2.72,3,2.79,2.79,0,0,0,2.85-3,2.69,2.69,0,0,0-2.85-3A2.77,2.77,0,0,0,119.83,46.65Z"/><path class="cls-4" d="M131.67,46.72a3.88,3.88,0,0,1,4.13-4.18,3.37,3.37,0,0,1,3.55,2.56l-1.12.34a2.28,2.28,0,0,0-2.5-1.79,2.77,2.77,0,0,0-2.87,3.07,2.63,2.63,0,0,0,2.77,2.9,2.92,2.92,0,0,0,2.71-1.82l1.09.24a3.59,3.59,0,0,1-3.78,2.66A3.73,3.73,0,0,1,131.67,46.72Z"/><path class="cls-4" d="M147.17,50.54l0-1.47h0a2.88,2.88,0,0,1-2.8,1.63,2.79,2.79,0,0,1-3.12-3v-5h1.23V47.6a1.9,1.9,0,0,0,2.16,2A2.4,2.4,0,0,0,147.09,47V42.73h1.23v7.81Z"/><path class="cls-4" d="M157.09,50.54V48.92a3.14,3.14,0,0,1-3,1.76,3.74,3.74,0,0,1-3.86-4,3.82,3.82,0,0,1,4-4.11,3.38,3.38,0,0,1,2.95,1.71s0-1,0-1.52h1.2v7.81Zm-5.62-3.89a2.68,2.68,0,0,0,2.72,3,2.79,2.79,0,0,0,2.85-3,2.69,2.69,0,0,0-2.85-3A2.77,2.77,0,0,0,151.48,46.65Z"/><path class="cls-4" d="M160.61,50.54V39.69h1.23V50.54Z"/><path class="cls-4" d="M167.21,48.08l1.25,0c0,1.07.82,1.7,2.29,1.7.94,0,2-.43,2-1.38,0-2-5.39-.29-5.39-3.52,0-1.42,1.52-2.29,3.14-2.29,2.21,0,3.27,1,3.39,2.59-.42,0-.83.06-1.25.08-.08-1.06-.8-1.63-2.18-1.63-1,0-1.92.5-1.92,1.31,0,1.94,5.43.32,5.43,3.46,0,1.62-1.66,2.34-3.33,2.34C168.43,50.69,167.29,49.74,167.21,48.08Z"/><path class="cls-4" d="M176.81,47a2.52,2.52,0,0,0,2.79,2.66,2.65,2.65,0,0,0,2.64-1.7l1.12.29a4,4,0,0,1-7.76-1.55,3.86,3.86,0,0,1,4-4.11c2.69,0,3.91,1.81,3.91,4.4Zm0-.8h5.52a2.52,2.52,0,0,0-2.74-2.51A2.63,2.63,0,0,0,176.81,46.16Z"/><path class="cls-4" d="M190,49c0,.61,0,1.17,0,1.83v2.46h-1.2V42.73H190v.72c0,.29,0,.86,0,.86a3.47,3.47,0,0,1,3-1.78c2.43,0,3.83,1.71,3.83,4.1s-1.47,4.1-3.87,4.1A3.19,3.19,0,0,1,190,49Zm.06-2.38c0,1.86.94,3.06,2.82,3.06a2.73,2.73,0,0,0,2.72-3,2.73,2.73,0,0,0-2.71-3A2.77,2.77,0,0,0,190.05,46.6Z"/><path class="cls-4" d="M198.38,46.64a4.06,4.06,0,1,1,8.12,0,4.06,4.06,0,1,1-8.12,0Zm1.18,0a2.75,2.75,0,0,0,2.86,3,2.79,2.79,0,0,0,2.88-3,2.88,2.88,0,1,0-5.75,0Z"/><path class="cls-4" d="M214.41,50.54v-5c0-1.22-.8-1.94-2.19-1.94a2.37,2.37,0,0,0-2.5,2.43v4.5h-1.23V42.73h1.22c0,.46,0,.93,0,1.39l0,0a3,3,0,0,1,2.83-1.6c1.89,0,3.11,1.1,3.11,2.71v5.3Z"/><path class="cls-4" d="M218.74,47a2.52,2.52,0,0,0,2.79,2.66,2.65,2.65,0,0,0,2.64-1.7l1.12.29a4,4,0,0,1-7.76-1.55,3.86,3.86,0,0,1,4-4.11c2.69,0,3.91,1.81,3.91,4.4Zm0-.8h5.52a2.52,2.52,0,0,0-2.74-2.51A2.63,2.63,0,0,0,218.74,46.16Z"/><path class="cls-4" d="M231.41,47a2.52,2.52,0,0,0,2.79,2.66,2.65,2.65,0,0,0,2.64-1.7l1.12.29a4,4,0,0,1-7.76-1.55,3.86,3.86,0,0,1,4-4.11c2.69,0,3.91,1.81,3.91,4.4Zm0-.8h5.52a2.52,2.52,0,0,0-2.74-2.51A2.63,2.63,0,0,0,231.41,46.16Z"/><path class="cls-4" d="M246,50.54v-5c0-1.22-.8-1.94-2.19-1.94a2.37,2.37,0,0,0-2.5,2.43v4.5h-1.23V42.73h1.22c0,.46,0,.93,0,1.39l0,0a3,3,0,0,1,2.83-1.6c1.89,0,3.11,1.1,3.11,2.71v5.3Z"/><path class="cls-4" d="M259.21,50.54V48.92a3.14,3.14,0,0,1-3,1.76,3.74,3.74,0,0,1-3.86-4,3.82,3.82,0,0,1,4-4.11,3.38,3.38,0,0,1,2.95,1.71s0-1,0-1.52h1.2v7.81Zm-5.62-3.89a2.68,2.68,0,0,0,2.72,3,2.79,2.79,0,0,0,2.85-3,2.69,2.69,0,0,0-2.85-3A2.77,2.77,0,0,0,253.59,46.65Z"/><path class="cls-4" d="M262.27,46.72a3.88,3.88,0,0,1,4.13-4.18A3.37,3.37,0,0,1,270,45.1l-1.12.34a2.28,2.28,0,0,0-2.5-1.79,2.77,2.77,0,0,0-2.87,3.07,2.63,2.63,0,0,0,2.77,2.9,2.92,2.92,0,0,0,2.71-1.82L270,48a3.59,3.59,0,0,1-3.78,2.66A3.73,3.73,0,0,1,262.27,46.72Z"/><path class="cls-4" d="M271.46,46.72a3.88,3.88,0,0,1,4.13-4.18,3.37,3.37,0,0,1,3.55,2.56l-1.12.34a2.28,2.28,0,0,0-2.5-1.79,2.77,2.77,0,0,0-2.87,3.07,2.63,2.63,0,0,0,2.77,2.9,2.92,2.92,0,0,0,2.71-1.82l1.09.24a3.59,3.59,0,0,1-3.78,2.66A3.73,3.73,0,0,1,271.46,46.72Z"/><path class="cls-4" d="M281.05,40.26a.61.61,0,0,1,.64-.62.6.6,0,0,1,.62.62V41a.59.59,0,0,1-.62.61.6.6,0,0,1-.64-.61Zm0,10.28V42.73h1.23v7.81Z"/><path class="cls-4" d="M284.25,46.64a4.06,4.06,0,1,1,8.12,0,4.06,4.06,0,1,1-8.12,0Zm1.18,0a2.75,2.75,0,0,0,2.86,3,2.79,2.79,0,0,0,2.88-3,2.88,2.88,0,1,0-5.75,0ZM290,38.71c.27.29.51.59.77.88l-2.66,2.3c-.22-.24-.43-.5-.64-.74Z"/><path class="cls-4" d="M300.28,50.54v-5c0-1.22-.8-1.94-2.19-1.94a2.37,2.37,0,0,0-2.5,2.43v4.5h-1.23V42.73h1.22c0,.46,0,.93,0,1.39l0,0a3,3,0,0,1,2.83-1.6c1.89,0,3.11,1.1,3.11,2.71v5.3Z"/><path class="cls-4" d="M307.85,47a2.52,2.52,0,0,0,2.79,2.66,2.65,2.65,0,0,0,2.64-1.7l1.12.29a4,4,0,0,1-7.76-1.55,3.86,3.86,0,0,1,4-4.11c2.69,0,3.91,1.81,3.91,4.4Zm0-.8h5.52a2.52,2.52,0,0,0-2.74-2.51A2.63,2.63,0,0,0,307.85,46.16Z"/><path class="cls-4" d="M316.53,50.54V39.69h1.23V50.54Z"/><path class="cls-4" d="M324.19,47A2.52,2.52,0,0,0,327,49.61a2.65,2.65,0,0,0,2.64-1.7l1.12.29A4,4,0,0,1,323,46.65a3.86,3.86,0,0,1,4-4.11c2.69,0,3.91,1.81,3.91,4.4Zm0-.8h5.52A2.52,2.52,0,0,0,327,43.64,2.63,2.63,0,0,0,324.19,46.16Z"/><path class="cls-4" d="M338.19,50.54l-2.66-3.2L333,50.54h-1.58c1.12-1.33,2.26-2.67,3.36-4-1-1.26-2-2.54-3.07-3.81h1.57c.77,1,1.55,2,2.32,3l2.35-3h1.57c-1,1.25-2.08,2.51-3.14,3.76l3.44,4Z"/><path class="cls-4" d="M343.37,43.75V49c0,.37.22.67.88.67a2.23,2.23,0,0,0,.91-.19v.91a3,3,0,0,1-1.5.35,1.36,1.36,0,0,1-1.52-1.31V43.75h-1.5v-1h1.5v-2h1.23v2h1.79v1Z"/><path class="cls-4" d="M346.87,40.26a.61.61,0,0,1,.64-.62.6.6,0,0,1,.62.62V41a.59.59,0,0,1-.62.61.6.6,0,0,1-.64-.61Zm0,10.28V42.73h1.23v7.81Z"/><path class="cls-4" d="M356.47,50.54v-5c0-1.22-.8-1.94-2.19-1.94a2.37,2.37,0,0,0-2.5,2.43v4.5h-1.23V42.73h1.22c0,.46,0,.93,0,1.39l0,0a3,3,0,0,1,2.83-1.6c1.89,0,3.11,1.1,3.11,2.71v5.3Z"/><path class="cls-4" d="M361.88,43.75V49c0,.37.22.67.88.67a2.23,2.23,0,0,0,.91-.19v.91a3,3,0,0,1-1.5.35,1.36,1.36,0,0,1-1.52-1.31V43.75h-1.5v-1h1.5v-2h1.23v2h1.79v1Z"/><path class="cls-4" d="M364.74,46.64a4.06,4.06,0,1,1,8.12,0,4.06,4.06,0,1,1-8.12,0Zm1.18,0a2.75,2.75,0,0,0,2.86,3,2.79,2.79,0,0,0,2.88-3,2.88,2.88,0,1,0-5.75,0Z"/><path class="cls-4" d="M378.89,43.72c-2.32,0-2.8,1.87-2.8,3.71v3.11h-1.23V42.73h1.22c0,.69,0,1.33-.06,2a3.05,3.05,0,0,1,2.88-2.14Z"/><path class="cls-4" d="M379.41,50.54V48.81h1.31v1.73Z"/><path class="cls-4" d="M52.13,68.54l-1.34-3.07H45.35L44,68.54H42.61l5-10.85h1.18L53.6,68.54Zm-4-9.2-2.31,5.07h4.53Z"/><path class="cls-4" d="M55,68.54V57.69h1.23V68.54Z"/><path class="cls-4" d="M63.19,67c0,.61,0,1.17,0,1.83v2.46H62V60.73h1.2v.72c0,.29,0,.86,0,.86a3.47,3.47,0,0,1,3-1.78c2.43,0,3.83,1.71,3.83,4.1s-1.47,4.1-3.87,4.1A3.19,3.19,0,0,1,63.19,67Zm.06-2.38c0,1.86.94,3.06,2.82,3.06a3,3,0,0,0,0-6A2.77,2.77,0,0,0,63.26,64.6Z"/><path class="cls-4" d="M76.09,61.72c-2.32,0-2.8,1.87-2.8,3.71v3.11H72.05V60.73h1.22c0,.69,0,1.33-.06,2a3.05,3.05,0,0,1,2.88-2.14Z"/><path class="cls-4" d="M78.07,65a2.52,2.52,0,0,0,2.79,2.66,2.65,2.65,0,0,0,2.64-1.7l1.12.29a4,4,0,0,1-7.76-1.55,3.86,3.86,0,0,1,4-4.11c2.69,0,3.91,1.81,3.91,4.4Zm0-.8h5.52a2.52,2.52,0,0,0-2.74-2.51A2.63,2.63,0,0,0,78.07,64.16Z"/><path class="cls-4" d="M86.31,66.08l1.25,0c0,1.07.82,1.7,2.29,1.7.94,0,2-.43,2-1.38,0-2-5.39-.29-5.39-3.52,0-1.42,1.52-2.29,3.14-2.29,2.21,0,3.27,1,3.39,2.59-.42,0-.83.06-1.25.08-.08-1.06-.8-1.63-2.18-1.63-1,0-1.92.5-1.92,1.31,0,1.94,5.43.32,5.43,3.46,0,1.62-1.66,2.34-3.33,2.34C87.53,68.69,86.39,67.74,86.31,66.08Z"/><path class="cls-4" d="M95.19,58.26a.61.61,0,0,1,.64-.62.6.6,0,0,1,.62.62V59a.59.59,0,0,1-.62.61.6.6,0,0,1-.64-.61Zm0,10.28V60.73h1.23v7.81Z"/><path class="cls-4" d="M98.38,64.64a4.06,4.06,0,1,1,4,4.07A3.85,3.85,0,0,1,98.38,64.64Zm1.18,0a2.75,2.75,0,0,0,2.86,3,2.79,2.79,0,0,0,2.88-3,2.88,2.88,0,1,0-5.75,0Z"/><path class="cls-4" d="M114.41,68.54v-5c0-1.22-.8-1.94-2.19-1.94a2.37,2.37,0,0,0-2.5,2.43v4.5h-1.23V60.73h1.22c0,.46,0,.93,0,1.39l0,0a3,3,0,0,1,2.83-1.6c1.89,0,3.11,1.1,3.11,2.71v5.3Z"/><path class="cls-4" d="M124.37,68.54V66.92a3.14,3.14,0,0,1-3,1.76,3.74,3.74,0,0,1-3.86-4,3.82,3.82,0,0,1,4-4.11,3.38,3.38,0,0,1,2.95,1.71s0-1,0-1.52h1.2v7.81Zm-5.62-3.89a2.68,2.68,0,0,0,2.72,3,2.79,2.79,0,0,0,2.85-3,2.69,2.69,0,0,0-2.85-3A2.77,2.77,0,0,0,118.75,64.65Z"/><path class="cls-4" d="M131.94,61.72c-2.32,0-2.8,1.87-2.8,3.71v3.11h-1.23V60.73h1.22c0,.69,0,1.33-.06,2a3.05,3.05,0,0,1,2.88-2.14Z"/><path class="cls-4" d="M133.37,68.54V57.69h1.23V68.54Z"/><path class="cls-4" d="M143.41,68.54V66.92a3.14,3.14,0,0,1-3,1.76,3.74,3.74,0,0,1-3.86-4,3.82,3.82,0,0,1,4-4.11,3.38,3.38,0,0,1,2.95,1.71s0-1,0-1.52h1.2v7.81Zm-5.62-3.89a2.68,2.68,0,0,0,2.72,3,2.79,2.79,0,0,0,2.85-3,2.69,2.69,0,0,0-2.85-3A2.77,2.77,0,0,0,137.79,64.65Z"/><path class="cls-4" d="M149.77,66.08,151,66c0,1.07.82,1.7,2.29,1.7.94,0,2-.43,2-1.38,0-2-5.39-.29-5.39-3.52,0-1.42,1.52-2.29,3.14-2.29,2.21,0,3.27,1,3.39,2.59-.42,0-.83.06-1.25.08-.08-1.06-.8-1.63-2.18-1.63-1,0-1.92.5-1.92,1.31,0,1.94,5.43.32,5.43,3.46,0,1.62-1.66,2.34-3.33,2.34C151,68.69,149.85,67.74,149.77,66.08Z"/><path class="cls-4" d="M159.37,65a2.52,2.52,0,0,0,2.79,2.66,2.65,2.65,0,0,0,2.64-1.7l1.12.29a4,4,0,0,1-7.76-1.55,3.86,3.86,0,0,1,4-4.11c2.69,0,3.91,1.81,3.91,4.4Zm0-.8h5.52a2.52,2.52,0,0,0-2.74-2.51A2.63,2.63,0,0,0,159.37,64.16Z"/><path class="cls-4" d="M177.67,68.54V66.92a3.14,3.14,0,0,1-3,1.76,3.74,3.74,0,0,1-3.86-4,3.82,3.82,0,0,1,4-4.11,3.38,3.38,0,0,1,2.95,1.71s0-1,0-1.52h1.2v7.81Zm-5.62-3.89a2.68,2.68,0,0,0,2.72,3,2.79,2.79,0,0,0,2.85-3,2.69,2.69,0,0,0-2.85-3A2.77,2.77,0,0,0,172.05,64.65Z"/><path class="cls-4" d="M182.4,66.94c0,.29,0,.54,0,.82s0,.53,0,.78h-1.2V57.69h1.2v3.49c0,.35,0,1,0,1a3.46,3.46,0,0,1,3.06-1.68c2.45,0,3.81,1.71,3.81,4.1a3.7,3.7,0,0,1-3.87,4A3.33,3.33,0,0,1,182.4,66.94Zm0-2.29a2.75,2.75,0,0,0,2.83,3,2.72,2.72,0,0,0,2.71-3,2.68,2.68,0,0,0-2.72-3C183.33,61.63,182.45,62.94,182.45,64.65Z"/><path class="cls-4" d="M195.25,61.72c-2.32,0-2.8,1.87-2.8,3.71v3.11h-1.23V60.73h1.22c0,.69,0,1.33-.06,2a3.05,3.05,0,0,1,2.88-2.14Z"/><path class="cls-4" d="M197.24,65A2.52,2.52,0,0,0,200,67.61a2.65,2.65,0,0,0,2.64-1.7l1.12.29A4,4,0,0,1,196,64.65a3.86,3.86,0,0,1,4-4.11c2.69,0,3.91,1.81,3.91,4.4Zm0-.8h5.52A2.52,2.52,0,0,0,200,61.64,2.63,2.63,0,0,0,197.24,64.16Z"/><path class="cls-4" d="M209.2,68.54V57.69h1.23V68.54Z"/><path class="cls-4" d="M219.24,68.54V66.92a3.14,3.14,0,0,1-3,1.76,3.74,3.74,0,0,1-3.86-4,3.82,3.82,0,0,1,4-4.11,3.38,3.38,0,0,1,2.95,1.71s0-1,0-1.52h1.2v7.81Zm-5.62-3.89a2.68,2.68,0,0,0,2.72,3,2.79,2.79,0,0,0,2.85-3,2.69,2.69,0,0,0-2.85-3A2.77,2.77,0,0,0,213.62,64.65Z"/><path class="cls-4" d="M229.57,68.54h-1.14l-3.68-7.81h1.46L229,67.21l2.59-6.48H233Z"/><path class="cls-4" d="M240.44,68.54V66.92a3.14,3.14,0,0,1-3,1.76,3.74,3.74,0,0,1-3.86-4,3.82,3.82,0,0,1,4-4.11,3.38,3.38,0,0,1,2.95,1.71s0-1,0-1.52h1.2v7.81Zm-5.62-3.89a2.68,2.68,0,0,0,2.72,3,2.79,2.79,0,0,0,2.85-3,2.69,2.69,0,0,0-2.85-3A2.77,2.77,0,0,0,234.82,64.65Zm4.61-7.94c.27.29.51.59.77.88l-2.66,2.3c-.22-.24-.43-.5-.64-.74Z"/><path class="cls-4" d="M244.08,68.54V57.69h1.23V68.54Z"/><path class="cls-4" d="M251.55,68.54h-1.14l-3.68-7.81h1.46L251,67.21l2.59-6.48h1.33Z"/><path class="cls-4" d="M262.35,68.54l0-1.47h0a2.88,2.88,0,0,1-2.8,1.63,2.79,2.79,0,0,1-3.12-3v-5h1.23V65.6a1.9,1.9,0,0,0,2.16,2A2.4,2.4,0,0,0,262.27,65V60.73h1.23v7.81Z"/><path class="cls-4" d="M265.88,68.54V57.69h1.23V68.54Z"/><path class="cls-4" d="M275.92,68.54V66.92a3.14,3.14,0,0,1-3,1.76,3.74,3.74,0,0,1-3.86-4,3.82,3.82,0,0,1,4-4.11A3.38,3.38,0,0,1,276,62.25s0-1,0-1.52h1.2v7.81Zm-5.62-3.89a2.68,2.68,0,0,0,2.72,3,2.79,2.79,0,0,0,2.85-3,2.69,2.69,0,0,0-2.85-3A2.77,2.77,0,0,0,270.3,64.65Z"/><path class="cls-4" d="M289,68.54v-1.6a3.36,3.36,0,0,1-3,1.76c-2.42,0-3.81-1.75-3.81-4.08s1.5-4.11,3.86-4.11a3.44,3.44,0,0,1,3,1.71s0-1.2,0-1.83V57.69h1.22V68.54Zm-5.6-3.92c0,1.75,1,3,2.72,3a2.83,2.83,0,0,0,2.85-3,2.7,2.7,0,0,0-2.85-3A2.77,2.77,0,0,0,283.37,64.62Z"/><path class="cls-4" d="M293.37,65a2.52,2.52,0,0,0,2.79,2.66,2.65,2.65,0,0,0,2.64-1.7l1.12.29a4,4,0,0,1-7.76-1.55,3.86,3.86,0,0,1,4-4.11c2.69,0,3.91,1.81,3.91,4.4Zm0-.8h5.52a2.52,2.52,0,0,0-2.74-2.51A2.63,2.63,0,0,0,293.37,64.16Z"/><path class="cls-4" d="M306,65a2.52,2.52,0,0,0,2.79,2.66,2.65,2.65,0,0,0,2.64-1.7l1.12.29a4,4,0,0,1-7.76-1.55,3.86,3.86,0,0,1,4-4.11c2.69,0,3.91,1.81,3.91,4.4Zm0-.8h5.52a2.52,2.52,0,0,0-2.74-2.51A2.63,2.63,0,0,0,306,64.16Z"/><path class="cls-4" d="M314.28,66.08l1.25,0c0,1.07.82,1.7,2.29,1.7.94,0,2-.43,2-1.38,0-2-5.39-.29-5.39-3.52,0-1.42,1.52-2.29,3.14-2.29,2.21,0,3.27,1,3.39,2.59-.42,0-.83.06-1.25.08-.08-1.06-.8-1.63-2.18-1.63-1,0-1.92.5-1.92,1.31,0,1.94,5.43.32,5.43,3.46,0,1.62-1.66,2.34-3.33,2.34C315.5,68.69,314.36,67.74,314.28,66.08Z"/><path class="cls-4" d="M322.67,64.72a3.88,3.88,0,0,1,4.13-4.18,3.37,3.37,0,0,1,3.55,2.56l-1.12.34a2.28,2.28,0,0,0-2.5-1.79,2.77,2.77,0,0,0-2.87,3.07,2.63,2.63,0,0,0,2.77,2.9,2.92,2.92,0,0,0,2.71-1.82l1.09.24a3.59,3.59,0,0,1-3.78,2.66A3.73,3.73,0,0,1,322.67,64.72Z"/><path class="cls-4" d="M338.69,68.54V66.92a3.14,3.14,0,0,1-3,1.76,3.74,3.74,0,0,1-3.86-4,3.82,3.82,0,0,1,4-4.11,3.38,3.38,0,0,1,2.95,1.71s0-1,0-1.52h1.2v7.81Zm-5.62-3.89a2.68,2.68,0,0,0,2.72,3,2.79,2.79,0,0,0,2.85-3,2.69,2.69,0,0,0-2.85-3A2.77,2.77,0,0,0,333.07,64.65Z"/><path class="cls-4" d="M343.41,67c0,.61,0,1.17,0,1.83v2.46h-1.2V60.73h1.2v.72c0,.29,0,.86,0,.86a3.47,3.47,0,0,1,3-1.78c2.43,0,3.83,1.71,3.83,4.1s-1.47,4.1-3.87,4.1A3.19,3.19,0,0,1,343.41,67Zm.06-2.38c0,1.86.94,3.06,2.82,3.06a3,3,0,0,0,0-6A2.77,2.77,0,0,0,343.47,64.6Z"/><path class="cls-4" d="M353,65a2.52,2.52,0,0,0,2.79,2.66,2.65,2.65,0,0,0,2.64-1.7l1.12.29a4,4,0,0,1-7.76-1.55,3.86,3.86,0,0,1,4-4.11c2.69,0,3.91,1.81,3.91,4.4Zm0-.8h5.52a2.52,2.52,0,0,0-2.74-2.51A2.63,2.63,0,0,0,353,64.16Z"/><path class="cls-4" d="M364.83,70.41c.13-.34.29-.67.42-1a5.56,5.56,0,0,0,2.9.91c1.82,0,2.77-.88,2.77-3.41a3,3,0,0,1-2.85,1.65c-1.87,0-3.15-1-3.15-3V60.73h1.23v4.75a1.94,1.94,0,0,0,2.21,2,2.33,2.33,0,0,0,2.45-2.58V60.73H372V67c0,2.59-1.31,4.42-3.86,4.42A6.16,6.16,0,0,1,364.83,70.41Z"/><path class="cls-4" d="M43.52,84.08l1.25,0c0,1.07.82,1.7,2.29,1.7.94,0,2-.43,2-1.38,0-2-5.39-.29-5.39-3.52,0-1.42,1.52-2.29,3.14-2.29,2.21,0,3.27,1,3.39,2.59-.42,0-.83.06-1.25.08-.08-1.06-.8-1.63-2.18-1.63-1,0-1.92.5-1.92,1.31,0,1.94,5.43.32,5.43,3.46,0,1.62-1.66,2.34-3.33,2.34C44.74,86.69,43.6,85.74,43.52,84.08Z"/><path class="cls-4" d="M58.75,86.54V84.92a3.14,3.14,0,0,1-3,1.76,3.74,3.74,0,0,1-3.86-4,3.82,3.82,0,0,1,4-4.11,3.38,3.38,0,0,1,2.95,1.71s0-1,0-1.52H60v7.81Zm-5.62-3.89a2.68,2.68,0,0,0,2.72,3,2.79,2.79,0,0,0,2.85-3,2.69,2.69,0,0,0-2.85-3A2.77,2.77,0,0,0,53.13,82.65Z"/><path class="cls-4" d="M62.26,86.54V75.69h1.23V86.54Z"/><path class="cls-4" d="M66.66,83a2.52,2.52,0,0,0,2.79,2.66,2.65,2.65,0,0,0,2.64-1.7l1.12.29a4,4,0,0,1-7.76-1.55,3.86,3.86,0,0,1,4-4.11c2.69,0,3.91,1.81,3.91,4.4Zm0-.8h5.52a2.52,2.52,0,0,0-2.74-2.51A2.63,2.63,0,0,0,66.66,82.16Z"/><path class="cls-4" d="M79.33,83a2.52,2.52,0,0,0,2.79,2.66,2.65,2.65,0,0,0,2.64-1.7l1.12.29a4,4,0,0,1-7.76-1.55,3.86,3.86,0,0,1,4-4.11c2.69,0,3.91,1.81,3.91,4.4Zm0-.8h5.52a2.52,2.52,0,0,0-2.74-2.51A2.63,2.63,0,0,0,79.33,82.16Z"/><path class="cls-4" d="M88,86.54V75.69h1.23V86.54Z"/><path class="cls-4" d="M101.31,86.54V84.92a3.14,3.14,0,0,1-3,1.76,3.74,3.74,0,0,1-3.86-4,3.82,3.82,0,0,1,4-4.11,3.38,3.38,0,0,1,2.95,1.71s0-1,0-1.52h1.2v7.81Zm-5.62-3.89a2.68,2.68,0,0,0,2.72,3,2.79,2.79,0,0,0,2.85-3,2.69,2.69,0,0,0-2.85-3A2.77,2.77,0,0,0,95.69,82.65Z"/><path class="cls-4" d="M105.3,87.39a5.19,5.19,0,0,0,2.88,1c1.78,0,3-.88,3-2.75v-.91a3.37,3.37,0,0,1-3,1.78,3.65,3.65,0,0,1-3.79-3.89,3.76,3.76,0,0,1,3.94-4,3.15,3.15,0,0,1,2.88,1.74s0-1,0-1.55h1.17v7c0,2.27-1.5,3.68-4,3.68a6.06,6.06,0,0,1-3.43-1.07C105,88,105.18,87.71,105.3,87.39Zm.34-4.83a2.62,2.62,0,0,0,2.66,2.85,2.68,2.68,0,0,0,2.77-2.82,2.72,2.72,0,1,0-5.43,0Z"/><path class="cls-4" d="M115.5,83a2.52,2.52,0,0,0,2.79,2.66,2.65,2.65,0,0,0,2.64-1.7l1.12.29a4,4,0,0,1-7.76-1.55,3.86,3.86,0,0,1,4-4.11c2.69,0,3.91,1.81,3.91,4.4Zm0-.8H121a2.52,2.52,0,0,0-2.74-2.51A2.63,2.63,0,0,0,115.5,82.16Z"/><path class="cls-4" d="M130.1,86.54v-5c0-1.22-.8-1.94-2.19-1.94a2.37,2.37,0,0,0-2.5,2.43v4.5h-1.23V78.73h1.22c0,.46,0,.93,0,1.39l0,0a3,3,0,0,1,2.83-1.6c1.89,0,3.11,1.1,3.11,2.71v5.3Z"/><path class="cls-4" d="M135.52,79.75V85c0,.37.22.67.88.67a2.23,2.23,0,0,0,.91-.19v.91a3,3,0,0,1-1.5.35,1.36,1.36,0,0,1-1.52-1.31V79.75h-1.5v-1h1.5v-2h1.23v2h1.79v1Z"/><path class="cls-4" d="M139.59,83a2.52,2.52,0,0,0,2.79,2.66,2.65,2.65,0,0,0,2.64-1.7l1.12.29a4,4,0,0,1-7.76-1.55,3.86,3.86,0,0,1,4-4.11c2.69,0,3.91,1.81,3.91,4.4Zm0-.8h5.52a2.52,2.52,0,0,0-2.74-2.51A2.63,2.63,0,0,0,139.59,82.16Z"/><path class="cls-4" d="M152.26,83A2.52,2.52,0,0,0,155,85.61a2.65,2.65,0,0,0,2.64-1.7l1.12.29A4,4,0,0,1,151,82.65a3.86,3.86,0,0,1,4-4.11c2.69,0,3.91,1.81,3.91,4.4Zm0-.8h5.52A2.52,2.52,0,0,0,155,79.64,2.63,2.63,0,0,0,152.26,82.16Z"/><path class="cls-4" d="M166.25,86.54l-2.66-3.2L161,86.54h-1.58c1.12-1.33,2.26-2.67,3.36-4-1-1.26-2-2.54-3.07-3.81h1.57c.77,1,1.55,2,2.32,3l2.35-3h1.57c-1,1.25-2.08,2.51-3.14,3.76l3.44,4Z"/><path class="cls-4" d="M171.44,79.75V85c0,.37.22.67.88.67a2.23,2.23,0,0,0,.91-.19v.91a3,3,0,0,1-1.5.35,1.36,1.36,0,0,1-1.52-1.31V79.75h-1.5v-1h1.5v-2h1.23v2h1.79v1Z"/><path class="cls-4" d="M174.93,76.26a.61.61,0,0,1,.64-.62.6.6,0,0,1,.62.62V77a.59.59,0,0,1-.62.61.6.6,0,0,1-.64-.61Zm0,10.28V78.73h1.23v7.81Z"/><path class="cls-4" d="M184.53,86.54v-5c0-1.22-.8-1.94-2.19-1.94a2.37,2.37,0,0,0-2.5,2.43v4.5h-1.23V78.73h1.22c0,.46,0,.93,0,1.39l0,0a3,3,0,0,1,2.83-1.6c1.89,0,3.11,1.1,3.11,2.71v5.3Z"/><path class="cls-4" d="M190,79.75V85c0,.37.22.67.88.67a2.23,2.23,0,0,0,.91-.19v.91a3,3,0,0,1-1.5.35,1.36,1.36,0,0,1-1.52-1.31V79.75h-1.5v-1h1.5v-2H190v2h1.79v1Z"/><path class="cls-4" d="M192.81,82.64a4.06,4.06,0,1,1,4,4.07A3.85,3.85,0,0,1,192.81,82.64Zm1.18,0a2.75,2.75,0,0,0,2.86,3,2.79,2.79,0,0,0,2.88-3,2.88,2.88,0,1,0-5.75,0Z"/><path class="cls-4" d="M207,79.72c-2.32,0-2.8,1.87-2.8,3.71v3.11h-1.23V78.73h1.22c0,.69,0,1.33-.06,2A3.05,3.05,0,0,1,207,78.55Z"/><path class="cls-4" d="M207.48,86.54V84.81h1.31v1.73Z"/><path class="cls-5" d="M46.06,21.43a2.66,2.66,0,0,1,2,.8,2.79,2.79,0,0,1,.7,2v1.68a2.69,2.69,0,0,1-.8,2,2.61,2.61,0,0,1-1.93.81H45V33H43.3V21.43Zm1,2.79a1,1,0,0,0-.27-.73,1,1,0,0,0-.72-.28H45v3.7H46.1a1,1,0,0,0,.71-.29,1,1,0,0,0,.29-.71Z"/><path class="cls-5" d="M53.57,30.35,53.14,33H51.33l2-11.57h2.4L57.63,33H55.8l-.41-2.66Zm.92-6.26-.65,4.56h1.29Z"/><path class="cls-5" d="M65.48,33H60.73V21.43h1.74v9.83h3Z"/><path class="cls-5" d="M70.82,30.35,70.39,33H68.58l2-11.57h2.4L74.88,33H73l-.41-2.66Zm.92-6.26-.65,4.56h1.29Z"/><path class="cls-5" d="M79.94,21.43l2.32,7.78V21.43H84V33H82.12l-2.4-7.41V33H78V21.43Z"/><path class="cls-5" d="M89.88,33.15a2.76,2.76,0,0,1-2.77-2.76V24.08a2.77,2.77,0,1,1,5.53,0V25.4H90.83V24a1,1,0,0,0-1-1,1,1,0,0,0-.71.3,1,1,0,0,0-.29.71v6.33a1,1,0,0,0,1,1,1,1,0,0,0,.71-.29,1,1,0,0,0,.3-.71v-1.6h1.81v1.62a2.76,2.76,0,0,1-2.76,2.76Z"/><path class="cls-5" d="M97.8,30.35,97.37,33H95.56l2-11.57h2.4L101.86,33H100l-.41-2.66Zm.92-6.26-.65,4.56h1.29Z"/></g></g></g></svg>