<svg xmlns="http://www.w3.org/2000/svg" viewBox="0 0 425.47 110.92"><defs><style>.cls-1{isolation:isolate;}.cls-2{opacity:0.6;mix-blend-mode:overlay;}.cls-3{fill:#fff;}.cls-4{fill:#909090;}.cls-5{fill:#ed0531;}</style></defs><title>b1</title><g class="cls-1"><g id="Capa_2" data-name="Capa 2"><g id="Capa_7" data-name="Capa 7"><g class="cls-2"><rect y="23.26" width="420.97" height="87.66" rx="12.04" ry="12.04"/></g><rect class="cls-3" width="425.47" height="103.36" rx="12.32" ry="12.32"/><path class="cls-4" d="M40.84,52.29l.06-9-4.32,9H35.49l-4.31-9,.08,9H30V41.44h1.76l4.32,9.08,4.32-9.08h1.76V52.29Z"/><path class="cls-4" d="M45.3,48.71a2.52,2.52,0,0,0,2.79,2.66,2.65,2.65,0,0,0,2.64-1.7l1.12.29a3.69,3.69,0,0,1-3.79,2.48,3.72,3.72,0,0,1-4-4,3.86,3.86,0,0,1,4-4.11c2.69,0,3.91,1.81,3.91,4.4Zm0-.8h5.52a2.52,2.52,0,0,0-2.74-2.51A2.63,2.63,0,0,0,45.3,47.91Z"/><path class="cls-4" d="M55.72,45.51v5.2c0,.37.22.67.88.67a2.23,2.23,0,0,0,.91-.19v.91a3,3,0,0,1-1.5.35,1.36,1.36,0,0,1-1.52-1.31V45.51H53v-1h1.5v-2h1.23v2h1.79v1Z"/><path class="cls-4" d="M65.37,52.29V50.68a3.14,3.14,0,0,1-3,1.76,3.74,3.74,0,0,1-3.86-4,3.82,3.82,0,0,1,4-4.11A3.38,3.38,0,0,1,65.42,46s0-1,0-1.52h1.2v7.81Zm-5.62-3.89a2.68,2.68,0,0,0,2.72,3,2.79,2.79,0,0,0,2.85-3,2.69,2.69,0,0,0-2.85-3A2.77,2.77,0,0,0,59.75,48.41Z"/><path class="cls-4" d="M68.83,52.29V41.44h1.23V52.29Z"/><path class="cls-4" d="M82,55v-3.3c0-.34,0-1,0-1A3.4,3.4,0,0,1,79,52.49c-2.4,0-3.79-1.79-3.79-4.1A3.76,3.76,0,0,1,79,44.29a3.34,3.34,0,0,1,3.06,1.78c0-.5,0-1,0-1.58h1.2V55Zm-5.57-6.63a2.74,2.74,0,0,0,2.69,3,2.84,2.84,0,0,0,2.85-3,2.78,2.78,0,0,0-2.87-3A2.72,2.72,0,0,0,76.47,48.41Z"/><path class="cls-4" d="M91.62,52.29l0-1.47h0a2.88,2.88,0,0,1-2.8,1.63,2.79,2.79,0,0,1-3.12-3v-5h1.23v4.87a1.9,1.9,0,0,0,2.16,2,2.4,2.4,0,0,0,2.51-2.56V44.48h1.23v7.81Z"/><path class="cls-4" d="M95.85,48.71a2.52,2.52,0,0,0,2.79,2.66,2.65,2.65,0,0,0,2.64-1.7l1.12.29a4,4,0,0,1-7.76-1.55,3.86,3.86,0,0,1,4-4.11c2.69,0,3.91,1.81,3.91,4.4Zm0-.8h5.52a2.52,2.52,0,0,0-2.74-2.51A2.63,2.63,0,0,0,95.85,47.91Z"/><path class="cls-4" d="M109.42,44.48h2.08v1h-2.08v6.79h-1.23V45.51h-1.12v-1h1.12v-.34c0-1.63,1.12-2.82,3.19-2.82a8.33,8.33,0,0,1,1,.08v1.06a8.25,8.25,0,0,0-1-.06c-1.33,0-2,.69-2,1.81Z"/><path class="cls-4" d="M113.5,42a.61.61,0,0,1,.64-.62.6.6,0,0,1,.62.62v.74a.59.59,0,0,1-.62.61.6.6,0,0,1-.64-.61Zm0,10.28V44.48h1.23v7.81Z"/><path class="cls-4" d="M115.12,54.28c1.55-.13,2.11-.8,2.11-2.22V44.48h1.23v7.59a2.93,2.93,0,0,1-3,3.26ZM117.22,42a.59.59,0,0,1,.62-.61.6.6,0,0,1,.64.61v.74a.6.6,0,0,1-.64.61.59.59,0,0,1-.62-.61Z"/><path class="cls-4" d="M127.24,52.29V50.68a3.14,3.14,0,0,1-3,1.76,3.74,3.74,0,0,1-3.86-4,3.82,3.82,0,0,1,4-4.11A3.38,3.38,0,0,1,127.28,46s0-1,0-1.52h1.2v7.81Zm-5.62-3.89a2.68,2.68,0,0,0,2.72,3,2.79,2.79,0,0,0,2.85-3,2.69,2.69,0,0,0-2.85-3A2.77,2.77,0,0,0,121.62,48.41Z"/><path class="cls-4" d="M133.88,52.29V41.44h1.23V52.29Z"/><path class="cls-4" d="M143.87,52.29V50.68a3.14,3.14,0,0,1-3,1.76,3.74,3.74,0,0,1-3.86-4,3.82,3.82,0,0,1,4-4.11A3.38,3.38,0,0,1,143.92,46s0-1,0-1.52h1.2v7.81Zm-5.62-3.89a2.68,2.68,0,0,0,2.72,3,2.79,2.79,0,0,0,2.85-3,2.69,2.69,0,0,0-2.85-3A2.77,2.77,0,0,0,138.25,48.41Z"/><path class="cls-4" d="M151.73,50.74c0,.61,0,1.17,0,1.83V55h-1.2V44.48h1.2v.72c0,.29,0,.86,0,.86a3.47,3.47,0,0,1,3-1.78c2.43,0,3.83,1.71,3.83,4.1s-1.47,4.1-3.87,4.1A3.19,3.19,0,0,1,151.73,50.74Zm.06-2.38c0,1.86.94,3.06,2.82,3.06a2.73,2.73,0,0,0,2.72-3,2.73,2.73,0,0,0-2.71-3A2.77,2.77,0,0,0,151.8,48.36Z"/><path class="cls-4" d="M166.92,52.29V50.68a3.14,3.14,0,0,1-3,1.76,3.74,3.74,0,0,1-3.86-4,3.82,3.82,0,0,1,4-4.11A3.38,3.38,0,0,1,167,46s0-1,0-1.52h1.2v7.81Zm-5.62-3.89a2.68,2.68,0,0,0,2.72,3,2.79,2.79,0,0,0,2.85-3,2.69,2.69,0,0,0-2.85-3A2.77,2.77,0,0,0,161.3,48.41Z"/><path class="cls-4" d="M170.38,52.29V41.44h1.23V52.29Z"/><path class="cls-4" d="M180.36,52.29V50.68a3.14,3.14,0,0,1-3,1.76,3.74,3.74,0,0,1-3.86-4,3.82,3.82,0,0,1,4-4.11A3.38,3.38,0,0,1,180.41,46s0-1,0-1.52h1.2v7.81Zm-5.62-3.89a2.68,2.68,0,0,0,2.72,3,2.79,2.79,0,0,0,2.85-3,2.69,2.69,0,0,0-2.85-3A2.77,2.77,0,0,0,174.74,48.41Z"/><path class="cls-4" d="M189.76,52.29v-5c0-1.22-.8-1.94-2.19-1.94a2.37,2.37,0,0,0-2.5,2.43v4.5h-1.23V44.48h1.22c0,.46,0,.93,0,1.39l0,0a3,3,0,0,1,2.83-1.6c1.89,0,3.11,1.1,3.11,2.71v5.3Z"/><path class="cls-4" d="M192.83,48.47A3.88,3.88,0,0,1,197,44.29a3.37,3.37,0,0,1,3.55,2.56l-1.12.34a2.28,2.28,0,0,0-2.5-1.79A2.77,2.77,0,0,0,194,48.47a2.63,2.63,0,0,0,2.77,2.9,2.92,2.92,0,0,0,2.71-1.82l1.09.24a3.59,3.59,0,0,1-3.78,2.66A3.73,3.73,0,0,1,192.83,48.47Z"/><path class="cls-4" d="M208.8,52.29V50.68a3.14,3.14,0,0,1-3,1.76,3.74,3.74,0,0,1-3.86-4,3.82,3.82,0,0,1,4-4.11A3.38,3.38,0,0,1,208.85,46s0-1,0-1.52H210v7.81Zm-5.62-3.89a2.68,2.68,0,0,0,2.72,3,2.79,2.79,0,0,0,2.85-3,2.69,2.69,0,0,0-2.85-3A2.77,2.77,0,0,0,203.18,48.41Z"/><path class="cls-4" d="M215.3,54.17c.13-.34.29-.67.42-1a5.56,5.56,0,0,0,2.9.91c1.82,0,2.77-.88,2.77-3.41a3,3,0,0,1-2.85,1.65c-1.87,0-3.15-1-3.15-3V44.48h1.23v4.75a1.94,1.94,0,0,0,2.21,2,2.33,2.33,0,0,0,2.45-2.58V44.48h1.25v6.27c0,2.59-1.31,4.42-3.86,4.42A6.16,6.16,0,0,1,215.3,54.17Z"/><path class="cls-4" d="M228.91,48.71a2.52,2.52,0,0,0,2.79,2.66,2.65,2.65,0,0,0,2.64-1.7l1.12.29a4,4,0,0,1-7.76-1.55,3.86,3.86,0,0,1,4-4.11c2.69,0,3.91,1.81,3.91,4.4Zm0-.8h5.52a2.52,2.52,0,0,0-2.74-2.51A2.63,2.63,0,0,0,228.91,47.91Z"/><path class="cls-4" d="M241,52.29h-1.14l-3.68-7.81h1.46L240.48,51l2.59-6.48h1.33Z"/><path class="cls-4" d="M245.77,42a.61.61,0,0,1,.64-.62A.6.6,0,0,1,247,42v.74a.59.59,0,0,1-.62.61.6.6,0,0,1-.64-.61Zm0,10.28V44.48H247v7.81Z"/><path class="cls-4" d="M251.34,45.51v5.2c0,.37.22.67.88.67a2.23,2.23,0,0,0,.91-.19v.91a3,3,0,0,1-1.5.35,1.36,1.36,0,0,1-1.52-1.31V45.51h-1.5v-1h1.5v-2h1.23v2h1.79v1Z"/><path class="cls-4" d="M261,52.29V50.68a3.14,3.14,0,0,1-3,1.76,3.74,3.74,0,0,1-3.86-4,3.82,3.82,0,0,1,4-4.11A3.38,3.38,0,0,1,261,46s0-1,0-1.52h1.2v7.81Zm-5.62-3.89a2.68,2.68,0,0,0,2.72,3,2.79,2.79,0,0,0,2.85-3,2.69,2.69,0,0,0-2.85-3A2.77,2.77,0,0,0,255.37,48.41Z"/><path class="cls-4" d="M274,55v-3.3c0-.34,0-1,0-1a3.4,3.4,0,0,1-3.07,1.76c-2.4,0-3.79-1.79-3.79-4.1a3.76,3.76,0,0,1,3.83-4.1A3.34,3.34,0,0,1,274,46.07c0-.5,0-1,0-1.58h1.2V55Zm-5.57-6.63a2.74,2.74,0,0,0,2.69,3,2.84,2.84,0,0,0,2.85-3,2.78,2.78,0,0,0-2.87-3A2.72,2.72,0,0,0,268.39,48.41Z"/><path class="cls-4" d="M283.53,52.29l0-1.47h0a2.88,2.88,0,0,1-2.8,1.63,2.79,2.79,0,0,1-3.12-3v-5h1.23v4.87a1.9,1.9,0,0,0,2.16,2,2.4,2.4,0,0,0,2.51-2.56V44.48h1.23v7.81Z"/><path class="cls-4" d="M287.77,48.71a2.52,2.52,0,0,0,2.79,2.66,2.65,2.65,0,0,0,2.64-1.7l1.12.29a4,4,0,0,1-7.76-1.55,3.86,3.86,0,0,1,4-4.11c2.69,0,3.91,1.81,3.91,4.4Zm0-.8h5.52a2.52,2.52,0,0,0-2.74-2.51A2.63,2.63,0,0,0,287.77,47.91Z"/><path class="cls-4" d="M299.31,49.83l1.25,0c0,1.07.82,1.7,2.29,1.7.94,0,2-.43,2-1.38,0-2-5.39-.29-5.39-3.52,0-1.42,1.52-2.29,3.14-2.29,2.21,0,3.27,1,3.39,2.59-.42,0-.83.06-1.25.08-.08-1.06-.8-1.63-2.18-1.63-1,0-1.92.5-1.92,1.31,0,1.94,5.43.32,5.43,3.46,0,1.62-1.66,2.34-3.33,2.34C300.53,52.44,299.39,51.49,299.31,49.83Z"/><path class="cls-4" d="M308.85,48.71a2.52,2.52,0,0,0,2.79,2.66,2.65,2.65,0,0,0,2.64-1.7l1.12.29a4,4,0,0,1-7.76-1.55,3.86,3.86,0,0,1,4-4.11c2.69,0,3.91,1.81,3.91,4.4Zm0-.8h5.52a2.52,2.52,0,0,0-2.74-2.51A2.63,2.63,0,0,0,308.85,47.91Z"/><path class="cls-4" d="M327.09,52.29V50.68a3.14,3.14,0,0,1-3,1.76,3.74,3.74,0,0,1-3.86-4,3.82,3.82,0,0,1,4-4.11A3.38,3.38,0,0,1,327.14,46s0-1,0-1.52h1.2v7.81Zm-5.62-3.89a2.68,2.68,0,0,0,2.72,3,2.79,2.79,0,0,0,2.85-3,2.69,2.69,0,0,0-2.85-3A2.77,2.77,0,0,0,321.47,48.41Z"/><path class="cls-4" d="M330.1,48.47a3.88,3.88,0,0,1,4.13-4.18,3.37,3.37,0,0,1,3.55,2.56l-1.12.34a2.28,2.28,0,0,0-2.5-1.79,2.77,2.77,0,0,0-2.87,3.07,2.63,2.63,0,0,0,2.77,2.9,2.92,2.92,0,0,0,2.71-1.82l1.09.24a3.59,3.59,0,0,1-3.78,2.66A3.73,3.73,0,0,1,330.1,48.47Z"/><path class="cls-4" d="M339.23,48.47a3.88,3.88,0,0,1,4.13-4.18,3.37,3.37,0,0,1,3.55,2.56l-1.12.34a2.28,2.28,0,0,0-2.5-1.79,2.77,2.77,0,0,0-2.87,3.07,2.63,2.63,0,0,0,2.77,2.9,2.92,2.92,0,0,0,2.71-1.82l1.09.24a3.59,3.59,0,0,1-3.78,2.66A3.73,3.73,0,0,1,339.23,48.47Z"/><path class="cls-4" d="M348.78,42a.61.61,0,0,1,.64-.62A.6.6,0,0,1,350,42v.74a.59.59,0,0,1-.62.61.6.6,0,0,1-.64-.61Zm0,10.28V44.48H350v7.81Z"/><path class="cls-4" d="M351.92,48.39a4.06,4.06,0,1,1,8.12,0,4.06,4.06,0,1,1-8.12,0Zm1.18,0a2.75,2.75,0,0,0,2.86,3,2.79,2.79,0,0,0,2.88-3,2.88,2.88,0,1,0-5.75,0Z"/><path class="cls-4" d="M367.9,52.29v-5c0-1.22-.8-1.94-2.19-1.94a2.37,2.37,0,0,0-2.5,2.43v4.5H362V44.48h1.22c0,.46,0,.93,0,1.39l0,0a3,3,0,0,1,2.83-1.6c1.89,0,3.11,1.1,3.11,2.71v5.3Z"/><path class="cls-4" d="M372.18,48.71A2.52,2.52,0,0,0,375,51.37a2.65,2.65,0,0,0,2.64-1.7l1.12.29A4,4,0,0,1,371,48.41a3.86,3.86,0,0,1,4-4.11c2.69,0,3.91,1.81,3.91,4.4Zm0-.8h5.52A2.52,2.52,0,0,0,375,45.4,2.63,2.63,0,0,0,372.18,47.91Z"/><path class="cls-4" d="M384.78,48.71a2.52,2.52,0,0,0,2.79,2.66,2.65,2.65,0,0,0,2.64-1.7l1.12.29a4,4,0,0,1-7.76-1.55,3.86,3.86,0,0,1,4-4.11c2.69,0,3.91,1.81,3.91,4.4Zm0-.8h5.52a2.52,2.52,0,0,0-2.74-2.51A2.63,2.63,0,0,0,384.78,47.91Z"/><path class="cls-4" d="M393.41,52.29V41.44h1.23V52.29Z"/><path class="cls-4" d="M30.87,66.71a2.52,2.52,0,0,0,2.79,2.66,2.65,2.65,0,0,0,2.64-1.7l1.12.29a3.69,3.69,0,0,1-3.79,2.48,3.72,3.72,0,0,1-4-4,3.86,3.86,0,0,1,4-4.11c2.69,0,3.91,1.81,3.91,4.4Zm0-.8h5.52a2.52,2.52,0,0,0-2.74-2.51A2.63,2.63,0,0,0,30.87,65.91Z"/><path class="cls-4" d="M44.81,70.29l-2.66-3.2-2.58,3.2H38c1.12-1.33,2.26-2.67,3.36-4-1-1.26-2-2.54-3.07-3.81h1.57c.77,1,1.55,2,2.32,3l2.35-3h1.57C45.05,63.73,44,65,43,66.25l3.44,4Z"/><path class="cls-4" d="M49.94,63.51v5.2c0,.37.22.67.88.67a2.23,2.23,0,0,0,.91-.19v.91a3,3,0,0,1-1.5.35,1.36,1.36,0,0,1-1.52-1.31V63.51h-1.5v-1h1.5v-2h1.23v2h1.79v1Z"/><path class="cls-4" d="M53.39,60a.61.61,0,0,1,.64-.62.6.6,0,0,1,.62.62v.74a.59.59,0,0,1-.62.61.6.6,0,0,1-.64-.61Zm0,10.28V62.48h1.23v7.81Z"/><path class="cls-4" d="M62.94,70.29v-5c0-1.22-.8-1.94-2.19-1.94a2.37,2.37,0,0,0-2.5,2.43v4.5H57V62.48h1.22c0,.46,0,.93,0,1.39l0,0a3,3,0,0,1,2.83-1.6c1.89,0,3.11,1.1,3.11,2.71v5.3Z"/><path class="cls-4" d="M68.3,63.51v5.2c0,.37.22.67.88.67a2.23,2.23,0,0,0,.91-.19v.91a3,3,0,0,1-1.5.35,1.36,1.36,0,0,1-1.52-1.31V63.51h-1.5v-1h1.5v-2H68.3v2h1.79v1Z"/><path class="cls-4" d="M71.1,66.39a4.06,4.06,0,1,1,4,4.07A3.85,3.85,0,0,1,71.1,66.39Zm1.18,0a2.75,2.75,0,0,0,2.86,3,2.79,2.79,0,0,0,2.88-3,2.88,2.88,0,1,0-5.75,0Z"/><path class="cls-4" d="M85.2,63.48c-2.32,0-2.8,1.87-2.8,3.71v3.11H81.17V62.48h1.22c0,.69,0,1.33-.06,2a3.05,3.05,0,0,1,2.88-2.14Z"/><path class="cls-4" d="M96,70.29V68.68a3.14,3.14,0,0,1-3,1.76,3.74,3.74,0,0,1-3.86-4,3.82,3.82,0,0,1,4-4.11A3.38,3.38,0,0,1,96.08,64s0-1,0-1.52h1.2v7.81Zm-5.62-3.89a2.68,2.68,0,0,0,2.72,3,2.79,2.79,0,0,0,2.85-3,2.69,2.69,0,0,0-2.85-3A2.77,2.77,0,0,0,90.41,66.41Z"/><path class="cls-4" d="M99,66.47a3.88,3.88,0,0,1,4.13-4.18,3.37,3.37,0,0,1,3.55,2.56l-1.12.34a2.28,2.28,0,0,0-2.5-1.79,2.77,2.77,0,0,0-2.87,3.07,2.63,2.63,0,0,0,2.77,2.9,2.92,2.92,0,0,0,2.71-1.82l1.09.24A3.59,3.59,0,0,1,103,70.44,3.73,3.73,0,0,1,99,66.47Z"/><path class="cls-4" d="M108.17,66.47a3.88,3.88,0,0,1,4.13-4.18,3.37,3.37,0,0,1,3.55,2.56l-1.12.34a2.28,2.28,0,0,0-2.5-1.79,2.77,2.77,0,0,0-2.87,3.07,2.63,2.63,0,0,0,2.77,2.9,2.92,2.92,0,0,0,2.71-1.82l1.09.24a3.59,3.59,0,0,1-3.78,2.66A3.73,3.73,0,0,1,108.17,66.47Z"/><path class="cls-4" d="M117.72,60a.61.61,0,0,1,.64-.62A.6.6,0,0,1,119,60v.74a.59.59,0,0,1-.62.61.6.6,0,0,1-.64-.61Zm0,10.28V62.48H119v7.81Z"/><path class="cls-4" d="M127.73,70.29v-1.6a3.36,3.36,0,0,1-3,1.76c-2.42,0-3.81-1.75-3.81-4.08s1.5-4.11,3.86-4.11a3.44,3.44,0,0,1,3,1.71s0-1.2,0-1.83V59.44h1.22V70.29Zm-5.6-3.92c0,1.75,1,3,2.72,3a2.83,2.83,0,0,0,2.85-3,2.7,2.7,0,0,0-2.85-3A2.77,2.77,0,0,0,122.13,66.37Z"/><path class="cls-4" d="M132.08,66.71a2.52,2.52,0,0,0,2.79,2.66,2.65,2.65,0,0,0,2.64-1.7l1.12.29a4,4,0,0,1-7.76-1.55,3.86,3.86,0,0,1,4-4.11c2.69,0,3.91,1.81,3.91,4.4Zm0-.8h5.52a2.52,2.52,0,0,0-2.74-2.51A2.63,2.63,0,0,0,132.08,65.91Z"/><path class="cls-4" d="M146.62,70.29v-5c0-1.22-.8-1.94-2.19-1.94a2.37,2.37,0,0,0-2.5,2.43v4.5H140.7V62.48h1.22c0,.46,0,.93,0,1.39l0,0a3,3,0,0,1,2.83-1.6c1.89,0,3.11,1.1,3.11,2.71v5.3Z"/><path class="cls-4" d="M152,63.51v5.2c0,.37.22.67.88.67a2.23,2.23,0,0,0,.91-.19v.91a3,3,0,0,1-1.5.35,1.36,1.36,0,0,1-1.52-1.31V63.51h-1.5v-1h1.5v-2H152v2h1.79v1Z"/><path class="cls-4" d="M161.63,70.29V68.68a3.14,3.14,0,0,1-3,1.76,3.74,3.74,0,0,1-3.86-4,3.82,3.82,0,0,1,4-4.11A3.38,3.38,0,0,1,161.68,64s0-1,0-1.52h1.2v7.81ZM156,66.41a2.68,2.68,0,0,0,2.72,3,2.79,2.79,0,0,0,2.85-3,2.69,2.69,0,0,0-2.85-3A2.77,2.77,0,0,0,156,66.41Z"/><path class="cls-4" d="M165.1,70.29V59.44h1.23V70.29Z"/><path class="cls-4" d="M179.22,70.29v-5a1.69,1.69,0,0,0-1.87-1.94,2.08,2.08,0,0,0-2.16,2.08v4.85H174v-5A1.72,1.72,0,0,0,172,63.36a1.7,1.7,0,0,0-.77.19c-1.12.35-1.33,1.5-1.33,2.56v4.18h-1.23V62.48h1.22c0,.46,0,.94,0,1.41h0a2.41,2.41,0,0,1,2.51-1.55,2.46,2.46,0,0,1,2.53,1.6,2.75,2.75,0,0,1,2.71-1.65,2.46,2.46,0,0,1,2.8,2.71v5.3Z"/><path class="cls-4" d="M183.51,66.71a2.52,2.52,0,0,0,2.79,2.66,2.65,2.65,0,0,0,2.64-1.7l1.12.29a4,4,0,0,1-7.76-1.55,3.86,3.86,0,0,1,4-4.11c2.69,0,3.91,1.81,3.91,4.4Zm0-.8H189a2.52,2.52,0,0,0-2.74-2.51A2.63,2.63,0,0,0,183.51,65.91Z"/><path class="cls-4" d="M198.06,70.29v-5c0-1.22-.8-1.94-2.19-1.94a2.37,2.37,0,0,0-2.5,2.43v4.5h-1.23V62.48h1.22c0,.46,0,.93,0,1.39l0,0a3,3,0,0,1,2.83-1.6c1.89,0,3.11,1.1,3.11,2.71v5.3Z"/><path class="cls-4" d="M203.42,63.51v5.2c0,.37.22.67.88.67a2.23,2.23,0,0,0,.91-.19v.91a3,3,0,0,1-1.5.35,1.36,1.36,0,0,1-1.52-1.31V63.51h-1.5v-1h1.5v-2h1.23v2h1.79v1Z"/><path class="cls-4" d="M207.44,66.71a2.52,2.52,0,0,0,2.79,2.66,2.65,2.65,0,0,0,2.64-1.7L214,68a4,4,0,0,1-7.76-1.55,3.86,3.86,0,0,1,4-4.11c2.69,0,3.91,1.81,3.91,4.4Zm0-.8H213a2.52,2.52,0,0,0-2.74-2.51A2.63,2.63,0,0,0,207.44,65.91Z"/><path class="cls-4" d="M216,70.29V68.57h1.31v1.73Z"/><path class="cls-5" d="M32.35,22.69a2.66,2.66,0,0,1,2,.8,2.79,2.79,0,0,1,.7,2v1.68a2.69,2.69,0,0,1-.8,2,2.61,2.61,0,0,1-1.93.81h-1v4.36H29.6V22.69Zm1,2.79a1,1,0,0,0-.27-.73,1,1,0,0,0-.72-.28H31.34v3.7h1.05a1,1,0,0,0,.71-.29,1,1,0,0,0,.29-.71Z"/><path class="cls-5" d="M39.86,31.6l-.42,2.66H37.62l2-11.57H42l1.94,11.57H42.09l-.41-2.66Zm.92-6.26-.65,4.56h1.29Z"/><path class="cls-5" d="M52.57,31.37a3.26,3.26,0,0,1-.63,2.07,2.26,2.26,0,0,1-1.2.82,3.25,3.25,0,0,1-1,.13,2.74,2.74,0,0,1-1.7-.51,2.85,2.85,0,0,1-.89-1.13,4.55,4.55,0,0,1-.38-1.64L48.46,31A2.53,2.53,0,0,0,49,32.46a.9.9,0,0,0,.72.33,1.08,1.08,0,0,0,.91-.56,1.39,1.39,0,0,0,.18-.77A2.13,2.13,0,0,0,50.15,30L48.6,28.55A6.64,6.64,0,0,1,47.37,27,3.48,3.48,0,0,1,47,25.42,2.83,2.83,0,0,1,48,23a2.63,2.63,0,0,1,1.63-.49,3,3,0,0,1,1.6.42,2.4,2.4,0,0,1,.83.9,3.35,3.35,0,0,1,.38,1.34l-1.67.3a2,2,0,0,0-.41-1.11.85.85,0,0,0-.69-.29.8.8,0,0,0-.73.42,1.65,1.65,0,0,0-.2.85A2.55,2.55,0,0,0,49.46,27a5.76,5.76,0,0,0,.78.74q.61.51.8.71a5.93,5.93,0,0,1,1,1.27,5,5,0,0,1,.27.54A3.19,3.19,0,0,1,52.57,31.37Z"/><path class="cls-5" d="M57.71,31.6l-.42,2.66H55.47l2-11.57h2.4l1.94,11.57H59.95l-.41-2.66Zm.92-6.26L58,29.9h1.29Z"/><path class="cls-5" d="M70.36,31.49a2.69,2.69,0,0,1-.8,2,2.62,2.62,0,0,1-1.94.81H64.88V22.68h2.74a2.62,2.62,0,0,1,1.94.81,2.68,2.68,0,0,1,.8,1.95Zm-3.74,1h1.05a.93.93,0,0,0,.7-.3,1,1,0,0,0,.29-.71V25.46a1,1,0,0,0-.29-.71.94.94,0,0,0-.7-.29H66.62Z"/><path class="cls-5" d="M76.22,22.54A2.77,2.77,0,0,1,79,25.31v6.31a2.77,2.77,0,1,1-5.53,0V25.31a2.77,2.77,0,0,1,2.76-2.77Zm1,2.73a1,1,0,0,0-1-1,1,1,0,0,0-.71.29,1,1,0,0,0-.29.71v6.33a1,1,0,0,0,.29.71,1,1,0,0,0,.71.29,1,1,0,0,0,1-1Z"/><path class="cls-5" d="M84.85,22.69a2.66,2.66,0,0,1,2.14.8,2.92,2.92,0,0,1,.6,2v1.68a2.7,2.7,0,0,1-.93,2.08L88,34.25H86.06L85,29.9H83.84v4.36H82.1V22.69Zm1,2.79a.89.89,0,0,0-1-1H83.84v3.7h1.05a1,1,0,0,0,.71-.29,1,1,0,0,0,.29-.71Z"/><path class="cls-5" d="M99.63,31.49a2.69,2.69,0,0,1-.8,2,2.62,2.62,0,0,1-1.94.81H94.15V22.68h2.74a2.62,2.62,0,0,1,1.94.81,2.68,2.68,0,0,1,.8,1.95Zm-3.74,1h1.05a.93.93,0,0,0,.7-.3,1,1,0,0,0,.29-.71V25.46a1,1,0,0,0-.29-.71.94.94,0,0,0-.7-.29H95.89Z"/><path class="cls-5" d="M102.74,34.25V22.68h5v1.75h-3.22v3.16h2.35v1.75h-2.35V32.5h3.22v1.75Z"/><path class="cls-5" d="M119.67,31.37a3.26,3.26,0,0,1-.63,2.07,2.26,2.26,0,0,1-1.2.82,3.25,3.25,0,0,1-1,.13,2.74,2.74,0,0,1-1.7-.51,2.85,2.85,0,0,1-.89-1.13,4.55,4.55,0,0,1-.38-1.64l1.66-.12a2.53,2.53,0,0,0,.54,1.47.9.9,0,0,0,.72.33,1.08,1.08,0,0,0,.91-.56,1.39,1.39,0,0,0,.18-.77,2.13,2.13,0,0,0-.66-1.43l-1.55-1.47A6.64,6.64,0,0,1,114.47,27a3.48,3.48,0,0,1-.39-1.63A2.83,2.83,0,0,1,115.15,23a2.63,2.63,0,0,1,1.63-.49,3,3,0,0,1,1.6.42,2.4,2.4,0,0,1,.83.9,3.35,3.35,0,0,1,.38,1.34l-1.67.3a2,2,0,0,0-.41-1.11.85.85,0,0,0-.69-.29.8.8,0,0,0-.73.42,1.65,1.65,0,0,0-.2.85,2.55,2.55,0,0,0,.68,1.62,5.76,5.76,0,0,0,.78.74q.61.51.8.71a5.93,5.93,0,0,1,1,1.27,5,5,0,0,1,.27.54A3.19,3.19,0,0,1,119.67,31.37Z"/><path class="cls-5" d="M122.77,34.25V22.68h5v1.75h-3.22v3.16h2.35v1.75h-2.35V32.5h3.22v1.75Z"/><path class="cls-5" d="M133.57,34.4a2.77,2.77,0,0,1-2.77-2.76V25.33a2.77,2.77,0,1,1,5.53,0v1.32h-1.81V25.29a1,1,0,0,0-1-1,1,1,0,0,0-.71.3,1,1,0,0,0-.29.71v6.33a1,1,0,0,0,1,1,1,1,0,0,0,.71-.29,1,1,0,0,0,.3-.71V29.35h-1V27.6h2.78v4a2.76,2.76,0,0,1-2.76,2.76Z"/><path class="cls-5" d="M142.18,34.38a2.74,2.74,0,0,1-2.76-2.75V22.69h1.71v8.93a1,1,0,0,0,.29.71,1,1,0,0,0,.71.29,1,1,0,0,0,1-1V22.69H145v8.95a2.63,2.63,0,0,1-.81,2A2.7,2.7,0,0,1,142.18,34.38Z"/><path class="cls-5" d="M150.81,22.69a2.66,2.66,0,0,1,2.14.8,2.92,2.92,0,0,1,.6,2v1.68a2.7,2.7,0,0,1-.93,2.08l1.29,5.05H152L151,29.9H149.8v4.36h-1.74V22.69Zm1,2.79a.89.89,0,0,0-1-1H149.8v3.7h1.05a1,1,0,0,0,.71-.29,1,1,0,0,0,.29-.71Z"/><path class="cls-5" d="M158.75,34.25H157V22.69h1.74Z"/><path class="cls-5" d="M167.35,31.49a2.69,2.69,0,0,1-.8,2,2.62,2.62,0,0,1-1.94.81h-2.74V22.68h2.74a2.62,2.62,0,0,1,1.94.81,2.68,2.68,0,0,1,.8,1.95Zm-3.74,1h1.05a.93.93,0,0,0,.7-.3,1,1,0,0,0,.29-.71V25.46a1,1,0,0,0-.29-.71.94.94,0,0,0-.7-.29h-1.05Z"/><path class="cls-5" d="M172.5,31.6l-.42,2.66h-1.82l2-11.57h2.4l1.94,11.57h-1.83l-.41-2.66Zm.92-6.26-.65,4.56h1.29Z"/><path class="cls-5" d="M185.15,31.49a2.69,2.69,0,0,1-.8,2,2.62,2.62,0,0,1-1.94.81h-2.74V22.68h2.74a2.62,2.62,0,0,1,1.94.81,2.68,2.68,0,0,1,.8,1.95Zm-3.74,1h1.05a.93.93,0,0,0,.7-.3,1,1,0,0,0,.29-.71V25.46a1,1,0,0,0-.29-.71.94.94,0,0,0-.7-.29h-1.05Z"/></g></g></g></svg>