<svg xmlns="http://www.w3.org/2000/svg" viewBox="0 0 347.47 151.92"><defs><style>.cls-1{isolation:isolate;}.cls-2{opacity:0.6;mix-blend-mode:overlay;}.cls-3{fill:#fff;}.cls-4{fill:#ed0531;}.cls-5{fill:#909090;}</style></defs><title>b2</title><g class="cls-1"><g id="Capa_2" data-name="Capa 2"><g id="Capa_7" data-name="Capa 7"><g class="cls-2"><rect y="23.26" width="342.97" height="128.66" rx="12.04" ry="12.04"/></g><rect class="cls-3" width="347.47" height="144.36" rx="12.32" ry="12.32"/><path class="cls-4" d="M29.6,34.25V22.68h5v1.75H31.34v3.16H33.7v1.75H31.34V32.5h3.22v1.75Z"/><path class="cls-4" d="M39.52,24.44H37.66V22.69h5.45v1.75H41.26v9.81H39.52Z"/><path class="cls-4" d="M48,34.25H46.21V22.69H48Z"/><path class="cls-4" d="M56.59,31.62A2.72,2.72,0,0,1,56.22,33a.83.83,0,0,0,.66.27V34.9a1.9,1.9,0,0,1-1.79-.82,2.61,2.61,0,0,1-1.26.31,2.77,2.77,0,0,1-2.77-2.77V25.31a2.77,2.77,0,1,1,5.53,0Zm-1.81-6.35a1,1,0,0,0-.3-.71,1,1,0,0,0-.71-.29,1,1,0,0,0-1,1v6.33a1,1,0,0,0,1,1,1,1,0,0,0,.71-.29,1,1,0,0,0,.3-.71Z"/><path class="cls-4" d="M62.59,34.38a2.74,2.74,0,0,1-2.76-2.75V22.69h1.71v8.93a1,1,0,0,0,.29.71,1,1,0,0,0,.71.29,1,1,0,0,0,1-1V22.69h1.82v8.95a2.63,2.63,0,0,1-.81,2A2.7,2.7,0,0,1,62.59,34.38Z"/><path class="cls-4" d="M68.47,34.25V22.68h5v1.75H70.21v3.16h2.35v1.75H70.21V32.5h3.22v1.75Z"/><path class="cls-4" d="M78.39,24.44H76.53V22.69H82v1.75H80.14v9.81H78.39Z"/><path class="cls-4" d="M86.5,31.6l-.42,2.66H84.26l2-11.57h2.4l1.94,11.57H88.73l-.41-2.66Zm.92-6.26-.65,4.56h1.29Z"/><path class="cls-4" d="M102.25,31.49a2.69,2.69,0,0,1-.8,2,2.62,2.62,0,0,1-1.94.81H96.77V22.68h2.74a2.62,2.62,0,0,1,1.94.81,2.68,2.68,0,0,1,.8,1.95Zm-3.74,1h1.05a.93.93,0,0,0,.7-.3,1,1,0,0,0,.29-.71V25.46a1,1,0,0,0-.29-.71.94.94,0,0,0-.7-.29H98.51Z"/><path class="cls-4" d="M105.35,34.25V22.68h5v1.75H107.1v3.16h2.35v1.75H107.1V32.5h3.22v1.75Z"/><path class="cls-4" d="M116.52,34.25V22.68h5v1.75h-3.22v3.16h2.35v1.75h-2.35V32.5h3.22v1.75Z"/><path class="cls-4" d="M130.25,31.37a3.26,3.26,0,0,1-.63,2.07,2.26,2.26,0,0,1-1.2.82,3.25,3.25,0,0,1-1,.13,2.74,2.74,0,0,1-1.7-.51,2.85,2.85,0,0,1-.89-1.13,4.55,4.55,0,0,1-.38-1.64l1.66-.12a2.53,2.53,0,0,0,.54,1.47.9.9,0,0,0,.72.33,1.08,1.08,0,0,0,.91-.56,1.39,1.39,0,0,0,.18-.77,2.13,2.13,0,0,0-.66-1.43l-1.55-1.47A6.64,6.64,0,0,1,125,27a3.48,3.48,0,0,1-.39-1.63A2.83,2.83,0,0,1,125.72,23a2.63,2.63,0,0,1,1.63-.49,3,3,0,0,1,1.6.42,2.4,2.4,0,0,1,.83.9,3.35,3.35,0,0,1,.38,1.34l-1.67.3a2,2,0,0,0-.41-1.11.85.85,0,0,0-.69-.29.8.8,0,0,0-.73.42,1.65,1.65,0,0,0-.2.85,2.55,2.55,0,0,0,.68,1.62,5.76,5.76,0,0,0,.78.74q.61.51.8.71a5.93,5.93,0,0,1,1,1.27,5,5,0,0,1,.27.54A3.19,3.19,0,0,1,130.25,31.37Z"/><path class="cls-4" d="M136.1,22.69a2.66,2.66,0,0,1,2,.8,2.79,2.79,0,0,1,.7,2v1.68a2.69,2.69,0,0,1-.8,2,2.61,2.61,0,0,1-1.93.81h-1v4.36h-1.74V22.69Zm1,2.79a1,1,0,0,0-.27-.73,1,1,0,0,0-.72-.28h-1.05v3.7h1.05a1,1,0,0,0,.71-.29,1,1,0,0,0,.29-.71Z"/><path class="cls-4" d="M141.93,34.25V22.68h5v1.75h-3.22v3.16H146v1.75h-2.35V32.5h3.22v1.75Z"/><path class="cls-4" d="M152.73,34.4A2.76,2.76,0,0,1,150,31.64V25.33a2.77,2.77,0,1,1,5.53,0v1.32h-1.81V25.29a1,1,0,0,0-1-1,1,1,0,0,0-.71.3,1,1,0,0,0-.29.71v6.33a1,1,0,0,0,1,1,1,1,0,0,0,.71-.29,1,1,0,0,0,.3-.71V30h1.81v1.62a2.76,2.76,0,0,1-2.76,2.76Z"/><path class="cls-4" d="M160.32,34.25h-1.74V22.69h1.74Z"/><path class="cls-4" d="M165.18,34.25h-1.74V22.68h5v1.75h-3.22v3.16h2.35v1.75h-2.35Z"/><path class="cls-4" d="M173.25,34.25h-1.74V22.69h1.74Z"/><path class="cls-4" d="M179.13,34.4a2.76,2.76,0,0,1-2.77-2.76V25.33a2.77,2.77,0,1,1,5.53,0v1.32h-1.81V25.29a1,1,0,0,0-1-1,1,1,0,0,0-.71.3,1,1,0,0,0-.29.71v6.33a1,1,0,0,0,1,1,1,1,0,0,0,.71-.29,1,1,0,0,0,.3-.71V30h1.81v1.62a2.76,2.76,0,0,1-2.76,2.76Z"/><path class="cls-4" d="M187,31.6l-.42,2.66h-1.82l2-11.57h2.4l1.94,11.57h-1.83l-.41-2.66Zm.92-6.26-.65,4.56h1.29Z"/><path class="cls-4" d="M196.8,34.4A2.76,2.76,0,0,1,194,31.64V25.33a2.77,2.77,0,1,1,5.53,0v1.32h-1.81V25.29a1,1,0,0,0-1-1,1,1,0,0,0-.71.3,1,1,0,0,0-.29.71v6.33a1,1,0,0,0,1,1,1,1,0,0,0,.71-.29,1,1,0,0,0,.3-.71V30h1.81v1.62a2.76,2.76,0,0,1-2.76,2.76Z"/><path class="cls-4" d="M204.4,34.25h-1.74V22.69h1.74Z"/><path class="cls-4" d="M210.27,22.54A2.77,2.77,0,0,1,213,25.31v6.31a2.77,2.77,0,1,1-5.53,0V25.31a2.77,2.77,0,0,1,2.76-2.77Zm1,2.73a1,1,0,0,0-1-1,1,1,0,0,0-.71.29,1,1,0,0,0-.29.71v6.33a1,1,0,0,0,.29.71,1,1,0,0,0,.71.29,1,1,0,0,0,1-1Z"/><path class="cls-4" d="M218.11,22.68l2.32,7.78V22.68h1.75V34.25h-1.87l-2.4-7.41v7.41h-1.74V22.68Z"/><path class="cls-4" d="M225.29,34.25V22.68h5v1.75H227v3.16h2.35v1.75H227V32.5h3.22v1.75Z"/><path class="cls-4" d="M239,31.37a3.26,3.26,0,0,1-.63,2.07,2.26,2.26,0,0,1-1.2.82,3.25,3.25,0,0,1-1,.13,2.74,2.74,0,0,1-1.7-.51,2.85,2.85,0,0,1-.89-1.13,4.55,4.55,0,0,1-.38-1.64L234.9,31a2.53,2.53,0,0,0,.54,1.47.9.9,0,0,0,.72.33,1.08,1.08,0,0,0,.91-.56,1.39,1.39,0,0,0,.18-.77A2.13,2.13,0,0,0,236.6,30L235,28.55A6.64,6.64,0,0,1,233.82,27a3.48,3.48,0,0,1-.39-1.63A2.83,2.83,0,0,1,234.49,23a2.63,2.63,0,0,1,1.63-.49,3,3,0,0,1,1.6.42,2.4,2.4,0,0,1,.83.9,3.35,3.35,0,0,1,.38,1.34l-1.67.3a2,2,0,0,0-.41-1.11.85.85,0,0,0-.69-.29.8.8,0,0,0-.73.42,1.65,1.65,0,0,0-.2.85,2.55,2.55,0,0,0,.68,1.62,5.76,5.76,0,0,0,.78.74q.61.51.8.71a5.93,5.93,0,0,1,1,1.27,5,5,0,0,1,.27.54A3.19,3.19,0,0,1,239,31.37Z"/><path class="cls-5" d="M38.78,44.16a3.92,3.92,0,0,0-3.47-1.68,4.16,4.16,0,0,0-4.43,4.4,4.11,4.11,0,0,0,4.31,4.29,4,4,0,0,0,3.52-1.58l1.12.53a5.48,5.48,0,0,1-4.58,2.32c-3.55,0-5.67-2.27-5.67-5.51,0-3.49,2.34-5.63,5.76-5.63a5.23,5.23,0,0,1,4.61,2.4Z"/><path class="cls-5" d="M41.12,48.39a3.85,3.85,0,0,1,4-4.1,3.81,3.81,0,0,1,4.07,4.1,3.82,3.82,0,0,1-4.08,4.07A3.86,3.86,0,0,1,41.12,48.39Zm1.18,0a2.75,2.75,0,0,0,2.86,3,2.79,2.79,0,0,0,2.88-3,2.88,2.88,0,1,0-5.75,0Z"/><path class="cls-5" d="M57.11,52.29v-5c0-1.22-.8-1.94-2.19-1.94a2.37,2.37,0,0,0-2.5,2.43v4.5H51.18V44.48H52.4c0,.46,0,.93,0,1.39l0,0a3,3,0,0,1,2.83-1.6c1.89,0,3.11,1.1,3.11,2.71v5.3Z"/><path class="cls-5" d="M62.47,45.51v5.2c0,.37.22.67.88.67a2.23,2.23,0,0,0,.91-.19v.91a3,3,0,0,1-1.5.35,1.36,1.36,0,0,1-1.52-1.31V45.51h-1.5v-1h1.5v-2h1.23v2h1.79v1Z"/><path class="cls-5" d="M65.92,42a.61.61,0,0,1,.64-.62.6.6,0,0,1,.62.62v.74a.59.59,0,0,1-.62.61.6.6,0,0,1-.64-.61Zm0,10.28V44.48h1.23v7.81Z"/><path class="cls-5" d="M70.29,48.71a2.52,2.52,0,0,0,2.79,2.66,2.65,2.65,0,0,0,2.64-1.7l1.12.29a4,4,0,0,1-7.76-1.55,3.86,3.86,0,0,1,4-4.11c2.69,0,3.91,1.81,3.91,4.4Zm0-.8h5.52a2.52,2.52,0,0,0-2.74-2.51A2.63,2.63,0,0,0,70.29,47.91Z"/><path class="cls-5" d="M84.84,52.29v-5c0-1.22-.8-1.94-2.19-1.94a2.37,2.37,0,0,0-2.5,2.43v4.5H78.92V44.48h1.22c0,.46,0,.93,0,1.39l0,0A3,3,0,0,1,83,44.29c1.89,0,3.11,1.1,3.11,2.71v5.3Z"/><path class="cls-5" d="M89.11,48.71a2.52,2.52,0,0,0,2.79,2.66,2.65,2.65,0,0,0,2.64-1.7l1.12.29a4,4,0,0,1-7.76-1.55,3.86,3.86,0,0,1,4-4.11c2.69,0,3.91,1.81,3.91,4.4Zm0-.8h5.52A2.52,2.52,0,0,0,91.9,45.4,2.63,2.63,0,0,0,89.11,47.91Z"/><path class="cls-5" d="M107.42,52.29v-1.6a3.36,3.36,0,0,1-3,1.76c-2.42,0-3.81-1.75-3.81-4.08s1.5-4.11,3.86-4.11a3.44,3.44,0,0,1,3,1.71s0-1.2,0-1.83V41.44h1.22V52.29Zm-5.6-3.92c0,1.75,1,3,2.72,3a2.83,2.83,0,0,0,2.85-3,2.7,2.7,0,0,0-2.85-3A2.77,2.77,0,0,0,101.81,48.37Z"/><path class="cls-5" d="M117.4,52.29V50.68a3.14,3.14,0,0,1-3,1.76,3.74,3.74,0,0,1-3.86-4,3.82,3.82,0,0,1,4-4.11A3.38,3.38,0,0,1,117.45,46s0-1,0-1.52h1.2v7.81Zm-5.62-3.89a2.68,2.68,0,0,0,2.72,3,2.79,2.79,0,0,0,2.85-3,2.69,2.69,0,0,0-2.85-3A2.77,2.77,0,0,0,111.78,48.41Z"/><path class="cls-5" d="M122.82,45.51v5.2c0,.37.22.67.88.67a2.23,2.23,0,0,0,.91-.19v.91a3,3,0,0,1-1.5.35,1.36,1.36,0,0,1-1.52-1.31V45.51h-1.5v-1h1.5v-2h1.23v2h1.79v1Z"/><path class="cls-5" d="M125.62,48.39a4.06,4.06,0,1,1,8.12,0,4.06,4.06,0,1,1-8.12,0Zm1.18,0a2.75,2.75,0,0,0,2.86,3,2.79,2.79,0,0,0,2.88-3,2.88,2.88,0,1,0-5.75,0Z"/><path class="cls-5" d="M135.22,49.83l1.25,0c0,1.07.82,1.7,2.29,1.7.94,0,2-.43,2-1.38,0-2-5.39-.29-5.39-3.52,0-1.42,1.52-2.29,3.14-2.29,2.21,0,3.27,1,3.39,2.59-.42,0-.83.06-1.25.08-.08-1.06-.8-1.63-2.18-1.63-1,0-1.92.5-1.92,1.31,0,1.94,5.43.32,5.43,3.46,0,1.62-1.66,2.34-3.33,2.34C136.43,52.44,135.3,51.49,135.22,49.83Z"/><path class="cls-5" d="M148.13,48.71a2.52,2.52,0,0,0,2.79,2.66,2.65,2.65,0,0,0,2.64-1.7l1.12.29a4,4,0,0,1-7.76-1.55,3.86,3.86,0,0,1,4-4.11c2.69,0,3.91,1.81,3.91,4.4Zm0-.8h5.52a2.52,2.52,0,0,0-2.74-2.51A2.63,2.63,0,0,0,148.13,47.91Z"/><path class="cls-5" d="M156.32,49.83l1.25,0c0,1.07.82,1.7,2.29,1.7.94,0,2-.43,2-1.38,0-2-5.39-.29-5.39-3.52,0-1.42,1.52-2.29,3.14-2.29,2.21,0,3.27,1,3.39,2.59-.42,0-.83.06-1.25.08-.08-1.06-.8-1.63-2.18-1.63-1,0-1.92.5-1.92,1.31,0,1.94,5.43.32,5.43,3.46,0,1.62-1.66,2.34-3.33,2.34C157.53,52.44,156.4,51.49,156.32,49.83Z"/><path class="cls-5" d="M165.86,48.71a2.52,2.52,0,0,0,2.79,2.66,2.65,2.65,0,0,0,2.64-1.7l1.12.29a4,4,0,0,1-7.76-1.55,3.86,3.86,0,0,1,4-4.11c2.69,0,3.91,1.81,3.91,4.4Zm0-.8h5.52a2.52,2.52,0,0,0-2.74-2.51A2.63,2.63,0,0,0,165.86,47.91Z"/><path class="cls-5" d="M180.41,52.29v-5c0-1.22-.8-1.94-2.19-1.94a2.37,2.37,0,0,0-2.5,2.43v4.5h-1.23V44.48h1.22c0,.46,0,.93,0,1.39l0,0a3,3,0,0,1,2.83-1.6c1.89,0,3.11,1.1,3.11,2.71v5.3Z"/><path class="cls-5" d="M183.47,48.47a3.88,3.88,0,0,1,4.13-4.18,3.37,3.37,0,0,1,3.55,2.56l-1.12.34a2.28,2.28,0,0,0-2.5-1.79,2.77,2.77,0,0,0-2.87,3.07,2.63,2.63,0,0,0,2.77,2.9,2.92,2.92,0,0,0,2.71-1.82l1.09.24a3.59,3.59,0,0,1-3.78,2.66A3.73,3.73,0,0,1,183.47,48.47Z"/><path class="cls-5" d="M193,42a.61.61,0,0,1,.64-.62.6.6,0,0,1,.62.62v.74a.59.59,0,0,1-.62.61.6.6,0,0,1-.64-.61Zm0,10.28V44.48h1.23v7.81Z"/><path class="cls-5" d="M203,52.29V50.68a3.14,3.14,0,0,1-3,1.76,3.74,3.74,0,0,1-3.86-4,3.82,3.82,0,0,1,4-4.11A3.38,3.38,0,0,1,203.07,46s0-1,0-1.52h1.2v7.81Zm-5.62-3.89a2.68,2.68,0,0,0,2.72,3,2.79,2.79,0,0,0,2.85-3,2.69,2.69,0,0,0-2.85-3A2.77,2.77,0,0,0,197.4,48.41Z"/><path class="cls-5" d="M206.49,52.29V41.44h1.23V52.29Z"/><path class="cls-5" d="M210.84,48.71a2.52,2.52,0,0,0,2.79,2.66,2.65,2.65,0,0,0,2.64-1.7l1.12.29a4,4,0,0,1-7.76-1.55,3.86,3.86,0,0,1,4-4.11c2.69,0,3.91,1.81,3.91,4.4Zm0-.8h5.52a2.52,2.52,0,0,0-2.74-2.51A2.63,2.63,0,0,0,210.84,47.91Z"/><path class="cls-5" d="M219,49.83l1.25,0c0,1.07.82,1.7,2.29,1.7.94,0,2-.43,2-1.38,0-2-5.39-.29-5.39-3.52,0-1.42,1.52-2.29,3.14-2.29,2.21,0,3.27,1,3.39,2.59-.42,0-.83.06-1.25.08-.08-1.06-.8-1.63-2.18-1.63-1,0-1.92.5-1.92,1.31,0,1.94,5.43.32,5.43,3.46,0,1.62-1.66,2.34-3.33,2.34C220.24,52.44,219.11,51.49,219,49.83Z"/><path class="cls-5" d="M232.45,50.74c0,.61,0,1.17,0,1.83V55h-1.2V44.48h1.2v.72c0,.29,0,.86,0,.86a3.47,3.47,0,0,1,3-1.78c2.43,0,3.83,1.71,3.83,4.1s-1.47,4.1-3.87,4.1A3.19,3.19,0,0,1,232.45,50.74Zm.06-2.38c0,1.86.94,3.06,2.82,3.06a2.73,2.73,0,0,0,2.72-3,2.73,2.73,0,0,0-2.71-3A2.77,2.77,0,0,0,232.51,48.36Z"/><path class="cls-5" d="M247.63,52.29V50.68a3.14,3.14,0,0,1-3,1.76,3.74,3.74,0,0,1-3.86-4,3.82,3.82,0,0,1,4-4.11A3.38,3.38,0,0,1,247.68,46s0-1,0-1.52h1.2v7.81ZM242,48.41a2.68,2.68,0,0,0,2.72,3,2.79,2.79,0,0,0,2.85-3,2.69,2.69,0,0,0-2.85-3A2.77,2.77,0,0,0,242,48.41Z"/><path class="cls-5" d="M255.15,45.48c-2.32,0-2.8,1.87-2.8,3.71v3.11h-1.23V44.48h1.22c0,.69,0,1.33-.06,2a3.05,3.05,0,0,1,2.88-2.14Z"/><path class="cls-5" d="M262.72,52.29V50.68a3.14,3.14,0,0,1-3,1.76,3.74,3.74,0,0,1-3.86-4,3.82,3.82,0,0,1,4-4.11A3.38,3.38,0,0,1,262.77,46s0-1,0-1.52h1.2v7.81Zm-5.62-3.89a2.68,2.68,0,0,0,2.72,3,2.79,2.79,0,0,0,2.85-3,2.69,2.69,0,0,0-2.85-3A2.77,2.77,0,0,0,257.1,48.41Z"/><path class="cls-5" d="M269.08,49.83l1.25,0c0,1.07.82,1.7,2.29,1.7.94,0,2-.43,2-1.38,0-2-5.39-.29-5.39-3.52,0-1.42,1.52-2.29,3.14-2.29,2.21,0,3.27,1,3.39,2.59-.42,0-.83.06-1.25.08-.08-1.06-.8-1.63-2.18-1.63-1,0-1.92.5-1.92,1.31,0,1.94,5.43.32,5.43,3.46,0,1.62-1.66,2.34-3.33,2.34C270.3,52.44,269.16,51.49,269.08,49.83Z"/><path class="cls-5" d="M283.82,52.29l0-1.47h0a2.88,2.88,0,0,1-2.8,1.63,2.79,2.79,0,0,1-3.12-3v-5h1.23v4.87a1.9,1.9,0,0,0,2.16,2,2.4,2.4,0,0,0,2.51-2.56V44.48H285v7.81Z"/><path class="cls-5" d="M296.59,52.29l0-1.47h0a2.88,2.88,0,0,1-2.8,1.63,2.79,2.79,0,0,1-3.12-3v-5h1.23v4.87a1.9,1.9,0,0,0,2.16,2,2.4,2.4,0,0,0,2.51-2.56V44.48h1.23v7.81Z"/><path class="cls-5" d="M299.69,49.83l1.25,0c0,1.07.82,1.7,2.29,1.7.94,0,2-.43,2-1.38,0-2-5.39-.29-5.39-3.52,0-1.42,1.52-2.29,3.14-2.29,2.21,0,3.27,1,3.39,2.59-.42,0-.83.06-1.25.08-.08-1.06-.8-1.63-2.18-1.63-1,0-1.92.5-1.92,1.31,0,1.94,5.43.32,5.43,3.46,0,1.62-1.66,2.34-3.33,2.34C300.91,52.44,299.77,51.49,299.69,49.83Z"/><path class="cls-5" d="M308,48.39a4.06,4.06,0,1,1,8.12,0,4.06,4.06,0,1,1-8.12,0Zm1.18,0a2.75,2.75,0,0,0,2.86,3,2.79,2.79,0,0,0,2.88-3,2.88,2.88,0,1,0-5.75,0Z"/><path class="cls-5" d="M317.76,46.23V44.48h1.31v1.75Zm0,6.07V50.57h1.31v1.73Z"/><path class="cls-5" d="M29.65,66.65v-1H34.9v1Z"/><path class="cls-5" d="M40.07,70.29V59.44h1.25V70.29Z"/><path class="cls-5" d="M49.64,70.29v-5c0-1.22-.8-1.94-2.19-1.94A2.37,2.37,0,0,0,45,65.8v4.5H43.72V62.48h1.22c0,.46,0,.93,0,1.39l0,0a3,3,0,0,1,2.83-1.6c1.89,0,3.11,1.1,3.11,2.71v5.3Z"/><path class="cls-5" d="M52.75,67.83l1.25,0c0,1.07.82,1.7,2.29,1.7.94,0,2-.43,2-1.38,0-2-5.39-.29-5.39-3.52,0-1.42,1.52-2.29,3.14-2.29,2.21,0,3.27,1,3.39,2.59-.42,0-.83.06-1.25.08-.08-1.06-.8-1.63-2.18-1.63-1,0-1.92.5-1.92,1.31,0,1.94,5.43.32,5.43,3.46,0,1.62-1.66,2.34-3.33,2.34C54,70.44,52.83,69.49,52.75,67.83Z"/><path class="cls-5" d="M63.53,63.51v5.2c0,.37.22.67.88.67a2.23,2.23,0,0,0,.91-.19v.91a3,3,0,0,1-1.5.35,1.36,1.36,0,0,1-1.52-1.31V63.51h-1.5v-1h1.5v-2h1.23v2h1.79v1Z"/><path class="cls-5" d="M71,63.48c-2.32,0-2.8,1.87-2.8,3.71v3.11H67V62.48h1.22c0,.69,0,1.33-.06,2A3.05,3.05,0,0,1,71,62.31Z"/><path class="cls-5" d="M78.38,70.29l0-1.47h0a2.88,2.88,0,0,1-2.8,1.63,2.79,2.79,0,0,1-3.12-3v-5h1.23v4.87a1.9,1.9,0,0,0,2.16,2,2.4,2.4,0,0,0,2.51-2.56V62.48h1.23v7.81Z"/><path class="cls-5" d="M81.41,66.47a3.88,3.88,0,0,1,4.13-4.18,3.37,3.37,0,0,1,3.55,2.56L88,65.19a2.28,2.28,0,0,0-2.5-1.79,2.77,2.77,0,0,0-2.87,3.07,2.63,2.63,0,0,0,2.77,2.9,2.92,2.92,0,0,0,2.71-1.82l1.09.24a3.59,3.59,0,0,1-3.78,2.66A3.73,3.73,0,0,1,81.41,66.47Z"/><path class="cls-5" d="M90.54,66.47a3.88,3.88,0,0,1,4.13-4.18,3.37,3.37,0,0,1,3.55,2.56l-1.12.34a2.28,2.28,0,0,0-2.5-1.79,2.77,2.77,0,0,0-2.87,3.07,2.63,2.63,0,0,0,2.77,2.9,2.92,2.92,0,0,0,2.71-1.82l1.09.24a3.59,3.59,0,0,1-3.78,2.66A3.73,3.73,0,0,1,90.54,66.47Z"/><path class="cls-5" d="M100.09,60a.61.61,0,0,1,.64-.62.6.6,0,0,1,.62.62v.74a.59.59,0,0,1-.62.61.6.6,0,0,1-.64-.61Zm0,10.28V62.48h1.23v7.81Z"/><path class="cls-5" d="M103.23,66.39a4.06,4.06,0,1,1,4,4.07A3.85,3.85,0,0,1,103.23,66.39Zm1.18,0a2.75,2.75,0,0,0,2.86,3,2.79,2.79,0,0,0,2.88-3,2.88,2.88,0,1,0-5.75,0Z"/><path class="cls-5" d="M119.21,70.29v-5c0-1.22-.8-1.94-2.19-1.94a2.37,2.37,0,0,0-2.5,2.43v4.5h-1.23V62.48h1.22c0,.46,0,.93,0,1.39l0,0a3,3,0,0,1,2.83-1.6c1.89,0,3.11,1.1,3.11,2.71v5.3Z"/><path class="cls-5" d="M123.48,66.71a2.52,2.52,0,0,0,2.79,2.66,2.65,2.65,0,0,0,2.64-1.7L130,68a4,4,0,0,1-7.76-1.55,3.86,3.86,0,0,1,4-4.11c2.69,0,3.91,1.81,3.91,4.4Zm0-.8H129a2.52,2.52,0,0,0-2.74-2.51A2.63,2.63,0,0,0,123.48,65.91Z"/><path class="cls-5" d="M131.68,67.83l1.25,0c0,1.07.82,1.7,2.29,1.7.94,0,2-.43,2-1.38,0-2-5.39-.29-5.39-3.52,0-1.42,1.52-2.29,3.14-2.29,2.21,0,3.27,1,3.39,2.59-.42,0-.83.06-1.25.08-.08-1.06-.8-1.63-2.18-1.63-1,0-1.92.5-1.92,1.31,0,1.94,5.43.32,5.43,3.46,0,1.62-1.66,2.34-3.33,2.34C132.89,70.44,131.76,69.49,131.68,67.83Z"/><path class="cls-5" d="M150.22,70.29v-1.6a3.36,3.36,0,0,1-3,1.76c-2.42,0-3.81-1.75-3.81-4.08s1.5-4.11,3.86-4.11a3.44,3.44,0,0,1,3,1.71s0-1.2,0-1.83V59.44h1.22V70.29Zm-5.6-3.92c0,1.75,1,3,2.72,3a2.83,2.83,0,0,0,2.85-3,2.7,2.7,0,0,0-2.85-3A2.77,2.77,0,0,0,144.62,66.37Z"/><path class="cls-5" d="M154.57,66.71a2.52,2.52,0,0,0,2.79,2.66,2.65,2.65,0,0,0,2.64-1.7l1.12.29a4,4,0,0,1-7.76-1.55,3.86,3.86,0,0,1,4-4.11c2.69,0,3.91,1.81,3.91,4.4Zm0-.8h5.52a2.52,2.52,0,0,0-2.74-2.51A2.63,2.63,0,0,0,154.57,65.91Z"/><path class="cls-5" d="M172.49,70.29l0-1.47h0a2.88,2.88,0,0,1-2.8,1.63,2.79,2.79,0,0,1-3.12-3v-5h1.23v4.87a1.9,1.9,0,0,0,2.16,2,2.4,2.4,0,0,0,2.51-2.56V62.48h1.23v7.81Z"/><path class="cls-5" d="M175.59,67.83l1.25,0c0,1.07.82,1.7,2.29,1.7.94,0,2-.43,2-1.38,0-2-5.39-.29-5.39-3.52,0-1.42,1.52-2.29,3.14-2.29,2.21,0,3.27,1,3.39,2.59-.42,0-.83.06-1.25.08-.08-1.06-.8-1.63-2.18-1.63-1,0-1.92.5-1.92,1.31,0,1.94,5.43.32,5.43,3.46,0,1.62-1.66,2.34-3.33,2.34C176.8,70.44,175.67,69.49,175.59,67.83Z"/><path class="cls-5" d="M183.92,66.39a4.06,4.06,0,1,1,4,4.07A3.85,3.85,0,0,1,183.92,66.39Zm1.18,0a2.75,2.75,0,0,0,2.86,3,2.79,2.79,0,0,0,2.88-3,2.88,2.88,0,1,0-5.75,0Z"/><path class="cls-5" d="M193.78,70.29V68.57h1.31v1.73Z"/><path class="cls-5" d="M29.65,84.65v-1H34.9v1Z"/><path class="cls-5" d="M44.28,78.53v9.76H43V78.53h-4V77.44H48.2v1.09Z"/><path class="cls-5" d="M49.62,78a.61.61,0,0,1,.64-.62.6.6,0,0,1,.62.62v.74a.59.59,0,0,1-.62.61.6.6,0,0,1-.64-.61Zm0,10.28V80.48h1.23v7.81Z"/><path class="cls-5" d="M54.43,86.74c0,.61,0,1.17,0,1.83V91h-1.2V80.48h1.2v.72c0,.29,0,.86,0,.86a3.47,3.47,0,0,1,3-1.78c2.43,0,3.83,1.71,3.83,4.1s-1.47,4.1-3.87,4.1A3.19,3.19,0,0,1,54.43,86.74Zm.06-2.38c0,1.86.94,3.06,2.82,3.06a3,3,0,0,0,0-6A2.77,2.77,0,0,0,54.49,84.36Z"/><path class="cls-5" d="M62.76,84.39a4.06,4.06,0,1,1,4,4.07A3.85,3.85,0,0,1,62.76,84.39Zm1.18,0a2.75,2.75,0,0,0,2.86,3,2.79,2.79,0,0,0,2.88-3,2.88,2.88,0,1,0-5.75,0Z"/><path class="cls-5" d="M82.45,88.29v-1.6a3.36,3.36,0,0,1-3,1.76c-2.42,0-3.81-1.75-3.81-4.08s1.5-4.11,3.86-4.11a3.44,3.44,0,0,1,3,1.71s0-1.2,0-1.83V77.44h1.22V88.29Zm-5.6-3.92c0,1.75,1,3,2.72,3a2.83,2.83,0,0,0,2.85-3,2.7,2.7,0,0,0-2.85-3A2.77,2.77,0,0,0,76.84,84.37Z"/><path class="cls-5" d="M86.79,84.71a2.52,2.52,0,0,0,2.79,2.66,2.65,2.65,0,0,0,2.64-1.7l1.12.29a4,4,0,0,1-7.76-1.55,3.86,3.86,0,0,1,4-4.11c2.69,0,3.91,1.81,3.91,4.4Zm0-.8h5.52a2.52,2.52,0,0,0-2.74-2.51A2.63,2.63,0,0,0,86.79,83.91Z"/><path class="cls-5" d="M107,88.29l-1.34-3.07h-5.44l-1.38,3.07H97.49l5-10.85h1.18l4.82,10.85Zm-4-9.2-2.31,5.07h4.53Z"/><path class="cls-5" d="M110,89.14a5.19,5.19,0,0,0,2.88,1c1.78,0,3-.88,3-2.75v-.91a3.37,3.37,0,0,1-3,1.78A3.65,3.65,0,0,1,109,84.33a3.76,3.76,0,0,1,3.94-4A3.15,3.15,0,0,1,115.86,82s0-1,0-1.55H117v7c0,2.27-1.5,3.68-4,3.68a6.06,6.06,0,0,1-3.43-1.07C109.67,89.78,109.86,89.46,110,89.14Zm.34-4.83A2.62,2.62,0,0,0,113,87.16a2.68,2.68,0,0,0,2.77-2.82,2.72,2.72,0,1,0-5.43,0Z"/><path class="cls-5" d="M120.12,84.71a2.52,2.52,0,0,0,2.79,2.66,2.65,2.65,0,0,0,2.64-1.7l1.12.29a4,4,0,0,1-7.76-1.55,3.86,3.86,0,0,1,4-4.11c2.69,0,3.91,1.81,3.91,4.4Zm0-.8h5.52a2.52,2.52,0,0,0-2.74-2.51A2.63,2.63,0,0,0,120.12,83.91Z"/><path class="cls-5" d="M134.67,88.29v-5c0-1.22-.8-1.94-2.19-1.94A2.37,2.37,0,0,0,130,83.8v4.5h-1.23V80.48H130c0,.46,0,.93,0,1.39l0,0a3,3,0,0,1,2.83-1.6c1.89,0,3.11,1.1,3.11,2.71v5.3Z"/><path class="cls-5" d="M140,81.51v5.2c0,.37.22.67.88.67a2.23,2.23,0,0,0,.91-.19v.91a3,3,0,0,1-1.5.35,1.36,1.36,0,0,1-1.52-1.31V81.51h-1.5v-1h1.5v-2H140v2h1.79v1Z"/><path class="cls-5" d="M144.06,84.71a2.52,2.52,0,0,0,2.79,2.66,2.65,2.65,0,0,0,2.64-1.7l1.12.29a4,4,0,0,1-7.76-1.55,3.86,3.86,0,0,1,4-4.11c2.69,0,3.91,1.81,3.91,4.4Zm0-.8h5.52a2.52,2.52,0,0,0-2.74-2.51A2.63,2.63,0,0,0,144.06,83.91Z"/><path class="cls-5" d="M156.73,84.71a2.52,2.52,0,0,0,2.79,2.66,2.65,2.65,0,0,0,2.64-1.7l1.12.29a4,4,0,0,1-7.76-1.55,3.86,3.86,0,0,1,4-4.11c2.69,0,3.91,1.81,3.91,4.4Zm0-.8h5.52a2.52,2.52,0,0,0-2.74-2.51A2.63,2.63,0,0,0,156.73,83.91Z"/><path class="cls-5" d="M170.67,88.29,168,85.09l-2.58,3.2h-1.58c1.12-1.33,2.26-2.67,3.36-4-1-1.26-2-2.54-3.07-3.81h1.57c.77,1,1.55,2,2.32,3l2.35-3H172c-1,1.25-2.08,2.51-3.14,3.76l3.44,4Z"/><path class="cls-5" d="M175.8,81.51v5.2c0,.37.22.67.88.67a2.23,2.23,0,0,0,.91-.19v.91a3,3,0,0,1-1.5.35,1.36,1.36,0,0,1-1.52-1.31V81.51h-1.5v-1h1.5v-2h1.23v2h1.79v1Z"/><path class="cls-5" d="M179.24,78a.61.61,0,0,1,.64-.62.6.6,0,0,1,.62.62v.74a.59.59,0,0,1-.62.61.6.6,0,0,1-.64-.61Zm0,10.28V80.48h1.23v7.81Z"/><path class="cls-5" d="M188.79,88.29v-5c0-1.22-.8-1.94-2.19-1.94a2.37,2.37,0,0,0-2.5,2.43v4.5h-1.23V80.48h1.22c0,.46,0,.93,0,1.39l0,0a3,3,0,0,1,2.83-1.6c1.89,0,3.11,1.1,3.11,2.71v5.3Z"/><path class="cls-5" d="M194.16,81.51v5.2c0,.37.22.67.88.67a2.23,2.23,0,0,0,.91-.19v.91a3,3,0,0,1-1.5.35,1.36,1.36,0,0,1-1.52-1.31V81.51h-1.5v-1h1.5v-2h1.23v2H196v1Z"/><path class="cls-5" d="M197,84.39a4.06,4.06,0,1,1,4,4.07A3.85,3.85,0,0,1,197,84.39Zm1.18,0a2.75,2.75,0,0,0,2.86,3,2.79,2.79,0,0,0,2.88-3,2.88,2.88,0,1,0-5.75,0Z"/><path class="cls-5" d="M211.06,81.48c-2.32,0-2.8,1.87-2.8,3.71v3.11H207V80.48h1.22c0,.69,0,1.33-.06,2a3.05,3.05,0,0,1,2.88-2.14Z"/><path class="cls-5" d="M211.53,88.29V86.57h1.31v1.73Z"/><path class="cls-5" d="M29.65,102.65v-1H34.9v1Z"/><path class="cls-5" d="M44.28,96.53v9.76H43V96.53h-4V95.44H48.2v1.09Z"/><path class="cls-5" d="M49.62,96a.61.61,0,0,1,.64-.62.6.6,0,0,1,.62.62v.74a.59.59,0,0,1-.62.61.6.6,0,0,1-.64-.61Zm0,10.28V98.48h1.23v7.81Z"/><path class="cls-5" d="M54.43,104.74c0,.61,0,1.17,0,1.83V109h-1.2V98.48h1.2v.72c0,.29,0,.86,0,.86a3.47,3.47,0,0,1,3-1.78c2.43,0,3.83,1.71,3.83,4.1s-1.47,4.1-3.87,4.1A3.19,3.19,0,0,1,54.43,104.74Zm.06-2.38c0,1.86.94,3.06,2.82,3.06a3,3,0,0,0,0-6A2.77,2.77,0,0,0,54.49,102.36Z"/><path class="cls-5" d="M62.76,102.39a4.06,4.06,0,1,1,4,4.07A3.85,3.85,0,0,1,62.76,102.39Zm1.18,0a2.75,2.75,0,0,0,2.86,3,2.79,2.79,0,0,0,2.88-3,2.88,2.88,0,1,0-5.75,0Z"/><path class="cls-5" d="M72.36,103.83l1.25,0c0,1.07.82,1.7,2.29,1.7.94,0,2-.43,2-1.38,0-2-5.39-.29-5.39-3.52,0-1.42,1.52-2.29,3.14-2.29,2.21,0,3.27,1,3.39,2.59-.42,0-.83.06-1.25.08-.08-1.06-.8-1.63-2.18-1.63-1,0-1.92.5-1.92,1.31,0,1.94,5.43.32,5.43,3.46,0,1.62-1.66,2.34-3.33,2.34C73.57,106.44,72.44,105.49,72.36,103.83Z"/><path class="cls-5" d="M90.9,106.29v-1.6a3.36,3.36,0,0,1-3,1.76c-2.42,0-3.81-1.75-3.81-4.08s1.5-4.11,3.86-4.11a3.44,3.44,0,0,1,3,1.71s0-1.2,0-1.83V95.44h1.22v10.85Zm-5.6-3.92c0,1.75,1,3,2.72,3a2.83,2.83,0,0,0,2.85-3,2.7,2.7,0,0,0-2.85-3A2.77,2.77,0,0,0,85.3,102.37Z"/><path class="cls-5" d="M95.25,102.71A2.52,2.52,0,0,0,98,105.37a2.65,2.65,0,0,0,2.64-1.7l1.12.29A4,4,0,0,1,94,102.41a3.86,3.86,0,0,1,4-4.11c2.69,0,3.91,1.81,3.91,4.4Zm0-.8h5.52A2.52,2.52,0,0,0,98,99.4,2.63,2.63,0,0,0,95.25,101.91Z"/><path class="cls-5" d="M108.88,98.48H111v1h-2.08v6.79h-1.23V99.51h-1.12v-1h1.12v-.34c0-1.63,1.12-2.82,3.19-2.82a8.33,8.33,0,0,1,1,.08v1.06a8.25,8.25,0,0,0-1-.06c-1.33,0-2,.69-2,1.81Z"/><path class="cls-5" d="M118.47,106.29l0-1.47h0a2.88,2.88,0,0,1-2.8,1.63,2.79,2.79,0,0,1-3.12-3v-5h1.23v4.87a1.9,1.9,0,0,0,2.16,2,2.4,2.4,0,0,0,2.51-2.56V98.48h1.23v7.81Z"/><path class="cls-5" d="M122.71,102.71a2.52,2.52,0,0,0,2.79,2.66,2.65,2.65,0,0,0,2.64-1.7l1.12.29a4,4,0,0,1-7.76-1.55,3.86,3.86,0,0,1,4-4.11c2.69,0,3.91,1.81,3.91,4.4Zm0-.8h5.52a2.52,2.52,0,0,0-2.74-2.51A2.63,2.63,0,0,0,122.71,101.91Z"/><path class="cls-5" d="M131.84,107.14a5.19,5.19,0,0,0,2.88,1c1.78,0,3-.88,3-2.75v-.91a3.37,3.37,0,0,1-3,1.78,3.65,3.65,0,0,1-3.79-3.89,3.76,3.76,0,0,1,3.94-4,3.15,3.15,0,0,1,2.88,1.74s0-1,0-1.55h1.17v7c0,2.27-1.5,3.68-4,3.68a6.06,6.06,0,0,1-3.43-1.07C131.53,107.78,131.72,107.46,131.84,107.14Zm.34-4.83a2.62,2.62,0,0,0,2.66,2.85,2.68,2.68,0,0,0,2.77-2.82,2.72,2.72,0,1,0-5.43,0Z"/><path class="cls-5" d="M140.78,102.39a4.06,4.06,0,1,1,4,4.07A3.85,3.85,0,0,1,140.78,102.39Zm1.18,0a2.75,2.75,0,0,0,2.86,3,2.79,2.79,0,0,0,2.88-3,2.88,2.88,0,1,0-5.75,0Z"/><path class="cls-5" d="M160.44,109v-3.3c0-.34,0-1,0-1a3.4,3.4,0,0,1-3.07,1.76c-2.4,0-3.79-1.79-3.79-4.1a3.76,3.76,0,0,1,3.83-4.1,3.34,3.34,0,0,1,3.06,1.78c0-.5,0-1,0-1.58h1.2V109Zm-5.57-6.63a2.74,2.74,0,0,0,2.69,3,2.84,2.84,0,0,0,2.85-3,2.78,2.78,0,0,0-2.87-3A2.72,2.72,0,0,0,154.87,102.41Z"/><path class="cls-5" d="M170,106.29l0-1.47h0a2.88,2.88,0,0,1-2.8,1.63,2.79,2.79,0,0,1-3.12-3v-5h1.23v4.87a1.9,1.9,0,0,0,2.16,2,2.4,2.4,0,0,0,2.51-2.56V98.48h1.23v7.81Z"/><path class="cls-5" d="M174.25,102.71a2.52,2.52,0,0,0,2.79,2.66,2.65,2.65,0,0,0,2.64-1.7l1.12.29a4,4,0,0,1-7.76-1.55,3.86,3.86,0,0,1,4-4.11c2.69,0,3.91,1.81,3.91,4.4Zm0-.8h5.52A2.52,2.52,0,0,0,177,99.4,2.63,2.63,0,0,0,174.25,101.91Z"/><path class="cls-5" d="M192.56,106.29v-1.62a3.14,3.14,0,0,1-3,1.76,3.74,3.74,0,0,1-3.86-4,3.82,3.82,0,0,1,4-4.11A3.38,3.38,0,0,1,192.6,100s0-1,0-1.52h1.2v7.81Zm-5.62-3.89a2.68,2.68,0,0,0,2.72,3,2.79,2.79,0,0,0,2.85-3,2.69,2.69,0,0,0-2.85-3A2.77,2.77,0,0,0,186.94,102.41Z"/><path class="cls-5" d="M197.22,104.74c0,.61,0,1.17,0,1.83V109H196V98.48h1.2v.72c0,.29,0,.86,0,.86a3.47,3.47,0,0,1,3-1.78c2.43,0,3.83,1.71,3.83,4.1s-1.47,4.1-3.87,4.1A3.19,3.19,0,0,1,197.22,104.74Zm.06-2.38c0,1.86.94,3.06,2.82,3.06a3,3,0,0,0,0-6A2.77,2.77,0,0,0,197.29,102.36Z"/><path class="cls-5" d="M212.4,106.29v-1.62a3.14,3.14,0,0,1-3,1.76,3.74,3.74,0,0,1-3.86-4,3.82,3.82,0,0,1,4-4.11,3.38,3.38,0,0,1,2.95,1.71s0-1,0-1.52h1.2v7.81Zm-5.62-3.89a2.68,2.68,0,0,0,2.72,3,2.79,2.79,0,0,0,2.85-3,2.69,2.69,0,0,0-2.85-3A2.77,2.77,0,0,0,206.79,102.41Z"/><path class="cls-5" d="M216.33,107.14a5.19,5.19,0,0,0,2.88,1c1.78,0,3-.88,3-2.75v-.91a3.37,3.37,0,0,1-3,1.78,3.65,3.65,0,0,1-3.79-3.89,3.76,3.76,0,0,1,3.94-4,3.15,3.15,0,0,1,2.88,1.74s0-1,0-1.55h1.17v7c0,2.27-1.5,3.68-4,3.68a6.06,6.06,0,0,1-3.43-1.07C216,107.78,216.22,107.46,216.33,107.14Zm.34-4.83a2.62,2.62,0,0,0,2.66,2.85,2.68,2.68,0,0,0,2.77-2.82,2.72,2.72,0,1,0-5.43,0Z"/><path class="cls-5" d="M232.12,106.29v-1.62a3.14,3.14,0,0,1-3,1.76,3.74,3.74,0,0,1-3.86-4,3.82,3.82,0,0,1,4-4.11,3.38,3.38,0,0,1,2.95,1.71s0-1,0-1.52h1.2v7.81Zm-5.62-3.89a2.68,2.68,0,0,0,2.72,3,2.79,2.79,0,0,0,2.85-3,2.69,2.69,0,0,0-2.85-3A2.77,2.77,0,0,0,226.5,102.41Z"/><path class="cls-5" d="M235.64,106.29v-1.73H237v1.73Z"/><path class="cls-5" d="M29.65,120.65v-1H34.9v1Z"/><path class="cls-5" d="M40,124.29V113.44h4.5c3.44,0,5.35,2.19,5.35,5.41,0,3.59-2.5,5.44-5.75,5.44Zm1.25-9.75v8.64h2.8c2.77,0,4.48-1.52,4.48-4.32s-1.55-4.32-4.11-4.32Z"/><path class="cls-5" d="M58.18,124.29v-1.62a3.14,3.14,0,0,1-3,1.76,3.74,3.74,0,0,1-3.86-4,3.82,3.82,0,0,1,4-4.11A3.38,3.38,0,0,1,58.23,118s0-1,0-1.52h1.2v7.81Zm-5.62-3.89a2.68,2.68,0,0,0,2.72,3,2.79,2.79,0,0,0,2.85-3,2.69,2.69,0,0,0-2.85-3A2.77,2.77,0,0,0,52.56,120.41Z"/><path class="cls-5" d="M63.6,117.51v5.2c0,.37.22.67.88.67a2.23,2.23,0,0,0,.91-.19v.91a3,3,0,0,1-1.5.35,1.36,1.36,0,0,1-1.52-1.31v-5.63h-1.5v-1h1.5v-2H63.6v2H65.4v1Z"/><path class="cls-5" d="M66.41,120.39a4.06,4.06,0,1,1,4,4.07A3.85,3.85,0,0,1,66.41,120.39Zm1.18,0a2.75,2.75,0,0,0,2.86,3,2.79,2.79,0,0,0,2.88-3,2.88,2.88,0,1,0-5.75,0Z"/><path class="cls-5" d="M76,121.83l1.25,0c0,1.07.82,1.7,2.29,1.7.94,0,2-.43,2-1.38,0-2-5.39-.29-5.39-3.52,0-1.42,1.52-2.29,3.14-2.29,2.21,0,3.27,1,3.39,2.59-.42,0-.83.06-1.25.08-.08-1.06-.8-1.63-2.18-1.63-1,0-1.92.5-1.92,1.31,0,1.94,5.43.32,5.43,3.46,0,1.62-1.66,2.34-3.33,2.34C77.21,124.44,76.08,123.49,76,121.83Z"/><path class="cls-5" d="M94.54,124.29v-1.6a3.36,3.36,0,0,1-3,1.76c-2.42,0-3.81-1.75-3.81-4.08s1.5-4.11,3.86-4.11a3.44,3.44,0,0,1,3,1.71s0-1.2,0-1.83v-2.71h1.22v10.85Zm-5.6-3.92c0,1.75,1,3,2.72,3a2.83,2.83,0,0,0,2.85-3,2.7,2.7,0,0,0-2.85-3A2.77,2.77,0,0,0,88.94,120.37Z"/><path class="cls-5" d="M98.89,120.71a2.52,2.52,0,0,0,2.79,2.66,2.65,2.65,0,0,0,2.64-1.7l1.12.29a4,4,0,0,1-7.76-1.55,3.86,3.86,0,0,1,4-4.11c2.69,0,3.91,1.81,3.91,4.4Zm0-.8h5.52a2.52,2.52,0,0,0-2.74-2.51A2.63,2.63,0,0,0,98.89,119.91Z"/><path class="cls-5" d="M107.52,124.29V113.44h1.23v10.85Z"/><path class="cls-5" d="M116.14,116.48h2.08v1h-2.08v6.79h-1.23v-6.79h-1.12v-1h1.12v-.34c0-1.63,1.12-2.82,3.19-2.82a8.33,8.33,0,0,1,1,.08v1.06a8.25,8.25,0,0,0-1-.06c-1.33,0-2,.69-2,1.81Z"/><path class="cls-5" d="M126,124.29v-1.62a3.14,3.14,0,0,1-3,1.76,3.74,3.74,0,0,1-3.86-4,3.82,3.82,0,0,1,4-4.11A3.38,3.38,0,0,1,126,118s0-1,0-1.52h1.2v7.81Zm-5.62-3.89a2.68,2.68,0,0,0,2.72,3,2.79,2.79,0,0,0,2.85-3,2.69,2.69,0,0,0-2.85-3A2.77,2.77,0,0,0,120.34,120.41Z"/><path class="cls-5" d="M130.64,122.69c0,.29,0,.54,0,.82s0,.53,0,.78h-1.2V113.44h1.2v3.49c0,.35,0,1,0,1a3.46,3.46,0,0,1,3.06-1.68c2.45,0,3.81,1.71,3.81,4.1a3.7,3.7,0,0,1-3.87,4A3.33,3.33,0,0,1,130.64,122.69Zm0-2.29a2.75,2.75,0,0,0,2.83,3,2.72,2.72,0,0,0,2.71-3,2.68,2.68,0,0,0-2.72-3C131.57,117.38,130.69,118.69,130.69,120.41Z"/><path class="cls-5" d="M143.44,117.48c-2.32,0-2.8,1.87-2.8,3.71v3.11H139.4v-7.81h1.22c0,.69,0,1.33-.06,2a3.05,3.05,0,0,1,2.88-2.14Z"/><path class="cls-5" d="M144.81,114a.61.61,0,0,1,.64-.62.6.6,0,0,1,.62.62v.74a.59.59,0,0,1-.62.61.6.6,0,0,1-.64-.61Zm0,10.28v-7.81h1.23v7.81Z"/><path class="cls-5" d="M148,120.47a3.88,3.88,0,0,1,4.13-4.18,3.37,3.37,0,0,1,3.55,2.56l-1.12.34a2.28,2.28,0,0,0-2.5-1.79,2.77,2.77,0,0,0-2.87,3.07,2.63,2.63,0,0,0,2.77,2.9,2.92,2.92,0,0,0,2.71-1.82l1.09.24a3.59,3.59,0,0,1-3.78,2.66A3.73,3.73,0,0,1,148,120.47Z"/><path class="cls-5" d="M163.95,124.29v-1.62a3.14,3.14,0,0,1-3,1.76,3.74,3.74,0,0,1-3.86-4,3.82,3.82,0,0,1,4-4.11A3.38,3.38,0,0,1,164,118s0-1,0-1.52h1.2v7.81Zm-5.62-3.89a2.68,2.68,0,0,0,2.72,3,2.79,2.79,0,0,0,2.85-3,2.69,2.69,0,0,0-2.85-3A2.77,2.77,0,0,0,158.33,120.41Z"/><path class="cls-5" d="M173.35,124.29v-5c0-1.22-.8-1.94-2.19-1.94a2.37,2.37,0,0,0-2.5,2.43v4.5h-1.23v-7.81h1.22c0,.46,0,.93,0,1.39l0,0a3,3,0,0,1,2.83-1.6c1.89,0,3.11,1.1,3.11,2.71v5.3Z"/><path class="cls-5" d="M178.71,117.51v5.2c0,.37.22.67.88.67a2.23,2.23,0,0,0,.91-.19v.91a3,3,0,0,1-1.5.35,1.36,1.36,0,0,1-1.52-1.31v-5.63H176v-1h1.5v-2h1.23v2h1.79v1Z"/><path class="cls-5" d="M182.73,120.71a2.52,2.52,0,0,0,2.79,2.66,2.65,2.65,0,0,0,2.64-1.7l1.12.29a4,4,0,0,1-7.76-1.55,3.86,3.86,0,0,1,4-4.11c2.69,0,3.91,1.81,3.91,4.4Zm0-.8h5.52a2.52,2.52,0,0,0-2.74-2.51A2.63,2.63,0,0,0,182.73,119.91Z"/><path class="cls-5" d="M191.24,124.29v-1.73h1.31v1.73Z"/></g></g></g></svg>