<svg xmlns="http://www.w3.org/2000/svg" viewBox="0 0 425.47 110.92"><defs><style>.cls-1{isolation:isolate;}.cls-2{opacity:0.6;mix-blend-mode:overlay;}.cls-3{fill:#fff;}.cls-4{fill:#909090;}.cls-5{fill:#ed0531;}</style></defs><title>b3</title><g class="cls-1"><g id="Capa_2" data-name="Capa 2"><g id="Capa_7" data-name="Capa 7"><g class="cls-2"><rect y="23.26" width="420.97" height="87.66" rx="12.04" ry="12.04"/></g><rect class="cls-3" width="425.47" height="103.36" rx="12.32" ry="12.32"/><path class="cls-4" d="M43.31,47.13l1.3-.1c.06,1.87,1.5,2.59,3.46,2.59,1.49,0,3-.74,3-2.07,0-3.17-7.57-.69-7.57-5.12,0-1.79,1.55-2.9,4.43-2.9s4.19,1.07,4.31,3.17c-.45,0-.9.06-1.34.11-.13-1.65-1.3-2.16-3-2.16-2.08,0-3,.75-3,1.81,0,3.23,7.6.64,7.6,5.06a1,1,0,0,1-.08.37c-.19,2-2.4,2.79-4.32,2.79C45.41,50.69,43.41,49.76,43.31,47.13Z"/><path class="cls-4" d="M55.36,47a2.52,2.52,0,0,0,2.79,2.66,2.65,2.65,0,0,0,2.64-1.7l1.12.29a4,4,0,0,1-7.76-1.55,3.86,3.86,0,0,1,4-4.11c2.69,0,3.91,1.81,3.91,4.4Zm0-.8h5.52a2.52,2.52,0,0,0-2.74-2.51A2.63,2.63,0,0,0,55.36,46.16Z"/><path class="cls-4" d="M73.28,50.54l0-1.47h0a2.88,2.88,0,0,1-2.8,1.63,2.79,2.79,0,0,1-3.12-3v-5h1.23V47.6a1.9,1.9,0,0,0,2.16,2A2.4,2.4,0,0,0,73.2,47V42.73h1.23v7.81Z"/><path class="cls-4" d="M78.92,43.75V49c0,.37.22.67.88.67a2.23,2.23,0,0,0,.91-.19v.91a3,3,0,0,1-1.5.35,1.36,1.36,0,0,1-1.52-1.31V43.75h-1.5v-1h1.5v-2h1.23v2h1.79v1Z"/><path class="cls-4" d="M82.58,40.26a.61.61,0,0,1,.64-.62.6.6,0,0,1,.62.62V41a.59.59,0,0,1-.62.61.6.6,0,0,1-.64-.61Zm0,10.28V42.73h1.23v7.81Z"/><path class="cls-4" d="M86.4,50.54V39.69h1.23V50.54Z"/><path class="cls-4" d="M90.18,40.26a.61.61,0,0,1,.64-.62.6.6,0,0,1,.62.62V41a.59.59,0,0,1-.62.61.6.6,0,0,1-.64-.61Zm0,10.28V42.73h1.23v7.81Z"/><path class="cls-4" d="M93.31,50.54V49.6l5.15-5.81H93.68V42.73h6.51v.93L95,49.48h5.41v1.06Z"/><path class="cls-4" d="M108.36,50.54V48.92a3.14,3.14,0,0,1-3,1.76,3.74,3.74,0,0,1-3.86-4,3.82,3.82,0,0,1,4-4.11,3.38,3.38,0,0,1,2.95,1.71s0-1,0-1.52h1.2v7.81Zm-5.62-3.89a2.68,2.68,0,0,0,2.72,3,2.79,2.79,0,0,0,2.85-3,2.69,2.69,0,0,0-2.85-3A2.77,2.77,0,0,0,102.74,46.65Z"/><path class="cls-4" d="M116.29,49c0,.61,0,1.17,0,1.83v2.46h-1.2V42.73h1.2v.72c0,.29,0,.86,0,.86a3.47,3.47,0,0,1,3-1.78c2.43,0,3.83,1.71,3.83,4.1s-1.47,4.1-3.87,4.1A3.19,3.19,0,0,1,116.29,49Zm.06-2.38c0,1.86.94,3.06,2.82,3.06a2.73,2.73,0,0,0,2.72-3,2.73,2.73,0,0,0-2.71-3A2.77,2.77,0,0,0,116.36,46.6Z"/><path class="cls-4" d="M131.68,50.54V48.92a3.14,3.14,0,0,1-3,1.76,3.74,3.74,0,0,1-3.86-4,3.82,3.82,0,0,1,4-4.11,3.38,3.38,0,0,1,2.95,1.71s0-1,0-1.52h1.2v7.81Zm-5.62-3.89a2.68,2.68,0,0,0,2.72,3,2.79,2.79,0,0,0,2.85-3,2.69,2.69,0,0,0-2.85-3A2.77,2.77,0,0,0,126.07,46.65Z"/><path class="cls-4" d="M139.41,43.72c-2.32,0-2.8,1.87-2.8,3.71v3.11h-1.23V42.73h1.22c0,.69,0,1.33-.06,2a3.05,3.05,0,0,1,2.88-2.14Z"/><path class="cls-4" d="M147.19,50.54V48.92a3.14,3.14,0,0,1-3,1.76,3.74,3.74,0,0,1-3.86-4,3.82,3.82,0,0,1,4-4.11,3.38,3.38,0,0,1,2.95,1.71s0-1,0-1.52h1.2v7.81Zm-5.62-3.89a2.68,2.68,0,0,0,2.72,3,2.79,2.79,0,0,0,2.85-3,2.69,2.69,0,0,0-2.85-3A2.77,2.77,0,0,0,141.57,46.65Z"/><path class="cls-4" d="M154.61,47a2.52,2.52,0,0,0,2.79,2.66,2.65,2.65,0,0,0,2.64-1.7l1.12.29a4,4,0,0,1-7.76-1.55,3.86,3.86,0,0,1,4-4.11c2.69,0,3.91,1.81,3.91,4.4Zm0-.8h5.52a2.52,2.52,0,0,0-2.74-2.51A2.63,2.63,0,0,0,154.61,46.16Z"/><path class="cls-4" d="M166.91,50.54h-1.14l-3.68-7.81h1.46l2.83,6.48L169,42.73h1.33Z"/><path class="cls-4" d="M171.89,40.26a.61.61,0,0,1,.64-.62.6.6,0,0,1,.62.62V41a.59.59,0,0,1-.62.61.6.6,0,0,1-.64-.61Zm0,10.28V42.73h1.23v7.81Z"/><path class="cls-4" d="M177.66,43.75V49c0,.37.22.67.88.67a2.23,2.23,0,0,0,.91-.19v.91a3,3,0,0,1-1.5.35,1.36,1.36,0,0,1-1.52-1.31V43.75h-1.5v-1h1.5v-2h1.23v2h1.79v1Z"/><path class="cls-4" d="M187.52,50.54V48.92a3.14,3.14,0,0,1-3,1.76,3.74,3.74,0,0,1-3.86-4,3.82,3.82,0,0,1,4-4.11,3.38,3.38,0,0,1,2.95,1.71s0-1,0-1.52h1.2v7.81Zm-5.62-3.89a2.68,2.68,0,0,0,2.72,3,2.79,2.79,0,0,0,2.85-3,2.69,2.69,0,0,0-2.85-3A2.77,2.77,0,0,0,181.9,46.65Z"/><path class="cls-4" d="M195.24,43.72c-2.32,0-2.8,1.87-2.8,3.71v3.11h-1.23V42.73h1.22c0,.69,0,1.33-.06,2a3.05,3.05,0,0,1,2.88-2.14Z"/><path class="cls-4" d="M206.12,53.28V50c0-.34,0-1,0-1a3.4,3.4,0,0,1-3.07,1.76c-2.4,0-3.79-1.79-3.79-4.1a3.76,3.76,0,0,1,3.83-4.1,3.34,3.34,0,0,1,3.06,1.78c0-.5,0-1,0-1.58h1.2V53.28Zm-5.57-6.63a2.74,2.74,0,0,0,2.69,3,2.84,2.84,0,0,0,2.85-3,2.78,2.78,0,0,0-2.87-3A2.72,2.72,0,0,0,200.55,46.65Z"/><path class="cls-4" d="M215.9,50.54l0-1.47h0A2.88,2.88,0,0,1,213,50.7a2.79,2.79,0,0,1-3.12-3v-5h1.23V47.6a1.9,1.9,0,0,0,2.16,2A2.4,2.4,0,0,0,215.82,47V42.73h1.23v7.81Z"/><path class="cls-4" d="M220.34,47a2.52,2.52,0,0,0,2.79,2.66,2.65,2.65,0,0,0,2.64-1.7l1.12.29a4,4,0,0,1-7.76-1.55,3.86,3.86,0,0,1,4-4.11c2.69,0,3.91,1.81,3.91,4.4Zm0-.8h5.52a2.52,2.52,0,0,0-2.74-2.51A2.63,2.63,0,0,0,220.34,46.16Z"/><path class="cls-4" d="M233,47a2.52,2.52,0,0,0,2.79,2.66,2.65,2.65,0,0,0,2.64-1.7l1.12.29a4,4,0,0,1-7.76-1.55,3.86,3.86,0,0,1,4-4.11c2.69,0,3.91,1.81,3.91,4.4Zm0-.8h5.52a2.52,2.52,0,0,0-2.74-2.51A2.63,2.63,0,0,0,233,46.16Z"/><path class="cls-4" d="M241.85,50.54V39.69h1.23V50.54Z"/><path class="cls-4" d="M250,49c0,.61,0,1.17,0,1.83v2.46h-1.2V42.73H250v.72c0,.29,0,.86,0,.86a3.47,3.47,0,0,1,3-1.78c2.43,0,3.83,1.71,3.83,4.1s-1.47,4.1-3.87,4.1A3.19,3.19,0,0,1,250,49Zm.06-2.38c0,1.86.94,3.06,2.82,3.06a2.73,2.73,0,0,0,2.72-3,2.73,2.73,0,0,0-2.71-3A2.77,2.77,0,0,0,250.09,46.6Z"/><path class="cls-4" d="M265.42,50.54V48.92a3.14,3.14,0,0,1-3,1.76,3.74,3.74,0,0,1-3.86-4,3.82,3.82,0,0,1,4-4.11,3.38,3.38,0,0,1,2.95,1.71s0-1,0-1.52h1.2v7.81Zm-5.62-3.89a2.68,2.68,0,0,0,2.72,3,2.79,2.79,0,0,0,2.85-3,2.69,2.69,0,0,0-2.85-3A2.77,2.77,0,0,0,259.8,46.65Z"/><path class="cls-4" d="M268.71,48.08,270,48c0,1.07.82,1.7,2.29,1.7.94,0,2-.43,2-1.38,0-2-5.39-.29-5.39-3.52,0-1.42,1.52-2.29,3.14-2.29,2.21,0,3.27,1,3.39,2.59-.42,0-.83.06-1.25.08-.08-1.06-.8-1.63-2.18-1.63-1,0-1.92.5-1.92,1.31,0,1.94,5.43.32,5.43,3.46,0,1.62-1.66,2.34-3.33,2.34C269.93,50.69,268.79,49.74,268.71,48.08Z"/><path class="cls-4" d="M284.09,50.54V48.92a3.14,3.14,0,0,1-3,1.76,3.74,3.74,0,0,1-3.86-4,3.82,3.82,0,0,1,4-4.11,3.38,3.38,0,0,1,2.95,1.71s0-1,0-1.52h1.2v7.81Zm-5.62-3.89a2.68,2.68,0,0,0,2.72,3,2.79,2.79,0,0,0,2.85-3,2.69,2.69,0,0,0-2.85-3A2.77,2.77,0,0,0,278.47,46.65Z"/><path class="cls-4" d="M294.18,50.54v-1.6a3.36,3.36,0,0,1-3,1.76c-2.42,0-3.81-1.75-3.81-4.08s1.5-4.11,3.86-4.11a3.44,3.44,0,0,1,3,1.71s0-1.2,0-1.83V39.69h1.22V50.54Zm-5.6-3.92c0,1.75,1,3,2.72,3a2.83,2.83,0,0,0,2.85-3,2.7,2.7,0,0,0-2.85-3A2.77,2.77,0,0,0,288.58,46.62Z"/><path class="cls-4" d="M297.53,46.64a4.06,4.06,0,1,1,8.12,0,4.06,4.06,0,1,1-8.12,0Zm1.18,0a2.75,2.75,0,0,0,2.86,3,2.79,2.79,0,0,0,2.88-3,2.88,2.88,0,1,0-5.75,0Z"/><path class="cls-4" d="M311.83,43.72c-2.32,0-2.8,1.87-2.8,3.71v3.11H307.8V42.73H309c0,.69,0,1.33-.06,2a3.05,3.05,0,0,1,2.88-2.14Z"/><path class="cls-4" d="M316,48.08l1.25,0c0,1.07.82,1.7,2.29,1.7.94,0,2-.43,2-1.38,0-2-5.39-.29-5.39-3.52,0-1.42,1.52-2.29,3.14-2.29,2.21,0,3.27,1,3.39,2.59-.42,0-.83.06-1.25.08-.08-1.06-.8-1.63-2.18-1.63-1,0-1.92.5-1.92,1.31,0,1.94,5.43.32,5.43,3.46,0,1.62-1.66,2.34-3.33,2.34C317.25,50.69,316.12,49.74,316,48.08Z"/><path class="cls-4" d="M325.78,47a2.52,2.52,0,0,0,2.79,2.66,2.65,2.65,0,0,0,2.64-1.7l1.12.29a4,4,0,0,1-7.76-1.55,3.86,3.86,0,0,1,4-4.11c2.69,0,3.91,1.81,3.91,4.4Zm0-.8h5.52a2.52,2.52,0,0,0-2.74-2.51A2.63,2.63,0,0,0,325.78,46.16Z"/><path class="cls-4" d="M337.4,48.08l1.25,0c0,1.07.82,1.7,2.29,1.7.94,0,2-.43,2-1.38,0-2-5.39-.29-5.39-3.52,0-1.42,1.52-2.29,3.14-2.29,2.21,0,3.27,1,3.39,2.59-.42,0-.83.06-1.25.08-.08-1.06-.8-1.63-2.18-1.63-1,0-1.92.5-1.92,1.31,0,1.94,5.43.32,5.43,3.46,0,1.62-1.66,2.34-3.33,2.34C338.61,50.69,337.48,49.74,337.4,48.08Z"/><path class="cls-4" d="M352.78,50.54V48.92a3.14,3.14,0,0,1-3,1.76,3.74,3.74,0,0,1-3.86-4,3.82,3.82,0,0,1,4-4.11,3.38,3.38,0,0,1,2.95,1.71s0-1,0-1.52H354v7.81Zm-5.62-3.89a2.68,2.68,0,0,0,2.72,3,2.79,2.79,0,0,0,2.85-3,2.69,2.69,0,0,0-2.85-3A2.77,2.77,0,0,0,347.16,46.65Z"/><path class="cls-4" d="M356.45,50.54V39.69h1.23V50.54Z"/><path class="cls-4" d="M360.72,51.39a5.19,5.19,0,0,0,2.88,1c1.78,0,3-.88,3-2.75v-.91a3.37,3.37,0,0,1-3,1.78,3.65,3.65,0,0,1-3.79-3.89,3.76,3.76,0,0,1,3.94-4,3.15,3.15,0,0,1,2.88,1.74s0-1,0-1.55h1.17v7c0,2.27-1.5,3.68-4,3.68a6.06,6.06,0,0,1-3.43-1.07C360.42,52,360.61,51.71,360.72,51.39Zm.34-4.83a2.62,2.62,0,0,0,2.66,2.85,2.68,2.68,0,0,0,2.77-2.82,2.72,2.72,0,1,0-5.43,0Z"/><path class="cls-4" d="M376.71,50.54V48.92a3.14,3.14,0,0,1-3,1.76,3.74,3.74,0,0,1-3.86-4,3.82,3.82,0,0,1,4-4.11,3.38,3.38,0,0,1,2.95,1.71s0-1,0-1.52h1.2v7.81Zm-5.62-3.89a2.68,2.68,0,0,0,2.72,3,2.79,2.79,0,0,0,2.85-3,2.69,2.69,0,0,0-2.85-3A2.77,2.77,0,0,0,371.1,46.65Z"/><path class="cls-4" d="M50.21,68.54v-1.6a3.36,3.36,0,0,1-3,1.76c-2.42,0-3.81-1.75-3.81-4.08s1.5-4.11,3.86-4.11a3.44,3.44,0,0,1,3,1.71s0-1.2,0-1.83V57.69h1.22V68.54Zm-5.6-3.92c0,1.75,1,3,2.72,3a2.83,2.83,0,0,0,2.85-3,2.7,2.7,0,0,0-2.85-3A2.77,2.77,0,0,0,44.61,64.62Z"/><path class="cls-4" d="M54.77,65a2.52,2.52,0,0,0,2.79,2.66,2.65,2.65,0,0,0,2.64-1.7l1.12.29a4,4,0,0,1-7.76-1.55,3.86,3.86,0,0,1,4-4.11c2.69,0,3.91,1.81,3.91,4.4Zm0-.8h5.52a2.52,2.52,0,0,0-2.74-2.51A2.63,2.63,0,0,0,54.77,64.16Z"/><path class="cls-4" d="M66.73,68.54V57.69H68V68.54Z"/><path class="cls-4" d="M76.48,68.54l0-1.47h0a2.88,2.88,0,0,1-2.8,1.63,2.79,2.79,0,0,1-3.12-3v-5h1.23V65.6a1.9,1.9,0,0,0,2.16,2A2.4,2.4,0,0,0,76.4,65V60.73h1.23v7.81Z"/><path class="cls-4" d="M80.64,69.39a5.19,5.19,0,0,0,2.88,1c1.78,0,3-.88,3-2.75v-.91a3.37,3.37,0,0,1-3,1.78,3.65,3.65,0,0,1-3.79-3.89,3.76,3.76,0,0,1,3.94-4,3.15,3.15,0,0,1,2.88,1.74s0-1,0-1.55h1.17v7c0,2.27-1.5,3.68-4,3.68a6.06,6.06,0,0,1-3.43-1.07C80.33,70,80.52,69.71,80.64,69.39ZM81,64.56a2.62,2.62,0,0,0,2.66,2.85,2.68,2.68,0,0,0,2.77-2.82,2.72,2.72,0,1,0-5.43,0Z"/><path class="cls-4" d="M96.63,68.54V66.92a3.14,3.14,0,0,1-3,1.76,3.74,3.74,0,0,1-3.86-4,3.82,3.82,0,0,1,4-4.11,3.38,3.38,0,0,1,2.95,1.71s0-1,0-1.52h1.2v7.81ZM91,64.65a2.68,2.68,0,0,0,2.72,3,2.79,2.79,0,0,0,2.85-3,2.69,2.69,0,0,0-2.85-3A2.77,2.77,0,0,0,91,64.65Z"/><path class="cls-4" d="M104.35,61.72c-2.32,0-2.8,1.87-2.8,3.71v3.11h-1.23V60.73h1.22c0,.69,0,1.33-.06,2a3.05,3.05,0,0,1,2.88-2.14Z"/><path class="cls-4" d="M105,68.54V66.81h1.31v1.73Z"/><path class="cls-4" d="M120.32,68.54l-7.06-8.88,0,8.88H112V57.69h1.34l7.07,8.87,0-8.87h1.23V68.54Z"/><path class="cls-4" d="M123.78,64.64a4.06,4.06,0,1,1,4,4.07A3.85,3.85,0,0,1,123.78,64.64Zm1.18,0a2.75,2.75,0,0,0,2.86,3,2.79,2.79,0,0,0,2.88-3,2.88,2.88,0,1,0-5.75,0Z"/><path class="cls-4" d="M138.09,61.72c-2.32,0-2.8,1.87-2.8,3.71v3.11h-1.23V60.73h1.22c0,.69,0,1.33-.06,2a3.05,3.05,0,0,1,2.88-2.14Z"/><path class="cls-4" d="M150.23,68.54v-5a1.69,1.69,0,0,0-1.87-1.94,2.08,2.08,0,0,0-2.16,2.08v4.85H145v-5A1.72,1.72,0,0,0,143,61.61a1.7,1.7,0,0,0-.77.19c-1.12.35-1.33,1.5-1.33,2.56v4.18H139.7V60.73h1.22c0,.46,0,.94,0,1.41h0a2.41,2.41,0,0,1,2.51-1.55,2.46,2.46,0,0,1,2.53,1.6,2.75,2.75,0,0,1,2.71-1.65,2.46,2.46,0,0,1,2.8,2.71v5.3Z"/><path class="cls-4" d="M160.36,68.54V66.92a3.14,3.14,0,0,1-3,1.76,3.74,3.74,0,0,1-3.86-4,3.82,3.82,0,0,1,4-4.11,3.38,3.38,0,0,1,2.95,1.71s0-1,0-1.52h1.2v7.81Zm-5.62-3.89a2.68,2.68,0,0,0,2.72,3,2.79,2.79,0,0,0,2.85-3,2.69,2.69,0,0,0-2.85-3A2.77,2.77,0,0,0,154.74,64.65Z"/><path class="cls-4" d="M164,68.54V57.69h1.23V68.54Z"/><path class="cls-4" d="M178.36,68.54v-5a1.69,1.69,0,0,0-1.87-1.94,2.08,2.08,0,0,0-2.16,2.08v4.85H173.1v-5a1.72,1.72,0,0,0-1.94-1.94,1.7,1.7,0,0,0-.77.19c-1.12.35-1.33,1.5-1.33,2.56v4.18h-1.23V60.73H169c0,.46,0,.94,0,1.41h0a2.41,2.41,0,0,1,2.51-1.55,2.46,2.46,0,0,1,2.53,1.6,2.75,2.75,0,0,1,2.71-1.65,2.46,2.46,0,0,1,2.8,2.71v5.3Z"/><path class="cls-4" d="M182.86,65a2.52,2.52,0,0,0,2.79,2.66,2.65,2.65,0,0,0,2.64-1.7l1.12.29a4,4,0,0,1-7.76-1.55,3.86,3.86,0,0,1,4-4.11c2.69,0,3.91,1.81,3.91,4.4Zm0-.8h5.52a2.52,2.52,0,0,0-2.74-2.51A2.63,2.63,0,0,0,182.86,64.16Z"/><path class="cls-4" d="M197.62,68.54v-5c0-1.22-.8-1.94-2.19-1.94a2.37,2.37,0,0,0-2.5,2.43v4.5h-1.23V60.73h1.22c0,.46,0,.93,0,1.39l0,0a3,3,0,0,1,2.83-1.6c1.89,0,3.11,1.1,3.11,2.71v5.3Z"/><path class="cls-4" d="M203.19,61.75V67c0,.37.22.67.88.67a2.23,2.23,0,0,0,.91-.19v.91a3,3,0,0,1-1.5.35A1.36,1.36,0,0,1,202,67.39V61.75h-1.5v-1H202v-2h1.23v2H205v1Z"/><path class="cls-4" d="M207.42,65a2.52,2.52,0,0,0,2.79,2.66,2.65,2.65,0,0,0,2.64-1.7l1.12.29a4,4,0,0,1-7.76-1.55,3.86,3.86,0,0,1,4-4.11c2.69,0,3.91,1.81,3.91,4.4Zm0-.8h5.52a2.52,2.52,0,0,0-2.74-2.51A2.63,2.63,0,0,0,207.42,64.16Z"/><path class="cls-4" d="M216.61,70.89l-1.17-.42c.26-.61.5-1.23.74-1.84a3.28,3.28,0,0,0,.14-1.3v-.53h1.33v.64a3.61,3.61,0,0,1-.21,1.44Z"/><path class="cls-4" d="M223.13,66.08l1.25,0c0,1.07.82,1.7,2.29,1.7.94,0,2-.43,2-1.38,0-2-5.39-.29-5.39-3.52,0-1.42,1.52-2.29,3.14-2.29,2.21,0,3.27,1,3.39,2.59-.42,0-.83.06-1.25.08-.08-1.06-.8-1.63-2.18-1.63-1,0-1.92.5-1.92,1.31,0,1.94,5.43.32,5.43,3.46,0,1.62-1.66,2.34-3.33,2.34C224.35,68.69,223.21,67.74,223.13,66.08Z"/><path class="cls-4" d="M232.88,65a2.52,2.52,0,0,0,2.79,2.66,2.65,2.65,0,0,0,2.64-1.7l1.12.29a4,4,0,0,1-7.76-1.55,3.86,3.86,0,0,1,4-4.11c2.69,0,3.91,1.81,3.91,4.4Zm0-.8h5.52a2.52,2.52,0,0,0-2.74-2.51A2.63,2.63,0,0,0,232.88,64.16Z"/><path class="cls-4" d="M250.8,68.54l0-1.47h0a2.88,2.88,0,0,1-2.8,1.63,2.79,2.79,0,0,1-3.12-3v-5H246V65.6a1.9,1.9,0,0,0,2.16,2A2.4,2.4,0,0,0,250.72,65V60.73H252v7.81Z"/><path class="cls-4" d="M256.45,61.75V67c0,.37.22.67.88.67a2.23,2.23,0,0,0,.91-.19v.91a3,3,0,0,1-1.5.35,1.36,1.36,0,0,1-1.52-1.31V61.75h-1.5v-1h1.5v-2h1.23v2h1.79v1Z"/><path class="cls-4" d="M260.1,58.26a.61.61,0,0,1,.64-.62.6.6,0,0,1,.62.62V59a.59.59,0,0,1-.62.61.6.6,0,0,1-.64-.61Zm0,10.28V60.73h1.23v7.81Z"/><path class="cls-4" d="M263.92,68.54V57.69h1.23V68.54Z"/><path class="cls-4" d="M267.7,58.26a.61.61,0,0,1,.64-.62.6.6,0,0,1,.62.62V59a.59.59,0,0,1-.62.61.6.6,0,0,1-.64-.61Zm0,10.28V60.73h1.23v7.81Z"/><path class="cls-4" d="M270.83,68.54V67.6L276,61.79H271.2V60.73h6.51v.93l-5.17,5.83H278v1.06Z"/><path class="cls-4" d="M285.88,68.54V66.92a3.14,3.14,0,0,1-3,1.76,3.74,3.74,0,0,1-3.86-4,3.82,3.82,0,0,1,4-4.11,3.38,3.38,0,0,1,2.95,1.71s0-1,0-1.52h1.2v7.81Zm-5.62-3.89a2.68,2.68,0,0,0,2.72,3,2.79,2.79,0,0,0,2.85-3,2.69,2.69,0,0,0-2.85-3A2.77,2.77,0,0,0,280.26,64.65Z"/><path class="cls-4" d="M292.1,64.72a3.88,3.88,0,0,1,4.13-4.18,3.37,3.37,0,0,1,3.55,2.56l-1.12.34a2.28,2.28,0,0,0-2.5-1.79,2.77,2.77,0,0,0-2.87,3.07,2.63,2.63,0,0,0,2.77,2.9,2.92,2.92,0,0,0,2.71-1.82l1.09.24a3.59,3.59,0,0,1-3.78,2.66A3.73,3.73,0,0,1,292.1,64.72Z"/><path class="cls-4" d="M301.44,64.64a4.06,4.06,0,1,1,4,4.07A3.85,3.85,0,0,1,301.44,64.64Zm1.18,0a2.75,2.75,0,0,0,2.86,3,2.79,2.79,0,0,0,2.88-3,2.88,2.88,0,1,0-5.75,0Z"/><path class="cls-4" d="M322.24,68.54v-5a1.69,1.69,0,0,0-1.87-1.94,2.08,2.08,0,0,0-2.16,2.08v4.85H317v-5A1.72,1.72,0,0,0,315,61.61a1.7,1.7,0,0,0-.77.19c-1.12.35-1.33,1.5-1.33,2.56v4.18h-1.23V60.73h1.22c0,.46,0,.94,0,1.41h0a2.41,2.41,0,0,1,2.51-1.55,2.46,2.46,0,0,1,2.53,1.6,2.75,2.75,0,0,1,2.71-1.65,2.46,2.46,0,0,1,2.8,2.71v5.3Z"/><path class="cls-4" d="M325.53,64.64a4.06,4.06,0,1,1,4,4.07A3.85,3.85,0,0,1,325.53,64.64Zm1.18,0a2.75,2.75,0,0,0,2.86,3,2.79,2.79,0,0,0,2.88-3,2.88,2.88,0,1,0-5.75,0Z"/><path class="cls-4" d="M43.87,76.26a.61.61,0,0,1,.64-.62.6.6,0,0,1,.62.62V77a.59.59,0,0,1-.62.61.6.6,0,0,1-.64-.61Zm0,10.28V78.73h1.23v7.81Z"/><path class="cls-4" d="M53.63,86.54v-5c0-1.22-.8-1.94-2.19-1.94A2.37,2.37,0,0,0,48.94,82v4.5H47.71V78.73h1.22c0,.46,0,.93,0,1.39l0,0a3,3,0,0,1,2.83-1.6c1.89,0,3.11,1.1,3.11,2.71v5.3Z"/><path class="cls-4" d="M63.75,86.54v-1.6a3.36,3.36,0,0,1-3,1.76c-2.42,0-3.81-1.75-3.81-4.08s1.5-4.11,3.86-4.11a3.44,3.44,0,0,1,3,1.71s0-1.2,0-1.83V75.69H65V86.54Zm-5.6-3.92c0,1.75,1,3,2.72,3a2.83,2.83,0,0,0,2.85-3,2.7,2.7,0,0,0-2.85-3A2.77,2.77,0,0,0,58.14,82.62Z"/><path class="cls-4" d="M67.54,76.26a.61.61,0,0,1,.64-.62.6.6,0,0,1,.62.62V77a.59.59,0,0,1-.62.61.6.6,0,0,1-.64-.61Zm0,10.28V78.73h1.23v7.81Z"/><path class="cls-4" d="M70.91,82.72A3.88,3.88,0,0,1,75,78.54,3.37,3.37,0,0,1,78.6,81.1l-1.12.34A2.28,2.28,0,0,0,75,79.64a2.77,2.77,0,0,0-2.87,3.07,2.63,2.63,0,0,0,2.77,2.9,2.92,2.92,0,0,0,2.71-1.82l1.09.24a3.59,3.59,0,0,1-3.78,2.66A3.73,3.73,0,0,1,70.91,82.72Z"/><path class="cls-4" d="M87.09,86.54V84.92a3.14,3.14,0,0,1-3,1.76,3.74,3.74,0,0,1-3.86-4,3.82,3.82,0,0,1,4-4.11,3.38,3.38,0,0,1,2.95,1.71s0-1,0-1.52h1.2v7.81Zm-5.62-3.89a2.68,2.68,0,0,0,2.72,3,2.79,2.79,0,0,0,2.85-3,2.69,2.69,0,0,0-2.85-3A2.77,2.77,0,0,0,81.47,82.65Z"/><path class="cls-4" d="M97.18,86.54v-1.6a3.36,3.36,0,0,1-3,1.76c-2.42,0-3.81-1.75-3.81-4.08s1.5-4.11,3.86-4.11a3.44,3.44,0,0,1,3,1.71s0-1.2,0-1.83V75.69H98.4V86.54Zm-5.6-3.92c0,1.75,1,3,2.72,3a2.83,2.83,0,0,0,2.85-3,2.7,2.7,0,0,0-2.85-3A2.77,2.77,0,0,0,91.58,82.62Z"/><path class="cls-4" d="M100.53,82.64a4.06,4.06,0,1,1,4,4.07A3.85,3.85,0,0,1,100.53,82.64Zm1.18,0a2.75,2.75,0,0,0,2.86,3,2.79,2.79,0,0,0,2.88-3,2.88,2.88,0,1,0-5.75,0Z"/><path class="cls-4" d="M114.83,79.72c-2.32,0-2.8,1.87-2.8,3.71v3.11H110.8V78.73H112c0,.69,0,1.33-.06,2a3.05,3.05,0,0,1,2.88-2.14Z"/><path class="cls-4" d="M125.73,86.54v-1.6a3.36,3.36,0,0,1-3,1.76c-2.42,0-3.81-1.75-3.81-4.08s1.5-4.11,3.86-4.11a3.44,3.44,0,0,1,3,1.71s0-1.2,0-1.83V75.69h1.22V86.54Zm-5.6-3.92c0,1.75,1,3,2.72,3a2.83,2.83,0,0,0,2.85-3,2.7,2.7,0,0,0-2.85-3A2.77,2.77,0,0,0,120.12,82.62Z"/><path class="cls-4" d="M130.28,83a2.52,2.52,0,0,0,2.79,2.66,2.65,2.65,0,0,0,2.64-1.7l1.12.29a4,4,0,0,1-7.76-1.55,3.86,3.86,0,0,1,4-4.11c2.69,0,3.91,1.81,3.91,4.4Zm0-.8h5.52a2.52,2.52,0,0,0-2.74-2.51A2.63,2.63,0,0,0,130.28,82.16Z"/><path class="cls-4" d="M141.9,84.08l1.25,0c0,1.07.82,1.7,2.29,1.7.94,0,2-.43,2-1.38,0-2-5.39-.29-5.39-3.52,0-1.42,1.52-2.29,3.14-2.29,2.21,0,3.27,1,3.39,2.59-.42,0-.83.06-1.25.08-.08-1.06-.8-1.63-2.18-1.63-1,0-1.92.5-1.92,1.31,0,1.94,5.43.32,5.43,3.46,0,1.62-1.66,2.34-3.33,2.34C143.11,86.69,142,85.74,141.9,84.08Z"/><path class="cls-4" d="M150.93,76.26a.61.61,0,0,1,.64-.62.6.6,0,0,1,.62.62V77a.59.59,0,0,1-.62.61.6.6,0,0,1-.64-.61Zm0,10.28V78.73h1.23v7.81Z"/><path class="cls-4" d="M157.58,84.08l1.25,0c0,1.07.82,1.7,2.29,1.7.94,0,2-.43,2-1.38,0-2-5.39-.29-5.39-3.52,0-1.42,1.52-2.29,3.14-2.29,2.21,0,3.27,1,3.39,2.59-.42,0-.83.06-1.25.08-.08-1.06-.8-1.63-2.18-1.63-1,0-1.92.5-1.92,1.31,0,1.94,5.43.32,5.43,3.46,0,1.62-1.66,2.34-3.33,2.34C158.8,86.69,157.66,85.74,157.58,84.08Z"/><path class="cls-4" d="M167.33,83a2.52,2.52,0,0,0,2.79,2.66,2.65,2.65,0,0,0,2.64-1.7l1.12.29a4,4,0,0,1-7.76-1.55,3.86,3.86,0,0,1,4-4.11c2.69,0,3.91,1.81,3.91,4.4Zm0-.8h5.52a2.52,2.52,0,0,0-2.74-2.51A2.63,2.63,0,0,0,167.33,82.16Z"/><path class="cls-4" d="M185.25,86.54l0-1.47h0a2.88,2.88,0,0,1-2.8,1.63,2.79,2.79,0,0,1-3.12-3v-5h1.23V83.6a1.9,1.9,0,0,0,2.16,2A2.4,2.4,0,0,0,185.17,83V78.73h1.23v7.81Z"/><path class="cls-4" d="M190.89,79.75V85c0,.37.22.67.88.67a2.23,2.23,0,0,0,.91-.19v.91a3,3,0,0,1-1.5.35,1.36,1.36,0,0,1-1.52-1.31V79.75h-1.5v-1h1.5v-2h1.23v2h1.79v1Z"/><path class="cls-4" d="M194.55,76.26a.61.61,0,0,1,.64-.62.6.6,0,0,1,.62.62V77a.59.59,0,0,1-.62.61.6.6,0,0,1-.64-.61Zm0,10.28V78.73h1.23v7.81Z"/><path class="cls-4" d="M198.37,86.54V75.69h1.23V86.54Z"/><path class="cls-4" d="M202.15,76.26a.61.61,0,0,1,.64-.62.6.6,0,0,1,.62.62V77a.59.59,0,0,1-.62.61.6.6,0,0,1-.64-.61Zm0,10.28V78.73h1.23v7.81Z"/><path class="cls-4" d="M205.28,86.54V85.6l5.15-5.81h-4.79V78.73h6.51v.93L207,85.48h5.41v1.06Z"/><path class="cls-4" d="M213.47,82.64a4.06,4.06,0,1,1,4,4.07A3.85,3.85,0,0,1,213.47,82.64Zm1.18,0a2.75,2.75,0,0,0,2.86,3,2.79,2.79,0,0,0,2.88-3,2.88,2.88,0,1,0-5.75,0Zm4.55-7.92c.27.29.51.59.77.88l-2.66,2.3c-.22-.24-.43-.5-.64-.74Z"/><path class="cls-4" d="M226.32,82.64a4.06,4.06,0,1,1,4,4.07A3.85,3.85,0,0,1,226.32,82.64Zm1.18,0a2.75,2.75,0,0,0,2.86,3,2.79,2.79,0,0,0,2.88-3,2.88,2.88,0,1,0-5.75,0Z"/><path class="cls-4" d="M245.62,86.54v-5c0-1.22-.8-1.94-2.19-1.94a2.37,2.37,0,0,0-2.5,2.43v4.5h-1.23V78.73h1.22c0,.46,0,.93,0,1.39l0,0a3,3,0,0,1,2.83-1.6c1.89,0,3.11,1.1,3.11,2.71v5.3Z"/><path class="cls-4" d="M248.89,82.64a4.06,4.06,0,1,1,4,4.07A3.85,3.85,0,0,1,248.89,82.64Zm1.18,0a2.75,2.75,0,0,0,2.86,3,2.79,2.79,0,0,0,2.88-3,2.88,2.88,0,1,0-5.75,0Z"/><path class="cls-4" d="M262.94,83a2.52,2.52,0,0,0,2.79,2.66,2.65,2.65,0,0,0,2.64-1.7l1.12.29a4,4,0,0,1-7.76-1.55,3.86,3.86,0,0,1,4-4.11c2.69,0,3.91,1.81,3.91,4.4Zm0-.8h5.52a2.52,2.52,0,0,0-2.74-2.51A2.63,2.63,0,0,0,262.94,82.16Z"/><path class="cls-4" d="M271.77,86.54V75.69H273V86.54Z"/><path class="cls-4" d="M279.44,83a2.52,2.52,0,0,0,2.79,2.66,2.65,2.65,0,0,0,2.64-1.7l1.12.29a4,4,0,0,1-7.76-1.55,3.86,3.86,0,0,1,4-4.11c2.69,0,3.91,1.81,3.91,4.4Zm0-.8H285a2.52,2.52,0,0,0-2.74-2.51A2.63,2.63,0,0,0,279.44,82.16Z"/><path class="cls-4" d="M293.59,86.54l-2.66-3.2-2.58,3.2h-1.58c1.12-1.33,2.26-2.67,3.36-4-1-1.26-2-2.54-3.07-3.81h1.57c.77,1,1.55,2,2.32,3l2.35-3h1.57c-1,1.25-2.08,2.51-3.14,3.76l3.44,4Z"/><path class="cls-4" d="M298.93,79.75V85c0,.37.22.67.88.67a2.23,2.23,0,0,0,.91-.19v.91a3,3,0,0,1-1.5.35,1.36,1.36,0,0,1-1.52-1.31V79.75h-1.5v-1h1.5v-2h1.23v2h1.79v1Z"/><path class="cls-4" d="M302.58,76.26a.61.61,0,0,1,.64-.62.6.6,0,0,1,.62.62V77a.59.59,0,0,1-.62.61.6.6,0,0,1-.64-.61Zm0,10.28V78.73h1.23v7.81Z"/><path class="cls-4" d="M312.34,86.54v-5c0-1.22-.8-1.94-2.19-1.94a2.37,2.37,0,0,0-2.5,2.43v4.5h-1.23V78.73h1.22c0,.46,0,.93,0,1.39l0,0a3,3,0,0,1,2.83-1.6c1.89,0,3.11,1.1,3.11,2.71v5.3Z"/><path class="cls-4" d="M317.91,79.75V85c0,.37.22.67.88.67a2.23,2.23,0,0,0,.91-.19v.91a3,3,0,0,1-1.5.35,1.36,1.36,0,0,1-1.52-1.31V79.75h-1.5v-1h1.5v-2h1.23v2h1.79v1Z"/><path class="cls-4" d="M320.92,82.64a4.06,4.06,0,1,1,4,4.07A3.85,3.85,0,0,1,320.92,82.64Zm1.18,0a2.75,2.75,0,0,0,2.86,3,2.79,2.79,0,0,0,2.88-3,2.88,2.88,0,1,0-5.75,0Z"/><path class="cls-4" d="M335.23,79.72c-2.32,0-2.8,1.87-2.8,3.71v3.11h-1.23V78.73h1.22c0,.69,0,1.33-.06,2a3.05,3.05,0,0,1,2.88-2.14Z"/><path class="cls-4" d="M335.91,86.54V84.81h1.31v1.73Z"/><path class="cls-5" d="M45.54,30.35,45.12,33H43.3l2-11.57h2.4L49.61,33H47.78l-.41-2.66Zm.92-6.26-.65,4.56h1.29Z"/><path class="cls-5" d="M52.71,33V21.43h2.61a3.33,3.33,0,0,1,1.87.54,2.53,2.53,0,0,1,1,1.43,4,4,0,0,1,.17,1.23,2.72,2.72,0,0,1-.62,1.87,1.77,1.77,0,0,1-.61.45,2,2,0,0,1,1,.88,3.4,3.4,0,0,1,.4,1.14,4.58,4.58,0,0,1,.06.8,3.87,3.87,0,0,1-.42,1.87,2.49,2.49,0,0,1-.91,1,2.52,2.52,0,0,1-1.32.41Zm1.88-6.85h.73a1.07,1.07,0,0,0,1.09-.79,2.28,2.28,0,0,0,.1-.73,1.53,1.53,0,0,0-.35-1.09,1.11,1.11,0,0,0-.84-.34h-.73Zm0,5.12h.73a1.24,1.24,0,0,0,1.23-.91,2,2,0,0,0,.12-.72,2.2,2.2,0,0,0-.37-1.41,1.19,1.19,0,0,0-1-.41h-.73Z"/><path class="cls-5" d="M64.43,21.44a2.66,2.66,0,0,1,2.14.8,2.92,2.92,0,0,1,.6,2v1.68A2.7,2.7,0,0,1,66.24,28L67.54,33H65.65l-1.06-4.36H63.43V33H61.68V21.44Zm1,2.79a.89.89,0,0,0-1-1H63.43v3.7h1.05a1,1,0,0,0,.71-.29,1,1,0,0,0,.29-.71Z"/><path class="cls-5" d="M72.87,30.35,72.45,33H70.63l2-11.57H75L76.94,33H75.1l-.41-2.66Zm.92-6.26-.65,4.56h1.29Z"/><path class="cls-5" d="M85.13,21.44v1.75l-3.21,8.08h3.21V33H80V31.26l3.22-8.08H80V21.44Z"/><path class="cls-5" d="M90.47,30.35,90,33H88.23l2-11.57h2.4L94.54,33H92.7l-.41-2.66Zm.92-6.26-.65,4.56H92Z"/><path class="cls-5" d="M103.12,30.23a2.69,2.69,0,0,1-.8,2,2.62,2.62,0,0,1-1.94.81H97.63V21.43h2.74a2.62,2.62,0,0,1,1.94.81,2.68,2.68,0,0,1,.8,1.95Zm-3.74,1h1.05a.93.93,0,0,0,.7-.3,1,1,0,0,0,.29-.71V24.21a1,1,0,0,0-.29-.71.94.94,0,0,0-.7-.29H99.38Z"/><path class="cls-5" d="M106.22,33V21.43h5v1.75H108v3.16h2.35v1.75H108v3.16h3.22V33Z"/><path class="cls-5" d="M117,21.44a2.66,2.66,0,0,1,2.14.8,2.92,2.92,0,0,1,.6,2v1.68a2.7,2.7,0,0,1-.93,2.08L120.14,33h-1.89l-1.06-4.36H116V33h-1.74V21.44Zm1,2.79a.89.89,0,0,0-1-1H116v3.7h1.05a1,1,0,0,0,.71-.29,1,1,0,0,0,.29-.71Z"/><path class="cls-5" d="M125.47,30.35,125.05,33h-1.82l2-11.57h2.4L129.54,33h-1.83l-.41-2.66Zm.92-6.26-.65,4.56H127Z"/><path class="cls-5" d="M138.5,21.29a2.77,2.77,0,0,1,2.77,2.77v6.31a2.77,2.77,0,1,1-5.53,0V24.06a2.77,2.77,0,0,1,2.76-2.77Zm1,2.73a1,1,0,0,0-1-1,1,1,0,0,0-.71.29,1,1,0,0,0-.29.71v6.33a1,1,0,0,0,.29.71,1,1,0,0,0,.71.29,1,1,0,0,0,1-1Z"/><path class="cls-5" d="M150.21,21.44a2.66,2.66,0,0,1,2,.8,2.79,2.79,0,0,1,.7,2v1.68a2.69,2.69,0,0,1-.8,2,2.61,2.61,0,0,1-1.93.81h-1V33h-1.74V21.44Zm1,2.79a1,1,0,0,0-.27-.73,1,1,0,0,0-.72-.28h-1.05v3.7h1.05a1,1,0,0,0,.71-.29,1,1,0,0,0,.29-.71Z"/><path class="cls-5" d="M158.8,21.44a2.66,2.66,0,0,1,2.14.8,2.92,2.92,0,0,1,.6,2v1.68a2.7,2.7,0,0,1-.93,2.08L161.9,33H160L159,28.65h-1.16V33H156V21.44Zm1,2.79a.89.89,0,0,0-1-1h-1.05v3.7h1.05a1,1,0,0,0,.71-.29,1,1,0,0,0,.29-.71Z"/><path class="cls-5" d="M165,33V21.43h5v1.75h-3.22v3.16h2.35v1.75h-2.35v3.16H170V33Z"/><path class="cls-5" d="M175.79,33.15A2.76,2.76,0,0,1,173,30.39V24.08a2.77,2.77,0,1,1,5.53,0V25.4h-1.81V24a1,1,0,0,0-1-1,1,1,0,0,0-.71.3,1,1,0,0,0-.29.71v6.33a1,1,0,0,0,1,1,1,1,0,0,0,.71-.29,1,1,0,0,0,.3-.71v-1.6h1.81v1.62a2.76,2.76,0,0,1-2.76,2.76Z"/><path class="cls-5" d="M183.39,33h-1.74V21.44h1.74Z"/><path class="cls-5" d="M188.46,21.43l2.32,7.78V21.43h1.75V33h-1.87l-2.4-7.41V33H186.5V21.43Z"/><path class="cls-5" d="M197.48,23.19h-1.86V21.44h5.45v1.75h-1.85V33h-1.75Z"/><path class="cls-5" d="M206.89,21.29a2.77,2.77,0,0,1,2.77,2.77v6.31a2.77,2.77,0,1,1-5.53,0V24.06a2.77,2.77,0,0,1,2.76-2.77Zm1,2.73a1,1,0,0,0-1-1,1,1,0,0,0-.71.29,1,1,0,0,0-.29.71v6.33a1,1,0,0,0,.29.71,1,1,0,0,0,.71.29,1,1,0,0,0,1-1Z"/><path class="cls-5" d="M221.34,30.23a2.69,2.69,0,0,1-.8,2,2.62,2.62,0,0,1-1.94.81h-2.74V21.43h2.74a2.62,2.62,0,0,1,1.94.81,2.68,2.68,0,0,1,.8,1.95Zm-3.74,1h1.05a.93.93,0,0,0,.7-.3,1,1,0,0,0,.29-.71V24.21a1,1,0,0,0-.29-.71.94.94,0,0,0-.7-.29H217.6Z"/><path class="cls-5" d="M224.45,33V21.43h5v1.75h-3.22v3.16h2.35v1.75h-2.35v3.16h3.22V33Z"/><path class="cls-5" d="M241.38,30.12a3.26,3.26,0,0,1-.63,2.07,2.26,2.26,0,0,1-1.2.82,3.25,3.25,0,0,1-1,.13,2.74,2.74,0,0,1-1.7-.51A2.85,2.85,0,0,1,236,31.5a4.55,4.55,0,0,1-.38-1.64l1.66-.12a2.53,2.53,0,0,0,.54,1.47.9.9,0,0,0,.72.33,1.08,1.08,0,0,0,.91-.56,1.39,1.39,0,0,0,.18-.77,2.13,2.13,0,0,0-.66-1.43l-1.55-1.47a6.64,6.64,0,0,1-1.23-1.51,3.48,3.48,0,0,1-.39-1.63,2.83,2.83,0,0,1,1.06-2.39,2.63,2.63,0,0,1,1.63-.49,3,3,0,0,1,1.6.42,2.4,2.4,0,0,1,.83.9,3.35,3.35,0,0,1,.38,1.34l-1.67.3a2,2,0,0,0-.41-1.11.85.85,0,0,0-.69-.29.8.8,0,0,0-.73.42,1.65,1.65,0,0,0-.2.85,2.55,2.55,0,0,0,.68,1.62,5.76,5.76,0,0,0,.78.74q.61.51.8.71a5.93,5.93,0,0,1,1,1.27,5,5,0,0,1,.27.54A3.19,3.19,0,0,1,241.38,30.12Z"/><path class="cls-5" d="M244.48,33V21.43h5v1.75h-3.22v3.16h2.35v1.75h-2.35v3.16h3.22V33Z"/><path class="cls-5" d="M255.28,33.15a2.77,2.77,0,0,1-2.77-2.76V24.08a2.77,2.77,0,1,1,5.53,0V25.4h-1.81V24a1,1,0,0,0-1-1,1,1,0,0,0-.71.3,1,1,0,0,0-.29.71v6.33a1,1,0,0,0,1,1,1,1,0,0,0,.71-.29,1,1,0,0,0,.3-.71V28.1h-1V26.35H258v4a2.76,2.76,0,0,1-2.76,2.76Z"/><path class="cls-5" d="M263.89,33.13a2.74,2.74,0,0,1-2.76-2.75V21.44h1.71v8.93a1,1,0,0,0,.29.71,1,1,0,0,0,.71.29,1,1,0,0,0,1-1V21.44h1.82v8.95a2.63,2.63,0,0,1-.81,2A2.7,2.7,0,0,1,263.89,33.13Z"/><path class="cls-5" d="M272.52,21.44a2.66,2.66,0,0,1,2.14.8,2.92,2.92,0,0,1,.6,2v1.68a2.7,2.7,0,0,1-.93,2.08L275.62,33h-1.89l-1.06-4.36h-1.16V33h-1.74V21.44Zm1,2.79a.89.89,0,0,0-1-1h-1.05v3.7h1.05a1,1,0,0,0,.71-.29,1,1,0,0,0,.29-.71Z"/><path class="cls-5" d="M280.46,33h-1.74V21.44h1.74Z"/><path class="cls-5" d="M289.06,30.23a2.69,2.69,0,0,1-.8,2,2.62,2.62,0,0,1-1.94.81h-2.74V21.43h2.74a2.62,2.62,0,0,1,1.94.81,2.68,2.68,0,0,1,.8,1.95Zm-3.74,1h1.05a.93.93,0,0,0,.7-.3,1,1,0,0,0,.29-.71V24.21a1,1,0,0,0-.29-.71.94.94,0,0,0-.7-.29h-1.05Z"/><path class="cls-5" d="M294.21,30.35,293.79,33H292l2-11.57h2.4L298.27,33h-1.83L296,30.35Zm.92-6.26-.65,4.56h1.29Z"/><path class="cls-5" d="M306.86,30.23a2.69,2.69,0,0,1-.8,2,2.62,2.62,0,0,1-1.94.81h-2.74V21.43h2.74a2.62,2.62,0,0,1,1.94.81,2.68,2.68,0,0,1,.8,1.95Zm-3.74,1h1.05a.93.93,0,0,0,.7-.3,1,1,0,0,0,.29-.71V24.21a1,1,0,0,0-.29-.71.94.94,0,0,0-.7-.29h-1.05Z"/></g></g></g></svg>