<svg xmlns="http://www.w3.org/2000/svg" viewBox="0 0 362.47 99.92"><defs><style>.cls-1{isolation:isolate;}.cls-2{opacity:0.6;mix-blend-mode:overlay;}.cls-3{fill:#fff;}.cls-4{fill:#909090;}.cls-5{fill:#ed0531;}</style></defs><title>b4</title><g class="cls-1"><g id="Capa_2" data-name="Capa 2"><g id="Capa_7" data-name="Capa 7"><g class="cls-2"><rect y="23.26" width="357.97" height="76.66" rx="12.04" ry="12.04"/></g><rect class="cls-3" width="362.47" height="92.36" rx="12.32" ry="12.32"/><path class="cls-4" d="M44.93,45.91v4.63H43.68V39.69H48c2.48,0,4,1,4,3s-1.7,3.19-3.92,3.19Zm0-5.14v4.08H48c1.42,0,2.61-.75,2.61-2s-1-2-2.67-2Z"/><path class="cls-4" d="M59.66,50.54V48.92a3.14,3.14,0,0,1-3,1.76,3.74,3.74,0,0,1-3.86-4,3.82,3.82,0,0,1,4-4.11,3.38,3.38,0,0,1,2.95,1.71s0-1,0-1.52h1.2v7.81ZM54,46.65a2.68,2.68,0,0,0,2.72,3,2.79,2.79,0,0,0,2.85-3,2.69,2.69,0,0,0-2.85-3A2.77,2.77,0,0,0,54,46.65Z"/><path class="cls-4" d="M67.18,43.72c-2.32,0-2.8,1.87-2.8,3.71v3.11H63.15V42.73h1.22c0,.69,0,1.33-.06,2a3.05,3.05,0,0,1,2.88-2.14Z"/><path class="cls-4" d="M70.91,43.75V49c0,.37.22.67.88.67a2.23,2.23,0,0,0,.91-.19v.91a3,3,0,0,1-1.5.35,1.36,1.36,0,0,1-1.52-1.31V43.75h-1.5v-1h1.5v-2h1.23v2H72.7v1Z"/><path class="cls-4" d="M74.93,47a2.52,2.52,0,0,0,2.79,2.66,2.65,2.65,0,0,0,2.64-1.7l1.12.29a4,4,0,0,1-7.76-1.55,3.86,3.86,0,0,1,4-4.11c2.69,0,3.91,1.81,3.91,4.4Zm0-.8h5.52a2.52,2.52,0,0,0-2.74-2.51A2.63,2.63,0,0,0,74.93,46.16Z"/><path class="cls-4" d="M88.11,49c0,.61,0,1.17,0,1.83v2.46h-1.2V42.73h1.2v.72c0,.29,0,.86,0,.86a3.47,3.47,0,0,1,3-1.78c2.43,0,3.83,1.71,3.83,4.1s-1.47,4.1-3.87,4.1A3.19,3.19,0,0,1,88.11,49Zm.06-2.38c0,1.86.94,3.06,2.82,3.06a2.73,2.73,0,0,0,2.72-3,2.73,2.73,0,0,0-2.71-3A2.77,2.77,0,0,0,88.18,46.6Z"/><path class="cls-4" d="M96.45,46.64a4.06,4.06,0,1,1,8.12,0,4.06,4.06,0,1,1-8.12,0Zm1.18,0a2.75,2.75,0,0,0,2.86,3,2.79,2.79,0,0,0,2.88-3,2.88,2.88,0,1,0-5.75,0Z"/><path class="cls-4" d="M110.54,43.72c-2.32,0-2.8,1.87-2.8,3.71v3.11h-1.23V42.73h1.22c0,.69,0,1.33-.06,2a3.05,3.05,0,0,1,2.88-2.14Z"/><path class="cls-4" d="M121.44,50.54v-1.6a3.36,3.36,0,0,1-3,1.76c-2.42,0-3.81-1.75-3.81-4.08s1.5-4.11,3.86-4.11a3.44,3.44,0,0,1,3,1.71s0-1.2,0-1.83V39.69h1.22V50.54Zm-5.6-3.92c0,1.75,1,3,2.72,3a2.83,2.83,0,0,0,2.85-3,2.7,2.7,0,0,0-2.85-3A2.77,2.77,0,0,0,115.83,46.62Z"/><path class="cls-4" d="M124.58,46.64a4.06,4.06,0,1,1,8.12,0,4.06,4.06,0,1,1-8.12,0Zm1.18,0a2.75,2.75,0,0,0,2.86,3,2.79,2.79,0,0,0,2.88-3,2.88,2.88,0,1,0-5.75,0Z"/><path class="cls-4" d="M140.56,50.54v-5c0-1.22-.8-1.94-2.19-1.94a2.37,2.37,0,0,0-2.5,2.43v4.5h-1.23V42.73h1.22c0,.46,0,.93,0,1.39l0,0a3,3,0,0,1,2.83-1.6c1.89,0,3.11,1.1,3.11,2.71v5.3Z"/><path class="cls-4" d="M150.47,50.54v-1.6a3.36,3.36,0,0,1-3,1.76c-2.42,0-3.81-1.75-3.81-4.08s1.5-4.11,3.86-4.11a3.44,3.44,0,0,1,3,1.71s0-1.2,0-1.83V39.69h1.22V50.54Zm-5.6-3.92c0,1.75,1,3,2.72,3a2.83,2.83,0,0,0,2.85-3,2.7,2.7,0,0,0-2.85-3A2.77,2.77,0,0,0,144.87,46.62Z"/><path class="cls-4" d="M154.81,47a2.52,2.52,0,0,0,2.79,2.66,2.65,2.65,0,0,0,2.64-1.7l1.12.29a4,4,0,0,1-7.76-1.55,3.86,3.86,0,0,1,4-4.11c2.69,0,3.91,1.81,3.91,4.4Zm0-.8h5.52a2.52,2.52,0,0,0-2.74-2.51A2.63,2.63,0,0,0,154.81,46.16Z"/><path class="cls-4" d="M166.43,48.08l1.25,0c0,1.07.82,1.7,2.29,1.7.94,0,2-.43,2-1.38,0-2-5.39-.29-5.39-3.52,0-1.42,1.52-2.29,3.14-2.29,2.21,0,3.27,1,3.39,2.59-.42,0-.83.06-1.25.08-.08-1.06-.8-1.63-2.18-1.63-1,0-1.92.5-1.92,1.31,0,1.94,5.43.32,5.43,3.46,0,1.62-1.66,2.34-3.33,2.34C167.65,50.69,166.51,49.74,166.43,48.08Z"/><path class="cls-4" d="M181.6,50.54V48.92a3.14,3.14,0,0,1-3,1.76,3.74,3.74,0,0,1-3.86-4,3.82,3.82,0,0,1,4-4.11,3.38,3.38,0,0,1,2.95,1.71s0-1,0-1.52h1.2v7.81ZM176,46.65a2.68,2.68,0,0,0,2.72,3,2.79,2.79,0,0,0,2.85-3,2.69,2.69,0,0,0-2.85-3A2.77,2.77,0,0,0,176,46.65Z"/><path class="cls-4" d="M185.06,50.54V39.69h1.23V50.54Z"/><path class="cls-4" d="M189.41,47a2.52,2.52,0,0,0,2.79,2.66,2.65,2.65,0,0,0,2.64-1.7l1.12.29a4,4,0,0,1-7.76-1.55,3.86,3.86,0,0,1,4-4.11c2.69,0,3.91,1.81,3.91,4.4Zm0-.8h5.52a2.52,2.52,0,0,0-2.74-2.51A2.63,2.63,0,0,0,189.41,46.16Z"/><path class="cls-4" d="M202.08,47a2.52,2.52,0,0,0,2.79,2.66,2.65,2.65,0,0,0,2.64-1.7l1.12.29a4,4,0,0,1-7.76-1.55,3.86,3.86,0,0,1,4-4.11c2.69,0,3.91,1.81,3.91,4.4Zm0-.8h5.52a2.52,2.52,0,0,0-2.74-2.51A2.63,2.63,0,0,0,202.08,46.16Z"/><path class="cls-4" d="M210.71,50.54V39.69h1.23V50.54Z"/><path class="cls-4" d="M224,50.54V48.92a3.14,3.14,0,0,1-3,1.76,3.74,3.74,0,0,1-3.86-4,3.82,3.82,0,0,1,4-4.11,3.38,3.38,0,0,1,2.95,1.71s0-1,0-1.52h1.2v7.81Zm-5.62-3.89a2.68,2.68,0,0,0,2.72,3,2.79,2.79,0,0,0,2.85-3,2.69,2.69,0,0,0-2.85-3A2.77,2.77,0,0,0,218.39,46.65Z"/><path class="cls-4" d="M227.94,51.39a5.19,5.19,0,0,0,2.88,1c1.78,0,3-.88,3-2.75v-.91a3.37,3.37,0,0,1-3,1.78A3.65,3.65,0,0,1,227,46.57a3.76,3.76,0,0,1,3.94-4,3.15,3.15,0,0,1,2.88,1.74s0-1,0-1.55H235v7c0,2.27-1.5,3.68-4,3.68a6.06,6.06,0,0,1-3.43-1.07C227.64,52,227.83,51.71,227.94,51.39Zm.34-4.83a2.62,2.62,0,0,0,2.66,2.85,2.68,2.68,0,0,0,2.77-2.82,2.72,2.72,0,1,0-5.43,0Z"/><path class="cls-4" d="M238.09,47a2.52,2.52,0,0,0,2.79,2.66,2.65,2.65,0,0,0,2.64-1.7l1.12.29a4,4,0,0,1-7.76-1.55,3.86,3.86,0,0,1,4-4.11c2.69,0,3.91,1.81,3.91,4.4Zm0-.8h5.52a2.52,2.52,0,0,0-2.74-2.51A2.63,2.63,0,0,0,238.09,46.16Z"/><path class="cls-4" d="M252.64,50.54v-5c0-1.22-.8-1.94-2.19-1.94A2.37,2.37,0,0,0,248,46v4.5h-1.23V42.73h1.22c0,.46,0,.93,0,1.39l0,0a3,3,0,0,1,2.83-1.6c1.89,0,3.11,1.1,3.11,2.71v5.3Z"/><path class="cls-4" d="M258,43.75V49c0,.37.22.67.88.67a2.23,2.23,0,0,0,.91-.19v.91a3,3,0,0,1-1.5.35,1.36,1.36,0,0,1-1.52-1.31V43.75h-1.5v-1h1.5v-2H258v2h1.79v1Z"/><path class="cls-4" d="M262,47a2.52,2.52,0,0,0,2.79,2.66,2.65,2.65,0,0,0,2.64-1.7l1.12.29a4,4,0,0,1-7.76-1.55,3.86,3.86,0,0,1,4-4.11c2.69,0,3.91,1.81,3.91,4.4Zm0-.8h5.52a2.52,2.52,0,0,0-2.74-2.51A2.63,2.63,0,0,0,262,46.16Z"/><path class="cls-4" d="M274.7,47a2.52,2.52,0,0,0,2.79,2.66,2.65,2.65,0,0,0,2.64-1.7l1.12.29a4,4,0,0,1-7.76-1.55,3.86,3.86,0,0,1,4-4.11c2.69,0,3.91,1.81,3.91,4.4Zm0-.8h5.52a2.52,2.52,0,0,0-2.74-2.51A2.63,2.63,0,0,0,274.7,46.16Z"/><path class="cls-4" d="M288.64,50.54,286,47.34l-2.58,3.2h-1.58c1.12-1.33,2.26-2.67,3.36-4-1-1.26-2-2.54-3.07-3.81h1.57c.77,1,1.55,2,2.32,3l2.35-3h1.57c-1,1.25-2.08,2.51-3.14,3.76l3.44,4Z"/><path class="cls-4" d="M293.77,43.75V49c0,.37.22.67.88.67a2.23,2.23,0,0,0,.91-.19v.91a3,3,0,0,1-1.5.35,1.36,1.36,0,0,1-1.52-1.31V43.75H291v-1h1.5v-2h1.23v2h1.79v1Z"/><path class="cls-4" d="M297.21,40.26a.61.61,0,0,1,.64-.62.6.6,0,0,1,.62.62V41a.59.59,0,0,1-.62.61.6.6,0,0,1-.64-.61Zm0,10.28V42.73h1.23v7.81Z"/><path class="cls-4" d="M306.76,50.54v-5c0-1.22-.8-1.94-2.19-1.94a2.37,2.37,0,0,0-2.5,2.43v4.5h-1.23V42.73h1.22c0,.46,0,.93,0,1.39l0,0a3,3,0,0,1,2.83-1.6c1.89,0,3.11,1.1,3.11,2.71v5.3Z"/><path class="cls-4" d="M312.13,43.75V49c0,.37.22.67.88.67a2.23,2.23,0,0,0,.91-.19v.91a3,3,0,0,1-1.5.35,1.36,1.36,0,0,1-1.52-1.31V43.75h-1.5v-1h1.5v-2h1.23v2h1.79v1Z"/><path class="cls-4" d="M314.93,46.64a4.06,4.06,0,1,1,8.12,0,4.06,4.06,0,1,1-8.12,0Zm1.18,0a2.75,2.75,0,0,0,2.86,3,2.79,2.79,0,0,0,2.88-3,2.88,2.88,0,1,0-5.75,0Z"/><path class="cls-4" d="M329,43.72c-2.32,0-2.8,1.87-2.8,3.71v3.11H325V42.73h1.22c0,.69,0,1.33-.06,2A3.05,3.05,0,0,1,329,42.55Z"/><path class="cls-4" d="M43.73,70.41c.13-.34.29-.67.42-1a5.56,5.56,0,0,0,2.9.91c1.82,0,2.77-.88,2.77-3.41A3,3,0,0,1,47,68.57c-1.87,0-3.15-1-3.15-3V60.73H45v4.75a1.94,1.94,0,0,0,2.21,2,2.33,2.33,0,0,0,2.45-2.58V60.73h1.25V67c0,2.59-1.31,4.42-3.86,4.42A6.16,6.16,0,0,1,43.73,70.41Z"/><path class="cls-4" d="M56.21,64.72a3.88,3.88,0,0,1,4.13-4.18,3.37,3.37,0,0,1,3.55,2.56l-1.12.34a2.28,2.28,0,0,0-2.5-1.79,2.77,2.77,0,0,0-2.87,3.07,2.63,2.63,0,0,0,2.77,2.9,2.92,2.92,0,0,0,2.71-1.82L64,66a3.59,3.59,0,0,1-3.78,2.66A3.73,3.73,0,0,1,56.21,64.72Z"/><path class="cls-4" d="M65.33,64.64a4.06,4.06,0,1,1,4,4.07A3.85,3.85,0,0,1,65.33,64.64Zm1.18,0a2.75,2.75,0,0,0,2.86,3,2.79,2.79,0,0,0,2.88-3,2.88,2.88,0,1,0-5.75,0Z"/><path class="cls-4" d="M81.32,68.54v-5c0-1.22-.8-1.94-2.19-1.94A2.37,2.37,0,0,0,76.63,64v4.5H75.4V60.73h1.22c0,.46,0,.93,0,1.39l0,0a3,3,0,0,1,2.83-1.6c1.89,0,3.11,1.1,3.11,2.71v5.3Z"/><path class="cls-4" d="M88.18,68.54V57.69h1.23V68.54Z"/><path class="cls-4" d="M98.16,68.54V66.92a3.14,3.14,0,0,1-3,1.76,3.74,3.74,0,0,1-3.86-4,3.82,3.82,0,0,1,4-4.11,3.38,3.38,0,0,1,2.95,1.71s0-1,0-1.52h1.2v7.81Zm-5.62-3.89a2.68,2.68,0,0,0,2.72,3,2.79,2.79,0,0,0,2.85-3,2.69,2.69,0,0,0-2.85-3A2.77,2.77,0,0,0,92.54,64.65Z"/><path class="cls-4" d="M104.38,64.72a3.88,3.88,0,0,1,4.13-4.18,3.37,3.37,0,0,1,3.55,2.56l-1.12.34a2.28,2.28,0,0,0-2.5-1.79,2.77,2.77,0,0,0-2.87,3.07,2.63,2.63,0,0,0,2.77,2.9,2.92,2.92,0,0,0,2.71-1.82l1.09.24a3.59,3.59,0,0,1-3.78,2.66A3.73,3.73,0,0,1,104.38,64.72Z"/><path class="cls-4" d="M119.83,68.54l0-1.47h0A2.88,2.88,0,0,1,117,68.7a2.79,2.79,0,0,1-3.12-3v-5h1.23V65.6a1.9,1.9,0,0,0,2.16,2A2.4,2.4,0,0,0,119.75,65V60.73H121v7.81Z"/><path class="cls-4" d="M129.7,68.54V66.92a3.14,3.14,0,0,1-3,1.76,3.74,3.74,0,0,1-3.86-4,3.82,3.82,0,0,1,4-4.11,3.38,3.38,0,0,1,2.95,1.71s0-1,0-1.52h1.2v7.81Zm-5.62-3.89a2.68,2.68,0,0,0,2.72,3,2.79,2.79,0,0,0,2.85-3,2.69,2.69,0,0,0-2.85-3A2.77,2.77,0,0,0,124.09,64.65Z"/><path class="cls-4" d="M133.17,68.54V57.69h1.23V68.54Z"/><path class="cls-4" d="M139.77,66.08,141,66c0,1.07.82,1.7,2.29,1.7.94,0,2-.43,2-1.38,0-2-5.39-.29-5.39-3.52,0-1.42,1.52-2.29,3.14-2.29,2.21,0,3.27,1,3.39,2.59-.42,0-.83.06-1.25.08-.08-1.06-.8-1.63-2.18-1.63-1,0-1.92.5-1.92,1.31,0,1.94,5.43.32,5.43,3.46,0,1.62-1.66,2.34-3.33,2.34C141,68.69,139.85,67.74,139.77,66.08Z"/><path class="cls-4" d="M149.31,65a2.52,2.52,0,0,0,2.79,2.66,2.65,2.65,0,0,0,2.64-1.7l1.12.29a4,4,0,0,1-7.76-1.55,3.86,3.86,0,0,1,4-4.11c2.69,0,3.91,1.81,3.91,4.4Zm0-.8h5.52a2.52,2.52,0,0,0-2.74-2.51A2.63,2.63,0,0,0,149.31,64.16Z"/><path class="cls-4" d="M161.69,69.39a5.19,5.19,0,0,0,2.88,1c1.78,0,3-.88,3-2.75v-.91a3.37,3.37,0,0,1-3,1.78,3.65,3.65,0,0,1-3.79-3.89,3.76,3.76,0,0,1,3.94-4,3.15,3.15,0,0,1,2.88,1.74s0-1,0-1.55h1.17v7c0,2.27-1.5,3.68-4,3.68a6.06,6.06,0,0,1-3.43-1.07C161.39,70,161.58,69.71,161.69,69.39Zm.34-4.83a2.62,2.62,0,0,0,2.66,2.85,2.68,2.68,0,0,0,2.77-2.82,2.72,2.72,0,1,0-5.43,0Z"/><path class="cls-4" d="M177,68.54l0-1.47h0a2.88,2.88,0,0,1-2.8,1.63,2.79,2.79,0,0,1-3.12-3v-5h1.23V65.6a1.9,1.9,0,0,0,2.16,2A2.4,2.4,0,0,0,177,65V60.73h1.23v7.81Z"/><path class="cls-4" d="M182.73,56.71c.27.29.51.59.77.88l-2.66,2.3c-.22-.24-.43-.5-.64-.74Zm-2.34,11.83V60.73h1.23v7.81Z"/><path class="cls-4" d="M190.12,68.54V66.92a3.14,3.14,0,0,1-3,1.76,3.74,3.74,0,0,1-3.86-4,3.82,3.82,0,0,1,4-4.11,3.38,3.38,0,0,1,2.95,1.71s0-1,0-1.52h1.2v7.81Zm-5.62-3.89a2.68,2.68,0,0,0,2.72,3,2.79,2.79,0,0,0,2.85-3,2.69,2.69,0,0,0-2.85-3A2.77,2.77,0,0,0,184.5,64.65Z"/><path class="cls-4" d="M197.54,65a2.52,2.52,0,0,0,2.79,2.66,2.65,2.65,0,0,0,2.64-1.7l1.12.29a4,4,0,0,1-7.76-1.55,3.86,3.86,0,0,1,4-4.11c2.69,0,3.91,1.81,3.91,4.4Zm0-.8h5.52a2.52,2.52,0,0,0-2.74-2.51A2.63,2.63,0,0,0,197.54,64.16Zm4.55-7.44c.27.29.51.59.77.88l-2.66,2.3c-.22-.24-.43-.5-.64-.74Z"/><path class="cls-4" d="M205.73,66.08,207,66c0,1.07.82,1.7,2.29,1.7.94,0,2-.43,2-1.38,0-2-5.39-.29-5.39-3.52,0-1.42,1.52-2.29,3.14-2.29,2.21,0,3.27,1,3.39,2.59-.42,0-.83.06-1.25.08-.08-1.06-.8-1.63-2.18-1.63-1,0-1.92.5-1.92,1.31,0,1.94,5.43.32,5.43,3.46,0,1.62-1.66,2.34-3.33,2.34C206.95,68.69,205.81,67.74,205.73,66.08Z"/><path class="cls-4" d="M216.51,61.75V67c0,.37.22.67.88.67a2.23,2.23,0,0,0,.91-.19v.91a3,3,0,0,1-1.5.35,1.36,1.36,0,0,1-1.52-1.31V61.75h-1.5v-1h1.5v-2h1.23v2h1.79v1Z"/><path class="cls-4" d="M220.53,65a2.52,2.52,0,0,0,2.79,2.66,2.65,2.65,0,0,0,2.64-1.7l1.12.29a4,4,0,0,1-7.76-1.55,3.86,3.86,0,0,1,4-4.11c2.69,0,3.91,1.81,3.91,4.4Zm0-.8h5.52a2.52,2.52,0,0,0-2.74-2.51A2.63,2.63,0,0,0,220.53,64.16Z"/><path class="cls-4" d="M238.45,68.54v-5a2,2,0,0,0-2.19-2c-1.84,0-2.5,1.22-2.5,2.85v4.08h-1.23V57.69h1.22v3.17c0,.66,0,.69,0,1.25l0,0a3,3,0,0,1,2.83-1.58,2.8,2.8,0,0,1,3.11,2.74v5.27Z"/><path class="cls-4" d="M248.35,68.54V66.92a3.14,3.14,0,0,1-3,1.76,3.74,3.74,0,0,1-3.86-4,3.82,3.82,0,0,1,4-4.11,3.38,3.38,0,0,1,2.95,1.71s0-1,0-1.52h1.2v7.81Zm-5.62-3.89a2.68,2.68,0,0,0,2.72,3,2.79,2.79,0,0,0,2.85-3,2.69,2.69,0,0,0-2.85-3A2.77,2.77,0,0,0,242.74,64.65Z"/><path class="cls-4" d="M251.37,64.72a3.88,3.88,0,0,1,4.13-4.18A3.37,3.37,0,0,1,259,63.1l-1.12.34a2.28,2.28,0,0,0-2.5-1.79,2.77,2.77,0,0,0-2.87,3.07,2.63,2.63,0,0,0,2.77,2.9A2.92,2.92,0,0,0,258,65.79l1.09.24a3.59,3.59,0,0,1-3.78,2.66A3.73,3.73,0,0,1,251.37,64.72Z"/><path class="cls-4" d="M260.91,58.26a.61.61,0,0,1,.64-.62.6.6,0,0,1,.62.62V59a.59.59,0,0,1-.62.61.6.6,0,0,1-.64-.61Zm0,10.28V60.73h1.23v7.81Z"/><path class="cls-4" d="M270.92,68.54V66.92a3.14,3.14,0,0,1-3,1.76,3.74,3.74,0,0,1-3.86-4,3.82,3.82,0,0,1,4-4.11A3.38,3.38,0,0,1,271,62.25s0-1,0-1.52h1.2v7.81Zm-5.62-3.89a2.68,2.68,0,0,0,2.72,3,2.79,2.79,0,0,0,2.85-3,2.69,2.69,0,0,0-2.85-3A2.77,2.77,0,0,0,265.3,64.65Z"/><path class="cls-4" d="M278.34,65a2.52,2.52,0,0,0,2.79,2.66,2.65,2.65,0,0,0,2.64-1.7l1.12.29a4,4,0,0,1-7.76-1.55,3.86,3.86,0,0,1,4-4.11c2.69,0,3.91,1.81,3.91,4.4Zm0-.8h5.52a2.52,2.52,0,0,0-2.74-2.51A2.63,2.63,0,0,0,278.34,64.16Z"/><path class="cls-4" d="M287,68.54V57.69h1.23V68.54Z"/><path class="cls-4" d="M295.59,60.73h2.08v1h-2.08v6.79h-1.23V61.75h-1.12v-1h1.12v-.34c0-1.63,1.12-2.82,3.19-2.82a8.33,8.33,0,0,1,1,.08v1.06a8.25,8.25,0,0,0-1-.06c-1.33,0-2,.69-2,1.81Z"/><path class="cls-4" d="M305.19,68.54l0-1.47h0a2.88,2.88,0,0,1-2.8,1.63,2.79,2.79,0,0,1-3.12-3v-5h1.23V65.6a1.9,1.9,0,0,0,2.16,2A2.4,2.4,0,0,0,305.11,65V60.73h1.23v7.81Z"/><path class="cls-4" d="M309.42,65a2.52,2.52,0,0,0,2.79,2.66,2.65,2.65,0,0,0,2.64-1.7l1.12.29a4,4,0,0,1-7.76-1.55,3.86,3.86,0,0,1,4-4.11c2.69,0,3.91,1.81,3.91,4.4Zm0-.8h5.52a2.52,2.52,0,0,0-2.74-2.51A2.63,2.63,0,0,0,309.42,64.16Z"/><path class="cls-4" d="M318.55,69.39a5.19,5.19,0,0,0,2.88,1c1.78,0,3-.88,3-2.75v-.91a3.37,3.37,0,0,1-3,1.78,3.65,3.65,0,0,1-3.79-3.89,3.76,3.76,0,0,1,3.94-4,3.15,3.15,0,0,1,2.88,1.74s0-1,0-1.55h1.17v7c0,2.27-1.5,3.68-4,3.68a6.06,6.06,0,0,1-3.43-1.07C318.24,70,318.44,69.71,318.55,69.39Zm.34-4.83a2.62,2.62,0,0,0,2.66,2.85,2.68,2.68,0,0,0,2.77-2.82,2.72,2.72,0,1,0-5.43,0Z"/><path class="cls-4" d="M327.49,64.64a4.06,4.06,0,1,1,4,4.07A3.85,3.85,0,0,1,327.49,64.64Zm1.18,0a2.75,2.75,0,0,0,2.86,3,2.79,2.79,0,0,0,2.88-3,2.88,2.88,0,1,0-5.75,0Z"/><path class="cls-4" d="M337.35,68.54V66.81h1.31v1.73Z"/><path class="cls-5" d="M43.3,33V21.43h2.61a3.33,3.33,0,0,1,1.87.54,2.53,2.53,0,0,1,1,1.43A4,4,0,0,1,49,24.63a2.72,2.72,0,0,1-.62,1.87,1.77,1.77,0,0,1-.61.45,2,2,0,0,1,1,.88,3.4,3.4,0,0,1,.4,1.14,4.58,4.58,0,0,1,.06.8,3.87,3.87,0,0,1-.42,1.87,2.49,2.49,0,0,1-.91,1,2.52,2.52,0,0,1-1.32.41Zm1.88-6.85h.73A1.07,1.07,0,0,0,47,25.36a2.28,2.28,0,0,0,.1-.73,1.53,1.53,0,0,0-.35-1.09,1.11,1.11,0,0,0-.84-.34h-.73Zm0,5.12h.73a1.24,1.24,0,0,0,1.23-.91,2,2,0,0,0,.12-.72,2.2,2.2,0,0,0-.37-1.41,1.19,1.19,0,0,0-1-.41h-.73Z"/><path class="cls-5" d="M55,21.29a2.77,2.77,0,0,1,2.77,2.77v6.31a2.77,2.77,0,1,1-5.53,0V24.06A2.77,2.77,0,0,1,55,21.29ZM56,24a1,1,0,0,0-1-1,1,1,0,0,0-.71.29A1,1,0,0,0,54,24v6.33a1,1,0,0,0,.29.71,1,1,0,0,0,.71.29,1,1,0,0,0,1-1Z"/><path class="cls-5" d="M66.43,30.37a2.72,2.72,0,0,1-.37,1.39.83.83,0,0,0,.66.27v1.63a1.9,1.9,0,0,1-1.79-.82,2.61,2.61,0,0,1-1.26.31,2.77,2.77,0,0,1-2.77-2.77V24.06a2.77,2.77,0,1,1,5.53,0ZM64.62,24a1,1,0,0,0-.3-.71,1,1,0,0,0-.71-.29,1,1,0,0,0-1,1v6.33a1,1,0,0,0,1,1,1,1,0,0,0,.71-.29,1,1,0,0,0,.3-.71Z"/><path class="cls-5" d="M72.43,33.13a2.74,2.74,0,0,1-2.76-2.75V21.43h1.71v8.93a1,1,0,0,0,.29.71,1,1,0,0,0,.71.29,1,1,0,0,0,1-1V21.43H75.2v8.95a2.63,2.63,0,0,1-.81,2A2.7,2.7,0,0,1,72.43,33.13Z"/><path class="cls-5" d="M80.06,33H78.31V21.43h1.74Z"/><path class="cls-5" d="M87.92,33H83.17V21.43h1.74v9.83h3Z"/><path class="cls-5" d="M95.77,33H91V21.43h1.74v9.83h3Z"/><path class="cls-5" d="M101.1,30.35,100.68,33H98.86l2-11.57h2.4L105.17,33h-1.83l-.41-2.66Zm.92-6.26-.65,4.56h1.29Z"/><path class="cls-5" d="M114.8,20.35a21.88,21.88,0,0,0-.89,2.11,15.85,15.85,0,0,0-.8,3.12,8.17,8.17,0,0,0-.07,1.07,14.3,14.3,0,0,0,.9,4.35q.4,1.16.9,2.27l-1.13.57a17.63,17.63,0,0,1-1.17-2.28,12.59,12.59,0,0,1-1.16-4.91,10.62,10.62,0,0,1,.73-3.7q.18-.49.43-1a14.4,14.4,0,0,1,1.17-2.1Z"/><path class="cls-5" d="M120.64,21.43a2.66,2.66,0,0,1,2,.8,2.79,2.79,0,0,1,.7,2v1.68a2.69,2.69,0,0,1-.8,2,2.61,2.61,0,0,1-1.93.81h-1V33h-1.74V21.43Zm1,2.79a1,1,0,0,0-.27-.73,1,1,0,0,0-.72-.28h-1.05v3.7h1.05a1,1,0,0,0,.71-.29,1,1,0,0,0,.29-.71Z"/><path class="cls-5" d="M132,30.37a2.72,2.72,0,0,1-.37,1.39.83.83,0,0,0,.66.27v1.63a1.9,1.9,0,0,1-1.79-.82,2.61,2.61,0,0,1-1.26.31,2.77,2.77,0,0,1-2.77-2.77V24.06a2.77,2.77,0,1,1,5.53,0ZM130.19,24a1,1,0,0,0-.3-.71,1,1,0,0,0-.71-.29,1,1,0,0,0-1,1v6.33a1,1,0,0,0,1,1,1,1,0,0,0,.71-.29,1,1,0,0,0,.3-.71Z"/><path class="cls-5" d="M141,30.12a3.26,3.26,0,0,1-.63,2.07,2.26,2.26,0,0,1-1.2.82,3.25,3.25,0,0,1-1,.13,2.74,2.74,0,0,1-1.7-.51,2.85,2.85,0,0,1-.89-1.13,4.55,4.55,0,0,1-.38-1.64l1.66-.12a2.53,2.53,0,0,0,.54,1.47.9.9,0,0,0,.72.33,1.08,1.08,0,0,0,.91-.56,1.39,1.39,0,0,0,.18-.77,2.13,2.13,0,0,0-.66-1.43L137,27.3a6.64,6.64,0,0,1-1.23-1.51,3.48,3.48,0,0,1-.39-1.63,2.83,2.83,0,0,1,1.06-2.39,2.63,2.63,0,0,1,1.63-.49,3,3,0,0,1,1.6.42,2.4,2.4,0,0,1,.83.9,3.35,3.35,0,0,1,.38,1.34l-1.67.3a2,2,0,0,0-.41-1.11.85.85,0,0,0-.69-.29.8.8,0,0,0-.73.42,1.65,1.65,0,0,0-.2.85,2.55,2.55,0,0,0,.68,1.62,5.76,5.76,0,0,0,.78.74q.61.51.8.71a5.93,5.93,0,0,1,1,1.27,5,5,0,0,1,.27.54A3.19,3.19,0,0,1,141,30.12Z"/><path class="cls-5" d="M144.79,19.85a15.1,15.1,0,0,1,1.16,2.1,11.38,11.38,0,0,1,1.16,4.73A12.59,12.59,0,0,1,146,31.58a17.89,17.89,0,0,1-1.16,2.27l-1.13-.57q.51-1.13.9-2.26a18.11,18.11,0,0,0,.82-3.27,8.38,8.38,0,0,0,.07-1.08,12.8,12.8,0,0,0-.89-4.19q-.39-1.08-.88-2.11Z"/><path class="cls-5" d="M156.08,21.29a2.77,2.77,0,0,1,2.77,2.77v6.31a2.77,2.77,0,1,1-5.53,0V24.06a2.77,2.77,0,0,1,2.76-2.77ZM157,24a1,1,0,0,0-1-1,1,1,0,0,0-.71.29A1,1,0,0,0,155,24v6.33a1,1,0,0,0,.29.71,1,1,0,0,0,.71.29,1,1,0,0,0,1-1Z"/><path class="cls-5" d="M166.9,23.19H165V21.43h5.45v1.75h-1.85V33H166.9Z"/><path class="cls-5" d="M176.32,21.29a2.77,2.77,0,0,1,2.77,2.77v6.31a2.77,2.77,0,1,1-5.53,0V24.06a2.77,2.77,0,0,1,2.76-2.77Zm1,2.73a1,1,0,0,0-1-1,1,1,0,0,0-.71.29,1,1,0,0,0-.29.71v6.33a1,1,0,0,0,.29.71,1,1,0,0,0,.71.29,1,1,0,0,0,1-1Z"/><path class="cls-5" d="M182.19,33V21.43h2.61a3.33,3.33,0,0,1,1.87.54,2.53,2.53,0,0,1,1,1.43,4,4,0,0,1,.17,1.23,2.72,2.72,0,0,1-.62,1.87,1.77,1.77,0,0,1-.61.45,2,2,0,0,1,1,.88A3.4,3.4,0,0,1,188,29a4.58,4.58,0,0,1,.06.8,3.87,3.87,0,0,1-.42,1.87,2.49,2.49,0,0,1-.91,1,2.52,2.52,0,0,1-1.32.41Zm1.88-6.85h.73a1.07,1.07,0,0,0,1.09-.79,2.28,2.28,0,0,0,.1-.73,1.53,1.53,0,0,0-.35-1.09,1.11,1.11,0,0,0-.84-.34h-.73Zm0,5.12h.73a1.24,1.24,0,0,0,1.23-.91,2,2,0,0,0,.12-.72,2.2,2.2,0,0,0-.37-1.41,1.19,1.19,0,0,0-1-.41h-.73Z"/><path class="cls-5" d="M191.17,33V21.43h5v1.75h-3.22v3.16h2.35v1.75h-2.35v3.16h3.22V33Z"/><path class="cls-5" d="M202,21.43a2.66,2.66,0,0,1,2.14.8,2.92,2.92,0,0,1,.6,2v1.68a2.7,2.7,0,0,1-.93,2.08L205.08,33H203.2l-1.06-4.36H201V33h-1.74V21.43Zm1,2.79a.89.89,0,0,0-1-1H201v3.7H202a1,1,0,0,0,.71-.29,1,1,0,0,0,.29-.71Z"/><path class="cls-5" d="M210.42,30.35,210,33h-1.82l2-11.57h2.4L214.48,33h-1.83l-.41-2.66Zm.92-6.26-.65,4.56H212Z"/><path class="cls-5" d="M224.12,20.35a21.88,21.88,0,0,0-.89,2.11,15.85,15.85,0,0,0-.8,3.12,8.17,8.17,0,0,0-.07,1.07,14.3,14.3,0,0,0,.9,4.35q.4,1.16.9,2.27l-1.13.57a17.63,17.63,0,0,1-1.17-2.28,12.59,12.59,0,0,1-1.16-4.91,10.62,10.62,0,0,1,.73-3.7q.18-.49.43-1a14.4,14.4,0,0,1,1.17-2.1Z"/><path class="cls-5" d="M229.58,33.15a2.76,2.76,0,0,1-2.77-2.76V24.08a2.77,2.77,0,1,1,5.53,0V25.4h-1.81V24a1,1,0,0,0-1-1,1,1,0,0,0-.71.3,1,1,0,0,0-.29.71v6.33a1,1,0,0,0,1,1,1,1,0,0,0,.71-.29,1,1,0,0,0,.3-.71v-1.6h1.81v1.62a2.76,2.76,0,0,1-2.76,2.76Z"/><path class="cls-5" d="M238.2,21.29A2.77,2.77,0,0,1,241,24.06v6.31a2.77,2.77,0,1,1-5.53,0V24.06a2.77,2.77,0,0,1,2.76-2.77Zm1,2.73a1,1,0,0,0-1-1,1,1,0,0,0-.71.29,1,1,0,0,0-.29.71v6.33a1,1,0,0,0,.29.71,1,1,0,0,0,.71.29,1,1,0,0,0,1-1Z"/><path class="cls-5" d="M244.07,24.69a3.36,3.36,0,0,1,.89-2.51,2.72,2.72,0,0,1,2-.77,2.58,2.58,0,0,1,2,.86,2.83,2.83,0,0,1,.81,2,5.23,5.23,0,0,1-.53,2.28,17,17,0,0,1-1.34,2.1q-.29.41-.85,1.26l-.31.47q-.3.46-.46.73a.62.62,0,0,0-.07.17h3.43V33H244v-1.6a3.94,3.94,0,0,1,.38-.64l.4-.59.45-.65,1.25-1.74a11.48,11.48,0,0,0,1.2-2,3.52,3.52,0,0,0,.32-1.39,1.39,1.39,0,0,0-.3-.9,1,1,0,0,0-.83-.39,1.08,1.08,0,0,0-1,.84,1.94,1.94,0,0,0-.1.67V25h-1.72Z"/><path class="cls-5" d="M253.83,19.85a15.1,15.1,0,0,1,1.16,2.1,11.38,11.38,0,0,1,1.16,4.73A12.59,12.59,0,0,1,255,31.58a17.89,17.89,0,0,1-1.16,2.27l-1.13-.57q.51-1.13.9-2.26a18.11,18.11,0,0,0,.82-3.27,8.38,8.38,0,0,0,.07-1.08,12.8,12.8,0,0,0-.89-4.19q-.39-1.08-.88-2.11Z"/></g></g></g></svg>