<svg xmlns="http://www.w3.org/2000/svg" viewBox="0 0 364.47 90.92"><defs><style>.cls-1{isolation:isolate;}.cls-2{opacity:0.6;mix-blend-mode:overlay;}.cls-3{fill:#fff;}.cls-4{fill:#909090;}.cls-5{fill:#ed0531;}</style></defs><title>c1</title><g class="cls-1"><g id="Capa_2" data-name="Capa 2"><g id="Capa_8" data-name="Capa 8"><g class="cls-2"><rect y="23.26" width="359.97" height="67.66" rx="12.04" ry="12.04"/></g><rect class="cls-3" width="364.47" height="83.36" rx="12.32" ry="12.32"/><path class="cls-4" d="M52.48,42.41A3.92,3.92,0,0,0,49,40.73a4.16,4.16,0,0,0-4.43,4.4,4.11,4.11,0,0,0,4.31,4.29,4,4,0,0,0,3.52-1.58l1.12.53a5.48,5.48,0,0,1-4.58,2.32c-3.55,0-5.67-2.27-5.67-5.51,0-3.49,2.34-5.63,5.76-5.63a5.23,5.23,0,0,1,4.61,2.4Z"/><path class="cls-4" d="M54.83,46.64a4.06,4.06,0,1,1,8.12,0,4.06,4.06,0,1,1-8.12,0Zm1.18,0a2.75,2.75,0,0,0,2.86,3,2.79,2.79,0,0,0,2.88-3,2.88,2.88,0,1,0-5.75,0Z"/><path class="cls-4" d="M70.81,50.54v-5c0-1.22-.8-1.94-2.19-1.94A2.37,2.37,0,0,0,66.13,46v4.5H64.89V42.73h1.22c0,.46,0,.93,0,1.39l0,0a3,3,0,0,1,2.83-1.6c1.89,0,3.11,1.1,3.11,2.71v5.3Z"/><path class="cls-4" d="M80.72,50.54v-1.6a3.36,3.36,0,0,1-3,1.76c-2.42,0-3.81-1.75-3.81-4.08s1.5-4.11,3.86-4.11a3.44,3.44,0,0,1,3,1.71s0-1.2,0-1.83V39.69h1.22V50.54Zm-5.6-3.92c0,1.75,1,3,2.72,3a2.83,2.83,0,0,0,2.85-3,2.7,2.7,0,0,0-2.85-3A2.77,2.77,0,0,0,75.12,46.62Z"/><path class="cls-4" d="M90.26,50.54l0-1.47h0a2.88,2.88,0,0,1-2.8,1.63,2.79,2.79,0,0,1-3.12-3v-5h1.23V47.6a1.9,1.9,0,0,0,2.16,2A2.4,2.4,0,0,0,90.18,47V42.73h1.23v7.81Z"/><path class="cls-4" d="M93.29,46.72a3.88,3.88,0,0,1,4.13-4.18A3.37,3.37,0,0,1,101,45.1l-1.12.34a2.28,2.28,0,0,0-2.5-1.79,2.77,2.77,0,0,0-2.87,3.07,2.63,2.63,0,0,0,2.77,2.9A2.92,2.92,0,0,0,100,47.79l1.09.24a3.59,3.59,0,0,1-3.78,2.66A3.73,3.73,0,0,1,93.29,46.72Z"/><path class="cls-4" d="M103.63,47a2.52,2.52,0,0,0,2.79,2.66,2.65,2.65,0,0,0,2.64-1.7l1.12.29a4,4,0,0,1-7.76-1.55,3.86,3.86,0,0,1,4-4.11c2.69,0,3.91,1.81,3.91,4.4Zm0-.8h5.52a2.52,2.52,0,0,0-2.74-2.51A2.63,2.63,0,0,0,103.63,46.16Z"/><path class="cls-4" d="M121.94,50.54V48.92a3.14,3.14,0,0,1-3,1.76,3.74,3.74,0,0,1-3.86-4,3.82,3.82,0,0,1,4-4.11A3.38,3.38,0,0,1,122,44.25s0-1,0-1.52h1.2v7.81Zm-5.62-3.89a2.68,2.68,0,0,0,2.72,3,2.79,2.79,0,0,0,2.85-3,2.69,2.69,0,0,0-2.85-3A2.77,2.77,0,0,0,116.32,46.65Z"/><path class="cls-4" d="M125.4,50.54V39.69h1.23V50.54Z"/><path class="cls-4" d="M138.7,50.54V48.92a3.14,3.14,0,0,1-3,1.76,3.74,3.74,0,0,1-3.86-4,3.82,3.82,0,0,1,4-4.11,3.38,3.38,0,0,1,2.95,1.71s0-1,0-1.52h1.2v7.81Zm-5.62-3.89a2.68,2.68,0,0,0,2.72,3,2.79,2.79,0,0,0,2.85-3,2.69,2.69,0,0,0-2.85-3A2.77,2.77,0,0,0,133.08,46.65Z"/><path class="cls-4" d="M142.63,51.39a5.19,5.19,0,0,0,2.88,1c1.78,0,3-.88,3-2.75v-.91a3.37,3.37,0,0,1-3,1.78,3.65,3.65,0,0,1-3.79-3.89,3.76,3.76,0,0,1,3.94-4,3.15,3.15,0,0,1,2.88,1.74s0-1,0-1.55h1.17v7c0,2.27-1.5,3.68-4,3.68a6.06,6.06,0,0,1-3.43-1.07C142.33,52,142.52,51.71,142.63,51.39Zm.34-4.83a2.62,2.62,0,0,0,2.66,2.85,2.68,2.68,0,0,0,2.77-2.82,2.72,2.72,0,1,0-5.43,0Z"/><path class="cls-4" d="M152.78,47a2.52,2.52,0,0,0,2.79,2.66,2.65,2.65,0,0,0,2.64-1.7l1.12.29a4,4,0,0,1-7.76-1.55,3.86,3.86,0,0,1,4-4.11c2.69,0,3.91,1.81,3.91,4.4Zm0-.8h5.52a2.52,2.52,0,0,0-2.74-2.51A2.63,2.63,0,0,0,152.78,46.16Z"/><path class="cls-4" d="M167.33,50.54v-5c0-1.22-.8-1.94-2.19-1.94a2.37,2.37,0,0,0-2.5,2.43v4.5h-1.23V42.73h1.22c0,.46,0,.93,0,1.39l0,0a3,3,0,0,1,2.83-1.6c1.89,0,3.11,1.1,3.11,2.71v5.3Z"/><path class="cls-4" d="M172.69,43.75V49c0,.37.22.67.88.67a2.23,2.23,0,0,0,.91-.19v.91a3,3,0,0,1-1.5.35,1.36,1.36,0,0,1-1.52-1.31V43.75H170v-1h1.5v-2h1.23v2h1.79v1Z"/><path class="cls-4" d="M176.71,47a2.52,2.52,0,0,0,2.79,2.66,2.65,2.65,0,0,0,2.64-1.7l1.12.29a4,4,0,0,1-7.76-1.55,3.86,3.86,0,0,1,4-4.11c2.69,0,3.91,1.81,3.91,4.4Zm0-.8h5.52a2.52,2.52,0,0,0-2.74-2.51A2.63,2.63,0,0,0,176.71,46.16Z"/><path class="cls-4" d="M189.38,47a2.52,2.52,0,0,0,2.79,2.66,2.65,2.65,0,0,0,2.64-1.7l1.12.29a4,4,0,0,1-7.76-1.55,3.86,3.86,0,0,1,4-4.11c2.69,0,3.91,1.81,3.91,4.4Zm0-.8h5.52a2.52,2.52,0,0,0-2.74-2.51A2.63,2.63,0,0,0,189.38,46.16Z"/><path class="cls-4" d="M203.33,50.54l-2.66-3.2-2.58,3.2h-1.58c1.12-1.33,2.26-2.67,3.36-4-1-1.26-2-2.54-3.07-3.81h1.57c.77,1,1.55,2,2.32,3l2.35-3h1.57c-1,1.25-2.08,2.51-3.14,3.76l3.44,4Z"/><path class="cls-4" d="M208.46,43.75V49c0,.37.22.67.88.67a2.23,2.23,0,0,0,.91-.19v.91a3,3,0,0,1-1.5.35,1.36,1.36,0,0,1-1.52-1.31V43.75h-1.5v-1h1.5v-2h1.23v2h1.79v1Z"/><path class="cls-4" d="M211.9,40.26a.61.61,0,0,1,.64-.62.6.6,0,0,1,.62.62V41a.59.59,0,0,1-.62.61.6.6,0,0,1-.64-.61Zm0,10.28V42.73h1.23v7.81Z"/><path class="cls-4" d="M221.45,50.54v-5c0-1.22-.8-1.94-2.19-1.94a2.37,2.37,0,0,0-2.5,2.43v4.5h-1.23V42.73h1.22c0,.46,0,.93,0,1.39l0,0a3,3,0,0,1,2.83-1.6c1.89,0,3.11,1.1,3.11,2.71v5.3Z"/><path class="cls-4" d="M226.81,43.75V49c0,.37.22.67.88.67a2.23,2.23,0,0,0,.91-.19v.91a3,3,0,0,1-1.5.35,1.36,1.36,0,0,1-1.52-1.31V43.75h-1.5v-1h1.5v-2h1.23v2h1.79v1Z"/><path class="cls-4" d="M229.62,46.64a4.06,4.06,0,1,1,8.12,0,4.06,4.06,0,1,1-8.12,0Zm1.18,0a2.75,2.75,0,0,0,2.86,3,2.79,2.79,0,0,0,2.88-3,2.88,2.88,0,1,0-5.75,0Z"/><path class="cls-4" d="M243.71,43.72c-2.32,0-2.8,1.87-2.8,3.71v3.11h-1.23V42.73h1.22c0,.69,0,1.33-.06,2a3.05,3.05,0,0,1,2.88-2.14Z"/><path class="cls-4" d="M254.61,50.54V48.92a3.14,3.14,0,0,1-3,1.76,3.74,3.74,0,0,1-3.86-4,3.82,3.82,0,0,1,4-4.11,3.38,3.38,0,0,1,2.95,1.71s0-1,0-1.52h1.2v7.81ZM249,46.65a2.68,2.68,0,0,0,2.72,3,2.79,2.79,0,0,0,2.85-3,2.69,2.69,0,0,0-2.85-3A2.77,2.77,0,0,0,249,46.65Z"/><path class="cls-4" d="M258.07,50.54V39.69h1.23V50.54Z"/><path class="cls-4" d="M265.73,47a2.52,2.52,0,0,0,2.79,2.66,2.65,2.65,0,0,0,2.64-1.7l1.12.29a4,4,0,0,1-7.76-1.55,3.86,3.86,0,0,1,4-4.11c2.69,0,3.91,1.81,3.91,4.4Zm0-.8h5.52a2.52,2.52,0,0,0-2.74-2.51A2.63,2.63,0,0,0,265.73,46.16Z"/><path class="cls-4" d="M279.68,50.54,277,47.34l-2.58,3.2h-1.58c1.12-1.33,2.26-2.67,3.36-4-1-1.26-2-2.54-3.07-3.81h1.57c.77,1,1.55,2,2.32,3l2.35-3H281c-1,1.25-2.08,2.51-3.14,3.76l3.44,4Z"/><path class="cls-4" d="M284.81,43.75V49c0,.37.22.67.88.67a2.23,2.23,0,0,0,.91-.19v.91a3,3,0,0,1-1.5.35,1.36,1.36,0,0,1-1.52-1.31V43.75h-1.5v-1h1.5v-2h1.23v2h1.79v1Z"/><path class="cls-4" d="M288.83,47a2.52,2.52,0,0,0,2.79,2.66,2.65,2.65,0,0,0,2.64-1.7l1.12.29a4,4,0,0,1-7.76-1.55,3.86,3.86,0,0,1,4-4.11c2.69,0,3.91,1.81,3.91,4.4Zm0-.8h5.52a2.52,2.52,0,0,0-2.74-2.51A2.63,2.63,0,0,0,288.83,46.16Z"/><path class="cls-4" d="M301.49,43.72c-2.32,0-2.8,1.87-2.8,3.71v3.11h-1.23V42.73h1.22c0,.69,0,1.33-.06,2a3.05,3.05,0,0,1,2.88-2.14Z"/><path class="cls-4" d="M302.86,40.26a.61.61,0,0,1,.64-.62.6.6,0,0,1,.62.62V41a.59.59,0,0,1-.62.61.6.6,0,0,1-.64-.61Zm0,10.28V42.73h1.23v7.81Z"/><path class="cls-4" d="M306,46.64a4.06,4.06,0,1,1,8.12,0,4.06,4.06,0,1,1-8.12,0Zm1.18,0a2.75,2.75,0,0,0,2.86,3,2.79,2.79,0,0,0,2.88-3,2.88,2.88,0,1,0-5.75,0Z"/><path class="cls-4" d="M320.1,43.72c-2.32,0-2.8,1.87-2.8,3.71v3.11h-1.23V42.73h1.22c0,.69,0,1.33-.06,2a3.05,3.05,0,0,1,2.88-2.14Z"/><path class="cls-4" d="M320.57,50.54V48.81h1.31v1.73Z"/><path class="cls-5" d="M45,33H43.3V21.43h2.5l1.63,8.32L49,21.43H51.4V33H49.66V25.73L48.14,33h-1.4L45,25.75Z"/><path class="cls-5" d="M56.74,30.35,56.32,33H54.5l2-11.57h2.4L60.81,33H59l-.41-2.66Zm.92-6.26L57,28.65H58.3Z"/><path class="cls-5" d="M65.86,21.43l2.32,7.78V21.43h1.75V33H68l-2.4-7.41V33H63.9V21.43Z"/><path class="cls-5" d="M75.8,33.15A2.77,2.77,0,0,1,73,30.39V24.08a2.77,2.77,0,1,1,5.53,0V25.4H76.75V24a1,1,0,0,0-1-1,1,1,0,0,0-.71.3,1,1,0,0,0-.29.71v6.33a1,1,0,0,0,1,1,1,1,0,0,0,.71-.29,1,1,0,0,0,.3-.71V28.1h-1V26.35h2.78v4a2.76,2.76,0,0,1-2.76,2.76Z"/><path class="cls-5" d="M84.42,33.13a2.74,2.74,0,0,1-2.76-2.75V21.44h1.71v8.93a1,1,0,0,0,.29.71,1,1,0,0,0,.71.29,1,1,0,0,0,1-1V21.44h1.82v8.95a2.63,2.63,0,0,1-.81,2A2.7,2.7,0,0,1,84.42,33.13Z"/><path class="cls-5" d="M90.29,33V21.43h5v1.75H92v3.16h2.35v1.75H92v3.16h3.22V33Z"/><path class="cls-5" d="M101.11,21.44a2.66,2.66,0,0,1,2.14.8,2.92,2.92,0,0,1,.6,2v1.68a2.7,2.7,0,0,1-.93,2.08L104.21,33h-1.89l-1.06-4.36H100.1V33H98.36V21.44Zm1,2.79a.89.89,0,0,0-1-1H100.1v3.7h1.05a1,1,0,0,0,.71-.29,1,1,0,0,0,.29-.71Z"/><path class="cls-5" d="M109.54,30.35,109.12,33H107.3l2-11.57h2.4L113.61,33h-1.83l-.41-2.66Zm.92-6.26-.65,4.56h1.29Z"/><path class="cls-5" d="M122.57,21.29a2.77,2.77,0,0,1,2.77,2.77v6.31a2.77,2.77,0,1,1-5.53,0V24.06a2.77,2.77,0,0,1,2.76-2.77Zm1,2.73a1,1,0,0,0-1-1,1,1,0,0,0-.71.29,1,1,0,0,0-.29.71v6.33a1,1,0,0,0,.29.71,1,1,0,0,0,.71.29,1,1,0,0,0,1-1Z"/><path class="cls-5" d="M133.28,33h-1.74V21.43H134l1.63,8.32,1.56-8.32h2.41V33h-1.75V25.73L136.37,33H135l-1.69-7.26Z"/><path class="cls-5" d="M145,30.35,144.55,33h-1.82l2-11.57h2.4L149,33H147.2l-.41-2.66Zm.92-6.26-.65,4.56h1.29Z"/><path class="cls-5" d="M154.09,21.43l2.32,7.78V21.43h1.75V33h-1.87l-2.4-7.41V33h-1.74V21.43Z"/><path class="cls-5" d="M164,33.15a2.77,2.77,0,0,1-2.77-2.76V24.08a2.77,2.77,0,1,1,5.53,0V25.4H165V24a1,1,0,0,0-1-1,1,1,0,0,0-.71.3A1,1,0,0,0,163,24v6.33a1,1,0,0,0,1,1,1,1,0,0,0,.71-.29,1,1,0,0,0,.3-.71V28.1h-1V26.35h2.78v4A2.76,2.76,0,0,1,164,33.15Z"/><path class="cls-5" d="M172,30.35,171.53,33h-1.82l2-11.57h2.4L176,33h-1.83l-.41-2.66Zm.92-6.26-.65,4.56h1.29Z"/></g></g></g></svg>