<svg xmlns="http://www.w3.org/2000/svg" viewBox="0 0 347.47 151.92"><defs><style>.cls-1{isolation:isolate;}.cls-2{opacity:0.6;mix-blend-mode:overlay;}.cls-3{fill:#fff;}.cls-4{fill:#ed0531;}.cls-5{fill:#909090;}</style></defs><title>c2</title><g class="cls-1"><g id="Capa_2" data-name="Capa 2"><g id="Capa_8" data-name="Capa 8"><g class="cls-2"><rect y="23.26" width="342.97" height="128.66" rx="12.04" ry="12.04"/></g><rect class="cls-3" width="347.47" height="144.36" rx="12.32" ry="12.32"/><path class="cls-4" d="M31.45,24.44H29.6V22.69H35v1.75H33.2v9.81H31.45Z"/><path class="cls-4" d="M39.57,31.6l-.42,2.66H37.33l2-11.57h2.4l1.94,11.57H41.8l-.41-2.66Zm.92-6.26-.65,4.56h1.29Z"/><path class="cls-4" d="M49.48,22.69a2.66,2.66,0,0,1,2.14.8,2.92,2.92,0,0,1,.6,2v1.68a2.7,2.7,0,0,1-.93,2.08l1.29,5.05H50.7L49.64,29.9H48.47v4.36H46.73V22.69Zm1,2.79a.89.89,0,0,0-1-1H48.47v3.7h1.05a1,1,0,0,0,.71-.29,1,1,0,0,0,.29-.71Z"/><path class="cls-4" d="M59.52,31.63a2.64,2.64,0,0,1-.81,2,2.67,2.67,0,0,1-2,.8,3.5,3.5,0,0,1-1.08-.14l.25-1.62a2.88,2.88,0,0,0,.51.05h.37a1.11,1.11,0,0,0,.72-.3.92.92,0,0,0,.29-.69v-9h1.71Z"/><path class="cls-4" d="M62.62,34.25V22.68h5v1.75H64.37v3.16h2.35v1.75H64.37V32.5h3.22v1.75Z"/><path class="cls-4" d="M72.54,24.44H70.69V22.69h5.45v1.75H74.29v9.81H72.54Z"/><path class="cls-4" d="M80.66,31.6l-.42,2.66H78.42l2-11.57h2.4l1.94,11.57H82.89l-.41-2.66Zm.92-6.26-.65,4.56h1.29Z"/><path class="cls-4" d="M96.41,31.49a2.69,2.69,0,0,1-.8,2,2.62,2.62,0,0,1-1.94.81H90.92V22.68h2.74a2.62,2.62,0,0,1,1.94.81,2.68,2.68,0,0,1,.8,1.95Zm-3.74,1h1.05a.93.93,0,0,0,.7-.3,1,1,0,0,0,.29-.71V25.46a1,1,0,0,0-.29-.71.94.94,0,0,0-.7-.29H92.66Z"/><path class="cls-4" d="M99.51,34.25V22.68h5v1.75h-3.22v3.16h2.35v1.75h-2.35V32.5h3.22v1.75Z"/><path class="cls-4" d="M112.42,34.25h-1.74V22.68h2.5L114.8,31l1.56-8.32h2.41V34.25H117V27l-1.51,7.28h-1.4L112.42,27Z"/><path class="cls-4" d="M124.11,31.6l-.42,2.66h-1.82l2-11.57h2.4l1.94,11.57h-1.83l-.41-2.66Zm.92-6.26-.65,4.56h1.29Z"/><path class="cls-4" d="M133.23,22.68l2.32,7.78V22.68h1.75V34.25h-1.87L133,26.84v7.41h-1.74V22.68Z"/><path class="cls-4" d="M142.25,24.44h-1.86V22.69h5.45v1.75H144v9.81h-1.75Z"/><path class="cls-4" d="M148.94,34.25V22.68h5v1.75h-3.22v3.16H153v1.75h-2.35V32.5h3.22v1.75Z"/><path class="cls-4" d="M159,22.68l2.32,7.78V22.68H163V34.25h-1.87l-2.4-7.41v7.41H157V22.68Z"/><path class="cls-4" d="M167.88,34.25h-1.74V22.69h1.74Z"/><path class="cls-4" d="M172.74,34.25H171V22.68h2.5L175.13,31l1.56-8.32h2.41V34.25h-1.75V27l-1.51,7.28h-1.4L172.74,27Z"/><path class="cls-4" d="M184,34.25h-1.74V22.69H184Z"/><path class="cls-4" d="M187.07,34.25V22.68h5v1.75h-3.22v3.16h2.35v1.75h-2.35V32.5H192v1.75Z"/><path class="cls-4" d="M197.09,22.68l2.32,7.78V22.68h1.75V34.25h-1.87l-2.4-7.41v7.41h-1.74V22.68Z"/><path class="cls-4" d="M206.11,24.44h-1.86V22.69h5.45v1.75h-1.85v9.81h-1.75Z"/><path class="cls-4" d="M215.52,22.54a2.77,2.77,0,0,1,2.77,2.77v6.31a2.77,2.77,0,1,1-5.53,0V25.31a2.77,2.77,0,0,1,2.76-2.77Zm1,2.73a1,1,0,0,0-1-1,1,1,0,0,0-.71.29,1,1,0,0,0-.29.71v6.33a1,1,0,0,0,.29.71,1,1,0,0,0,.71.29,1,1,0,0,0,1-1Z"/><path class="cls-4" d="M224.49,34.25V22.68h5v1.75h-3.22v3.16h2.35v1.75h-2.35V32.5h3.22v1.75Z"/><path class="cls-4" d="M237.4,34.25h-1.74V22.69h1.74Z"/><path class="cls-4" d="M242.47,22.68l2.32,7.78V22.68h1.75V34.25h-1.87l-2.4-7.41v7.41h-1.74V22.68Z"/><path class="cls-4" d="M255.4,31.37a3.26,3.26,0,0,1-.63,2.07,2.26,2.26,0,0,1-1.2.82,3.25,3.25,0,0,1-1,.13,2.74,2.74,0,0,1-1.7-.51,2.85,2.85,0,0,1-.89-1.13,4.55,4.55,0,0,1-.38-1.64l1.66-.12a2.53,2.53,0,0,0,.54,1.47.9.9,0,0,0,.72.33,1.08,1.08,0,0,0,.91-.56,1.39,1.39,0,0,0,.18-.77A2.13,2.13,0,0,0,253,30l-1.55-1.47A6.64,6.64,0,0,1,250.2,27a3.48,3.48,0,0,1-.39-1.63A2.83,2.83,0,0,1,250.88,23a2.63,2.63,0,0,1,1.63-.49,3,3,0,0,1,1.6.42,2.4,2.4,0,0,1,.83.9,3.35,3.35,0,0,1,.38,1.34l-1.67.3a2,2,0,0,0-.41-1.11.85.85,0,0,0-.69-.29.8.8,0,0,0-.73.42,1.65,1.65,0,0,0-.2.85A2.55,2.55,0,0,0,252.3,27a5.76,5.76,0,0,0,.78.74q.61.51.8.71a5.93,5.93,0,0,1,1,1.27,5,5,0,0,1,.27.54A3.19,3.19,0,0,1,255.4,31.37Z"/><path class="cls-4" d="M261.25,22.69a2.66,2.66,0,0,1,2,.8,2.79,2.79,0,0,1,.7,2v1.68a2.69,2.69,0,0,1-.8,2,2.61,2.61,0,0,1-1.93.81h-1v4.36H258.5V22.69Zm1,2.79a1,1,0,0,0-.27-.73,1,1,0,0,0-.72-.28h-1.05v3.7h1.05a1,1,0,0,0,.71-.29,1,1,0,0,0,.29-.71Z"/><path class="cls-4" d="M267.08,34.25V22.68h5v1.75h-3.22v3.16h2.35v1.75h-2.35V32.5H272v1.75Z"/><path class="cls-4" d="M277.88,34.4a2.76,2.76,0,0,1-2.77-2.76V25.33a2.77,2.77,0,1,1,5.53,0v1.32h-1.81V25.29a1,1,0,0,0-1-1,1,1,0,0,0-.71.3,1,1,0,0,0-.29.71v6.33a1,1,0,0,0,1,1,1,1,0,0,0,.71-.29,1,1,0,0,0,.3-.71V30h1.81v1.62a2.76,2.76,0,0,1-2.76,2.76Z"/><path class="cls-4" d="M286.5,34.4a2.76,2.76,0,0,1-2.77-2.76V25.33a2.77,2.77,0,1,1,5.53,0v1.32h-1.81V25.29a1,1,0,0,0-1-1,1,1,0,0,0-.71.3,1,1,0,0,0-.29.71v6.33a1,1,0,0,0,1,1,1,1,0,0,0,.71-.29,1,1,0,0,0,.3-.71V30h1.81v1.62a2.76,2.76,0,0,1-2.76,2.76Z"/><path class="cls-4" d="M294.1,34.25h-1.74V22.69h1.74Z"/><path class="cls-4" d="M300,22.54a2.77,2.77,0,0,1,2.77,2.77v6.31a2.77,2.77,0,1,1-5.53,0V25.31A2.77,2.77,0,0,1,300,22.54Zm1,2.73a1,1,0,0,0-1-1,1,1,0,0,0-.71.29,1,1,0,0,0-.29.71v6.33a1,1,0,0,0,.29.71,1,1,0,0,0,.71.29,1,1,0,0,0,1-1Z"/><path class="cls-4" d="M307.81,22.68l2.32,7.78V22.68h1.75V34.25H310l-2.4-7.41v7.41h-1.74V22.68Z"/><path class="cls-5" d="M34.25,42.53v9.76H33V42.53H29V41.44h9.14v1.09Z"/><path class="cls-5" d="M44.62,52.29V50.68a3.14,3.14,0,0,1-3,1.76,3.74,3.74,0,0,1-3.86-4,3.82,3.82,0,0,1,4-4.11A3.38,3.38,0,0,1,44.67,46s0-1,0-1.52h1.2v7.81ZM39,48.41a2.68,2.68,0,0,0,2.72,3,2.79,2.79,0,0,0,2.85-3,2.69,2.69,0,0,0-2.85-3A2.77,2.77,0,0,0,39,48.41Z"/><path class="cls-5" d="M52.34,45.48c-2.32,0-2.8,1.87-2.8,3.71v3.11H48.31V44.48h1.22c0,.69,0,1.33-.06,2a3.05,3.05,0,0,1,2.88-2.14Z"/><path class="cls-5" d="M51.92,54.28c1.55-.13,2.11-.8,2.11-2.22V44.48h1.23v7.59a2.93,2.93,0,0,1-3,3.26ZM54,42a.59.59,0,0,1,.62-.61.6.6,0,0,1,.64.61v.74a.6.6,0,0,1-.64.61.59.59,0,0,1-.62-.61Z"/><path class="cls-5" d="M58.61,48.71a2.52,2.52,0,0,0,2.79,2.66A2.65,2.65,0,0,0,64,49.67l1.12.29a4,4,0,0,1-7.76-1.55,3.86,3.86,0,0,1,4-4.11c2.69,0,3.91,1.81,3.91,4.4Zm0-.8h5.52a2.52,2.52,0,0,0-2.74-2.51A2.63,2.63,0,0,0,58.61,47.91Z"/><path class="cls-5" d="M69.24,45.51v5.2c0,.37.22.67.88.67a2.23,2.23,0,0,0,.91-.19v.91a3,3,0,0,1-1.5.35A1.36,1.36,0,0,1,68,51.14V45.51H66.5v-1H68v-2h1.23v2H71v1Z"/><path class="cls-5" d="M79.09,52.29V50.68a3.14,3.14,0,0,1-3,1.76,3.74,3.74,0,0,1-3.86-4,3.82,3.82,0,0,1,4-4.11A3.38,3.38,0,0,1,79.14,46s0-1,0-1.52h1.2v7.81Zm-5.62-3.89a2.68,2.68,0,0,0,2.72,3,2.79,2.79,0,0,0,2.85-3,2.69,2.69,0,0,0-2.85-3A2.77,2.77,0,0,0,73.47,48.41Z"/><path class="cls-5" d="M92.14,52.29V50.68a3.14,3.14,0,0,1-3,1.76,3.74,3.74,0,0,1-3.86-4,3.82,3.82,0,0,1,4-4.11A3.38,3.38,0,0,1,92.19,46s0-1,0-1.52h1.2v7.81Zm-5.62-3.89a2.68,2.68,0,0,0,2.72,3,2.79,2.79,0,0,0,2.85-3,2.69,2.69,0,0,0-2.85-3A2.77,2.77,0,0,0,86.52,48.41Z"/><path class="cls-5" d="M97.77,45.51v5.2c0,.37.22.67.88.67a2.23,2.23,0,0,0,.91-.19v.91a3,3,0,0,1-1.5.35,1.36,1.36,0,0,1-1.52-1.31V45.51H95v-1h1.5v-2h1.23v2h1.79v1Z"/><path class="cls-5" d="M107.63,52.29V50.68a3.14,3.14,0,0,1-3,1.76,3.74,3.74,0,0,1-3.86-4,3.82,3.82,0,0,1,4-4.11A3.38,3.38,0,0,1,107.68,46s0-1,0-1.52h1.2v7.81ZM102,48.41a2.68,2.68,0,0,0,2.72,3,2.79,2.79,0,0,0,2.85-3,2.69,2.69,0,0,0-2.85-3A2.77,2.77,0,0,0,102,48.41Z"/><path class="cls-5" d="M117.71,52.29v-1.6a3.35,3.35,0,0,1-3,1.76c-2.42,0-3.81-1.75-3.81-4.08s1.5-4.11,3.86-4.11a3.44,3.44,0,0,1,3,1.71s0-1.2,0-1.83V41.44h1.22V52.29Zm-5.6-3.92c0,1.75,1,3,2.72,3a2.83,2.83,0,0,0,2.85-3,2.7,2.7,0,0,0-2.85-3A2.77,2.77,0,0,0,112.11,48.37Z"/><path class="cls-5" d="M127.91,52.29V50.68a3.14,3.14,0,0,1-3,1.76,3.74,3.74,0,0,1-3.86-4,3.82,3.82,0,0,1,4-4.11A3.38,3.38,0,0,1,128,46s0-1,0-1.52h1.2v7.81Zm-5.62-3.89a2.68,2.68,0,0,0,2.72,3,2.79,2.79,0,0,0,2.85-3,2.69,2.69,0,0,0-2.85-3A2.77,2.77,0,0,0,122.29,48.41Z"/><path class="cls-5" d="M141,52.29V50.68a3.14,3.14,0,0,1-3,1.76,3.74,3.74,0,0,1-3.86-4,3.82,3.82,0,0,1,4-4.11A3.38,3.38,0,0,1,141,46s0-1,0-1.52h1.2v7.81Zm-5.62-3.89a2.68,2.68,0,0,0,2.72,3,2.79,2.79,0,0,0,2.85-3,2.69,2.69,0,0,0-2.85-3A2.77,2.77,0,0,0,135.34,48.41Z"/><path class="cls-5" d="M144.63,52.29V41.44h1.23V52.29Z"/><path class="cls-5" d="M152.29,48.71a2.52,2.52,0,0,0,2.79,2.66,2.65,2.65,0,0,0,2.64-1.7l1.12.29a4,4,0,0,1-7.76-1.55,3.86,3.86,0,0,1,4-4.11c2.69,0,3.91,1.81,3.91,4.4Zm0-.8h5.52a2.52,2.52,0,0,0-2.74-2.51A2.63,2.63,0,0,0,152.29,47.91Z"/><path class="cls-5" d="M166.45,52.29l-2.66-3.2-2.58,3.2h-1.58c1.12-1.33,2.26-2.67,3.36-4-1-1.26-2-2.54-3.07-3.81h1.57c.77,1,1.55,2,2.32,3l2.35-3h1.57c-1,1.25-2.08,2.51-3.14,3.76l3.44,4Z"/><path class="cls-5" d="M171.78,45.51v5.2c0,.37.22.67.88.67a2.23,2.23,0,0,0,.91-.19v.91a3,3,0,0,1-1.5.35,1.36,1.36,0,0,1-1.52-1.31V45.51H169v-1h1.5v-2h1.23v2h1.79v1Z"/><path class="cls-5" d="M175.44,42a.61.61,0,0,1,.64-.62.6.6,0,0,1,.62.62v.74a.59.59,0,0,1-.62.61.6.6,0,0,1-.64-.61Zm0,10.28V44.48h1.23v7.81Z"/><path class="cls-5" d="M185.2,52.29v-5c0-1.22-.8-1.94-2.19-1.94a2.37,2.37,0,0,0-2.5,2.43v4.5h-1.23V44.48h1.22c0,.46,0,.93,0,1.39l0,0a3,3,0,0,1,2.83-1.6c1.89,0,3.11,1.1,3.11,2.71v5.3Z"/><path class="cls-5" d="M190.77,45.51v5.2c0,.37.22.67.88.67a2.23,2.23,0,0,0,.91-.19v.91a3,3,0,0,1-1.5.35,1.36,1.36,0,0,1-1.52-1.31V45.51H188v-1h1.5v-2h1.23v2h1.79v1Z"/><path class="cls-5" d="M193.78,48.39a3.85,3.85,0,0,1,4-4.1,3.81,3.81,0,0,1,4.07,4.1,4.06,4.06,0,1,1-8.12,0Zm1.18,0a2.75,2.75,0,0,0,2.87,3,2.79,2.79,0,0,0,2.88-3,2.88,2.88,0,1,0-5.75,0Z"/><path class="cls-5" d="M208.08,45.48c-2.32,0-2.8,1.87-2.8,3.71v3.11h-1.23V44.48h1.22c0,.69,0,1.33-.06,2a3.05,3.05,0,0,1,2.88-2.14Z"/><path class="cls-5" d="M209.17,54.65,208,54.23c.26-.61.5-1.23.74-1.84a3.28,3.28,0,0,0,.14-1.3v-.53h1.33v.64a3.61,3.61,0,0,1-.21,1.44Z"/><path class="cls-5" d="M222.39,52.29v-1.6a3.35,3.35,0,0,1-3,1.76c-2.42,0-3.81-1.75-3.81-4.08s1.5-4.11,3.86-4.11a3.44,3.44,0,0,1,3,1.71s0-1.2,0-1.83V41.44h1.22V52.29Zm-5.6-3.92c0,1.75,1,3,2.72,3a2.83,2.83,0,0,0,2.85-3,2.7,2.7,0,0,0-2.85-3A2.77,2.77,0,0,0,216.78,48.37Z"/><path class="cls-5" d="M225.74,48.39a4.06,4.06,0,1,1,8.12,0,4.06,4.06,0,1,1-8.12,0Zm1.18,0a2.75,2.75,0,0,0,2.86,3,2.79,2.79,0,0,0,2.88-3,2.88,2.88,0,1,0-5.75,0Z"/><path class="cls-5" d="M241.93,52.29v-5c0-1.22-.8-1.94-2.19-1.94a2.37,2.37,0,0,0-2.5,2.43v4.5H236V44.48h1.22c0,.46,0,.93,0,1.39l0,0a3,3,0,0,1,2.83-1.6c1.89,0,3.11,1.1,3.11,2.71v5.3Z"/><path class="cls-5" d="M252,52.29v-1.6a3.36,3.36,0,0,1-3,1.76c-2.42,0-3.81-1.75-3.81-4.08s1.5-4.11,3.86-4.11a3.44,3.44,0,0,1,3,1.71s0-1.2,0-1.83V41.44h1.22V52.29Zm-5.6-3.92c0,1.75,1,3,2.72,3a2.83,2.83,0,0,0,2.85-3,2.7,2.7,0,0,0-2.85-3A2.77,2.77,0,0,0,246.44,48.37Z"/><path class="cls-5" d="M256.6,48.71a2.52,2.52,0,0,0,2.79,2.66,2.65,2.65,0,0,0,2.64-1.7l1.12.29a4,4,0,0,1-7.76-1.55,3.86,3.86,0,0,1,4-4.11c2.69,0,3.91,1.81,3.91,4.4Zm0-.8h5.52a2.52,2.52,0,0,0-2.74-2.51A2.63,2.63,0,0,0,256.6,47.91Z"/><path class="cls-5" d="M268.21,49.83l1.25,0c0,1.07.82,1.7,2.29,1.7.94,0,2-.43,2-1.38,0-2-5.39-.29-5.39-3.52,0-1.42,1.52-2.29,3.14-2.29,2.21,0,3.27,1,3.39,2.59-.42,0-.83.06-1.25.08-.08-1.06-.8-1.63-2.18-1.63-1,0-1.92.5-1.92,1.31,0,1.94,5.43.32,5.43,3.46,0,1.62-1.67,2.34-3.33,2.34C269.43,52.44,268.29,51.49,268.21,49.83Z"/><path class="cls-5" d="M278,48.71a2.52,2.52,0,0,0,2.79,2.66,2.65,2.65,0,0,0,2.64-1.7l1.12.29a4,4,0,0,1-7.76-1.55,3.86,3.86,0,0,1,4-4.11c2.69,0,3.91,1.81,3.91,4.4Zm0-.8h5.52a2.52,2.52,0,0,0-2.74-2.51A2.63,2.63,0,0,0,278,47.91Z"/><path class="cls-5" d="M36.5,70.29V68.68a3.14,3.14,0,0,1-3,1.76,3.74,3.74,0,0,1-3.86-4,3.82,3.82,0,0,1,4-4.11A3.38,3.38,0,0,1,36.55,64s0-1,0-1.52h1.2v7.81Zm-5.62-3.89a2.68,2.68,0,0,0,2.72,3,2.79,2.79,0,0,0,2.85-3,2.69,2.69,0,0,0-2.85-3A2.77,2.77,0,0,0,30.88,66.41Z"/><path class="cls-5" d="M46.12,70.29v-5c0-1.22-.8-1.94-2.19-1.94a2.37,2.37,0,0,0-2.5,2.43v4.5H40.19V62.48h1.22c0,.46,0,.93,0,1.39l0,0a3,3,0,0,1,2.83-1.6c1.89,0,3.11,1.1,3.11,2.71v5.3Z"/><path class="cls-5" d="M49.39,66.39a4.06,4.06,0,1,1,4,4.07A3.85,3.85,0,0,1,49.39,66.39Zm1.18,0a2.75,2.75,0,0,0,2.86,3,2.79,2.79,0,0,0,2.88-3,2.88,2.88,0,1,0-5.75,0Z"/><path class="cls-5" d="M61.39,63.51v5.2c0,.37.22.67.88.67a2.23,2.23,0,0,0,.91-.19v.91a3,3,0,0,1-1.5.35,1.36,1.36,0,0,1-1.52-1.31V63.51h-1.5v-1h1.5v-2h1.23v2h1.79v1Z"/><path class="cls-5" d="M71.24,70.29V68.68a3.14,3.14,0,0,1-3,1.76,3.74,3.74,0,0,1-3.86-4,3.82,3.82,0,0,1,4-4.11A3.38,3.38,0,0,1,71.29,64s0-1,0-1.52h1.2v7.81Zm-5.62-3.89a2.68,2.68,0,0,0,2.72,3,2.79,2.79,0,0,0,2.85-3,2.69,2.69,0,0,0-2.85-3A2.77,2.77,0,0,0,65.62,66.41Z"/><path class="cls-5" d="M78,70.29V59.44h1.23V70.29Z"/><path class="cls-5" d="M88.15,70.29V68.68a3.14,3.14,0,0,1-3,1.76,3.74,3.74,0,0,1-3.86-4,3.82,3.82,0,0,1,4-4.11A3.38,3.38,0,0,1,88.19,64s0-1,0-1.52h1.2v7.81Zm-5.62-3.89a2.68,2.68,0,0,0,2.72,3,2.79,2.79,0,0,0,2.85-3,2.69,2.69,0,0,0-2.85-3A2.77,2.77,0,0,0,82.53,66.41Z"/><path class="cls-5" d="M96.53,62.48h2.08v1H96.53v6.79H95.29V63.51H94.17v-1h1.12v-.34c0-1.63,1.12-2.82,3.19-2.82a8.33,8.33,0,0,1,1,.08v1.06a8.26,8.26,0,0,0-1-.06c-1.33,0-2,.69-2,1.81Z"/><path class="cls-5" d="M100.91,66.71a2.52,2.52,0,0,0,2.79,2.66,2.65,2.65,0,0,0,2.64-1.7l1.12.29a4,4,0,0,1-7.76-1.55,3.86,3.86,0,0,1,4-4.11c2.69,0,3.91,1.81,3.91,4.4Zm0-.8h5.52a2.52,2.52,0,0,0-2.74-2.51A2.63,2.63,0,0,0,100.91,65.91Z"/><path class="cls-5" d="M109.32,66.47a3.88,3.88,0,0,1,4.13-4.18A3.37,3.37,0,0,1,117,64.85l-1.12.34a2.28,2.28,0,0,0-2.5-1.79,2.77,2.77,0,0,0-2.87,3.07,2.63,2.63,0,0,0,2.77,2.9A2.92,2.92,0,0,0,116,67.54l1.09.24a3.59,3.59,0,0,1-3.78,2.66A3.73,3.73,0,0,1,109.32,66.47Z"/><path class="cls-5" d="M125,70.29v-5a2,2,0,0,0-2.19-2c-1.84,0-2.5,1.22-2.5,2.85v4.08h-1.23V59.44h1.22v3.17c0,.66,0,.69,0,1.25l0,0a3,3,0,0,1,2.83-1.58A2.8,2.8,0,0,1,126.25,65v5.27Z"/><path class="cls-5" d="M135.13,70.29V68.68a3.14,3.14,0,0,1-3,1.76,3.74,3.74,0,0,1-3.86-4,3.82,3.82,0,0,1,4-4.11A3.38,3.38,0,0,1,135.18,64s0-1,0-1.52h1.2v7.81Zm-5.62-3.89a2.68,2.68,0,0,0,2.72,3,2.79,2.79,0,0,0,2.85-3,2.69,2.69,0,0,0-2.85-3A2.77,2.77,0,0,0,129.51,66.41Z"/><path class="cls-5" d="M142.55,66.71a2.52,2.52,0,0,0,2.79,2.66,2.65,2.65,0,0,0,2.64-1.7l1.12.29a4,4,0,0,1-7.76-1.55,3.86,3.86,0,0,1,4-4.11c2.69,0,3.91,1.81,3.91,4.4Zm0-.8h5.52a2.52,2.52,0,0,0-2.74-2.51A2.63,2.63,0,0,0,142.55,65.91Z"/><path class="cls-5" d="M157.31,70.29v-5c0-1.22-.8-1.94-2.19-1.94a2.37,2.37,0,0,0-2.5,2.43v4.5h-1.23V62.48h1.22c0,.46,0,.93,0,1.39l0,0a3,3,0,0,1,2.83-1.6c1.89,0,3.11,1.1,3.11,2.71v5.3Z"/><path class="cls-5" d="M170.49,73v-3.3c0-.34,0-1,0-1a3.4,3.4,0,0,1-3.07,1.76c-2.4,0-3.79-1.79-3.79-4.1a3.76,3.76,0,0,1,3.83-4.1,3.34,3.34,0,0,1,3.06,1.78c0-.5,0-1,0-1.58h1.2V73Zm-5.57-6.63a2.74,2.74,0,0,0,2.69,3,2.84,2.84,0,0,0,2.85-3,2.78,2.78,0,0,0-2.87-3A2.72,2.72,0,0,0,164.92,66.41Z"/><path class="cls-5" d="M180.27,70.29l0-1.47h0a2.88,2.88,0,0,1-2.8,1.63,2.79,2.79,0,0,1-3.12-3v-5h1.23v4.87a1.9,1.9,0,0,0,2.16,2,2.4,2.4,0,0,0,2.51-2.56V62.48h1.23v7.81Z"/><path class="cls-5" d="M184.72,66.71a2.52,2.52,0,0,0,2.79,2.66,2.65,2.65,0,0,0,2.64-1.7l1.12.29a4,4,0,0,1-7.76-1.55,3.86,3.86,0,0,1,4-4.11c2.69,0,3.91,1.81,3.91,4.4Zm0-.8h5.52a2.52,2.52,0,0,0-2.74-2.51A2.63,2.63,0,0,0,184.72,65.91Z"/><path class="cls-5" d="M196.33,67.83l1.25,0c0,1.07.82,1.7,2.29,1.7.94,0,2-.43,2-1.38,0-2-5.39-.29-5.39-3.52,0-1.42,1.52-2.29,3.14-2.29,2.21,0,3.27,1,3.39,2.59-.42,0-.83.06-1.25.08-.08-1.06-.8-1.63-2.18-1.63-1,0-1.92.5-1.92,1.31,0,1.94,5.43.32,5.43,3.46,0,1.62-1.67,2.34-3.33,2.34C197.55,70.44,196.41,69.49,196.33,67.83Z"/><path class="cls-5" d="M206.08,66.71a2.52,2.52,0,0,0,2.79,2.66,2.65,2.65,0,0,0,2.64-1.7l1.12.29a4,4,0,0,1-7.76-1.55,3.86,3.86,0,0,1,4-4.11c2.69,0,3.91,1.81,3.91,4.4Zm0-.8h5.52a2.52,2.52,0,0,0-2.74-2.51A2.63,2.63,0,0,0,206.08,65.91Z"/><path class="cls-5" d="M222.11,63.48c-2.32,0-2.8,1.87-2.8,3.71v3.11h-1.23V62.48h1.22c0,.69,0,1.33-.06,2a3.05,3.05,0,0,1,2.88-2.14Z"/><path class="cls-5" d="M224.25,66.71A2.52,2.52,0,0,0,227,69.37a2.65,2.65,0,0,0,2.64-1.7l1.12.29A4,4,0,0,1,223,66.41a3.86,3.86,0,0,1,4-4.11c2.69,0,3.91,1.81,3.91,4.4Zm0-.8h5.52A2.52,2.52,0,0,0,227,63.4,2.63,2.63,0,0,0,224.25,65.91Z"/><path class="cls-5" d="M232.67,66.47a3.88,3.88,0,0,1,4.13-4.18,3.37,3.37,0,0,1,3.55,2.56l-1.12.34a2.28,2.28,0,0,0-2.5-1.79,2.77,2.77,0,0,0-2.87,3.07,2.63,2.63,0,0,0,2.77,2.9,2.91,2.91,0,0,0,2.71-1.82l1.09.24a3.59,3.59,0,0,1-3.78,2.66A3.73,3.73,0,0,1,232.67,66.47Z"/><path class="cls-5" d="M248.85,70.29V68.68a3.14,3.14,0,0,1-3,1.76,3.74,3.74,0,0,1-3.86-4,3.82,3.82,0,0,1,4-4.11A3.38,3.38,0,0,1,248.9,64s0-1,0-1.52h1.2v7.81Zm-5.62-3.89a2.68,2.68,0,0,0,2.72,3,2.79,2.79,0,0,0,2.85-3,2.69,2.69,0,0,0-2.85-3A2.77,2.77,0,0,0,243.23,66.41Z"/><path class="cls-5" d="M256.57,63.48c-2.32,0-2.8,1.87-2.8,3.71v3.11h-1.23V62.48h1.22c0,.69,0,1.33-.06,2a3.05,3.05,0,0,1,2.88-2.14Z"/><path class="cls-5" d="M258.45,71.14a5.19,5.19,0,0,0,2.88,1c1.78,0,3-.88,3-2.75v-.91a3.37,3.37,0,0,1-3,1.78,3.65,3.65,0,0,1-3.79-3.89,3.76,3.76,0,0,1,3.94-4A3.15,3.15,0,0,1,264.34,64s0-1,0-1.55h1.17v7c0,2.27-1.5,3.68-4,3.68A6.05,6.05,0,0,1,258,72.1C258.15,71.78,258.34,71.46,258.45,71.14Zm.34-4.83a2.62,2.62,0,0,0,2.66,2.85,2.68,2.68,0,0,0,2.77-2.82,2.72,2.72,0,1,0-5.43,0Z"/><path class="cls-5" d="M267.61,66.39a4.06,4.06,0,1,1,4,4.07A3.85,3.85,0,0,1,267.61,66.39Zm1.18,0a2.75,2.75,0,0,0,2.86,3,2.79,2.79,0,0,0,2.88-3,2.88,2.88,0,1,0-5.75,0Zm4.54-7.92c.27.29.51.59.77.88l-2.66,2.3c-.22-.24-.43-.5-.64-.74Z"/><path class="cls-5" d="M278.07,72.65l-1.17-.42c.26-.61.5-1.23.74-1.84a3.28,3.28,0,0,0,.14-1.3v-.53h1.33v.64a3.61,3.61,0,0,1-.21,1.44Z"/><path class="cls-5" d="M29.81,85.83l1.25,0c0,1.07.82,1.7,2.29,1.7.95,0,2-.43,2-1.38,0-2-5.39-.29-5.39-3.52,0-1.42,1.52-2.29,3.14-2.29,2.21,0,3.27,1,3.39,2.59-.42,0-.83.06-1.25.08-.08-1.06-.8-1.63-2.18-1.63-1,0-1.92.5-1.92,1.31,0,1.94,5.43.32,5.43,3.46,0,1.62-1.66,2.34-3.33,2.34C31,88.44,29.89,87.49,29.81,85.83Z"/><path class="cls-5" d="M39.56,84.71a2.52,2.52,0,0,0,2.79,2.66A2.65,2.65,0,0,0,45,85.67l1.12.29a3.69,3.69,0,0,1-3.79,2.48,3.72,3.72,0,0,1-4-4,3.86,3.86,0,0,1,4-4.11c2.69,0,3.91,1.81,3.91,4.4Zm0-.8h5.52a2.52,2.52,0,0,0-2.74-2.51A2.63,2.63,0,0,0,39.56,83.91Z"/><path class="cls-5" d="M51.53,78a.61.61,0,0,1,.64-.62.6.6,0,0,1,.63.62v.74a.59.59,0,0,1-.62.61.6.6,0,0,1-.64-.61Zm0,10.28V80.48h1.23v7.81Z"/><path class="cls-5" d="M61.28,88.29v-5c0-1.22-.8-1.94-2.19-1.94a2.37,2.37,0,0,0-2.5,2.43v4.5H55.36V80.48h1.22c0,.46,0,.93,0,1.39l0,0a3,3,0,0,1,2.83-1.6c1.89,0,3.11,1.1,3.11,2.71v5.3Z"/><path class="cls-5" d="M64.6,85.83l1.25,0c0,1.07.82,1.7,2.29,1.7.94,0,2-.43,2-1.38,0-2-5.39-.29-5.39-3.52,0-1.42,1.52-2.29,3.14-2.29,2.21,0,3.27,1,3.39,2.59-.42,0-.83.06-1.25.08-.08-1.06-.8-1.63-2.18-1.63-1,0-1.92.5-1.92,1.31,0,1.94,5.43.32,5.43,3.46,0,1.62-1.67,2.34-3.33,2.34C65.82,88.44,64.68,87.49,64.6,85.83Z"/><path class="cls-5" d="M74.83,86.74c0,.61,0,1.17,0,1.83V91h-1.2V80.48h1.2v.72c0,.29,0,.86,0,.86a3.47,3.47,0,0,1,3-1.78c2.43,0,3.83,1.71,3.83,4.1s-1.47,4.1-3.87,4.1A3.19,3.19,0,0,1,74.83,86.74Zm.06-2.38c0,1.86.94,3.06,2.82,3.06a3,3,0,0,0,0-6A2.77,2.77,0,0,0,74.9,84.36Z"/><path class="cls-5" d="M84.59,84.71a2.52,2.52,0,0,0,2.79,2.66A2.65,2.65,0,0,0,90,85.67l1.12.29a4,4,0,0,1-7.76-1.55,3.86,3.86,0,0,1,4-4.11c2.69,0,3.91,1.81,3.91,4.4Zm0-.8h5.52a2.52,2.52,0,0,0-2.74-2.51A2.63,2.63,0,0,0,84.59,83.91Z"/><path class="cls-5" d="M93,84.47a3.88,3.88,0,0,1,4.13-4.18,3.37,3.37,0,0,1,3.55,2.56l-1.12.34a2.28,2.28,0,0,0-2.5-1.79,2.77,2.77,0,0,0-2.87,3.07A2.63,2.63,0,0,0,97,87.37a2.92,2.92,0,0,0,2.71-1.82l1.09.24A3.59,3.59,0,0,1,97,88.44,3.73,3.73,0,0,1,93,84.47Z"/><path class="cls-5" d="M102.35,84.47a3.88,3.88,0,0,1,4.13-4.18A3.37,3.37,0,0,1,110,82.85l-1.12.34a2.28,2.28,0,0,0-2.5-1.79,2.77,2.77,0,0,0-2.87,3.07,2.63,2.63,0,0,0,2.77,2.9A2.91,2.91,0,0,0,109,85.54l1.09.24a3.59,3.59,0,0,1-3.78,2.66A3.73,3.73,0,0,1,102.35,84.47Z"/><path class="cls-5" d="M112.1,78a.61.61,0,0,1,.64-.62.6.6,0,0,1,.62.62v.74a.59.59,0,0,1-.62.61.6.6,0,0,1-.64-.61Zm0,10.28V80.48h1.23v7.81Z"/><path class="cls-5" d="M115.45,84.39a3.85,3.85,0,0,1,4-4.1,4.08,4.08,0,0,1,0,8.16A3.86,3.86,0,0,1,115.45,84.39Zm1.18,0a2.75,2.75,0,0,0,2.87,3,2.79,2.79,0,0,0,2.88-3,2.88,2.88,0,1,0-5.75,0Z"/><path class="cls-5" d="M131.65,88.29v-5c0-1.22-.8-1.94-2.19-1.94A2.37,2.37,0,0,0,127,83.8v4.5h-1.23V80.48h1.22c0,.46,0,.93,0,1.39l0,0a3,3,0,0,1,2.83-1.6c1.89,0,3.11,1.1,3.11,2.71v5.3Z"/><path class="cls-5" d="M134.92,84.39a4.06,4.06,0,1,1,4,4.07A3.85,3.85,0,0,1,134.92,84.39Zm1.18,0a2.75,2.75,0,0,0,2.86,3,2.79,2.79,0,0,0,2.88-3,2.88,2.88,0,1,0-5.75,0Zm4.54-7.92c.27.29.51.59.77.88l-2.66,2.3c-.22-.24-.43-.5-.64-.74Z"/><path class="cls-5" d="M148.12,90.17c.13-.34.29-.67.42-1a5.56,5.56,0,0,0,2.9.91c1.82,0,2.77-.88,2.77-3.41a3,3,0,0,1-2.85,1.65c-1.87,0-3.15-1-3.15-3V80.48h1.23v4.75a1.94,1.94,0,0,0,2.21,2,2.33,2.33,0,0,0,2.45-2.58V80.48h1.25v6.27c0,2.59-1.31,4.42-3.86,4.42A6.16,6.16,0,0,1,148.12,90.17Z"/><path class="cls-5" d="M161.09,88.29V77.44h1.23V88.29Z"/><path class="cls-5" d="M171.28,88.29V86.68a3.14,3.14,0,0,1-3,1.76,3.74,3.74,0,0,1-3.86-4,3.82,3.82,0,0,1,4-4.11A3.38,3.38,0,0,1,171.33,82s0-1,0-1.52h1.2v7.81Zm-5.62-3.89a2.68,2.68,0,0,0,2.72,3,2.79,2.79,0,0,0,2.85-3,2.69,2.69,0,0,0-2.85-3A2.77,2.77,0,0,0,165.67,84.41Z"/><path class="cls-5" d="M174.58,85.83l1.25,0c0,1.07.82,1.7,2.29,1.7.95,0,2-.43,2-1.38,0-2-5.39-.29-5.39-3.52,0-1.42,1.52-2.29,3.14-2.29,2.21,0,3.27,1,3.39,2.59-.42,0-.83.06-1.25.08-.08-1.06-.8-1.63-2.18-1.63-1,0-1.92.5-1.92,1.31,0,1.94,5.43.32,5.43,3.46,0,1.62-1.66,2.34-3.33,2.34C175.79,88.44,174.66,87.49,174.58,85.83Z"/><path class="cls-5" d="M186.78,78a.61.61,0,0,1,.64-.62A.6.6,0,0,1,188,78v.74a.59.59,0,0,1-.62.61.6.6,0,0,1-.64-.61Zm0,10.28V80.48H188v7.81Z"/><path class="cls-5" d="M196.54,88.29v-5c0-1.22-.8-1.94-2.19-1.94a2.37,2.37,0,0,0-2.5,2.43v4.5h-1.23V80.48h1.22c0,.46,0,.93,0,1.39l0,0a3,3,0,0,1,2.83-1.6c1.89,0,3.11,1.1,3.11,2.71v5.3Z"/><path class="cls-5" d="M200.26,78a.61.61,0,0,1,.64-.62.6.6,0,0,1,.63.62v.74a.59.59,0,0,1-.62.61.6.6,0,0,1-.64-.61Zm0,10.28V80.48h1.23v7.81Z"/><path class="cls-5" d="M203.64,84.47a3.88,3.88,0,0,1,4.13-4.18,3.37,3.37,0,0,1,3.55,2.56l-1.12.34a2.28,2.28,0,0,0-2.5-1.79,2.77,2.77,0,0,0-2.87,3.07,2.63,2.63,0,0,0,2.77,2.9,2.92,2.92,0,0,0,2.71-1.82l1.09.24a3.59,3.59,0,0,1-3.78,2.66A3.73,3.73,0,0,1,203.64,84.47Z"/><path class="cls-5" d="M213.39,78a.61.61,0,0,1,.64-.62.6.6,0,0,1,.63.62v.74a.59.59,0,0,1-.62.61.6.6,0,0,1-.64-.61Zm0,10.28V80.48h1.23v7.81Z"/><path class="cls-5" d="M223.61,88.29V86.68a3.14,3.14,0,0,1-3,1.76,3.74,3.74,0,0,1-3.86-4,3.82,3.82,0,0,1,4-4.11A3.38,3.38,0,0,1,223.66,82s0-1,0-1.52h1.2v7.81ZM218,84.41a2.68,2.68,0,0,0,2.72,3,2.79,2.79,0,0,0,2.85-3,2.69,2.69,0,0,0-2.85-3A2.77,2.77,0,0,0,218,84.41Z"/><path class="cls-5" d="M227.28,88.29V77.44h1.23V88.29Z"/><path class="cls-5" d="M231.84,84.71a2.52,2.52,0,0,0,2.79,2.66,2.65,2.65,0,0,0,2.64-1.7l1.12.29a4,4,0,0,1-7.76-1.55,3.86,3.86,0,0,1,4-4.11c2.69,0,3.91,1.81,3.91,4.4Zm0-.8h5.52a2.52,2.52,0,0,0-2.74-2.51A2.63,2.63,0,0,0,231.84,83.91Z"/><path class="cls-5" d="M240.24,85.83l1.25,0c0,1.07.82,1.7,2.29,1.7.95,0,2-.43,2-1.38,0-2-5.39-.29-5.39-3.52,0-1.42,1.52-2.29,3.14-2.29,2.21,0,3.27,1,3.39,2.59-.42,0-.83.06-1.25.08-.08-1.06-.8-1.63-2.18-1.63-1,0-1.92.5-1.92,1.31,0,1.94,5.43.32,5.43,3.46,0,1.62-1.66,2.34-3.33,2.34C241.45,88.44,240.32,87.49,240.24,85.83Z"/><path class="cls-5" d="M258.78,88.29v-1.6a3.36,3.36,0,0,1-3,1.76c-2.42,0-3.81-1.75-3.81-4.08s1.5-4.11,3.86-4.11a3.44,3.44,0,0,1,3,1.71s0-1.2,0-1.83V77.44H260V88.29Zm-5.6-3.92c0,1.75,1,3,2.72,3a2.83,2.83,0,0,0,2.85-3,2.7,2.7,0,0,0-2.85-3A2.77,2.77,0,0,0,253.18,84.37Z"/><path class="cls-5" d="M263.34,84.71a2.52,2.52,0,0,0,2.79,2.66,2.65,2.65,0,0,0,2.64-1.7l1.12.29a4,4,0,0,1-7.76-1.55,3.86,3.86,0,0,1,4-4.11c2.69,0,3.91,1.81,3.91,4.4Zm0-.8h5.52a2.52,2.52,0,0,0-2.74-2.51A2.63,2.63,0,0,0,263.34,83.91Z"/><path class="cls-5" d="M275.3,88.29V77.44h1.23V88.29Z"/><path class="cls-5" d="M285.5,88.29V86.68a3.14,3.14,0,0,1-3,1.76,3.74,3.74,0,0,1-3.86-4,3.82,3.82,0,0,1,4-4.11A3.38,3.38,0,0,1,285.55,82s0-1,0-1.52h1.2v7.81Zm-5.62-3.89a2.68,2.68,0,0,0,2.72,3,2.79,2.79,0,0,0,2.85-3,2.69,2.69,0,0,0-2.85-3A2.77,2.77,0,0,0,279.88,84.41Z"/><path class="cls-5" d="M31.38,104.74c0,.61,0,1.17,0,1.83V109H30.2V98.48h1.2v.72c0,.29,0,.86,0,.86a3.47,3.47,0,0,1,3-1.78c2.43,0,3.83,1.71,3.83,4.1s-1.47,4.1-3.87,4.1A3.19,3.19,0,0,1,31.38,104.74Zm.06-2.38c0,1.86.94,3.06,2.82,3.06a3,3,0,0,0,0-6A2.77,2.77,0,0,0,31.45,102.36Z"/><path class="cls-5" d="M41.14,102.71a2.52,2.52,0,0,0,2.79,2.66,2.65,2.65,0,0,0,2.64-1.7l1.12.29a3.69,3.69,0,0,1-3.79,2.48,3.72,3.72,0,0,1-4-4,3.86,3.86,0,0,1,4-4.11c2.69,0,3.91,1.81,3.91,4.4Zm0-.8h5.52a2.52,2.52,0,0,0-2.74-2.51A2.63,2.63,0,0,0,41.14,101.91Z"/><path class="cls-5" d="M54,99.48c-2.32,0-2.8,1.87-2.8,3.71v3.11H50V98.48h1.22c0,.69,0,1.33-.06,2A3.05,3.05,0,0,1,54,98.31Z"/><path class="cls-5" d="M55.24,103.83l1.25,0c0,1.07.82,1.7,2.29,1.7.94,0,2-.43,2-1.38,0-2-5.39-.29-5.39-3.52,0-1.42,1.52-2.29,3.14-2.29,2.21,0,3.27,1,3.39,2.59-.42,0-.83.06-1.25.08-.08-1.06-.8-1.63-2.18-1.63-1,0-1.92.5-1.92,1.31,0,1.94,5.43.32,5.43,3.46,0,1.62-1.67,2.34-3.33,2.34C56.45,106.44,55.32,105.49,55.24,103.83Z"/><path class="cls-5" d="M63.78,102.39a3.85,3.85,0,0,1,4-4.1,4.08,4.08,0,0,1,0,8.16A3.86,3.86,0,0,1,63.78,102.39Zm1.18,0a2.75,2.75,0,0,0,2.87,3,2.79,2.79,0,0,0,2.88-3,2.88,2.88,0,1,0-5.75,0Z"/><path class="cls-5" d="M80,106.29v-5c0-1.22-.8-1.94-2.19-1.94a2.37,2.37,0,0,0-2.5,2.43v4.5H74V98.48h1.22c0,.46,0,.93,0,1.39l0,0a3,3,0,0,1,2.83-1.6c1.89,0,3.11,1.1,3.11,2.71v5.3Z"/><path class="cls-5" d="M90.08,106.29v-1.62a3.14,3.14,0,0,1-3,1.76,3.74,3.74,0,0,1-3.86-4,3.82,3.82,0,0,1,4-4.11A3.38,3.38,0,0,1,90.13,100s0-1,0-1.52h1.2v7.81Zm-5.62-3.89a2.68,2.68,0,0,0,2.72,3,2.79,2.79,0,0,0,2.85-3,2.69,2.69,0,0,0-2.85-3A2.77,2.77,0,0,0,84.47,102.41Z"/><path class="cls-5" d="M103.12,109v-3.3c0-.34,0-1,0-1a3.4,3.4,0,0,1-3.07,1.76c-2.4,0-3.79-1.79-3.79-4.1a3.76,3.76,0,0,1,3.83-4.1,3.34,3.34,0,0,1,3.06,1.78c0-.5,0-1,0-1.58h1.2V109Zm-5.57-6.63a2.74,2.74,0,0,0,2.69,3,2.84,2.84,0,0,0,2.85-3,2.78,2.78,0,0,0-2.87-3A2.72,2.72,0,0,0,97.55,102.41Z"/><path class="cls-5" d="M112.91,106.29l0-1.47h0a2.88,2.88,0,0,1-2.8,1.63,2.79,2.79,0,0,1-3.12-3v-5h1.23v4.87a1.9,1.9,0,0,0,2.16,2,2.4,2.4,0,0,0,2.51-2.56V98.48h1.23v7.81Z"/><path class="cls-5" d="M117.35,102.71a2.52,2.52,0,0,0,2.79,2.66,2.65,2.65,0,0,0,2.64-1.7l1.12.29a4,4,0,0,1-7.76-1.55,3.86,3.86,0,0,1,4-4.11c2.69,0,3.91,1.81,3.91,4.4Zm0-.8h5.52a2.52,2.52,0,0,0-2.74-2.51A2.63,2.63,0,0,0,117.35,101.91Z"/><path class="cls-5" d="M129.32,106.29V95.44h1.23v10.85Z"/><path class="cls-5" d="M132.67,102.39a3.85,3.85,0,0,1,4-4.1,4.08,4.08,0,0,1,0,8.16A3.86,3.86,0,0,1,132.67,102.39Zm1.18,0a2.75,2.75,0,0,0,2.87,3,2.79,2.79,0,0,0,2.88-3,2.88,2.88,0,1,0-5.75,0Z"/><path class="cls-5" d="M152,106.29v-5a2,2,0,0,0-2.19-2c-1.84,0-2.5,1.22-2.5,2.85v4.08H146V95.44h1.22v3.17c0,.66,0,.69,0,1.25l0,0a3,3,0,0,1,2.83-1.58A2.8,2.8,0,0,1,153.2,101v5.27Z"/><path class="cls-5" d="M155.69,96a.61.61,0,0,1,.64-.62.6.6,0,0,1,.62.62v.74a.59.59,0,0,1-.62.61.6.6,0,0,1-.64-.61Zm0,10.28V98.48h1.23v7.81Z"/><path class="cls-5" d="M158.82,106.29v-.94L164,99.54h-4.79V98.48h6.51v.93l-5.17,5.83h5.41v1.06Z"/><path class="cls-5" d="M167,102.39a3.85,3.85,0,0,1,4-4.1,4.08,4.08,0,0,1,0,8.16A3.86,3.86,0,0,1,167,102.39Zm1.18,0a2.75,2.75,0,0,0,2.87,3,2.79,2.79,0,0,0,2.88-3,2.88,2.88,0,1,0-5.75,0Z"/><path class="cls-5" d="M177.08,106.29v-1.73h1.31v1.73Z"/><path class="cls-5" d="M184.07,106.29V95.44h8.15v1.09H185.3v3.62h6.08v1.07H185.3v4h7v1.1Z"/><path class="cls-5" d="M193.79,103.83l1.25,0c0,1.07.82,1.7,2.29,1.7.94,0,2-.43,2-1.38,0-2-5.39-.29-5.39-3.52,0-1.42,1.52-2.29,3.14-2.29,2.21,0,3.27,1,3.39,2.59-.42,0-.83.06-1.25.08-.08-1.06-.8-1.63-2.18-1.63-1,0-1.92.5-1.92,1.31,0,1.94,5.43.32,5.43,3.46,0,1.62-1.67,2.34-3.33,2.34C195,106.44,193.87,105.49,193.79,103.83Z"/><path class="cls-5" d="M211.95,106.29l0-1.47h0a2.88,2.88,0,0,1-2.8,1.63,2.79,2.79,0,0,1-3.12-3v-5h1.23v4.87a1.9,1.9,0,0,0,2.16,2,2.4,2.4,0,0,0,2.51-2.56V98.48h1.23v7.81Z"/><path class="cls-5" d="M221.57,106.29v-5c0-1.22-.8-1.94-2.19-1.94a2.37,2.37,0,0,0-2.5,2.43v4.5h-1.23V98.48h1.22c0,.46,0,.93,0,1.39l0,0a3,3,0,0,1,2.83-1.6c1.89,0,3.11,1.1,3.11,2.71v5.3Z"/><path class="cls-5" d="M236.57,103.33v3h-1.3v-2.9c0-1.5-1.1-1.92-2.82-1.92h-3v4.82h-1.25V95.44h4.64c2.34,0,3.81,1,3.81,2.8a2.81,2.81,0,0,1-2.24,2.64v0A2.48,2.48,0,0,1,236.57,103.33Zm-7.08-6.83v4h3.15c1.42,0,2.69-.66,2.69-2s-1-1.9-2.51-1.9Z"/><path class="cls-5" d="M239.58,102.71a2.52,2.52,0,0,0,2.79,2.66,2.65,2.65,0,0,0,2.64-1.7l1.12.29a4,4,0,0,1-7.76-1.55,3.86,3.86,0,0,1,4-4.11c2.69,0,3.91,1.81,3.91,4.4Zm0-.8h5.52a2.52,2.52,0,0,0-2.74-2.51A2.63,2.63,0,0,0,239.58,101.91Z"/><path class="cls-5" d="M248.91,107.14a5.19,5.19,0,0,0,2.88,1c1.78,0,3-.88,3-2.75v-.91a3.37,3.37,0,0,1-3,1.78,3.65,3.65,0,0,1-3.79-3.89,3.76,3.76,0,0,1,3.94-4A3.15,3.15,0,0,1,254.8,100s0-1,0-1.55h1.17v7c0,2.27-1.5,3.68-4,3.68a6.05,6.05,0,0,1-3.42-1.07C248.61,107.78,248.8,107.46,248.91,107.14Zm.34-4.83a2.62,2.62,0,0,0,2.66,2.85,2.68,2.68,0,0,0,2.77-2.82,2.72,2.72,0,1,0-5.43,0Z"/><path class="cls-5" d="M258.51,96a.61.61,0,0,1,.64-.62.6.6,0,0,1,.62.62v.74a.59.59,0,0,1-.62.61.6.6,0,0,1-.64-.61Zm0,10.28V98.48h1.23v7.81Z"/><path class="cls-5" d="M262,103.83l1.25,0c0,1.07.82,1.7,2.29,1.7.95,0,2-.43,2-1.38,0-2-5.39-.29-5.39-3.52,0-1.42,1.52-2.29,3.14-2.29,2.21,0,3.27,1,3.39,2.59-.42,0-.83.06-1.25.08-.08-1.06-.8-1.63-2.18-1.63-1,0-1.92.5-1.92,1.31,0,1.94,5.43.32,5.43,3.46,0,1.62-1.66,2.34-3.33,2.34C263.17,106.44,262,105.49,262,103.83Z"/><path class="cls-5" d="M272.94,99.51v5.2c0,.37.22.67.88.67a2.23,2.23,0,0,0,.91-.19v.91a3,3,0,0,1-1.5.35,1.36,1.36,0,0,1-1.52-1.31V99.51h-1.5v-1h1.5v-2h1.23v2h1.79v1Z"/><path class="cls-5" d="M280.65,99.48c-2.32,0-2.8,1.87-2.8,3.71v3.11h-1.23V98.48h1.22c0,.69,0,1.33-.06,2a3.05,3.05,0,0,1,2.88-2.14Z"/><path class="cls-5" d="M281.59,102.39a3.85,3.85,0,0,1,4-4.1,4.08,4.08,0,0,1,0,8.16A3.86,3.86,0,0,1,281.59,102.39Zm1.18,0a2.75,2.75,0,0,0,2.87,3,2.79,2.79,0,0,0,2.88-3,2.88,2.88,0,1,0-5.75,0Z"/><path class="cls-5" d="M301.27,106.29v-1.6a3.36,3.36,0,0,1-3,1.76c-2.42,0-3.81-1.75-3.81-4.08s1.5-4.11,3.86-4.11a3.44,3.44,0,0,1,3,1.71s0-1.2,0-1.83V95.44h1.22v10.85Zm-5.6-3.92c0,1.75,1,3,2.72,3a2.83,2.83,0,0,0,2.85-3,2.7,2.7,0,0,0-2.85-3A2.77,2.77,0,0,0,295.67,102.37Z"/><path class="cls-5" d="M305.83,102.71a2.52,2.52,0,0,0,2.79,2.66,2.65,2.65,0,0,0,2.64-1.7l1.12.29a4,4,0,0,1-7.76-1.55,3.86,3.86,0,0,1,4-4.11c2.69,0,3.91,1.81,3.91,4.4Zm0-.8h5.52a2.52,2.52,0,0,0-2.74-2.51A2.63,2.63,0,0,0,305.83,101.91Z"/><path class="cls-5" d="M40.84,124.29l.06-9-4.32,9H35.49l-4.31-9,.08,9H30V113.44h1.76l4.32,9.08,4.32-9.08h1.76v10.85Z"/><path class="cls-5" d="M51.14,124.29v-1.62a3.14,3.14,0,0,1-3,1.76,3.74,3.74,0,0,1-3.86-4,3.82,3.82,0,0,1,4-4.11A3.38,3.38,0,0,1,51.19,118s0-1,0-1.52h1.2v7.81Zm-5.62-3.89a2.68,2.68,0,0,0,2.72,3,2.79,2.79,0,0,0,2.85-3,2.69,2.69,0,0,0-2.85-3A2.77,2.77,0,0,0,45.52,120.41Z"/><path class="cls-5" d="M60.75,124.29v-5c0-1.22-.8-1.94-2.19-1.94a2.37,2.37,0,0,0-2.5,2.43v4.5H54.83v-7.81H56c0,.46,0,.93,0,1.39l0,0a3,3,0,0,1,2.83-1.6c1.89,0,3.11,1.1,3.11,2.71v5.3Z"/><path class="cls-5" d="M66.33,117.51v5.2c0,.37.22.67.88.67a2.23,2.23,0,0,0,.91-.19v.91a3,3,0,0,1-1.5.35,1.36,1.36,0,0,1-1.52-1.31v-5.63h-1.5v-1h1.5v-2h1.23v2h1.79v1Z"/><path class="cls-5" d="M70.56,120.71a2.52,2.52,0,0,0,2.79,2.66,2.65,2.65,0,0,0,2.64-1.7l1.12.29a4,4,0,0,1-7.76-1.55,3.86,3.86,0,0,1,4-4.11c2.69,0,3.91,1.81,3.91,4.4Zm0-.8h5.52a2.52,2.52,0,0,0-2.74-2.51A2.63,2.63,0,0,0,70.56,119.91Z"/><path class="cls-5" d="M85.31,124.29v-5c0-1.22-.8-1.94-2.19-1.94a2.37,2.37,0,0,0-2.5,2.43v4.5H79.39v-7.81h1.22c0,.46,0,.93,0,1.39l0,0a3,3,0,0,1,2.83-1.6c1.89,0,3.11,1.1,3.11,2.71v5.3Z"/><path class="cls-5" d="M89,114a.61.61,0,0,1,.64-.62.6.6,0,0,1,.63.62v.74a.59.59,0,0,1-.62.61.6.6,0,0,1-.64-.61Zm0,10.28v-7.81h1.23v7.81Z"/><path class="cls-5" d="M103.4,124.29v-5a1.69,1.69,0,0,0-1.87-1.94,2.08,2.08,0,0,0-2.16,2.08v4.85H98.14v-5a1.72,1.72,0,0,0-1.94-1.94,1.7,1.7,0,0,0-.77.19c-1.12.35-1.33,1.5-1.33,2.56v4.18H92.87v-7.81h1.22c0,.46,0,.94,0,1.41h0a2.41,2.41,0,0,1,2.51-1.55,2.46,2.46,0,0,1,2.53,1.6,2.75,2.75,0,0,1,2.71-1.65,2.46,2.46,0,0,1,2.8,2.71v5.3Z"/><path class="cls-5" d="M107.15,114a.61.61,0,0,1,.64-.62.6.6,0,0,1,.63.62v.74a.59.59,0,0,1-.62.61.6.6,0,0,1-.64-.61Zm0,10.28v-7.81h1.23v7.81Z"/><path class="cls-5" d="M111.73,120.71a2.52,2.52,0,0,0,2.79,2.66,2.65,2.65,0,0,0,2.64-1.7l1.12.29a4,4,0,0,1-7.76-1.55,3.86,3.86,0,0,1,4-4.11c2.69,0,3.91,1.81,3.91,4.4Zm0-.8h5.52a2.52,2.52,0,0,0-2.74-2.51A2.63,2.63,0,0,0,111.73,119.91Z"/><path class="cls-5" d="M126.49,124.29v-5c0-1.22-.8-1.94-2.19-1.94a2.37,2.37,0,0,0-2.5,2.43v4.5h-1.23v-7.81h1.22c0,.46,0,.93,0,1.39l0,0a3,3,0,0,1,2.83-1.6c1.89,0,3.11,1.1,3.11,2.71v5.3Z"/><path class="cls-5" d="M132.06,117.51v5.2c0,.37.22.67.88.67a2.23,2.23,0,0,0,.91-.19v.91a3,3,0,0,1-1.5.35,1.36,1.36,0,0,1-1.52-1.31v-5.63h-1.5v-1h1.5v-2h1.23v2h1.79v1Z"/><path class="cls-5" d="M135.08,120.39a4.06,4.06,0,1,1,4,4.07A3.85,3.85,0,0,1,135.08,120.39Zm1.18,0a2.75,2.75,0,0,0,2.86,3,2.79,2.79,0,0,0,2.88-3,2.88,2.88,0,1,0-5.75,0Z"/><path class="cls-5" d="M148.27,126.17c.13-.34.29-.67.42-1a5.56,5.56,0,0,0,2.9.91c1.82,0,2.77-.88,2.77-3.41a3,3,0,0,1-2.85,1.65c-1.87,0-3.15-1-3.15-3v-4.87h1.23v4.75a1.94,1.94,0,0,0,2.21,2,2.33,2.33,0,0,0,2.45-2.58v-4.18h1.25v6.27c0,2.59-1.31,4.42-3.86,4.42A6.16,6.16,0,0,1,148.27,126.17Z"/><path class="cls-5" d="M160.69,120.89l1.3-.1c.06,1.87,1.5,2.59,3.46,2.59,1.49,0,3-.74,3-2.07,0-3.17-7.57-.69-7.57-5.12,0-1.79,1.55-2.9,4.43-2.9s4.19,1.07,4.31,3.17c-.45,0-.9.06-1.34.11-.13-1.65-1.3-2.16-3-2.16-2.08,0-3,.75-3,1.81,0,3.23,7.6.64,7.6,5.06a1,1,0,0,1-.08.37c-.19,2-2.4,2.79-4.32,2.79C162.78,124.44,160.78,123.51,160.69,120.89Z"/><path class="cls-5" d="M172.73,120.71a2.52,2.52,0,0,0,2.79,2.66,2.65,2.65,0,0,0,2.64-1.7l1.12.29a4,4,0,0,1-7.76-1.55,3.86,3.86,0,0,1,4-4.11c2.69,0,3.91,1.81,3.91,4.4Zm0-.8h5.52a2.52,2.52,0,0,0-2.74-2.51A2.63,2.63,0,0,0,172.73,119.91Z"/><path class="cls-5" d="M185.6,117.48c-2.32,0-2.8,1.87-2.8,3.71v3.11h-1.23v-7.81h1.22c0,.69,0,1.33-.06,2a3.05,3.05,0,0,1,2.88-2.14Z"/><path class="cls-5" d="M191.42,124.29h-1.14l-3.68-7.81h1.46l2.83,6.48,2.59-6.48h1.33Z"/><path class="cls-5" d="M196.4,114a.61.61,0,0,1,.64-.62.6.6,0,0,1,.63.62v.74a.59.59,0,0,1-.62.61.6.6,0,0,1-.64-.61Zm0,10.28v-7.81h1.23v7.81Z"/><path class="cls-5" d="M199.77,120.47a3.88,3.88,0,0,1,4.13-4.18,3.37,3.37,0,0,1,3.55,2.56l-1.12.34a2.28,2.28,0,0,0-2.5-1.79,2.77,2.77,0,0,0-2.87,3.07,2.63,2.63,0,0,0,2.77,2.9,2.91,2.91,0,0,0,2.71-1.82l1.09.24a3.59,3.59,0,0,1-3.78,2.66A3.73,3.73,0,0,1,199.77,120.47Z"/><path class="cls-5" d="M209.53,114a.61.61,0,0,1,.64-.62.6.6,0,0,1,.62.62v.74a.59.59,0,0,1-.62.61.6.6,0,0,1-.64-.61Zm0,10.28v-7.81h1.23v7.81Z"/><path class="cls-5" d="M212.87,120.39a4.06,4.06,0,1,1,4,4.07A3.85,3.85,0,0,1,212.87,120.39Zm1.18,0a2.75,2.75,0,0,0,2.86,3,2.79,2.79,0,0,0,2.88-3,2.88,2.88,0,1,0-5.75,0Z"/><path class="cls-5" d="M222.94,124.29v-1.73h1.31v1.73Z"/></g></g></g></svg>