<svg xmlns="http://www.w3.org/2000/svg" viewBox="0 0 228.64 70.59"><defs><style>.cls-1{isolation:isolate;}.cls-2{opacity:0.6;mix-blend-mode:overlay;}.cls-3{fill:#fff;}.cls-4{fill:#8f8f8f;}.cls-5{fill:#3764cb;}</style></defs><title>a_1</title><g class="cls-1"><g id="Capa_2" data-name="Capa 2"><g id="_4" data-name="4"><g class="cls-2"><rect y="14.97" width="224.84" height="55.63" rx="10.15" ry="10.15"/></g><rect class="cls-3" width="228.64" height="65.73" rx="10.39" ry="10.39"/><path class="cls-4" d="M15.86,32.65,17,32.57c.05,1.58,1.27,2.19,2.92,2.19,1.26,0,2.54-.62,2.54-1.74,0-2.67-6.39-.58-6.39-4.32,0-1.51,1.31-2.44,3.74-2.44s3.54.9,3.63,2.67L22.26,29c-.11-1.39-1.09-1.82-2.55-1.82-1.75,0-2.54.63-2.54,1.53,0,2.73,6.41.54,6.41,4.27a.81.81,0,0,1-.07.31c-.16,1.66-2,2.35-3.65,2.35C17.62,35.65,15.94,34.87,15.86,32.65Z"/><path class="cls-4" d="M25.9,32.5a2.13,2.13,0,0,0,2.35,2.24,2.24,2.24,0,0,0,2.23-1.43l.95.24a3.12,3.12,0,0,1-3.2,2.09,3.13,3.13,0,0,1-3.35-3.4,3.26,3.26,0,0,1,3.4-3.47c2.27,0,3.29,1.53,3.29,3.71Zm0-.68h4.66a2.13,2.13,0,0,0-2.31-2.12A2.22,2.22,0,0,0,25.9,31.83Z"/><path class="cls-4" d="M41,35.53l0-1.24h0a2.43,2.43,0,0,1-2.36,1.38A2.35,2.35,0,0,1,36,33.16V28.94h1V33a1.6,1.6,0,0,0,1.82,1.69,2,2,0,0,0,2.12-2.16V28.94h1v6.59Z"/><path class="cls-4" d="M45.66,29.8v4.39c0,.31.19.57.74.57a1.88,1.88,0,0,0,.77-.16v.77a2.55,2.55,0,0,1-1.27.3,1.15,1.15,0,0,1-1.28-1.11V29.8H43.35v-.86h1.27v-1.7h1v1.7h1.51v.86Z"/><path class="cls-4" d="M48.62,26.86a.51.51,0,0,1,.54-.53.5.5,0,0,1,.53.53v.62a.5.5,0,0,1-.53.51.51.51,0,0,1-.54-.51Zm0,8.67V28.94h1v6.59Z"/><path class="cls-4" d="M51.72,35.53V26.37h1v9.16Z"/><path class="cls-4" d="M54.78,26.86a.51.51,0,0,1,.54-.53.5.5,0,0,1,.53.53v.62a.5.5,0,0,1-.53.51.51.51,0,0,1-.54-.51Zm0,8.67V28.94h1v6.59Z"/><path class="cls-4" d="M57.31,35.53v-.8l4.35-4.9h-4v-.89h5.5v.78l-4.36,4.92h4.56v.89Z"/><path class="cls-4" d="M69.88,35.53V34.16a2.65,2.65,0,0,1-2.52,1.49,3.16,3.16,0,0,1-3.25-3.4,3.22,3.22,0,0,1,3.33-3.47,2.85,2.85,0,0,1,2.49,1.44s0-.84,0-1.28h1v6.59Zm-4.74-3.28a2.26,2.26,0,0,0,2.29,2.5,2.35,2.35,0,0,0,2.4-2.5,2.27,2.27,0,0,0-2.4-2.54A2.34,2.34,0,0,0,65.14,32.25Z"/><path class="cls-4" d="M76.57,34.22c0,.51,0,1,0,1.54v2.08h-1v-8.9h1v.61c0,.24,0,.73,0,.73a2.93,2.93,0,0,1,2.57-1.5,3.13,3.13,0,0,1,3.23,3.46,3.14,3.14,0,0,1-3.27,3.46A2.69,2.69,0,0,1,76.57,34.22Zm.05-2A2.26,2.26,0,0,0,79,34.78a2.31,2.31,0,0,0,2.3-2.54A2.31,2.31,0,0,0,79,29.71,2.34,2.34,0,0,0,76.62,32.21Z"/><path class="cls-4" d="M89.43,35.53V34.16a2.65,2.65,0,0,1-2.52,1.49,3.16,3.16,0,0,1-3.25-3.4A3.22,3.22,0,0,1,87,28.78a2.85,2.85,0,0,1,2.49,1.44s0-.84,0-1.28h1v6.59Zm-4.74-3.28A2.26,2.26,0,0,0,87,34.74a2.35,2.35,0,0,0,2.4-2.5A2.27,2.27,0,0,0,87,29.71,2.34,2.34,0,0,0,84.69,32.25Z"/><path class="cls-4" d="M95.82,29.77c-2,0-2.36,1.58-2.36,3.13v2.62h-1V28.94h1c0,.58,0,1.12-.05,1.66a2.57,2.57,0,0,1,2.43-1.81Z"/><path class="cls-4" d="M102.27,35.53V34.16a2.65,2.65,0,0,1-2.52,1.49,3.16,3.16,0,0,1-3.25-3.4,3.22,3.22,0,0,1,3.34-3.47,2.85,2.85,0,0,1,2.48,1.44s0-.84,0-1.28h1v6.59Zm-4.74-3.28a2.26,2.26,0,0,0,2.3,2.5,2.35,2.35,0,0,0,2.4-2.5,2.27,2.27,0,0,0-2.4-2.54A2.34,2.34,0,0,0,97.53,32.25Z"/><path class="cls-4" d="M107.93,35.53V26.37h1v9.16Z"/><path class="cls-4" d="M116.41,35.53V34.16a2.65,2.65,0,0,1-2.52,1.49,3.16,3.16,0,0,1-3.25-3.4A3.22,3.22,0,0,1,114,28.78a2.85,2.85,0,0,1,2.48,1.44s0-.84,0-1.28h1v6.59Zm-4.74-3.28a2.26,2.26,0,0,0,2.3,2.5,2.35,2.35,0,0,0,2.4-2.5,2.27,2.27,0,0,0-2.4-2.54A2.34,2.34,0,0,0,111.67,32.25Z"/><path class="cls-4" d="M122.07,35.53V26.37h1v9.16Z"/><path class="cls-4" d="M125.14,26.86a.51.51,0,0,1,.54-.53.5.5,0,0,1,.53.53v.62a.5.5,0,0,1-.53.51.51.51,0,0,1-.54-.51Zm0,8.67V28.94h1v6.59Z"/><path class="cls-4" d="M137.14,35.53V31.31a1.42,1.42,0,0,0-1.58-1.63,1.76,1.76,0,0,0-1.82,1.76v4.09h-1V31.31a1.45,1.45,0,0,0-1.63-1.63,1.43,1.43,0,0,0-.65.16c-.95.3-1.12,1.27-1.12,2.16v3.52h-1V28.94h1c0,.39,0,.8,0,1.19h0a2,2,0,0,1,2.12-1.31,2.08,2.08,0,0,1,2.13,1.35,2.32,2.32,0,0,1,2.28-1.39,2.08,2.08,0,0,1,2.36,2.28v4.47Z"/><path class="cls-4" d="M141.2,34.22c0,.51,0,1,0,1.54v2.08h-1v-8.9h1v.61c0,.24,0,.73,0,.73a2.93,2.93,0,0,1,2.57-1.5A3.13,3.13,0,0,1,147,32.23a3.14,3.14,0,0,1-3.27,3.46A2.69,2.69,0,0,1,141.2,34.22Zm.05-2a2.26,2.26,0,0,0,2.38,2.58,2.31,2.31,0,0,0,2.3-2.54,2.31,2.31,0,0,0-2.28-2.54A2.34,2.34,0,0,0,141.25,32.21Z"/><path class="cls-4" d="M148.65,26.86a.51.51,0,0,1,.54-.53.5.5,0,0,1,.53.53v.62a.5.5,0,0,1-.53.51.51.51,0,0,1-.54-.51Zm0,8.67V28.94h1v6.59Z"/><path class="cls-4" d="M152.39,32.5a2.13,2.13,0,0,0,2.35,2.24A2.24,2.24,0,0,0,157,33.31l.95.24a3.41,3.41,0,0,1-6.55-1.31,3.26,3.26,0,0,1,3.4-3.47c2.27,0,3.29,1.53,3.29,3.71Zm0-.68H157a2.13,2.13,0,0,0-2.31-2.12A2.22,2.22,0,0,0,152.39,31.83Z"/><path class="cls-4" d="M159,35.53v-.8l4.35-4.9h-4v-.89h5.5v.78l-4.36,4.92H165v.89Z"/><path class="cls-4" d="M171.59,35.53V34.16a2.65,2.65,0,0,1-2.52,1.49,3.16,3.16,0,0,1-3.25-3.4,3.22,3.22,0,0,1,3.34-3.47,2.85,2.85,0,0,1,2.48,1.44s0-.84,0-1.28h1v6.59Zm-4.74-3.28a2.26,2.26,0,0,0,2.3,2.5,2.35,2.35,0,0,0,2.4-2.5,2.27,2.27,0,0,0-2.4-2.54A2.34,2.34,0,0,0,166.85,32.25Z"/><path class="cls-4" d="M21.68,50.71V49.36a2.83,2.83,0,0,1-2.57,1.49A3.14,3.14,0,0,1,15.9,47.4a3.17,3.17,0,0,1,3.25-3.47,2.91,2.91,0,0,1,2.57,1.44s0-1,0-1.54V41.55h1v9.16ZM17,47.4a2.27,2.27,0,0,0,2.29,2.54,2.38,2.38,0,0,0,2.4-2.54,2.28,2.28,0,0,0-2.4-2.55A2.34,2.34,0,0,0,17,47.4Z"/><path class="cls-4" d="M25.4,47.69a2.13,2.13,0,0,0,2.35,2.24A2.24,2.24,0,0,0,30,48.5l.95.24a3.12,3.12,0,0,1-3.2,2.09,3.13,3.13,0,0,1-3.35-3.4A3.26,3.26,0,0,1,27.77,44c2.27,0,3.29,1.53,3.29,3.71Zm0-.68h4.66a2.13,2.13,0,0,0-2.31-2.12A2.22,2.22,0,0,0,25.4,47Z"/><path class="cls-4" d="M40.51,50.71v-4.2a1.65,1.65,0,0,0-1.85-1.65c-1.55,0-2.11,1-2.11,2.4v3.44h-1V41.55h1v2.67c0,.55,0,.58,0,1.05h0A2.55,2.55,0,0,1,38.93,44a2.36,2.36,0,0,1,2.62,2.31v4.44Z"/><path class="cls-4" d="M44.17,47.69a2.13,2.13,0,0,0,2.35,2.24,2.24,2.24,0,0,0,2.23-1.43l.95.24a3.12,3.12,0,0,1-3.2,2.09,3.13,3.13,0,0,1-3.35-3.4A3.26,3.26,0,0,1,46.55,44c2.27,0,3.29,1.53,3.29,3.71Zm0-.68h4.66a2.13,2.13,0,0,0-2.31-2.12A2.22,2.22,0,0,0,44.17,47Z"/><path class="cls-4" d="M54.91,45c-2,0-2.36,1.58-2.36,3.13v2.62h-1V44.12h1c0,.58,0,1.12-.05,1.66A2.57,2.57,0,0,1,54.91,44Z"/><path class="cls-4" d="M56.12,42a.51.51,0,0,1,.54-.53.5.5,0,0,1,.53.53v.62a.5.5,0,0,1-.53.51.51.51,0,0,1-.54-.51Zm0,8.67V44.12h1v6.59Z"/><path class="cls-4" d="M64.62,50.71V49.36A2.83,2.83,0,0,1,62,50.85a3.14,3.14,0,0,1-3.21-3.44,3.17,3.17,0,0,1,3.25-3.47,2.91,2.91,0,0,1,2.57,1.44s0-1,0-1.54V41.55h1v9.16ZM59.89,47.4a2.27,2.27,0,0,0,2.29,2.54,2.38,2.38,0,0,0,2.4-2.54,2.28,2.28,0,0,0-2.4-2.55A2.34,2.34,0,0,0,59.89,47.4Z"/><path class="cls-4" d="M73.09,50.71V49.35a2.65,2.65,0,0,1-2.52,1.49,3.16,3.16,0,0,1-3.25-3.4A3.22,3.22,0,0,1,70.65,44a2.85,2.85,0,0,1,2.48,1.44s0-.84,0-1.28h1v6.59Zm-4.74-3.28a2.26,2.26,0,0,0,2.3,2.5,2.35,2.35,0,0,0,2.4-2.5,2.27,2.27,0,0,0-2.4-2.54A2.34,2.34,0,0,0,68.35,47.43Z"/><path class="cls-4" d="M75.74,48.63l1.05,0c0,.9.69,1.43,1.93,1.43.8,0,1.73-.36,1.73-1.16,0-1.73-4.55-.24-4.55-3,0-1.2,1.28-1.93,2.65-1.93,1.86,0,2.75.84,2.86,2.19l-1.05.07c-.07-.89-.67-1.38-1.84-1.38-.84,0-1.62.42-1.62,1.11,0,1.63,4.58.27,4.58,2.92,0,1.36-1.4,2-2.81,2C76.77,50.83,75.81,50,75.74,48.63Z"/><path class="cls-4" d="M83.31,50.71V49.25h1.11v1.46Z"/><path class="cls-5" d="M18.19,21.7a2.33,2.33,0,0,1-2.34-2.33V14a2.33,2.33,0,1,1,4.67,0v1.11H19V14a.85.85,0,0,0-.85-.85.81.81,0,0,0-.6.25.82.82,0,0,0-.25.6v5.34a.84.84,0,0,0,.84.84.83.83,0,0,0,.6-.24.8.8,0,0,0,.25-.59V17.44h-.82V16h2.34v3.41a2.33,2.33,0,0,1-2.33,2.33Z"/><path class="cls-5" d="M24.92,19.33l-.36,2.24H23l1.66-9.76h2l1.63,9.76H26.8l-.34-2.24Zm.77-5.28-.54,3.85h1.09Z"/><path class="cls-5" d="M35.7,19.15a2.74,2.74,0,0,1-.53,1.74,1.91,1.91,0,0,1-1,.69,2.76,2.76,0,0,1-.82.11,2.31,2.31,0,0,1-1.43-.43,2.4,2.4,0,0,1-.75-1,3.87,3.87,0,0,1-.32-1.38l1.4-.1a2.13,2.13,0,0,0,.45,1.24.75.75,0,0,0,.61.27.91.91,0,0,0,.77-.48,1.18,1.18,0,0,0,.15-.65A1.8,1.8,0,0,0,33.66,18l-1.31-1.24a5.58,5.58,0,0,1-1-1.27A2.94,2.94,0,0,1,31,14.13a2.39,2.39,0,0,1,.9-2,2.23,2.23,0,0,1,1.37-.41A2.49,2.49,0,0,1,34.6,12a2,2,0,0,1,.71.76,2.81,2.81,0,0,1,.32,1.13l-1.41.26a1.7,1.7,0,0,0-.34-.93.72.72,0,0,0-.58-.24.67.67,0,0,0-.62.36,1.38,1.38,0,0,0-.17.72,2.15,2.15,0,0,0,.58,1.36,4.88,4.88,0,0,0,.65.62q.51.43.68.6a5,5,0,0,1,.84,1.07,4.21,4.21,0,0,1,.23.46A2.68,2.68,0,0,1,35.7,19.15Z"/><path class="cls-5" d="M40.1,19.33l-.36,2.24H38.21l1.66-9.76h2l1.63,9.76H42l-.34-2.24Zm.77-5.28-.54,3.85h1.09Z"/><path class="cls-5" d="M48.75,21.58V11.81h4.19v1.48H50.23V16h2v1.48h-2V20.1h2.72v1.48Z"/><path class="cls-5" d="M60.39,19.15a2.74,2.74,0,0,1-.53,1.74,1.91,1.91,0,0,1-1,.69,2.76,2.76,0,0,1-.82.11,2.31,2.31,0,0,1-1.43-.43,2.4,2.4,0,0,1-.75-1,3.87,3.87,0,0,1-.32-1.38l1.4-.1a2.13,2.13,0,0,0,.45,1.24.75.75,0,0,0,.61.27.91.91,0,0,0,.77-.48,1.18,1.18,0,0,0,.15-.65A1.8,1.8,0,0,0,58.35,18L57,16.77a5.58,5.58,0,0,1-1-1.27,2.94,2.94,0,0,1-.33-1.37,2.39,2.39,0,0,1,.9-2,2.23,2.23,0,0,1,1.37-.41,2.49,2.49,0,0,1,1.35.35,2,2,0,0,1,.71.76,2.81,2.81,0,0,1,.32,1.13l-1.41.26a1.7,1.7,0,0,0-.34-.93A.72.72,0,0,0,58,13a.67.67,0,0,0-.62.36,1.38,1.38,0,0,0-.17.72,2.15,2.15,0,0,0,.58,1.36,4.88,4.88,0,0,0,.65.62q.51.43.68.6a5,5,0,0,1,.84,1.07,4.21,4.21,0,0,1,.23.46A2.68,2.68,0,0,1,60.39,19.15Z"/><path class="cls-5" d="M64.54,13.3H63V11.82h4.6V13.3H66v8.28H64.54Z"/><path class="cls-5" d="M70.24,21.58V11.81h4.19v1.48H71.71V16h2v1.48h-2V20.1h2.72v1.48Z"/><path class="cls-5" d="M79.41,11.82a2.24,2.24,0,0,1,1.81.68,2.46,2.46,0,0,1,.51,1.65v1.42a2.28,2.28,0,0,1-.79,1.75L82,21.58H80.44l-.89-3.68h-1v3.68H77.09V11.82Zm.88,2.35a.75.75,0,0,0-.84-.85h-.89v3.12h.89a.8.8,0,0,0,.6-.25.82.82,0,0,0,.25-.6Z"/><path class="cls-5" d="M86.16,21.58H84.69V11.82h1.47Z"/><path class="cls-5" d="M92.86,21.58h-4V11.82h1.47v8.29h2.54Z"/><path class="cls-5" d="M97,21.58H95.52V11.82H97Z"/><path class="cls-5" d="M103.95,11.82V13.3l-2.71,6.81h2.71v1.46h-4.3V20.1l2.72-6.81H99.65V11.82Z"/><path class="cls-5" d="M108.5,19.33l-.36,2.24h-1.53l1.66-9.76h2l1.63,9.76h-1.55L110,19.33Zm.77-5.28-.54,3.85h1.09Z"/><path class="cls-5" d="M119.21,19.24a2.27,2.27,0,0,1-.68,1.65,2.22,2.22,0,0,1-1.64.69h-2.31V11.81h2.31a2.21,2.21,0,0,1,1.64.69,2.26,2.26,0,0,1,.67,1.64Zm-3.15.88h.89a.79.79,0,0,0,.59-.25.83.83,0,0,0,.24-.6V14.16a.82.82,0,0,0-.25-.6.8.8,0,0,0-.59-.25h-.89Z"/><path class="cls-5" d="M123.61,19.33l-.36,2.24h-1.53l1.66-9.76h2L127,21.58H125.5l-.34-2.24Zm.77-5.28-.54,3.85h1.09Z"/><path class="cls-5" d="M133.52,21.58V14.06h-1.25V13a2.17,2.17,0,0,0,1-.4,2,2,0,0,0,.69-.82h1v9.77Z"/><path class="cls-5" d="M142.33,19.35a2.33,2.33,0,0,1-4.67,0V14a2.33,2.33,0,1,1,4.67,0ZM140.81,14a.85.85,0,0,0-.85-.85.81.81,0,0,0-.6.25.83.83,0,0,0-.25.6v5.33a.82.82,0,0,0,.25.6.8.8,0,0,0,.6.25.85.85,0,0,0,.85-.85Z"/><path class="cls-5" d="M153,21.58h-1.58l-1.13-3.11-1.14,3.11h-1.58l1.92-4.91-1.92-4.85h1.63l1.09,3,1.08-3H153l-1.92,4.85Z"/><path class="cls-5" d="M159.47,21.58V14.06h-1.25V13a2.17,2.17,0,0,0,1-.4,2,2,0,0,0,.69-.82h1v9.77Z"/><path class="cls-5" d="M168.28,19.35a2.33,2.33,0,0,1-4.67,0V14a2.33,2.33,0,1,1,4.67,0ZM166.75,14a.85.85,0,0,0-.85-.85.81.81,0,0,0-.6.25.83.83,0,0,0-.25.6v5.33a.82.82,0,0,0,.25.6.8.8,0,0,0,.6.25.85.85,0,0,0,.85-.85Z"/><path class="cls-5" d="M175.84,21.7a2.33,2.33,0,0,1-2.34-2.33V14a2.33,2.33,0,1,1,4.67,0v1.11h-1.53V14a.85.85,0,0,0-.85-.85.81.81,0,0,0-.6.25.82.82,0,0,0-.25.6v5.34a.84.84,0,0,0,.84.84.82.82,0,0,0,.6-.25.8.8,0,0,0,.25-.6V18h1.53v1.36a2.33,2.33,0,0,1-2.33,2.33Z"/><path class="cls-5" d="M182.31,21.58h-1.47V11.81h2.11l1.37,7,1.32-7h2v9.77h-1.47V15.44l-1.28,6.14h-1.18l-1.42-6.12Z"/></g></g></g></svg>