<svg xmlns="http://www.w3.org/2000/svg" viewBox="0 0 228.64 66.59"><defs><style>.cls-1{isolation:isolate;}.cls-2{opacity:0.6;mix-blend-mode:overlay;}.cls-3{fill:#fff;}.cls-4{fill:#8f8f8f;}.cls-5{fill:#3764cb;}</style></defs><title>a_10</title><g class="cls-1"><g id="Capa_2" data-name="Capa 2"><g id="_4" data-name="4"><g class="cls-2"><rect y="14.97" width="224.84" height="51.63" rx="10.15" ry="10.15"/></g><rect class="cls-3" width="228.64" height="61.73" rx="10.39" ry="10.39"/><path class="cls-4" d="M22.39,35.8l.05-7.62L18.8,35.8h-.92l-3.63-7.62.07,7.62H13.23V26.65h1.49l3.65,7.66L22,26.65H23.5V35.8Z"/><path class="cls-4" d="M26.16,32.78A2.13,2.13,0,0,0,28.51,35a2.24,2.24,0,0,0,2.23-1.43l.95.24a3.12,3.12,0,0,1-3.2,2.09,3.13,3.13,0,0,1-3.35-3.4A3.26,3.26,0,0,1,28.54,29c2.27,0,3.29,1.53,3.29,3.71Zm0-.68h4.66A2.13,2.13,0,0,0,28.51,30,2.22,2.22,0,0,0,26.16,32.1Z"/><path class="cls-4" d="M38.87,35.8V34.45a2.83,2.83,0,0,1-2.57,1.49,3.14,3.14,0,0,1-3.21-3.44A3.17,3.17,0,0,1,36.34,29a2.91,2.91,0,0,1,2.57,1.44s0-1,0-1.54V26.65h1V35.8Zm-4.73-3.31A2.27,2.27,0,0,0,36.44,35a2.38,2.38,0,0,0,2.4-2.54,2.28,2.28,0,0,0-2.4-2.55A2.34,2.34,0,0,0,34.14,32.49Z"/><path class="cls-4" d="M41.9,27.13a.51.51,0,0,1,.54-.53.5.5,0,0,1,.53.53v.62a.5.5,0,0,1-.53.51.51.51,0,0,1-.54-.51Zm0,8.67V29.21h1V35.8Z"/><path class="cls-4" d="M48.37,30c-2,0-2.36,1.58-2.36,3.13V35.8H45V29.21h1c0,.58,0,1.12-.05,1.66a2.57,2.57,0,0,1,2.43-1.81Z"/><path class="cls-4" d="M53.89,30.08v4.39c0,.31.19.57.74.57a1.88,1.88,0,0,0,.77-.16v.77a2.55,2.55,0,0,1-1.27.3,1.15,1.15,0,0,1-1.28-1.11V30.08H51.58v-.86h1.27v-1.7h1v1.7H55.4v.86Z"/><path class="cls-4" d="M57.3,32.78A2.13,2.13,0,0,0,59.65,35a2.24,2.24,0,0,0,2.23-1.43l.95.24a3.41,3.41,0,0,1-6.55-1.31A3.26,3.26,0,0,1,59.67,29C61.94,29,63,30.58,63,32.76Zm0-.68H62A2.13,2.13,0,0,0,59.65,30,2.22,2.22,0,0,0,57.3,32.1Z"/><path class="cls-4" d="M73.47,35.8V31.59A1.42,1.42,0,0,0,71.89,30a1.76,1.76,0,0,0-1.82,1.76V35.8H69V31.59A1.45,1.45,0,0,0,67.39,30a1.43,1.43,0,0,0-.65.16c-.95.3-1.12,1.27-1.12,2.16V35.8h-1V29.21h1c0,.39,0,.8,0,1.19h0a2,2,0,0,1,2.12-1.31,2.08,2.08,0,0,1,2.13,1.35A2.32,2.32,0,0,1,72.15,29a2.08,2.08,0,0,1,2.36,2.28V35.8Z"/><path class="cls-4" d="M77.49,34.49c0,.51,0,1,0,1.54v2.08h-1v-8.9h1v.61c0,.24,0,.73,0,.73A2.93,2.93,0,0,1,80,29a3.13,3.13,0,0,1,3.23,3.46A3.14,3.14,0,0,1,80,36,2.69,2.69,0,0,1,77.49,34.49Zm.05-2a2.26,2.26,0,0,0,2.38,2.58,2.31,2.31,0,0,0,2.3-2.54A2.31,2.31,0,0,0,79.93,30,2.34,2.34,0,0,0,77.54,32.48Z"/><path class="cls-4" d="M85.55,32.78A2.13,2.13,0,0,0,87.9,35a2.24,2.24,0,0,0,2.23-1.43l.95.24a3.41,3.41,0,0,1-6.55-1.31A3.26,3.26,0,0,1,87.93,29c2.27,0,3.29,1.53,3.29,3.71Zm0-.68h4.66A2.13,2.13,0,0,0,87.9,30,2.22,2.22,0,0,0,85.55,32.1Z"/><path class="cls-4" d="M96.24,30c-2,0-2.36,1.58-2.36,3.13V35.8h-1V29.21h1c0,.58,0,1.12-.05,1.66a2.57,2.57,0,0,1,2.43-1.81Z"/><path class="cls-4" d="M102.64,35.8V34.44a2.65,2.65,0,0,1-2.52,1.49,3.16,3.16,0,0,1-3.25-3.4A3.22,3.22,0,0,1,100.2,29a2.85,2.85,0,0,1,2.48,1.44s0-.84,0-1.28h1V35.8ZM97.9,32.52a2.26,2.26,0,0,0,2.3,2.5,2.35,2.35,0,0,0,2.4-2.5A2.27,2.27,0,0,0,100.2,30,2.34,2.34,0,0,0,97.9,32.52Z"/><path class="cls-4" d="M107.22,30.08v4.39c0,.31.19.57.74.57a1.88,1.88,0,0,0,.77-.16v.77a2.55,2.55,0,0,1-1.27.3,1.15,1.15,0,0,1-1.28-1.11V30.08h-1.27v-.86h1.27v-1.7h1v1.7h1.51v.86Z"/><path class="cls-4" d="M115.18,35.8l0-1.24h0a2.43,2.43,0,0,1-2.36,1.38,2.35,2.35,0,0,1-2.63-2.5V29.21h1v4.1A1.6,1.6,0,0,0,113,35a2,2,0,0,0,2.12-2.16V29.21h1V35.8Z"/><path class="cls-4" d="M121.55,30c-2,0-2.36,1.58-2.36,3.13V35.8h-1V29.21h1c0,.58,0,1.12-.05,1.66a2.57,2.57,0,0,1,2.43-1.81Z"/><path class="cls-4" d="M127.95,35.8V34.44a2.65,2.65,0,0,1-2.52,1.49,3.16,3.16,0,0,1-3.25-3.4A3.22,3.22,0,0,1,125.5,29,2.85,2.85,0,0,1,128,30.49s0-.84,0-1.28h1V35.8Zm-4.74-3.28A2.26,2.26,0,0,0,125.5,35a2.35,2.35,0,0,0,2.4-2.5A2.27,2.27,0,0,0,125.5,30,2.34,2.34,0,0,0,123.21,32.52Z"/><path class="cls-4" d="M133.22,32.57A3.27,3.27,0,0,1,136.7,29a2.85,2.85,0,0,1,3,2.16l-.95.28A1.93,1.93,0,0,0,136.65,30a2.34,2.34,0,0,0-2.42,2.59A2.22,2.22,0,0,0,136.57,35a2.46,2.46,0,0,0,2.28-1.54l.92.2a3,3,0,0,1-3.19,2.24A3.15,3.15,0,0,1,133.22,32.57Z"/><path class="cls-4" d="M140.93,32.51a3.42,3.42,0,1,1,6.85,0,3.42,3.42,0,1,1-6.85,0Zm1,0A2.32,2.32,0,0,0,144.35,35a2.36,2.36,0,0,0,2.43-2.53,2.43,2.43,0,1,0-4.85,0Z"/><path class="cls-4" d="M152.83,30c-2,0-2.36,1.58-2.36,3.13V35.8h-1V29.21h1c0,.58,0,1.12-.05,1.66a2.57,2.57,0,0,1,2.43-1.81Z"/><path class="cls-4" d="M155,34.49c0,.51,0,1,0,1.54v2.08h-1v-8.9h1v.61c0,.24,0,.73,0,.73a2.93,2.93,0,0,1,2.57-1.5,3.13,3.13,0,0,1,3.23,3.46A3.14,3.14,0,0,1,157.53,36,2.69,2.69,0,0,1,155,34.49Zm.05-2a2.26,2.26,0,0,0,2.38,2.58,2.31,2.31,0,0,0,2.3-2.54A2.31,2.31,0,0,0,157.47,30,2.34,2.34,0,0,0,155.08,32.48Z"/><path class="cls-4" d="M162.06,32.51a3.42,3.42,0,1,1,6.85,0,3.42,3.42,0,1,1-6.85,0Zm1,0A2.32,2.32,0,0,0,165.48,35a2.36,2.36,0,0,0,2.43-2.53,2.43,2.43,0,1,0-4.85,0Z"/><path class="cls-4" d="M174,30c-2,0-2.36,1.58-2.36,3.13V35.8h-1V29.21h1c0,.58,0,1.12-.05,1.66A2.57,2.57,0,0,1,174,29.06Z"/><path class="cls-4" d="M180.36,35.8V34.44a2.65,2.65,0,0,1-2.52,1.49,3.16,3.16,0,0,1-3.25-3.4A3.22,3.22,0,0,1,177.92,29a2.85,2.85,0,0,1,2.49,1.44s0-.84,0-1.28h1V35.8Zm-4.74-3.28a2.26,2.26,0,0,0,2.29,2.5,2.35,2.35,0,0,0,2.4-2.5,2.27,2.27,0,0,0-2.4-2.54A2.34,2.34,0,0,0,175.63,32.52Z"/><path class="cls-4" d="M183.3,35.8V26.65h1V35.8Z"/><path class="cls-4" d="M194.54,35.8V34.45A2.83,2.83,0,0,1,192,35.94a3.14,3.14,0,0,1-3.21-3.44A3.17,3.17,0,0,1,192,29a2.91,2.91,0,0,1,2.57,1.44s0-1,0-1.54V26.65h1V35.8Zm-4.73-3.31A2.27,2.27,0,0,0,192.11,35a2.38,2.38,0,0,0,2.4-2.54,2.28,2.28,0,0,0-2.4-2.55A2.34,2.34,0,0,0,189.81,32.49Z"/><path class="cls-4" d="M198.22,32.78A2.13,2.13,0,0,0,200.57,35a2.24,2.24,0,0,0,2.23-1.43l.95.24a3.41,3.41,0,0,1-6.55-1.31,3.26,3.26,0,0,1,3.4-3.47c2.27,0,3.29,1.53,3.29,3.71Zm0-.68h4.66A2.13,2.13,0,0,0,200.57,30,2.22,2.22,0,0,0,198.22,32.1Z"/><path class="cls-4" d="M13.38,51V41.83h1V51Z"/><path class="cls-4" d="M21.82,51V49.62a2.65,2.65,0,0,1-2.52,1.49A3.16,3.16,0,0,1,16,47.7a3.22,3.22,0,0,1,3.34-3.47,2.85,2.85,0,0,1,2.48,1.44s0-.84,0-1.28h1V51ZM17.08,47.7a2.26,2.26,0,0,0,2.3,2.5,2.35,2.35,0,0,0,2.4-2.5,2.27,2.27,0,0,0-2.4-2.54A2.34,2.34,0,0,0,17.08,47.7Z"/><path class="cls-4" d="M24.43,48.91l1.05,0c0,.9.69,1.43,1.93,1.43.8,0,1.73-.36,1.73-1.16,0-1.73-4.55-.24-4.55-3,0-1.2,1.28-1.93,2.65-1.93,1.86,0,2.75.84,2.86,2.19L29,46.49c-.07-.89-.67-1.38-1.84-1.38-.84,0-1.62.42-1.62,1.11,0,1.63,4.58.27,4.58,2.92,0,1.36-1.4,2-2.81,2C25.45,51.11,24.49,50.31,24.43,48.91Z"/><path class="cls-4" d="M35.78,49.68c0,.51,0,1,0,1.54v2.08h-1V44.4h1V45c0,.24,0,.73,0,.73a2.93,2.93,0,0,1,2.57-1.5,3.13,3.13,0,0,1,3.23,3.46,3.14,3.14,0,0,1-3.27,3.46A2.69,2.69,0,0,1,35.78,49.68Zm.05-2a2.26,2.26,0,0,0,2.38,2.58,2.55,2.55,0,0,0,0-5.08A2.34,2.34,0,0,0,35.83,47.66Z"/><path class="cls-4" d="M43.84,48a2.13,2.13,0,0,0,2.35,2.24,2.24,2.24,0,0,0,2.23-1.43l.95.24a3.12,3.12,0,0,1-3.2,2.09,3.13,3.13,0,0,1-3.35-3.4,3.26,3.26,0,0,1,3.4-3.47c2.27,0,3.29,1.53,3.29,3.71Zm0-.68H48.5a2.13,2.13,0,0,0-2.31-2.12A2.22,2.22,0,0,0,43.84,47.29Z"/><path class="cls-4" d="M54.53,45.23c-2,0-2.36,1.58-2.36,3.13V51h-1V44.4h1c0,.58,0,1.12-.05,1.66a2.57,2.57,0,0,1,2.43-1.81Z"/><path class="cls-4" d="M55.4,48.91l1.05,0c0,.9.69,1.43,1.93,1.43.8,0,1.73-.36,1.73-1.16,0-1.73-4.55-.24-4.55-3,0-1.2,1.28-1.93,2.65-1.93,1.86,0,2.75.84,2.86,2.19L60,46.49c-.07-.89-.67-1.38-1.84-1.38-.84,0-1.62.42-1.62,1.11,0,1.63,4.58.27,4.58,2.92,0,1.36-1.4,2-2.81,2C56.43,51.11,55.47,50.31,55.4,48.91Z"/><path class="cls-4" d="M62.44,47.69a3.42,3.42,0,1,1,3.4,3.43A3.25,3.25,0,0,1,62.44,47.69Zm1,0a2.32,2.32,0,0,0,2.42,2.53,2.36,2.36,0,0,0,2.43-2.53,2.43,2.43,0,1,0-4.85,0Z"/><path class="cls-4" d="M75.93,51V46.77c0-1-.68-1.63-1.85-1.63A2,2,0,0,0,72,47.19V51h-1V44.4h1c0,.39,0,.78,0,1.17h0a2.51,2.51,0,0,1,2.39-1.35A2.33,2.33,0,0,1,77,46.52V51Z"/><path class="cls-4" d="M84.3,51V49.62a2.65,2.65,0,0,1-2.52,1.49,3.16,3.16,0,0,1-3.25-3.4,3.22,3.22,0,0,1,3.34-3.47,2.85,2.85,0,0,1,2.48,1.44s0-.84,0-1.28h1V51ZM79.56,47.7a2.26,2.26,0,0,0,2.3,2.5,2.35,2.35,0,0,0,2.4-2.5,2.27,2.27,0,0,0-2.4-2.54A2.34,2.34,0,0,0,79.56,47.7Z"/><path class="cls-4" d="M86.91,48.91l1.05,0c0,.9.69,1.43,1.93,1.43.8,0,1.73-.36,1.73-1.16,0-1.73-4.55-.24-4.55-3,0-1.2,1.28-1.93,2.65-1.93,1.86,0,2.75.84,2.86,2.19l-1.05.07c-.07-.89-.67-1.38-1.84-1.38-.84,0-1.62.42-1.62,1.11,0,1.63,4.58.27,4.58,2.92,0,1.36-1.4,2-2.81,2C87.94,51.11,87,50.31,86.91,48.91Z"/><path class="cls-5" d="M14.47,12.3H12.9V10.83h4.6V12.3H15.94v8.28H14.47Z"/><path class="cls-5" d="M20.16,20.58V10.82h4.19V12.3H21.63V15h2v1.48h-2V19.1h2.72v1.48Z"/><path class="cls-5" d="M29.34,10.83a2.24,2.24,0,0,1,1.81.68,2.46,2.46,0,0,1,.51,1.65v1.42a2.28,2.28,0,0,1-.79,1.75L32,20.58H30.36l-.89-3.68h-1v3.68H27V10.83Zm.88,2.35a.75.75,0,0,0-.84-.85h-.89v3.12h.89a.8.8,0,0,0,.6-.25.82.82,0,0,0,.25-.6Z"/><path class="cls-5" d="M36.09,20.58H34.62V10.82h2.11l1.37,7,1.32-7h2v9.77H40V14.45L38.7,20.58H37.52l-1.42-6.12Z"/><path class="cls-5" d="M46.45,10.7A2.33,2.33,0,0,1,48.79,13v5.33a2.33,2.33,0,1,1-4.67,0V13a2.33,2.33,0,0,1,2.33-2.34Zm.8,2.31a.84.84,0,0,0-.84-.84.82.82,0,0,0-.6.25.81.81,0,0,0-.25.6v5.34a.8.8,0,0,0,.25.6.82.82,0,0,0,.6.25.84.84,0,0,0,.84-.84Z"/><path class="cls-5" d="M52.94,20.58H51.47V10.82h2.11l1.37,7,1.32-7h2v9.77H56.82V14.45l-1.28,6.14H54.36l-1.42-6.12Z"/><path class="cls-5" d="M61,20.58V10.82h4.19V12.3H62.45V15h2v1.48h-2V19.1h2.72v1.48Z"/><path class="cls-5" d="M69.4,12.3H67.84V10.83h4.6V12.3H70.87v8.28H69.4Z"/><path class="cls-5" d="M77.42,10.83a2.24,2.24,0,0,1,1.81.68,2.46,2.46,0,0,1,.51,1.65v1.42a2.28,2.28,0,0,1-.79,1.75L80,20.58H78.44l-.89-3.68h-1v3.68H75.09V10.83Zm.88,2.35a.75.75,0,0,0-.84-.85h-.89v3.12h.89a.8.8,0,0,0,.6-.25.82.82,0,0,0,.25-.6Z"/><path class="cls-5" d="M84.87,10.7A2.33,2.33,0,0,1,87.21,13v5.33a2.33,2.33,0,1,1-4.67,0V13a2.33,2.33,0,0,1,2.33-2.34Zm.8,2.31a.84.84,0,0,0-.84-.84.82.82,0,0,0-.6.25A.81.81,0,0,0,84,13v5.34a.8.8,0,0,0,.25.6.82.82,0,0,0,.6.25.84.84,0,0,0,.84-.84Z"/><path class="cls-5" d="M92.44,20.58V10.82h2.2a2.81,2.81,0,0,1,1.57.46,2.14,2.14,0,0,1,.86,1.21,3.43,3.43,0,0,1,.14,1,2.29,2.29,0,0,1-.52,1.57,1.48,1.48,0,0,1-.51.38,1.71,1.71,0,0,1,.83.74,2.89,2.89,0,0,1,.33,1,3.87,3.87,0,0,1,.05.68A3.26,3.26,0,0,1,97,19.43a2.1,2.1,0,0,1-.77.81,2.12,2.12,0,0,1-1.11.34ZM94,14.81h.62a.9.9,0,0,0,.92-.67,1.89,1.89,0,0,0,.09-.62,1.29,1.29,0,0,0-.3-.92.93.93,0,0,0-.71-.29H94Zm0,4.32h.62a1,1,0,0,0,1-.77,1.69,1.69,0,0,0,.1-.61,1.85,1.85,0,0,0-.31-1.19,1,1,0,0,0-.83-.34H94Z"/><path class="cls-5" d="M102.39,20.69a2.31,2.31,0,0,1-2.33-2.32V10.83h1.44v7.53a.8.8,0,0,0,.25.6.82.82,0,0,0,.6.25.84.84,0,0,0,.84-.84V10.83h1.54v7.55A2.22,2.22,0,0,1,104,20,2.28,2.28,0,0,1,102.39,20.69Z"/><path class="cls-5" d="M109.72,20.71a2.33,2.33,0,0,1-2.34-2.33V13.05a2.33,2.33,0,1,1,4.67,0v1.11h-1.53V13a.85.85,0,0,0-.85-.85.81.81,0,0,0-.6.25.82.82,0,0,0-.25.6v5.34a.84.84,0,0,0,.84.84.82.82,0,0,0,.6-.25.8.8,0,0,0,.25-.6V17h1.53v1.36a2.33,2.33,0,0,1-2.33,2.33Z"/><path class="cls-5" d="M116.46,18.34l-.36,2.24h-1.53l1.66-9.76h2l1.63,9.76h-1.55L118,18.34Zm.77-5.28-.54,3.85h1.09Z"/><path class="cls-5" d="M126.56,20.58h-4V10.83H124v8.29h2.54Z"/></g></g></g></svg>