<svg xmlns="http://www.w3.org/2000/svg" viewBox="0 0 228.64 80.59"><defs><style>.cls-1{isolation:isolate;}.cls-2{opacity:0.6;mix-blend-mode:overlay;}.cls-3{fill:#fff;}.cls-4{fill:#8f8f8f;}.cls-5{fill:#3764cb;}</style></defs><title>a_15</title><g class="cls-1"><g id="Capa_2" data-name="Capa 2"><g id="_4" data-name="4"><g class="cls-2"><rect y="14.97" width="224.84" height="65.63" rx="10.15" ry="10.15"/></g><rect class="cls-3" width="228.64" height="75.73" rx="10.39" ry="10.39"/><path class="cls-4" d="M12,39.25V30.1h6.87V31H13.07v3.05h5.13V35H13.07v3.35H19v.93Z"/><path class="cls-4" d="M25.53,39.25V35c0-1-.68-1.63-1.85-1.63a2,2,0,0,0-2.11,2.05v3.79h-1V32.66h1c0,.39,0,.78,0,1.17h0A2.51,2.51,0,0,1,24,32.5a2.33,2.33,0,0,1,2.62,2.28v4.47Z"/><path class="cls-4" d="M36.34,39.25v-4.2a1.65,1.65,0,0,0-1.85-1.65c-1.55,0-2.11,1-2.11,2.4v3.44h-1V30.1h1v2.67c0,.55,0,.58,0,1.05h0a2.55,2.55,0,0,1,2.39-1.34,2.36,2.36,0,0,1,2.62,2.31v4.44Z"/><path class="cls-4" d="M40.13,36.23a2.13,2.13,0,0,0,2.35,2.24A2.24,2.24,0,0,0,44.71,37l.95.24a3.12,3.12,0,0,1-3.2,2.09A3.13,3.13,0,0,1,39.1,36a3.26,3.26,0,0,1,3.4-3.47c2.27,0,3.29,1.53,3.29,3.71Zm0-.68h4.66a2.13,2.13,0,0,0-2.31-2.12A2.22,2.22,0,0,0,40.13,35.55Z"/><path class="cls-4" d="M51,33.5c-2,0-2.36,1.58-2.36,3.13v2.62h-1V32.66h1c0,.58,0,1.12-.05,1.66A2.57,2.57,0,0,1,51,32.51Z"/><path class="cls-4" d="M52.34,30.58a.51.51,0,0,1,.54-.53.5.5,0,0,1,.53.53v.62a.5.5,0,0,1-.53.51.51.51,0,0,1-.54-.51Zm0,8.67V32.66h1v6.59Z"/><path class="cls-4" d="M61,39.25V37.9a2.83,2.83,0,0,1-2.57,1.49,3.14,3.14,0,0,1-3.21-3.44,3.17,3.17,0,0,1,3.25-3.47A2.91,2.91,0,0,1,61,33.92s0-1,0-1.54V30.1h1v9.16Zm-4.73-3.31a2.27,2.27,0,0,0,2.29,2.54,2.38,2.38,0,0,0,2.4-2.54,2.28,2.28,0,0,0-2.4-2.55A2.34,2.34,0,0,0,56.24,35.94Z"/><path class="cls-4" d="M69.58,39.25V37.89a2.65,2.65,0,0,1-2.52,1.49A3.16,3.16,0,0,1,63.8,36a3.22,3.22,0,0,1,3.33-3.47,2.85,2.85,0,0,1,2.49,1.44s0-.84,0-1.28h1v6.59ZM64.84,36a2.26,2.26,0,0,0,2.29,2.5,2.35,2.35,0,0,0,2.4-2.5,2.27,2.27,0,0,0-2.4-2.54A2.34,2.34,0,0,0,64.84,36Z"/><path class="cls-4" d="M72.36,37.17l1.05,0c0,.9.69,1.43,1.93,1.43.8,0,1.73-.36,1.73-1.16,0-1.73-4.55-.24-4.55-3,0-1.2,1.28-1.93,2.65-1.93,1.86,0,2.75.84,2.86,2.19L77,34.75c-.07-.89-.67-1.38-1.84-1.38-.84,0-1.62.42-1.62,1.11,0,1.63,4.58.27,4.58,2.92,0,1.36-1.4,2-2.81,2C73.39,39.37,72.43,38.58,72.36,37.17Z"/><path class="cls-4" d="M88,39.25V37.9a2.83,2.83,0,0,1-2.57,1.49,3.14,3.14,0,0,1-3.21-3.44,3.17,3.17,0,0,1,3.25-3.47A2.91,2.91,0,0,1,88,33.92s0-1,0-1.54V30.1h1v9.16Zm-4.73-3.31a2.27,2.27,0,0,0,2.29,2.54A2.38,2.38,0,0,0,88,35.94a2.28,2.28,0,0,0-2.4-2.55A2.34,2.34,0,0,0,83.28,35.94Z"/><path class="cls-4" d="M91.86,36.23a2.13,2.13,0,0,0,2.35,2.24A2.24,2.24,0,0,0,96.43,37l.95.24A3.41,3.41,0,0,1,90.83,36a3.26,3.26,0,0,1,3.4-3.47c2.27,0,3.29,1.53,3.29,3.71Zm0-.68h4.66a2.13,2.13,0,0,0-2.31-2.12A2.22,2.22,0,0,0,91.86,35.55Z"/><path class="cls-4" d="M110.86,39.25V35a1.42,1.42,0,0,0-1.58-1.63,1.76,1.76,0,0,0-1.82,1.76v4.09h-1V35a1.45,1.45,0,0,0-1.63-1.63,1.43,1.43,0,0,0-.65.16c-.95.3-1.12,1.27-1.12,2.16v3.52h-1V32.66h1c0,.39,0,.8,0,1.19h0a2,2,0,0,1,2.12-1.31,2.08,2.08,0,0,1,2.13,1.35,2.32,2.32,0,0,1,2.28-1.39,2.08,2.08,0,0,1,2.36,2.28v4.47Z"/><path class="cls-4" d="M119.42,39.25V37.89a2.65,2.65,0,0,1-2.52,1.49,3.16,3.16,0,0,1-3.25-3.4A3.22,3.22,0,0,1,117,32.5a2.85,2.85,0,0,1,2.48,1.44s0-.84,0-1.28h1v6.59ZM114.68,36a2.26,2.26,0,0,0,2.3,2.5,2.35,2.35,0,0,0,2.4-2.5,2.27,2.27,0,0,0-2.4-2.54A2.34,2.34,0,0,0,114.68,36Z"/><path class="cls-4" d="M127.54,39.25V35c0-1-.68-1.63-1.85-1.63a2,2,0,0,0-2.11,2.05v3.79h-1V32.66h1c0,.39,0,.78,0,1.17h0A2.51,2.51,0,0,1,126,32.5a2.33,2.33,0,0,1,2.62,2.28v4.47Z"/><path class="cls-4" d="M130.31,36a3.42,3.42,0,1,1,6.85,0,3.42,3.42,0,1,1-6.85,0Zm1,0a2.32,2.32,0,0,0,2.42,2.53A2.36,2.36,0,0,0,136.15,36a2.43,2.43,0,1,0-4.85,0Z"/><path class="cls-4" d="M138.58,37.17l1.05,0c0,.9.69,1.43,1.93,1.43.8,0,1.73-.36,1.73-1.16,0-1.73-4.55-.24-4.55-3,0-1.2,1.28-1.93,2.65-1.93,1.86,0,2.75.84,2.86,2.19l-1.05.07c-.07-.89-.67-1.38-1.84-1.38-.84,0-1.62.42-1.62,1.11,0,1.63,4.58.27,4.58,2.92,0,1.36-1.4,2-2.81,2C139.61,39.37,138.65,38.58,138.58,37.17Z"/><path class="cls-4" d="M146.64,41.24l-1-.35c.22-.51.42-1,.62-1.55a2.77,2.77,0,0,0,.12-1.09v-.45h1.12v.54a3,3,0,0,1-.17,1.22Z"/><path class="cls-4" d="M153.47,37.94c0,.51,0,1,0,1.54v2.08h-1v-8.9h1v.61c0,.24,0,.73,0,.73A2.93,2.93,0,0,1,156,32.5,3.13,3.13,0,0,1,159.25,36,3.14,3.14,0,0,1,156,39.41,2.69,2.69,0,0,1,153.47,37.94Zm.05-2a2.26,2.26,0,0,0,2.38,2.58A2.31,2.31,0,0,0,158.2,36a2.31,2.31,0,0,0-2.28-2.54A2.34,2.34,0,0,0,153.53,35.93Z"/><path class="cls-4" d="M166.46,39.25V37.89a2.65,2.65,0,0,1-2.52,1.49,3.16,3.16,0,0,1-3.25-3.4A3.22,3.22,0,0,1,164,32.5a2.85,2.85,0,0,1,2.48,1.44s0-.84,0-1.28h1v6.59ZM161.72,36a2.26,2.26,0,0,0,2.3,2.5,2.35,2.35,0,0,0,2.4-2.5,2.27,2.27,0,0,0-2.4-2.54A2.34,2.34,0,0,0,161.72,36Z"/><path class="cls-4" d="M173,33.5c-2,0-2.36,1.58-2.36,3.13v2.62h-1V32.66h1c0,.58,0,1.12-.05,1.66A2.57,2.57,0,0,1,173,32.51Z"/><path class="cls-4" d="M179.56,39.25V37.89A2.65,2.65,0,0,1,177,39.37a3.16,3.16,0,0,1-3.25-3.4,3.22,3.22,0,0,1,3.33-3.47,2.85,2.85,0,0,1,2.49,1.44s0-.84,0-1.28h1v6.59ZM174.82,36a2.26,2.26,0,0,0,2.29,2.5,2.35,2.35,0,0,0,2.4-2.5,2.27,2.27,0,0,0-2.4-2.54A2.34,2.34,0,0,0,174.82,36Z"/><path class="cls-4" d="M11.76,47.83a3.27,3.27,0,0,1,3.48-3.52,2.85,2.85,0,0,1,3,2.16l-.95.28a1.93,1.93,0,0,0-2.11-1.51,2.34,2.34,0,0,0-2.42,2.59,2.22,2.22,0,0,0,2.34,2.44,2.46,2.46,0,0,0,2.28-1.54l.92.2a3,3,0,0,1-3.19,2.24A3.15,3.15,0,0,1,11.76,47.83Z"/><path class="cls-4" d="M25,51.06l0-1.24h0a2.43,2.43,0,0,1-2.36,1.38,2.35,2.35,0,0,1-2.63-2.5V44.47h1v4.1a1.6,1.6,0,0,0,1.82,1.69,2,2,0,0,0,2.12-2.16V44.47h1v6.59Z"/><path class="cls-4" d="M29.14,49.71c0,.24,0,.46,0,.69s0,.45,0,.66h-1V41.91h1v2.94c0,.3,0,.88,0,.88a2.92,2.92,0,0,1,2.58-1.42c2.07,0,3.21,1.44,3.21,3.46a3.13,3.13,0,0,1-3.27,3.42A2.81,2.81,0,0,1,29.14,49.71Zm0-1.93a2.32,2.32,0,0,0,2.39,2.5,2.29,2.29,0,0,0,2.28-2.53,2.34,2.34,0,1,0-4.67,0Z"/><path class="cls-4" d="M40.12,45.31c-2,0-2.36,1.58-2.36,3.13v2.62h-1V44.47h1c0,.58,0,1.12-.05,1.66a2.57,2.57,0,0,1,2.43-1.81Z"/><path class="cls-4" d="M41.46,42.39a.51.51,0,0,1,.54-.53.5.5,0,0,1,.53.53V43a.5.5,0,0,1-.53.51.51.51,0,0,1-.54-.51Zm0,8.67V44.47h1v6.59Z"/><path class="cls-4" d="M48.11,45.31c-2,0-2.36,1.58-2.36,3.13v2.62h-1V44.47h1c0,.58,0,1.12-.05,1.66a2.57,2.57,0,0,1,2.43-1.81Z"/><path class="cls-4" d="M52,51.06V41.91h1v9.16Z"/><path class="cls-4" d="M60.56,51.06V49.7A2.65,2.65,0,0,1,58,51.18a3.16,3.16,0,0,1-3.25-3.4,3.22,3.22,0,0,1,3.33-3.47,2.85,2.85,0,0,1,2.49,1.44s0-.84,0-1.28h1v6.59Zm-4.74-3.28a2.26,2.26,0,0,0,2.29,2.5,2.35,2.35,0,0,0,2.4-2.5,2.27,2.27,0,0,0-2.4-2.54A2.34,2.34,0,0,0,55.82,47.78Z"/><path class="cls-4" d="M63.35,49l1.05,0c0,.9.69,1.43,1.93,1.43.8,0,1.73-.36,1.73-1.16,0-1.73-4.55-.24-4.55-3,0-1.2,1.28-1.93,2.65-1.93,1.86,0,2.75.84,2.86,2.19L68,46.56c-.07-.89-.67-1.38-1.84-1.38-.84,0-1.62.42-1.62,1.11,0,1.63,4.58.27,4.58,2.92,0,1.36-1.4,2-2.81,2C64.38,51.18,63.42,50.39,63.35,49Z"/><path class="cls-4" d="M76.7,51.06h-1l-3.11-6.59h1.23l2.39,5.47,2.19-5.47h1.12Z"/><path class="cls-4" d="M81.25,48a2.13,2.13,0,0,0,2.35,2.24,2.24,2.24,0,0,0,2.23-1.43l.95.24a3.41,3.41,0,0,1-6.55-1.31,3.26,3.26,0,0,1,3.4-3.47c2.27,0,3.29,1.53,3.29,3.71Zm0-.68h4.66a2.13,2.13,0,0,0-2.31-2.12A2.22,2.22,0,0,0,81.25,47.36Z"/><path class="cls-4" d="M93.71,51.06V46.85c0-1-.68-1.63-1.85-1.63a2,2,0,0,0-2.11,2.05v3.79h-1V44.47h1c0,.39,0,.78,0,1.17h0a2.51,2.51,0,0,1,2.39-1.35,2.33,2.33,0,0,1,2.62,2.28v4.47Z"/><path class="cls-4" d="M102.25,51.06V49.71a2.83,2.83,0,0,1-2.57,1.49,3.14,3.14,0,0,1-3.21-3.44,3.17,3.17,0,0,1,3.25-3.47,2.91,2.91,0,0,1,2.57,1.44s0-1,0-1.54V41.91h1v9.16Zm-4.73-3.31a2.27,2.27,0,0,0,2.29,2.54,2.38,2.38,0,0,0,2.4-2.54,2.28,2.28,0,0,0-2.4-2.55A2.34,2.34,0,0,0,97.52,47.75Z"/><path class="cls-4" d="M105.46,42.39a.51.51,0,0,1,.54-.53.5.5,0,0,1,.53.53V43a.5.5,0,0,1-.53.51.51.51,0,0,1-.54-.51Zm0,8.67V44.47h1v6.59Z"/><path class="cls-4" d="M110.35,45.34v4.39c0,.31.19.57.74.57a1.88,1.88,0,0,0,.77-.16v.77a2.55,2.55,0,0,1-1.27.3,1.15,1.15,0,0,1-1.28-1.11V45.34H108v-.86h1.27v-1.7h1v1.7h1.51v.86Z"/><path class="cls-4" d="M118.67,51.06V49.7a2.65,2.65,0,0,1-2.52,1.49,3.16,3.16,0,0,1-3.25-3.4,3.22,3.22,0,0,1,3.34-3.47,2.85,2.85,0,0,1,2.48,1.44s0-.84,0-1.28h1v6.59Zm-4.74-3.28a2.26,2.26,0,0,0,2.3,2.5,2.35,2.35,0,0,0,2.4-2.5,2.27,2.27,0,0,0-2.4-2.54A2.34,2.34,0,0,0,113.93,47.78Z"/><path class="cls-4" d="M121.46,49l1.05,0c0,.9.69,1.43,1.93,1.43.8,0,1.73-.36,1.73-1.16,0-1.73-4.55-.24-4.55-3,0-1.2,1.28-1.93,2.65-1.93,1.86,0,2.75.84,2.86,2.19l-1.05.07c-.07-.89-.67-1.38-1.84-1.38-.84,0-1.62.42-1.62,1.11,0,1.63,4.58.27,4.58,2.92,0,1.36-1.4,2-2.81,2C122.48,51.18,121.52,50.39,121.46,49Z"/><path class="cls-4" d="M131.34,47.83a3.27,3.27,0,0,1,3.48-3.52,2.85,2.85,0,0,1,3,2.16l-.95.28a1.93,1.93,0,0,0-2.11-1.51,2.34,2.34,0,0,0-2.42,2.59,2.22,2.22,0,0,0,2.34,2.44A2.46,2.46,0,0,0,137,48.74l.92.2a3,3,0,0,1-3.19,2.24A3.15,3.15,0,0,1,131.34,47.83Z"/><path class="cls-4" d="M144.56,51.06l0-1.24h0a2.43,2.43,0,0,1-2.36,1.38,2.35,2.35,0,0,1-2.63-2.5V44.47h1v4.1a1.6,1.6,0,0,0,1.82,1.69,2,2,0,0,0,2.12-2.16V44.47h1v6.59Z"/><path class="cls-4" d="M153.07,51.06V49.7a2.65,2.65,0,0,1-2.52,1.49,3.16,3.16,0,0,1-3.25-3.4,3.22,3.22,0,0,1,3.34-3.47,2.85,2.85,0,0,1,2.48,1.44s0-.84,0-1.28h1v6.59Zm-4.74-3.28a2.26,2.26,0,0,0,2.3,2.5,2.35,2.35,0,0,0,2.4-2.5,2.27,2.27,0,0,0-2.4-2.54A2.34,2.34,0,0,0,148.33,47.78Z"/><path class="cls-4" d="M161.19,51.06V46.85c0-1-.68-1.63-1.85-1.63a2,2,0,0,0-2.11,2.05v3.79h-1V44.47h1c0,.39,0,.78,0,1.17h0a2.51,2.51,0,0,1,2.39-1.35,2.33,2.33,0,0,1,2.62,2.28v4.47Z"/><path class="cls-4" d="M169.73,51.06V49.71a2.83,2.83,0,0,1-2.57,1.49A3.14,3.14,0,0,1,164,47.75a3.17,3.17,0,0,1,3.25-3.47,2.91,2.91,0,0,1,2.57,1.44s0-1,0-1.54V41.91h1v9.16ZM165,47.75a2.27,2.27,0,0,0,2.29,2.54,2.38,2.38,0,0,0,2.4-2.54,2.28,2.28,0,0,0-2.4-2.55A2.34,2.34,0,0,0,165,47.75Z"/><path class="cls-4" d="M172.56,47.77A3.42,3.42,0,1,1,176,51.2,3.25,3.25,0,0,1,172.56,47.77Zm1,0A2.32,2.32,0,0,0,176,50.29a2.36,2.36,0,0,0,2.43-2.53,2.43,2.43,0,1,0-4.85,0Z"/><path class="cls-4" d="M183.52,49l1.05,0c0,.9.69,1.43,1.93,1.43.8,0,1.73-.36,1.73-1.16,0-1.73-4.55-.24-4.55-3,0-1.2,1.28-1.93,2.65-1.93,1.86,0,2.75.84,2.86,2.19l-1.05.07c-.07-.89-.67-1.38-1.84-1.38-.84,0-1.62.42-1.62,1.11,0,1.63,4.58.27,4.58,2.92,0,1.36-1.4,2-2.81,2C184.55,51.18,183.59,50.39,183.52,49Z"/><path class="cls-4" d="M191.75,48a2.13,2.13,0,0,0,2.35,2.24,2.24,2.24,0,0,0,2.23-1.43l.95.24a3.41,3.41,0,0,1-6.55-1.31,3.26,3.26,0,0,1,3.4-3.47c2.27,0,3.29,1.53,3.29,3.71Zm0-.68h4.66a2.13,2.13,0,0,0-2.31-2.12A2.22,2.22,0,0,0,191.75,47.36Z"/><path class="cls-4" d="M15.24,62.87h-1l-3.11-6.59H12.4l2.39,5.47L17,56.28H18.1Z"/><path class="cls-4" d="M24.54,62.87V61.51A2.65,2.65,0,0,1,22,63a3.16,3.16,0,0,1-3.25-3.4,3.22,3.22,0,0,1,3.33-3.47,2.85,2.85,0,0,1,2.49,1.44s0-.84,0-1.28h1v6.59Zm-4.74-3.28a2.26,2.26,0,0,0,2.29,2.5,2.35,2.35,0,0,0,2.4-2.5,2.27,2.27,0,0,0-2.4-2.54A2.34,2.34,0,0,0,19.81,59.59Z"/><path class="cls-4" d="M35.56,62.87V61.51A2.65,2.65,0,0,1,33,63a3.16,3.16,0,0,1-3.25-3.4,3.22,3.22,0,0,1,3.33-3.47,2.85,2.85,0,0,1,2.49,1.44s0-.84,0-1.28h1v6.59Zm-4.74-3.28a2.26,2.26,0,0,0,2.29,2.5,2.35,2.35,0,0,0,2.4-2.5,2.27,2.27,0,0,0-2.4-2.54A2.34,2.34,0,0,0,30.82,59.59Z"/><path class="cls-4" d="M50.13,62.87V58.66A1.42,1.42,0,0,0,48.55,57a1.76,1.76,0,0,0-1.82,1.76v4.09h-1V58.66A1.45,1.45,0,0,0,44.06,57a1.43,1.43,0,0,0-.65.16c-.95.3-1.12,1.27-1.12,2.16v3.52h-1V56.28h1c0,.39,0,.8,0,1.19h0a2,2,0,0,1,2.12-1.31,2.08,2.08,0,0,1,2.13,1.35,2.32,2.32,0,0,1,2.28-1.39,2.08,2.08,0,0,1,2.36,2.28v4.47Z"/><path class="cls-4" d="M58.69,62.87V61.51A2.65,2.65,0,0,1,56.16,63a3.16,3.16,0,0,1-3.25-3.4,3.22,3.22,0,0,1,3.33-3.47,2.85,2.85,0,0,1,2.49,1.44s0-.84,0-1.28h1v6.59Zm-4.74-3.28a2.26,2.26,0,0,0,2.29,2.5,2.35,2.35,0,0,0,2.4-2.5,2.27,2.27,0,0,0-2.4-2.54A2.34,2.34,0,0,0,53.95,59.59Z"/><path class="cls-4" d="M66.81,62.87V58.66c0-1-.68-1.63-1.85-1.63a2,2,0,0,0-2.11,2.05v3.79h-1V56.28h1c0,.39,0,.78,0,1.17h0a2.51,2.51,0,0,1,2.39-1.35,2.33,2.33,0,0,1,2.62,2.28v4.47Z"/><path class="cls-4" d="M70,54.2a.51.51,0,0,1,.54-.53.5.5,0,0,1,.53.53v.62a.5.5,0,0,1-.53.51.51.51,0,0,1-.54-.51Zm0,8.67V56.28h1v6.59Z"/><path class="cls-4" d="M74.2,61.56c0,.51,0,1,0,1.54v2.08h-1v-8.9h1v.61c0,.24,0,.73,0,.73a2.93,2.93,0,0,1,2.57-1.5A3.13,3.13,0,0,1,80,59.58,3.14,3.14,0,0,1,76.71,63,2.69,2.69,0,0,1,74.2,61.56Zm.05-2a2.26,2.26,0,0,0,2.38,2.58,2.55,2.55,0,0,0,0-5.08A2.34,2.34,0,0,0,74.26,59.55Z"/><path class="cls-4" d="M86.8,62.87l0-1.24h0A2.43,2.43,0,0,1,84.38,63a2.35,2.35,0,0,1-2.63-2.5V56.28h1v4.1a1.6,1.6,0,0,0,1.82,1.69,2,2,0,0,0,2.12-2.16V56.28h1v6.59Z"/><path class="cls-4" d="M89.92,62.87V53.71h1v9.16Z"/><path class="cls-4" d="M98.53,62.87V61.51A2.65,2.65,0,0,1,96,63a3.16,3.16,0,0,1-3.25-3.4,3.22,3.22,0,0,1,3.33-3.47,2.85,2.85,0,0,1,2.49,1.44s0-.84,0-1.28h1v6.59Zm-4.74-3.28a2.26,2.26,0,0,0,2.29,2.5,2.35,2.35,0,0,0,2.4-2.5,2.27,2.27,0,0,0-2.4-2.54A2.34,2.34,0,0,0,93.79,59.59Z"/><path class="cls-4" d="M105.05,57.12c-2,0-2.36,1.58-2.36,3.13v2.62h-1V56.28h1c0,.58,0,1.12-.05,1.66a2.57,2.57,0,0,1,2.43-1.81Z"/><path class="cls-4" d="M114.24,62.87V61.51A2.65,2.65,0,0,1,111.72,63a3.16,3.16,0,0,1-3.25-3.4,3.22,3.22,0,0,1,3.33-3.47,2.85,2.85,0,0,1,2.49,1.44s0-.84,0-1.28h1v6.59Zm-4.74-3.28a2.26,2.26,0,0,0,2.29,2.5,2.35,2.35,0,0,0,2.4-2.5,2.27,2.27,0,0,0-2.4-2.54A2.34,2.34,0,0,0,109.5,59.59Z"/><path class="cls-4" d="M117.35,62.87V53.71h1v9.16Z"/><path class="cls-4" d="M120.55,54.2a.51.51,0,0,1,.54-.53.5.5,0,0,1,.53.53v.62a.5.5,0,0,1-.53.51.51.51,0,0,1-.54-.51Zm0,8.67V56.28h1v6.59Z"/><path class="cls-4" d="M132.68,62.87V58.66A1.42,1.42,0,0,0,131.1,57a1.76,1.76,0,0,0-1.82,1.76v4.09h-1V58.66A1.45,1.45,0,0,0,126.6,57a1.43,1.43,0,0,0-.65.16c-.95.3-1.12,1.27-1.12,2.16v3.52h-1V56.28h1c0,.39,0,.8,0,1.19h0a2,2,0,0,1,2.12-1.31,2.08,2.08,0,0,1,2.13,1.35,2.32,2.32,0,0,1,2.28-1.39,2.08,2.08,0,0,1,2.36,2.28v4.47Z"/><path class="cls-4" d="M136.48,59.85a2.13,2.13,0,0,0,2.35,2.24,2.24,2.24,0,0,0,2.23-1.43l.95.24a3.41,3.41,0,0,1-6.55-1.31,3.26,3.26,0,0,1,3.4-3.47c2.27,0,3.29,1.53,3.29,3.71Zm0-.68h4.66a2.13,2.13,0,0,0-2.31-2.12A2.22,2.22,0,0,0,136.48,59.17Z"/><path class="cls-4" d="M148.94,62.87V58.66c0-1-.68-1.63-1.85-1.63A2,2,0,0,0,145,59.08v3.79h-1V56.28h1c0,.39,0,.78,0,1.17h0a2.51,2.51,0,0,1,2.39-1.35A2.33,2.33,0,0,1,150,58.4v4.47Z"/><path class="cls-4" d="M153.65,57.15v4.39c0,.31.19.57.74.57a1.88,1.88,0,0,0,.77-.16v.77a2.55,2.55,0,0,1-1.27.3,1.15,1.15,0,0,1-1.28-1.11V57.15h-1.27v-.86h1.27v-1.7h1v1.7h1.51v.86Z"/><path class="cls-4" d="M156.21,59.58a3.42,3.42,0,1,1,3.4,3.43A3.25,3.25,0,0,1,156.21,59.58Zm1,0a2.32,2.32,0,0,0,2.42,2.53,2.36,2.36,0,0,0,2.43-2.53,2.43,2.43,0,1,0-4.85,0Z"/><path class="cls-4" d="M164.48,60.79l1.05,0c0,.9.69,1.43,1.93,1.43.8,0,1.73-.36,1.73-1.16,0-1.73-4.55-.24-4.55-3,0-1.2,1.28-1.93,2.65-1.93,1.86,0,2.75.84,2.86,2.19l-1.05.07c-.07-.89-.67-1.38-1.84-1.38-.84,0-1.62.42-1.62,1.11,0,1.63,4.58.27,4.58,2.92,0,1.36-1.4,2-2.81,2C165.51,63,164.55,62.2,164.48,60.79Z"/><path class="cls-4" d="M172.18,62.87V61.41h1.11v1.46Z"/><path class="cls-5" d="M14,20.84a2.33,2.33,0,0,1-2.34-2.33V13.19a2.34,2.34,0,0,1,4-1.65,2.27,2.27,0,0,1,.68,1.65V14.3H14.84V13.16a.85.85,0,0,0-.85-.85.81.81,0,0,0-.6.25.82.82,0,0,0-.25.6V18.5a.84.84,0,0,0,.84.84.83.83,0,0,0,.6-.24.8.8,0,0,0,.25-.59V16.58H14V15.11h2.34v3.41A2.33,2.33,0,0,1,14,20.84Z"/><path class="cls-5" d="M21.36,20.83A2.31,2.31,0,0,1,19,18.51V11h1.44v7.53a.8.8,0,0,0,.25.6.82.82,0,0,0,.6.25.84.84,0,0,0,.84-.84V11H23.7v7.55A2.22,2.22,0,0,1,23,20.16,2.28,2.28,0,0,1,21.36,20.83Z"/><path class="cls-5" d="M28.1,18.48l-.36,2.24H26.21L27.87,11h2l1.63,9.76H30l-.34-2.24Zm.77-5.28L28.33,17h1.09Z"/><path class="cls-5" d="M35.85,11l2,6.56V11h1.47v9.77H37.69l-2-6.25v6.25H34.19V11Z"/><path class="cls-5" d="M43.5,12.44H41.94V11h4.6v1.48H45v8.28H43.5Z"/><path class="cls-5" d="M49.2,20.72V11h4.19v1.48H50.67V15.1h2v1.48h-2v2.66h2.72v1.48Z"/><path class="cls-5" d="M60.83,18.29A2.74,2.74,0,0,1,60.3,20a1.91,1.91,0,0,1-1,.69,2.76,2.76,0,0,1-.82.11A2.31,2.31,0,0,1,57,20.41a2.4,2.4,0,0,1-.75-1A3.87,3.87,0,0,1,56,18.07l1.4-.1a2.13,2.13,0,0,0,.45,1.24.75.75,0,0,0,.61.27A.91.91,0,0,0,59.2,19a1.18,1.18,0,0,0,.15-.65,1.8,1.8,0,0,0-.55-1.21l-1.31-1.24a5.58,5.58,0,0,1-1-1.27,2.94,2.94,0,0,1-.33-1.37,2.39,2.39,0,0,1,.9-2,2.23,2.23,0,0,1,1.37-.41,2.49,2.49,0,0,1,1.35.35,2,2,0,0,1,.71.76,2.81,2.81,0,0,1,.32,1.13l-1.41.26A1.7,1.7,0,0,0,59,12.4a.72.72,0,0,0-.58-.24.67.67,0,0,0-.62.36,1.38,1.38,0,0,0-.17.72,2.15,2.15,0,0,0,.58,1.36,4.88,4.88,0,0,0,.65.62q.51.43.68.6a5,5,0,0,1,.84,1.07,4.21,4.21,0,0,1,.23.46A2.68,2.68,0,0,1,60.83,18.29Z"/><path class="cls-5" d="M70.68,18.38A2.27,2.27,0,0,1,70,20a2.22,2.22,0,0,1-1.64.69H66.06V11h2.31a2.21,2.21,0,0,1,1.64.69,2.26,2.26,0,0,1,.67,1.64Zm-3.15.88h.89A.79.79,0,0,0,69,19a.83.83,0,0,0,.24-.6V13.31a.82.82,0,0,0-.25-.6.8.8,0,0,0-.59-.25h-.89Z"/><path class="cls-5" d="M73.35,20.72V11h4.19v1.48H74.83V15.1h2v1.48h-2v2.66h2.72v1.48Z"/><path class="cls-5" d="M84.43,11l2,6.56V11h1.47v9.77H86.27l-2-6.25v6.25H82.77V11Z"/><path class="cls-5" d="M92,20.72H90.53V11H92Z"/><path class="cls-5" d="M96.23,12.44H94.66V11h4.6v1.48H97.7v8.28H96.23Z"/><path class="cls-5" d="M104.24,11a2.24,2.24,0,0,1,1.81.68,2.46,2.46,0,0,1,.51,1.65v1.42a2.28,2.28,0,0,1-.79,1.75l1.09,4.26h-1.59L104.38,17h-1v3.68h-1.47V11Zm.88,2.35a.75.75,0,0,0-.84-.85h-.89v3.12h.89a.8.8,0,0,0,.6-.25.82.82,0,0,0,.25-.6Z"/><path class="cls-5" d="M111,20.72h-1.47V11H111Z"/><path class="cls-5" d="M117.69,20.72h-4V11h1.47v8.29h2.54Z"/><path class="cls-5" d="M122.64,10.84A2.33,2.33,0,0,1,125,13.17V18.5a2.33,2.33,0,1,1-4.67,0V13.17a2.33,2.33,0,0,1,2.33-2.34Zm.8,2.31a.84.84,0,0,0-.84-.84.82.82,0,0,0-.6.25.81.81,0,0,0-.25.6v5.34a.8.8,0,0,0,.25.6.82.82,0,0,0,.6.25.84.84,0,0,0,.84-.84Z"/><path class="cls-5" d="M132.5,19.32q1,0,1-.94V17.8q0-1.5-1.57-1.5V15a1.56,1.56,0,0,0,1.25-.47,1.76,1.76,0,0,0,.37-1.2v-.23q0-1-.84-1a.74.74,0,0,0-.68.36,1.35,1.35,0,0,0-.16.7v.26h-1.44v-.23a2.61,2.61,0,0,1,.53-1.7,2,2,0,0,1,1.69-.75,2.11,2.11,0,0,1,1.66.7,2.28,2.28,0,0,1,.56,1.57v.41a2.4,2.4,0,0,1-.55,1.57,2.26,2.26,0,0,1-.54.48,2.44,2.44,0,0,1,1,1.11,2.1,2.1,0,0,1,.19.93v.77a2.33,2.33,0,0,1-.74,1.78,2.4,2.4,0,0,1-1.71.67,2.23,2.23,0,0,1-1.65-.69,2.26,2.26,0,0,1-.68-1.64v-.24l1.4-.11,0,.34a.94.94,0,0,0,.26.6A.8.8,0,0,0,132.5,19.32Z"/><path class="cls-5" d="M139.12,20.72h-1.47V11h2.11l1.37,7,1.32-7h2v9.77H143V14.58l-1.28,6.14h-1.18l-1.42-6.12Z"/><path class="cls-5" d="M151.59,18.48l-.36,2.24H149.7L151.36,11h2L155,20.72h-1.55l-.34-2.24Zm.77-5.28L151.82,17h1.09Z"/><path class="cls-5" d="M162,11v1.48l-2.71,6.81H162v1.46h-4.3V19.25l2.72-6.81h-2.72V11Z"/><path class="cls-5" d="M167,20.83a2.31,2.31,0,0,1-2.33-2.32V11h1.44v7.53a.8.8,0,0,0,.25.6.82.82,0,0,0,.6.25.84.84,0,0,0,.84-.84V11h1.54v7.55a2.22,2.22,0,0,1-.69,1.65A2.28,2.28,0,0,1,167,20.83Z"/><path class="cls-5" d="M176,20.72h-4V11h1.47v8.29H176Z"/><path class="cls-5" d="M178.66,20.72V11h4.19v1.48h-2.72V15.1h2v1.48h-2v2.66h2.72v1.48Z"/><path class="cls-5" d="M190.29,18.29a2.74,2.74,0,0,1-.53,1.74,1.91,1.91,0,0,1-1,.69,2.76,2.76,0,0,1-.82.11,2.31,2.31,0,0,1-1.43-.43,2.4,2.4,0,0,1-.75-1,3.87,3.87,0,0,1-.32-1.38l1.4-.1a2.13,2.13,0,0,0,.45,1.24.75.75,0,0,0,.61.27.91.91,0,0,0,.77-.48,1.18,1.18,0,0,0,.15-.65,1.8,1.8,0,0,0-.55-1.21l-1.31-1.24a5.58,5.58,0,0,1-1-1.27,2.94,2.94,0,0,1-.33-1.37,2.39,2.39,0,0,1,.9-2,2.23,2.23,0,0,1,1.37-.41,2.49,2.49,0,0,1,1.35.35,2,2,0,0,1,.71.76,2.81,2.81,0,0,1,.32,1.13l-1.41.26a1.7,1.7,0,0,0-.34-.93.72.72,0,0,0-.58-.24.67.67,0,0,0-.62.36,1.38,1.38,0,0,0-.17.72,2.15,2.15,0,0,0,.58,1.36,4.88,4.88,0,0,0,.65.62q.51.43.68.6a5,5,0,0,1,.84,1.07,4.21,4.21,0,0,1,.23.46A2.68,2.68,0,0,1,190.29,18.29Z"/></g></g></g></svg>