<svg xmlns="http://www.w3.org/2000/svg" viewBox="0 0 228.64 75.59"><defs><style>.cls-1{isolation:isolate;}.cls-2{opacity:0.6;mix-blend-mode:overlay;}.cls-3{fill:#fff;}.cls-4{fill:#8f8f8f;}.cls-5{fill:#3764cb;}</style></defs><title>a_2</title><g class="cls-1"><g id="Capa_2" data-name="Capa 2"><g id="_4" data-name="4"><g class="cls-2"><rect y="14.97" width="224.84" height="60.63" rx="10.15" ry="10.15"/></g><rect class="cls-3" width="228.64" height="70.73" rx="10.39" ry="10.39"/><path class="cls-4" d="M25.49,27.54a3.31,3.31,0,0,0-2.93-1.42,3.51,3.51,0,0,0-3.74,3.71,3.46,3.46,0,0,0,3.63,3.62,3.39,3.39,0,0,0,3-1.34l.95.45a4.62,4.62,0,0,1-3.86,2,4.42,4.42,0,0,1-4.78-4.65,4.51,4.51,0,0,1,4.86-4.75,4.41,4.41,0,0,1,3.89,2Z"/><path class="cls-4" d="M32.82,34.4l0-1.24h0a2.43,2.43,0,0,1-2.36,1.38A2.35,2.35,0,0,1,27.77,32V27.81h1v4.1a1.6,1.6,0,0,0,1.82,1.69,2,2,0,0,0,2.12-2.16V27.81h1V34.4Z"/><path class="cls-4" d="M36.79,33c0,.24,0,.46,0,.69s0,.45,0,.66h-1V25.24h1v2.94c0,.3,0,.88,0,.88a2.92,2.92,0,0,1,2.58-1.42c2.07,0,3.21,1.44,3.21,3.46a3.13,3.13,0,0,1-3.27,3.42A2.81,2.81,0,0,1,36.79,33Zm0-1.93a2.32,2.32,0,0,0,2.39,2.5,2.29,2.29,0,0,0,2.28-2.53,2.34,2.34,0,1,0-4.67,0Z"/><path class="cls-4" d="M47.6,28.65c-2,0-2.36,1.58-2.36,3.13V34.4h-1V27.81h1c0,.58,0,1.12-.05,1.66a2.57,2.57,0,0,1,2.43-1.81Z"/><path class="cls-4" d="M48.77,25.73a.51.51,0,0,1,.54-.53.5.5,0,0,1,.53.53v.62a.5.5,0,0,1-.53.51.51.51,0,0,1-.54-.51Zm0,8.67V27.81h1V34.4Z"/><path class="cls-4" d="M55.24,28.65c-2,0-2.36,1.58-2.36,3.13V34.4h-1V27.81h1c0,.58,0,1.12-.05,1.66a2.57,2.57,0,0,1,2.43-1.81Z"/><path class="cls-4" d="M64.11,34.4V30.2a1.65,1.65,0,0,0-1.85-1.65c-1.55,0-2.11,1-2.11,2.4V34.4h-1V25.24h1v2.67c0,.55,0,.58,0,1.05h0a2.55,2.55,0,0,1,2.39-1.34A2.36,2.36,0,0,1,65.15,30V34.4Z"/><path class="cls-4" d="M67.72,31.37a2.13,2.13,0,0,0,2.35,2.24,2.24,2.24,0,0,0,2.23-1.43l.95.24a3.41,3.41,0,0,1-6.55-1.31,3.26,3.26,0,0,1,3.4-3.47c2.27,0,3.29,1.53,3.29,3.71Zm0-.68h4.66a2.13,2.13,0,0,0-2.31-2.12A2.22,2.22,0,0,0,67.72,30.7Z"/><path class="cls-4" d="M78.41,28.65c-2,0-2.36,1.58-2.36,3.13V34.4H75V27.81h1c0,.58,0,1.12-.05,1.66a2.57,2.57,0,0,1,2.43-1.81Z"/><path class="cls-4" d="M79.58,25.73a.51.51,0,0,1,.54-.53.5.5,0,0,1,.53.53v.62a.5.5,0,0,1-.53.51.51.51,0,0,1-.54-.51Zm0,8.67V27.81h1V34.4Z"/><path class="cls-4" d="M88,34.4V33a2.83,2.83,0,0,1-2.57,1.49,3.14,3.14,0,0,1-3.21-3.44,3.17,3.17,0,0,1,3.25-3.47,2.91,2.91,0,0,1,2.57,1.44s0-1,0-1.54V25.24h1V34.4Zm-4.73-3.31a2.27,2.27,0,0,0,2.29,2.54A2.38,2.38,0,0,0,88,31.09a2.28,2.28,0,0,0-2.4-2.55A2.34,2.34,0,0,0,83.31,31.09Z"/><path class="cls-4" d="M96.46,34.4V33a2.65,2.65,0,0,1-2.52,1.49,3.16,3.16,0,0,1-3.25-3.4A3.22,3.22,0,0,1,94,27.65a2.85,2.85,0,0,1,2.48,1.44s0-.84,0-1.28h1V34.4Zm-4.74-3.28a2.26,2.26,0,0,0,2.3,2.5,2.35,2.35,0,0,0,2.4-2.5A2.27,2.27,0,0,0,94,28.58,2.34,2.34,0,0,0,91.72,31.12Z"/><path class="cls-4" d="M99.07,32.32l1.05,0c0,.9.69,1.43,1.93,1.43.8,0,1.73-.36,1.73-1.16,0-1.73-4.55-.24-4.55-3,0-1.2,1.28-1.93,2.65-1.93,1.86,0,2.75.84,2.86,2.19l-1.05.07c-.07-.89-.67-1.38-1.84-1.38-.84,0-1.62.42-1.62,1.11,0,1.63,4.58.27,4.58,2.92,0,1.36-1.4,2-2.81,2C100.1,34.52,99.14,33.72,99.07,32.32Z"/><path class="cls-4" d="M110.4,33.09c0,.51,0,1,0,1.54v2.08h-1v-8.9h1v.61c0,.24,0,.73,0,.73a2.93,2.93,0,0,1,2.57-1.5,3.13,3.13,0,0,1,3.23,3.46,3.14,3.14,0,0,1-3.27,3.46A2.69,2.69,0,0,1,110.4,33.09Zm.05-2a2.26,2.26,0,0,0,2.38,2.58,2.31,2.31,0,0,0,2.3-2.54,2.31,2.31,0,0,0-2.28-2.54A2.34,2.34,0,0,0,110.45,31.08Z"/><path class="cls-4" d="M121.24,28.65c-2,0-2.36,1.58-2.36,3.13V34.4h-1V27.81h1c0,.58,0,1.12-.05,1.66a2.57,2.57,0,0,1,2.43-1.81Z"/><path class="cls-4" d="M121.87,31.1a3.42,3.42,0,1,1,6.85,0,3.42,3.42,0,1,1-6.85,0Zm1,0a2.32,2.32,0,0,0,2.42,2.53,2.36,2.36,0,0,0,2.43-2.53,2.43,2.43,0,1,0-4.85,0Z"/><path class="cls-4" d="M131.59,27.81h1.75v.86h-1.75V34.4h-1V28.67h-.95v-.86h.95v-.28c0-1.38.95-2.38,2.69-2.38a7,7,0,0,1,.88.07v.89a6.8,6.8,0,0,0-.82-.05c-1.12,0-1.7.58-1.7,1.53Z"/><path class="cls-4" d="M139.69,34.4l0-1.24h0a2.43,2.43,0,0,1-2.36,1.38,2.35,2.35,0,0,1-2.63-2.5V27.81h1v4.1a1.6,1.6,0,0,0,1.82,1.69,2,2,0,0,0,2.12-2.16V27.81h1V34.4Z"/><path class="cls-4" d="M147.65,34.4V30.19c0-1-.68-1.63-1.85-1.63a2,2,0,0,0-2.11,2.05V34.4h-1V27.81h1c0,.39,0,.78,0,1.17h0a2.51,2.51,0,0,1,2.39-1.35,2.33,2.33,0,0,1,2.62,2.28V34.4Z"/><path class="cls-4" d="M156,34.4V33a2.83,2.83,0,0,1-2.57,1.49,3.14,3.14,0,0,1-3.21-3.44,3.17,3.17,0,0,1,3.25-3.47,2.91,2.91,0,0,1,2.57,1.44s0-1,0-1.54V25.24h1V34.4Zm-4.73-3.31a2.27,2.27,0,0,0,2.29,2.54,2.38,2.38,0,0,0,2.4-2.54,2.28,2.28,0,0,0-2.4-2.55A2.34,2.34,0,0,0,151.29,31.09Z"/><path class="cls-4" d="M164.44,34.4V33a2.65,2.65,0,0,1-2.52,1.49,3.16,3.16,0,0,1-3.25-3.4A3.22,3.22,0,0,1,162,27.65a2.85,2.85,0,0,1,2.48,1.44s0-.84,0-1.28h1V34.4Zm-4.74-3.28a2.26,2.26,0,0,0,2.3,2.5,2.35,2.35,0,0,0,2.4-2.5,2.27,2.27,0,0,0-2.4-2.54A2.34,2.34,0,0,0,159.7,31.12Z"/><path class="cls-4" d="M167.05,32.32l1.05,0c0,.9.69,1.43,1.93,1.43.8,0,1.73-.36,1.73-1.16,0-1.73-4.55-.24-4.55-3,0-1.2,1.28-1.93,2.65-1.93,1.86,0,2.75.84,2.86,2.19l-1.05.07c-.07-.89-.67-1.38-1.84-1.38-.84,0-1.62.42-1.62,1.11,0,1.63,4.58.27,4.58,2.92,0,1.36-1.4,2-2.81,2C168.08,34.52,167.12,33.72,167.05,32.32Z"/><path class="cls-4" d="M174.57,34.4V32.94h1.11V34.4Z"/><path class="cls-4" d="M19.12,44v3.9H18.06V38.74h3.61c2.09,0,3.35.86,3.35,2.57S23.59,44,21.71,44Zm0-4.33V43.1h2.59c1.2,0,2.2-.63,2.2-1.73s-.84-1.71-2.25-1.71Z"/><path class="cls-4" d="M31.74,47.9V46.53A2.65,2.65,0,0,1,29.21,48,3.16,3.16,0,0,1,26,44.61a3.22,3.22,0,0,1,3.34-3.47,2.85,2.85,0,0,1,2.48,1.44s0-.84,0-1.28h1V47.9ZM27,44.61a2.26,2.26,0,0,0,2.3,2.5,2.35,2.35,0,0,0,2.4-2.5,2.27,2.27,0,0,0-2.4-2.54A2.34,2.34,0,0,0,27,44.61Z"/><path class="cls-4" d="M38.26,42.14c-2,0-2.36,1.58-2.36,3.13V47.9h-1V41.31h1c0,.58,0,1.12-.05,1.66a2.57,2.57,0,0,1,2.43-1.81Z"/><path class="cls-4" d="M44.84,47.9V46.53A2.65,2.65,0,0,1,42.31,48a3.16,3.16,0,0,1-3.25-3.4,3.22,3.22,0,0,1,3.33-3.47,2.85,2.85,0,0,1,2.49,1.44s0-.84,0-1.28h1V47.9ZM40.1,44.61a2.26,2.26,0,0,0,2.29,2.5,2.35,2.35,0,0,0,2.4-2.5,2.27,2.27,0,0,0-2.4-2.54A2.34,2.34,0,0,0,40.1,44.61Z"/><path class="cls-4" d="M55.52,47.9V43.7A1.65,1.65,0,0,0,53.67,42c-1.55,0-2.11,1-2.11,2.4V47.9h-1V38.74h1v2.67c0,.55,0,.58,0,1.05h0a2.55,2.55,0,0,1,2.39-1.34,2.36,2.36,0,0,1,2.62,2.31V47.9Z"/><path class="cls-4" d="M64.07,47.9V46.53A2.65,2.65,0,0,1,61.54,48a3.16,3.16,0,0,1-3.25-3.4,3.22,3.22,0,0,1,3.33-3.47,2.85,2.85,0,0,1,2.49,1.44s0-.84,0-1.28h1V47.9Zm-4.74-3.28a2.26,2.26,0,0,0,2.29,2.5,2.35,2.35,0,0,0,2.4-2.5,2.27,2.27,0,0,0-2.4-2.54A2.34,2.34,0,0,0,59.33,44.61Z"/><path class="cls-4" d="M66.79,44.67a3.27,3.27,0,0,1,3.48-3.52,2.85,2.85,0,0,1,3,2.16l-.95.28a1.93,1.93,0,0,0-2.11-1.51,2.34,2.34,0,0,0-2.42,2.59,2.22,2.22,0,0,0,2.34,2.44,2.46,2.46,0,0,0,2.28-1.54l.92.2A3,3,0,0,1,70.15,48,3.15,3.15,0,0,1,66.79,44.67Z"/><path class="cls-4" d="M75.7,44.87a2.13,2.13,0,0,0,2.35,2.24,2.24,2.24,0,0,0,2.23-1.43l.95.24a3.41,3.41,0,0,1-6.55-1.31,3.26,3.26,0,0,1,3.4-3.47c2.27,0,3.29,1.53,3.29,3.71Zm0-.68h4.66a2.13,2.13,0,0,0-2.31-2.12A2.22,2.22,0,0,0,75.7,44.2Z"/><path class="cls-4" d="M86.57,42.14c-2,0-2.36,1.58-2.36,3.13V47.9h-1V41.31h1c0,.58,0,1.12-.05,1.66a2.57,2.57,0,0,1,2.43-1.81Z"/><path class="cls-4" d="M90,44.67a3.27,3.27,0,0,1,3.48-3.52,2.85,2.85,0,0,1,3,2.16l-.95.28a1.93,1.93,0,0,0-2.11-1.51A2.34,2.34,0,0,0,91,44.67a2.22,2.22,0,0,0,2.34,2.44,2.46,2.46,0,0,0,2.28-1.54l.92.2A3,3,0,0,1,93.36,48,3.15,3.15,0,0,1,90,44.67Z"/><path class="cls-4" d="M97.34,44.6a3.42,3.42,0,1,1,3.4,3.43A3.25,3.25,0,0,1,97.34,44.6Zm1,0a2.32,2.32,0,0,0,2.42,2.53,2.36,2.36,0,0,0,2.43-2.53,2.43,2.43,0,1,0-4.85,0Z"/><path class="cls-4" d="M114.36,47.9V43.68A1.42,1.42,0,0,0,112.78,42,1.76,1.76,0,0,0,111,43.8V47.9h-1V43.68A1.45,1.45,0,0,0,108.28,42a1.43,1.43,0,0,0-.65.16c-.95.3-1.12,1.27-1.12,2.16V47.9h-1V41.31h1c0,.39,0,.8,0,1.19h0a2,2,0,0,1,2.12-1.31,2.08,2.08,0,0,1,2.13,1.35A2.32,2.32,0,0,1,113,41.14a2.08,2.08,0,0,1,2.36,2.28V47.9Z"/><path class="cls-4" d="M118,46.59c0,.51,0,1,0,1.54v2.08h-1v-8.9h1v.61c0,.24,0,.73,0,.73a2.93,2.93,0,0,1,2.57-1.5,3.13,3.13,0,0,1,3.23,3.46,3.14,3.14,0,0,1-3.27,3.46A2.69,2.69,0,0,1,118,46.59Zm.05-2a2.26,2.26,0,0,0,2.38,2.58,2.31,2.31,0,0,0,2.3-2.54,2.31,2.31,0,0,0-2.28-2.54A2.34,2.34,0,0,0,118.07,44.57Z"/><path class="cls-4" d="M128.49,42.14c-2,0-2.36,1.58-2.36,3.13V47.9h-1V41.31h1c0,.58,0,1.12-.05,1.66a2.57,2.57,0,0,1,2.43-1.81Z"/><path class="cls-4" d="M129.77,44.87a2.13,2.13,0,0,0,2.35,2.24,2.24,2.24,0,0,0,2.23-1.43l.95.24a3.41,3.41,0,0,1-6.55-1.31,3.26,3.26,0,0,1,3.4-3.47c2.27,0,3.29,1.53,3.29,3.71Zm0-.68h4.66a2.13,2.13,0,0,0-2.31-2.12A2.22,2.22,0,0,0,129.77,44.2Z"/><path class="cls-4" d="M136.33,45.82l1.05,0c0,.9.69,1.43,1.93,1.43.8,0,1.73-.36,1.73-1.16,0-1.73-4.55-.24-4.55-3,0-1.2,1.28-1.93,2.65-1.93,1.86,0,2.75.84,2.86,2.19l-1.05.07c-.07-.89-.67-1.38-1.84-1.38-.84,0-1.62.42-1.62,1.11,0,1.63,4.58.27,4.58,2.92,0,1.36-1.4,2-2.81,2C137.35,48,136.39,47.22,136.33,45.82Z"/><path class="cls-4" d="M143.41,39.23a.51.51,0,0,1,.54-.53.5.5,0,0,1,.53.53v.62a.5.5,0,0,1-.53.51.51.51,0,0,1-.54-.51Zm0,8.67V41.31h1V47.9Z"/><path class="cls-4" d="M145.71,44.6a3.42,3.42,0,1,1,3.4,3.43A3.25,3.25,0,0,1,145.71,44.6Zm1,0a2.32,2.32,0,0,0,2.42,2.53,2.36,2.36,0,0,0,2.43-2.53,2.43,2.43,0,1,0-4.85,0Zm3.83-6.68c.23.24.43.5.65.74l-2.24,1.94c-.19-.2-.37-.42-.54-.62Z"/><path class="cls-4" d="M158.84,47.9V43.68c0-1-.68-1.63-1.85-1.63a2,2,0,0,0-2.11,2.05V47.9h-1V41.31h1c0,.39,0,.78,0,1.17h0a2.51,2.51,0,0,1,2.39-1.35,2.33,2.33,0,0,1,2.62,2.28V47.9Z"/><path class="cls-4" d="M169.08,47.9V46.55A2.83,2.83,0,0,1,166.52,48a3.14,3.14,0,0,1-3.21-3.44,3.17,3.17,0,0,1,3.25-3.47,2.91,2.91,0,0,1,2.57,1.44s0-1,0-1.54V38.74h1V47.9Zm-4.73-3.31a2.27,2.27,0,0,0,2.29,2.54,2.38,2.38,0,0,0,2.4-2.54,2.28,2.28,0,0,0-2.4-2.55A2.34,2.34,0,0,0,164.36,44.59Z"/><path class="cls-4" d="M171.75,39.23a.51.51,0,0,1,.54-.53.5.5,0,0,1,.53.53v.62a.5.5,0,0,1-.53.51.51.51,0,0,1-.54-.51Zm0,8.67V41.31h1V47.9Z"/><path class="cls-4" d="M177.86,42.14c-2,0-2.36,1.58-2.36,3.13V47.9h-1V41.31h1c0,.58,0,1.12-.05,1.66a2.57,2.57,0,0,1,2.43-1.81Z"/><path class="cls-4" d="M179.14,44.87a2.13,2.13,0,0,0,2.35,2.24,2.24,2.24,0,0,0,2.23-1.43l.95.24a3.41,3.41,0,0,1-6.55-1.31,3.26,3.26,0,0,1,3.4-3.47c2.27,0,3.29,1.53,3.29,3.71Zm0-.68h4.66a2.13,2.13,0,0,0-2.31-2.12A2.22,2.22,0,0,0,179.14,44.2Z"/><path class="cls-4" d="M185.71,44.67a3.27,3.27,0,0,1,3.48-3.52,2.85,2.85,0,0,1,3,2.16l-.95.28a1.93,1.93,0,0,0-2.11-1.51,2.34,2.34,0,0,0-2.42,2.59,2.22,2.22,0,0,0,2.34,2.44,2.46,2.46,0,0,0,2.28-1.54l.92.2A3,3,0,0,1,189.07,48,3.15,3.15,0,0,1,185.71,44.67Z"/><path class="cls-4" d="M195.08,42.17v4.39c0,.31.19.57.74.57a1.88,1.88,0,0,0,.77-.16v.77a2.55,2.55,0,0,1-1.27.3A1.15,1.15,0,0,1,194,46.92V42.17h-1.27v-.86H194V39.6h1v1.7h1.51v.86Z"/><path class="cls-4" d="M202.87,47.9V46.53A2.65,2.65,0,0,1,200.34,48a3.16,3.16,0,0,1-3.25-3.4,3.22,3.22,0,0,1,3.33-3.47,2.85,2.85,0,0,1,2.49,1.44s0-.84,0-1.28h1V47.9Zm-4.74-3.28a2.26,2.26,0,0,0,2.29,2.5,2.35,2.35,0,0,0,2.4-2.5,2.27,2.27,0,0,0-2.4-2.54A2.34,2.34,0,0,0,198.13,44.61Z"/><path class="cls-4" d="M17.93,59.31l1.05,0c0,.9.69,1.43,1.93,1.43.8,0,1.73-.36,1.73-1.16,0-1.73-4.55-.24-4.55-3,0-1.2,1.28-1.93,2.65-1.93,1.86,0,2.75.84,2.86,2.19l-1.05.07c-.07-.89-.67-1.38-1.84-1.38-.84,0-1.62.42-1.62,1.11,0,1.63,4.58.27,4.58,2.92,0,1.36-1.4,2-2.81,2C19,61.51,18,60.72,17.93,59.31Z"/><path class="cls-4" d="M24.6,58.1A3.25,3.25,0,0,1,28,54.64a3.44,3.44,0,0,1,0,6.89A3.25,3.25,0,0,1,24.6,58.1Zm1,0A2.32,2.32,0,0,0,28,60.62a2.36,2.36,0,0,0,2.43-2.53,2.43,2.43,0,1,0-4.85,0Z"/><path class="cls-4" d="M33.75,60c0,.24,0,.46,0,.69s0,.45,0,.66h-1V52.24h1v2.94c0,.3,0,.88,0,.88a2.92,2.92,0,0,1,2.58-1.42c2.07,0,3.21,1.44,3.21,3.46a3.13,3.13,0,0,1-3.27,3.42A2.81,2.81,0,0,1,33.75,60Zm0-1.93a2.32,2.32,0,0,0,2.39,2.5,2.29,2.29,0,0,0,2.28-2.53,2.34,2.34,0,1,0-4.67,0Z"/><path class="cls-4" d="M44.19,55.64c-2,0-2.36,1.58-2.36,3.13v2.62h-1V54.8h1c0,.58,0,1.12-.05,1.66a2.57,2.57,0,0,1,2.43-1.81Z"/><path class="cls-4" d="M45.47,58.37a2.13,2.13,0,0,0,2.35,2.24A2.24,2.24,0,0,0,50,59.18l.95.24a3.12,3.12,0,0,1-3.2,2.09,3.13,3.13,0,0,1-3.35-3.4,3.26,3.26,0,0,1,3.4-3.47c2.27,0,3.29,1.53,3.29,3.71Zm0-.68h4.66a2.13,2.13,0,0,0-2.31-2.12A2.22,2.22,0,0,0,45.47,57.69Z"/><path class="cls-4" d="M59.69,61.39v-4.2a1.65,1.65,0,0,0-1.85-1.65c-1.55,0-2.11,1-2.11,2.4v3.44h-1V52.24h1v2.67c0,.55,0,.58,0,1.05h0a2.55,2.55,0,0,1,2.39-1.34,2.36,2.36,0,0,1,2.62,2.31v4.44Z"/><path class="cls-4" d="M62.94,58.37a2.13,2.13,0,0,0,2.35,2.24,2.24,2.24,0,0,0,2.23-1.43l.95.24a3.41,3.41,0,0,1-6.55-1.31,3.26,3.26,0,0,1,3.4-3.47c2.27,0,3.29,1.53,3.29,3.71Zm0-.68H67.6a2.13,2.13,0,0,0-2.31-2.12A2.22,2.22,0,0,0,62.94,57.69Z"/><path class="cls-4" d="M73.27,55.64c-2,0-2.36,1.58-2.36,3.13v2.62h-1V54.8h1c0,.58,0,1.12-.05,1.66a2.57,2.57,0,0,1,2.43-1.81Z"/><path class="cls-4" d="M74.08,52.72a.51.51,0,0,1,.54-.53.5.5,0,0,1,.53.53v.62a.5.5,0,0,1-.53.51.51.51,0,0,1-.54-.51Zm0,8.67V54.8h1v6.59Z"/><path class="cls-4" d="M82.16,61.39V60a2.83,2.83,0,0,1-2.57,1.49,3.14,3.14,0,0,1-3.21-3.44,3.17,3.17,0,0,1,3.25-3.47,2.91,2.91,0,0,1,2.57,1.44s0-1,0-1.54V52.24h1v9.16Zm-4.73-3.31a2.27,2.27,0,0,0,2.29,2.54,2.38,2.38,0,0,0,2.4-2.54,2.28,2.28,0,0,0-2.4-2.55A2.34,2.34,0,0,0,77.44,58.08Z"/><path class="cls-4" d="M90.23,61.39V60a2.65,2.65,0,0,1-2.52,1.49,3.16,3.16,0,0,1-3.25-3.4,3.22,3.22,0,0,1,3.33-3.47,2.85,2.85,0,0,1,2.49,1.44s0-.84,0-1.28h1v6.59Zm-4.74-3.28a2.26,2.26,0,0,0,2.29,2.5,2.35,2.35,0,0,0,2.4-2.5,2.27,2.27,0,0,0-2.4-2.54A2.34,2.34,0,0,0,85.49,58.11Z"/><path class="cls-4" d="M92.48,59.31l1.05,0c0,.9.69,1.43,1.93,1.43.8,0,1.73-.36,1.73-1.16,0-1.73-4.55-.24-4.55-3,0-1.2,1.28-1.93,2.65-1.93,1.86,0,2.75.84,2.86,2.19l-1.05.07c-.07-.89-.67-1.38-1.84-1.38-.84,0-1.62.42-1.62,1.11,0,1.63,4.58.27,4.58,2.92,0,1.36-1.4,2-2.81,2C93.5,61.51,92.54,60.72,92.48,59.31Z"/><path class="cls-4" d="M101.58,59.31l1.05,0c0,.9.69,1.43,1.93,1.43.8,0,1.73-.36,1.73-1.16,0-1.73-4.55-.24-4.55-3,0-1.2,1.28-1.93,2.65-1.93,1.86,0,2.75.84,2.86,2.19l-1.05.07c-.07-.89-.67-1.38-1.84-1.38-.84,0-1.62.42-1.62,1.11,0,1.63,4.58.27,4.58,2.92,0,1.36-1.4,2-2.81,2C102.61,61.51,101.65,60.72,101.58,59.31Z"/><path class="cls-4" d="M114,61.39V60a2.65,2.65,0,0,1-2.52,1.49,3.16,3.16,0,0,1-3.25-3.4,3.22,3.22,0,0,1,3.33-3.47,2.85,2.85,0,0,1,2.49,1.44s0-.84,0-1.28h1v6.59Zm-4.74-3.28a2.26,2.26,0,0,0,2.29,2.5,2.35,2.35,0,0,0,2.4-2.5,2.27,2.27,0,0,0-2.4-2.54A2.34,2.34,0,0,0,109.29,58.11Z"/><path class="cls-4" d="M121.61,61.39V57.18c0-1-.68-1.63-1.85-1.63a2,2,0,0,0-2.11,2.05v3.79h-1V54.8h1c0,.39,0,.78,0,1.17h0A2.51,2.51,0,0,1,120,54.64a2.33,2.33,0,0,1,2.62,2.28v4.47Z"/><path class="cls-4" d="M124.62,62.11a4.37,4.37,0,0,0,2.43.81,2.21,2.21,0,0,0,2.53-2.32v-.77a2.85,2.85,0,0,1-2.54,1.5,3.08,3.08,0,0,1-3.2-3.28,3.17,3.17,0,0,1,3.32-3.4,2.66,2.66,0,0,1,2.43,1.47s0-.88,0-1.31h1v5.91c0,1.92-1.27,3.11-3.39,3.11a5.11,5.11,0,0,1-2.89-.9C124.36,62.65,124.52,62.38,124.62,62.11ZM124.9,58a2.21,2.21,0,0,0,2.24,2.4,2.26,2.26,0,0,0,2.34-2.38,2.3,2.3,0,1,0-4.58,0Z"/><path class="cls-4" d="M135.6,55.64c-2,0-2.36,1.58-2.36,3.13v2.62h-1V54.8h1c0,.58,0,1.12-.05,1.66a2.57,2.57,0,0,1,2.43-1.81Z"/><path class="cls-4" d="M141.64,61.39V60a2.65,2.65,0,0,1-2.52,1.49,3.16,3.16,0,0,1-3.25-3.4,3.22,3.22,0,0,1,3.34-3.47,2.85,2.85,0,0,1,2.48,1.44s0-.84,0-1.28h1v6.59Zm-4.74-3.28a2.26,2.26,0,0,0,2.3,2.5,2.35,2.35,0,0,0,2.4-2.5,2.27,2.27,0,0,0-2.4-2.54A2.34,2.34,0,0,0,136.9,58.11Z"/><path class="cls-4" d="M149.22,61.39V57.18c0-1-.68-1.63-1.85-1.63a2,2,0,0,0-2.11,2.05v3.79h-1V54.8h1c0,.39,0,.78,0,1.17h0a2.51,2.51,0,0,1,2.39-1.35,2.33,2.33,0,0,1,2.62,2.28v4.47Z"/><path class="cls-4" d="M153.39,55.67v4.39c0,.31.19.57.74.57a1.88,1.88,0,0,0,.77-.16v.77a2.55,2.55,0,0,1-1.27.3,1.15,1.15,0,0,1-1.28-1.11V55.67h-1.27V54.8h1.27V53.1h1v1.7h1.51v.86Z"/><path class="cls-4" d="M156.43,58.37a2.13,2.13,0,0,0,2.35,2.24A2.24,2.24,0,0,0,161,59.18l.95.24a3.41,3.41,0,0,1-6.55-1.31,3.26,3.26,0,0,1,3.4-3.47c2.27,0,3.29,1.53,3.29,3.71Zm0-.68h4.66a2.13,2.13,0,0,0-2.31-2.12A2.22,2.22,0,0,0,156.43,57.69Z"/><path class="cls-4" d="M163,59.31l1.05,0c0,.9.69,1.43,1.93,1.43.8,0,1.73-.36,1.73-1.16,0-1.73-4.55-.24-4.55-3,0-1.2,1.28-1.93,2.65-1.93,1.86,0,2.75.84,2.86,2.19l-1.05.07c-.07-.89-.67-1.38-1.84-1.38-.84,0-1.62.42-1.62,1.11,0,1.63,4.58.27,4.58,2.92,0,1.36-1.4,2-2.81,2C164,61.51,163.05,60.72,163,59.31Z"/><path class="cls-4" d="M170.14,61.39V59.93h1.11v1.46Z"/><path class="cls-5" d="M19.64,17.71,19.28,20H17.75l1.66-9.76h2L23.07,20H21.52l-.34-2.24Zm.77-5.28-.54,3.85H21Z"/><path class="cls-5" d="M28.05,10.2a2.24,2.24,0,0,1,1.71.68,2.35,2.35,0,0,1,.59,1.65v1.42a2.27,2.27,0,0,1-.67,1.65,2.2,2.2,0,0,1-1.63.69H27.2V20H25.73V10.2Zm.88,2.35a.84.84,0,0,0-.23-.62.82.82,0,0,0-.61-.23H27.2v3.12h.89a.8.8,0,0,0,.6-.25.82.82,0,0,0,.25-.6Z"/><path class="cls-5" d="M35.35,10.07a2.33,2.33,0,0,1,2.34,2.34v5.33a2.33,2.33,0,1,1-4.67,0V12.41a2.33,2.33,0,0,1,2.33-2.34Zm.8,2.31a.84.84,0,0,0-.84-.84.82.82,0,0,0-.6.25.81.81,0,0,0-.25.6v5.34a.8.8,0,0,0,.25.6.82.82,0,0,0,.6.25.84.84,0,0,0,.84-.84Z"/><path class="cls-5" d="M45.22,17.53a2.74,2.74,0,0,1-.53,1.74,1.91,1.91,0,0,1-1,.69,2.76,2.76,0,0,1-.82.11,2.31,2.31,0,0,1-1.43-.43,2.4,2.4,0,0,1-.75-1,3.87,3.87,0,0,1-.32-1.38l1.4-.1a2.13,2.13,0,0,0,.45,1.24.75.75,0,0,0,.61.27.91.91,0,0,0,.77-.48,1.18,1.18,0,0,0,.15-.65,1.8,1.8,0,0,0-.55-1.21l-1.31-1.24a5.58,5.58,0,0,1-1-1.27,2.94,2.94,0,0,1-.33-1.37,2.39,2.39,0,0,1,.9-2,2.23,2.23,0,0,1,1.37-.41,2.49,2.49,0,0,1,1.35.35,2,2,0,0,1,.71.76,2.81,2.81,0,0,1,.32,1.13l-1.41.26a1.7,1.7,0,0,0-.34-.93.72.72,0,0,0-.58-.24.67.67,0,0,0-.62.36,1.38,1.38,0,0,0-.17.72,2.15,2.15,0,0,0,.58,1.36,4.88,4.88,0,0,0,.65.62q.51.43.68.6a5,5,0,0,1,.84,1.07,4.21,4.21,0,0,1,.23.46A2.68,2.68,0,0,1,45.22,17.53Z"/><path class="cls-5" d="M49.35,20H47.88V10.2h1.47Z"/><path class="cls-5" d="M53.58,11.68H52V10.2h4.6v1.48H55.05V20H53.58Z"/><path class="cls-5" d="M61.58,10.07a2.33,2.33,0,0,1,2.34,2.34v5.33a2.33,2.33,0,1,1-4.67,0V12.41a2.33,2.33,0,0,1,2.33-2.34Zm.8,2.31a.84.84,0,0,0-.84-.84.82.82,0,0,0-.6.25.81.81,0,0,0-.25.6v5.34a.8.8,0,0,0,.25.6.82.82,0,0,0,.6.25.84.84,0,0,0,.84-.84Z"/><path class="cls-5" d="M71.44,17.53a2.74,2.74,0,0,1-.53,1.74,1.91,1.91,0,0,1-1,.69,2.76,2.76,0,0,1-.82.11,2.31,2.31,0,0,1-1.43-.43,2.4,2.4,0,0,1-.75-1,3.87,3.87,0,0,1-.32-1.38l1.4-.1a2.13,2.13,0,0,0,.45,1.24.75.75,0,0,0,.61.27.91.91,0,0,0,.77-.48A1.18,1.18,0,0,0,70,17.6a1.8,1.8,0,0,0-.55-1.21l-1.31-1.24a5.58,5.58,0,0,1-1-1.27,2.94,2.94,0,0,1-.33-1.37,2.39,2.39,0,0,1,.9-2A2.23,2.23,0,0,1,69,10.07a2.49,2.49,0,0,1,1.35.35,2,2,0,0,1,.71.76,2.81,2.81,0,0,1,.32,1.13L70,12.57a1.7,1.7,0,0,0-.34-.93A.72.72,0,0,0,69,11.4a.67.67,0,0,0-.62.36,1.38,1.38,0,0,0-.17.72,2.15,2.15,0,0,0,.58,1.36,4.88,4.88,0,0,0,.65.62q.51.43.68.6A5,5,0,0,1,71,16.13a4.21,4.21,0,0,1,.23.46A2.68,2.68,0,0,1,71.44,17.53Z"/></g></g></g></svg>