<svg xmlns="http://www.w3.org/2000/svg" viewBox="0 0 228.64 70.59"><defs><style>.cls-1{isolation:isolate;}.cls-2{opacity:0.6;mix-blend-mode:overlay;}.cls-3{fill:#fff;}.cls-4{fill:#8f8f8f;}.cls-5{fill:#3764cb;}</style></defs><title>a_4</title><g class="cls-1"><g id="Capa_2" data-name="Capa 2"><g id="_4" data-name="4"><g class="cls-2"><rect y="9.97" width="224.84" height="60.63" rx="10.15" ry="10.15"/></g><rect class="cls-3" width="228.64" height="65.73" rx="10.39" ry="10.39"/><path class="cls-4" d="M23.44,37.58,23.49,30l-3.65,7.62h-.92L15.29,30l.07,7.62H14.28V28.43h1.49l3.65,7.66,3.65-7.66h1.49v9.16Z"/><path class="cls-4" d="M27.34,34.56a2.13,2.13,0,0,0,2.35,2.24,2.24,2.24,0,0,0,2.23-1.43l.95.24a3.12,3.12,0,0,1-3.2,2.09,3.13,3.13,0,0,1-3.35-3.4,3.26,3.26,0,0,1,3.4-3.47C32,30.83,33,32.36,33,34.54Zm0-.68H32a2.13,2.13,0,0,0-2.31-2.12A2.22,2.22,0,0,0,27.34,33.88Z"/><path class="cls-4" d="M40.18,37.58V36.23a2.83,2.83,0,0,1-2.57,1.49,3.14,3.14,0,0,1-3.21-3.44,3.17,3.17,0,0,1,3.25-3.47,2.91,2.91,0,0,1,2.57,1.44s0-1,0-1.54V28.43h1v9.16Zm-4.73-3.31a2.27,2.27,0,0,0,2.29,2.54,2.38,2.38,0,0,0,2.4-2.54,2.28,2.28,0,0,0-2.4-2.55A2.34,2.34,0,0,0,35.45,34.27Z"/><path class="cls-4" d="M43.34,28.91a.51.51,0,0,1,.54-.53.5.5,0,0,1,.53.53v.62a.5.5,0,0,1-.53.51.51.51,0,0,1-.54-.51Zm0,8.67V31h1v6.59Z"/><path class="cls-4" d="M49.95,31.83c-2,0-2.36,1.58-2.36,3.13v2.62h-1V31h1c0,.58,0,1.12-.05,1.66a2.57,2.57,0,0,1,2.43-1.81Z"/><path class="cls-4" d="M55.44,31.86v4.39c0,.31.19.57.74.57a1.88,1.88,0,0,0,.77-.16v.77a2.55,2.55,0,0,1-1.27.3,1.15,1.15,0,0,1-1.28-1.11V31.86H53.13V31H54.4v-1.7h1V31H57v.86Z"/><path class="cls-4" d="M59,34.56a2.13,2.13,0,0,0,2.35,2.24,2.24,2.24,0,0,0,2.23-1.43l.95.24a3.41,3.41,0,0,1-6.55-1.31,3.26,3.26,0,0,1,3.4-3.47c2.27,0,3.29,1.53,3.29,3.71Zm0-.68h4.66a2.13,2.13,0,0,0-2.31-2.12A2.22,2.22,0,0,0,59,33.88Z"/><path class="cls-4" d="M75.28,37.58V33.37a1.42,1.42,0,0,0-1.58-1.63,1.76,1.76,0,0,0-1.82,1.76v4.09h-1V33.37a1.45,1.45,0,0,0-1.63-1.63,1.43,1.43,0,0,0-.65.16c-.95.3-1.12,1.27-1.12,2.16v3.52h-1V31h1c0,.39,0,.8,0,1.19h0a2,2,0,0,1,2.12-1.31,2.08,2.08,0,0,1,2.13,1.35A2.32,2.32,0,0,1,74,30.83a2.08,2.08,0,0,1,2.36,2.28v4.47Z"/><path class="cls-4" d="M79.43,36.27c0,.51,0,1,0,1.54v2.08h-1V31h1v.61c0,.24,0,.73,0,.73A2.93,2.93,0,0,1,82,30.83a3.13,3.13,0,0,1,3.23,3.46,3.14,3.14,0,0,1-3.27,3.46A2.69,2.69,0,0,1,79.43,36.27Zm.05-2a2.26,2.26,0,0,0,2.38,2.58,2.31,2.31,0,0,0,2.3-2.54,2.31,2.31,0,0,0-2.28-2.54A2.34,2.34,0,0,0,79.48,34.26Z"/><path class="cls-4" d="M87.62,34.56A2.13,2.13,0,0,0,90,36.8a2.24,2.24,0,0,0,2.23-1.43l.95.24A3.41,3.41,0,0,1,86.6,34.3,3.26,3.26,0,0,1,90,30.83c2.27,0,3.29,1.53,3.29,3.71Zm0-.68h4.66A2.13,2.13,0,0,0,90,31.76,2.22,2.22,0,0,0,87.62,33.88Z"/><path class="cls-4" d="M98.44,31.83c-2,0-2.36,1.58-2.36,3.13v2.62H95V31h1c0,.58,0,1.12-.05,1.66a2.57,2.57,0,0,1,2.43-1.81Z"/><path class="cls-4" d="M105,37.58V36.22a2.65,2.65,0,0,1-2.52,1.49,3.16,3.16,0,0,1-3.25-3.4,3.22,3.22,0,0,1,3.33-3.47A2.85,2.85,0,0,1,105,32.28s0-.84,0-1.28h1v6.59Zm-4.74-3.28a2.26,2.26,0,0,0,2.29,2.5,2.35,2.35,0,0,0,2.4-2.5,2.27,2.27,0,0,0-2.4-2.54A2.34,2.34,0,0,0,100.24,34.3Z"/><path class="cls-4" d="M109.69,31.86v4.39c0,.31.19.57.74.57a1.88,1.88,0,0,0,.77-.16v.77a2.55,2.55,0,0,1-1.27.3,1.15,1.15,0,0,1-1.28-1.11V31.86h-1.27V31h1.27v-1.7h1V31h1.51v.86Z"/><path class="cls-4" d="M117.79,37.58l0-1.24h0a2.43,2.43,0,0,1-2.36,1.38,2.35,2.35,0,0,1-2.63-2.5V31h1v4.1a1.6,1.6,0,0,0,1.82,1.69,2,2,0,0,0,2.12-2.16V31h1v6.59Z"/><path class="cls-4" d="M124.28,31.83c-2,0-2.36,1.58-2.36,3.13v2.62h-1V31h1c0,.58,0,1.12-.05,1.66a2.57,2.57,0,0,1,2.43-1.81Z"/><path class="cls-4" d="M130.81,37.58V36.22a2.65,2.65,0,0,1-2.52,1.49A3.16,3.16,0,0,1,125,34.3a3.22,3.22,0,0,1,3.33-3.47,2.85,2.85,0,0,1,2.49,1.44s0-.84,0-1.28h1v6.59Zm-4.74-3.28a2.26,2.26,0,0,0,2.29,2.5,2.35,2.35,0,0,0,2.4-2.5,2.27,2.27,0,0,0-2.4-2.54A2.34,2.34,0,0,0,126.07,34.3Z"/><path class="cls-4" d="M14,47.85a3.27,3.27,0,0,1,3.48-3.52,2.85,2.85,0,0,1,3,2.16l-.95.28a1.93,1.93,0,0,0-2.11-1.51A2.34,2.34,0,0,0,15,47.85a2.22,2.22,0,0,0,2.34,2.44,2.46,2.46,0,0,0,2.28-1.54l.92.2a3,3,0,0,1-3.19,2.24A3.15,3.15,0,0,1,14,47.85Z"/><path class="cls-4" d="M21.85,47.78a3.25,3.25,0,0,1,3.42-3.46,3.44,3.44,0,0,1,0,6.89A3.25,3.25,0,0,1,21.85,47.78Zm1,0a2.32,2.32,0,0,0,2.42,2.53,2.36,2.36,0,0,0,2.43-2.53,2.29,2.29,0,0,0-2.43-2.54A2.31,2.31,0,0,0,22.85,47.78Z"/><path class="cls-4" d="M33.89,45.33c-2,0-2.36,1.58-2.36,3.13v2.62h-1V44.49h1c0,.58,0,1.12-.05,1.66a2.57,2.57,0,0,1,2.43-1.81Z"/><path class="cls-4" d="M36.21,49.77c0,.51,0,1,0,1.54v2.08h-1v-8.9h1v.61c0,.24,0,.73,0,.73a2.93,2.93,0,0,1,2.57-1.5A3.13,3.13,0,0,1,42,47.78a3.14,3.14,0,0,1-3.27,3.46A2.69,2.69,0,0,1,36.21,49.77Zm.05-2a2.26,2.26,0,0,0,2.38,2.58,2.55,2.55,0,0,0,0-5.08A2.34,2.34,0,0,0,36.26,47.76Z"/><path class="cls-4" d="M43.38,47.78a3.42,3.42,0,1,1,3.4,3.43A3.25,3.25,0,0,1,43.38,47.78Zm1,0a2.32,2.32,0,0,0,2.42,2.53,2.36,2.36,0,0,0,2.43-2.53,2.43,2.43,0,1,0-4.85,0Z"/><path class="cls-4" d="M55.42,45.33c-2,0-2.36,1.58-2.36,3.13v2.62H52V44.49h1c0,.58,0,1.12-.05,1.66a2.57,2.57,0,0,1,2.43-1.81Z"/><path class="cls-4" d="M61.95,51.08V49.72a2.65,2.65,0,0,1-2.52,1.49,3.16,3.16,0,0,1-3.25-3.4,3.22,3.22,0,0,1,3.34-3.47A2.85,2.85,0,0,1,62,45.77s0-.84,0-1.28h1v6.59ZM57.21,47.8a2.26,2.26,0,0,0,2.3,2.5,2.35,2.35,0,0,0,2.4-2.5,2.27,2.27,0,0,0-2.4-2.54A2.34,2.34,0,0,0,57.21,47.8Z"/><path class="cls-4" d="M65,51.08V41.92h1v9.16Z"/><path class="cls-4" d="M76.23,51.08V49.73a2.83,2.83,0,0,1-2.57,1.49,3.14,3.14,0,0,1-3.21-3.44A3.17,3.17,0,0,1,73.7,44.3a2.91,2.91,0,0,1,2.57,1.44s0-1,0-1.54V41.92h1v9.16ZM71.5,47.77a2.27,2.27,0,0,0,2.29,2.54,2.38,2.38,0,0,0,2.4-2.54,2.28,2.28,0,0,0-2.4-2.55A2.34,2.34,0,0,0,71.5,47.77Z"/><path class="cls-4" d="M80,48.05a2.13,2.13,0,0,0,2.35,2.24,2.24,2.24,0,0,0,2.23-1.43l.95.24A3.41,3.41,0,0,1,79,47.8a3.26,3.26,0,0,1,3.4-3.47c2.27,0,3.29,1.53,3.29,3.71Zm0-.68h4.66a2.13,2.13,0,0,0-2.31-2.12A2.22,2.22,0,0,0,80,47.38Z"/><path class="cls-4" d="M90.13,51.08V41.92h1v9.16Z"/><path class="cls-4" d="M98.69,51.08V49.72a2.65,2.65,0,0,1-2.52,1.49,3.16,3.16,0,0,1-3.25-3.4,3.22,3.22,0,0,1,3.33-3.47,2.85,2.85,0,0,1,2.49,1.44s0-.84,0-1.28h1v6.59ZM94,47.8a2.26,2.26,0,0,0,2.29,2.5,2.35,2.35,0,0,0,2.4-2.5,2.27,2.27,0,0,0-2.4-2.54A2.34,2.34,0,0,0,94,47.8Z"/><path class="cls-4" d="M101.44,49l1.05,0c0,.9.69,1.43,1.93,1.43.8,0,1.73-.36,1.73-1.16,0-1.73-4.55-.24-4.55-3,0-1.2,1.28-1.93,2.65-1.93,1.86,0,2.75.84,2.86,2.19l-1.05.07c-.07-.89-.67-1.38-1.84-1.38-.84,0-1.62.42-1.62,1.11,0,1.63,4.58.27,4.58,2.92,0,1.36-1.4,2-2.81,2C102.46,51.2,101.5,50.4,101.44,49Z"/><path class="cls-4" d="M112.76,49.77c0,.51,0,1,0,1.54v2.08h-1v-8.9h1v.61c0,.24,0,.73,0,.73a2.93,2.93,0,0,1,2.57-1.5,3.13,3.13,0,0,1,3.23,3.46,3.14,3.14,0,0,1-3.27,3.46A2.69,2.69,0,0,1,112.76,49.77Zm.05-2a2.26,2.26,0,0,0,2.38,2.58,2.55,2.55,0,0,0,0-5.08A2.34,2.34,0,0,0,112.81,47.76Z"/><path class="cls-4" d="M121,48.05a2.13,2.13,0,0,0,2.35,2.24,2.24,2.24,0,0,0,2.23-1.43l.95.24a3.41,3.41,0,0,1-6.55-1.31,3.26,3.26,0,0,1,3.4-3.47c2.27,0,3.29,1.53,3.29,3.71Zm0-.68h4.66a2.13,2.13,0,0,0-2.31-2.12A2.22,2.22,0,0,0,121,47.38Z"/><path class="cls-4" d="M131.77,45.33c-2,0-2.36,1.58-2.36,3.13v2.62h-1V44.49h1c0,.58,0,1.12-.05,1.66a2.57,2.57,0,0,1,2.43-1.81Z"/><path class="cls-4" d="M132.78,49l1.05,0c0,.9.69,1.43,1.93,1.43.8,0,1.73-.36,1.73-1.16,0-1.73-4.55-.24-4.55-3,0-1.2,1.28-1.93,2.65-1.93,1.86,0,2.75.84,2.86,2.19l-1.05.07c-.07-.89-.67-1.38-1.84-1.38-.84,0-1.62.42-1.62,1.11,0,1.63,4.58.27,4.58,2.92,0,1.36-1.4,2-2.81,2C133.81,51.2,132.85,50.4,132.78,49Z"/><path class="cls-4" d="M139.95,47.78a3.42,3.42,0,1,1,3.4,3.43A3.25,3.25,0,0,1,139.95,47.78Zm1,0a2.32,2.32,0,0,0,2.42,2.53,2.36,2.36,0,0,0,2.43-2.53,2.43,2.43,0,1,0-4.85,0Z"/><path class="cls-4" d="M153.58,51.08V46.87c0-1-.68-1.63-1.85-1.63a2,2,0,0,0-2.11,2.05v3.79h-1V44.49h1c0,.39,0,.78,0,1.17h0A2.51,2.51,0,0,1,152,44.33a2.33,2.33,0,0,1,2.62,2.28v4.47Z"/><path class="cls-4" d="M162.07,51.08V49.72a2.65,2.65,0,0,1-2.52,1.49,3.16,3.16,0,0,1-3.25-3.4,3.22,3.22,0,0,1,3.33-3.47,2.85,2.85,0,0,1,2.49,1.44s0-.84,0-1.28h1v6.59Zm-4.74-3.28a2.26,2.26,0,0,0,2.29,2.5,2.35,2.35,0,0,0,2.4-2.5,2.27,2.27,0,0,0-2.4-2.54A2.34,2.34,0,0,0,157.33,47.8Z"/><path class="cls-4" d="M164.81,49l1.05,0c0,.9.69,1.43,1.93,1.43.8,0,1.73-.36,1.73-1.16,0-1.73-4.55-.24-4.55-3,0-1.2,1.28-1.93,2.65-1.93,1.86,0,2.75.84,2.86,2.19l-1.05.07c-.07-.89-.67-1.38-1.84-1.38-.84,0-1.62.42-1.62,1.11,0,1.63,4.58.27,4.58,2.92,0,1.36-1.4,2-2.81,2C165.84,51.2,164.88,50.4,164.81,49Z"/><path class="cls-5" d="M15.52,14.77H14V13.29h4.6v1.48H17v8.28H15.52Z"/><path class="cls-5" d="M21.21,23.05V13.29H25.4v1.48H22.68v2.66h2v1.48h-2v2.66H25.4v1.48Z"/><path class="cls-5" d="M30.39,13.29a2.24,2.24,0,0,1,1.81.68,2.46,2.46,0,0,1,.51,1.65V17a2.28,2.28,0,0,1-.79,1.75L33,23.05H31.41l-.89-3.68h-1v3.68H28.06V13.29Zm.88,2.35a.75.75,0,0,0-.84-.85h-.89v3.12h.89a.8.8,0,0,0,.6-.25.82.82,0,0,0,.25-.6Z"/><path class="cls-5" d="M37.14,23.05H35.67V13.29h2.11l1.37,7,1.32-7h2v9.77H41V16.91l-1.28,6.14H38.56l-1.42-6.12Z"/><path class="cls-5" d="M47.5,13.17a2.33,2.33,0,0,1,2.34,2.34v5.33a2.33,2.33,0,1,1-4.67,0V15.51a2.33,2.33,0,0,1,2.33-2.34Zm.8,2.31a.84.84,0,0,0-.84-.84.82.82,0,0,0-.6.25.81.81,0,0,0-.25.6v5.34a.8.8,0,0,0,.25.6.82.82,0,0,0,.6.25.84.84,0,0,0,.84-.84Z"/><path class="cls-5" d="M54,23.05H52.51V13.29h2.11l1.37,7,1.32-7h2v9.77H57.87V16.91L56.6,23.05H55.41L54,16.93Z"/><path class="cls-5" d="M62,23.05V13.29h4.19v1.48H63.5v2.66h2v1.48h-2v2.66h2.72v1.48Z"/><path class="cls-5" d="M70.45,14.77H68.88V13.29h4.6v1.48H71.92v8.28H70.45Z"/><path class="cls-5" d="M78.46,13.29a2.24,2.24,0,0,1,1.81.68,2.46,2.46,0,0,1,.51,1.65V17A2.28,2.28,0,0,1,80,18.79l1.09,4.26H79.49l-.89-3.68h-1v3.68H76.14V13.29Zm.88,2.35a.75.75,0,0,0-.84-.85h-.89v3.12h.89a.8.8,0,0,0,.6-.25.82.82,0,0,0,.25-.6Z"/><path class="cls-5" d="M85.92,13.17a2.33,2.33,0,0,1,2.34,2.34v5.33a2.33,2.33,0,1,1-4.67,0V15.51a2.33,2.33,0,0,1,2.33-2.34Zm.8,2.31a.84.84,0,0,0-.84-.84.82.82,0,0,0-.6.25.81.81,0,0,0-.25.6v5.34a.8.8,0,0,0,.25.6.82.82,0,0,0,.6.25.84.84,0,0,0,.84-.84Z"/><path class="cls-5" d="M93.48,23.05V13.29h2.2a2.81,2.81,0,0,1,1.57.46A2.14,2.14,0,0,1,98.12,15a3.43,3.43,0,0,1,.14,1,2.29,2.29,0,0,1-.52,1.57,1.48,1.48,0,0,1-.51.38,1.71,1.71,0,0,1,.83.74,2.89,2.89,0,0,1,.33,1,3.87,3.87,0,0,1,.05.68,3.26,3.26,0,0,1-.35,1.57,2.1,2.1,0,0,1-.77.81,2.12,2.12,0,0,1-1.11.34Zm1.59-5.78h.62a.9.9,0,0,0,.92-.67,1.89,1.89,0,0,0,.09-.62,1.29,1.29,0,0,0-.3-.92.93.93,0,0,0-.71-.29h-.62Zm0,4.32h.62a1,1,0,0,0,1-.77,1.69,1.69,0,0,0,.1-.61A1.85,1.85,0,0,0,96.51,19a1,1,0,0,0-.83-.34h-.62Z"/><path class="cls-5" d="M103.43,23.16a2.31,2.31,0,0,1-2.33-2.32V13.29h1.44v7.53a.8.8,0,0,0,.25.6.82.82,0,0,0,.6.25.84.84,0,0,0,.84-.84V13.29h1.54v7.55a2.22,2.22,0,0,1-.69,1.65A2.28,2.28,0,0,1,103.43,23.16Z"/><path class="cls-5" d="M110.77,23.18a2.33,2.33,0,0,1-2.34-2.33V15.52a2.33,2.33,0,1,1,4.67,0v1.11h-1.53V15.49a.85.85,0,0,0-.85-.85.81.81,0,0,0-.6.25.82.82,0,0,0-.25.6v5.34a.84.84,0,0,0,.84.84.82.82,0,0,0,.6-.25.8.8,0,0,0,.25-.6V19.49h1.53v1.36a2.33,2.33,0,0,1-2.33,2.33Z"/><path class="cls-5" d="M117.5,20.81l-.36,2.24h-1.53l1.66-9.76h2l1.63,9.76h-1.55L119,20.81Zm.77-5.28-.54,3.85h1.09Z"/><path class="cls-5" d="M127.61,23.05h-4V13.29h1.47v8.29h2.54Z"/></g></g></g></svg>