<svg xmlns="http://www.w3.org/2000/svg" viewBox="0 0 228.64 75.59"><defs><style>.cls-1{isolation:isolate;}.cls-2{opacity:0.6;mix-blend-mode:overlay;}.cls-3{fill:#fff;}.cls-4{fill:#8f8f8f;}.cls-5{fill:#3764cb;}</style></defs><title>a_5</title><g class="cls-1"><g id="Capa_2" data-name="Capa 2"><g id="_4" data-name="4"><g class="cls-2"><rect y="14.97" width="224.84" height="60.63" rx="10.15" ry="10.15"/></g><rect class="cls-3" width="228.64" height="70.73" rx="10.39" ry="10.39"/><path class="cls-4" d="M12,38.46,13,38.38C13.1,40,14.32,40.56,16,40.56c1.26,0,2.54-.62,2.54-1.74,0-2.67-6.39-.58-6.39-4.32,0-1.51,1.31-2.44,3.74-2.44s3.54.9,3.63,2.67l-1.13.09C18.25,33.43,17.26,33,15.8,33c-1.75,0-2.54.63-2.54,1.53,0,2.73,6.41.54,6.41,4.27a.81.81,0,0,1-.07.31c-.16,1.66-2,2.35-3.65,2.35C13.72,41.45,12,40.67,12,38.46Z"/><path class="cls-4" d="M22.13,38.31a2.13,2.13,0,0,0,2.35,2.24,2.24,2.24,0,0,0,2.23-1.43l.95.24a3.12,3.12,0,0,1-3.2,2.09,3.13,3.13,0,0,1-3.35-3.4,3.26,3.26,0,0,1,3.4-3.47c2.27,0,3.29,1.53,3.29,3.71Zm0-.68h4.66a2.13,2.13,0,0,0-2.31-2.12A2.22,2.22,0,0,0,22.13,37.63Z"/><path class="cls-4" d="M37.24,41.33l0-1.24h0a2.43,2.43,0,0,1-2.36,1.38A2.35,2.35,0,0,1,32.19,39V34.74h1v4.1a1.6,1.6,0,0,0,1.82,1.69,2,2,0,0,0,2.12-2.16V34.74h1v6.59Z"/><path class="cls-4" d="M42,35.61V40c0,.31.19.57.74.57a1.88,1.88,0,0,0,.77-.16v.77a2.55,2.55,0,0,1-1.27.3A1.15,1.15,0,0,1,41,40.36V35.61H39.71v-.86H41V33h1v1.7h1.51v.86Z"/><path class="cls-4" d="M45.11,32.66a.51.51,0,0,1,.54-.53.5.5,0,0,1,.53.53v.62a.5.5,0,0,1-.53.51.51.51,0,0,1-.54-.51Zm0,8.67V34.74h1v6.59Z"/><path class="cls-4" d="M48.34,41.33V32.18h1v9.16Z"/><path class="cls-4" d="M51.54,32.66a.51.51,0,0,1,.54-.53.5.5,0,0,1,.53.53v.62a.5.5,0,0,1-.53.51.51.51,0,0,1-.54-.51Zm0,8.67V34.74h1v6.59Z"/><path class="cls-4" d="M54.2,41.33v-.8l4.35-4.9h-4v-.89H60v.78l-4.36,4.92H60.2v.89Z"/><path class="cls-4" d="M66.9,41.33V40a2.65,2.65,0,0,1-2.52,1.49,3.16,3.16,0,0,1-3.25-3.4,3.22,3.22,0,0,1,3.33-3.47A2.85,2.85,0,0,1,66.94,36s0-.84,0-1.28h1v6.59Zm-4.74-3.28a2.26,2.26,0,0,0,2.29,2.5,2.35,2.35,0,0,0,2.4-2.5,2.27,2.27,0,0,0-2.4-2.54A2.34,2.34,0,0,0,62.16,38.05Z"/><path class="cls-4" d="M73.59,40c0,.51,0,1,0,1.54v2.08h-1v-8.9h1v.61c0,.24,0,.73,0,.73a2.93,2.93,0,0,1,2.57-1.5A3.13,3.13,0,0,1,79.37,38a3.14,3.14,0,0,1-3.27,3.46A2.69,2.69,0,0,1,73.59,40Zm.05-2A2.26,2.26,0,0,0,76,40.59a2.31,2.31,0,0,0,2.3-2.54A2.31,2.31,0,0,0,76,35.51,2.34,2.34,0,0,0,73.65,38Z"/><path class="cls-4" d="M86.58,41.33V40a2.65,2.65,0,0,1-2.52,1.49,3.16,3.16,0,0,1-3.25-3.4,3.22,3.22,0,0,1,3.34-3.47A2.85,2.85,0,0,1,86.62,36s0-.84,0-1.28h1v6.59Zm-4.74-3.28a2.26,2.26,0,0,0,2.3,2.5,2.35,2.35,0,0,0,2.4-2.5,2.27,2.27,0,0,0-2.4-2.54A2.34,2.34,0,0,0,81.84,38.05Z"/><path class="cls-4" d="M93.11,35.58c-2,0-2.36,1.58-2.36,3.13v2.62h-1V34.74h1c0,.58,0,1.12-.05,1.66a2.57,2.57,0,0,1,2.43-1.81Z"/><path class="cls-4" d="M99.68,41.33V40a2.65,2.65,0,0,1-2.52,1.49,3.16,3.16,0,0,1-3.25-3.4,3.22,3.22,0,0,1,3.33-3.47A2.85,2.85,0,0,1,99.72,36s0-.84,0-1.28h1v6.59Zm-4.74-3.28a2.26,2.26,0,0,0,2.29,2.5,2.35,2.35,0,0,0,2.4-2.5,2.27,2.27,0,0,0-2.4-2.54A2.34,2.34,0,0,0,94.94,38.05Z"/><path class="cls-4" d="M105.35,41.33V32.18h1v9.16Z"/><path class="cls-4" d="M114,41.33V40a2.65,2.65,0,0,1-2.52,1.49,3.16,3.16,0,0,1-3.25-3.4,3.22,3.22,0,0,1,3.33-3.47A2.85,2.85,0,0,1,114,36s0-.84,0-1.28h1v6.59Zm-4.74-3.28a2.26,2.26,0,0,0,2.29,2.5,2.35,2.35,0,0,0,2.4-2.5,2.27,2.27,0,0,0-2.4-2.54A2.34,2.34,0,0,0,109.22,38.05Z"/><path class="cls-4" d="M119.62,41.33V32.18h1v9.16Z"/><path class="cls-4" d="M122.82,32.66a.51.51,0,0,1,.54-.53.5.5,0,0,1,.53.53v.62a.5.5,0,0,1-.53.51.51.51,0,0,1-.54-.51Zm0,8.67V34.74h1v6.59Z"/><path class="cls-4" d="M134.95,41.33V37.12a1.42,1.42,0,0,0-1.58-1.63,1.76,1.76,0,0,0-1.82,1.76v4.09h-1V37.12a1.45,1.45,0,0,0-1.63-1.63,1.43,1.43,0,0,0-.65.16c-.95.3-1.12,1.27-1.12,2.16v3.52h-1V34.74h1c0,.39,0,.8,0,1.19h0a2,2,0,0,1,2.12-1.31A2.08,2.08,0,0,1,131.34,36a2.32,2.32,0,0,1,2.28-1.39A2.08,2.08,0,0,1,136,36.86v4.47Z"/><path class="cls-4" d="M139.14,40c0,.51,0,1,0,1.54v2.08h-1v-8.9h1v.61c0,.24,0,.73,0,.73a2.93,2.93,0,0,1,2.57-1.5A3.13,3.13,0,0,1,144.92,38a3.14,3.14,0,0,1-3.27,3.46A2.69,2.69,0,0,1,139.14,40Zm.05-2a2.26,2.26,0,0,0,2.38,2.58,2.31,2.31,0,0,0,2.3-2.54,2.31,2.31,0,0,0-2.28-2.54A2.34,2.34,0,0,0,139.2,38Z"/><path class="cls-4" d="M146.72,32.66a.51.51,0,0,1,.54-.53.5.5,0,0,1,.53.53v.62a.5.5,0,0,1-.53.51.51.51,0,0,1-.54-.51Zm0,8.67V34.74h1v6.59Z"/><path class="cls-4" d="M150.6,38.31a2.13,2.13,0,0,0,2.35,2.24,2.24,2.24,0,0,0,2.23-1.43l.95.24a3.41,3.41,0,0,1-6.55-1.31,3.26,3.26,0,0,1,3.4-3.47c2.27,0,3.29,1.53,3.29,3.71Zm0-.68h4.66a2.13,2.13,0,0,0-2.31-2.12A2.22,2.22,0,0,0,150.6,37.63Z"/><path class="cls-4" d="M157.36,41.33v-.8l4.35-4.9h-4v-.89h5.5v.78l-4.36,4.92h4.56v.89Z"/><path class="cls-4" d="M170.06,41.33V40a2.65,2.65,0,0,1-2.52,1.49,3.16,3.16,0,0,1-3.25-3.4,3.22,3.22,0,0,1,3.33-3.47A2.85,2.85,0,0,1,170.1,36s0-.84,0-1.28h1v6.59Zm-4.74-3.28a2.26,2.26,0,0,0,2.29,2.5,2.35,2.35,0,0,0,2.4-2.5,2.27,2.27,0,0,0-2.4-2.54A2.34,2.34,0,0,0,165.32,38.05Z"/><path class="cls-4" d="M181.07,41.33V40a2.83,2.83,0,0,1-2.57,1.49A3.14,3.14,0,0,1,175.29,38a3.17,3.17,0,0,1,3.25-3.47A2.91,2.91,0,0,1,181.11,36s0-1,0-1.54V32.18h1v9.16ZM176.35,38a2.27,2.27,0,0,0,2.29,2.54A2.38,2.38,0,0,0,181,38a2.28,2.28,0,0,0-2.4-2.55A2.34,2.34,0,0,0,176.35,38Z"/><path class="cls-4" d="M184.93,38.31a2.13,2.13,0,0,0,2.35,2.24,2.24,2.24,0,0,0,2.23-1.43l.95.24a3.41,3.41,0,0,1-6.55-1.31,3.26,3.26,0,0,1,3.4-3.47c2.27,0,3.29,1.53,3.29,3.71Zm0-.68h4.66a2.13,2.13,0,0,0-2.31-2.12A2.22,2.22,0,0,0,184.93,37.63Z"/><path class="cls-4" d="M17.45,56.52v-4.2a1.65,1.65,0,0,0-1.85-1.65c-1.55,0-2.11,1-2.11,2.4v3.44h-1V47.36h1V50c0,.55,0,.58,0,1.05h0a2.55,2.55,0,0,1,2.39-1.34,2.36,2.36,0,0,1,2.62,2.31v4.44Z"/><path class="cls-4" d="M21.24,53.49a2.13,2.13,0,0,0,2.35,2.24,2.24,2.24,0,0,0,2.23-1.43l.95.24a3.12,3.12,0,0,1-3.2,2.09,3.13,3.13,0,0,1-3.35-3.4,3.26,3.26,0,0,1,3.4-3.47c2.27,0,3.29,1.53,3.29,3.71Zm0-.68H25.9a2.13,2.13,0,0,0-2.31-2.12A2.22,2.22,0,0,0,21.24,52.82Z"/><path class="cls-4" d="M32.11,50.76c-2,0-2.36,1.58-2.36,3.13v2.62h-1V49.93h1c0,.58,0,1.12-.05,1.66a2.57,2.57,0,0,1,2.43-1.81Z"/><path class="cls-4" d="M33.45,47.85a.51.51,0,0,1,.54-.53.5.5,0,0,1,.53.53v.62A.5.5,0,0,1,34,49a.51.51,0,0,1-.54-.51Zm0,8.67V49.93h1v6.59Z"/><path class="cls-4" d="M42.08,56.52V55.17a2.83,2.83,0,0,1-2.57,1.49,3.14,3.14,0,0,1-3.21-3.44,3.17,3.17,0,0,1,3.25-3.47,2.91,2.91,0,0,1,2.57,1.44s0-1,0-1.54V47.36h1v9.16Zm-4.73-3.31a2.27,2.27,0,0,0,2.29,2.54,2.38,2.38,0,0,0,2.4-2.54,2.28,2.28,0,0,0-2.4-2.55A2.34,2.34,0,0,0,37.35,53.21Z"/><path class="cls-4" d="M50.69,56.52V55.15a2.65,2.65,0,0,1-2.52,1.49,3.16,3.16,0,0,1-3.25-3.4,3.22,3.22,0,0,1,3.34-3.47,2.85,2.85,0,0,1,2.48,1.44s0-.84,0-1.28h1v6.59Zm-4.74-3.28a2.26,2.26,0,0,0,2.3,2.5,2.35,2.35,0,0,0,2.4-2.5,2.27,2.27,0,0,0-2.4-2.54A2.34,2.34,0,0,0,45.95,53.24Z"/><path class="cls-4" d="M53.47,54.44l1.05,0c0,.9.69,1.43,1.93,1.43.8,0,1.73-.36,1.73-1.16,0-1.73-4.55-.24-4.55-3,0-1.2,1.28-1.93,2.65-1.93,1.86,0,2.75.84,2.86,2.19L58.09,52c-.07-.89-.67-1.38-1.84-1.38-.84,0-1.62.42-1.62,1.11,0,1.63,4.58.27,4.58,2.92,0,1.36-1.4,2-2.81,2C54.5,56.64,53.54,55.84,53.47,54.44Z"/><path class="cls-4" d="M61.16,56.52V55.06h1.11v1.46Z"/><path class="cls-5" d="M14.28,25.42a2.33,2.33,0,0,1-2.34-2.33V17.77a2.34,2.34,0,0,1,4-1.65,2.27,2.27,0,0,1,.68,1.65v1.11H15.08V17.74a.85.85,0,0,0-.85-.85.81.81,0,0,0-.6.25.82.82,0,0,0-.25.6v5.34a.84.84,0,0,0,.84.84.83.83,0,0,0,.6-.24.8.8,0,0,0,.25-.59V21.16h-.82V19.68h2.34v3.41a2.33,2.33,0,0,1-2.33,2.33Z"/><path class="cls-5" d="M21,23.05l-.36,2.24H19.13l1.66-9.76h2l1.63,9.76H22.9l-.34-2.24Zm.77-5.28-.54,3.85h1.09Z"/><path class="cls-5" d="M31.8,22.87a2.74,2.74,0,0,1-.53,1.74,1.91,1.91,0,0,1-1,.69,2.76,2.76,0,0,1-.82.11A2.31,2.31,0,0,1,28,25a2.4,2.4,0,0,1-.75-1,3.87,3.87,0,0,1-.32-1.38l1.4-.1a2.13,2.13,0,0,0,.45,1.24.75.75,0,0,0,.61.27.91.91,0,0,0,.77-.48,1.18,1.18,0,0,0,.15-.65,1.8,1.8,0,0,0-.55-1.21l-1.31-1.24a5.58,5.58,0,0,1-1-1.27,2.94,2.94,0,0,1-.33-1.37,2.39,2.39,0,0,1,.9-2,2.23,2.23,0,0,1,1.37-.41,2.49,2.49,0,0,1,1.35.35,2,2,0,0,1,.71.76,2.81,2.81,0,0,1,.32,1.13l-1.41.26A1.7,1.7,0,0,0,30,17a.72.72,0,0,0-.58-.24.67.67,0,0,0-.62.36,1.38,1.38,0,0,0-.17.72,2.15,2.15,0,0,0,.58,1.36,4.88,4.88,0,0,0,.65.62q.51.43.68.6a5,5,0,0,1,.84,1.07,4.21,4.21,0,0,1,.23.46A2.68,2.68,0,0,1,31.8,22.87Z"/><path class="cls-5" d="M36.19,23.05l-.36,2.24H34.3L36,15.54h2l1.63,9.76H38.08l-.34-2.24ZM37,17.77l-.54,3.85h1.09Z"/><path class="cls-5" d="M44.85,25.3V15.53H49V17H46.32v2.66h2v1.48h-2v2.66H49V25.3Z"/><path class="cls-5" d="M56.49,22.87A2.74,2.74,0,0,1,56,24.61a1.91,1.91,0,0,1-1,.69,2.76,2.76,0,0,1-.82.11A2.31,2.31,0,0,1,52.69,25a2.4,2.4,0,0,1-.75-1,3.87,3.87,0,0,1-.32-1.38l1.4-.1a2.13,2.13,0,0,0,.45,1.24.75.75,0,0,0,.61.27.91.91,0,0,0,.77-.48,1.18,1.18,0,0,0,.15-.65,1.8,1.8,0,0,0-.55-1.21l-1.31-1.24a5.58,5.58,0,0,1-1-1.27,2.94,2.94,0,0,1-.33-1.37,2.39,2.39,0,0,1,.9-2A2.23,2.23,0,0,1,54,15.41a2.49,2.49,0,0,1,1.35.35,2,2,0,0,1,.71.76,2.81,2.81,0,0,1,.32,1.13L55,17.91a1.7,1.7,0,0,0-.34-.93.72.72,0,0,0-.58-.24.67.67,0,0,0-.62.36,1.38,1.38,0,0,0-.17.72,2.15,2.15,0,0,0,.58,1.36,4.88,4.88,0,0,0,.65.62q.51.43.68.6A5,5,0,0,1,56,21.47a4.21,4.21,0,0,1,.23.46A2.68,2.68,0,0,1,56.49,22.87Z"/><path class="cls-5" d="M60.64,17H59.07V15.54h4.6V17H62.11V25.3H60.64Z"/><path class="cls-5" d="M66.33,25.3V15.53h4.19V17H67.81v2.66h2v1.48h-2v2.66h2.72V25.3Z"/><path class="cls-5" d="M75.51,15.54a2.24,2.24,0,0,1,1.81.68,2.46,2.46,0,0,1,.51,1.65v1.42A2.28,2.28,0,0,1,77,21l1.09,4.26H76.53l-.89-3.68h-1V25.3H73.19V15.54Zm.88,2.35a.75.75,0,0,0-.84-.85h-.89v3.12h.89a.8.8,0,0,0,.6-.25.82.82,0,0,0,.25-.6Z"/><path class="cls-5" d="M82.26,25.3H80.79V15.54h1.47Z"/><path class="cls-5" d="M89,25.3h-4V15.54h1.47v8.29H89Z"/><path class="cls-5" d="M93.09,25.3H91.61V15.54h1.47Z"/><path class="cls-5" d="M100,15.54V17l-2.71,6.81H100V25.3h-4.3V23.82L98.46,17H95.74V15.54Z"/><path class="cls-5" d="M104.6,23.05l-.36,2.24H102.7l1.66-9.76h2L108,25.3h-1.55l-.34-2.24Zm.77-5.28-.54,3.85h1.09Z"/><path class="cls-5" d="M115.31,23a2.27,2.27,0,0,1-.68,1.65,2.22,2.22,0,0,1-1.64.69h-2.31V15.53H113a2.21,2.21,0,0,1,1.64.69,2.26,2.26,0,0,1,.67,1.64Zm-3.15.88H113a.79.79,0,0,0,.59-.25.83.83,0,0,0,.24-.6V17.88a.82.82,0,0,0-.25-.6A.8.8,0,0,0,113,17h-.89Z"/><path class="cls-5" d="M119.71,23.05l-.36,2.24h-1.53l1.66-9.76h2l1.63,9.76h-1.55l-.34-2.24Zm.77-5.28-.54,3.85H121Z"/><path class="cls-5" d="M129.62,25.3V17.78h-1.25v-1a2.17,2.17,0,0,0,1-.4,2,2,0,0,0,.69-.82h1V25.3Z"/><path class="cls-5" d="M138.43,23.07a2.33,2.33,0,0,1-4.67,0V17.74a2.33,2.33,0,1,1,4.67,0Zm-1.53-5.36a.85.85,0,0,0-.85-.85.81.81,0,0,0-.6.25.83.83,0,0,0-.25.6V23a.82.82,0,0,0,.25.6.8.8,0,0,0,.6.25.85.85,0,0,0,.85-.85Z"/><path class="cls-5" d="M149.09,25.3h-1.58l-1.13-3.11-1.14,3.11h-1.58l1.92-4.91-1.92-4.85h1.63l1.09,3,1.08-3h1.63l-1.92,4.85Z"/><path class="cls-5" d="M155.57,25.3V17.78h-1.25v-1a2.17,2.17,0,0,0,1-.4,2,2,0,0,0,.69-.82h1V25.3Z"/><path class="cls-5" d="M164.38,23.07a2.33,2.33,0,0,1-4.67,0V17.74a2.33,2.33,0,1,1,4.67,0Zm-1.53-5.36a.85.85,0,0,0-.85-.85.81.81,0,0,0-.6.25.83.83,0,0,0-.25.6V23a.82.82,0,0,0,.25.6.8.8,0,0,0,.6.25.85.85,0,0,0,.85-.85Z"/><path class="cls-5" d="M171.94,25.42a2.33,2.33,0,0,1-2.34-2.33V17.77a2.33,2.33,0,1,1,4.67,0v1.11h-1.53V17.74a.85.85,0,0,0-.85-.85.81.81,0,0,0-.6.25.82.82,0,0,0-.25.6v5.34a.84.84,0,0,0,.84.84.82.82,0,0,0,.6-.25.8.8,0,0,0,.25-.6V21.73h1.53v1.36a2.33,2.33,0,0,1-2.33,2.33Z"/><path class="cls-5" d="M178.4,25.3h-1.47V15.53H179l1.37,7,1.32-7h2V25.3h-1.47V19.16L181,25.3h-1.18l-1.42-6.12Z"/></g></g></g></svg>