<svg xmlns="http://www.w3.org/2000/svg" viewBox="0 0 228.64 75.59"><defs><style>.cls-1{isolation:isolate;}.cls-2{opacity:0.6;mix-blend-mode:overlay;}.cls-3{fill:#fff;}.cls-4{fill:#8f8f8f;}.cls-5{fill:#3764cb;}</style></defs><title>a_6</title><g class="cls-1"><g id="Capa_2" data-name="Capa 2"><g id="_4" data-name="4"><g class="cls-2"><rect y="14.97" width="224.84" height="60.63" rx="10.15" ry="10.15"/></g><rect class="cls-3" width="228.64" height="70.73" rx="10.39" ry="10.39"/><path class="cls-4" d="M21.59,27.31a3.31,3.31,0,0,0-2.93-1.42,3.51,3.51,0,0,0-3.74,3.71,3.46,3.46,0,0,0,3.63,3.62,3.39,3.39,0,0,0,3-1.34l.95.45a4.62,4.62,0,0,1-3.86,2,4.42,4.42,0,0,1-4.78-4.65,4.51,4.51,0,0,1,4.86-4.75,4.41,4.41,0,0,1,3.89,2Z"/><path class="cls-4" d="M28.88,34.17l0-1.24h0a2.43,2.43,0,0,1-2.36,1.38,2.35,2.35,0,0,1-2.63-2.5V27.58h1v4.1a1.6,1.6,0,0,0,1.82,1.69,2,2,0,0,0,2.12-2.16V27.58h1v6.59Z"/><path class="cls-4" d="M32.8,32.81c0,.24,0,.46,0,.69s0,.45,0,.66h-1V25h1V28c0,.3,0,.88,0,.88a2.92,2.92,0,0,1,2.58-1.42c2.07,0,3.21,1.44,3.21,3.46a3.13,3.13,0,0,1-3.27,3.42A2.81,2.81,0,0,1,32.8,32.81Zm0-1.93a2.32,2.32,0,0,0,2.39,2.5,2.29,2.29,0,0,0,2.28-2.53,2.34,2.34,0,1,0-4.67,0Z"/><path class="cls-4" d="M43.57,28.41c-2,0-2.36,1.58-2.36,3.13v2.62h-1V27.58h1c0,.58,0,1.12-.05,1.66a2.57,2.57,0,0,1,2.43-1.81Z"/><path class="cls-4" d="M44.69,25.5a.51.51,0,0,1,.54-.53.5.5,0,0,1,.53.53v.62a.5.5,0,0,1-.53.51.51.51,0,0,1-.54-.51Zm0,8.67V27.58h1v6.59Z"/><path class="cls-4" d="M51.12,28.41c-2,0-2.36,1.58-2.36,3.13v2.62h-1V27.58h1c0,.58,0,1.12-.05,1.66a2.57,2.57,0,0,1,2.43-1.81Z"/><path class="cls-4" d="M60,34.17V30a1.65,1.65,0,0,0-1.85-1.65c-1.55,0-2.11,1-2.11,2.4v3.44H55V25h1v2.67c0,.55,0,.58,0,1.05h0a2.55,2.55,0,0,1,2.39-1.34A2.36,2.36,0,0,1,61,29.72v4.44Z"/><path class="cls-4" d="M63.56,31.14a2.13,2.13,0,0,0,2.35,2.24A2.24,2.24,0,0,0,68.13,32l.95.24a3.41,3.41,0,0,1-6.55-1.31,3.26,3.26,0,0,1,3.4-3.47c2.27,0,3.29,1.53,3.29,3.71Zm0-.68h4.66a2.13,2.13,0,0,0-2.31-2.12A2.22,2.22,0,0,0,63.56,30.47Z"/><path class="cls-4" d="M74.2,28.41c-2,0-2.36,1.58-2.36,3.13v2.62h-1V27.58h1c0,.58,0,1.12-.05,1.66a2.57,2.57,0,0,1,2.43-1.81Z"/><path class="cls-4" d="M75.33,25.5a.51.51,0,0,1,.54-.53.5.5,0,0,1,.53.53v.62a.5.5,0,0,1-.53.51.51.51,0,0,1-.54-.51Zm0,8.67V27.58h1v6.59Z"/><path class="cls-4" d="M83.74,34.17V32.81a2.83,2.83,0,0,1-2.57,1.49A3.14,3.14,0,0,1,78,30.86a3.17,3.17,0,0,1,3.25-3.47,2.91,2.91,0,0,1,2.57,1.44s0-1,0-1.54V25h1v9.16ZM79,30.86a2.27,2.27,0,0,0,2.29,2.54,2.38,2.38,0,0,0,2.4-2.54,2.28,2.28,0,0,0-2.4-2.55A2.34,2.34,0,0,0,79,30.86Z"/><path class="cls-4" d="M92.12,34.17V32.8a2.65,2.65,0,0,1-2.52,1.49,3.16,3.16,0,0,1-3.25-3.4,3.22,3.22,0,0,1,3.34-3.47,2.85,2.85,0,0,1,2.48,1.44s0-.84,0-1.28h1v6.59Zm-4.74-3.28a2.26,2.26,0,0,0,2.3,2.5,2.35,2.35,0,0,0,2.4-2.5,2.27,2.27,0,0,0-2.4-2.54A2.34,2.34,0,0,0,87.38,30.88Z"/><path class="cls-4" d="M94.69,32.09l1.05,0c0,.9.69,1.43,1.93,1.43.8,0,1.73-.36,1.73-1.16,0-1.73-4.55-.24-4.55-3,0-1.2,1.28-1.93,2.65-1.93,1.86,0,2.75.84,2.86,2.19l-1.05.07c-.07-.89-.67-1.38-1.84-1.38-.84,0-1.62.42-1.62,1.11,0,1.63,4.58.27,4.58,2.92,0,1.36-1.4,2-2.81,2C95.71,34.29,94.75,33.49,94.69,32.09Z"/><path class="cls-4" d="M106,32.86c0,.51,0,1,0,1.54v2.08h-1v-8.9h1v.61c0,.24,0,.73,0,.73a2.93,2.93,0,0,1,2.57-1.5,3.13,3.13,0,0,1,3.23,3.46,3.14,3.14,0,0,1-3.27,3.46A2.69,2.69,0,0,1,106,32.86Zm.05-2a2.26,2.26,0,0,0,2.38,2.58,2.31,2.31,0,0,0,2.3-2.54,2.31,2.31,0,0,0-2.28-2.54A2.34,2.34,0,0,0,106.06,30.84Z"/><path class="cls-4" d="M116.81,28.41c-2,0-2.36,1.58-2.36,3.13v2.62h-1V27.58h1c0,.58,0,1.12-.05,1.66a2.57,2.57,0,0,1,2.43-1.81Z"/><path class="cls-4" d="M117.39,30.87a3.42,3.42,0,1,1,6.85,0,3.42,3.42,0,1,1-6.85,0Zm1,0a2.32,2.32,0,0,0,2.42,2.53,2.36,2.36,0,0,0,2.43-2.53,2.43,2.43,0,1,0-4.85,0Z"/><path class="cls-4" d="M127.07,27.58h1.75v.86h-1.75v5.73h-1V28.44h-.95v-.86H126v-.28c0-1.38.95-2.38,2.69-2.38a7,7,0,0,1,.88.07v.89a6.8,6.8,0,0,0-.82-.05c-1.12,0-1.7.58-1.7,1.53Z"/><path class="cls-4" d="M135.13,34.17l0-1.24h0a2.43,2.43,0,0,1-2.36,1.38,2.35,2.35,0,0,1-2.63-2.5V27.58h1v4.1a1.6,1.6,0,0,0,1.82,1.69,2,2,0,0,0,2.12-2.16V27.58h1v6.59Z"/><path class="cls-4" d="M143,34.17V30c0-1-.68-1.63-1.85-1.63a2,2,0,0,0-2.11,2.05v3.79h-1V27.58h1c0,.39,0,.78,0,1.17h0a2.51,2.51,0,0,1,2.39-1.35,2.33,2.33,0,0,1,2.62,2.28v4.47Z"/><path class="cls-4" d="M151.36,34.17V32.81a2.83,2.83,0,0,1-2.57,1.49,3.14,3.14,0,0,1-3.21-3.44,3.17,3.17,0,0,1,3.25-3.47,2.91,2.91,0,0,1,2.57,1.44s0-1,0-1.54V25h1v9.16Zm-4.73-3.31a2.27,2.27,0,0,0,2.29,2.54,2.38,2.38,0,0,0,2.4-2.54,2.28,2.28,0,0,0-2.4-2.55A2.34,2.34,0,0,0,146.64,30.86Z"/><path class="cls-4" d="M159.75,34.17V32.8a2.65,2.65,0,0,1-2.52,1.49,3.16,3.16,0,0,1-3.25-3.4,3.22,3.22,0,0,1,3.33-3.47,2.85,2.85,0,0,1,2.49,1.44s0-.84,0-1.28h1v6.59ZM155,30.88a2.26,2.26,0,0,0,2.29,2.5,2.35,2.35,0,0,0,2.4-2.5,2.27,2.27,0,0,0-2.4-2.54A2.34,2.34,0,0,0,155,30.88Z"/><path class="cls-4" d="M162.31,32.09l1.05,0c0,.9.69,1.43,1.93,1.43.8,0,1.73-.36,1.73-1.16,0-1.73-4.55-.24-4.55-3,0-1.2,1.28-1.93,2.65-1.93,1.86,0,2.75.84,2.86,2.19l-1.05.07c-.07-.89-.67-1.38-1.84-1.38-.84,0-1.62.42-1.62,1.11,0,1.63,4.58.27,4.58,2.92,0,1.36-1.4,2-2.81,2C163.34,34.29,162.38,33.49,162.31,32.09Z"/><path class="cls-4" d="M169.79,34.17V32.71h1.11v1.46Z"/><path class="cls-4" d="M176.73,30.26v3.9h-1.05V25h3.61c2.09,0,3.35.86,3.35,2.57s-1.43,2.69-3.31,2.69Zm0-4.33v3.44h2.59c1.2,0,2.2-.63,2.2-1.73s-.84-1.71-2.25-1.71Z"/><path class="cls-4" d="M189.12,34.17V32.8a2.65,2.65,0,0,1-2.52,1.49,3.16,3.16,0,0,1-3.25-3.4,3.22,3.22,0,0,1,3.34-3.47,2.85,2.85,0,0,1,2.48,1.44s0-.84,0-1.28h1v6.59Zm-4.74-3.28a2.26,2.26,0,0,0,2.3,2.5,2.35,2.35,0,0,0,2.4-2.5,2.27,2.27,0,0,0-2.4-2.54A2.34,2.34,0,0,0,184.38,30.88Z"/><path class="cls-4" d="M195.43,28.41c-2,0-2.36,1.58-2.36,3.13v2.62h-1V27.58h1c0,.58,0,1.12-.05,1.66a2.57,2.57,0,0,1,2.43-1.81Z"/><path class="cls-4" d="M201.78,34.17V32.8a2.65,2.65,0,0,1-2.52,1.49,3.16,3.16,0,0,1-3.25-3.4,3.22,3.22,0,0,1,3.33-3.47,2.85,2.85,0,0,1,2.49,1.44s0-.84,0-1.28h1v6.59ZM197,30.88a2.26,2.26,0,0,0,2.29,2.5,2.35,2.35,0,0,0,2.4-2.5,2.27,2.27,0,0,0-2.4-2.54A2.34,2.34,0,0,0,197,30.88Z"/><path class="cls-4" d="M19.35,47.66v-4.2a1.65,1.65,0,0,0-1.85-1.65c-1.55,0-2.11,1-2.11,2.4v3.44h-1V38.51h1v2.67c0,.55,0,.58,0,1.05h0a2.55,2.55,0,0,1,2.39-1.34,2.36,2.36,0,0,1,2.62,2.31v4.44Z"/><path class="cls-4" d="M27.67,47.66V46.3a2.65,2.65,0,0,1-2.52,1.49,3.16,3.16,0,0,1-3.25-3.4,3.22,3.22,0,0,1,3.33-3.47,2.85,2.85,0,0,1,2.49,1.44s0-.84,0-1.28h1v6.59Zm-4.74-3.28a2.26,2.26,0,0,0,2.29,2.5,2.35,2.35,0,0,0,2.4-2.5,2.27,2.27,0,0,0-2.4-2.54A2.34,2.34,0,0,0,22.93,44.38Z"/><path class="cls-4" d="M30.17,44.43a3.27,3.27,0,0,1,3.48-3.52,2.85,2.85,0,0,1,3,2.16l-.95.28a1.93,1.93,0,0,0-2.11-1.51,2.34,2.34,0,0,0-2.42,2.59,2.22,2.22,0,0,0,2.34,2.44,2.46,2.46,0,0,0,2.28-1.54l.92.2a3,3,0,0,1-3.19,2.24A3.15,3.15,0,0,1,30.17,44.43Z"/><path class="cls-4" d="M38.87,44.64a2.13,2.13,0,0,0,2.35,2.24,2.24,2.24,0,0,0,2.23-1.43l.95.24a3.12,3.12,0,0,1-3.2,2.09,3.13,3.13,0,0,1-3.35-3.4,3.26,3.26,0,0,1,3.4-3.47c2.27,0,3.29,1.53,3.29,3.71Zm0-.68h4.66a2.13,2.13,0,0,0-2.31-2.12A2.22,2.22,0,0,0,38.87,44Z"/><path class="cls-4" d="M49.51,41.91c-2,0-2.36,1.58-2.36,3.13v2.62h-1V41.07h1c0,.58,0,1.12-.05,1.66a2.57,2.57,0,0,1,2.43-1.81Z"/><path class="cls-4" d="M52.94,44.43a3.27,3.27,0,0,1,3.48-3.52,2.85,2.85,0,0,1,3,2.16l-.95.28a1.93,1.93,0,0,0-2.11-1.51A2.34,2.34,0,0,0,54,44.43a2.22,2.22,0,0,0,2.34,2.44,2.46,2.46,0,0,0,2.28-1.54l.92.2a3,3,0,0,1-3.19,2.24A3.15,3.15,0,0,1,52.94,44.43Z"/><path class="cls-4" d="M60.6,44.37A3.42,3.42,0,1,1,64,47.8,3.25,3.25,0,0,1,60.6,44.37Zm1,0A2.32,2.32,0,0,0,64,46.89a2.36,2.36,0,0,0,2.43-2.53,2.43,2.43,0,1,0-4.85,0Z"/><path class="cls-4" d="M77.94,47.66V43.45a1.42,1.42,0,0,0-1.58-1.63,1.76,1.76,0,0,0-1.82,1.76v4.09h-1V43.45a1.45,1.45,0,0,0-1.63-1.63,1.43,1.43,0,0,0-.65.16c-.95.3-1.12,1.27-1.12,2.16v3.52h-1V41.07h1c0,.39,0,.8,0,1.19h0A2,2,0,0,1,72.21,41a2.08,2.08,0,0,1,2.13,1.35,2.32,2.32,0,0,1,2.28-1.39A2.08,2.08,0,0,1,79,43.19v4.47Z"/><path class="cls-4" d="M81.92,46.35c0,.51,0,1,0,1.54V50h-1v-8.9h1v.61c0,.24,0,.73,0,.73a2.93,2.93,0,0,1,2.57-1.5,3.13,3.13,0,0,1,3.23,3.46,3.14,3.14,0,0,1-3.27,3.46A2.69,2.69,0,0,1,81.92,46.35Zm.05-2a2.26,2.26,0,0,0,2.38,2.58,2.31,2.31,0,0,0,2.3-2.54,2.31,2.31,0,0,0-2.28-2.54A2.34,2.34,0,0,0,82,44.34Z"/><path class="cls-4" d="M92.72,41.91c-2,0-2.36,1.58-2.36,3.13v2.62h-1V41.07h1c0,.58,0,1.12-.05,1.66a2.57,2.57,0,0,1,2.43-1.81Z"/><path class="cls-4" d="M94.31,44.64a2.13,2.13,0,0,0,2.35,2.24,2.24,2.24,0,0,0,2.23-1.43l.95.24a3.41,3.41,0,0,1-6.55-1.31,3.26,3.26,0,0,1,3.4-3.47c2.27,0,3.29,1.53,3.29,3.71Zm0-.68H99a2.13,2.13,0,0,0-2.31-2.12A2.22,2.22,0,0,0,94.31,44Z"/><path class="cls-4" d="M101.19,45.58l1.05,0c0,.9.69,1.43,1.93,1.43.8,0,1.73-.36,1.73-1.16,0-1.73-4.55-.24-4.55-3,0-1.2,1.28-1.93,2.65-1.93,1.86,0,2.75.84,2.86,2.19l-1.05.07c-.07-.89-.67-1.38-1.84-1.38-.84,0-1.62.42-1.62,1.11,0,1.63,4.58.27,4.58,2.92,0,1.36-1.4,2-2.81,2C102.21,47.78,101.26,47,101.19,45.58Z"/><path class="cls-4" d="M108.6,39a.51.51,0,0,1,.54-.53.5.5,0,0,1,.53.53v.62a.5.5,0,0,1-.53.51.51.51,0,0,1-.54-.51Zm0,8.67V41.07h1v6.59Z"/><path class="cls-4" d="M111.21,44.37a3.42,3.42,0,1,1,3.4,3.43A3.25,3.25,0,0,1,111.21,44.37Zm1,0a2.32,2.32,0,0,0,2.42,2.53,2.36,2.36,0,0,0,2.43-2.53,2.43,2.43,0,1,0-4.85,0ZM116,37.68c.23.24.43.5.65.74l-2.24,1.94c-.19-.2-.37-.42-.54-.62Z"/><path class="cls-4" d="M124.66,47.66V43.45c0-1-.68-1.63-1.85-1.63a2,2,0,0,0-2.11,2.05v3.79h-1V41.07h1c0,.39,0,.78,0,1.17h0a2.51,2.51,0,0,1,2.39-1.35,2.33,2.33,0,0,1,2.62,2.28v4.47Z"/><path class="cls-4" d="M135.79,47.66V46.31a2.83,2.83,0,0,1-2.57,1.49A3.14,3.14,0,0,1,130,44.35a3.17,3.17,0,0,1,3.25-3.47,2.91,2.91,0,0,1,2.57,1.44s0-1,0-1.54V38.51h1v9.16Zm-4.73-3.31a2.27,2.27,0,0,0,2.29,2.54,2.38,2.38,0,0,0,2.4-2.54,2.28,2.28,0,0,0-2.4-2.55A2.34,2.34,0,0,0,131.07,44.35Z"/><path class="cls-4" d="M138.78,39a.51.51,0,0,1,.54-.53.5.5,0,0,1,.53.53v.62a.5.5,0,0,1-.53.51.51.51,0,0,1-.54-.51Zm0,8.67V41.07h1v6.59Z"/><path class="cls-4" d="M145.21,41.91c-2,0-2.36,1.58-2.36,3.13v2.62h-1V41.07h1c0,.58,0,1.12-.05,1.66a2.57,2.57,0,0,1,2.43-1.81Z"/><path class="cls-4" d="M146.81,44.64a2.13,2.13,0,0,0,2.35,2.24,2.24,2.24,0,0,0,2.23-1.43l.95.24a3.41,3.41,0,0,1-6.55-1.31,3.26,3.26,0,0,1,3.4-3.47c2.27,0,3.29,1.53,3.29,3.71Zm0-.68h4.66a2.13,2.13,0,0,0-2.31-2.12A2.22,2.22,0,0,0,146.81,44Z"/><path class="cls-4" d="M153.7,44.43a3.27,3.27,0,0,1,3.48-3.52,2.85,2.85,0,0,1,3,2.16l-.95.28a1.93,1.93,0,0,0-2.11-1.51,2.34,2.34,0,0,0-2.42,2.59A2.22,2.22,0,0,0,157,46.88a2.46,2.46,0,0,0,2.28-1.54l.92.2a3,3,0,0,1-3.19,2.24A3.15,3.15,0,0,1,153.7,44.43Z"/><path class="cls-4" d="M163.39,41.94v4.39c0,.31.19.57.74.57a1.88,1.88,0,0,0,.77-.16v.77a2.55,2.55,0,0,1-1.27.3,1.15,1.15,0,0,1-1.28-1.11V41.94h-1.27v-.86h1.27v-1.7h1v1.7h1.51v.86Z"/><path class="cls-4" d="M171.5,47.66V46.3A2.65,2.65,0,0,1,169,47.78a3.16,3.16,0,0,1-3.25-3.4,3.22,3.22,0,0,1,3.33-3.47,2.85,2.85,0,0,1,2.49,1.44s0-.84,0-1.28h1v6.59Zm-4.74-3.28a2.26,2.26,0,0,0,2.29,2.5,2.35,2.35,0,0,0,2.4-2.5,2.27,2.27,0,0,0-2.4-2.54A2.34,2.34,0,0,0,166.76,44.38Z"/><path class="cls-4" d="M176.86,45.58l1.05,0c0,.9.69,1.43,1.93,1.43.8,0,1.73-.36,1.73-1.16,0-1.73-4.55-.24-4.55-3,0-1.2,1.28-1.93,2.65-1.93,1.86,0,2.75.84,2.86,2.19l-1.05.07c-.07-.89-.67-1.38-1.84-1.38-.84,0-1.62.42-1.62,1.11,0,1.63,4.58.27,4.58,2.92,0,1.36-1.4,2-2.81,2C177.89,47.78,176.93,47,176.86,45.58Z"/><path class="cls-4" d="M183.86,44.37a3.42,3.42,0,1,1,3.4,3.43A3.25,3.25,0,0,1,183.86,44.37Zm1,0a2.32,2.32,0,0,0,2.42,2.53,2.36,2.36,0,0,0,2.43-2.53,2.43,2.43,0,1,0-4.85,0Z"/><path class="cls-4" d="M193.32,46.31c0,.24,0,.46,0,.69s0,.45,0,.66h-1V38.51h1v2.94c0,.3,0,.88,0,.88a2.92,2.92,0,0,1,2.58-1.42c2.07,0,3.21,1.44,3.21,3.46a3.13,3.13,0,0,1-3.27,3.42A2.81,2.81,0,0,1,193.32,46.31Zm0-1.93a2.32,2.32,0,0,0,2.39,2.5A2.29,2.29,0,0,0,198,44.35a2.34,2.34,0,1,0-4.67,0Z"/><path class="cls-4" d="M204.09,41.91c-2,0-2.36,1.58-2.36,3.13v2.62h-1V41.07h1c0,.58,0,1.12-.05,1.66a2.57,2.57,0,0,1,2.43-1.81Z"/><path class="cls-4" d="M205.68,44.64A2.13,2.13,0,0,0,208,46.88a2.24,2.24,0,0,0,2.23-1.43l.95.24a3.41,3.41,0,0,1-6.55-1.31,3.26,3.26,0,0,1,3.4-3.47c2.27,0,3.29,1.53,3.29,3.71Zm0-.68h4.66A2.13,2.13,0,0,0,208,41.84,2.22,2.22,0,0,0,205.68,44Z"/><path class="cls-4" d="M19.35,61.16V57a1.65,1.65,0,0,0-1.85-1.65c-1.55,0-2.11,1-2.11,2.4v3.44h-1V52h1v2.67c0,.55,0,.58,0,1.05h0a2.55,2.55,0,0,1,2.39-1.34,2.36,2.36,0,0,1,2.62,2.31v4.44Z"/><path class="cls-4" d="M22.92,58.13a2.13,2.13,0,0,0,2.35,2.24,2.24,2.24,0,0,0,2.23-1.43l.95.24a3.12,3.12,0,0,1-3.2,2.09,3.13,3.13,0,0,1-3.35-3.4,3.26,3.26,0,0,1,3.4-3.47c2.27,0,3.29,1.53,3.29,3.71Zm0-.68h4.66a2.13,2.13,0,0,0-2.31-2.12A2.22,2.22,0,0,0,22.92,57.46Z"/><path class="cls-4" d="M33.56,55.41c-2,0-2.36,1.58-2.36,3.13v2.62h-1V54.57h1c0,.58,0,1.12-.05,1.66a2.57,2.57,0,0,1,2.43-1.81Z"/><path class="cls-4" d="M34.69,52.49a.51.51,0,0,1,.54-.53.5.5,0,0,1,.53.53v.62a.5.5,0,0,1-.53.51.51.51,0,0,1-.54-.51Zm0,8.67V54.57h1v6.59Z"/><path class="cls-4" d="M43.1,61.16V59.81a2.83,2.83,0,0,1-2.57,1.49,3.14,3.14,0,0,1-3.21-3.44,3.17,3.17,0,0,1,3.25-3.47,2.91,2.91,0,0,1,2.57,1.44s0-1,0-1.54V52h1v9.16Zm-4.73-3.31a2.27,2.27,0,0,0,2.29,2.54,2.38,2.38,0,0,0,2.4-2.54,2.28,2.28,0,0,0-2.4-2.55A2.34,2.34,0,0,0,38.37,57.85Z"/><path class="cls-4" d="M51.48,61.16V59.79A2.65,2.65,0,0,1,49,61.28a3.16,3.16,0,0,1-3.25-3.4A3.22,3.22,0,0,1,49,54.41a2.85,2.85,0,0,1,2.48,1.44s0-.84,0-1.28h1v6.59Zm-4.74-3.28a2.26,2.26,0,0,0,2.3,2.5,2.35,2.35,0,0,0,2.4-2.5A2.27,2.27,0,0,0,49,55.34,2.34,2.34,0,0,0,46.74,57.88Z"/><path class="cls-4" d="M54,59.08l1.05,0c0,.9.69,1.43,1.93,1.43.8,0,1.73-.36,1.73-1.16,0-1.73-4.55-.24-4.55-3,0-1.2,1.28-1.93,2.65-1.93,1.86,0,2.75.84,2.86,2.19l-1.05.07c-.07-.89-.67-1.38-1.84-1.38-.84,0-1.62.42-1.62,1.11,0,1.63,4.58.27,4.58,2.92,0,1.36-1.4,2-2.81,2C55.07,61.28,54.11,60.48,54,59.08Z"/><path class="cls-4" d="M64,59.08l1.05,0c0,.9.69,1.43,1.93,1.43.8,0,1.73-.36,1.73-1.16,0-1.73-4.55-.24-4.55-3,0-1.2,1.28-1.93,2.65-1.93,1.86,0,2.75.84,2.86,2.19l-1.05.07c-.07-.89-.67-1.38-1.84-1.38-.84,0-1.62.42-1.62,1.11,0,1.63,4.58.27,4.58,2.92,0,1.36-1.4,2-2.81,2C65.07,61.28,64.11,60.48,64,59.08Z"/><path class="cls-4" d="M76.81,61.16V59.79a2.65,2.65,0,0,1-2.52,1.49A3.16,3.16,0,0,1,71,57.88a3.22,3.22,0,0,1,3.34-3.47,2.85,2.85,0,0,1,2.48,1.44s0-.84,0-1.28h1v6.59Zm-4.74-3.28a2.26,2.26,0,0,0,2.3,2.5,2.35,2.35,0,0,0,2.4-2.5,2.27,2.27,0,0,0-2.4-2.54A2.34,2.34,0,0,0,72.07,57.88Z"/><path class="cls-4" d="M84.71,61.16V56.95c0-1-.68-1.63-1.85-1.63a2,2,0,0,0-2.11,2.05v3.79h-1V54.57h1c0,.39,0,.78,0,1.17h0a2.51,2.51,0,0,1,2.39-1.35,2.33,2.33,0,0,1,2.62,2.28v4.47Z"/><path class="cls-4" d="M88,61.87a4.37,4.37,0,0,0,2.43.81A2.21,2.21,0,0,0,93,60.36v-.77a2.85,2.85,0,0,1-2.54,1.5,3.08,3.08,0,0,1-3.2-3.28,3.17,3.17,0,0,1,3.32-3.4A2.66,2.66,0,0,1,93,55.88s0-.88,0-1.31h1v5.91c0,1.92-1.27,3.11-3.39,3.11a5.11,5.11,0,0,1-2.89-.9C87.78,62.41,87.94,62.14,88,61.87Zm.28-4.08a2.21,2.21,0,0,0,2.24,2.4,2.26,2.26,0,0,0,2.34-2.38,2.3,2.3,0,1,0-4.58,0Z"/><path class="cls-4" d="M99.35,55.41c-2,0-2.36,1.58-2.36,3.13v2.62h-1V54.57h1c0,.58,0,1.12-.05,1.66a2.57,2.57,0,0,1,2.43-1.81Z"/><path class="cls-4" d="M105.7,61.16V59.79a2.65,2.65,0,0,1-2.52,1.49,3.16,3.16,0,0,1-3.25-3.4,3.22,3.22,0,0,1,3.34-3.47,2.85,2.85,0,0,1,2.48,1.44s0-.84,0-1.28h1v6.59ZM101,57.88a2.26,2.26,0,0,0,2.3,2.5,2.35,2.35,0,0,0,2.4-2.5,2.27,2.27,0,0,0-2.4-2.54A2.34,2.34,0,0,0,101,57.88Z"/><path class="cls-4" d="M113.6,61.16V56.95c0-1-.68-1.63-1.85-1.63a2,2,0,0,0-2.11,2.05v3.79h-1V54.57h1c0,.39,0,.78,0,1.17h0A2.51,2.51,0,0,1,112,54.41a2.33,2.33,0,0,1,2.62,2.28v4.47Z"/><path class="cls-4" d="M118.09,55.43v4.39c0,.31.19.57.74.57a1.88,1.88,0,0,0,.77-.16V61a2.55,2.55,0,0,1-1.27.3,1.15,1.15,0,0,1-1.28-1.11V55.43h-1.27v-.86h1.27v-1.7h1v1.7h1.51v.86Z"/><path class="cls-4" d="M121.45,58.13a2.13,2.13,0,0,0,2.35,2.24A2.24,2.24,0,0,0,126,58.94l.95.24a3.41,3.41,0,0,1-6.55-1.31,3.26,3.26,0,0,1,3.4-3.47c2.27,0,3.29,1.53,3.29,3.71Zm0-.68h4.66a2.13,2.13,0,0,0-2.31-2.12A2.22,2.22,0,0,0,121.45,57.46Z"/><path class="cls-4" d="M128.33,59.08l1.05,0c0,.9.69,1.43,1.93,1.43.8,0,1.73-.36,1.73-1.16,0-1.73-4.55-.24-4.55-3,0-1.2,1.28-1.93,2.65-1.93,1.86,0,2.75.84,2.86,2.19l-1.05.07c-.07-.89-.67-1.38-1.84-1.38-.84,0-1.62.42-1.62,1.11,0,1.63,4.58.27,4.58,2.92,0,1.36-1.4,2-2.81,2C129.35,61.28,128.39,60.48,128.33,59.08Z"/><path class="cls-4" d="M135.8,61.16V59.7h1.11v1.46Z"/><path class="cls-5" d="M15.73,16.81,15.38,19H13.84L15.5,9.29h2L19.16,19H17.62l-.34-2.24Zm.77-5.28L16,15.37h1.09Z"/><path class="cls-5" d="M24.15,9.29a2.24,2.24,0,0,1,1.71.68,2.35,2.35,0,0,1,.59,1.65V13a2.27,2.27,0,0,1-.67,1.65,2.2,2.2,0,0,1-1.63.69H23.3V19H21.83V9.29ZM25,11.64A.84.84,0,0,0,24.8,11a.82.82,0,0,0-.61-.23H23.3v3.12h.89a.8.8,0,0,0,.6-.25.82.82,0,0,0,.25-.6Z"/><path class="cls-5" d="M31.45,9.17a2.33,2.33,0,0,1,2.34,2.34v5.33a2.33,2.33,0,1,1-4.67,0V11.5a2.33,2.33,0,0,1,2.33-2.34Zm.8,2.31a.84.84,0,0,0-.84-.84.82.82,0,0,0-.6.25.81.81,0,0,0-.25.6v5.34a.8.8,0,0,0,.25.6.82.82,0,0,0,.6.25.84.84,0,0,0,.84-.84Z"/><path class="cls-5" d="M41.31,16.62a2.74,2.74,0,0,1-.53,1.74,1.91,1.91,0,0,1-1,.69,2.76,2.76,0,0,1-.82.11,2.31,2.31,0,0,1-1.43-.43,2.4,2.4,0,0,1-.75-1,3.87,3.87,0,0,1-.32-1.38l1.4-.1a2.13,2.13,0,0,0,.45,1.24.75.75,0,0,0,.61.27.91.91,0,0,0,.77-.48,1.18,1.18,0,0,0,.15-.65,1.8,1.8,0,0,0-.55-1.21L38,14.24a5.58,5.58,0,0,1-1-1.27,2.94,2.94,0,0,1-.33-1.37,2.39,2.39,0,0,1,.9-2,2.23,2.23,0,0,1,1.37-.41,2.49,2.49,0,0,1,1.35.35,2,2,0,0,1,.71.76,2.81,2.81,0,0,1,.32,1.13l-1.41.26a1.7,1.7,0,0,0-.34-.93.72.72,0,0,0-.58-.24.67.67,0,0,0-.62.36,1.38,1.38,0,0,0-.17.72,2.15,2.15,0,0,0,.58,1.36,4.88,4.88,0,0,0,.65.62q.51.43.68.6a5,5,0,0,1,.84,1.07,4.21,4.21,0,0,1,.23.46A2.68,2.68,0,0,1,41.31,16.62Z"/><path class="cls-5" d="M45.45,19H44V9.29h1.47Z"/><path class="cls-5" d="M49.68,10.77H48.11V9.29h4.6v1.48H51.15V19H49.68Z"/><path class="cls-5" d="M57.67,9.17A2.33,2.33,0,0,1,60,11.5v5.33a2.33,2.33,0,1,1-4.67,0V11.5a2.33,2.33,0,0,1,2.33-2.34Zm.8,2.31a.84.84,0,0,0-.84-.84.82.82,0,0,0-.6.25.81.81,0,0,0-.25.6v5.34a.8.8,0,0,0,.25.6.82.82,0,0,0,.6.25.84.84,0,0,0,.84-.84Z"/><path class="cls-5" d="M67.54,16.62A2.74,2.74,0,0,1,67,18.36a1.91,1.91,0,0,1-1,.69,2.76,2.76,0,0,1-.82.11,2.31,2.31,0,0,1-1.43-.43,2.4,2.4,0,0,1-.75-1,3.87,3.87,0,0,1-.32-1.38l1.4-.1a2.13,2.13,0,0,0,.45,1.24.75.75,0,0,0,.61.27.91.91,0,0,0,.77-.48,1.18,1.18,0,0,0,.15-.65,1.8,1.8,0,0,0-.55-1.21l-1.31-1.24a5.58,5.58,0,0,1-1-1.27,2.94,2.94,0,0,1-.33-1.37,2.39,2.39,0,0,1,.9-2,2.23,2.23,0,0,1,1.37-.41,2.49,2.49,0,0,1,1.35.35,2,2,0,0,1,.71.76,2.81,2.81,0,0,1,.32,1.13l-1.41.26a1.7,1.7,0,0,0-.34-.93.72.72,0,0,0-.58-.24.67.67,0,0,0-.62.36,1.38,1.38,0,0,0-.17.72,2.15,2.15,0,0,0,.58,1.36,4.88,4.88,0,0,0,.65.62q.51.43.68.6a5,5,0,0,1,.84,1.07,4.21,4.21,0,0,1,.23.46A2.68,2.68,0,0,1,67.54,16.62Z"/></g></g></g></svg>