<svg xmlns="http://www.w3.org/2000/svg" viewBox="0 0 228.64 96.59"><defs><style>.cls-1{isolation:isolate;}.cls-2{opacity:0.6;mix-blend-mode:overlay;}.cls-3{fill:#fff;}.cls-4{fill:#8f8f8f;}.cls-5{fill:#3764cb;}</style></defs><title>a_7</title><g class="cls-1"><g id="Capa_2" data-name="Capa 2"><g id="_4" data-name="4"><g class="cls-2"><rect y="14.97" width="224.84" height="81.63" rx="10.15" ry="10.15"/></g><rect class="cls-3" width="228.64" height="91.73" rx="10.39" ry="10.39"/><path class="cls-4" d="M18.75,32.32a3.31,3.31,0,0,0-2.93-1.42,3.51,3.51,0,0,0-3.74,3.71,3.46,3.46,0,0,0,3.63,3.62,3.39,3.39,0,0,0,3-1.34l.95.45a4.62,4.62,0,0,1-3.86,2A4.42,4.42,0,0,1,11,34.66a4.51,4.51,0,0,1,4.86-4.75,4.41,4.41,0,0,1,3.89,2Z"/><path class="cls-4" d="M26.26,39.18l0-1.24h0a2.43,2.43,0,0,1-2.36,1.38,2.35,2.35,0,0,1-2.63-2.5V32.59h1v4.1a1.6,1.6,0,0,0,1.82,1.69,2,2,0,0,0,2.12-2.16V32.59h1v6.59Z"/><path class="cls-4" d="M30.4,37.83c0,.24,0,.46,0,.69s0,.45,0,.66h-1V30h1V33c0,.3,0,.88,0,.88A2.92,2.92,0,0,1,33,32.43c2.07,0,3.21,1.44,3.21,3.46A3.13,3.13,0,0,1,32.9,39.3,2.81,2.81,0,0,1,30.4,37.83Zm0-1.93a2.32,2.32,0,0,0,2.39,2.5,2.29,2.29,0,0,0,2.28-2.53,2.34,2.34,0,1,0-4.67,0Z"/><path class="cls-4" d="M41.39,33.43c-2,0-2.36,1.58-2.36,3.13v2.62H38V32.59h1c0,.58,0,1.12-.05,1.66a2.57,2.57,0,0,1,2.43-1.81Z"/><path class="cls-4" d="M42.73,30.51a.51.51,0,0,1,.54-.53.5.5,0,0,1,.53.53v.62a.5.5,0,0,1-.53.51.51.51,0,0,1-.54-.51Zm0,8.67V32.59h1v6.59Z"/><path class="cls-4" d="M49.38,33.43c-2,0-2.36,1.58-2.36,3.13v2.62H46V32.59h1c0,.58,0,1.12-.05,1.66a2.57,2.57,0,0,1,2.43-1.81Z"/><path class="cls-4" d="M53.57,39.9a4.37,4.37,0,0,0,2.43.81,2.21,2.21,0,0,0,2.53-2.32v-.77A2.85,2.85,0,0,1,56,39.11a3.08,3.08,0,0,1-3.2-3.28,3.17,3.17,0,0,1,3.32-3.4,2.66,2.66,0,0,1,2.43,1.47s0-.88,0-1.31h1V38.5c0,1.92-1.27,3.11-3.39,3.11a5.11,5.11,0,0,1-2.89-.9C53.32,40.44,53.48,40.17,53.57,39.9Zm.28-4.08a2.21,2.21,0,0,0,2.24,2.4,2.26,2.26,0,0,0,2.34-2.38,2.3,2.3,0,1,0-4.58,0Z"/><path class="cls-4" d="M67.07,39.18V37.82a2.65,2.65,0,0,1-2.52,1.49,3.16,3.16,0,0,1-3.25-3.4,3.22,3.22,0,0,1,3.33-3.47,2.85,2.85,0,0,1,2.49,1.44s0-.84,0-1.28h1v6.59ZM62.34,35.9a2.26,2.26,0,0,0,2.29,2.5A2.35,2.35,0,0,0,67,35.9a2.27,2.27,0,0,0-2.4-2.54A2.34,2.34,0,0,0,62.34,35.9Z"/><path class="cls-4" d="M69.86,37.1l1.05,0c0,.9.69,1.43,1.93,1.43.8,0,1.73-.36,1.73-1.16,0-1.73-4.55-.24-4.55-3,0-1.2,1.28-1.93,2.65-1.93,1.86,0,2.75.84,2.86,2.19l-1.05.07c-.07-.89-.67-1.38-1.84-1.38-.84,0-1.62.42-1.62,1.11,0,1.63,4.58.27,4.58,2.92,0,1.36-1.4,2-2.81,2C70.89,39.3,69.93,38.5,69.86,37.1Z"/><path class="cls-4" d="M82.85,39.18V37.82a2.65,2.65,0,0,1-2.52,1.49,3.16,3.16,0,0,1-3.25-3.4,3.22,3.22,0,0,1,3.34-3.47,2.85,2.85,0,0,1,2.48,1.44s0-.84,0-1.28h1v6.59ZM78.11,35.9a2.26,2.26,0,0,0,2.3,2.5,2.35,2.35,0,0,0,2.4-2.5,2.27,2.27,0,0,0-2.4-2.54A2.34,2.34,0,0,0,78.11,35.9Z"/><path class="cls-4" d="M85.63,37.1l1.05,0c0,.9.69,1.43,1.93,1.43.8,0,1.73-.36,1.73-1.16,0-1.73-4.55-.24-4.55-3,0-1.2,1.28-1.93,2.65-1.93,1.86,0,2.75.84,2.86,2.19l-1.05.07c-.07-.89-.67-1.38-1.84-1.38-.84,0-1.62.42-1.62,1.11,0,1.63,4.58.27,4.58,2.92,0,1.36-1.4,2-2.81,2C86.66,39.3,85.7,38.5,85.63,37.1Z"/><path class="cls-4" d="M93.69,41.16l-1-.35c.22-.51.42-1,.62-1.55a2.76,2.76,0,0,0,.12-1.09v-.45h1.12v.54a3,3,0,0,1-.17,1.22Z"/><path class="cls-4" d="M104.84,39.18V37.82a2.65,2.65,0,0,1-2.52,1.49,3.16,3.16,0,0,1-3.25-3.4,3.22,3.22,0,0,1,3.34-3.47,2.85,2.85,0,0,1,2.48,1.44s0-.84,0-1.28h1v6.59ZM100.1,35.9a2.26,2.26,0,0,0,2.3,2.5,2.35,2.35,0,0,0,2.4-2.5,2.27,2.27,0,0,0-2.4-2.54A2.34,2.34,0,0,0,100.1,35.9Z"/><path class="cls-4" d="M109,37.87c0,.51,0,1,0,1.54v2.08h-1v-8.9h1v.61c0,.24,0,.73,0,.73a2.93,2.93,0,0,1,2.57-1.5,3.13,3.13,0,0,1,3.23,3.46,3.14,3.14,0,0,1-3.27,3.46A2.69,2.69,0,0,1,109,37.87Zm.05-2a2.26,2.26,0,0,0,2.38,2.58,2.31,2.31,0,0,0,2.3-2.54,2.31,2.31,0,0,0-2.28-2.54A2.34,2.34,0,0,0,109,35.86Z"/><path class="cls-4" d="M116.18,35.88a3.42,3.42,0,1,1,6.85,0,3.42,3.42,0,1,1-6.85,0Zm1,0a2.32,2.32,0,0,0,2.42,2.53A2.36,2.36,0,0,0,122,35.88a2.43,2.43,0,1,0-4.85,0ZM121,29.2c.23.24.43.5.65.74l-2.24,1.94c-.19-.2-.37-.42-.54-.62Z"/><path class="cls-4" d="M124.46,37.1l1.05,0c0,.9.69,1.43,1.93,1.43.8,0,1.73-.36,1.73-1.16,0-1.73-4.55-.24-4.55-3,0-1.2,1.28-1.93,2.65-1.93,1.86,0,2.75.84,2.86,2.19l-1.05.07c-.07-.89-.67-1.38-1.84-1.38-.84,0-1.62.42-1.62,1.11,0,1.63,4.58.27,4.58,2.92,0,1.36-1.4,2-2.81,2C125.48,39.3,124.52,38.5,124.46,37.1Z"/><path class="cls-4" d="M132.08,30.51a.51.51,0,0,1,.54-.53.5.5,0,0,1,.53.53v.62a.5.5,0,0,1-.53.51.51.51,0,0,1-.54-.51Zm0,8.67V32.59h1v6.59Z"/><path class="cls-4" d="M137,33.45v4.39c0,.31.19.57.74.57a1.88,1.88,0,0,0,.77-.16V39a2.55,2.55,0,0,1-1.27.3,1.15,1.15,0,0,1-1.28-1.11V33.45h-1.27v-.86h1.27v-1.7h1v1.7h1.51v.86Z"/><path class="cls-4" d="M139.52,35.88a3.42,3.42,0,1,1,6.85,0,3.42,3.42,0,1,1-6.85,0Zm1,0a2.32,2.32,0,0,0,2.42,2.53,2.36,2.36,0,0,0,2.43-2.53,2.43,2.43,0,1,0-4.85,0Z"/><path class="cls-4" d="M147.8,37.1l1.05,0c0,.9.69,1.43,1.93,1.43.8,0,1.73-.36,1.73-1.16,0-1.73-4.55-.24-4.55-3,0-1.2,1.28-1.93,2.65-1.93,1.86,0,2.75.84,2.86,2.19l-1.05.07c-.07-.89-.67-1.38-1.84-1.38-.84,0-1.62.42-1.62,1.11,0,1.63,4.58.27,4.58,2.92,0,1.36-1.4,2-2.81,2C148.82,39.3,147.86,38.5,147.8,37.1Z"/><path class="cls-4" d="M157.68,35.88a3.42,3.42,0,1,1,6.85,0,3.42,3.42,0,1,1-6.85,0Zm1,0a2.32,2.32,0,0,0,2.42,2.53,2.36,2.36,0,0,0,2.43-2.53,2.43,2.43,0,1,0-4.85,0Z"/><path class="cls-4" d="M11.48,44a.51.51,0,0,1,.54-.53.5.5,0,0,1,.53.53v.62a.5.5,0,0,1-.53.51.51.51,0,0,1-.54-.51Zm0,8.67V46.09h1v6.59Z"/><path class="cls-4" d="M19.73,52.68V48.46c0-1-.68-1.63-1.85-1.63a2,2,0,0,0-2.11,2.05v3.79h-1V46.09h1c0,.39,0,.78,0,1.17h0a2.51,2.51,0,0,1,2.39-1.35,2.33,2.33,0,0,1,2.62,2.28v4.47Z"/><path class="cls-4" d="M31.79,52.68V48.46a1.42,1.42,0,0,0-1.58-1.63,1.76,1.76,0,0,0-1.82,1.76v4.09h-1V48.46a1.45,1.45,0,0,0-1.63-1.63,1.43,1.43,0,0,0-.65.16c-.95.3-1.12,1.27-1.12,2.16v3.52h-1V46.09h1c0,.39,0,.8,0,1.19h0A2,2,0,0,1,26.05,46a2.08,2.08,0,0,1,2.13,1.35,2.32,2.32,0,0,1,2.28-1.39,2.08,2.08,0,0,1,2.36,2.28v4.47Z"/><path class="cls-4" d="M34.57,49.38A3.25,3.25,0,0,1,38,45.92a3.44,3.44,0,0,1,0,6.89A3.25,3.25,0,0,1,34.57,49.38Zm1,0A2.32,2.32,0,0,0,38,51.91a2.36,2.36,0,0,0,2.43-2.53,2.43,2.43,0,1,0-4.85,0Z"/><path class="cls-4" d="M46.13,52.68h-1l-3.11-6.59H43.3l2.39,5.47,2.19-5.47H49Z"/><path class="cls-4" d="M50.34,44a.51.51,0,0,1,.54-.53.5.5,0,0,1,.53.53v.62a.5.5,0,0,1-.53.51.51.51,0,0,1-.54-.51Zm0,8.67V46.09h1v6.59Z"/><path class="cls-4" d="M53.57,52.68V43.52h1v9.16Z"/><path class="cls-4" d="M56.77,44a.51.51,0,0,1,.54-.53.5.5,0,0,1,.53.53v.62a.5.5,0,0,1-.53.51.51.51,0,0,1-.54-.51Zm0,8.67V46.09h1v6.59Z"/><path class="cls-4" d="M59.42,52.68v-.8L63.77,47h-4v-.89h5.5v.78l-4.36,4.92h4.56v.89Z"/><path class="cls-4" d="M72.13,52.68V51.31A2.65,2.65,0,0,1,69.6,52.8a3.16,3.16,0,0,1-3.25-3.4,3.22,3.22,0,0,1,3.34-3.47,2.85,2.85,0,0,1,2.48,1.44s0-.84,0-1.28h1v6.59ZM67.39,49.4a2.26,2.26,0,0,0,2.3,2.5,2.35,2.35,0,0,0,2.4-2.5,2.27,2.27,0,0,0-2.4-2.54A2.34,2.34,0,0,0,67.39,49.4Z"/><path class="cls-4" d="M78.65,46.92c-2,0-2.36,1.58-2.36,3.13v2.62h-1V46.09h1c0,.58,0,1.12-.05,1.66a2.57,2.57,0,0,1,2.43-1.81Z"/><path class="cls-4" d="M87.84,52.68V51.31a2.65,2.65,0,0,1-2.52,1.49,3.16,3.16,0,0,1-3.25-3.4,3.22,3.22,0,0,1,3.34-3.47,2.85,2.85,0,0,1,2.48,1.44s0-.84,0-1.28h1v6.59ZM83.1,49.4a2.26,2.26,0,0,0,2.3,2.5,2.35,2.35,0,0,0,2.4-2.5,2.27,2.27,0,0,0-2.4-2.54A2.34,2.34,0,0,0,83.1,49.4Z"/><path class="cls-4" d="M90.95,52.68V43.52h1v9.16Z"/><path class="cls-4" d="M94.56,53.39A4.37,4.37,0,0,0,97,54.2a2.21,2.21,0,0,0,2.53-2.32v-.77A2.85,2.85,0,0,1,97,52.61a3.08,3.08,0,0,1-3.2-3.28,3.17,3.17,0,0,1,3.32-3.4,2.66,2.66,0,0,1,2.43,1.47s0-.88,0-1.31h1V52c0,1.92-1.27,3.11-3.39,3.11a5.11,5.11,0,0,1-2.89-.9C94.31,53.93,94.47,53.66,94.56,53.39Zm.28-4.08a2.21,2.21,0,0,0,2.24,2.4,2.26,2.26,0,0,0,2.34-2.38,2.3,2.3,0,1,0-4.58,0Z"/><path class="cls-4" d="M107.69,52.68l0-1.24h0a2.43,2.43,0,0,1-2.36,1.38,2.35,2.35,0,0,1-2.63-2.5V46.09h1v4.1a1.6,1.6,0,0,0,1.82,1.69,2,2,0,0,0,2.12-2.16V46.09h1v6.59Z"/><path class="cls-4" d="M115.83,52.68V48.46c0-1-.68-1.63-1.85-1.63a2,2,0,0,0-2.11,2.05v3.79h-1V46.09h1c0,.39,0,.78,0,1.17h0a2.51,2.51,0,0,1,2.39-1.35,2.33,2.33,0,0,1,2.62,2.28v4.47Z"/><path class="cls-4" d="M124.37,52.68V51.31a2.65,2.65,0,0,1-2.52,1.49,3.16,3.16,0,0,1-3.25-3.4,3.22,3.22,0,0,1,3.33-3.47,2.85,2.85,0,0,1,2.49,1.44s0-.84,0-1.28h1v6.59Zm-4.74-3.28a2.26,2.26,0,0,0,2.29,2.5,2.35,2.35,0,0,0,2.4-2.5,2.27,2.27,0,0,0-2.4-2.54A2.34,2.34,0,0,0,119.63,49.4Z"/><path class="cls-4" d="M129.53,52.68v-.8l4.35-4.9h-4v-.89h5.5v.78L131,51.79h4.56v.89Z"/><path class="cls-4" d="M136.45,49.38a3.42,3.42,0,1,1,3.4,3.43A3.25,3.25,0,0,1,136.45,49.38Zm1,0a2.32,2.32,0,0,0,2.42,2.53,2.36,2.36,0,0,0,2.43-2.53,2.43,2.43,0,1,0-4.85,0Z"/><path class="cls-4" d="M150.13,52.68V48.46c0-1-.68-1.63-1.85-1.63a2,2,0,0,0-2.11,2.05v3.79h-1V46.09h1c0,.39,0,.78,0,1.17h0a2.51,2.51,0,0,1,2.39-1.35,2.33,2.33,0,0,1,2.62,2.28v4.47Z"/><path class="cls-4" d="M158.67,52.68V51.31a2.65,2.65,0,0,1-2.52,1.49,3.16,3.16,0,0,1-3.25-3.4,3.22,3.22,0,0,1,3.33-3.47,2.85,2.85,0,0,1,2.49,1.44s0-.84,0-1.28h1v6.59Zm-4.74-3.28a2.26,2.26,0,0,0,2.29,2.5,2.35,2.35,0,0,0,2.4-2.5,2.27,2.27,0,0,0-2.4-2.54A2.34,2.34,0,0,0,153.93,49.4Z"/><path class="cls-4" d="M169.68,52.68V51.33a2.83,2.83,0,0,1-2.57,1.49,3.14,3.14,0,0,1-3.21-3.44,3.17,3.17,0,0,1,3.25-3.47,2.91,2.91,0,0,1,2.57,1.44s0-1,0-1.54V43.52h1v9.16ZM165,49.37a2.27,2.27,0,0,0,2.29,2.54,2.38,2.38,0,0,0,2.4-2.54,2.28,2.28,0,0,0-2.4-2.55A2.34,2.34,0,0,0,165,49.37Z"/><path class="cls-4" d="M173.53,49.65a2.13,2.13,0,0,0,2.35,2.24,2.24,2.24,0,0,0,2.23-1.43l.95.24a3.41,3.41,0,0,1-6.55-1.31,3.26,3.26,0,0,1,3.4-3.47c2.27,0,3.29,1.53,3.29,3.71Zm0-.68h4.66a2.13,2.13,0,0,0-2.31-2.12A2.22,2.22,0,0,0,173.53,49Z"/><path class="cls-4" d="M181,52.68V43.52h1v9.16Z"/><path class="cls-4" d="M11.07,62.95a3.27,3.27,0,0,1,3.48-3.52,2.85,2.85,0,0,1,3,2.16l-.95.28a1.93,1.93,0,0,0-2.11-1.51,2.34,2.34,0,0,0-2.42,2.59,2.22,2.22,0,0,0,2.34,2.44,2.46,2.46,0,0,0,2.28-1.54l.92.2a3,3,0,0,1-3.19,2.24A3.15,3.15,0,0,1,11.07,62.95Z"/><path class="cls-4" d="M24.29,66.17l0-1.24h0a2.43,2.43,0,0,1-2.36,1.38,2.35,2.35,0,0,1-2.63-2.5V59.58h1v4.1a1.6,1.6,0,0,0,1.82,1.69,2,2,0,0,0,2.12-2.16V59.58h1v6.59Z"/><path class="cls-4" d="M28,63.15a2.13,2.13,0,0,0,2.35,2.24A2.24,2.24,0,0,0,32.62,64l.95.24a3.12,3.12,0,0,1-3.2,2.09A3.13,3.13,0,0,1,27,62.89a3.26,3.26,0,0,1,3.4-3.47c2.27,0,3.29,1.53,3.29,3.71Zm0-.68h4.66a2.13,2.13,0,0,0-2.31-2.12A2.22,2.22,0,0,0,28,62.47Z"/><path class="cls-4" d="M38.91,60.42c-2,0-2.36,1.58-2.36,3.13v2.62h-1V59.58h1c0,.58,0,1.12-.05,1.66a2.57,2.57,0,0,1,2.43-1.81Z"/><path class="cls-4" d="M41.28,64.86c0,.51,0,1,0,1.54v2.08h-1v-8.9h1v.61c0,.24,0,.73,0,.73a2.93,2.93,0,0,1,2.57-1.5,3.13,3.13,0,0,1,3.23,3.46,3.14,3.14,0,0,1-3.27,3.46A2.69,2.69,0,0,1,41.28,64.86Zm.05-2a2.26,2.26,0,0,0,2.38,2.58,2.55,2.55,0,0,0,0-5.08A2.34,2.34,0,0,0,41.33,62.85Z"/><path class="cls-4" d="M48.49,62.88a3.42,3.42,0,1,1,3.4,3.43A3.25,3.25,0,0,1,48.49,62.88Zm1,0a2.32,2.32,0,0,0,2.42,2.53,2.36,2.36,0,0,0,2.43-2.53,2.43,2.43,0,1,0-4.85,0Z"/><path class="cls-4" d="M65.08,68.48V65.7c0-.28,0-.85,0-.85a2.87,2.87,0,0,1-2.59,1.49,3.47,3.47,0,0,1,0-6.91,2.82,2.82,0,0,1,2.58,1.5c0-.42,0-.88,0-1.34h1v8.9Zm-4.7-5.59a2.31,2.31,0,0,0,2.27,2.54,2.39,2.39,0,0,0,2.4-2.54,2.34,2.34,0,0,0-2.42-2.54A2.3,2.3,0,0,0,60.38,62.89Z"/><path class="cls-4" d="M73.35,66.17l0-1.24h0a2.43,2.43,0,0,1-2.36,1.38,2.35,2.35,0,0,1-2.63-2.5V59.58h1v4.1a1.6,1.6,0,0,0,1.82,1.69,2,2,0,0,0,2.12-2.16V59.58h1v6.59Z"/><path class="cls-4" d="M77.1,63.15a2.13,2.13,0,0,0,2.35,2.24A2.24,2.24,0,0,0,81.68,64l.95.24a3.41,3.41,0,0,1-6.55-1.31,3.26,3.26,0,0,1,3.4-3.47c2.27,0,3.29,1.53,3.29,3.71Zm0-.68h4.66a2.13,2.13,0,0,0-2.31-2.12A2.22,2.22,0,0,0,77.1,62.47Z"/><path class="cls-4" d="M86.9,64.09l1.05,0c0,.9.69,1.43,1.93,1.43.8,0,1.73-.36,1.73-1.16,0-1.73-4.55-.24-4.55-3,0-1.2,1.28-1.93,2.65-1.93,1.86,0,2.75.84,2.86,2.19l-1.05.07c-.07-.89-.67-1.38-1.84-1.38-.84,0-1.62.42-1.62,1.11,0,1.63,4.58.27,4.58,2.92,0,1.36-1.4,2-2.81,2C87.93,66.29,87,65.5,86.9,64.09Z"/><path class="cls-4" d="M95.13,63.15a2.13,2.13,0,0,0,2.35,2.24A2.24,2.24,0,0,0,99.71,64l.95.24a3.41,3.41,0,0,1-6.55-1.31,3.26,3.26,0,0,1,3.4-3.47c2.27,0,3.29,1.53,3.29,3.71Zm0-.68h4.66a2.13,2.13,0,0,0-2.31-2.12A2.22,2.22,0,0,0,95.13,62.47Z"/><path class="cls-4" d="M104.93,64.09l1.05,0c0,.9.69,1.43,1.93,1.43.8,0,1.73-.36,1.73-1.16,0-1.73-4.55-.24-4.55-3,0-1.2,1.28-1.93,2.65-1.93,1.86,0,2.75.84,2.86,2.19l-1.05.07c-.07-.89-.67-1.38-1.84-1.38-.84,0-1.62.42-1.62,1.11,0,1.63,4.58.27,4.58,2.92,0,1.36-1.4,2-2.81,2C106,66.29,105,65.5,104.93,64.09Z"/><path class="cls-4" d="M112.14,62.88a3.42,3.42,0,1,1,3.4,3.43A3.25,3.25,0,0,1,112.14,62.88Zm1,0a2.32,2.32,0,0,0,2.42,2.53A2.36,2.36,0,0,0,118,62.88a2.43,2.43,0,1,0-4.85,0Z"/><path class="cls-4" d="M120.42,64.09l1.05,0c0,.9.69,1.43,1.93,1.43.8,0,1.73-.36,1.73-1.16,0-1.73-4.55-.24-4.55-3,0-1.2,1.28-1.93,2.65-1.93,1.86,0,2.75.84,2.86,2.19l-1.05.07c-.07-.89-.67-1.38-1.84-1.38-.84,0-1.62.42-1.62,1.11,0,1.63,4.58.27,4.58,2.92,0,1.36-1.4,2-2.81,2C121.44,66.29,120.49,65.5,120.42,64.09Z"/><path class="cls-4" d="M129.06,64.86c0,.51,0,1,0,1.54v2.08h-1v-8.9h1v.61c0,.24,0,.73,0,.73a2.93,2.93,0,0,1,2.57-1.5,3.13,3.13,0,0,1,3.23,3.46,3.14,3.14,0,0,1-3.27,3.46A2.69,2.69,0,0,1,129.06,64.86Zm.05-2a2.26,2.26,0,0,0,2.38,2.58,2.55,2.55,0,0,0,0-5.08A2.34,2.34,0,0,0,129.11,62.85Z"/><path class="cls-4" d="M137.3,63.15a2.13,2.13,0,0,0,2.35,2.24A2.24,2.24,0,0,0,141.88,64l.95.24a3.41,3.41,0,0,1-6.55-1.31,3.26,3.26,0,0,1,3.4-3.47c2.27,0,3.29,1.53,3.29,3.71Zm0-.68H142a2.13,2.13,0,0,0-2.31-2.12A2.22,2.22,0,0,0,137.3,62.47Z"/><path class="cls-4" d="M144.41,62.95a3.27,3.27,0,0,1,3.48-3.52,2.85,2.85,0,0,1,3,2.16l-.95.28a1.93,1.93,0,0,0-2.11-1.51,2.34,2.34,0,0,0-2.42,2.59,2.22,2.22,0,0,0,2.34,2.44A2.46,2.46,0,0,0,150,63.85l.92.2a3,3,0,0,1-3.19,2.24A3.15,3.15,0,0,1,144.41,62.95Z"/><path class="cls-4" d="M157.66,66.17V62a1.65,1.65,0,0,0-1.85-1.65c-1.55,0-2.11,1-2.11,2.4v3.44h-1V57h1v2.67c0,.55,0,.58,0,1.05h0a2.55,2.55,0,0,1,2.39-1.34,2.36,2.36,0,0,1,2.62,2.31v4.44Z"/><path class="cls-4" d="M161.45,63.15a2.13,2.13,0,0,0,2.35,2.24A2.24,2.24,0,0,0,166,64l.95.24a3.41,3.41,0,0,1-6.55-1.31,3.26,3.26,0,0,1,3.4-3.47c2.27,0,3.29,1.53,3.29,3.71Zm0-.68h4.66a2.13,2.13,0,0,0-2.31-2.12A2.22,2.22,0,0,0,161.45,62.47Z"/><path class="cls-4" d="M176.89,66.17V64.82a2.83,2.83,0,0,1-2.57,1.49,3.46,3.46,0,0,1,0-6.91,2.91,2.91,0,0,1,2.57,1.44s0-1,0-1.54V57h1v9.16Zm-4.73-3.31a2.27,2.27,0,0,0,2.29,2.54,2.38,2.38,0,0,0,2.4-2.54,2.28,2.28,0,0,0-2.4-2.55A2.34,2.34,0,0,0,172.16,62.86Z"/><path class="cls-4" d="M180.74,63.15a2.13,2.13,0,0,0,2.35,2.24A2.24,2.24,0,0,0,185.32,64l.95.24a3.41,3.41,0,0,1-6.55-1.31,3.26,3.26,0,0,1,3.4-3.47c2.27,0,3.29,1.53,3.29,3.71Zm0-.68h4.66a2.13,2.13,0,0,0-2.31-2.12A2.22,2.22,0,0,0,180.74,62.47Z"/><path class="cls-4" d="M12.51,78.36c0,.51,0,1,0,1.54V82h-1v-8.9h1v.61c0,.24,0,.73,0,.73a2.93,2.93,0,0,1,2.57-1.5,3.46,3.46,0,0,1,0,6.91A2.69,2.69,0,0,1,12.51,78.36Zm.05-2a2.26,2.26,0,0,0,2.38,2.58,2.55,2.55,0,0,0,0-5.08A2.34,2.34,0,0,0,12.56,76.35Z"/><path class="cls-4" d="M19.73,76.37a3.25,3.25,0,0,1,3.42-3.46,3.44,3.44,0,0,1,0,6.89A3.25,3.25,0,0,1,19.73,76.37Zm1,0a2.32,2.32,0,0,0,2.42,2.53,2.36,2.36,0,0,0,2.43-2.53,2.29,2.29,0,0,0-2.43-2.54A2.31,2.31,0,0,0,20.73,76.37Z"/><path class="cls-4" d="M28,77.59l1.05,0c0,.9.69,1.43,1.93,1.43.8,0,1.73-.36,1.73-1.16,0-1.73-4.55-.24-4.55-3,0-1.2,1.28-1.93,2.65-1.93,1.86,0,2.75.84,2.86,2.19l-1.05.07c-.07-.89-.67-1.38-1.84-1.38-.84,0-1.62.42-1.62,1.11,0,1.63,4.58.27,4.58,2.92,0,1.36-1.4,2-2.81,2C29,79.79,28.07,79,28,77.59Z"/><path class="cls-4" d="M35.63,71a.51.51,0,0,1,.54-.53.5.5,0,0,1,.53.53v.62a.5.5,0,0,1-.53.51.51.51,0,0,1-.54-.51Zm0,8.67V73.08h1v6.59Z"/><path class="cls-4" d="M39.89,78.32c0,.24,0,.46,0,.69s0,.45,0,.66h-1V70.51h1v2.94c0,.3,0,.88,0,.88a2.92,2.92,0,0,1,2.58-1.42c2.07,0,3.21,1.44,3.21,3.46a3.13,3.13,0,0,1-3.27,3.42A2.81,2.81,0,0,1,39.89,78.32Zm0-1.93a2.32,2.32,0,0,0,2.39,2.5,2.29,2.29,0,0,0,2.28-2.53,2.34,2.34,0,1,0-4.67,0Z"/><path class="cls-4" d="M47.47,79.67V70.51h1v9.16Z"/><path class="cls-4" d="M51.33,76.64a2.13,2.13,0,0,0,2.35,2.24,2.24,2.24,0,0,0,2.23-1.43l.95.24a3.41,3.41,0,0,1-6.55-1.31,3.26,3.26,0,0,1,3.4-3.47C56,72.92,57,74.44,57,76.63Zm0-.68H56a2.13,2.13,0,0,0-2.31-2.12A2.22,2.22,0,0,0,51.33,76Z"/><path class="cls-4" d="M62.83,73.08h1.75v.86H62.83v5.73h-1V73.94h-.95v-.86h.95V72.8c0-1.38.95-2.38,2.69-2.38a7,7,0,0,1,.88.07v.89a6.8,6.8,0,0,0-.82-.05c-1.12,0-1.7.58-1.7,1.53Z"/><path class="cls-4" d="M69.48,73.92c-2,0-2.36,1.58-2.36,3.13v2.62h-1V73.08h1c0,.58,0,1.12-.05,1.66a2.57,2.57,0,0,1,2.43-1.81Z"/><path class="cls-4" d="M76.06,79.67V78.31a2.65,2.65,0,0,1-2.52,1.49,3.16,3.16,0,0,1-3.25-3.4,3.22,3.22,0,0,1,3.33-3.47,2.85,2.85,0,0,1,2.49,1.44s0-.84,0-1.28h1v6.59Zm-4.74-3.28a2.26,2.26,0,0,0,2.29,2.5,2.35,2.35,0,0,0,2.4-2.5,2.27,2.27,0,0,0-2.4-2.54A2.34,2.34,0,0,0,71.32,76.39Z"/><path class="cls-4" d="M78.79,76.44a3.27,3.27,0,0,1,3.48-3.52,2.85,2.85,0,0,1,3,2.16l-.95.28a1.93,1.93,0,0,0-2.11-1.51,2.34,2.34,0,0,0-2.42,2.59,2.22,2.22,0,0,0,2.34,2.44,2.46,2.46,0,0,0,2.28-1.54l.92.2a3,3,0,0,1-3.19,2.24A3.15,3.15,0,0,1,78.79,76.44Z"/><path class="cls-4" d="M88.7,73.94v4.39c0,.31.19.57.74.57a1.88,1.88,0,0,0,.77-.16v.77a2.55,2.55,0,0,1-1.27.3,1.15,1.15,0,0,1-1.28-1.11V73.94H86.39v-.86h1.27v-1.7h1v1.7h1.51v.86Z"/><path class="cls-4" d="M96.84,79.67l0-1.24h0a2.43,2.43,0,0,1-2.36,1.38,2.35,2.35,0,0,1-2.63-2.5V73.08h1v4.1a1.6,1.6,0,0,0,1.82,1.69,2,2,0,0,0,2.12-2.16V73.08h1v6.59Z"/><path class="cls-4" d="M103.37,73.92c-2,0-2.36,1.58-2.36,3.13v2.62h-1V73.08h1c0,.58,0,1.12-.05,1.66a2.57,2.57,0,0,1,2.43-1.81Z"/><path class="cls-4" d="M109.95,79.67V78.31a2.65,2.65,0,0,1-2.52,1.49,3.16,3.16,0,0,1-3.25-3.4,3.22,3.22,0,0,1,3.33-3.47A2.85,2.85,0,0,1,110,74.36s0-.84,0-1.28h1v6.59Zm-4.74-3.28a2.26,2.26,0,0,0,2.29,2.5,2.35,2.35,0,0,0,2.4-2.5,2.27,2.27,0,0,0-2.4-2.54A2.34,2.34,0,0,0,105.21,76.39Z"/><path class="cls-4" d="M113.1,79.67V78.21h1.11v1.46Z"/><path class="cls-5" d="M12.75,23.65,11,13.89h1.54l1.23,7.61L15,13.89h1.54l-1.78,9.76Z"/><path class="cls-5" d="M19.21,23.65V13.88H23.4v1.48H20.68V18h2v1.48h-2v2.66H23.4v1.48Z"/><path class="cls-5" d="M27.71,13.88l2,6.56V13.88h1.47v9.77H29.56l-2-6.25v6.25H26.06V13.88Z"/><path class="cls-5" d="M38.45,21.31A2.27,2.27,0,0,1,37.77,23a2.22,2.22,0,0,1-1.64.69H33.82V13.88h2.31a2.21,2.21,0,0,1,1.64.69,2.26,2.26,0,0,1,.67,1.64Zm-3.15.88h.89a.79.79,0,0,0,.59-.25.83.83,0,0,0,.24-.6V16.23a.82.82,0,0,0-.25-.6.8.8,0,0,0-.59-.25H35.3Z"/><path class="cls-5" d="M42.85,21.41l-.36,2.24H41l1.66-9.76h2l1.63,9.76H44.73l-.34-2.24Zm.77-5.28L43.08,20h1.09Z"/><path class="cls-5" d="M51.5,23.65V13.88h4.19v1.48H53V18h2v1.48H53v2.66h2.72v1.48Z"/><path class="cls-5" d="M62.37,23.65h-4V13.89h1.47v8.29h2.54Z"/><path class="cls-5" d="M66.92,21.41l-.36,2.24H65l1.66-9.76h2l1.63,9.76H68.81l-.34-2.24Zm.77-5.28L67.15,20h1.09Z"/><path class="cls-5" d="M77.7,21.22A2.74,2.74,0,0,1,77.17,23a1.91,1.91,0,0,1-1,.69,2.76,2.76,0,0,1-.82.11,2.31,2.31,0,0,1-1.43-.43,2.4,2.4,0,0,1-.75-1A3.87,3.87,0,0,1,72.83,21l1.4-.1a2.13,2.13,0,0,0,.45,1.24.75.75,0,0,0,.61.27.91.91,0,0,0,.77-.48,1.18,1.18,0,0,0,.15-.65,1.8,1.8,0,0,0-.55-1.21l-1.31-1.24a5.58,5.58,0,0,1-1-1.27A2.94,2.94,0,0,1,73,16.2a2.39,2.39,0,0,1,.9-2,2.23,2.23,0,0,1,1.37-.41,2.49,2.49,0,0,1,1.35.35,2,2,0,0,1,.71.76A2.81,2.81,0,0,1,77.63,16l-1.41.26a1.7,1.7,0,0,0-.34-.93.72.72,0,0,0-.58-.24.67.67,0,0,0-.62.36,1.38,1.38,0,0,0-.17.72,2.15,2.15,0,0,0,.58,1.36,4.88,4.88,0,0,0,.65.62q.51.43.68.6a5,5,0,0,1,.84,1.07,4.21,4.21,0,0,1,.23.46A2.68,2.68,0,0,1,77.7,21.22Z"/><path class="cls-5" d="M81.86,15.37H80.29V13.89h4.6v1.48H83.33v8.28H81.86Z"/><path class="cls-5" d="M89,23.65H87.55V13.89H89Z"/><path class="cls-5" d="M94,23.77a2.33,2.33,0,0,1-2.34-2.33V16.12a2.33,2.33,0,1,1,4.67,0v1.11H94.84V16.09a.85.85,0,0,0-.85-.85.81.81,0,0,0-.6.25.82.82,0,0,0-.25.6v5.34a.84.84,0,0,0,.84.84.82.82,0,0,0,.6-.25.8.8,0,0,0,.25-.6V20.08h1.53v1.36A2.33,2.33,0,0,1,94,23.77Z"/><path class="cls-5" d="M100.77,21.41l-.36,2.24H98.88l1.66-9.76h2l1.63,9.76h-1.55l-.34-2.24Zm.77-5.28L101,20h1.09Z"/><path class="cls-5" d="M114.05,21.31a2.27,2.27,0,0,1-.68,1.65,2.22,2.22,0,0,1-1.64.69h-2.31V13.88h2.31a2.21,2.21,0,0,1,1.64.69,2.26,2.26,0,0,1,.67,1.64Zm-3.15.88h.89a.79.79,0,0,0,.59-.25.83.83,0,0,0,.24-.6V16.23a.82.82,0,0,0-.25-.6.8.8,0,0,0-.59-.25h-.89Z"/><path class="cls-5" d="M116.72,23.65V13.88h4.19v1.48h-2.72V18h2v1.48h-2v2.66h2.72v1.48Z"/><path class="cls-5" d="M126.14,20.06l2.6-6.18h1.47v6.18h.94v1.48h-.94v2.1h-1.47v-2.1h-2.6Zm2.6,0V17l-1.22,3.05Z"/><path class="cls-5" d="M136.14,13.89a2.24,2.24,0,0,1,1.71.68,2.35,2.35,0,0,1,.59,1.65v1.42a2.27,2.27,0,0,1-.67,1.65,2.2,2.2,0,0,1-1.63.69h-.85v3.68h-1.47V13.89Zm.88,2.35a.84.84,0,0,0-.23-.62.82.82,0,0,0-.61-.23h-.89v3.12h.89a.8.8,0,0,0,.6-.25.82.82,0,0,0,.25-.6Z"/><path class="cls-5" d="M145.11,23.65h-4V13.89h1.47v8.29h2.54Z"/><path class="cls-5" d="M150.08,23.77a2.33,2.33,0,0,1-2.34-2.33V16.12a2.33,2.33,0,1,1,4.67,0v1.11h-1.53V16.09a.85.85,0,0,0-.85-.85.81.81,0,0,0-.6.25.82.82,0,0,0-.25.6v5.34a.84.84,0,0,0,.84.84.83.83,0,0,0,.6-.24.8.8,0,0,0,.25-.59V19.51h-.82V18h2.34v3.41a2.33,2.33,0,0,1-2.33,2.33Z"/><path class="cls-5" d="M163.07,23.65h-1.58l-1.13-3.11-1.14,3.11h-1.58l1.92-4.91-1.92-4.85h1.63l1.09,3,1.08-3h1.63l-1.92,4.85Z"/><path class="cls-5" d="M169.91,15.35v2.09a1.42,1.42,0,0,1,.62-.48,1.3,1.3,0,0,1,.49-.09,1.61,1.61,0,0,1,1.43.68,2.91,2.91,0,0,1,.4,1.65v2.1a2.42,2.42,0,0,1-.69,1.78,2.21,2.21,0,0,1-1.65.67,2.08,2.08,0,0,1-1.6-.7,2.33,2.33,0,0,1-.62-1.64v-.23l1.41-.11,0,.33a.87.87,0,0,0,.47.78.59.59,0,0,0,.26.06q.9,0,.9-.94V18.92a.91.91,0,0,0-.31-.71.61.61,0,0,0-.42-.13.63.63,0,0,0-.58.3,1.09,1.09,0,0,0-.16.56v.26h-1.47V13.87h4.31v1.48Z"/><path class="cls-5" d="M180,19.56l-2-5.68h1.62l1.09,3.5,1.08-3.5h1.63l-2,5.68v4.09H180Z"/><path class="cls-5" d="M187.25,21.41l-.36,2.24h-1.53L187,13.89h2l1.63,9.76h-1.55l-.34-2.24Zm.77-5.28L187.48,20h1.09Z"/><path class="cls-5" d="M195.67,13.89a2.24,2.24,0,0,1,1.81.68,2.46,2.46,0,0,1,.51,1.65v1.42a2.28,2.28,0,0,1-.79,1.75l1.09,4.26h-1.59L195.8,20h-1v3.68h-1.47V13.89Zm.88,2.35a.75.75,0,0,0-.84-.85h-.89v3.12h.89a.8.8,0,0,0,.6-.25.82.82,0,0,0,.25-.6Z"/><path class="cls-5" d="M205.58,21.31A2.27,2.27,0,0,1,204.9,23a2.22,2.22,0,0,1-1.64.69h-2.31V13.88h2.31a2.21,2.21,0,0,1,1.64.69,2.26,2.26,0,0,1,.67,1.64Zm-3.15.88h.89a.79.79,0,0,0,.59-.25.83.83,0,0,0,.24-.6V16.23a.82.82,0,0,0-.25-.6.8.8,0,0,0-.59-.25h-.89Z"/><path class="cls-5" d="M210,21.41l-.36,2.24h-1.53l1.66-9.76h2l1.63,9.76h-1.55l-.34-2.24Zm.77-5.28L210.2,20h1.09Z"/><path class="cls-5" d="M220.75,21.22a2.74,2.74,0,0,1-.53,1.74,1.91,1.91,0,0,1-1,.69,2.76,2.76,0,0,1-.82.11,2.31,2.31,0,0,1-1.43-.43,2.4,2.4,0,0,1-.75-1,3.87,3.87,0,0,1-.32-1.38l1.4-.1a2.13,2.13,0,0,0,.45,1.24.75.75,0,0,0,.61.27.91.91,0,0,0,.77-.48,1.18,1.18,0,0,0,.15-.65,1.8,1.8,0,0,0-.55-1.21l-1.31-1.24a5.58,5.58,0,0,1-1-1.27A2.94,2.94,0,0,1,216,16.2a2.39,2.39,0,0,1,.9-2,2.23,2.23,0,0,1,1.37-.41,2.49,2.49,0,0,1,1.35.35,2,2,0,0,1,.71.76,2.81,2.81,0,0,1,.32,1.13l-1.41.26a1.7,1.7,0,0,0-.34-.93.72.72,0,0,0-.58-.24.67.67,0,0,0-.62.36,1.38,1.38,0,0,0-.17.72,2.15,2.15,0,0,0,.58,1.36,4.88,4.88,0,0,0,.65.62q.51.43.68.6a5,5,0,0,1,.84,1.07,4.21,4.21,0,0,1,.23.46A2.68,2.68,0,0,1,220.75,21.22Z"/></g></g></g></svg>