<svg xmlns="http://www.w3.org/2000/svg" xmlns:xlink="http://www.w3.org/1999/xlink" viewBox="0 0 91 21"><defs><style>.cls-1{fill:url(#linear-gradient);}.cls-2{fill:#fff;}</style><linearGradient id="linear-gradient" x1="45.5" y1="-5" x2="45.5" y2="35.41" gradientUnits="userSpaceOnUse"><stop offset="0.04" stop-color="#ff3350"/><stop offset="1" stop-color="#9c0d50"/></linearGradient></defs><title>curs_btn</title><g id="Capa_2" data-name="Capa 2"><g id="Layer_5" data-name="Layer 5"><rect class="cls-1" width="91" height="21" rx="10.5" ry="10.5"/><path class="cls-2" d="M11.4,8.43a2.21,2.21,0,0,0-2-.95A2.34,2.34,0,0,0,6.95,10a2.31,2.31,0,0,0,2.42,2.41,2.26,2.26,0,0,0,2-.89l.63.3a3.08,3.08,0,0,1-2.58,1.31A2.94,2.94,0,0,1,6.22,10,3,3,0,0,1,9.46,6.82a2.94,2.94,0,0,1,2.59,1.35Z"/><path class="cls-2" d="M16.41,13l0-.83h0a1.62,1.62,0,0,1-1.58.92A1.57,1.57,0,0,1,13,11.42V8.61h.69v2.74a1.07,1.07,0,0,0,1.22,1.13A1.35,1.35,0,0,0,16.36,11V8.61h.69V13Z"/><path class="cls-2" d="M20.77,9.17c-1.31,0-1.58,1.05-1.58,2.09V13H18.5V8.61h.68c0,.39,0,.75,0,1.11a1.72,1.72,0,0,1,1.62-1.21Z"/><path class="cls-2" d="M21.47,11.61l.7,0c0,.6.46,1,1.29,1,.53,0,1.15-.24,1.15-.77,0-1.15-3-.16-3-2,0-.8.86-1.29,1.76-1.29,1.24,0,1.84.56,1.91,1.46l-.7,0c0-.59-.45-.92-1.22-.92-.56,0-1.08.28-1.08.74,0,1.09,3.05.18,3.05,1.94,0,.91-.94,1.31-1.87,1.31C22.15,13.08,21.51,12.55,21.47,11.61Z"/><path class="cls-2" d="M26.28,10.8a2.17,2.17,0,0,1,2.28-2.3,2.14,2.14,0,0,1,2.29,2.3,2.28,2.28,0,1,1-4.56,0Zm.67,0a1.55,1.55,0,0,0,1.61,1.68,1.57,1.57,0,0,0,1.62-1.68,1.62,1.62,0,1,0-3.23,0Z"/><path class="cls-2" d="M31.8,11.61l.7,0c0,.6.46,1,1.29,1,.53,0,1.15-.24,1.15-.77,0-1.15-3-.16-3-2,0-.8.86-1.29,1.76-1.29,1.24,0,1.84.56,1.91,1.46l-.7,0c0-.59-.45-.92-1.22-.92-.56,0-1.08.28-1.08.74,0,1.09,3.05.18,3.05,1.94,0,.91-.94,1.31-1.87,1.31C32.49,13.08,31.85,12.55,31.8,11.61Z"/><path class="cls-2" d="M43.32,13l-.76-1.73H39.5L38.72,13H38l2.81-6.1h.67L44.14,13ZM41.06,7.82l-1.3,2.85h2.55Z"/><path class="cls-2" d="M45.71,12.13c0,.34,0,.66,0,1v1.39H45V8.61h.68V9c0,.16,0,.49,0,.49a2,2,0,0,1,1.71-1,2.09,2.09,0,0,1,2.15,2.3,2.09,2.09,0,0,1-2.18,2.3A1.79,1.79,0,0,1,45.71,12.13Zm0-1.34a1.51,1.51,0,0,0,1.58,1.72,1.54,1.54,0,0,0,1.53-1.69,1.54,1.54,0,0,0-1.52-1.69A1.56,1.56,0,0,0,45.74,10.79Z"/><path class="cls-2" d="M53.06,9.17c-1.31,0-1.58,1.05-1.58,2.09V13h-.69V8.61h.68c0,.39,0,.75,0,1.11a1.72,1.72,0,0,1,1.62-1.21Z"/><path class="cls-2" d="M53.6,10.8a2.17,2.17,0,0,1,2.28-2.3,2.14,2.14,0,0,1,2.29,2.3,2.28,2.28,0,1,1-4.56,0Zm.67,0a1.55,1.55,0,0,0,1.61,1.68,1.57,1.57,0,0,0,1.62-1.68,1.62,1.62,0,1,0-3.23,0Z"/><path class="cls-2" d="M60.06,12.1c0,.16,0,.31,0,.46s0,.3,0,.44h-.68V6.9h.68v2c0,.2,0,.59,0,.59a2,2,0,0,1,1.72-.95,2.08,2.08,0,0,1,2.14,2.3,2.08,2.08,0,0,1-2.18,2.28A1.87,1.87,0,0,1,60.06,12.1Zm0-1.29a1.55,1.55,0,0,0,1.59,1.67,1.53,1.53,0,0,0,1.52-1.68,1.56,1.56,0,1,0-3.12,0Z"/><path class="cls-2" d="M68.71,13v-.91a1.77,1.77,0,0,1-1.68,1,2.11,2.11,0,0,1-2.17-2.27A2.15,2.15,0,0,1,67.08,8.5a1.9,1.9,0,0,1,1.66,1s0-.56,0-.86h.67V13Zm-3.16-2.19a1.51,1.51,0,0,0,1.53,1.67,1.57,1.57,0,0,0,1.6-1.67,1.51,1.51,0,0,0-1.6-1.69A1.56,1.56,0,0,0,65.55,10.81Z"/><path class="cls-2" d="M74.39,13v-.9a1.89,1.89,0,0,1-1.71,1,2.09,2.09,0,0,1-2.14-2.3,2.11,2.11,0,0,1,2.17-2.31,1.94,1.94,0,0,1,1.71,1s0-.68,0-1V6.9h.68V13Zm-3.15-2.21a1.51,1.51,0,0,0,1.53,1.69,1.59,1.59,0,0,0,1.6-1.69,1.52,1.52,0,0,0-1.6-1.7A1.56,1.56,0,0,0,71.24,10.79Z"/><path class="cls-2" d="M76.28,10.8a2.17,2.17,0,0,1,2.28-2.3,2.14,2.14,0,0,1,2.29,2.3,2.28,2.28,0,1,1-4.56,0Zm.67,0a1.55,1.55,0,0,0,1.61,1.68,1.57,1.57,0,0,0,1.62-1.68,1.62,1.62,0,1,0-3.23,0Z"/><path class="cls-2" d="M81.8,11.61l.7,0c0,.6.46,1,1.29,1,.53,0,1.15-.24,1.15-.77,0-1.15-3-.16-3-2,0-.8.86-1.29,1.76-1.29,1.24,0,1.84.56,1.91,1.46l-.7,0c0-.59-.45-.92-1.22-.92-.56,0-1.08.28-1.08.74,0,1.09,3.05.18,3.05,1.94,0,.91-.94,1.31-1.87,1.31C82.49,13.08,81.85,12.55,81.8,11.61Z"/></g></g></svg>